%
M48
M72
T01C0.01200
T02C0.02000
T03C0.02362
T04C0.02400
T05C0.02756
T06C0.03150
T07C0.03200
T08C0.03346
T09C0.03600
T10C0.03937
T11C0.04000
T12C0.04400
T13C0.05118
%
T01
X109770Y194375
X158520Y143750
X168520Y140625
X169770Y135000
X154770Y118750
X125395Y115000
X176645Y86250
X204145Y102500
X232895Y96250
X241020Y86250
X247270Y95625
X258520Y89375
X235395Y71875
X227895Y55625
X233520Y54375
X257895Y46250
X279145Y53125
X236645Y28125
X187895Y36250
X165395Y52500
X144770Y38750
X136645Y52500
X111020Y71250
X61645Y41875
X89145Y17500
X24770Y71250
X225395Y177500
X272270Y112500
T02
X41520Y145000
X187270Y136250
X189770Y91250
X210395Y52500
X261020Y128750
T03
X22520Y163437
X22520Y130563
T04
X214520Y190000
X234520Y190000
T05
X34331Y155760
X34331Y138240
T06
X31709Y191000
X43520Y172102
X54520Y156000
X54520Y136000
T07
X66520Y180000
X86520Y180000
X98520Y161000
X98520Y131000
X95520Y110000
X84520Y110000
X64520Y110000
X70520Y85000
X80520Y75000
X90520Y85000
X106520Y78000
X106520Y64000
X106520Y50000
X106520Y33000
X146520Y50000
X146520Y64000
X146520Y78000
X146520Y93000
X146520Y110000
X157520Y110000
X177520Y110000
X188520Y109000
X198520Y109000
X208520Y109000
X218520Y109000
X228520Y109000
X238520Y109000
X248520Y109000
X248520Y79000
X238520Y79000
X228520Y79000
X218520Y79000
X208520Y79000
X198520Y79000
X188520Y79000
X185520Y64000
X205520Y64000
X218520Y64000
X228520Y64000
X238520Y64000
X248520Y64000
X248520Y34000
X238520Y34000
X228520Y34000
X218520Y34000
X156520Y33000
X106520Y93000
X115520Y110000
X126520Y110000
X199520Y172000
X198520Y206000
X218520Y206000
X228520Y206000
X248520Y206000
X249520Y172000
T08
X118520Y157000
X128520Y157000
X138520Y157000
X148520Y157000
X158520Y157000
X168520Y157000
X178520Y157000
X188520Y157000
X198520Y157000
X208520Y157000
X218520Y157000
X228520Y157000
X238520Y157000
X248520Y157000
X248520Y127000
X238520Y127000
X228520Y127000
X218520Y127000
X208520Y127000
X198520Y127000
X188520Y127000
X178520Y127000
X168520Y127000
X158520Y127000
X148520Y127000
X138520Y127000
X128520Y127000
X118520Y127000
T09
X69520Y17000
X79520Y17000
T10
X55331Y191000
T11
X80520Y156000
X80520Y146000
X80520Y136000
X44520Y100000
X34520Y100000
X34520Y90000
X44520Y90000
X44520Y80000
X34520Y80000
X34520Y70000
X44520Y70000
X44520Y60000
X34520Y60000
X30520Y26000
X40520Y26000
X50520Y26000
X50520Y16000
X40520Y16000
X30520Y16000
X97520Y17000
X107520Y17000
X117520Y17000
X127520Y17000
X137520Y17000
X147520Y17000
X157520Y17000
X167520Y17000
X184520Y17000
X194520Y17000
X204520Y17000
X214520Y17000
X224520Y17000
X234520Y17000
X244520Y17000
X254520Y17000
X265520Y33000
X265520Y43000
X265520Y53000
X265520Y63000
X265520Y73000
X265520Y83000
X265520Y93000
X265520Y103000
X265520Y165000
X265520Y175000
X265520Y185000
X265520Y195000
X265520Y205000
T12
X134520Y206000
X134520Y189000
X134520Y172000
X174520Y172000
X174520Y189000
X174520Y206000
T13
X92724Y202000
X118315Y202000
M30
