G75*
%MOIN*%
%OFA0B0*%
%FSLAX25Y25*%
%IPPOS*%
%LPD*%
%AMOC8*
5,1,8,0,0,1.08239X$1,22.5*
%
%ADD10C,0.00000*%
%ADD11C,0.06000*%
%ADD12OC8,0.05200*%
%ADD13C,0.06600*%
%ADD14C,0.07400*%
%ADD15C,0.08600*%
%ADD16C,0.05200*%
%ADD17OC8,0.06800*%
%ADD18C,0.05600*%
%ADD19C,0.10000*%
%ADD20C,0.04400*%
%ADD21OC8,0.06600*%
%ADD22C,0.04362*%
%ADD23C,0.04756*%
%ADD24C,0.01600*%
%ADD25C,0.03200*%
%ADD26C,0.01000*%
%ADD27C,0.02400*%
%ADD28C,0.02400*%
D10*
X0014520Y0012000D02*
X0014520Y0207961D01*
X0014523Y0208203D01*
X0014532Y0208444D01*
X0014546Y0208685D01*
X0014567Y0208926D01*
X0014593Y0209166D01*
X0014625Y0209406D01*
X0014663Y0209645D01*
X0014706Y0209882D01*
X0014756Y0210119D01*
X0014811Y0210354D01*
X0014871Y0210588D01*
X0014938Y0210820D01*
X0015009Y0211051D01*
X0015087Y0211280D01*
X0015170Y0211507D01*
X0015258Y0211732D01*
X0015352Y0211955D01*
X0015451Y0212175D01*
X0015556Y0212393D01*
X0015665Y0212608D01*
X0015780Y0212821D01*
X0015900Y0213031D01*
X0016025Y0213237D01*
X0016155Y0213441D01*
X0016290Y0213642D01*
X0016430Y0213839D01*
X0016574Y0214033D01*
X0016723Y0214223D01*
X0016877Y0214409D01*
X0017035Y0214592D01*
X0017197Y0214771D01*
X0017364Y0214946D01*
X0017535Y0215117D01*
X0017710Y0215284D01*
X0017889Y0215446D01*
X0018072Y0215604D01*
X0018258Y0215758D01*
X0018448Y0215907D01*
X0018642Y0216051D01*
X0018839Y0216191D01*
X0019040Y0216326D01*
X0019244Y0216456D01*
X0019450Y0216581D01*
X0019660Y0216701D01*
X0019873Y0216816D01*
X0020088Y0216925D01*
X0020306Y0217030D01*
X0020526Y0217129D01*
X0020749Y0217223D01*
X0020974Y0217311D01*
X0021201Y0217394D01*
X0021430Y0217472D01*
X0021661Y0217543D01*
X0021893Y0217610D01*
X0022127Y0217670D01*
X0022362Y0217725D01*
X0022599Y0217775D01*
X0022836Y0217818D01*
X0023075Y0217856D01*
X0023315Y0217888D01*
X0023555Y0217914D01*
X0023796Y0217935D01*
X0024037Y0217949D01*
X0024278Y0217958D01*
X0024520Y0217961D01*
X0269205Y0217961D01*
X0284220Y0205945D02*
X0284220Y0013000D01*
X0284216Y0012710D01*
X0284206Y0012420D01*
X0284188Y0012131D01*
X0284164Y0011842D01*
X0284133Y0011554D01*
X0284094Y0011266D01*
X0284049Y0010980D01*
X0283996Y0010694D01*
X0283937Y0010411D01*
X0283871Y0010128D01*
X0283799Y0009848D01*
X0283719Y0009569D01*
X0283633Y0009292D01*
X0283540Y0009017D01*
X0283440Y0008745D01*
X0283334Y0008475D01*
X0283222Y0008208D01*
X0283102Y0007943D01*
X0282977Y0007682D01*
X0282845Y0007423D01*
X0282708Y0007168D01*
X0282564Y0006916D01*
X0282414Y0006668D01*
X0282258Y0006424D01*
X0282096Y0006183D01*
X0281928Y0005947D01*
X0281755Y0005714D01*
X0281576Y0005486D01*
X0281392Y0005262D01*
X0281202Y0005043D01*
X0281007Y0004828D01*
X0280807Y0004618D01*
X0280602Y0004413D01*
X0280392Y0004213D01*
X0280177Y0004018D01*
X0279958Y0003828D01*
X0279734Y0003644D01*
X0279506Y0003465D01*
X0279273Y0003292D01*
X0279037Y0003124D01*
X0278796Y0002962D01*
X0278552Y0002806D01*
X0278304Y0002656D01*
X0278052Y0002512D01*
X0277797Y0002375D01*
X0277538Y0002243D01*
X0277277Y0002118D01*
X0277012Y0001998D01*
X0276745Y0001886D01*
X0276475Y0001780D01*
X0276203Y0001680D01*
X0275928Y0001587D01*
X0275651Y0001501D01*
X0275372Y0001421D01*
X0275092Y0001349D01*
X0274809Y0001283D01*
X0274526Y0001224D01*
X0274240Y0001171D01*
X0273954Y0001126D01*
X0273666Y0001087D01*
X0273378Y0001056D01*
X0273089Y0001032D01*
X0272800Y0001014D01*
X0272510Y0001004D01*
X0272220Y0001000D01*
X0025520Y0001000D01*
X0025250Y0001003D01*
X0024980Y0001013D01*
X0024711Y0001030D01*
X0024442Y0001053D01*
X0024173Y0001083D01*
X0023906Y0001119D01*
X0023639Y0001162D01*
X0023374Y0001211D01*
X0023110Y0001267D01*
X0022847Y0001330D01*
X0022586Y0001398D01*
X0022327Y0001474D01*
X0022070Y0001555D01*
X0021814Y0001643D01*
X0021561Y0001737D01*
X0021310Y0001837D01*
X0021062Y0001944D01*
X0020817Y0002056D01*
X0020574Y0002175D01*
X0020335Y0002299D01*
X0020098Y0002429D01*
X0019865Y0002565D01*
X0019635Y0002707D01*
X0019409Y0002854D01*
X0019186Y0003007D01*
X0018967Y0003165D01*
X0018752Y0003328D01*
X0018542Y0003497D01*
X0018335Y0003671D01*
X0018133Y0003850D01*
X0017935Y0004033D01*
X0017742Y0004222D01*
X0017553Y0004415D01*
X0017370Y0004613D01*
X0017191Y0004815D01*
X0017017Y0005022D01*
X0016848Y0005232D01*
X0016685Y0005447D01*
X0016527Y0005666D01*
X0016374Y0005889D01*
X0016227Y0006115D01*
X0016085Y0006345D01*
X0015949Y0006578D01*
X0015819Y0006815D01*
X0015695Y0007054D01*
X0015576Y0007297D01*
X0015464Y0007542D01*
X0015357Y0007790D01*
X0015257Y0008041D01*
X0015163Y0008294D01*
X0015075Y0008550D01*
X0014994Y0008807D01*
X0014918Y0009066D01*
X0014850Y0009327D01*
X0014787Y0009590D01*
X0014731Y0009854D01*
X0014682Y0010119D01*
X0014639Y0010386D01*
X0014603Y0010653D01*
X0014573Y0010922D01*
X0014550Y0011191D01*
X0014533Y0011460D01*
X0014523Y0011730D01*
X0014520Y0012000D01*
X0269205Y0217961D02*
X0269532Y0217993D01*
X0269860Y0218018D01*
X0270188Y0218034D01*
X0270516Y0218043D01*
X0270845Y0218043D01*
X0271174Y0218036D01*
X0271502Y0218021D01*
X0271830Y0217997D01*
X0272157Y0217966D01*
X0272483Y0217927D01*
X0272808Y0217880D01*
X0273132Y0217826D01*
X0273455Y0217763D01*
X0273776Y0217693D01*
X0274095Y0217615D01*
X0274413Y0217529D01*
X0274728Y0217435D01*
X0275040Y0217334D01*
X0275350Y0217226D01*
X0275658Y0217110D01*
X0275963Y0216987D01*
X0276264Y0216856D01*
X0276562Y0216718D01*
X0276857Y0216573D01*
X0277148Y0216421D01*
X0277436Y0216261D01*
X0277720Y0216095D01*
X0277999Y0215922D01*
X0278274Y0215743D01*
X0278545Y0215557D01*
X0278811Y0215364D01*
X0279073Y0215165D01*
X0279329Y0214960D01*
X0279581Y0214748D01*
X0279827Y0214531D01*
X0280068Y0214307D01*
X0280304Y0214078D01*
X0280534Y0213843D01*
X0280758Y0213603D01*
X0280976Y0213357D01*
X0281189Y0213107D01*
X0281395Y0212851D01*
X0281595Y0212590D01*
X0281789Y0212325D01*
X0281976Y0212054D01*
X0282156Y0211780D01*
X0282330Y0211501D01*
X0282497Y0211218D01*
X0282658Y0210931D01*
X0282811Y0210640D01*
X0282957Y0210346D01*
X0283096Y0210048D01*
X0283228Y0209747D01*
X0283352Y0209443D01*
X0283469Y0209136D01*
X0283579Y0208826D01*
X0283681Y0208514D01*
X0283776Y0208199D01*
X0283862Y0207882D01*
X0283942Y0207563D01*
X0284013Y0207243D01*
X0284077Y0206920D01*
X0284133Y0206596D01*
X0284181Y0206271D01*
X0284221Y0205945D01*
D11*
X0268520Y0205000D02*
X0262520Y0205000D01*
X0262520Y0195000D02*
X0268520Y0195000D01*
X0268520Y0185000D02*
X0262520Y0185000D01*
X0262520Y0175000D02*
X0268520Y0175000D01*
X0268520Y0165000D02*
X0262520Y0165000D01*
X0262520Y0097000D02*
X0268520Y0097000D01*
X0268520Y0087000D02*
X0262520Y0087000D01*
X0262520Y0077000D02*
X0268520Y0077000D01*
X0268520Y0067000D02*
X0262520Y0067000D01*
X0262520Y0057000D02*
X0268520Y0057000D01*
X0268520Y0047000D02*
X0262520Y0047000D01*
X0262520Y0037000D02*
X0268520Y0037000D01*
X0268520Y0027000D02*
X0262520Y0027000D01*
X0249520Y0020000D02*
X0249520Y0014000D01*
X0239520Y0014000D02*
X0239520Y0020000D01*
X0229520Y0020000D02*
X0229520Y0014000D01*
X0219520Y0014000D02*
X0219520Y0020000D01*
X0209520Y0020000D02*
X0209520Y0014000D01*
X0199520Y0014000D02*
X0199520Y0020000D01*
X0189520Y0020000D02*
X0189520Y0014000D01*
X0179520Y0014000D02*
X0179520Y0020000D01*
X0162520Y0020000D02*
X0162520Y0014000D01*
X0152520Y0014000D02*
X0152520Y0020000D01*
X0142520Y0020000D02*
X0142520Y0014000D01*
X0132520Y0014000D02*
X0132520Y0020000D01*
X0122520Y0020000D02*
X0122520Y0014000D01*
X0112520Y0014000D02*
X0112520Y0020000D01*
X0102520Y0020000D02*
X0102520Y0014000D01*
X0092520Y0014000D02*
X0092520Y0020000D01*
X0083520Y0136000D02*
X0077520Y0136000D01*
X0077520Y0146000D02*
X0083520Y0146000D01*
X0083520Y0156000D02*
X0077520Y0156000D01*
D12*
X0098520Y0161000D03*
X0086520Y0180000D03*
X0066520Y0180000D03*
X0098520Y0131000D03*
X0095520Y0110000D03*
X0084520Y0110000D03*
X0064520Y0110000D03*
X0106520Y0093000D03*
X0106520Y0078000D03*
X0106520Y0064000D03*
X0106520Y0050000D03*
X0106520Y0033000D03*
X0146520Y0050000D03*
X0146520Y0064000D03*
X0146520Y0078000D03*
X0146520Y0093000D03*
X0146520Y0110000D03*
X0157520Y0110000D03*
X0177520Y0110000D03*
X0126520Y0110000D03*
X0115520Y0110000D03*
X0185520Y0064000D03*
X0205520Y0064000D03*
X0156520Y0033000D03*
X0182520Y0169000D03*
X0197520Y0203000D03*
X0182520Y0209000D03*
X0217520Y0203000D03*
X0228520Y0203000D03*
X0248520Y0203000D03*
D13*
X0169520Y0205000D03*
X0169520Y0190000D03*
X0169520Y0175000D03*
X0129520Y0175000D03*
X0129520Y0190000D03*
X0129520Y0205000D03*
D14*
X0054520Y0156000D03*
X0054520Y0136000D03*
X0044520Y0100000D03*
X0034520Y0100000D03*
X0034520Y0090000D03*
X0044520Y0090000D03*
X0044520Y0080000D03*
X0034520Y0080000D03*
X0034520Y0070000D03*
X0044520Y0070000D03*
X0044520Y0060000D03*
X0034520Y0060000D03*
X0030520Y0026000D03*
X0040520Y0026000D03*
X0050520Y0026000D03*
X0050520Y0016000D03*
X0040520Y0016000D03*
X0030520Y0016000D03*
D15*
X0039220Y0172102D02*
X0047820Y0172102D01*
X0055331Y0186700D02*
X0055331Y0195300D01*
X0031709Y0195300D02*
X0031709Y0186700D01*
D16*
X0188520Y0111600D02*
X0188520Y0106400D01*
X0198520Y0106400D02*
X0198520Y0111600D01*
X0208520Y0111600D02*
X0208520Y0106400D01*
X0218520Y0106400D02*
X0218520Y0111600D01*
X0228520Y0111600D02*
X0228520Y0106400D01*
X0238520Y0106400D02*
X0238520Y0111600D01*
X0248520Y0111600D02*
X0248520Y0106400D01*
X0248520Y0081600D02*
X0248520Y0076400D01*
X0238520Y0076400D02*
X0238520Y0081600D01*
X0228520Y0081600D02*
X0228520Y0076400D01*
X0218520Y0076400D02*
X0218520Y0081600D01*
X0208520Y0081600D02*
X0208520Y0076400D01*
X0198520Y0076400D02*
X0198520Y0081600D01*
X0188520Y0081600D02*
X0188520Y0076400D01*
D17*
X0218520Y0064000D03*
X0228520Y0064000D03*
X0238520Y0064000D03*
X0248520Y0064000D03*
X0248520Y0034000D03*
X0238520Y0034000D03*
X0228520Y0034000D03*
X0218520Y0034000D03*
D18*
X0218520Y0124200D02*
X0218520Y0129800D01*
X0228520Y0129800D02*
X0228520Y0124200D01*
X0238520Y0124200D02*
X0238520Y0129800D01*
X0248520Y0129800D02*
X0248520Y0124200D01*
X0248520Y0154200D02*
X0248520Y0159800D01*
X0238520Y0159800D02*
X0238520Y0154200D01*
X0228520Y0154200D02*
X0228520Y0159800D01*
X0218520Y0159800D02*
X0218520Y0154200D01*
X0208520Y0154200D02*
X0208520Y0159800D01*
X0198520Y0159800D02*
X0198520Y0154200D01*
X0188520Y0154200D02*
X0188520Y0159800D01*
X0178520Y0159800D02*
X0178520Y0154200D01*
X0168520Y0154200D02*
X0168520Y0159800D01*
X0158520Y0159800D02*
X0158520Y0154200D01*
X0148520Y0154200D02*
X0148520Y0159800D01*
X0138520Y0159800D02*
X0138520Y0154200D01*
X0128520Y0154200D02*
X0128520Y0159800D01*
X0118520Y0159800D02*
X0118520Y0154200D01*
X0118520Y0129800D02*
X0118520Y0124200D01*
X0128520Y0124200D02*
X0128520Y0129800D01*
X0138520Y0129800D02*
X0138520Y0124200D01*
X0148520Y0124200D02*
X0148520Y0129800D01*
X0158520Y0129800D02*
X0158520Y0124200D01*
X0168520Y0124200D02*
X0168520Y0129800D01*
X0178520Y0129800D02*
X0178520Y0124200D01*
X0188520Y0124200D02*
X0188520Y0129800D01*
X0198520Y0129800D02*
X0198520Y0124200D01*
X0208520Y0124200D02*
X0208520Y0129800D01*
X0076520Y0019800D02*
X0076520Y0014200D01*
X0066520Y0014200D02*
X0066520Y0019800D01*
D19*
X0092724Y0202000D03*
X0118315Y0202000D03*
D20*
X0211520Y0182200D02*
X0211520Y0177800D01*
X0231520Y0177800D02*
X0231520Y0182200D01*
D21*
X0090520Y0085000D03*
X0080520Y0075000D03*
X0070520Y0085000D03*
D22*
X0024701Y0130563D02*
X0020339Y0130563D01*
X0020339Y0163437D02*
X0024701Y0163437D01*
D23*
X0031953Y0155760D02*
X0036709Y0155760D01*
X0036709Y0138240D02*
X0031953Y0138240D01*
D24*
X0042520Y0145000D02*
X0062520Y0145000D01*
X0064520Y0147000D01*
X0064520Y0180000D01*
X0066520Y0180000D01*
X0070920Y0180000D01*
X0070920Y0181823D01*
X0068342Y0184400D01*
X0066520Y0184400D01*
X0066520Y0180000D01*
X0066520Y0180000D01*
X0070920Y0180000D01*
X0070920Y0178177D01*
X0068342Y0175600D01*
X0066520Y0175600D01*
X0066520Y0180000D01*
X0066520Y0180000D01*
X0066520Y0180000D01*
X0066020Y0180500D01*
X0052520Y0180500D01*
X0042020Y0191000D01*
X0031709Y0191000D01*
X0037809Y0191000D01*
X0037809Y0195780D01*
X0037658Y0196728D01*
X0037362Y0197642D01*
X0036926Y0198497D01*
X0036361Y0199274D01*
X0035683Y0199953D01*
X0034906Y0200517D01*
X0034050Y0200953D01*
X0033137Y0201250D01*
X0032189Y0201400D01*
X0031709Y0201400D01*
X0031709Y0191000D01*
X0031709Y0191000D01*
X0037809Y0191000D01*
X0037809Y0186220D01*
X0037658Y0185272D01*
X0037362Y0184358D01*
X0036926Y0183503D01*
X0036361Y0182726D01*
X0035683Y0182047D01*
X0034906Y0181483D01*
X0034050Y0181047D01*
X0033137Y0180750D01*
X0032189Y0180600D01*
X0031709Y0180600D01*
X0031709Y0191000D01*
X0031709Y0191000D01*
X0031709Y0191000D01*
X0031709Y0180600D01*
X0031229Y0180600D01*
X0030280Y0180750D01*
X0029367Y0181047D01*
X0028512Y0181483D01*
X0027735Y0182047D01*
X0027056Y0182726D01*
X0026491Y0183503D01*
X0026056Y0184358D01*
X0025759Y0185272D01*
X0025609Y0186220D01*
X0025609Y0191000D01*
X0031709Y0191000D01*
X0031709Y0201400D01*
X0031229Y0201400D01*
X0030280Y0201250D01*
X0029367Y0200953D01*
X0028512Y0200517D01*
X0027735Y0199953D01*
X0027056Y0199274D01*
X0026491Y0198497D01*
X0026056Y0197642D01*
X0025759Y0196728D01*
X0025609Y0195780D01*
X0025609Y0191000D01*
X0031709Y0191000D01*
X0031709Y0191000D01*
X0031709Y0190223D02*
X0031709Y0190223D01*
X0031709Y0191821D02*
X0031709Y0191821D01*
X0031709Y0193420D02*
X0031709Y0193420D01*
X0031709Y0195018D02*
X0031709Y0195018D01*
X0031709Y0196617D02*
X0031709Y0196617D01*
X0031709Y0198215D02*
X0031709Y0198215D01*
X0031709Y0199814D02*
X0031709Y0199814D01*
X0035821Y0199814D02*
X0051218Y0199814D01*
X0051875Y0200471D02*
X0050159Y0198755D01*
X0049231Y0196513D01*
X0049231Y0185487D01*
X0050159Y0183245D01*
X0051875Y0181529D01*
X0054117Y0180600D01*
X0056544Y0180600D01*
X0058786Y0181529D01*
X0060502Y0183245D01*
X0061431Y0185487D01*
X0061431Y0196513D01*
X0060502Y0198755D01*
X0058786Y0200471D01*
X0056544Y0201400D01*
X0054117Y0201400D01*
X0051875Y0200471D01*
X0049936Y0198215D02*
X0037069Y0198215D01*
X0037676Y0196617D02*
X0049274Y0196617D01*
X0049231Y0195018D02*
X0037809Y0195018D01*
X0037809Y0193420D02*
X0049231Y0193420D01*
X0049231Y0191821D02*
X0037809Y0191821D01*
X0037809Y0190223D02*
X0049231Y0190223D01*
X0049231Y0188624D02*
X0037809Y0188624D01*
X0037809Y0187026D02*
X0049231Y0187026D01*
X0049255Y0185427D02*
X0037683Y0185427D01*
X0037092Y0183829D02*
X0049917Y0183829D01*
X0051174Y0182230D02*
X0035866Y0182230D01*
X0032389Y0180632D02*
X0054041Y0180632D01*
X0056621Y0180632D02*
X0062120Y0180632D01*
X0062120Y0180000D02*
X0066520Y0180000D01*
X0070520Y0180000D01*
X0092520Y0202000D01*
X0092724Y0202000D01*
X0092245Y0202480D02*
X0092245Y0201520D01*
X0093204Y0201520D01*
X0093204Y0195204D01*
X0094054Y0195316D01*
X0094915Y0195547D01*
X0095738Y0195888D01*
X0096510Y0196334D01*
X0097218Y0196877D01*
X0097848Y0197507D01*
X0098391Y0198214D01*
X0098836Y0198986D01*
X0099177Y0199810D01*
X0099408Y0200671D01*
X0099520Y0201520D01*
X0093204Y0201520D01*
X0093204Y0202480D01*
X0092245Y0202480D01*
X0092245Y0208796D01*
X0091395Y0208684D01*
X0090534Y0208453D01*
X0089710Y0208112D01*
X0088938Y0207666D01*
X0088231Y0207123D01*
X0087601Y0206493D01*
X0087058Y0205786D01*
X0086613Y0205014D01*
X0086271Y0204190D01*
X0086041Y0203329D01*
X0085929Y0202480D01*
X0092245Y0202480D01*
X0092245Y0203011D02*
X0093204Y0203011D01*
X0093204Y0202480D02*
X0093204Y0208796D01*
X0094054Y0208684D01*
X0094915Y0208453D01*
X0095738Y0208112D01*
X0096510Y0207666D01*
X0097218Y0207123D01*
X0097848Y0206493D01*
X0098391Y0205786D01*
X0098836Y0205014D01*
X0099177Y0204190D01*
X0099408Y0203329D01*
X0099520Y0202480D01*
X0093204Y0202480D01*
X0093204Y0201412D02*
X0092245Y0201412D01*
X0092245Y0201520D02*
X0092245Y0195204D01*
X0091395Y0195316D01*
X0090534Y0195547D01*
X0089710Y0195888D01*
X0088938Y0196334D01*
X0088231Y0196877D01*
X0087601Y0197507D01*
X0087058Y0198214D01*
X0086613Y0198986D01*
X0086271Y0199810D01*
X0086041Y0200671D01*
X0085929Y0201520D01*
X0092245Y0201520D01*
X0092245Y0199814D02*
X0093204Y0199814D01*
X0093204Y0198215D02*
X0092245Y0198215D01*
X0092245Y0196617D02*
X0093204Y0196617D01*
X0096879Y0196617D02*
X0114081Y0196617D01*
X0114463Y0196235D02*
X0116962Y0195200D01*
X0119668Y0195200D01*
X0122167Y0196235D01*
X0124080Y0198148D01*
X0125115Y0200647D01*
X0125115Y0202307D01*
X0125196Y0202111D01*
X0126631Y0200676D01*
X0126920Y0200557D01*
X0126920Y0198577D01*
X0101547Y0173204D01*
X0100816Y0172473D01*
X0100420Y0171517D01*
X0100420Y0165323D01*
X0100342Y0165400D01*
X0096697Y0165400D01*
X0094120Y0162823D01*
X0094120Y0159177D01*
X0096697Y0156600D01*
X0100342Y0156600D01*
X0100420Y0156677D01*
X0100420Y0136577D01*
X0099243Y0135400D01*
X0096697Y0135400D01*
X0094120Y0132823D01*
X0094120Y0129177D01*
X0096697Y0126600D01*
X0097420Y0126600D01*
X0097420Y0114323D01*
X0097342Y0114400D01*
X0095520Y0114400D01*
X0095520Y0110000D01*
X0095520Y0110000D01*
X0095520Y0114400D01*
X0093697Y0114400D01*
X0092620Y0113323D01*
X0092620Y0137057D01*
X0092644Y0137128D01*
X0092620Y0137572D01*
X0092620Y0138017D01*
X0092591Y0138086D01*
X0092587Y0138161D01*
X0092394Y0138562D01*
X0092224Y0138973D01*
X0092171Y0139026D01*
X0092139Y0139093D01*
X0091807Y0139390D01*
X0091492Y0139704D01*
X0091424Y0139733D01*
X0087527Y0143219D01*
X0087589Y0143281D01*
X0088320Y0145045D01*
X0088320Y0146955D01*
X0087589Y0148719D01*
X0086239Y0150069D01*
X0084474Y0150800D01*
X0076565Y0150800D01*
X0074801Y0150069D01*
X0073450Y0148719D01*
X0072720Y0146955D01*
X0072720Y0145045D01*
X0073450Y0143281D01*
X0074801Y0141931D01*
X0076565Y0141200D01*
X0081985Y0141200D01*
X0082432Y0140800D01*
X0076565Y0140800D01*
X0074801Y0140069D01*
X0073450Y0138719D01*
X0072720Y0136955D01*
X0072720Y0135045D01*
X0073450Y0133281D01*
X0074801Y0131931D01*
X0076565Y0131200D01*
X0084474Y0131200D01*
X0086239Y0131931D01*
X0087420Y0133112D01*
X0087420Y0113323D01*
X0086342Y0114400D01*
X0082697Y0114400D01*
X0080897Y0112600D01*
X0070502Y0112600D01*
X0069547Y0112204D01*
X0068920Y0111577D01*
X0068920Y0111823D01*
X0066342Y0114400D01*
X0064520Y0114400D01*
X0064520Y0110000D01*
X0064520Y0110000D01*
X0064520Y0147000D01*
X0059182Y0152884D02*
X0057635Y0151337D01*
X0055614Y0150500D01*
X0053426Y0150500D01*
X0051404Y0151337D01*
X0049857Y0152884D01*
X0049020Y0154906D01*
X0049020Y0157094D01*
X0049857Y0159115D01*
X0051404Y0160663D01*
X0053426Y0161500D01*
X0055614Y0161500D01*
X0057635Y0160663D01*
X0059182Y0159115D01*
X0060020Y0157094D01*
X0060020Y0154906D01*
X0059182Y0152884D01*
X0059420Y0153457D02*
X0073378Y0153457D01*
X0073450Y0153281D02*
X0074801Y0151931D01*
X0076565Y0151200D01*
X0084474Y0151200D01*
X0086239Y0151931D01*
X0087589Y0153281D01*
X0088320Y0155045D01*
X0088320Y0156955D01*
X0087589Y0158719D01*
X0086239Y0160069D01*
X0084474Y0160800D01*
X0076565Y0160800D01*
X0074801Y0160069D01*
X0073450Y0158719D01*
X0072720Y0156955D01*
X0072720Y0155045D01*
X0073450Y0153281D01*
X0072720Y0155056D02*
X0060020Y0155056D01*
X0060020Y0156654D02*
X0072720Y0156654D01*
X0073257Y0158253D02*
X0059540Y0158253D01*
X0058447Y0159851D02*
X0074583Y0159851D01*
X0074975Y0151859D02*
X0058156Y0151859D01*
X0050883Y0151859D02*
X0044520Y0151859D01*
X0044520Y0153457D02*
X0049620Y0153457D01*
X0049020Y0155056D02*
X0044520Y0155056D01*
X0044520Y0156654D02*
X0049020Y0156654D01*
X0049500Y0158253D02*
X0044520Y0158253D01*
X0044520Y0159851D02*
X0050593Y0159851D01*
X0053304Y0161450D02*
X0044520Y0161450D01*
X0044520Y0163048D02*
X0094345Y0163048D01*
X0094120Y0161450D02*
X0055735Y0161450D01*
X0051275Y0166931D02*
X0052991Y0168647D01*
X0053920Y0170889D01*
X0053920Y0173316D01*
X0052991Y0175558D01*
X0051275Y0177274D01*
X0049033Y0178202D01*
X0038006Y0178202D01*
X0035764Y0177274D01*
X0034048Y0175558D01*
X0033120Y0173316D01*
X0033120Y0170889D01*
X0033488Y0170000D01*
X0023422Y0170000D01*
X0022588Y0170072D01*
X0021780Y0170285D01*
X0021019Y0170632D01*
X0020329Y0171105D01*
X0019730Y0171688D01*
X0019239Y0172366D01*
X0018871Y0173117D01*
X0018636Y0173920D01*
X0018542Y0174751D01*
X0017543Y0212137D01*
X0018170Y0213000D01*
X0126267Y0213000D01*
X0121364Y0208097D01*
X0119668Y0208800D01*
X0116962Y0208800D01*
X0114463Y0207765D01*
X0112550Y0205852D01*
X0111515Y0203353D01*
X0111515Y0200647D01*
X0112550Y0198148D01*
X0114463Y0196235D01*
X0112522Y0198215D02*
X0098391Y0198215D01*
X0099179Y0199814D02*
X0111860Y0199814D01*
X0111515Y0201412D02*
X0099506Y0201412D01*
X0099450Y0203011D02*
X0111515Y0203011D01*
X0112036Y0204609D02*
X0099004Y0204609D01*
X0098067Y0206208D02*
X0112906Y0206208D01*
X0114564Y0207806D02*
X0096267Y0207806D01*
X0093204Y0207806D02*
X0092245Y0207806D01*
X0092245Y0206208D02*
X0093204Y0206208D01*
X0093204Y0204609D02*
X0092245Y0204609D01*
X0089182Y0207806D02*
X0017659Y0207806D01*
X0017701Y0206208D02*
X0087382Y0206208D01*
X0086445Y0204609D02*
X0017744Y0204609D01*
X0017787Y0203011D02*
X0085999Y0203011D01*
X0085943Y0201412D02*
X0017829Y0201412D01*
X0017872Y0199814D02*
X0027596Y0199814D01*
X0026348Y0198215D02*
X0017915Y0198215D01*
X0017958Y0196617D02*
X0025741Y0196617D01*
X0025609Y0195018D02*
X0018000Y0195018D01*
X0018043Y0193420D02*
X0025609Y0193420D01*
X0025609Y0191821D02*
X0018086Y0191821D01*
X0018129Y0190223D02*
X0025609Y0190223D01*
X0025609Y0188624D02*
X0018171Y0188624D01*
X0018214Y0187026D02*
X0025609Y0187026D01*
X0025734Y0185427D02*
X0018257Y0185427D01*
X0018300Y0183829D02*
X0026325Y0183829D01*
X0027552Y0182230D02*
X0018342Y0182230D01*
X0018385Y0180632D02*
X0031028Y0180632D01*
X0031709Y0180632D02*
X0031709Y0180632D01*
X0031709Y0182230D02*
X0031709Y0182230D01*
X0031709Y0183829D02*
X0031709Y0183829D01*
X0031709Y0185427D02*
X0031709Y0185427D01*
X0031709Y0187026D02*
X0031709Y0187026D01*
X0031709Y0188624D02*
X0031709Y0188624D01*
X0036153Y0177435D02*
X0018471Y0177435D01*
X0018428Y0179033D02*
X0062120Y0179033D01*
X0062120Y0178177D02*
X0062120Y0180000D01*
X0066520Y0180000D01*
X0066520Y0175600D01*
X0064697Y0175600D01*
X0062120Y0178177D01*
X0062862Y0177435D02*
X0050886Y0177435D01*
X0052712Y0175836D02*
X0064461Y0175836D01*
X0066520Y0175836D02*
X0066520Y0175836D01*
X0066520Y0177435D02*
X0066520Y0177435D01*
X0066520Y0179033D02*
X0066520Y0179033D01*
X0066520Y0180000D02*
X0066520Y0180000D01*
X0066520Y0184400D01*
X0064697Y0184400D01*
X0062120Y0181823D01*
X0062120Y0180000D01*
X0062527Y0182230D02*
X0059488Y0182230D01*
X0060744Y0183829D02*
X0064126Y0183829D01*
X0066520Y0183829D02*
X0066520Y0183829D01*
X0066520Y0182230D02*
X0066520Y0182230D01*
X0066520Y0180632D02*
X0066520Y0180632D01*
X0070512Y0182230D02*
X0082527Y0182230D01*
X0082120Y0181823D02*
X0082120Y0178177D01*
X0084697Y0175600D01*
X0088342Y0175600D01*
X0090920Y0178177D01*
X0090920Y0181823D01*
X0088342Y0184400D01*
X0084697Y0184400D01*
X0082120Y0181823D01*
X0082120Y0180632D02*
X0070920Y0180632D01*
X0070920Y0179033D02*
X0082120Y0179033D01*
X0082862Y0177435D02*
X0070177Y0177435D01*
X0068578Y0175836D02*
X0084461Y0175836D01*
X0088578Y0175836D02*
X0104179Y0175836D01*
X0102580Y0174238D02*
X0053538Y0174238D01*
X0053920Y0172639D02*
X0100982Y0172639D01*
X0100420Y0171041D02*
X0053920Y0171041D01*
X0053320Y0169442D02*
X0100420Y0169442D01*
X0100420Y0167844D02*
X0052188Y0167844D01*
X0051275Y0166931D02*
X0049033Y0166002D01*
X0044397Y0166002D01*
X0044520Y0165343D01*
X0044520Y0130831D01*
X0044436Y0129762D01*
X0044185Y0128720D01*
X0043775Y0127730D01*
X0043215Y0126816D01*
X0042519Y0126001D01*
X0041704Y0125305D01*
X0040790Y0124745D01*
X0039800Y0124334D01*
X0038757Y0124084D01*
X0037689Y0124000D01*
X0020799Y0124000D01*
X0020162Y0123936D01*
X0019550Y0123748D01*
X0018987Y0123444D01*
X0018494Y0123036D01*
X0018091Y0122539D01*
X0017794Y0121972D01*
X0017613Y0121358D01*
X0017556Y0120720D01*
X0018520Y0008000D01*
X0057777Y0008000D01*
X0057577Y0008200D01*
X0045067Y0008200D01*
X0042429Y0010838D01*
X0041614Y0010500D01*
X0039426Y0010500D01*
X0037404Y0011337D01*
X0035857Y0012884D01*
X0035520Y0013699D01*
X0035182Y0012884D01*
X0033635Y0011337D01*
X0031614Y0010500D01*
X0029426Y0010500D01*
X0027404Y0011337D01*
X0025857Y0012884D01*
X0025020Y0014906D01*
X0025020Y0017094D01*
X0025857Y0019115D01*
X0027404Y0020663D01*
X0028219Y0021000D01*
X0027404Y0021337D01*
X0025857Y0022884D01*
X0025020Y0024906D01*
X0025020Y0027094D01*
X0025857Y0029115D01*
X0027404Y0030663D01*
X0029426Y0031500D01*
X0031614Y0031500D01*
X0032129Y0031286D01*
X0032920Y0032077D01*
X0032920Y0040923D01*
X0022547Y0051296D01*
X0021816Y0052027D01*
X0021420Y0052983D01*
X0021420Y0098017D01*
X0021816Y0098973D01*
X0029816Y0106973D01*
X0030547Y0107704D01*
X0031502Y0108100D01*
X0039537Y0108100D01*
X0040492Y0107704D01*
X0042910Y0105286D01*
X0043426Y0105500D01*
X0045614Y0105500D01*
X0047635Y0104663D01*
X0049182Y0103115D01*
X0049396Y0102600D01*
X0059943Y0102600D01*
X0062943Y0105600D01*
X0062697Y0105600D01*
X0060120Y0108177D01*
X0060120Y0110000D01*
X0064520Y0110000D01*
X0064520Y0114400D01*
X0062697Y0114400D01*
X0060120Y0111823D01*
X0060120Y0110000D01*
X0064520Y0110000D01*
X0064520Y0110000D01*
X0064520Y0110297D02*
X0064520Y0110297D01*
X0064520Y0111896D02*
X0064520Y0111896D01*
X0064520Y0113494D02*
X0064520Y0113494D01*
X0067248Y0113494D02*
X0081791Y0113494D01*
X0084520Y0110000D02*
X0071020Y0110000D01*
X0061020Y0100000D01*
X0044520Y0100000D01*
X0039020Y0105500D01*
X0032020Y0105500D01*
X0024020Y0097500D01*
X0024020Y0053500D01*
X0035520Y0042000D01*
X0035520Y0032000D01*
X0036020Y0031500D01*
X0030520Y0026000D01*
X0026362Y0022379D02*
X0018397Y0022379D01*
X0018410Y0020781D02*
X0027689Y0020781D01*
X0025924Y0019182D02*
X0018424Y0019182D01*
X0018438Y0017584D02*
X0025222Y0017584D01*
X0025020Y0015985D02*
X0018451Y0015985D01*
X0018465Y0014387D02*
X0025235Y0014387D01*
X0025953Y0012788D02*
X0018479Y0012788D01*
X0018492Y0011190D02*
X0027761Y0011190D01*
X0033278Y0011190D02*
X0037761Y0011190D01*
X0035953Y0012788D02*
X0035086Y0012788D01*
X0043676Y0009591D02*
X0018506Y0009591D01*
X0018383Y0023978D02*
X0025404Y0023978D01*
X0025020Y0025576D02*
X0018369Y0025576D01*
X0018356Y0027175D02*
X0025053Y0027175D01*
X0025715Y0028773D02*
X0018342Y0028773D01*
X0018328Y0030372D02*
X0027113Y0030372D01*
X0032813Y0031970D02*
X0018315Y0031970D01*
X0018301Y0033569D02*
X0032920Y0033569D01*
X0032920Y0035167D02*
X0018287Y0035167D01*
X0018274Y0036766D02*
X0032920Y0036766D01*
X0032920Y0038364D02*
X0018260Y0038364D01*
X0018247Y0039963D02*
X0032920Y0039963D01*
X0032281Y0041561D02*
X0018233Y0041561D01*
X0018219Y0043160D02*
X0030683Y0043160D01*
X0029084Y0044758D02*
X0018206Y0044758D01*
X0018192Y0046357D02*
X0027486Y0046357D01*
X0025887Y0047955D02*
X0018178Y0047955D01*
X0018165Y0049554D02*
X0024289Y0049554D01*
X0022690Y0051152D02*
X0018151Y0051152D01*
X0018137Y0052751D02*
X0021516Y0052751D01*
X0021420Y0054349D02*
X0018124Y0054349D01*
X0018110Y0055948D02*
X0021420Y0055948D01*
X0021420Y0057546D02*
X0018096Y0057546D01*
X0018083Y0059145D02*
X0021420Y0059145D01*
X0021420Y0060743D02*
X0018069Y0060743D01*
X0018055Y0062342D02*
X0021420Y0062342D01*
X0021420Y0063940D02*
X0018042Y0063940D01*
X0018028Y0065539D02*
X0021420Y0065539D01*
X0021420Y0067137D02*
X0018014Y0067137D01*
X0018001Y0068736D02*
X0021420Y0068736D01*
X0021420Y0070334D02*
X0017987Y0070334D01*
X0017973Y0071933D02*
X0021420Y0071933D01*
X0021420Y0073532D02*
X0017960Y0073532D01*
X0017946Y0075130D02*
X0021420Y0075130D01*
X0021420Y0076729D02*
X0017932Y0076729D01*
X0017919Y0078327D02*
X0021420Y0078327D01*
X0021420Y0079926D02*
X0017905Y0079926D01*
X0017891Y0081524D02*
X0021420Y0081524D01*
X0021420Y0083123D02*
X0017878Y0083123D01*
X0017864Y0084721D02*
X0021420Y0084721D01*
X0021420Y0086320D02*
X0017850Y0086320D01*
X0017837Y0087918D02*
X0021420Y0087918D01*
X0021420Y0089517D02*
X0017823Y0089517D01*
X0017809Y0091115D02*
X0021420Y0091115D01*
X0021420Y0092714D02*
X0017796Y0092714D01*
X0017782Y0094312D02*
X0021420Y0094312D01*
X0021420Y0095911D02*
X0017768Y0095911D01*
X0017755Y0097509D02*
X0021420Y0097509D01*
X0021950Y0099108D02*
X0017741Y0099108D01*
X0017727Y0100706D02*
X0023549Y0100706D01*
X0025147Y0102305D02*
X0017714Y0102305D01*
X0017700Y0103903D02*
X0026746Y0103903D01*
X0028344Y0105502D02*
X0017686Y0105502D01*
X0017673Y0107100D02*
X0029943Y0107100D01*
X0041096Y0107100D02*
X0061197Y0107100D01*
X0060120Y0108699D02*
X0017659Y0108699D01*
X0017645Y0110297D02*
X0060120Y0110297D01*
X0060193Y0111896D02*
X0017632Y0111896D01*
X0017618Y0113494D02*
X0061791Y0113494D01*
X0068846Y0111896D02*
X0069239Y0111896D01*
X0062845Y0105502D02*
X0042695Y0105502D01*
X0048395Y0103903D02*
X0061246Y0103903D01*
X0074343Y0092714D02*
X0081056Y0092714D01*
X0079458Y0091115D02*
X0072653Y0091115D01*
X0072632Y0090100D02*
X0071580Y0090100D01*
X0084055Y0101900D01*
X0086537Y0101900D01*
X0087492Y0102296D01*
X0092224Y0107027D01*
X0092237Y0107060D01*
X0093697Y0105600D01*
X0093943Y0105600D01*
X0078316Y0089973D01*
X0077920Y0089017D01*
X0077920Y0079612D01*
X0075420Y0077112D01*
X0075420Y0072888D01*
X0078407Y0069900D01*
X0080167Y0069900D01*
X0078767Y0068500D01*
X0077923Y0068500D01*
X0076820Y0068043D01*
X0075976Y0067199D01*
X0075836Y0066861D01*
X0067120Y0075577D01*
X0067120Y0081188D01*
X0068407Y0079900D01*
X0070520Y0079900D01*
X0072632Y0079900D01*
X0075620Y0082888D01*
X0075620Y0085000D01*
X0075620Y0087112D01*
X0072632Y0090100D01*
X0073216Y0089517D02*
X0078127Y0089517D01*
X0077920Y0087918D02*
X0074814Y0087918D01*
X0075620Y0086320D02*
X0077920Y0086320D01*
X0077920Y0084721D02*
X0075620Y0084721D01*
X0075620Y0085000D02*
X0070520Y0085000D01*
X0075620Y0085000D01*
X0075620Y0083123D02*
X0077920Y0083123D01*
X0077920Y0081524D02*
X0074256Y0081524D01*
X0072658Y0079926D02*
X0077920Y0079926D01*
X0076634Y0078327D02*
X0067120Y0078327D01*
X0067120Y0076729D02*
X0075420Y0076729D01*
X0075420Y0075130D02*
X0067567Y0075130D01*
X0069165Y0073532D02*
X0075420Y0073532D01*
X0076374Y0071933D02*
X0070764Y0071933D01*
X0072362Y0070334D02*
X0077973Y0070334D01*
X0079003Y0068736D02*
X0073961Y0068736D01*
X0075559Y0067137D02*
X0075951Y0067137D01*
X0076520Y0062500D02*
X0064520Y0074500D01*
X0064520Y0087000D01*
X0083020Y0104500D01*
X0086020Y0104500D01*
X0090020Y0108500D01*
X0090020Y0137500D01*
X0080520Y0146000D01*
X0085778Y0150260D02*
X0100420Y0150260D01*
X0100420Y0148662D02*
X0087613Y0148662D01*
X0088275Y0147063D02*
X0100420Y0147063D01*
X0100420Y0145465D02*
X0088320Y0145465D01*
X0087831Y0143866D02*
X0100420Y0143866D01*
X0100420Y0142268D02*
X0088591Y0142268D01*
X0090377Y0140669D02*
X0100420Y0140669D01*
X0100420Y0139070D02*
X0092149Y0139070D01*
X0092625Y0137472D02*
X0100420Y0137472D01*
X0099716Y0135873D02*
X0092620Y0135873D01*
X0092620Y0134275D02*
X0095572Y0134275D01*
X0094120Y0132676D02*
X0092620Y0132676D01*
X0092620Y0131078D02*
X0094120Y0131078D01*
X0094120Y0129479D02*
X0092620Y0129479D01*
X0092620Y0127881D02*
X0095416Y0127881D01*
X0097420Y0126282D02*
X0092620Y0126282D01*
X0092620Y0124684D02*
X0097420Y0124684D01*
X0097420Y0123085D02*
X0092620Y0123085D01*
X0092620Y0121487D02*
X0097420Y0121487D01*
X0097420Y0119888D02*
X0092620Y0119888D01*
X0092620Y0118290D02*
X0097420Y0118290D01*
X0097420Y0116691D02*
X0092620Y0116691D01*
X0092620Y0115093D02*
X0097420Y0115093D01*
X0095520Y0113494D02*
X0095520Y0113494D01*
X0095520Y0111896D02*
X0095520Y0111896D01*
X0095520Y0110297D02*
X0095520Y0110297D01*
X0092791Y0113494D02*
X0092620Y0113494D01*
X0087420Y0113494D02*
X0087248Y0113494D01*
X0087420Y0115093D02*
X0017604Y0115093D01*
X0017591Y0116691D02*
X0087420Y0116691D01*
X0087420Y0118290D02*
X0017577Y0118290D01*
X0017563Y0119888D02*
X0087420Y0119888D01*
X0087420Y0121487D02*
X0017651Y0121487D01*
X0018554Y0123085D02*
X0087420Y0123085D01*
X0087420Y0124684D02*
X0040644Y0124684D01*
X0042759Y0126282D02*
X0087420Y0126282D01*
X0087420Y0127881D02*
X0043838Y0127881D01*
X0044368Y0129479D02*
X0087420Y0129479D01*
X0087420Y0131078D02*
X0057009Y0131078D01*
X0057635Y0131337D02*
X0055614Y0130500D01*
X0053426Y0130500D01*
X0051404Y0131337D01*
X0049857Y0132884D01*
X0049020Y0134906D01*
X0049020Y0137094D01*
X0049857Y0139115D01*
X0051404Y0140663D01*
X0053426Y0141500D01*
X0055614Y0141500D01*
X0057635Y0140663D01*
X0059182Y0139115D01*
X0060020Y0137094D01*
X0060020Y0134906D01*
X0059182Y0132884D01*
X0057635Y0131337D01*
X0058974Y0132676D02*
X0074055Y0132676D01*
X0073039Y0134275D02*
X0059758Y0134275D01*
X0060020Y0135873D02*
X0072720Y0135873D01*
X0072934Y0137472D02*
X0059863Y0137472D01*
X0059201Y0139070D02*
X0073802Y0139070D01*
X0076249Y0140669D02*
X0057620Y0140669D01*
X0051419Y0140669D02*
X0044520Y0140669D01*
X0044520Y0139070D02*
X0049838Y0139070D01*
X0049176Y0137472D02*
X0044520Y0137472D01*
X0044520Y0135873D02*
X0049020Y0135873D01*
X0049281Y0134275D02*
X0044520Y0134275D01*
X0044520Y0132676D02*
X0050065Y0132676D01*
X0052030Y0131078D02*
X0044520Y0131078D01*
X0044520Y0142268D02*
X0074464Y0142268D01*
X0073208Y0143866D02*
X0044520Y0143866D01*
X0044520Y0145465D02*
X0072720Y0145465D01*
X0072765Y0147063D02*
X0044520Y0147063D01*
X0044520Y0148662D02*
X0073427Y0148662D01*
X0075261Y0150260D02*
X0044520Y0150260D01*
X0044520Y0164647D02*
X0095944Y0164647D01*
X0100420Y0166245D02*
X0049619Y0166245D01*
X0033120Y0171041D02*
X0020423Y0171041D01*
X0019105Y0172639D02*
X0033120Y0172639D01*
X0033502Y0174238D02*
X0018600Y0174238D01*
X0018513Y0175836D02*
X0034327Y0175836D01*
X0061406Y0185427D02*
X0113770Y0185427D01*
X0112172Y0183829D02*
X0088913Y0183829D01*
X0090512Y0182230D02*
X0110573Y0182230D01*
X0108975Y0180632D02*
X0090920Y0180632D01*
X0090920Y0179033D02*
X0107376Y0179033D01*
X0105777Y0177435D02*
X0090177Y0177435D01*
X0084126Y0183829D02*
X0068913Y0183829D01*
X0061431Y0187026D02*
X0115369Y0187026D01*
X0116967Y0188624D02*
X0061431Y0188624D01*
X0061431Y0190223D02*
X0118566Y0190223D01*
X0120164Y0191821D02*
X0061431Y0191821D01*
X0061431Y0193420D02*
X0121763Y0193420D01*
X0123361Y0195018D02*
X0061431Y0195018D01*
X0061388Y0196617D02*
X0088570Y0196617D01*
X0087057Y0198215D02*
X0060726Y0198215D01*
X0059443Y0199814D02*
X0086270Y0199814D01*
X0113131Y0177435D02*
X0125008Y0177435D01*
X0125196Y0177889D02*
X0124420Y0176014D01*
X0124420Y0173986D01*
X0125196Y0172111D01*
X0125207Y0172100D01*
X0121002Y0172100D01*
X0120047Y0171704D01*
X0119316Y0170973D01*
X0111316Y0162973D01*
X0110920Y0162017D01*
X0110920Y0121983D01*
X0111316Y0121027D01*
X0112047Y0120296D01*
X0112920Y0119423D01*
X0112920Y0113623D01*
X0111120Y0111823D01*
X0111120Y0108177D01*
X0113697Y0105600D01*
X0117342Y0105600D01*
X0119920Y0108177D01*
X0119920Y0111823D01*
X0118120Y0113623D01*
X0118120Y0119600D01*
X0119435Y0119600D01*
X0121125Y0120300D01*
X0122419Y0121594D01*
X0123120Y0123285D01*
X0123120Y0130715D01*
X0122419Y0132406D01*
X0121125Y0133700D01*
X0119435Y0134400D01*
X0117605Y0134400D01*
X0116120Y0133785D01*
X0116120Y0150215D01*
X0117605Y0149600D01*
X0119435Y0149600D01*
X0121125Y0150300D01*
X0122046Y0151221D01*
X0138867Y0134400D01*
X0137605Y0134400D01*
X0135914Y0133700D01*
X0134620Y0132406D01*
X0133920Y0130715D01*
X0133920Y0123285D01*
X0134620Y0121594D01*
X0135914Y0120300D01*
X0136220Y0120174D01*
X0136220Y0114953D01*
X0130920Y0109653D01*
X0130920Y0110000D01*
X0130920Y0111823D01*
X0128342Y0114400D01*
X0126520Y0114400D01*
X0126520Y0110000D01*
X0130920Y0110000D01*
X0126520Y0110000D01*
X0126520Y0110000D01*
X0126520Y0105600D01*
X0126867Y0105600D01*
X0110067Y0088800D01*
X0108720Y0087453D01*
X0108720Y0082023D01*
X0108342Y0082400D01*
X0104697Y0082400D01*
X0102120Y0079823D01*
X0102120Y0076177D01*
X0103920Y0074377D01*
X0103920Y0067623D01*
X0102120Y0065823D01*
X0102120Y0062177D01*
X0103920Y0060377D01*
X0103920Y0053623D01*
X0102120Y0051823D01*
X0102120Y0048177D01*
X0103920Y0046377D01*
X0103920Y0036623D01*
X0102397Y0035100D01*
X0094502Y0035100D01*
X0093547Y0034704D01*
X0092816Y0033973D01*
X0092816Y0033973D01*
X0080662Y0021819D01*
X0080419Y0022406D01*
X0079125Y0023700D01*
X0079120Y0023702D01*
X0079120Y0062501D01*
X0080219Y0062957D01*
X0081063Y0063801D01*
X0081409Y0064637D01*
X0105372Y0088600D01*
X0108342Y0088600D01*
X0110920Y0091177D01*
X0110920Y0094823D01*
X0108342Y0097400D01*
X0104697Y0097400D01*
X0102120Y0094823D01*
X0102120Y0091853D01*
X0095620Y0085353D01*
X0095620Y0087112D01*
X0092632Y0090100D01*
X0088407Y0090100D01*
X0085420Y0087112D01*
X0085420Y0082888D01*
X0088407Y0079900D01*
X0090167Y0079900D01*
X0085620Y0075353D01*
X0085620Y0077112D01*
X0083120Y0079612D01*
X0083120Y0087423D01*
X0101492Y0105796D01*
X0102224Y0106527D01*
X0102620Y0107483D01*
X0102620Y0128877D01*
X0102920Y0129177D01*
X0102920Y0131723D01*
X0105224Y0134027D01*
X0105620Y0134983D01*
X0105620Y0169923D01*
X0124497Y0188800D01*
X0125196Y0187111D01*
X0126631Y0185676D01*
X0128505Y0184900D01*
X0130534Y0184900D01*
X0132409Y0185676D01*
X0133843Y0187111D01*
X0134620Y0188986D01*
X0134620Y0191014D01*
X0133843Y0192889D01*
X0132409Y0194324D01*
X0130720Y0195023D01*
X0131724Y0196027D01*
X0132120Y0196983D01*
X0132120Y0200557D01*
X0132409Y0200676D01*
X0133843Y0202111D01*
X0134620Y0203986D01*
X0134620Y0206014D01*
X0133843Y0207889D01*
X0132409Y0209324D01*
X0130534Y0210100D01*
X0129872Y0210100D01*
X0130972Y0211200D01*
X0178497Y0211200D01*
X0178120Y0210823D01*
X0178120Y0207177D01*
X0180697Y0204600D01*
X0184342Y0204600D01*
X0186920Y0207177D01*
X0186920Y0210823D01*
X0186542Y0211200D01*
X0195543Y0211200D01*
X0191743Y0207400D01*
X0191343Y0207400D01*
X0190094Y0206882D01*
X0189137Y0205926D01*
X0188620Y0204676D01*
X0188620Y0203324D01*
X0189137Y0202074D01*
X0190094Y0201118D01*
X0190861Y0200800D01*
X0172532Y0200800D01*
X0173843Y0202111D01*
X0174620Y0203986D01*
X0174620Y0206014D01*
X0173843Y0207889D01*
X0172409Y0209324D01*
X0170534Y0210100D01*
X0168505Y0210100D01*
X0166631Y0209324D01*
X0165196Y0207889D01*
X0165076Y0207600D01*
X0159002Y0207600D01*
X0158047Y0207204D01*
X0130823Y0179980D01*
X0130534Y0180100D01*
X0128505Y0180100D01*
X0126631Y0179324D01*
X0125196Y0177889D01*
X0126340Y0179033D02*
X0114730Y0179033D01*
X0116328Y0180632D02*
X0131475Y0180632D01*
X0133073Y0182230D02*
X0117927Y0182230D01*
X0119525Y0183829D02*
X0134672Y0183829D01*
X0136270Y0185427D02*
X0131807Y0185427D01*
X0133758Y0187026D02*
X0137869Y0187026D01*
X0139467Y0188624D02*
X0134470Y0188624D01*
X0134620Y0190223D02*
X0141066Y0190223D01*
X0142664Y0191821D02*
X0134285Y0191821D01*
X0133312Y0193420D02*
X0144263Y0193420D01*
X0145861Y0195018D02*
X0130731Y0195018D01*
X0131968Y0196617D02*
X0147460Y0196617D01*
X0149058Y0198215D02*
X0132120Y0198215D01*
X0132120Y0199814D02*
X0150657Y0199814D01*
X0152255Y0201412D02*
X0133145Y0201412D01*
X0134216Y0203011D02*
X0153854Y0203011D01*
X0155452Y0204609D02*
X0134620Y0204609D01*
X0134540Y0206208D02*
X0157051Y0206208D01*
X0159520Y0205000D02*
X0129520Y0175000D01*
X0124977Y0172639D02*
X0108336Y0172639D01*
X0106737Y0171041D02*
X0119383Y0171041D01*
X0117785Y0169442D02*
X0105620Y0169442D01*
X0105620Y0167844D02*
X0116186Y0167844D01*
X0114588Y0166245D02*
X0105620Y0166245D01*
X0105620Y0164647D02*
X0112989Y0164647D01*
X0111391Y0163048D02*
X0105620Y0163048D01*
X0105620Y0161450D02*
X0110920Y0161450D01*
X0110920Y0159851D02*
X0105620Y0159851D01*
X0105620Y0158253D02*
X0110920Y0158253D01*
X0110920Y0156654D02*
X0105620Y0156654D01*
X0105620Y0155056D02*
X0110920Y0155056D01*
X0110920Y0153457D02*
X0105620Y0153457D01*
X0105620Y0151859D02*
X0110920Y0151859D01*
X0110920Y0150260D02*
X0105620Y0150260D01*
X0105620Y0148662D02*
X0110920Y0148662D01*
X0110920Y0147063D02*
X0105620Y0147063D01*
X0105620Y0145465D02*
X0110920Y0145465D01*
X0110920Y0143866D02*
X0105620Y0143866D01*
X0105620Y0142268D02*
X0110920Y0142268D01*
X0110920Y0140669D02*
X0105620Y0140669D01*
X0105620Y0139070D02*
X0110920Y0139070D01*
X0110920Y0137472D02*
X0105620Y0137472D01*
X0105620Y0135873D02*
X0110920Y0135873D01*
X0110920Y0134275D02*
X0105326Y0134275D01*
X0103873Y0132676D02*
X0110920Y0132676D01*
X0110920Y0131078D02*
X0102920Y0131078D01*
X0102920Y0129479D02*
X0110920Y0129479D01*
X0110920Y0127881D02*
X0102620Y0127881D01*
X0102620Y0126282D02*
X0110920Y0126282D01*
X0110920Y0124684D02*
X0102620Y0124684D01*
X0102620Y0123085D02*
X0110920Y0123085D01*
X0111125Y0121487D02*
X0102620Y0121487D01*
X0102620Y0119888D02*
X0112454Y0119888D01*
X0112920Y0118290D02*
X0102620Y0118290D01*
X0102620Y0116691D02*
X0112920Y0116691D01*
X0112920Y0115093D02*
X0102620Y0115093D01*
X0102620Y0113494D02*
X0112791Y0113494D01*
X0111193Y0111896D02*
X0102620Y0111896D01*
X0102620Y0110297D02*
X0111120Y0110297D01*
X0111120Y0108699D02*
X0102620Y0108699D01*
X0102461Y0107100D02*
X0112197Y0107100D01*
X0115520Y0110000D02*
X0115520Y0120500D01*
X0113520Y0122500D01*
X0113520Y0161500D01*
X0121520Y0169500D01*
X0135020Y0169500D01*
X0161020Y0195500D01*
X0171520Y0195500D01*
X0178520Y0188500D01*
X0178520Y0189500D01*
X0230020Y0189500D01*
X0242207Y0177435D02*
X0258373Y0177435D01*
X0258414Y0177516D02*
X0258071Y0176843D01*
X0257838Y0176124D01*
X0257720Y0175378D01*
X0257720Y0175200D01*
X0265320Y0175200D01*
X0265320Y0179800D01*
X0262142Y0179800D01*
X0261396Y0179682D01*
X0260677Y0179448D01*
X0260004Y0179105D01*
X0259393Y0178661D01*
X0258858Y0178127D01*
X0258414Y0177516D01*
X0257792Y0175836D02*
X0240609Y0175836D01*
X0239010Y0174238D02*
X0257781Y0174238D01*
X0257838Y0173876D02*
X0258071Y0173157D01*
X0258414Y0172484D01*
X0258858Y0171873D01*
X0259393Y0171339D01*
X0260004Y0170895D01*
X0260677Y0170552D01*
X0261396Y0170318D01*
X0262142Y0170200D01*
X0265320Y0170200D01*
X0265320Y0174800D01*
X0265720Y0174800D01*
X0265720Y0170200D01*
X0267467Y0170200D01*
X0267067Y0169800D01*
X0261565Y0169800D01*
X0259801Y0169069D01*
X0258450Y0167719D01*
X0257720Y0165955D01*
X0257720Y0164045D01*
X0258450Y0162281D01*
X0259801Y0160931D01*
X0261565Y0160200D01*
X0269474Y0160200D01*
X0271239Y0160931D01*
X0272589Y0162281D01*
X0273320Y0164045D01*
X0273320Y0165955D01*
X0272589Y0167719D01*
X0272040Y0168268D01*
X0273972Y0170200D01*
X0273972Y0170200D01*
X0275320Y0171547D01*
X0275320Y0207953D01*
X0270272Y0213000D01*
X0277520Y0213000D01*
X0277520Y0008000D01*
X0243772Y0008000D01*
X0246252Y0010480D01*
X0246801Y0009931D01*
X0248565Y0009200D01*
X0250474Y0009200D01*
X0252239Y0009931D01*
X0253589Y0011281D01*
X0254320Y0013045D01*
X0254320Y0020955D01*
X0253589Y0022719D01*
X0252239Y0024069D01*
X0250474Y0024800D01*
X0248565Y0024800D01*
X0246801Y0024069D01*
X0245450Y0022719D01*
X0244720Y0020955D01*
X0244720Y0015453D01*
X0244320Y0015053D01*
X0244320Y0020955D01*
X0243589Y0022719D01*
X0242239Y0024069D01*
X0240474Y0024800D01*
X0238565Y0024800D01*
X0236801Y0024069D01*
X0235450Y0022719D01*
X0234720Y0020955D01*
X0234720Y0013045D01*
X0235450Y0011281D01*
X0236801Y0009931D01*
X0238496Y0009229D01*
X0237267Y0008000D01*
X0223772Y0008000D01*
X0226252Y0010480D01*
X0226801Y0009931D01*
X0228565Y0009200D01*
X0230474Y0009200D01*
X0232239Y0009931D01*
X0233589Y0011281D01*
X0234320Y0013045D01*
X0234320Y0020955D01*
X0233589Y0022719D01*
X0232239Y0024069D01*
X0230544Y0024771D01*
X0235469Y0029697D01*
X0236366Y0028800D01*
X0240674Y0028800D01*
X0243520Y0031646D01*
X0246366Y0028800D01*
X0248520Y0028800D01*
X0250674Y0028800D01*
X0251720Y0029846D01*
X0251720Y0028047D01*
X0258220Y0021547D01*
X0259567Y0020200D01*
X0271472Y0020200D01*
X0273972Y0022700D01*
X0275320Y0024047D01*
X0275320Y0060453D01*
X0272040Y0063732D01*
X0272589Y0064281D01*
X0273320Y0066045D01*
X0273320Y0067955D01*
X0272589Y0069719D01*
X0271239Y0071069D01*
X0269474Y0071800D01*
X0261565Y0071800D01*
X0260320Y0071284D01*
X0260320Y0072716D01*
X0261565Y0072200D01*
X0269474Y0072200D01*
X0271239Y0072931D01*
X0272589Y0074281D01*
X0273320Y0076045D01*
X0273320Y0077955D01*
X0272589Y0079719D01*
X0271239Y0081069D01*
X0269474Y0081800D01*
X0261565Y0081800D01*
X0260320Y0081284D01*
X0260320Y0082734D01*
X0260677Y0082552D01*
X0261396Y0082318D01*
X0262142Y0082200D01*
X0265320Y0082200D01*
X0265320Y0086800D01*
X0265720Y0086800D01*
X0265720Y0087200D01*
X0273320Y0087200D01*
X0273320Y0087378D01*
X0273201Y0088124D01*
X0272968Y0088843D01*
X0272625Y0089516D01*
X0272181Y0090127D01*
X0271647Y0090661D01*
X0271035Y0091105D01*
X0270362Y0091448D01*
X0269644Y0091682D01*
X0268897Y0091800D01*
X0265720Y0091800D01*
X0265720Y0087200D01*
X0265320Y0087200D01*
X0265320Y0091800D01*
X0262142Y0091800D01*
X0261396Y0091682D01*
X0260677Y0091448D01*
X0260320Y0091266D01*
X0260320Y0092716D01*
X0261565Y0092200D01*
X0269474Y0092200D01*
X0271239Y0092931D01*
X0272589Y0094281D01*
X0273320Y0096045D01*
X0273320Y0097955D01*
X0272589Y0099719D01*
X0271239Y0101069D01*
X0269474Y0101800D01*
X0261565Y0101800D01*
X0260320Y0101284D01*
X0260320Y0145557D01*
X0260563Y0145801D01*
X0261020Y0146903D01*
X0261020Y0148097D01*
X0260563Y0149199D01*
X0259719Y0150043D01*
X0258616Y0150500D01*
X0257423Y0150500D01*
X0257320Y0150457D01*
X0257320Y0160453D01*
X0255972Y0161800D01*
X0250972Y0166800D01*
X0236067Y0166800D01*
X0234720Y0165453D01*
X0232046Y0162779D01*
X0231125Y0163700D01*
X0229435Y0164400D01*
X0229172Y0164400D01*
X0255320Y0190547D01*
X0255320Y0201523D01*
X0258787Y0198056D01*
X0258450Y0197719D01*
X0257720Y0195955D01*
X0257720Y0194045D01*
X0258450Y0192281D01*
X0259801Y0190931D01*
X0261565Y0190200D01*
X0269474Y0190200D01*
X0270720Y0190716D01*
X0270720Y0189266D01*
X0270362Y0189448D01*
X0269644Y0189682D01*
X0268897Y0189800D01*
X0265720Y0189800D01*
X0265720Y0185200D01*
X0265320Y0185200D01*
X0265320Y0189800D01*
X0262142Y0189800D01*
X0261396Y0189682D01*
X0260677Y0189448D01*
X0260004Y0189105D01*
X0259393Y0188661D01*
X0258858Y0188127D01*
X0258414Y0187516D01*
X0258071Y0186843D01*
X0257838Y0186124D01*
X0257720Y0185378D01*
X0257720Y0185200D01*
X0265320Y0185200D01*
X0265320Y0184800D01*
X0265720Y0184800D01*
X0265720Y0180200D01*
X0268897Y0180200D01*
X0269644Y0180318D01*
X0270362Y0180552D01*
X0270720Y0180734D01*
X0270720Y0179266D01*
X0270362Y0179448D01*
X0269644Y0179682D01*
X0268897Y0179800D01*
X0265720Y0179800D01*
X0265720Y0175200D01*
X0265320Y0175200D01*
X0265320Y0174800D01*
X0257720Y0174800D01*
X0257720Y0174622D01*
X0257838Y0173876D01*
X0258335Y0172639D02*
X0237412Y0172639D01*
X0235813Y0171041D02*
X0259803Y0171041D01*
X0260701Y0169442D02*
X0234215Y0169442D01*
X0232616Y0167844D02*
X0258575Y0167844D01*
X0257840Y0166245D02*
X0251527Y0166245D01*
X0253126Y0164647D02*
X0257720Y0164647D01*
X0258133Y0163048D02*
X0254724Y0163048D01*
X0256323Y0161450D02*
X0259282Y0161450D01*
X0257320Y0159851D02*
X0277520Y0159851D01*
X0277520Y0158253D02*
X0257320Y0158253D01*
X0257320Y0156654D02*
X0277520Y0156654D01*
X0277520Y0155056D02*
X0257320Y0155056D01*
X0257320Y0153457D02*
X0277520Y0153457D01*
X0277520Y0151859D02*
X0257320Y0151859D01*
X0259196Y0150260D02*
X0277520Y0150260D01*
X0277520Y0148662D02*
X0260786Y0148662D01*
X0261020Y0147063D02*
X0277520Y0147063D01*
X0277520Y0145465D02*
X0260320Y0145465D01*
X0260320Y0143866D02*
X0277520Y0143866D01*
X0277520Y0142268D02*
X0260320Y0142268D01*
X0260320Y0140669D02*
X0277520Y0140669D01*
X0277520Y0139070D02*
X0260320Y0139070D01*
X0260320Y0137472D02*
X0277520Y0137472D01*
X0277520Y0135873D02*
X0260320Y0135873D01*
X0260320Y0134275D02*
X0277520Y0134275D01*
X0277520Y0132676D02*
X0260320Y0132676D01*
X0260320Y0131078D02*
X0277520Y0131078D01*
X0277520Y0129479D02*
X0260320Y0129479D01*
X0260320Y0127881D02*
X0277520Y0127881D01*
X0277520Y0126282D02*
X0260320Y0126282D01*
X0260320Y0124684D02*
X0277520Y0124684D01*
X0277520Y0123085D02*
X0260320Y0123085D01*
X0260320Y0121487D02*
X0277520Y0121487D01*
X0277520Y0119888D02*
X0260320Y0119888D01*
X0260320Y0118290D02*
X0277520Y0118290D01*
X0277520Y0116691D02*
X0260320Y0116691D01*
X0260320Y0115093D02*
X0277520Y0115093D01*
X0277520Y0113494D02*
X0260320Y0113494D01*
X0260320Y0111896D02*
X0277520Y0111896D01*
X0277520Y0110297D02*
X0260320Y0110297D01*
X0260320Y0108699D02*
X0277520Y0108699D01*
X0277520Y0107100D02*
X0260320Y0107100D01*
X0260320Y0105502D02*
X0277520Y0105502D01*
X0277520Y0103903D02*
X0260320Y0103903D01*
X0260320Y0102305D02*
X0277520Y0102305D01*
X0277520Y0100706D02*
X0271602Y0100706D01*
X0272842Y0099108D02*
X0277520Y0099108D01*
X0277520Y0097509D02*
X0273320Y0097509D01*
X0273264Y0095911D02*
X0277520Y0095911D01*
X0277520Y0094312D02*
X0272602Y0094312D01*
X0270715Y0092714D02*
X0277520Y0092714D01*
X0277520Y0091115D02*
X0271016Y0091115D01*
X0272624Y0089517D02*
X0277520Y0089517D01*
X0277520Y0087918D02*
X0273234Y0087918D01*
X0273320Y0086800D02*
X0265720Y0086800D01*
X0265720Y0082200D01*
X0268897Y0082200D01*
X0269644Y0082318D01*
X0270362Y0082552D01*
X0271035Y0082895D01*
X0271647Y0083339D01*
X0272181Y0083873D01*
X0272625Y0084484D01*
X0272968Y0085157D01*
X0273201Y0085876D01*
X0273320Y0086622D01*
X0273320Y0086800D01*
X0273272Y0086320D02*
X0277520Y0086320D01*
X0277520Y0084721D02*
X0272746Y0084721D01*
X0271349Y0083123D02*
X0277520Y0083123D01*
X0277520Y0081524D02*
X0270141Y0081524D01*
X0272382Y0079926D02*
X0277520Y0079926D01*
X0277520Y0078327D02*
X0273165Y0078327D01*
X0273320Y0076729D02*
X0277520Y0076729D01*
X0277520Y0075130D02*
X0272941Y0075130D01*
X0271839Y0073532D02*
X0277520Y0073532D01*
X0277520Y0071933D02*
X0260320Y0071933D01*
X0260320Y0081524D02*
X0260899Y0081524D01*
X0265320Y0083123D02*
X0265720Y0083123D01*
X0265720Y0084721D02*
X0265320Y0084721D01*
X0265320Y0086320D02*
X0265720Y0086320D01*
X0265520Y0087000D02*
X0275520Y0077000D01*
X0275520Y0024000D01*
X0271520Y0020000D01*
X0259520Y0020000D01*
X0248520Y0031000D01*
X0248520Y0034000D01*
X0248520Y0034000D01*
X0248520Y0039200D01*
X0250674Y0039200D01*
X0251720Y0038154D01*
X0251720Y0045547D01*
X0246015Y0051252D01*
X0245820Y0051057D01*
X0245820Y0045047D01*
X0239972Y0039200D01*
X0240674Y0039200D01*
X0243520Y0036354D01*
X0246366Y0039200D01*
X0248520Y0039200D01*
X0248520Y0034000D01*
X0248520Y0028800D01*
X0248520Y0034000D01*
X0248520Y0034000D01*
X0248520Y0033569D02*
X0248520Y0033569D01*
X0248520Y0035167D02*
X0248520Y0035167D01*
X0248520Y0036766D02*
X0248520Y0036766D01*
X0248520Y0038364D02*
X0248520Y0038364D01*
X0251509Y0038364D02*
X0251720Y0038364D01*
X0251720Y0039963D02*
X0240735Y0039963D01*
X0241509Y0038364D02*
X0245530Y0038364D01*
X0243932Y0036766D02*
X0243108Y0036766D01*
X0242334Y0041561D02*
X0251720Y0041561D01*
X0251720Y0043160D02*
X0243932Y0043160D01*
X0245531Y0044758D02*
X0251720Y0044758D01*
X0250910Y0046357D02*
X0245820Y0046357D01*
X0245820Y0047955D02*
X0249312Y0047955D01*
X0247713Y0049554D02*
X0245820Y0049554D01*
X0245915Y0051152D02*
X0246115Y0051152D01*
X0248520Y0031970D02*
X0248520Y0031970D01*
X0248520Y0030372D02*
X0248520Y0030372D01*
X0251720Y0028773D02*
X0234546Y0028773D01*
X0232947Y0027175D02*
X0252592Y0027175D01*
X0254191Y0025576D02*
X0231349Y0025576D01*
X0232330Y0023978D02*
X0236709Y0023978D01*
X0235310Y0022379D02*
X0233730Y0022379D01*
X0234320Y0020781D02*
X0234720Y0020781D01*
X0234720Y0019182D02*
X0234320Y0019182D01*
X0234320Y0017584D02*
X0234720Y0017584D01*
X0234720Y0015985D02*
X0234320Y0015985D01*
X0234320Y0014387D02*
X0234720Y0014387D01*
X0234826Y0012788D02*
X0234213Y0012788D01*
X0233497Y0011190D02*
X0235542Y0011190D01*
X0237621Y0009591D02*
X0231419Y0009591D01*
X0227621Y0009591D02*
X0225363Y0009591D01*
X0242330Y0023978D02*
X0246709Y0023978D01*
X0245310Y0022379D02*
X0243730Y0022379D01*
X0244320Y0020781D02*
X0244720Y0020781D01*
X0244720Y0019182D02*
X0244320Y0019182D01*
X0244320Y0017584D02*
X0244720Y0017584D01*
X0244720Y0015985D02*
X0244320Y0015985D01*
X0245363Y0009591D02*
X0247621Y0009591D01*
X0251419Y0009591D02*
X0277520Y0009591D01*
X0277520Y0011190D02*
X0253497Y0011190D01*
X0254213Y0012788D02*
X0277520Y0012788D01*
X0277520Y0014387D02*
X0254320Y0014387D01*
X0254320Y0015985D02*
X0277520Y0015985D01*
X0277520Y0017584D02*
X0254320Y0017584D01*
X0254320Y0019182D02*
X0277520Y0019182D01*
X0277520Y0020781D02*
X0272053Y0020781D01*
X0273652Y0022379D02*
X0277520Y0022379D01*
X0277520Y0023978D02*
X0275250Y0023978D01*
X0275320Y0025576D02*
X0277520Y0025576D01*
X0277520Y0027175D02*
X0275320Y0027175D01*
X0275320Y0028773D02*
X0277520Y0028773D01*
X0277520Y0030372D02*
X0275320Y0030372D01*
X0275320Y0031970D02*
X0277520Y0031970D01*
X0277520Y0033569D02*
X0275320Y0033569D01*
X0275320Y0035167D02*
X0277520Y0035167D01*
X0277520Y0036766D02*
X0275320Y0036766D01*
X0275320Y0038364D02*
X0277520Y0038364D01*
X0277520Y0039963D02*
X0275320Y0039963D01*
X0275320Y0041561D02*
X0277520Y0041561D01*
X0277520Y0043160D02*
X0275320Y0043160D01*
X0275320Y0044758D02*
X0277520Y0044758D01*
X0277520Y0046357D02*
X0275320Y0046357D01*
X0275320Y0047955D02*
X0277520Y0047955D01*
X0277520Y0049554D02*
X0275320Y0049554D01*
X0275320Y0051152D02*
X0277520Y0051152D01*
X0277520Y0052751D02*
X0275320Y0052751D01*
X0275320Y0054349D02*
X0277520Y0054349D01*
X0277520Y0055948D02*
X0275320Y0055948D01*
X0275320Y0057546D02*
X0277520Y0057546D01*
X0277520Y0059145D02*
X0275320Y0059145D01*
X0275029Y0060743D02*
X0277520Y0060743D01*
X0277520Y0062342D02*
X0273430Y0062342D01*
X0272248Y0063940D02*
X0277520Y0063940D01*
X0277520Y0065539D02*
X0273110Y0065539D01*
X0273320Y0067137D02*
X0277520Y0067137D01*
X0277520Y0068736D02*
X0272996Y0068736D01*
X0271973Y0070334D02*
X0277520Y0070334D01*
X0265720Y0087918D02*
X0265320Y0087918D01*
X0265320Y0089517D02*
X0265720Y0089517D01*
X0265720Y0091115D02*
X0265320Y0091115D01*
X0260325Y0092714D02*
X0260320Y0092714D01*
X0208020Y0071000D02*
X0196520Y0071000D01*
X0188520Y0079000D01*
X0188020Y0079500D01*
X0188020Y0099500D01*
X0177520Y0110000D01*
X0173020Y0114500D01*
X0178520Y0120000D01*
X0178520Y0127000D01*
X0182046Y0121221D02*
X0182067Y0121200D01*
X0187403Y0115864D01*
X0186831Y0115678D01*
X0186214Y0115363D01*
X0185653Y0114956D01*
X0185164Y0114466D01*
X0184756Y0113906D01*
X0184442Y0113289D01*
X0184228Y0112630D01*
X0184120Y0111946D01*
X0184120Y0109000D01*
X0184120Y0107077D01*
X0181920Y0109277D01*
X0181920Y0111823D01*
X0179342Y0114400D01*
X0176797Y0114400D01*
X0176697Y0114500D01*
X0180724Y0118527D01*
X0181120Y0119483D01*
X0181120Y0120298D01*
X0181125Y0120300D01*
X0182046Y0121221D01*
X0181120Y0119888D02*
X0183379Y0119888D01*
X0184977Y0118290D02*
X0180486Y0118290D01*
X0178888Y0116691D02*
X0186576Y0116691D01*
X0185841Y0115093D02*
X0177289Y0115093D01*
X0180248Y0113494D02*
X0184547Y0113494D01*
X0184120Y0111896D02*
X0181846Y0111896D01*
X0181920Y0110297D02*
X0184120Y0110297D01*
X0184120Y0109000D02*
X0188520Y0109000D01*
X0184120Y0109000D01*
X0184120Y0108699D02*
X0182498Y0108699D01*
X0184096Y0107100D02*
X0184120Y0107100D01*
X0188520Y0109000D02*
X0188520Y0109000D01*
X0181538Y0102305D02*
X0151468Y0102305D01*
X0153066Y0100706D02*
X0183137Y0100706D01*
X0184735Y0099108D02*
X0154665Y0099108D01*
X0156263Y0097509D02*
X0185420Y0097509D01*
X0185420Y0098423D02*
X0185420Y0084723D01*
X0184790Y0084092D01*
X0184120Y0082475D01*
X0184120Y0075525D01*
X0184790Y0073908D01*
X0186027Y0072670D01*
X0187644Y0072000D01*
X0189395Y0072000D01*
X0191012Y0072670D01*
X0191092Y0072750D01*
X0195047Y0068796D01*
X0196002Y0068400D01*
X0205811Y0068400D01*
X0205811Y0068400D01*
X0205520Y0068400D01*
X0205520Y0064000D01*
X0205520Y0064000D01*
X0194520Y0064000D01*
X0169020Y0089500D01*
X0172020Y0092500D01*
X0169020Y0089500D02*
X0157520Y0101000D01*
X0157520Y0110000D01*
X0161920Y0110000D01*
X0161920Y0111823D01*
X0161842Y0111900D01*
X0171943Y0111900D01*
X0173120Y0110723D01*
X0173120Y0108177D01*
X0175697Y0105600D01*
X0178243Y0105600D01*
X0185420Y0098423D01*
X0185420Y0095911D02*
X0157862Y0095911D01*
X0158820Y0094953D02*
X0148520Y0105253D01*
X0148520Y0105597D01*
X0148467Y0105725D01*
X0150142Y0107400D01*
X0151537Y0107400D01*
X0152492Y0107796D01*
X0153120Y0108423D01*
X0153120Y0108177D01*
X0155697Y0105600D01*
X0157520Y0105600D01*
X0159342Y0105600D01*
X0161920Y0108177D01*
X0161920Y0110000D01*
X0157520Y0110000D01*
X0157520Y0110000D01*
X0157520Y0105600D01*
X0157520Y0110000D01*
X0157520Y0110000D01*
X0157520Y0108699D02*
X0157520Y0108699D01*
X0157520Y0107100D02*
X0157520Y0107100D01*
X0160842Y0107100D02*
X0174197Y0107100D01*
X0173120Y0108699D02*
X0161920Y0108699D01*
X0161920Y0110297D02*
X0173120Y0110297D01*
X0171947Y0111896D02*
X0161846Y0111896D01*
X0155520Y0114500D02*
X0173020Y0114500D01*
X0178341Y0105502D02*
X0148520Y0105502D01*
X0149842Y0107100D02*
X0154197Y0107100D01*
X0151020Y0110000D02*
X0155520Y0114500D01*
X0151020Y0110000D02*
X0146520Y0110000D01*
X0149869Y0103903D02*
X0179939Y0103903D01*
X0185420Y0094312D02*
X0158820Y0094312D01*
X0158820Y0094953D02*
X0158820Y0036923D01*
X0160920Y0034823D01*
X0160920Y0031177D01*
X0158342Y0028600D01*
X0154697Y0028600D01*
X0152120Y0031177D01*
X0152120Y0034823D01*
X0154220Y0036923D01*
X0154220Y0093047D01*
X0145267Y0102000D01*
X0144923Y0102000D01*
X0144320Y0102250D01*
X0144320Y0097023D01*
X0144697Y0097400D01*
X0148342Y0097400D01*
X0150920Y0094823D01*
X0150920Y0091177D01*
X0148342Y0088600D01*
X0144697Y0088600D01*
X0144320Y0088977D01*
X0144320Y0082023D01*
X0144697Y0082400D01*
X0148342Y0082400D01*
X0150920Y0079823D01*
X0150920Y0076177D01*
X0148342Y0073600D01*
X0144697Y0073600D01*
X0144320Y0073977D01*
X0144320Y0068023D01*
X0144697Y0068400D01*
X0148342Y0068400D01*
X0150920Y0065823D01*
X0150920Y0062177D01*
X0148342Y0059600D01*
X0144697Y0059600D01*
X0144320Y0059977D01*
X0144320Y0054023D01*
X0144697Y0054400D01*
X0148342Y0054400D01*
X0150920Y0051823D01*
X0150920Y0048177D01*
X0148342Y0045600D01*
X0144697Y0045600D01*
X0144320Y0045977D01*
X0144320Y0027953D01*
X0148972Y0023300D01*
X0149002Y0023270D01*
X0149801Y0024069D01*
X0151565Y0024800D01*
X0153474Y0024800D01*
X0155239Y0024069D01*
X0155787Y0023520D01*
X0171067Y0038800D01*
X0183067Y0038800D01*
X0203867Y0059600D01*
X0203697Y0059600D01*
X0201120Y0062177D01*
X0201120Y0064000D01*
X0205520Y0064000D01*
X0205520Y0068400D01*
X0203697Y0068400D01*
X0201120Y0065823D01*
X0201120Y0064000D01*
X0205520Y0064000D01*
X0205520Y0064000D01*
X0205520Y0065539D02*
X0205520Y0065539D01*
X0205520Y0067137D02*
X0205520Y0067137D01*
X0202435Y0067137D02*
X0188605Y0067137D01*
X0187342Y0068400D02*
X0183697Y0068400D01*
X0181120Y0065823D01*
X0181120Y0062177D01*
X0183697Y0059600D01*
X0187342Y0059600D01*
X0189920Y0062177D01*
X0189920Y0065823D01*
X0187342Y0068400D01*
X0189920Y0065539D02*
X0201120Y0065539D01*
X0201120Y0063940D02*
X0189920Y0063940D01*
X0189920Y0062342D02*
X0201120Y0062342D01*
X0202554Y0060743D02*
X0188486Y0060743D01*
X0182554Y0060743D02*
X0158820Y0060743D01*
X0158820Y0059145D02*
X0203412Y0059145D01*
X0201813Y0057546D02*
X0158820Y0057546D01*
X0158820Y0055948D02*
X0200215Y0055948D01*
X0198616Y0054349D02*
X0158820Y0054349D01*
X0158820Y0052751D02*
X0197018Y0052751D01*
X0195419Y0051152D02*
X0158820Y0051152D01*
X0158820Y0049554D02*
X0193821Y0049554D01*
X0192222Y0047955D02*
X0158820Y0047955D01*
X0158820Y0046357D02*
X0190624Y0046357D01*
X0189025Y0044758D02*
X0158820Y0044758D01*
X0158820Y0043160D02*
X0187427Y0043160D01*
X0185828Y0041561D02*
X0158820Y0041561D01*
X0158820Y0039963D02*
X0184230Y0039963D01*
X0170631Y0038364D02*
X0158820Y0038364D01*
X0158976Y0036766D02*
X0169033Y0036766D01*
X0167434Y0035167D02*
X0160575Y0035167D01*
X0160920Y0033569D02*
X0165836Y0033569D01*
X0164237Y0031970D02*
X0160920Y0031970D01*
X0160114Y0030372D02*
X0162639Y0030372D01*
X0161040Y0028773D02*
X0158515Y0028773D01*
X0159442Y0027175D02*
X0145098Y0027175D01*
X0144320Y0028773D02*
X0154524Y0028773D01*
X0152925Y0030372D02*
X0144320Y0030372D01*
X0144320Y0031970D02*
X0152120Y0031970D01*
X0152120Y0033569D02*
X0144320Y0033569D01*
X0144320Y0035167D02*
X0152464Y0035167D01*
X0154063Y0036766D02*
X0144320Y0036766D01*
X0144320Y0038364D02*
X0154220Y0038364D01*
X0154220Y0039963D02*
X0144320Y0039963D01*
X0144320Y0041561D02*
X0154220Y0041561D01*
X0154220Y0043160D02*
X0144320Y0043160D01*
X0144320Y0044758D02*
X0154220Y0044758D01*
X0154220Y0046357D02*
X0149099Y0046357D01*
X0150698Y0047955D02*
X0154220Y0047955D01*
X0154220Y0049554D02*
X0150920Y0049554D01*
X0150920Y0051152D02*
X0154220Y0051152D01*
X0154220Y0052751D02*
X0149991Y0052751D01*
X0148393Y0054349D02*
X0154220Y0054349D01*
X0154220Y0055948D02*
X0144320Y0055948D01*
X0144320Y0057546D02*
X0154220Y0057546D01*
X0154220Y0059145D02*
X0144320Y0059145D01*
X0144320Y0054349D02*
X0144647Y0054349D01*
X0149486Y0060743D02*
X0154220Y0060743D01*
X0154220Y0062342D02*
X0150920Y0062342D01*
X0150920Y0063940D02*
X0154220Y0063940D01*
X0154220Y0065539D02*
X0150920Y0065539D01*
X0149605Y0067137D02*
X0154220Y0067137D01*
X0154220Y0068736D02*
X0144320Y0068736D01*
X0144320Y0070334D02*
X0154220Y0070334D01*
X0154220Y0071933D02*
X0144320Y0071933D01*
X0144320Y0073532D02*
X0154220Y0073532D01*
X0154220Y0075130D02*
X0149872Y0075130D01*
X0150920Y0076729D02*
X0154220Y0076729D01*
X0154220Y0078327D02*
X0150920Y0078327D01*
X0150817Y0079926D02*
X0154220Y0079926D01*
X0154220Y0081524D02*
X0149218Y0081524D01*
X0144320Y0083123D02*
X0154220Y0083123D01*
X0154220Y0084721D02*
X0144320Y0084721D01*
X0144320Y0086320D02*
X0154220Y0086320D01*
X0154220Y0087918D02*
X0144320Y0087918D01*
X0149259Y0089517D02*
X0154220Y0089517D01*
X0154220Y0091115D02*
X0150857Y0091115D01*
X0150920Y0092714D02*
X0154220Y0092714D01*
X0152955Y0094312D02*
X0150920Y0094312D01*
X0151356Y0095911D02*
X0149832Y0095911D01*
X0149758Y0097509D02*
X0144320Y0097509D01*
X0144320Y0099108D02*
X0148159Y0099108D01*
X0146561Y0100706D02*
X0144320Y0100706D01*
X0133163Y0111896D02*
X0130846Y0111896D01*
X0130920Y0110297D02*
X0131564Y0110297D01*
X0129248Y0113494D02*
X0134761Y0113494D01*
X0136220Y0115093D02*
X0118120Y0115093D01*
X0118120Y0116691D02*
X0136220Y0116691D01*
X0136220Y0118290D02*
X0118120Y0118290D01*
X0120131Y0119888D02*
X0126909Y0119888D01*
X0127605Y0119600D02*
X0129435Y0119600D01*
X0131125Y0120300D01*
X0132419Y0121594D01*
X0133120Y0123285D01*
X0133120Y0130715D01*
X0132419Y0132406D01*
X0131125Y0133700D01*
X0129435Y0134400D01*
X0127605Y0134400D01*
X0125914Y0133700D01*
X0124620Y0132406D01*
X0123920Y0130715D01*
X0123920Y0123285D01*
X0124620Y0121594D01*
X0125914Y0120300D01*
X0127605Y0119600D01*
X0130131Y0119888D02*
X0136220Y0119888D01*
X0134727Y0121487D02*
X0132312Y0121487D01*
X0133037Y0123085D02*
X0134002Y0123085D01*
X0133920Y0124684D02*
X0133120Y0124684D01*
X0133120Y0126282D02*
X0133920Y0126282D01*
X0133920Y0127881D02*
X0133120Y0127881D01*
X0133120Y0129479D02*
X0133920Y0129479D01*
X0134070Y0131078D02*
X0132969Y0131078D01*
X0132149Y0132676D02*
X0134891Y0132676D01*
X0137303Y0134275D02*
X0129737Y0134275D01*
X0127303Y0134275D02*
X0119737Y0134275D01*
X0117303Y0134275D02*
X0116120Y0134275D01*
X0116120Y0135873D02*
X0137394Y0135873D01*
X0135795Y0137472D02*
X0116120Y0137472D01*
X0116120Y0139070D02*
X0134197Y0139070D01*
X0132598Y0140669D02*
X0116120Y0140669D01*
X0116120Y0142268D02*
X0130999Y0142268D01*
X0129401Y0143866D02*
X0116120Y0143866D01*
X0116120Y0145465D02*
X0127802Y0145465D01*
X0126204Y0147063D02*
X0116120Y0147063D01*
X0116120Y0148662D02*
X0124605Y0148662D01*
X0123007Y0150260D02*
X0121028Y0150260D01*
X0100420Y0151859D02*
X0086064Y0151859D01*
X0087662Y0153457D02*
X0100420Y0153457D01*
X0100420Y0155056D02*
X0088320Y0155056D01*
X0088320Y0156654D02*
X0096643Y0156654D01*
X0095045Y0158253D02*
X0087782Y0158253D01*
X0086457Y0159851D02*
X0094120Y0159851D01*
X0100396Y0156654D02*
X0100420Y0156654D01*
X0103020Y0171000D02*
X0103020Y0135500D01*
X0098520Y0131000D01*
X0100020Y0129500D01*
X0100020Y0108000D01*
X0080520Y0088500D01*
X0080520Y0075000D01*
X0084405Y0078327D02*
X0088594Y0078327D01*
X0088382Y0079926D02*
X0083120Y0079926D01*
X0083120Y0081524D02*
X0086783Y0081524D01*
X0085420Y0083123D02*
X0083120Y0083123D01*
X0083120Y0084721D02*
X0085420Y0084721D01*
X0085420Y0086320D02*
X0083120Y0086320D01*
X0083615Y0087918D02*
X0086225Y0087918D01*
X0085213Y0089517D02*
X0087824Y0089517D01*
X0086812Y0091115D02*
X0101382Y0091115D01*
X0102120Y0092714D02*
X0088410Y0092714D01*
X0090009Y0094312D02*
X0102120Y0094312D01*
X0103208Y0095911D02*
X0091607Y0095911D01*
X0093206Y0097509D02*
X0118776Y0097509D01*
X0117178Y0095911D02*
X0109832Y0095911D01*
X0110920Y0094312D02*
X0115579Y0094312D01*
X0113981Y0092714D02*
X0110920Y0092714D01*
X0110857Y0091115D02*
X0112382Y0091115D01*
X0110784Y0089517D02*
X0109259Y0089517D01*
X0109185Y0087918D02*
X0104690Y0087918D01*
X0103092Y0086320D02*
X0108720Y0086320D01*
X0108720Y0084721D02*
X0101493Y0084721D01*
X0099895Y0083123D02*
X0108720Y0083123D01*
X0103821Y0081524D02*
X0098296Y0081524D01*
X0096698Y0079926D02*
X0102223Y0079926D01*
X0102120Y0078327D02*
X0095099Y0078327D01*
X0093501Y0076729D02*
X0102120Y0076729D01*
X0103167Y0075130D02*
X0091902Y0075130D01*
X0090304Y0073532D02*
X0103920Y0073532D01*
X0103920Y0071933D02*
X0088705Y0071933D01*
X0087107Y0070334D02*
X0103920Y0070334D01*
X0103920Y0068736D02*
X0085508Y0068736D01*
X0083910Y0067137D02*
X0103435Y0067137D01*
X0102120Y0065539D02*
X0082311Y0065539D01*
X0081121Y0063940D02*
X0102120Y0063940D01*
X0102120Y0062342D02*
X0079120Y0062342D01*
X0079120Y0060743D02*
X0103554Y0060743D01*
X0103920Y0059145D02*
X0079120Y0059145D01*
X0079120Y0057546D02*
X0103920Y0057546D01*
X0103920Y0055948D02*
X0079120Y0055948D01*
X0079120Y0054349D02*
X0103920Y0054349D01*
X0103048Y0052751D02*
X0079120Y0052751D01*
X0079120Y0051152D02*
X0102120Y0051152D01*
X0102120Y0049554D02*
X0079120Y0049554D01*
X0079120Y0047955D02*
X0102342Y0047955D01*
X0103920Y0046357D02*
X0079120Y0046357D01*
X0079120Y0044758D02*
X0103920Y0044758D01*
X0103920Y0043160D02*
X0079120Y0043160D01*
X0079120Y0041561D02*
X0103920Y0041561D01*
X0103920Y0039963D02*
X0079120Y0039963D01*
X0079120Y0038364D02*
X0103920Y0038364D01*
X0103920Y0036766D02*
X0079120Y0036766D01*
X0079120Y0035167D02*
X0102464Y0035167D01*
X0106020Y0032500D02*
X0095020Y0032500D01*
X0082020Y0019500D01*
X0082020Y0018000D01*
X0081222Y0022379D02*
X0080430Y0022379D01*
X0079120Y0023978D02*
X0082820Y0023978D01*
X0084419Y0025576D02*
X0079120Y0025576D01*
X0079120Y0027175D02*
X0086017Y0027175D01*
X0087616Y0028773D02*
X0079120Y0028773D01*
X0079120Y0030372D02*
X0089214Y0030372D01*
X0090813Y0031970D02*
X0079120Y0031970D01*
X0079120Y0033569D02*
X0092411Y0033569D01*
X0106020Y0032500D02*
X0106520Y0033000D01*
X0106520Y0050000D01*
X0106520Y0064000D01*
X0106520Y0078000D01*
X0098185Y0087918D02*
X0094814Y0087918D01*
X0095620Y0086320D02*
X0096587Y0086320D01*
X0099784Y0089517D02*
X0093216Y0089517D01*
X0084253Y0095911D02*
X0077723Y0095911D01*
X0079413Y0097509D02*
X0085852Y0097509D01*
X0087450Y0099108D02*
X0081103Y0099108D01*
X0082793Y0100706D02*
X0089049Y0100706D01*
X0087501Y0102305D02*
X0090647Y0102305D01*
X0089100Y0103903D02*
X0092246Y0103903D01*
X0090698Y0105502D02*
X0093845Y0105502D01*
X0098001Y0102305D02*
X0123572Y0102305D01*
X0125170Y0103903D02*
X0099600Y0103903D01*
X0101198Y0105502D02*
X0126769Y0105502D01*
X0126520Y0105600D02*
X0126520Y0110000D01*
X0126520Y0110000D01*
X0126520Y0110000D01*
X0126520Y0114400D01*
X0124697Y0114400D01*
X0122120Y0111823D01*
X0122120Y0110000D01*
X0122120Y0108177D01*
X0124697Y0105600D01*
X0126520Y0105600D01*
X0126520Y0107100D02*
X0126520Y0107100D01*
X0126520Y0108699D02*
X0126520Y0108699D01*
X0126520Y0110000D02*
X0122120Y0110000D01*
X0126520Y0110000D01*
X0126520Y0110000D01*
X0126520Y0110297D02*
X0126520Y0110297D01*
X0126520Y0111896D02*
X0126520Y0111896D01*
X0126520Y0113494D02*
X0126520Y0113494D01*
X0123791Y0113494D02*
X0118248Y0113494D01*
X0119846Y0111896D02*
X0122193Y0111896D01*
X0122120Y0110297D02*
X0119920Y0110297D01*
X0119920Y0108699D02*
X0122120Y0108699D01*
X0123197Y0107100D02*
X0118842Y0107100D01*
X0121973Y0100706D02*
X0096403Y0100706D01*
X0094804Y0099108D02*
X0120375Y0099108D01*
X0122312Y0121487D02*
X0124727Y0121487D01*
X0124002Y0123085D02*
X0123037Y0123085D01*
X0123120Y0124684D02*
X0123920Y0124684D01*
X0123920Y0126282D02*
X0123120Y0126282D01*
X0123120Y0127881D02*
X0123920Y0127881D01*
X0123920Y0129479D02*
X0123120Y0129479D01*
X0122969Y0131078D02*
X0124070Y0131078D01*
X0124891Y0132676D02*
X0122149Y0132676D01*
X0153120Y0155653D02*
X0153120Y0160715D01*
X0152419Y0162406D01*
X0151125Y0163700D01*
X0149956Y0164184D01*
X0150472Y0164700D01*
X0176567Y0164700D01*
X0177094Y0164173D01*
X0176754Y0164063D01*
X0176109Y0163734D01*
X0175523Y0163309D01*
X0175011Y0162797D01*
X0174585Y0162211D01*
X0174257Y0161566D01*
X0174033Y0160877D01*
X0173920Y0160162D01*
X0173920Y0157037D01*
X0178483Y0157037D01*
X0178483Y0156963D01*
X0173920Y0156963D01*
X0173920Y0154853D01*
X0173120Y0155653D01*
X0173120Y0160715D01*
X0172419Y0162406D01*
X0171125Y0163700D01*
X0169435Y0164400D01*
X0167605Y0164400D01*
X0165914Y0163700D01*
X0164620Y0162406D01*
X0163920Y0160715D01*
X0163920Y0153285D01*
X0164620Y0151594D01*
X0165914Y0150300D01*
X0167605Y0149600D01*
X0169435Y0149600D01*
X0171125Y0150300D01*
X0171546Y0150721D01*
X0187907Y0134360D01*
X0187443Y0134287D01*
X0186754Y0134063D01*
X0186109Y0133734D01*
X0185523Y0133309D01*
X0185011Y0132797D01*
X0184996Y0132776D01*
X0181320Y0136453D01*
X0179972Y0137800D01*
X0177972Y0137800D01*
X0162934Y0152838D01*
X0163120Y0153285D01*
X0163120Y0160715D01*
X0162419Y0162406D01*
X0161125Y0163700D01*
X0159435Y0164400D01*
X0157605Y0164400D01*
X0155914Y0163700D01*
X0154620Y0162406D01*
X0153920Y0160715D01*
X0153920Y0154853D01*
X0153120Y0155653D01*
X0153717Y0155056D02*
X0153920Y0155056D01*
X0153920Y0156654D02*
X0153120Y0156654D01*
X0153120Y0158253D02*
X0153920Y0158253D01*
X0153920Y0159851D02*
X0153120Y0159851D01*
X0152815Y0161450D02*
X0154224Y0161450D01*
X0155262Y0163048D02*
X0151777Y0163048D01*
X0150419Y0164647D02*
X0176620Y0164647D01*
X0175262Y0163048D02*
X0171777Y0163048D01*
X0171020Y0164500D02*
X0166520Y0164500D01*
X0163520Y0161500D01*
X0163520Y0152500D01*
X0178020Y0138000D01*
X0180020Y0138000D01*
X0188520Y0129500D01*
X0188520Y0127000D01*
X0188556Y0127037D02*
X0188556Y0133711D01*
X0188483Y0133784D01*
X0188483Y0127037D01*
X0188556Y0127037D01*
X0188556Y0127881D02*
X0188483Y0127881D01*
X0188483Y0129479D02*
X0188556Y0129479D01*
X0188556Y0131078D02*
X0188483Y0131078D01*
X0188483Y0132676D02*
X0188556Y0132676D01*
X0187406Y0134275D02*
X0183497Y0134275D01*
X0181899Y0135873D02*
X0186394Y0135873D01*
X0184795Y0137472D02*
X0180300Y0137472D01*
X0183197Y0139070D02*
X0176702Y0139070D01*
X0175103Y0140669D02*
X0181598Y0140669D01*
X0179999Y0142268D02*
X0173505Y0142268D01*
X0171906Y0143866D02*
X0178401Y0143866D01*
X0176802Y0145465D02*
X0170308Y0145465D01*
X0168709Y0147063D02*
X0175204Y0147063D01*
X0173605Y0148662D02*
X0167111Y0148662D01*
X0166011Y0150260D02*
X0165512Y0150260D01*
X0164511Y0151859D02*
X0163914Y0151859D01*
X0163920Y0153457D02*
X0163120Y0153457D01*
X0163120Y0155056D02*
X0163920Y0155056D01*
X0163920Y0156654D02*
X0163120Y0156654D01*
X0163120Y0158253D02*
X0163920Y0158253D01*
X0163920Y0159851D02*
X0163120Y0159851D01*
X0162815Y0161450D02*
X0164224Y0161450D01*
X0165262Y0163048D02*
X0161777Y0163048D01*
X0171020Y0164500D02*
X0178520Y0157000D01*
X0173920Y0156654D02*
X0173120Y0156654D01*
X0173120Y0158253D02*
X0173920Y0158253D01*
X0173920Y0159851D02*
X0173120Y0159851D01*
X0172815Y0161450D02*
X0174219Y0161450D01*
X0173920Y0155056D02*
X0173717Y0155056D01*
X0172007Y0150260D02*
X0171028Y0150260D01*
X0124420Y0174238D02*
X0109934Y0174238D01*
X0111533Y0175836D02*
X0124420Y0175836D01*
X0127232Y0185427D02*
X0121124Y0185427D01*
X0122722Y0187026D02*
X0125281Y0187026D01*
X0124569Y0188624D02*
X0124321Y0188624D01*
X0124960Y0196617D02*
X0122548Y0196617D01*
X0124108Y0198215D02*
X0126558Y0198215D01*
X0126920Y0199814D02*
X0124770Y0199814D01*
X0125115Y0201412D02*
X0125895Y0201412D01*
X0129520Y0205000D02*
X0129520Y0197500D01*
X0103020Y0171000D01*
X0087420Y0132676D02*
X0086984Y0132676D01*
X0082655Y0094312D02*
X0076033Y0094312D01*
X0070520Y0085000D02*
X0070520Y0085000D01*
X0070520Y0079900D01*
X0070520Y0085000D01*
X0070520Y0085000D01*
X0072520Y0083000D01*
X0072520Y0076500D01*
X0070520Y0079926D02*
X0070520Y0079926D01*
X0070520Y0081524D02*
X0070520Y0081524D01*
X0070520Y0083123D02*
X0070520Y0083123D01*
X0070520Y0084721D02*
X0070520Y0084721D01*
X0068382Y0079926D02*
X0067120Y0079926D01*
X0052531Y0068736D02*
X0049888Y0068736D01*
X0049884Y0068712D02*
X0050020Y0069567D01*
X0050020Y0069800D01*
X0044720Y0069800D01*
X0044720Y0070200D01*
X0050020Y0070200D01*
X0050020Y0070433D01*
X0049884Y0071288D01*
X0049839Y0071428D01*
X0069720Y0051547D01*
X0069720Y0023105D01*
X0069125Y0023700D01*
X0067435Y0024400D01*
X0065605Y0024400D01*
X0064326Y0023870D01*
X0055224Y0032973D01*
X0054492Y0033704D01*
X0053537Y0034100D01*
X0038120Y0034100D01*
X0038120Y0039647D01*
X0042567Y0035200D01*
X0045577Y0035200D01*
X0045820Y0034957D01*
X0046923Y0034500D01*
X0048116Y0034500D01*
X0049219Y0034957D01*
X0050063Y0035801D01*
X0050520Y0036903D01*
X0050520Y0038097D01*
X0050063Y0039199D01*
X0049219Y0040043D01*
X0048116Y0040500D01*
X0046923Y0040500D01*
X0045820Y0040043D01*
X0045577Y0039800D01*
X0044472Y0039800D01*
X0031320Y0052953D01*
X0031320Y0055422D01*
X0031404Y0055337D01*
X0033426Y0054500D01*
X0035614Y0054500D01*
X0037635Y0055337D01*
X0039182Y0056884D01*
X0039520Y0057699D01*
X0039816Y0057117D01*
X0040325Y0056417D01*
X0040937Y0055805D01*
X0041637Y0055296D01*
X0042408Y0054903D01*
X0043232Y0054635D01*
X0044087Y0054500D01*
X0044320Y0054500D01*
X0044320Y0059800D01*
X0044720Y0059800D01*
X0044720Y0060200D01*
X0050020Y0060200D01*
X0050020Y0060433D01*
X0049884Y0061288D01*
X0049617Y0062111D01*
X0049224Y0062883D01*
X0048715Y0063583D01*
X0048103Y0064195D01*
X0047402Y0064704D01*
X0046821Y0065000D01*
X0047402Y0065296D01*
X0048103Y0065805D01*
X0048715Y0066417D01*
X0049224Y0067117D01*
X0049617Y0067889D01*
X0049884Y0068712D01*
X0050020Y0070334D02*
X0050932Y0070334D01*
X0049234Y0067137D02*
X0054130Y0067137D01*
X0055728Y0065539D02*
X0047737Y0065539D01*
X0048357Y0063940D02*
X0057327Y0063940D01*
X0058925Y0062342D02*
X0049499Y0062342D01*
X0049970Y0060743D02*
X0060524Y0060743D01*
X0059520Y0060500D02*
X0045020Y0060500D01*
X0044520Y0060000D01*
X0044520Y0041000D01*
X0044310Y0039963D02*
X0045740Y0039963D01*
X0042711Y0041561D02*
X0069720Y0041561D01*
X0069720Y0039963D02*
X0049300Y0039963D01*
X0050409Y0038364D02*
X0069720Y0038364D01*
X0069720Y0036766D02*
X0050463Y0036766D01*
X0049430Y0035167D02*
X0069720Y0035167D01*
X0069720Y0033569D02*
X0054628Y0033569D01*
X0056226Y0031970D02*
X0069720Y0031970D01*
X0069720Y0030372D02*
X0057825Y0030372D01*
X0059423Y0028773D02*
X0069720Y0028773D01*
X0069720Y0027175D02*
X0061022Y0027175D01*
X0062620Y0025576D02*
X0069720Y0025576D01*
X0069720Y0023978D02*
X0068454Y0023978D01*
X0064585Y0023978D02*
X0064219Y0023978D01*
X0066520Y0018000D02*
X0053020Y0031500D01*
X0036020Y0031500D01*
X0038120Y0035167D02*
X0045610Y0035167D01*
X0041001Y0036766D02*
X0038120Y0036766D01*
X0038120Y0038364D02*
X0039403Y0038364D01*
X0041113Y0043160D02*
X0069720Y0043160D01*
X0069720Y0044758D02*
X0039514Y0044758D01*
X0037916Y0046357D02*
X0069720Y0046357D01*
X0069720Y0047955D02*
X0036317Y0047955D01*
X0034719Y0049554D02*
X0069720Y0049554D01*
X0069720Y0051152D02*
X0033120Y0051152D01*
X0031521Y0052751D02*
X0068516Y0052751D01*
X0066918Y0054349D02*
X0031320Y0054349D01*
X0038246Y0055948D02*
X0040794Y0055948D01*
X0039597Y0057546D02*
X0039457Y0057546D01*
X0044320Y0057546D02*
X0044720Y0057546D01*
X0044720Y0055948D02*
X0044320Y0055948D01*
X0044720Y0054500D02*
X0044953Y0054500D01*
X0045808Y0054635D01*
X0046631Y0054903D01*
X0047402Y0055296D01*
X0048103Y0055805D01*
X0048715Y0056417D01*
X0049224Y0057117D01*
X0049617Y0057889D01*
X0049884Y0058712D01*
X0050020Y0059567D01*
X0050020Y0059800D01*
X0044720Y0059800D01*
X0044720Y0054500D01*
X0048246Y0055948D02*
X0065319Y0055948D01*
X0063721Y0057546D02*
X0049442Y0057546D01*
X0049953Y0059145D02*
X0062122Y0059145D01*
X0076520Y0062500D02*
X0076520Y0017000D01*
X0066520Y0017000D02*
X0066520Y0018000D01*
X0044720Y0059145D02*
X0044320Y0059145D01*
X0044320Y0060200D02*
X0044320Y0065500D01*
X0044320Y0069800D01*
X0044720Y0069800D01*
X0044720Y0060200D01*
X0044320Y0060200D01*
X0044320Y0060743D02*
X0044720Y0060743D01*
X0044720Y0062342D02*
X0044320Y0062342D01*
X0044320Y0063940D02*
X0044720Y0063940D01*
X0044720Y0065539D02*
X0044320Y0065539D01*
X0044320Y0067137D02*
X0044720Y0067137D01*
X0044720Y0068736D02*
X0044320Y0068736D01*
X0085620Y0076729D02*
X0086996Y0076729D01*
X0146696Y0025576D02*
X0157843Y0025576D01*
X0156245Y0023978D02*
X0155330Y0023978D01*
X0149709Y0023978D02*
X0148295Y0023978D01*
X0158820Y0062342D02*
X0181120Y0062342D01*
X0181120Y0063940D02*
X0158820Y0063940D01*
X0158820Y0065539D02*
X0181120Y0065539D01*
X0182435Y0067137D02*
X0158820Y0067137D01*
X0158820Y0068736D02*
X0195191Y0068736D01*
X0193508Y0070334D02*
X0158820Y0070334D01*
X0158820Y0071933D02*
X0191910Y0071933D01*
X0185166Y0073532D02*
X0158820Y0073532D01*
X0158820Y0075130D02*
X0184283Y0075130D01*
X0184120Y0076729D02*
X0158820Y0076729D01*
X0158820Y0078327D02*
X0184120Y0078327D01*
X0184120Y0079926D02*
X0158820Y0079926D01*
X0158820Y0081524D02*
X0184120Y0081524D01*
X0184388Y0083123D02*
X0158820Y0083123D01*
X0158820Y0084721D02*
X0185418Y0084721D01*
X0185420Y0086320D02*
X0158820Y0086320D01*
X0158820Y0087918D02*
X0185420Y0087918D01*
X0185420Y0089517D02*
X0158820Y0089517D01*
X0158820Y0091115D02*
X0185420Y0091115D01*
X0185420Y0092714D02*
X0158820Y0092714D01*
X0242245Y0030372D02*
X0244794Y0030372D01*
X0252330Y0023978D02*
X0255789Y0023978D01*
X0257388Y0022379D02*
X0253730Y0022379D01*
X0254320Y0020781D02*
X0258986Y0020781D01*
X0271758Y0161450D02*
X0277520Y0161450D01*
X0277520Y0163048D02*
X0272907Y0163048D01*
X0273320Y0164647D02*
X0277520Y0164647D01*
X0277520Y0166245D02*
X0273199Y0166245D01*
X0272464Y0167844D02*
X0277520Y0167844D01*
X0277520Y0169442D02*
X0273215Y0169442D01*
X0274813Y0171041D02*
X0277520Y0171041D01*
X0277520Y0172639D02*
X0275320Y0172639D01*
X0275320Y0174238D02*
X0277520Y0174238D01*
X0277520Y0175836D02*
X0275320Y0175836D01*
X0275320Y0177435D02*
X0277520Y0177435D01*
X0277520Y0179033D02*
X0275320Y0179033D01*
X0275320Y0180632D02*
X0277520Y0180632D01*
X0277520Y0182230D02*
X0275320Y0182230D01*
X0275320Y0183829D02*
X0277520Y0183829D01*
X0277520Y0185427D02*
X0275320Y0185427D01*
X0275320Y0187026D02*
X0277520Y0187026D01*
X0277520Y0188624D02*
X0275320Y0188624D01*
X0275320Y0190223D02*
X0277520Y0190223D01*
X0277520Y0191821D02*
X0275320Y0191821D01*
X0275320Y0193420D02*
X0277520Y0193420D01*
X0277520Y0195018D02*
X0275320Y0195018D01*
X0275320Y0196617D02*
X0277520Y0196617D01*
X0277520Y0198215D02*
X0275320Y0198215D01*
X0275320Y0199814D02*
X0277520Y0199814D01*
X0277520Y0201412D02*
X0275320Y0201412D01*
X0275320Y0203011D02*
X0277520Y0203011D01*
X0277520Y0204609D02*
X0275320Y0204609D01*
X0275320Y0206208D02*
X0277520Y0206208D01*
X0277520Y0207806D02*
X0275320Y0207806D01*
X0273867Y0209405D02*
X0277520Y0209405D01*
X0277520Y0211003D02*
X0272269Y0211003D01*
X0270670Y0212602D02*
X0277520Y0212602D01*
X0265520Y0195000D02*
X0255520Y0205000D01*
X0255520Y0205500D01*
X0251020Y0210000D01*
X0198020Y0210000D01*
X0192020Y0204000D01*
X0189799Y0201412D02*
X0173145Y0201412D01*
X0174216Y0203011D02*
X0188749Y0203011D01*
X0188620Y0204609D02*
X0184352Y0204609D01*
X0185950Y0206208D02*
X0189419Y0206208D01*
X0186920Y0207806D02*
X0192149Y0207806D01*
X0193748Y0209405D02*
X0186920Y0209405D01*
X0186739Y0211003D02*
X0195346Y0211003D01*
X0199097Y0207400D02*
X0199097Y0207400D01*
X0243667Y0207400D01*
X0237067Y0200800D01*
X0232542Y0200800D01*
X0232920Y0201177D01*
X0232920Y0203000D01*
X0232920Y0204823D01*
X0230342Y0207400D01*
X0228520Y0207400D01*
X0228520Y0203000D01*
X0232920Y0203000D01*
X0228520Y0203000D01*
X0228520Y0203000D01*
X0228520Y0203000D01*
X0228520Y0207400D01*
X0226697Y0207400D01*
X0224120Y0204823D01*
X0224120Y0203000D01*
X0224120Y0201177D01*
X0224497Y0200800D01*
X0221542Y0200800D01*
X0221920Y0201177D01*
X0221920Y0203000D01*
X0221920Y0204823D01*
X0219342Y0207400D01*
X0217520Y0207400D01*
X0217520Y0203000D01*
X0221920Y0203000D01*
X0217520Y0203000D01*
X0217520Y0203000D01*
X0217520Y0203000D01*
X0217520Y0207400D01*
X0215697Y0207400D01*
X0213120Y0204823D01*
X0213120Y0203000D01*
X0213120Y0201177D01*
X0213497Y0200800D01*
X0201542Y0200800D01*
X0201920Y0201177D01*
X0201920Y0204823D01*
X0199342Y0207400D01*
X0199097Y0207400D01*
X0200534Y0206208D02*
X0214505Y0206208D01*
X0213120Y0204609D02*
X0201920Y0204609D01*
X0201920Y0203011D02*
X0213120Y0203011D01*
X0213120Y0203000D02*
X0217520Y0203000D01*
X0213120Y0203000D01*
X0213120Y0201412D02*
X0201920Y0201412D01*
X0217520Y0203000D02*
X0217520Y0203000D01*
X0217520Y0203011D02*
X0217520Y0203011D01*
X0217520Y0204609D02*
X0217520Y0204609D01*
X0217520Y0206208D02*
X0217520Y0206208D01*
X0220534Y0206208D02*
X0225505Y0206208D01*
X0224120Y0204609D02*
X0221920Y0204609D01*
X0221920Y0203011D02*
X0224120Y0203011D01*
X0224120Y0203000D02*
X0228520Y0203000D01*
X0224120Y0203000D01*
X0224120Y0201412D02*
X0221920Y0201412D01*
X0228520Y0203000D02*
X0228520Y0203000D01*
X0228520Y0203011D02*
X0228520Y0203011D01*
X0228520Y0204609D02*
X0228520Y0204609D01*
X0228520Y0206208D02*
X0228520Y0206208D01*
X0231534Y0206208D02*
X0242475Y0206208D01*
X0240876Y0204609D02*
X0232920Y0204609D01*
X0232920Y0203011D02*
X0239278Y0203011D01*
X0237679Y0201412D02*
X0232920Y0201412D01*
X0250200Y0185427D02*
X0257728Y0185427D01*
X0257720Y0184800D02*
X0257720Y0184622D01*
X0257838Y0183876D01*
X0258071Y0183157D01*
X0258414Y0182484D01*
X0258858Y0181873D01*
X0259393Y0181339D01*
X0260004Y0180895D01*
X0260677Y0180552D01*
X0261396Y0180318D01*
X0262142Y0180200D01*
X0265320Y0180200D01*
X0265320Y0184800D01*
X0257720Y0184800D01*
X0257853Y0183829D02*
X0248601Y0183829D01*
X0247003Y0182230D02*
X0258599Y0182230D01*
X0260520Y0180632D02*
X0245404Y0180632D01*
X0243806Y0179033D02*
X0259905Y0179033D01*
X0265320Y0179033D02*
X0265720Y0179033D01*
X0265720Y0177435D02*
X0265320Y0177435D01*
X0265320Y0175836D02*
X0265720Y0175836D01*
X0265720Y0174238D02*
X0265320Y0174238D01*
X0265320Y0172639D02*
X0265720Y0172639D01*
X0265720Y0171041D02*
X0265320Y0171041D01*
X0265320Y0180632D02*
X0265720Y0180632D01*
X0265720Y0182230D02*
X0265320Y0182230D01*
X0265320Y0183829D02*
X0265720Y0183829D01*
X0265720Y0185427D02*
X0265320Y0185427D01*
X0265320Y0187026D02*
X0265720Y0187026D01*
X0265720Y0188624D02*
X0265320Y0188624D01*
X0261510Y0190223D02*
X0254995Y0190223D01*
X0255320Y0191821D02*
X0258910Y0191821D01*
X0257979Y0193420D02*
X0255320Y0193420D01*
X0255320Y0195018D02*
X0257720Y0195018D01*
X0257994Y0196617D02*
X0255320Y0196617D01*
X0255320Y0198215D02*
X0258627Y0198215D01*
X0257029Y0199814D02*
X0255320Y0199814D01*
X0255320Y0201412D02*
X0255430Y0201412D01*
X0269530Y0190223D02*
X0270720Y0190223D01*
X0259356Y0188624D02*
X0253397Y0188624D01*
X0251798Y0187026D02*
X0258165Y0187026D01*
X0270519Y0180632D02*
X0270720Y0180632D01*
X0235512Y0166245D02*
X0231018Y0166245D01*
X0229419Y0164647D02*
X0233914Y0164647D01*
X0232315Y0163048D02*
X0231777Y0163048D01*
X0180688Y0204609D02*
X0174620Y0204609D01*
X0174540Y0206208D02*
X0179089Y0206208D01*
X0178120Y0207806D02*
X0173877Y0207806D01*
X0172212Y0209405D02*
X0178120Y0209405D01*
X0178301Y0211003D02*
X0130776Y0211003D01*
X0132212Y0209405D02*
X0166827Y0209405D01*
X0165162Y0207806D02*
X0133877Y0207806D01*
X0125869Y0212602D02*
X0017881Y0212602D01*
X0017573Y0211003D02*
X0124271Y0211003D01*
X0122672Y0209405D02*
X0017616Y0209405D01*
X0159520Y0205000D02*
X0169520Y0205000D01*
D25*
X0178520Y0188500D03*
X0192020Y0204000D03*
X0230020Y0189500D03*
X0148020Y0174500D03*
X0042520Y0145000D03*
X0072520Y0076500D03*
X0059520Y0060500D03*
X0044520Y0041000D03*
X0082020Y0018000D03*
X0172020Y0092500D03*
X0208020Y0071000D03*
D26*
X0213020Y0065500D02*
X0184020Y0036500D01*
X0172020Y0036500D01*
X0152520Y0017000D01*
X0148020Y0021000D02*
X0148020Y0012000D01*
X0152520Y0007500D01*
X0220020Y0007500D01*
X0229520Y0017000D01*
X0219520Y0017000D02*
X0233520Y0031000D01*
X0233520Y0036000D01*
X0243520Y0046000D01*
X0243520Y0053000D01*
X0243520Y0060000D02*
X0256020Y0047500D01*
X0256020Y0036500D01*
X0265520Y0027000D01*
X0270520Y0022500D02*
X0260520Y0022500D01*
X0254020Y0029000D01*
X0254020Y0046500D01*
X0238520Y0062000D01*
X0238520Y0064000D01*
X0233520Y0066000D02*
X0233520Y0039000D01*
X0228520Y0034000D01*
X0223520Y0039000D02*
X0218520Y0034000D01*
X0216020Y0031500D01*
X0174020Y0031500D01*
X0173020Y0034500D02*
X0162520Y0024000D01*
X0162520Y0017000D01*
X0156520Y0010500D02*
X0157520Y0009500D01*
X0201520Y0009500D01*
X0202520Y0010500D01*
X0203520Y0010500D01*
X0196020Y0034500D02*
X0173020Y0034500D01*
X0156520Y0033000D02*
X0156520Y0094000D01*
X0145520Y0105000D01*
X0142020Y0111500D02*
X0142020Y0027000D01*
X0148020Y0021000D01*
X0113020Y0017500D02*
X0112520Y0017000D01*
X0113020Y0017500D02*
X0113020Y0085500D01*
X0148520Y0121000D01*
X0148520Y0127000D01*
X0153020Y0122500D02*
X0142020Y0111500D01*
X0138520Y0114000D02*
X0111020Y0086500D01*
X0111020Y0025500D01*
X0102520Y0017000D01*
X0102520Y0017500D01*
X0095520Y0024500D01*
X0090520Y0024500D01*
X0088020Y0022000D01*
X0088020Y0019500D01*
X0078020Y0009500D01*
X0075020Y0009500D01*
X0072020Y0012500D01*
X0072020Y0052500D01*
X0044520Y0080000D01*
X0034520Y0080000D02*
X0029020Y0074500D01*
X0029020Y0052000D01*
X0043520Y0037500D01*
X0047520Y0037500D01*
X0040520Y0016000D02*
X0046020Y0010500D01*
X0059520Y0010500D01*
X0092520Y0017000D02*
X0102020Y0005500D01*
X0238020Y0005500D01*
X0249520Y0017000D01*
X0270520Y0022500D02*
X0273020Y0025000D01*
X0273020Y0059500D01*
X0265520Y0067000D01*
X0248520Y0079000D02*
X0255020Y0085500D01*
X0255020Y0159500D01*
X0250020Y0164500D01*
X0237020Y0164500D01*
X0229520Y0157000D01*
X0228520Y0157000D01*
X0218520Y0157000D02*
X0253020Y0191500D01*
X0253020Y0204500D01*
X0250020Y0207500D01*
X0247020Y0207500D01*
X0238020Y0198500D01*
X0160520Y0198500D01*
X0146520Y0184500D01*
X0144520Y0184500D01*
X0154020Y0185000D02*
X0209020Y0185000D01*
X0210020Y0186000D01*
X0218020Y0186000D01*
X0231520Y0186000D02*
X0231520Y0180000D01*
X0220520Y0169000D01*
X0204020Y0169000D01*
X0204020Y0152500D01*
X0208520Y0148000D01*
X0208520Y0127000D01*
X0204020Y0130500D02*
X0204020Y0122500D01*
X0207020Y0119500D01*
X0216020Y0119500D01*
X0223020Y0118500D02*
X0223020Y0115000D01*
X0218520Y0110500D01*
X0218520Y0109000D01*
X0223020Y0112000D02*
X0223020Y0092000D01*
X0213020Y0082000D01*
X0213020Y0065500D01*
X0223520Y0062000D02*
X0196020Y0034500D01*
X0223520Y0039000D02*
X0223520Y0056000D01*
X0223520Y0062000D02*
X0223520Y0082500D01*
X0233020Y0092000D01*
X0233020Y0112000D01*
X0238520Y0117500D01*
X0238520Y0127000D01*
X0243020Y0131500D02*
X0246020Y0134500D01*
X0243020Y0131500D02*
X0237520Y0137000D01*
X0228520Y0137000D01*
X0224020Y0136500D02*
X0237020Y0149500D01*
X0241020Y0149500D01*
X0248520Y0157000D01*
X0258020Y0147500D02*
X0258020Y0044500D01*
X0265520Y0037000D01*
X0243520Y0060000D02*
X0243520Y0112500D01*
X0248520Y0117500D01*
X0248520Y0127000D01*
X0253020Y0131500D02*
X0253020Y0113500D01*
X0248520Y0109000D01*
X0238520Y0109000D02*
X0238520Y0114500D01*
X0243020Y0119000D01*
X0243020Y0131500D01*
X0244520Y0140000D02*
X0235520Y0140000D01*
X0244520Y0140000D02*
X0253020Y0131500D01*
X0228520Y0127000D02*
X0228520Y0117500D01*
X0223020Y0112000D01*
X0214020Y0113500D02*
X0214020Y0106000D01*
X0208520Y0100500D01*
X0208520Y0079000D01*
X0229020Y0070000D02*
X0230020Y0069000D01*
X0230520Y0069000D01*
X0233520Y0066000D01*
X0200020Y0102000D02*
X0197020Y0102000D01*
X0196270Y0102750D01*
X0195520Y0102000D01*
X0196270Y0102750D02*
X0193020Y0106000D01*
X0193020Y0113500D01*
X0183020Y0123500D01*
X0183020Y0131500D01*
X0179020Y0135500D01*
X0177020Y0135500D01*
X0158520Y0154000D01*
X0158520Y0157000D01*
X0168520Y0157000D02*
X0193020Y0132500D01*
X0193020Y0123500D01*
X0198520Y0118000D01*
X0198520Y0109000D01*
X0200020Y0102000D02*
X0207020Y0109000D01*
X0208520Y0109000D01*
X0214020Y0113500D02*
X0224020Y0123500D01*
X0224020Y0136500D01*
X0204020Y0130500D02*
X0184020Y0150500D01*
X0184020Y0160500D01*
X0177520Y0167000D01*
X0149520Y0167000D01*
X0139520Y0157000D01*
X0138520Y0157000D01*
X0148520Y0157000D02*
X0173520Y0132000D01*
X0153020Y0131500D02*
X0153020Y0122500D01*
X0153020Y0131500D02*
X0150020Y0134500D01*
X0142020Y0134500D01*
X0119520Y0157000D01*
X0118520Y0157000D01*
X0128520Y0157000D02*
X0128520Y0159500D01*
X0154020Y0185000D01*
X0148520Y0170000D02*
X0177520Y0170000D01*
X0181020Y0173500D01*
X0212020Y0173500D01*
X0213520Y0172000D01*
X0204020Y0169000D02*
X0182520Y0169000D01*
X0231520Y0186000D02*
X0248520Y0203000D01*
X0266520Y0213500D02*
X0130020Y0213500D01*
X0118520Y0202000D01*
X0118315Y0202000D01*
X0138520Y0127000D02*
X0138520Y0114000D01*
X0106520Y0093000D02*
X0079020Y0065500D01*
X0078520Y0065500D01*
X0034520Y0100000D02*
X0027020Y0092500D01*
X0027020Y0086000D01*
X0265520Y0165000D02*
X0273020Y0172500D01*
X0273020Y0207000D01*
X0266520Y0213500D01*
D27*
X0218020Y0186000D03*
X0213520Y0172000D03*
X0235520Y0140000D03*
X0228520Y0137000D03*
X0246020Y0134500D03*
X0258020Y0147500D03*
X0223020Y0118500D03*
X0216020Y0119500D03*
X0195520Y0102000D03*
X0173520Y0132000D03*
X0145520Y0105000D03*
X0078520Y0065500D03*
X0047520Y0037500D03*
X0059520Y0010500D03*
X0156520Y0010500D03*
X0174020Y0031500D03*
X0203520Y0010500D03*
X0243520Y0053000D03*
X0223520Y0056000D03*
X0229020Y0070000D03*
X0148520Y0170000D03*
X0144520Y0184500D03*
X0027020Y0086000D03*
D28*
X0148020Y0174500D02*
X0169020Y0174500D01*
X0169520Y0175000D01*
M02*
