G75*
%MOIN*%
%OFA0B0*%
%FSLAX25Y25*%
%IPPOS*%
%LPD*%
%AMOC8*
5,1,8,0,0,1.08239X$1,22.5*
%
%ADD10C,0.00000*%
%ADD11C,0.00100*%
%ADD12R,0.03000X0.09100*%
%ADD13R,0.03200X0.02700*%
%ADD14R,0.00200X0.09200*%
%ADD15R,0.03900X0.13700*%
%ADD16R,0.03900X0.00100*%
%ADD17R,0.00200X0.04900*%
%ADD18R,0.00100X0.07500*%
%ADD19R,0.00100X0.06300*%
%ADD20R,0.11800X0.03200*%
D10*
X0014520Y0010050D02*
X0014520Y0206010D01*
X0014523Y0206252D01*
X0014532Y0206493D01*
X0014546Y0206734D01*
X0014567Y0206975D01*
X0014593Y0207215D01*
X0014625Y0207455D01*
X0014663Y0207694D01*
X0014706Y0207931D01*
X0014756Y0208168D01*
X0014811Y0208403D01*
X0014871Y0208637D01*
X0014938Y0208869D01*
X0015009Y0209100D01*
X0015087Y0209329D01*
X0015170Y0209556D01*
X0015258Y0209781D01*
X0015352Y0210004D01*
X0015451Y0210224D01*
X0015556Y0210442D01*
X0015665Y0210657D01*
X0015780Y0210870D01*
X0015900Y0211080D01*
X0016025Y0211286D01*
X0016155Y0211490D01*
X0016290Y0211691D01*
X0016430Y0211888D01*
X0016574Y0212082D01*
X0016723Y0212272D01*
X0016877Y0212458D01*
X0017035Y0212641D01*
X0017197Y0212820D01*
X0017364Y0212995D01*
X0017535Y0213166D01*
X0017710Y0213333D01*
X0017889Y0213495D01*
X0018072Y0213653D01*
X0018258Y0213807D01*
X0018448Y0213956D01*
X0018642Y0214100D01*
X0018839Y0214240D01*
X0019040Y0214375D01*
X0019244Y0214505D01*
X0019450Y0214630D01*
X0019660Y0214750D01*
X0019873Y0214865D01*
X0020088Y0214974D01*
X0020306Y0215079D01*
X0020526Y0215178D01*
X0020749Y0215272D01*
X0020974Y0215360D01*
X0021201Y0215443D01*
X0021430Y0215521D01*
X0021661Y0215592D01*
X0021893Y0215659D01*
X0022127Y0215719D01*
X0022362Y0215774D01*
X0022599Y0215824D01*
X0022836Y0215867D01*
X0023075Y0215905D01*
X0023315Y0215937D01*
X0023555Y0215963D01*
X0023796Y0215984D01*
X0024037Y0215998D01*
X0024278Y0216007D01*
X0024520Y0216010D01*
X0269205Y0216010D01*
X0269205Y0216011D02*
X0269495Y0216007D01*
X0269786Y0215997D01*
X0270075Y0215979D01*
X0270365Y0215955D01*
X0270653Y0215923D01*
X0270941Y0215885D01*
X0271228Y0215839D01*
X0271514Y0215787D01*
X0271798Y0215728D01*
X0272081Y0215662D01*
X0272362Y0215589D01*
X0272641Y0215509D01*
X0272918Y0215423D01*
X0273193Y0215330D01*
X0273466Y0215230D01*
X0273736Y0215124D01*
X0274004Y0215011D01*
X0274269Y0214892D01*
X0274530Y0214766D01*
X0274789Y0214635D01*
X0275045Y0214497D01*
X0275297Y0214352D01*
X0275545Y0214202D01*
X0275790Y0214046D01*
X0276031Y0213884D01*
X0276268Y0213716D01*
X0276501Y0213543D01*
X0276729Y0213364D01*
X0276953Y0213179D01*
X0277173Y0212989D01*
X0277388Y0212794D01*
X0277598Y0212594D01*
X0277804Y0212388D01*
X0278004Y0212178D01*
X0278199Y0211963D01*
X0278389Y0211743D01*
X0278574Y0211519D01*
X0278753Y0211291D01*
X0278926Y0211058D01*
X0279094Y0210821D01*
X0279256Y0210580D01*
X0279412Y0210335D01*
X0279562Y0210087D01*
X0279707Y0209835D01*
X0279845Y0209579D01*
X0279976Y0209320D01*
X0280102Y0209059D01*
X0280221Y0208794D01*
X0280334Y0208526D01*
X0280440Y0208256D01*
X0280540Y0207983D01*
X0280633Y0207708D01*
X0280719Y0207431D01*
X0280799Y0207152D01*
X0280872Y0206871D01*
X0280938Y0206588D01*
X0280997Y0206304D01*
X0281049Y0206018D01*
X0281095Y0205731D01*
X0281133Y0205443D01*
X0281165Y0205155D01*
X0281189Y0204865D01*
X0281207Y0204576D01*
X0281217Y0204285D01*
X0281221Y0203995D01*
X0281220Y0203995D02*
X0281220Y0011050D01*
X0281229Y0010820D01*
X0281233Y0010590D01*
X0281231Y0010361D01*
X0281224Y0010131D01*
X0281211Y0009901D01*
X0281192Y0009672D01*
X0281168Y0009443D01*
X0281139Y0009216D01*
X0281104Y0008988D01*
X0281063Y0008762D01*
X0281018Y0008537D01*
X0280966Y0008313D01*
X0280909Y0008090D01*
X0280847Y0007869D01*
X0280780Y0007649D01*
X0280707Y0007431D01*
X0280629Y0007214D01*
X0280546Y0007000D01*
X0280458Y0006788D01*
X0280364Y0006578D01*
X0280266Y0006370D01*
X0280162Y0006165D01*
X0280054Y0005962D01*
X0279940Y0005762D01*
X0279822Y0005565D01*
X0279699Y0005371D01*
X0279572Y0005179D01*
X0279440Y0004991D01*
X0279303Y0004806D01*
X0279162Y0004625D01*
X0279017Y0004447D01*
X0278867Y0004272D01*
X0278714Y0004101D01*
X0278556Y0003934D01*
X0278394Y0003771D01*
X0278228Y0003612D01*
X0278058Y0003456D01*
X0277885Y0003305D01*
X0277708Y0003158D01*
X0277528Y0003016D01*
X0277344Y0002878D01*
X0277157Y0002744D01*
X0276967Y0002615D01*
X0276774Y0002490D01*
X0276578Y0002371D01*
X0276378Y0002256D01*
X0276177Y0002146D01*
X0275972Y0002040D01*
X0275765Y0001940D01*
X0275556Y0001845D01*
X0275345Y0001755D01*
X0275131Y0001670D01*
X0274916Y0001590D01*
X0274698Y0001515D01*
X0274479Y0001446D01*
X0274258Y0001382D01*
X0274036Y0001323D01*
X0273812Y0001270D01*
X0273587Y0001222D01*
X0273361Y0001180D01*
X0273135Y0001143D01*
X0272907Y0001111D01*
X0272678Y0001085D01*
X0272449Y0001065D01*
X0272220Y0001050D01*
X0025520Y0001050D01*
X0025278Y0001029D01*
X0025036Y0001013D01*
X0024793Y0001004D01*
X0024550Y0001000D01*
X0024307Y0001002D01*
X0024065Y0001010D01*
X0023822Y0001024D01*
X0023580Y0001044D01*
X0023339Y0001070D01*
X0023098Y0001101D01*
X0022858Y0001138D01*
X0022619Y0001181D01*
X0022381Y0001230D01*
X0022144Y0001285D01*
X0021909Y0001345D01*
X0021675Y0001411D01*
X0021443Y0001483D01*
X0021213Y0001560D01*
X0020984Y0001642D01*
X0020758Y0001731D01*
X0020534Y0001824D01*
X0020312Y0001923D01*
X0020093Y0002028D01*
X0019876Y0002137D01*
X0019662Y0002252D01*
X0019451Y0002372D01*
X0019243Y0002497D01*
X0019038Y0002627D01*
X0018836Y0002762D01*
X0018637Y0002902D01*
X0018442Y0003046D01*
X0018250Y0003195D01*
X0018062Y0003349D01*
X0017878Y0003507D01*
X0017698Y0003670D01*
X0017522Y0003837D01*
X0017349Y0004008D01*
X0017181Y0004184D01*
X0017018Y0004363D01*
X0016858Y0004546D01*
X0016703Y0004733D01*
X0016553Y0004924D01*
X0016407Y0005118D01*
X0016266Y0005316D01*
X0016130Y0005517D01*
X0015999Y0005722D01*
X0015873Y0005929D01*
X0015751Y0006140D01*
X0015635Y0006353D01*
X0015524Y0006569D01*
X0015419Y0006788D01*
X0015318Y0007009D01*
X0015223Y0007232D01*
X0015134Y0007458D01*
X0015050Y0007686D01*
X0014971Y0007916D01*
X0014898Y0008147D01*
X0014831Y0008381D01*
X0014769Y0008616D01*
X0014713Y0008852D01*
X0014663Y0009090D01*
X0014619Y0009328D01*
X0014580Y0009568D01*
X0014547Y0009809D01*
X0014520Y0010050D01*
X0019961Y0127432D02*
X0025079Y0127432D01*
X0025079Y0129794D01*
X0019961Y0129794D01*
X0019961Y0127432D01*
X0032657Y0134912D02*
X0032657Y0137668D01*
X0036004Y0137668D01*
X0036004Y0134912D01*
X0032657Y0134912D01*
X0032657Y0152432D02*
X0032657Y0155188D01*
X0036004Y0155188D01*
X0036004Y0152432D01*
X0032657Y0152432D01*
X0025079Y0160306D02*
X0019961Y0160306D01*
X0019961Y0162668D01*
X0025079Y0162668D01*
X0025079Y0160306D01*
X0037614Y0168577D02*
X0037614Y0171727D01*
X0049425Y0171727D01*
X0049425Y0168577D01*
X0037614Y0168577D01*
X0053362Y0182160D02*
X0053362Y0195940D01*
X0057299Y0195940D01*
X0057299Y0182160D01*
X0053362Y0182160D01*
X0033283Y0183144D02*
X0030134Y0183144D01*
X0030134Y0194955D01*
X0033283Y0194955D01*
X0033283Y0183144D01*
D11*
X0033275Y0199100D02*
X0033025Y0199350D01*
X0033025Y0199851D01*
X0033275Y0200101D01*
X0033776Y0200101D01*
X0034026Y0199851D01*
X0034026Y0199350D01*
X0033776Y0199100D01*
X0033275Y0199100D01*
X0032543Y0199100D02*
X0032043Y0199100D01*
X0032293Y0199100D02*
X0032293Y0200601D01*
X0032043Y0200601D01*
X0031571Y0200351D02*
X0031320Y0200601D01*
X0030820Y0200601D01*
X0030570Y0200351D01*
X0030570Y0200101D01*
X0030820Y0199851D01*
X0031320Y0199851D01*
X0031571Y0199600D01*
X0031571Y0199350D01*
X0031320Y0199100D01*
X0030820Y0199100D01*
X0030570Y0199350D01*
X0034498Y0200101D02*
X0034999Y0200101D01*
X0034749Y0200351D02*
X0034749Y0199350D01*
X0034999Y0199100D01*
X0036954Y0199350D02*
X0036954Y0199851D01*
X0037204Y0200101D01*
X0037955Y0200101D01*
X0038427Y0200101D02*
X0038427Y0199100D01*
X0037955Y0199100D02*
X0037204Y0199100D01*
X0036954Y0199350D01*
X0037955Y0199100D02*
X0037955Y0200601D01*
X0038927Y0200101D02*
X0039178Y0200101D01*
X0038927Y0200101D02*
X0038427Y0199600D01*
X0039655Y0199100D02*
X0040155Y0199100D01*
X0039905Y0199100D02*
X0039905Y0200101D01*
X0039655Y0200101D01*
X0039905Y0200601D02*
X0039905Y0200851D01*
X0040637Y0200601D02*
X0040887Y0200601D01*
X0040887Y0199100D01*
X0040637Y0199100D02*
X0041137Y0199100D01*
X0041619Y0199100D02*
X0042120Y0199100D01*
X0041869Y0199100D02*
X0041869Y0200601D01*
X0041619Y0200601D01*
X0042601Y0199851D02*
X0042851Y0199600D01*
X0043352Y0199600D01*
X0043602Y0199350D01*
X0043352Y0199100D01*
X0042601Y0199100D01*
X0042601Y0199851D02*
X0042851Y0200101D01*
X0043602Y0200101D01*
X0045548Y0200101D02*
X0045548Y0199350D01*
X0045798Y0199100D01*
X0046048Y0199350D01*
X0046298Y0199100D01*
X0046549Y0199350D01*
X0046549Y0200101D01*
X0047021Y0200101D02*
X0047271Y0200101D01*
X0047271Y0199100D01*
X0047021Y0199100D02*
X0047521Y0199100D01*
X0048253Y0199350D02*
X0048253Y0200351D01*
X0048003Y0200101D02*
X0048504Y0200101D01*
X0048985Y0199851D02*
X0049236Y0200101D01*
X0049736Y0200101D01*
X0049986Y0199851D01*
X0049986Y0199100D01*
X0048985Y0199100D02*
X0048985Y0200601D01*
X0048253Y0199350D02*
X0048504Y0199100D01*
X0047271Y0200601D02*
X0047271Y0200851D01*
X0051932Y0199851D02*
X0051932Y0199350D01*
X0052182Y0199100D01*
X0052933Y0199100D01*
X0053405Y0199350D02*
X0053655Y0199100D01*
X0054156Y0199100D01*
X0054406Y0199350D01*
X0054406Y0199851D01*
X0054156Y0200101D01*
X0053655Y0200101D01*
X0053405Y0199851D01*
X0053405Y0199350D01*
X0052933Y0200101D02*
X0052182Y0200101D01*
X0051932Y0199851D01*
X0054878Y0200101D02*
X0054878Y0198599D01*
X0054878Y0199100D02*
X0055629Y0199100D01*
X0055879Y0199350D01*
X0055879Y0199851D01*
X0055629Y0200101D01*
X0054878Y0200101D01*
X0056352Y0200101D02*
X0057102Y0200101D01*
X0057352Y0199851D01*
X0057352Y0199350D01*
X0057102Y0199100D01*
X0056352Y0199100D01*
X0056352Y0198599D02*
X0056352Y0200101D01*
X0057825Y0199851D02*
X0057825Y0199350D01*
X0058075Y0199100D01*
X0058576Y0199100D01*
X0058826Y0199600D02*
X0057825Y0199600D01*
X0057825Y0199851D02*
X0058075Y0200101D01*
X0058576Y0200101D01*
X0058826Y0199851D01*
X0058826Y0199600D01*
X0059298Y0199600D02*
X0059799Y0200101D01*
X0060049Y0200101D01*
X0059298Y0200101D02*
X0059298Y0199100D01*
X0045271Y0162851D02*
X0045271Y0162601D01*
X0045271Y0162101D02*
X0045271Y0161100D01*
X0045021Y0161100D02*
X0045521Y0161100D01*
X0046253Y0161350D02*
X0046504Y0161100D01*
X0046253Y0161350D02*
X0046253Y0162351D01*
X0046003Y0162101D02*
X0046504Y0162101D01*
X0046985Y0161851D02*
X0047236Y0162101D01*
X0047736Y0162101D01*
X0047986Y0161851D01*
X0047986Y0161100D01*
X0046985Y0161100D02*
X0046985Y0162601D01*
X0045271Y0162101D02*
X0045021Y0162101D01*
X0044549Y0162101D02*
X0044549Y0161350D01*
X0044298Y0161100D01*
X0044048Y0161350D01*
X0043798Y0161100D01*
X0043548Y0161350D01*
X0043548Y0162101D01*
X0041602Y0162101D02*
X0040851Y0162101D01*
X0040601Y0161851D01*
X0040851Y0161600D01*
X0041352Y0161600D01*
X0041602Y0161350D01*
X0041352Y0161100D01*
X0040601Y0161100D01*
X0040120Y0161100D02*
X0039619Y0161100D01*
X0039869Y0161100D02*
X0039869Y0162601D01*
X0039619Y0162601D01*
X0038887Y0162601D02*
X0038887Y0161100D01*
X0038637Y0161100D02*
X0039137Y0161100D01*
X0038155Y0161100D02*
X0037655Y0161100D01*
X0037905Y0161100D02*
X0037905Y0162101D01*
X0037655Y0162101D01*
X0037178Y0162101D02*
X0036927Y0162101D01*
X0036427Y0161600D01*
X0036427Y0161100D02*
X0036427Y0162101D01*
X0035955Y0162101D02*
X0035204Y0162101D01*
X0034954Y0161851D01*
X0034954Y0161350D01*
X0035204Y0161100D01*
X0035955Y0161100D01*
X0035955Y0162601D01*
X0037905Y0162601D02*
X0037905Y0162851D01*
X0038637Y0162601D02*
X0038887Y0162601D01*
X0032999Y0162101D02*
X0032498Y0162101D01*
X0032749Y0162351D02*
X0032749Y0161350D01*
X0032999Y0161100D01*
X0032026Y0161350D02*
X0032026Y0161851D01*
X0031776Y0162101D01*
X0031275Y0162101D01*
X0031025Y0161851D01*
X0031025Y0161350D01*
X0031275Y0161100D01*
X0031776Y0161100D01*
X0032026Y0161350D01*
X0030543Y0161100D02*
X0030043Y0161100D01*
X0030293Y0161100D02*
X0030293Y0162601D01*
X0030043Y0162601D01*
X0029571Y0162351D02*
X0029320Y0162601D01*
X0028820Y0162601D01*
X0028570Y0162351D01*
X0028570Y0162101D01*
X0028820Y0161851D01*
X0029320Y0161851D01*
X0029571Y0161600D01*
X0029571Y0161350D01*
X0029320Y0161100D01*
X0028820Y0161100D01*
X0028570Y0161350D01*
X0049932Y0161350D02*
X0050182Y0161100D01*
X0050933Y0161100D01*
X0051405Y0161350D02*
X0051655Y0161100D01*
X0052156Y0161100D01*
X0052406Y0161350D01*
X0052406Y0161851D01*
X0052156Y0162101D01*
X0051655Y0162101D01*
X0051405Y0161851D01*
X0051405Y0161350D01*
X0050933Y0162101D02*
X0050182Y0162101D01*
X0049932Y0161851D01*
X0049932Y0161350D01*
X0052878Y0161100D02*
X0053629Y0161100D01*
X0053879Y0161350D01*
X0053879Y0161851D01*
X0053629Y0162101D01*
X0052878Y0162101D01*
X0052878Y0160599D01*
X0054352Y0160599D02*
X0054352Y0162101D01*
X0055102Y0162101D01*
X0055352Y0161851D01*
X0055352Y0161350D01*
X0055102Y0161100D01*
X0054352Y0161100D01*
X0055825Y0161350D02*
X0055825Y0161851D01*
X0056075Y0162101D01*
X0056576Y0162101D01*
X0056826Y0161851D01*
X0056826Y0161600D01*
X0055825Y0161600D01*
X0055825Y0161350D02*
X0056075Y0161100D01*
X0056576Y0161100D01*
X0057298Y0161100D02*
X0057298Y0162101D01*
X0057799Y0162101D02*
X0058049Y0162101D01*
X0057799Y0162101D02*
X0057298Y0161600D01*
D12*
X0031620Y0190400D03*
D13*
X0031720Y0184500D03*
D14*
X0033220Y0190350D03*
D15*
X0055370Y0189000D03*
D16*
X0055370Y0195900D03*
D17*
X0053520Y0193500D03*
D18*
X0053370Y0192200D03*
D19*
X0053370Y0185300D03*
D20*
X0043520Y0170150D03*
M02*
