G75*
%MOIN*%
%OFA0B0*%
%FSLAX25Y25*%
%IPPOS*%
%LPD*%
%AMOC8*
5,1,8,0,0,1.08239X$1,22.5*
%
%ADD10C,0.00000*%
%ADD11C,0.06000*%
%ADD12OC8,0.04800*%
%ADD13C,0.06600*%
%ADD14C,0.07400*%
%ADD15C,0.08600*%
%ADD16C,0.04800*%
%ADD17R,0.05906X0.05906*%
%ADD18OC8,0.06800*%
%ADD19C,0.05600*%
%ADD20C,0.10000*%
%ADD21C,0.03600*%
%ADD22OC8,0.06600*%
%ADD23C,0.03740*%
%ADD24C,0.04331*%
%ADD25R,0.05315X0.01575*%
%ADD26R,0.07480X0.07087*%
%ADD27R,0.07480X0.06201*%
%ADD28C,0.05400*%
%ADD29C,0.01600*%
%ADD30C,0.03000*%
%ADD31C,0.01000*%
%ADD32C,0.02200*%
%ADD33C,0.02400*%
D10*
X0014520Y0010050D02*
X0014520Y0206010D01*
X0014523Y0206252D01*
X0014532Y0206493D01*
X0014546Y0206734D01*
X0014567Y0206975D01*
X0014593Y0207215D01*
X0014625Y0207455D01*
X0014663Y0207694D01*
X0014706Y0207931D01*
X0014756Y0208168D01*
X0014811Y0208403D01*
X0014871Y0208637D01*
X0014938Y0208869D01*
X0015009Y0209100D01*
X0015087Y0209329D01*
X0015170Y0209556D01*
X0015258Y0209781D01*
X0015352Y0210004D01*
X0015451Y0210224D01*
X0015556Y0210442D01*
X0015665Y0210657D01*
X0015780Y0210870D01*
X0015900Y0211080D01*
X0016025Y0211286D01*
X0016155Y0211490D01*
X0016290Y0211691D01*
X0016430Y0211888D01*
X0016574Y0212082D01*
X0016723Y0212272D01*
X0016877Y0212458D01*
X0017035Y0212641D01*
X0017197Y0212820D01*
X0017364Y0212995D01*
X0017535Y0213166D01*
X0017710Y0213333D01*
X0017889Y0213495D01*
X0018072Y0213653D01*
X0018258Y0213807D01*
X0018448Y0213956D01*
X0018642Y0214100D01*
X0018839Y0214240D01*
X0019040Y0214375D01*
X0019244Y0214505D01*
X0019450Y0214630D01*
X0019660Y0214750D01*
X0019873Y0214865D01*
X0020088Y0214974D01*
X0020306Y0215079D01*
X0020526Y0215178D01*
X0020749Y0215272D01*
X0020974Y0215360D01*
X0021201Y0215443D01*
X0021430Y0215521D01*
X0021661Y0215592D01*
X0021893Y0215659D01*
X0022127Y0215719D01*
X0022362Y0215774D01*
X0022599Y0215824D01*
X0022836Y0215867D01*
X0023075Y0215905D01*
X0023315Y0215937D01*
X0023555Y0215963D01*
X0023796Y0215984D01*
X0024037Y0215998D01*
X0024278Y0216007D01*
X0024520Y0216010D01*
X0269205Y0216010D01*
X0269205Y0216011D02*
X0269495Y0216007D01*
X0269786Y0215997D01*
X0270075Y0215979D01*
X0270365Y0215955D01*
X0270653Y0215923D01*
X0270941Y0215885D01*
X0271228Y0215839D01*
X0271514Y0215787D01*
X0271798Y0215728D01*
X0272081Y0215662D01*
X0272362Y0215589D01*
X0272641Y0215509D01*
X0272918Y0215423D01*
X0273193Y0215330D01*
X0273466Y0215230D01*
X0273736Y0215124D01*
X0274004Y0215011D01*
X0274269Y0214892D01*
X0274530Y0214766D01*
X0274789Y0214635D01*
X0275045Y0214497D01*
X0275297Y0214352D01*
X0275545Y0214202D01*
X0275790Y0214046D01*
X0276031Y0213884D01*
X0276268Y0213716D01*
X0276501Y0213543D01*
X0276729Y0213364D01*
X0276953Y0213179D01*
X0277173Y0212989D01*
X0277388Y0212794D01*
X0277598Y0212594D01*
X0277804Y0212388D01*
X0278004Y0212178D01*
X0278199Y0211963D01*
X0278389Y0211743D01*
X0278574Y0211519D01*
X0278753Y0211291D01*
X0278926Y0211058D01*
X0279094Y0210821D01*
X0279256Y0210580D01*
X0279412Y0210335D01*
X0279562Y0210087D01*
X0279707Y0209835D01*
X0279845Y0209579D01*
X0279976Y0209320D01*
X0280102Y0209059D01*
X0280221Y0208794D01*
X0280334Y0208526D01*
X0280440Y0208256D01*
X0280540Y0207983D01*
X0280633Y0207708D01*
X0280719Y0207431D01*
X0280799Y0207152D01*
X0280872Y0206871D01*
X0280938Y0206588D01*
X0280997Y0206304D01*
X0281049Y0206018D01*
X0281095Y0205731D01*
X0281133Y0205443D01*
X0281165Y0205155D01*
X0281189Y0204865D01*
X0281207Y0204576D01*
X0281217Y0204285D01*
X0281221Y0203995D01*
X0281220Y0203995D02*
X0281220Y0011050D01*
X0281229Y0010820D01*
X0281233Y0010590D01*
X0281231Y0010361D01*
X0281224Y0010131D01*
X0281211Y0009901D01*
X0281192Y0009672D01*
X0281168Y0009443D01*
X0281139Y0009216D01*
X0281104Y0008988D01*
X0281063Y0008762D01*
X0281018Y0008537D01*
X0280966Y0008313D01*
X0280909Y0008090D01*
X0280847Y0007869D01*
X0280780Y0007649D01*
X0280707Y0007431D01*
X0280629Y0007214D01*
X0280546Y0007000D01*
X0280458Y0006788D01*
X0280364Y0006578D01*
X0280266Y0006370D01*
X0280162Y0006165D01*
X0280054Y0005962D01*
X0279940Y0005762D01*
X0279822Y0005565D01*
X0279699Y0005371D01*
X0279572Y0005179D01*
X0279440Y0004991D01*
X0279303Y0004806D01*
X0279162Y0004625D01*
X0279017Y0004447D01*
X0278867Y0004272D01*
X0278714Y0004101D01*
X0278556Y0003934D01*
X0278394Y0003771D01*
X0278228Y0003612D01*
X0278058Y0003456D01*
X0277885Y0003305D01*
X0277708Y0003158D01*
X0277528Y0003016D01*
X0277344Y0002878D01*
X0277157Y0002744D01*
X0276967Y0002615D01*
X0276774Y0002490D01*
X0276578Y0002371D01*
X0276378Y0002256D01*
X0276177Y0002146D01*
X0275972Y0002040D01*
X0275765Y0001940D01*
X0275556Y0001845D01*
X0275345Y0001755D01*
X0275131Y0001670D01*
X0274916Y0001590D01*
X0274698Y0001515D01*
X0274479Y0001446D01*
X0274258Y0001382D01*
X0274036Y0001323D01*
X0273812Y0001270D01*
X0273587Y0001222D01*
X0273361Y0001180D01*
X0273135Y0001143D01*
X0272907Y0001111D01*
X0272678Y0001085D01*
X0272449Y0001065D01*
X0272220Y0001050D01*
X0025520Y0001050D01*
X0025278Y0001029D01*
X0025036Y0001013D01*
X0024793Y0001004D01*
X0024550Y0001000D01*
X0024307Y0001002D01*
X0024065Y0001010D01*
X0023822Y0001024D01*
X0023580Y0001044D01*
X0023339Y0001070D01*
X0023098Y0001101D01*
X0022858Y0001138D01*
X0022619Y0001181D01*
X0022381Y0001230D01*
X0022144Y0001285D01*
X0021909Y0001345D01*
X0021675Y0001411D01*
X0021443Y0001483D01*
X0021213Y0001560D01*
X0020984Y0001642D01*
X0020758Y0001731D01*
X0020534Y0001824D01*
X0020312Y0001923D01*
X0020093Y0002028D01*
X0019876Y0002137D01*
X0019662Y0002252D01*
X0019451Y0002372D01*
X0019243Y0002497D01*
X0019038Y0002627D01*
X0018836Y0002762D01*
X0018637Y0002902D01*
X0018442Y0003046D01*
X0018250Y0003195D01*
X0018062Y0003349D01*
X0017878Y0003507D01*
X0017698Y0003670D01*
X0017522Y0003837D01*
X0017349Y0004008D01*
X0017181Y0004184D01*
X0017018Y0004363D01*
X0016858Y0004546D01*
X0016703Y0004733D01*
X0016553Y0004924D01*
X0016407Y0005118D01*
X0016266Y0005316D01*
X0016130Y0005517D01*
X0015999Y0005722D01*
X0015873Y0005929D01*
X0015751Y0006140D01*
X0015635Y0006353D01*
X0015524Y0006569D01*
X0015419Y0006788D01*
X0015318Y0007009D01*
X0015223Y0007232D01*
X0015134Y0007458D01*
X0015050Y0007686D01*
X0014971Y0007916D01*
X0014898Y0008147D01*
X0014831Y0008381D01*
X0014769Y0008616D01*
X0014713Y0008852D01*
X0014663Y0009090D01*
X0014619Y0009328D01*
X0014580Y0009568D01*
X0014547Y0009809D01*
X0014520Y0010050D01*
D11*
X0092520Y0012050D02*
X0092520Y0018050D01*
X0102520Y0018050D02*
X0102520Y0012050D01*
X0112520Y0012050D02*
X0112520Y0018050D01*
X0122520Y0018050D02*
X0122520Y0012050D01*
X0132520Y0012050D02*
X0132520Y0018050D01*
X0142520Y0018050D02*
X0142520Y0012050D01*
X0152520Y0012050D02*
X0152520Y0018050D01*
X0162520Y0018050D02*
X0162520Y0012050D01*
X0179520Y0012050D02*
X0179520Y0018050D01*
X0189520Y0018050D02*
X0189520Y0012050D01*
X0199520Y0012050D02*
X0199520Y0018050D01*
X0209520Y0018050D02*
X0209520Y0012050D01*
X0219520Y0012050D02*
X0219520Y0018050D01*
X0229520Y0018050D02*
X0229520Y0012050D01*
X0239520Y0012050D02*
X0239520Y0018050D01*
X0249520Y0018050D02*
X0249520Y0012050D01*
X0262520Y0025050D02*
X0268520Y0025050D01*
X0268520Y0035050D02*
X0262520Y0035050D01*
X0262520Y0045050D02*
X0268520Y0045050D01*
X0268520Y0055050D02*
X0262520Y0055050D01*
X0262520Y0065050D02*
X0268520Y0065050D01*
X0268520Y0075050D02*
X0262520Y0075050D01*
X0262520Y0085050D02*
X0268520Y0085050D01*
X0268520Y0095050D02*
X0262520Y0095050D01*
X0262520Y0163050D02*
X0268520Y0163050D01*
X0268520Y0173050D02*
X0262520Y0173050D01*
X0262520Y0183050D02*
X0268520Y0183050D01*
X0268520Y0193050D02*
X0262520Y0193050D01*
X0262520Y0203050D02*
X0268520Y0203050D01*
X0083520Y0154050D02*
X0077520Y0154050D01*
X0077520Y0144050D02*
X0083520Y0144050D01*
X0083520Y0134050D02*
X0077520Y0134050D01*
D12*
X0098520Y0129050D03*
X0095520Y0108050D03*
X0084520Y0108050D03*
X0064520Y0108050D03*
X0106520Y0091050D03*
X0106520Y0076050D03*
X0106520Y0062050D03*
X0106520Y0048050D03*
X0106520Y0031050D03*
X0146520Y0048050D03*
X0146520Y0062050D03*
X0146520Y0076050D03*
X0146520Y0091050D03*
X0146520Y0108050D03*
X0157520Y0108050D03*
X0177520Y0108050D03*
X0126520Y0108050D03*
X0115520Y0108050D03*
X0098520Y0159050D03*
X0086520Y0178050D03*
X0066520Y0178050D03*
X0182520Y0167050D03*
X0197520Y0201050D03*
X0182520Y0207050D03*
X0217520Y0201050D03*
X0228520Y0201050D03*
X0248520Y0201050D03*
X0205520Y0062050D03*
X0185520Y0062050D03*
X0156520Y0031050D03*
D13*
X0169520Y0173050D03*
X0169520Y0188050D03*
X0169520Y0203050D03*
X0129520Y0203050D03*
X0129520Y0188050D03*
X0129520Y0173050D03*
D14*
X0054520Y0154050D03*
X0054520Y0134050D03*
X0044520Y0098050D03*
X0034520Y0098050D03*
X0034520Y0088050D03*
X0044520Y0088050D03*
X0044520Y0078050D03*
X0034520Y0078050D03*
X0034520Y0068050D03*
X0044520Y0068050D03*
X0044520Y0058050D03*
X0034520Y0058050D03*
X0030520Y0024050D03*
X0040520Y0024050D03*
X0050520Y0024050D03*
X0050520Y0014050D03*
X0040520Y0014050D03*
X0030520Y0014050D03*
D15*
X0039220Y0170152D02*
X0047820Y0170152D01*
X0055331Y0184750D02*
X0055331Y0193350D01*
X0031709Y0193350D02*
X0031709Y0184750D01*
D16*
X0188520Y0109450D02*
X0188520Y0104650D01*
X0198520Y0104650D02*
X0198520Y0109450D01*
X0208520Y0109450D02*
X0208520Y0104650D01*
X0218520Y0104650D02*
X0218520Y0109450D01*
X0228520Y0109450D02*
X0228520Y0104650D01*
X0238520Y0104650D02*
X0238520Y0109450D01*
X0248520Y0109450D02*
X0248520Y0104650D01*
X0248520Y0079450D02*
X0248520Y0074650D01*
X0238520Y0074650D02*
X0238520Y0079450D01*
X0228520Y0079450D02*
X0228520Y0074650D01*
X0218520Y0074650D02*
X0218520Y0079450D01*
X0208520Y0079450D02*
X0208520Y0074650D01*
X0198520Y0074650D02*
X0198520Y0079450D01*
X0188520Y0079450D02*
X0188520Y0074650D01*
D17*
X0086409Y0060050D03*
X0072630Y0060050D03*
X0072630Y0045050D03*
X0086409Y0045050D03*
X0086409Y0031050D03*
X0072630Y0031050D03*
X0066630Y0203050D03*
X0080409Y0203050D03*
D18*
X0218520Y0062050D03*
X0228520Y0062050D03*
X0238520Y0062050D03*
X0248520Y0062050D03*
X0248520Y0032050D03*
X0238520Y0032050D03*
X0228520Y0032050D03*
X0218520Y0032050D03*
D19*
X0218520Y0122250D02*
X0218520Y0127850D01*
X0228520Y0127850D02*
X0228520Y0122250D01*
X0238520Y0122250D02*
X0238520Y0127850D01*
X0248520Y0127850D02*
X0248520Y0122250D01*
X0248520Y0152250D02*
X0248520Y0157850D01*
X0238520Y0157850D02*
X0238520Y0152250D01*
X0228520Y0152250D02*
X0228520Y0157850D01*
X0218520Y0157850D02*
X0218520Y0152250D01*
X0208520Y0152250D02*
X0208520Y0157850D01*
X0198520Y0157850D02*
X0198520Y0152250D01*
X0188520Y0152250D02*
X0188520Y0157850D01*
X0178520Y0157850D02*
X0178520Y0152250D01*
X0168520Y0152250D02*
X0168520Y0157850D01*
X0158520Y0157850D02*
X0158520Y0152250D01*
X0148520Y0152250D02*
X0148520Y0157850D01*
X0138520Y0157850D02*
X0138520Y0152250D01*
X0128520Y0152250D02*
X0128520Y0157850D01*
X0118520Y0157850D02*
X0118520Y0152250D01*
X0118520Y0127850D02*
X0118520Y0122250D01*
X0128520Y0122250D02*
X0128520Y0127850D01*
X0138520Y0127850D02*
X0138520Y0122250D01*
X0148520Y0122250D02*
X0148520Y0127850D01*
X0158520Y0127850D02*
X0158520Y0122250D01*
X0168520Y0122250D02*
X0168520Y0127850D01*
X0178520Y0127850D02*
X0178520Y0122250D01*
X0188520Y0122250D02*
X0188520Y0127850D01*
X0198520Y0127850D02*
X0198520Y0122250D01*
X0208520Y0122250D02*
X0208520Y0127850D01*
D20*
X0118315Y0200050D03*
X0092724Y0200050D03*
D21*
X0211520Y0179850D02*
X0211520Y0176250D01*
X0231520Y0176250D02*
X0231520Y0179850D01*
D22*
X0090520Y0083050D03*
X0080520Y0073050D03*
X0070520Y0083050D03*
D23*
X0024390Y0128613D02*
X0020650Y0128613D01*
X0020650Y0161487D02*
X0024390Y0161487D01*
D24*
X0032165Y0153810D02*
X0036496Y0153810D01*
X0036496Y0136290D02*
X0032165Y0136290D01*
D25*
X0033543Y0139932D03*
X0033543Y0142491D03*
X0033543Y0145050D03*
X0033543Y0147609D03*
X0033543Y0150168D03*
D26*
X0022520Y0149577D03*
X0022520Y0140522D03*
D27*
X0022520Y0131713D03*
X0022520Y0158386D03*
D28*
X0066520Y0017750D02*
X0066520Y0012350D01*
X0076520Y0012350D02*
X0076520Y0017750D01*
D29*
X0082020Y0016050D02*
X0082020Y0011050D01*
X0078520Y0007550D01*
X0074020Y0007550D01*
X0066520Y0015050D01*
X0050520Y0024050D02*
X0050520Y0028050D01*
X0044520Y0034050D01*
X0044520Y0039050D01*
X0044520Y0058050D02*
X0044520Y0068050D01*
X0059520Y0058550D02*
X0071020Y0058550D01*
X0072020Y0059550D01*
X0072630Y0060050D01*
X0072520Y0060050D01*
X0072520Y0074550D01*
X0070520Y0083050D02*
X0064520Y0089050D01*
X0064520Y0103550D01*
X0086520Y0103550D01*
X0091020Y0108050D01*
X0095520Y0108050D01*
X0100020Y0103550D01*
X0117520Y0103550D01*
X0122020Y0108050D01*
X0126520Y0108050D01*
X0146520Y0108050D02*
X0146520Y0107050D01*
X0151020Y0102550D01*
X0151020Y0089050D01*
X0148520Y0086550D01*
X0135520Y0086550D01*
X0125020Y0076050D01*
X0106520Y0076050D01*
X0064520Y0103550D02*
X0064520Y0108050D01*
X0085520Y0129050D02*
X0080520Y0134050D01*
X0085520Y0129050D02*
X0098520Y0129050D01*
X0080520Y0144050D02*
X0095520Y0159050D01*
X0098520Y0159050D01*
X0112520Y0173050D01*
X0129520Y0173050D01*
X0164020Y0169550D02*
X0178520Y0155050D01*
X0188520Y0155050D02*
X0188520Y0167550D01*
X0178520Y0177550D01*
X0178520Y0186550D01*
X0164020Y0179050D02*
X0164020Y0169550D01*
X0164020Y0179050D02*
X0132520Y0210550D01*
X0079020Y0210550D01*
X0071520Y0203050D01*
X0076520Y0198050D01*
X0090520Y0198050D01*
X0092520Y0200050D01*
X0092724Y0200050D01*
X0071520Y0203050D02*
X0066630Y0203050D01*
X0054520Y0154050D02*
X0050638Y0150168D01*
X0033543Y0150168D01*
X0042520Y0143050D02*
X0039402Y0139932D01*
X0033543Y0139932D01*
X0172020Y0090550D02*
X0188520Y0107050D01*
X0188520Y0125050D01*
X0178520Y0125050D02*
X0178520Y0129550D01*
X0198520Y0149550D01*
X0198520Y0155050D01*
X0192020Y0161550D01*
X0192020Y0202050D01*
X0217520Y0201050D02*
X0228520Y0201050D01*
X0229020Y0200550D01*
X0242520Y0200550D01*
X0259520Y0183550D01*
X0265020Y0183550D01*
X0265520Y0183050D01*
X0265520Y0173050D01*
X0273520Y0165050D01*
X0273520Y0093050D01*
X0265520Y0085050D01*
X0265520Y0095050D02*
X0265520Y0152050D01*
X0230020Y0187550D01*
X0188520Y0077050D02*
X0185520Y0074050D01*
X0185520Y0062050D01*
X0205520Y0062050D02*
X0211020Y0062050D01*
X0235520Y0037550D01*
X0243020Y0037550D01*
X0248520Y0032050D01*
X0218520Y0062050D02*
X0215020Y0062050D01*
X0208020Y0069050D01*
D30*
X0208020Y0069050D03*
X0172020Y0090550D03*
X0082020Y0016050D03*
X0044520Y0039050D03*
X0059520Y0058550D03*
X0072520Y0074550D03*
X0042520Y0143050D03*
X0148020Y0172550D03*
X0178520Y0186550D03*
X0192020Y0202050D03*
X0230020Y0187550D03*
D31*
X0218020Y0184050D02*
X0239520Y0162550D01*
X0240020Y0162550D01*
X0243020Y0159550D01*
X0243020Y0081550D01*
X0238520Y0077050D01*
X0238520Y0069050D01*
X0243520Y0064050D01*
X0243520Y0051050D01*
X0245520Y0045050D02*
X0265520Y0045050D01*
X0270520Y0040550D02*
X0247020Y0040550D01*
X0228520Y0059050D01*
X0228520Y0062050D01*
X0223520Y0064050D02*
X0223520Y0054050D01*
X0233520Y0057050D02*
X0245520Y0045050D01*
X0255520Y0055050D02*
X0248520Y0062050D01*
X0248520Y0077050D01*
X0248520Y0085550D02*
X0258020Y0076050D01*
X0258020Y0072550D01*
X0265520Y0065050D01*
X0273020Y0067550D02*
X0273020Y0043050D01*
X0270770Y0040800D01*
X0273020Y0038550D01*
X0273020Y0023050D01*
X0253520Y0003550D01*
X0094520Y0003550D01*
X0088020Y0010050D01*
X0088020Y0014550D01*
X0076270Y0026300D01*
X0078520Y0028550D01*
X0078520Y0063550D01*
X0081520Y0067050D02*
X0085520Y0071050D01*
X0085520Y0075050D01*
X0082520Y0078050D01*
X0052020Y0078050D01*
X0052020Y0061550D01*
X0068520Y0045050D01*
X0072630Y0045050D01*
X0072520Y0037050D02*
X0050020Y0059550D01*
X0050020Y0072550D01*
X0044520Y0078050D01*
X0052020Y0078050D02*
X0052020Y0080550D01*
X0044520Y0088050D01*
X0045020Y0088050D01*
X0050020Y0093050D01*
X0050020Y0099550D01*
X0063020Y0112550D01*
X0115020Y0112550D01*
X0127520Y0125050D01*
X0128520Y0125050D01*
X0133020Y0130050D02*
X0127770Y0135300D01*
X0118520Y0126050D01*
X0118520Y0125050D01*
X0118020Y0124550D01*
X0053520Y0124550D01*
X0029020Y0100050D01*
X0029020Y0086050D01*
X0034520Y0080550D01*
X0034520Y0078050D01*
X0027020Y0084050D02*
X0027020Y0101050D01*
X0054520Y0128550D01*
X0065520Y0128550D01*
X0076520Y0139550D01*
X0094020Y0139550D01*
X0122520Y0168050D01*
X0148520Y0168050D01*
X0151520Y0167050D02*
X0151520Y0179550D01*
X0133020Y0198050D01*
X0120520Y0198050D01*
X0118520Y0200050D01*
X0118315Y0200050D01*
X0131520Y0208050D02*
X0153520Y0186050D01*
X0153520Y0110050D01*
X0153020Y0109550D01*
X0153020Y0104050D01*
X0153520Y0103550D01*
X0153520Y0069050D01*
X0146520Y0062050D01*
X0146520Y0048050D02*
X0117520Y0048050D01*
X0100520Y0031050D01*
X0086409Y0031050D01*
X0081520Y0027550D02*
X0081520Y0067050D01*
X0086520Y0062050D02*
X0115520Y0091050D01*
X0146520Y0091050D01*
X0145520Y0103050D02*
X0133020Y0115550D01*
X0133020Y0130050D01*
X0127770Y0135300D02*
X0144020Y0151550D01*
X0144020Y0159550D01*
X0151520Y0167050D01*
X0144520Y0182550D02*
X0085020Y0182550D01*
X0082020Y0179550D01*
X0082020Y0174050D01*
X0024020Y0116050D01*
X0024020Y0023050D01*
X0030520Y0016550D01*
X0030520Y0014050D01*
X0033020Y0014050D01*
X0040520Y0006550D01*
X0053520Y0006550D01*
X0060020Y0013050D01*
X0060020Y0032550D01*
X0034520Y0058050D01*
X0029020Y0056050D02*
X0029020Y0060050D01*
X0034520Y0065550D01*
X0034520Y0068050D01*
X0029020Y0056050D02*
X0042520Y0042550D01*
X0045520Y0042550D01*
X0058020Y0030050D01*
X0058020Y0014050D01*
X0052520Y0008550D01*
X0046020Y0008550D01*
X0040520Y0014050D01*
X0050520Y0014050D02*
X0050520Y0016550D01*
X0056020Y0022050D01*
X0056020Y0027050D01*
X0047520Y0035550D01*
X0040520Y0041550D02*
X0027020Y0055050D01*
X0027020Y0084050D01*
X0040520Y0041550D02*
X0040520Y0024050D01*
X0062020Y0019550D02*
X0062020Y0011050D01*
X0059520Y0008550D01*
X0062020Y0019550D02*
X0065020Y0022550D01*
X0072520Y0022550D01*
X0076270Y0026300D01*
X0081520Y0027550D02*
X0092520Y0016550D01*
X0092520Y0015050D01*
X0102520Y0015050D02*
X0110020Y0007550D01*
X0154520Y0007550D01*
X0155520Y0008550D01*
X0156520Y0008550D01*
X0142520Y0015050D02*
X0142520Y0023050D01*
X0170520Y0051050D01*
X0170520Y0079050D01*
X0193020Y0101550D01*
X0193020Y0110050D01*
X0197020Y0114050D01*
X0206520Y0114050D01*
X0217520Y0125050D01*
X0218520Y0125050D01*
X0223020Y0129550D02*
X0223020Y0116550D01*
X0218020Y0117550D02*
X0228520Y0107050D01*
X0228520Y0085550D01*
X0224020Y0081050D01*
X0224020Y0073050D01*
X0229020Y0068050D01*
X0233520Y0067550D02*
X0228520Y0072550D01*
X0228520Y0077050D01*
X0233020Y0081550D01*
X0233020Y0128550D01*
X0238520Y0134050D01*
X0238520Y0155050D01*
X0248520Y0155050D02*
X0258020Y0145550D01*
X0250020Y0132550D02*
X0246020Y0132550D01*
X0250020Y0132550D02*
X0253020Y0129550D01*
X0253020Y0087550D01*
X0265520Y0075050D01*
X0273020Y0067550D01*
X0265520Y0055050D02*
X0255520Y0055050D01*
X0270520Y0040550D02*
X0270770Y0040800D01*
X0265520Y0025050D02*
X0265520Y0021550D01*
X0249520Y0005550D01*
X0199520Y0005550D01*
X0195020Y0010050D01*
X0195020Y0060550D01*
X0198520Y0064050D01*
X0198520Y0077050D01*
X0203020Y0080050D02*
X0203020Y0065550D01*
X0199520Y0062050D01*
X0199520Y0037050D01*
X0230520Y0037050D01*
X0235520Y0032050D01*
X0238520Y0032050D01*
X0228520Y0032050D02*
X0226520Y0032050D01*
X0209520Y0015050D01*
X0203520Y0008550D02*
X0204520Y0007550D01*
X0232020Y0007550D01*
X0239520Y0015050D01*
X0199520Y0015050D02*
X0199520Y0037050D01*
X0193020Y0041550D02*
X0193020Y0093550D01*
X0198520Y0099050D01*
X0198520Y0107050D01*
X0195520Y0100050D02*
X0181020Y0085550D01*
X0181020Y0032550D01*
X0175020Y0026550D01*
X0175020Y0010050D01*
X0177520Y0007550D01*
X0182020Y0007550D01*
X0189520Y0015050D01*
X0179520Y0015050D02*
X0179520Y0028050D01*
X0193020Y0041550D01*
X0174020Y0029550D02*
X0172520Y0031050D01*
X0156520Y0031050D01*
X0168520Y0052050D02*
X0132520Y0016050D01*
X0132520Y0015050D01*
X0122520Y0015050D02*
X0162020Y0054550D01*
X0162020Y0109550D01*
X0158520Y0113050D01*
X0158520Y0125050D01*
X0168520Y0125050D02*
X0168520Y0052050D01*
X0146520Y0076050D02*
X0128520Y0076050D01*
X0097520Y0045050D01*
X0086409Y0045050D01*
X0072520Y0037050D02*
X0072520Y0031050D01*
X0072630Y0031050D01*
X0086409Y0060050D02*
X0086520Y0060050D01*
X0086520Y0062050D01*
X0173520Y0121050D02*
X0173520Y0130050D01*
X0184020Y0129550D02*
X0184020Y0121550D01*
X0180020Y0117550D01*
X0177020Y0117550D01*
X0173520Y0121050D01*
X0184020Y0129550D02*
X0187020Y0132550D01*
X0190020Y0132550D01*
X0194020Y0128550D01*
X0194020Y0120550D01*
X0197020Y0117550D01*
X0200020Y0117550D01*
X0204020Y0121550D01*
X0204020Y0129550D01*
X0207020Y0132550D01*
X0220020Y0132550D01*
X0223020Y0129550D01*
X0228520Y0135050D02*
X0208520Y0155050D01*
X0204020Y0151550D02*
X0204020Y0170550D01*
X0211520Y0178050D01*
X0211520Y0187050D01*
X0197520Y0201050D01*
X0191520Y0207050D01*
X0182520Y0207050D01*
X0213520Y0170050D02*
X0228520Y0155050D01*
X0218520Y0155050D02*
X0235520Y0138050D01*
X0218020Y0117550D02*
X0216020Y0117550D01*
X0218520Y0107050D02*
X0218520Y0095550D01*
X0203020Y0080050D01*
X0218520Y0077050D02*
X0218520Y0069050D01*
X0223520Y0064050D01*
X0233520Y0067550D02*
X0233520Y0057050D01*
X0248520Y0085550D02*
X0248520Y0107050D01*
X0198520Y0125050D02*
X0198520Y0146050D01*
X0204020Y0151550D01*
X0131520Y0208050D02*
X0091520Y0208050D01*
X0086520Y0203050D01*
X0080409Y0203050D01*
D32*
X0144520Y0182550D03*
X0148520Y0168050D03*
X0173520Y0130050D03*
X0145520Y0103050D03*
X0195520Y0100050D03*
X0216020Y0117550D03*
X0223020Y0116550D03*
X0246020Y0132550D03*
X0235520Y0138050D03*
X0228520Y0135050D03*
X0258020Y0145550D03*
X0213520Y0170050D03*
X0218020Y0184050D03*
X0229020Y0068050D03*
X0223520Y0054050D03*
X0243520Y0051050D03*
X0203520Y0008550D03*
X0174020Y0029550D03*
X0156520Y0008550D03*
X0078520Y0063550D03*
X0047520Y0035550D03*
X0059520Y0008550D03*
X0027020Y0084050D03*
D33*
X0054520Y0134050D02*
X0060020Y0134050D01*
X0079520Y0153550D01*
X0080520Y0154050D01*
X0086520Y0160050D01*
X0086520Y0178050D01*
X0087520Y0178550D01*
X0142020Y0178550D01*
X0148020Y0172550D01*
X0169520Y0173050D02*
X0169520Y0188050D01*
X0175020Y0193550D01*
X0175020Y0206550D01*
X0180520Y0212050D01*
X0244520Y0212050D01*
X0253520Y0203050D01*
X0265520Y0203050D01*
X0129520Y0188050D02*
X0056520Y0188050D01*
X0055520Y0189050D01*
X0055331Y0189050D01*
M02*
