G75*
%MOIN*%
%OFA0B0*%
%FSLAX25Y25*%
%IPPOS*%
%LPD*%
%AMOC8*
5,1,8,0,0,1.08239X$1,22.5*
%
%ADD10C,0.00000*%
%ADD11C,0.06500*%
%ADD12OC8,0.05300*%
%ADD13C,0.07100*%
%ADD14C,0.07900*%
%ADD15C,0.09100*%
%ADD16C,0.05300*%
%ADD17OC8,0.07300*%
%ADD18C,0.06100*%
%ADD19C,0.10500*%
%ADD20C,0.04100*%
%ADD21OC8,0.07100*%
%ADD22C,0.04240*%
%ADD23C,0.04831*%
%ADD24C,0.05900*%
%ADD25C,0.03500*%
%ADD26C,0.02700*%
D10*
X0014520Y0010050D02*
X0014520Y0206010D01*
X0014523Y0206252D01*
X0014532Y0206493D01*
X0014546Y0206734D01*
X0014567Y0206975D01*
X0014593Y0207215D01*
X0014625Y0207455D01*
X0014663Y0207694D01*
X0014706Y0207931D01*
X0014756Y0208168D01*
X0014811Y0208403D01*
X0014871Y0208637D01*
X0014938Y0208869D01*
X0015009Y0209100D01*
X0015087Y0209329D01*
X0015170Y0209556D01*
X0015258Y0209781D01*
X0015352Y0210004D01*
X0015451Y0210224D01*
X0015556Y0210442D01*
X0015665Y0210657D01*
X0015780Y0210870D01*
X0015900Y0211080D01*
X0016025Y0211286D01*
X0016155Y0211490D01*
X0016290Y0211691D01*
X0016430Y0211888D01*
X0016574Y0212082D01*
X0016723Y0212272D01*
X0016877Y0212458D01*
X0017035Y0212641D01*
X0017197Y0212820D01*
X0017364Y0212995D01*
X0017535Y0213166D01*
X0017710Y0213333D01*
X0017889Y0213495D01*
X0018072Y0213653D01*
X0018258Y0213807D01*
X0018448Y0213956D01*
X0018642Y0214100D01*
X0018839Y0214240D01*
X0019040Y0214375D01*
X0019244Y0214505D01*
X0019450Y0214630D01*
X0019660Y0214750D01*
X0019873Y0214865D01*
X0020088Y0214974D01*
X0020306Y0215079D01*
X0020526Y0215178D01*
X0020749Y0215272D01*
X0020974Y0215360D01*
X0021201Y0215443D01*
X0021430Y0215521D01*
X0021661Y0215592D01*
X0021893Y0215659D01*
X0022127Y0215719D01*
X0022362Y0215774D01*
X0022599Y0215824D01*
X0022836Y0215867D01*
X0023075Y0215905D01*
X0023315Y0215937D01*
X0023555Y0215963D01*
X0023796Y0215984D01*
X0024037Y0215998D01*
X0024278Y0216007D01*
X0024520Y0216010D01*
X0269205Y0216010D01*
X0269205Y0216011D02*
X0269495Y0216007D01*
X0269786Y0215997D01*
X0270075Y0215979D01*
X0270365Y0215955D01*
X0270653Y0215923D01*
X0270941Y0215885D01*
X0271228Y0215839D01*
X0271514Y0215787D01*
X0271798Y0215728D01*
X0272081Y0215662D01*
X0272362Y0215589D01*
X0272641Y0215509D01*
X0272918Y0215423D01*
X0273193Y0215330D01*
X0273466Y0215230D01*
X0273736Y0215124D01*
X0274004Y0215011D01*
X0274269Y0214892D01*
X0274530Y0214766D01*
X0274789Y0214635D01*
X0275045Y0214497D01*
X0275297Y0214352D01*
X0275545Y0214202D01*
X0275790Y0214046D01*
X0276031Y0213884D01*
X0276268Y0213716D01*
X0276501Y0213543D01*
X0276729Y0213364D01*
X0276953Y0213179D01*
X0277173Y0212989D01*
X0277388Y0212794D01*
X0277598Y0212594D01*
X0277804Y0212388D01*
X0278004Y0212178D01*
X0278199Y0211963D01*
X0278389Y0211743D01*
X0278574Y0211519D01*
X0278753Y0211291D01*
X0278926Y0211058D01*
X0279094Y0210821D01*
X0279256Y0210580D01*
X0279412Y0210335D01*
X0279562Y0210087D01*
X0279707Y0209835D01*
X0279845Y0209579D01*
X0279976Y0209320D01*
X0280102Y0209059D01*
X0280221Y0208794D01*
X0280334Y0208526D01*
X0280440Y0208256D01*
X0280540Y0207983D01*
X0280633Y0207708D01*
X0280719Y0207431D01*
X0280799Y0207152D01*
X0280872Y0206871D01*
X0280938Y0206588D01*
X0280997Y0206304D01*
X0281049Y0206018D01*
X0281095Y0205731D01*
X0281133Y0205443D01*
X0281165Y0205155D01*
X0281189Y0204865D01*
X0281207Y0204576D01*
X0281217Y0204285D01*
X0281221Y0203995D01*
X0281220Y0203995D02*
X0281220Y0011050D01*
X0281229Y0010820D01*
X0281233Y0010590D01*
X0281231Y0010361D01*
X0281224Y0010131D01*
X0281211Y0009901D01*
X0281192Y0009672D01*
X0281168Y0009443D01*
X0281139Y0009216D01*
X0281104Y0008988D01*
X0281063Y0008762D01*
X0281018Y0008537D01*
X0280966Y0008313D01*
X0280909Y0008090D01*
X0280847Y0007869D01*
X0280780Y0007649D01*
X0280707Y0007431D01*
X0280629Y0007214D01*
X0280546Y0007000D01*
X0280458Y0006788D01*
X0280364Y0006578D01*
X0280266Y0006370D01*
X0280162Y0006165D01*
X0280054Y0005962D01*
X0279940Y0005762D01*
X0279822Y0005565D01*
X0279699Y0005371D01*
X0279572Y0005179D01*
X0279440Y0004991D01*
X0279303Y0004806D01*
X0279162Y0004625D01*
X0279017Y0004447D01*
X0278867Y0004272D01*
X0278714Y0004101D01*
X0278556Y0003934D01*
X0278394Y0003771D01*
X0278228Y0003612D01*
X0278058Y0003456D01*
X0277885Y0003305D01*
X0277708Y0003158D01*
X0277528Y0003016D01*
X0277344Y0002878D01*
X0277157Y0002744D01*
X0276967Y0002615D01*
X0276774Y0002490D01*
X0276578Y0002371D01*
X0276378Y0002256D01*
X0276177Y0002146D01*
X0275972Y0002040D01*
X0275765Y0001940D01*
X0275556Y0001845D01*
X0275345Y0001755D01*
X0275131Y0001670D01*
X0274916Y0001590D01*
X0274698Y0001515D01*
X0274479Y0001446D01*
X0274258Y0001382D01*
X0274036Y0001323D01*
X0273812Y0001270D01*
X0273587Y0001222D01*
X0273361Y0001180D01*
X0273135Y0001143D01*
X0272907Y0001111D01*
X0272678Y0001085D01*
X0272449Y0001065D01*
X0272220Y0001050D01*
X0025520Y0001050D01*
X0025278Y0001029D01*
X0025036Y0001013D01*
X0024793Y0001004D01*
X0024550Y0001000D01*
X0024307Y0001002D01*
X0024065Y0001010D01*
X0023822Y0001024D01*
X0023580Y0001044D01*
X0023339Y0001070D01*
X0023098Y0001101D01*
X0022858Y0001138D01*
X0022619Y0001181D01*
X0022381Y0001230D01*
X0022144Y0001285D01*
X0021909Y0001345D01*
X0021675Y0001411D01*
X0021443Y0001483D01*
X0021213Y0001560D01*
X0020984Y0001642D01*
X0020758Y0001731D01*
X0020534Y0001824D01*
X0020312Y0001923D01*
X0020093Y0002028D01*
X0019876Y0002137D01*
X0019662Y0002252D01*
X0019451Y0002372D01*
X0019243Y0002497D01*
X0019038Y0002627D01*
X0018836Y0002762D01*
X0018637Y0002902D01*
X0018442Y0003046D01*
X0018250Y0003195D01*
X0018062Y0003349D01*
X0017878Y0003507D01*
X0017698Y0003670D01*
X0017522Y0003837D01*
X0017349Y0004008D01*
X0017181Y0004184D01*
X0017018Y0004363D01*
X0016858Y0004546D01*
X0016703Y0004733D01*
X0016553Y0004924D01*
X0016407Y0005118D01*
X0016266Y0005316D01*
X0016130Y0005517D01*
X0015999Y0005722D01*
X0015873Y0005929D01*
X0015751Y0006140D01*
X0015635Y0006353D01*
X0015524Y0006569D01*
X0015419Y0006788D01*
X0015318Y0007009D01*
X0015223Y0007232D01*
X0015134Y0007458D01*
X0015050Y0007686D01*
X0014971Y0007916D01*
X0014898Y0008147D01*
X0014831Y0008381D01*
X0014769Y0008616D01*
X0014713Y0008852D01*
X0014663Y0009090D01*
X0014619Y0009328D01*
X0014580Y0009568D01*
X0014547Y0009809D01*
X0014520Y0010050D01*
D11*
X0092520Y0012050D02*
X0092520Y0018050D01*
X0102520Y0018050D02*
X0102520Y0012050D01*
X0112520Y0012050D02*
X0112520Y0018050D01*
X0122520Y0018050D02*
X0122520Y0012050D01*
X0132520Y0012050D02*
X0132520Y0018050D01*
X0142520Y0018050D02*
X0142520Y0012050D01*
X0152520Y0012050D02*
X0152520Y0018050D01*
X0162520Y0018050D02*
X0162520Y0012050D01*
X0179520Y0012050D02*
X0179520Y0018050D01*
X0189520Y0018050D02*
X0189520Y0012050D01*
X0199520Y0012050D02*
X0199520Y0018050D01*
X0209520Y0018050D02*
X0209520Y0012050D01*
X0219520Y0012050D02*
X0219520Y0018050D01*
X0229520Y0018050D02*
X0229520Y0012050D01*
X0239520Y0012050D02*
X0239520Y0018050D01*
X0249520Y0018050D02*
X0249520Y0012050D01*
X0262520Y0025050D02*
X0268520Y0025050D01*
X0268520Y0035050D02*
X0262520Y0035050D01*
X0262520Y0045050D02*
X0268520Y0045050D01*
X0268520Y0055050D02*
X0262520Y0055050D01*
X0262520Y0065050D02*
X0268520Y0065050D01*
X0268520Y0075050D02*
X0262520Y0075050D01*
X0262520Y0085050D02*
X0268520Y0085050D01*
X0268520Y0095050D02*
X0262520Y0095050D01*
X0262520Y0163050D02*
X0268520Y0163050D01*
X0268520Y0173050D02*
X0262520Y0173050D01*
X0262520Y0183050D02*
X0268520Y0183050D01*
X0268520Y0193050D02*
X0262520Y0193050D01*
X0262520Y0203050D02*
X0268520Y0203050D01*
X0083520Y0154050D02*
X0077520Y0154050D01*
X0077520Y0144050D02*
X0083520Y0144050D01*
X0083520Y0134050D02*
X0077520Y0134050D01*
D12*
X0098520Y0129050D03*
X0095520Y0108050D03*
X0084520Y0108050D03*
X0064520Y0108050D03*
X0106520Y0091050D03*
X0106520Y0076050D03*
X0106520Y0062050D03*
X0106520Y0048050D03*
X0106520Y0031050D03*
X0146520Y0048050D03*
X0146520Y0062050D03*
X0146520Y0076050D03*
X0146520Y0091050D03*
X0146520Y0108050D03*
X0157520Y0108050D03*
X0177520Y0108050D03*
X0126520Y0108050D03*
X0115520Y0108050D03*
X0098520Y0159050D03*
X0086520Y0178050D03*
X0066520Y0178050D03*
X0182520Y0167050D03*
X0197520Y0201050D03*
X0182520Y0207050D03*
X0217520Y0201050D03*
X0228520Y0201050D03*
X0248520Y0201050D03*
X0205520Y0062050D03*
X0185520Y0062050D03*
X0156520Y0031050D03*
D13*
X0169520Y0173050D03*
X0169520Y0188050D03*
X0169520Y0203050D03*
X0129520Y0203050D03*
X0129520Y0188050D03*
X0129520Y0173050D03*
D14*
X0054520Y0154050D03*
X0054520Y0134050D03*
X0044520Y0098050D03*
X0034520Y0098050D03*
X0034520Y0088050D03*
X0044520Y0088050D03*
X0044520Y0078050D03*
X0034520Y0078050D03*
X0034520Y0068050D03*
X0044520Y0068050D03*
X0044520Y0058050D03*
X0034520Y0058050D03*
X0030520Y0024050D03*
X0040520Y0024050D03*
X0050520Y0024050D03*
X0050520Y0014050D03*
X0040520Y0014050D03*
X0030520Y0014050D03*
D15*
X0039220Y0170152D02*
X0047820Y0170152D01*
X0055331Y0184750D02*
X0055331Y0193350D01*
X0031709Y0193350D02*
X0031709Y0184750D01*
D16*
X0188520Y0109450D02*
X0188520Y0104650D01*
X0198520Y0104650D02*
X0198520Y0109450D01*
X0208520Y0109450D02*
X0208520Y0104650D01*
X0218520Y0104650D02*
X0218520Y0109450D01*
X0228520Y0109450D02*
X0228520Y0104650D01*
X0238520Y0104650D02*
X0238520Y0109450D01*
X0248520Y0109450D02*
X0248520Y0104650D01*
X0248520Y0079450D02*
X0248520Y0074650D01*
X0238520Y0074650D02*
X0238520Y0079450D01*
X0228520Y0079450D02*
X0228520Y0074650D01*
X0218520Y0074650D02*
X0218520Y0079450D01*
X0208520Y0079450D02*
X0208520Y0074650D01*
X0198520Y0074650D02*
X0198520Y0079450D01*
X0188520Y0079450D02*
X0188520Y0074650D01*
D17*
X0218520Y0062050D03*
X0228520Y0062050D03*
X0238520Y0062050D03*
X0248520Y0062050D03*
X0248520Y0032050D03*
X0238520Y0032050D03*
X0228520Y0032050D03*
X0218520Y0032050D03*
D18*
X0218520Y0122250D02*
X0218520Y0127850D01*
X0228520Y0127850D02*
X0228520Y0122250D01*
X0238520Y0122250D02*
X0238520Y0127850D01*
X0248520Y0127850D02*
X0248520Y0122250D01*
X0248520Y0152250D02*
X0248520Y0157850D01*
X0238520Y0157850D02*
X0238520Y0152250D01*
X0228520Y0152250D02*
X0228520Y0157850D01*
X0218520Y0157850D02*
X0218520Y0152250D01*
X0208520Y0152250D02*
X0208520Y0157850D01*
X0198520Y0157850D02*
X0198520Y0152250D01*
X0188520Y0152250D02*
X0188520Y0157850D01*
X0178520Y0157850D02*
X0178520Y0152250D01*
X0168520Y0152250D02*
X0168520Y0157850D01*
X0158520Y0157850D02*
X0158520Y0152250D01*
X0148520Y0152250D02*
X0148520Y0157850D01*
X0138520Y0157850D02*
X0138520Y0152250D01*
X0128520Y0152250D02*
X0128520Y0157850D01*
X0118520Y0157850D02*
X0118520Y0152250D01*
X0118520Y0127850D02*
X0118520Y0122250D01*
X0128520Y0122250D02*
X0128520Y0127850D01*
X0138520Y0127850D02*
X0138520Y0122250D01*
X0148520Y0122250D02*
X0148520Y0127850D01*
X0158520Y0127850D02*
X0158520Y0122250D01*
X0168520Y0122250D02*
X0168520Y0127850D01*
X0178520Y0127850D02*
X0178520Y0122250D01*
X0188520Y0122250D02*
X0188520Y0127850D01*
X0198520Y0127850D02*
X0198520Y0122250D01*
X0208520Y0122250D02*
X0208520Y0127850D01*
D19*
X0118315Y0200050D03*
X0092724Y0200050D03*
D20*
X0211520Y0179850D02*
X0211520Y0176250D01*
X0231520Y0176250D02*
X0231520Y0179850D01*
D21*
X0090520Y0083050D03*
X0080520Y0073050D03*
X0070520Y0083050D03*
D22*
X0024390Y0128613D02*
X0020650Y0128613D01*
X0020650Y0161487D02*
X0024390Y0161487D01*
D23*
X0032165Y0153810D02*
X0036496Y0153810D01*
X0036496Y0136290D02*
X0032165Y0136290D01*
D24*
X0066520Y0017750D02*
X0066520Y0012350D01*
X0076520Y0012350D02*
X0076520Y0017750D01*
D25*
X0082020Y0016050D03*
X0044520Y0039050D03*
X0059520Y0058550D03*
X0072520Y0074550D03*
X0042520Y0143050D03*
X0148020Y0172550D03*
X0178520Y0186550D03*
X0192020Y0202050D03*
X0230020Y0187550D03*
X0172020Y0090550D03*
X0208020Y0069050D03*
D26*
X0229020Y0068050D03*
X0223520Y0054050D03*
X0243520Y0051050D03*
X0203520Y0008550D03*
X0174020Y0029550D03*
X0156520Y0008550D03*
X0078520Y0063550D03*
X0047520Y0035550D03*
X0059520Y0008550D03*
X0027020Y0084050D03*
X0145520Y0103050D03*
X0173520Y0130050D03*
X0195520Y0100050D03*
X0216020Y0117550D03*
X0223020Y0116550D03*
X0246020Y0132550D03*
X0235520Y0138050D03*
X0228520Y0135050D03*
X0258020Y0145550D03*
X0213520Y0170050D03*
X0218020Y0184050D03*
X0148520Y0168050D03*
X0144520Y0182550D03*
M02*
