G75*
%MOIN*%
%OFA0B0*%
%FSLAX25Y25*%
%IPPOS*%
%LPD*%
%AMOC8*
5,1,8,0,0,1.08239X$1,22.5*
%
%ADD10C,0.00000*%
%ADD11R,0.03000X0.09100*%
%ADD12R,0.03200X0.02700*%
%ADD13R,0.00200X0.09200*%
%ADD14R,0.03900X0.13700*%
%ADD15R,0.03900X0.00100*%
%ADD16R,0.00200X0.04900*%
%ADD17R,0.00100X0.07500*%
%ADD18R,0.00100X0.06300*%
%ADD19R,0.11800X0.03200*%
%ADD20C,0.00500*%
%ADD21C,0.00200*%
%ADD22R,0.05115X0.02355*%
%ADD23R,0.03340X0.02750*%
%ADD24R,0.03340X0.02755*%
%ADD25R,0.05110X0.02355*%
D10*
X0014520Y0012000D02*
X0014520Y0207961D01*
X0014523Y0208203D01*
X0014532Y0208444D01*
X0014546Y0208685D01*
X0014567Y0208926D01*
X0014593Y0209166D01*
X0014625Y0209406D01*
X0014663Y0209645D01*
X0014706Y0209882D01*
X0014756Y0210119D01*
X0014811Y0210354D01*
X0014871Y0210588D01*
X0014938Y0210820D01*
X0015009Y0211051D01*
X0015087Y0211280D01*
X0015170Y0211507D01*
X0015258Y0211732D01*
X0015352Y0211955D01*
X0015451Y0212175D01*
X0015556Y0212393D01*
X0015665Y0212608D01*
X0015780Y0212821D01*
X0015900Y0213031D01*
X0016025Y0213237D01*
X0016155Y0213441D01*
X0016290Y0213642D01*
X0016430Y0213839D01*
X0016574Y0214033D01*
X0016723Y0214223D01*
X0016877Y0214409D01*
X0017035Y0214592D01*
X0017197Y0214771D01*
X0017364Y0214946D01*
X0017535Y0215117D01*
X0017710Y0215284D01*
X0017889Y0215446D01*
X0018072Y0215604D01*
X0018258Y0215758D01*
X0018448Y0215907D01*
X0018642Y0216051D01*
X0018839Y0216191D01*
X0019040Y0216326D01*
X0019244Y0216456D01*
X0019450Y0216581D01*
X0019660Y0216701D01*
X0019873Y0216816D01*
X0020088Y0216925D01*
X0020306Y0217030D01*
X0020526Y0217129D01*
X0020749Y0217223D01*
X0020974Y0217311D01*
X0021201Y0217394D01*
X0021430Y0217472D01*
X0021661Y0217543D01*
X0021893Y0217610D01*
X0022127Y0217670D01*
X0022362Y0217725D01*
X0022599Y0217775D01*
X0022836Y0217818D01*
X0023075Y0217856D01*
X0023315Y0217888D01*
X0023555Y0217914D01*
X0023796Y0217935D01*
X0024037Y0217949D01*
X0024278Y0217958D01*
X0024520Y0217961D01*
X0269205Y0217961D01*
X0284220Y0205945D02*
X0284220Y0013000D01*
X0284216Y0012710D01*
X0284206Y0012420D01*
X0284188Y0012131D01*
X0284164Y0011842D01*
X0284133Y0011554D01*
X0284094Y0011266D01*
X0284049Y0010980D01*
X0283996Y0010694D01*
X0283937Y0010411D01*
X0283871Y0010128D01*
X0283799Y0009848D01*
X0283719Y0009569D01*
X0283633Y0009292D01*
X0283540Y0009017D01*
X0283440Y0008745D01*
X0283334Y0008475D01*
X0283222Y0008208D01*
X0283102Y0007943D01*
X0282977Y0007682D01*
X0282845Y0007423D01*
X0282708Y0007168D01*
X0282564Y0006916D01*
X0282414Y0006668D01*
X0282258Y0006424D01*
X0282096Y0006183D01*
X0281928Y0005947D01*
X0281755Y0005714D01*
X0281576Y0005486D01*
X0281392Y0005262D01*
X0281202Y0005043D01*
X0281007Y0004828D01*
X0280807Y0004618D01*
X0280602Y0004413D01*
X0280392Y0004213D01*
X0280177Y0004018D01*
X0279958Y0003828D01*
X0279734Y0003644D01*
X0279506Y0003465D01*
X0279273Y0003292D01*
X0279037Y0003124D01*
X0278796Y0002962D01*
X0278552Y0002806D01*
X0278304Y0002656D01*
X0278052Y0002512D01*
X0277797Y0002375D01*
X0277538Y0002243D01*
X0277277Y0002118D01*
X0277012Y0001998D01*
X0276745Y0001886D01*
X0276475Y0001780D01*
X0276203Y0001680D01*
X0275928Y0001587D01*
X0275651Y0001501D01*
X0275372Y0001421D01*
X0275092Y0001349D01*
X0274809Y0001283D01*
X0274526Y0001224D01*
X0274240Y0001171D01*
X0273954Y0001126D01*
X0273666Y0001087D01*
X0273378Y0001056D01*
X0273089Y0001032D01*
X0272800Y0001014D01*
X0272510Y0001004D01*
X0272220Y0001000D01*
X0025520Y0001000D01*
X0025250Y0001003D01*
X0024980Y0001013D01*
X0024711Y0001030D01*
X0024442Y0001053D01*
X0024173Y0001083D01*
X0023906Y0001119D01*
X0023639Y0001162D01*
X0023374Y0001211D01*
X0023110Y0001267D01*
X0022847Y0001330D01*
X0022586Y0001398D01*
X0022327Y0001474D01*
X0022070Y0001555D01*
X0021814Y0001643D01*
X0021561Y0001737D01*
X0021310Y0001837D01*
X0021062Y0001944D01*
X0020817Y0002056D01*
X0020574Y0002175D01*
X0020335Y0002299D01*
X0020098Y0002429D01*
X0019865Y0002565D01*
X0019635Y0002707D01*
X0019409Y0002854D01*
X0019186Y0003007D01*
X0018967Y0003165D01*
X0018752Y0003328D01*
X0018542Y0003497D01*
X0018335Y0003671D01*
X0018133Y0003850D01*
X0017935Y0004033D01*
X0017742Y0004222D01*
X0017553Y0004415D01*
X0017370Y0004613D01*
X0017191Y0004815D01*
X0017017Y0005022D01*
X0016848Y0005232D01*
X0016685Y0005447D01*
X0016527Y0005666D01*
X0016374Y0005889D01*
X0016227Y0006115D01*
X0016085Y0006345D01*
X0015949Y0006578D01*
X0015819Y0006815D01*
X0015695Y0007054D01*
X0015576Y0007297D01*
X0015464Y0007542D01*
X0015357Y0007790D01*
X0015257Y0008041D01*
X0015163Y0008294D01*
X0015075Y0008550D01*
X0014994Y0008807D01*
X0014918Y0009066D01*
X0014850Y0009327D01*
X0014787Y0009590D01*
X0014731Y0009854D01*
X0014682Y0010119D01*
X0014639Y0010386D01*
X0014603Y0010653D01*
X0014573Y0010922D01*
X0014550Y0011191D01*
X0014533Y0011460D01*
X0014523Y0011730D01*
X0014520Y0012000D01*
X0019961Y0129382D02*
X0025079Y0129382D01*
X0025079Y0131744D01*
X0019961Y0131744D01*
X0019961Y0129382D01*
X0032657Y0136862D02*
X0032657Y0139618D01*
X0036004Y0139618D01*
X0036004Y0136862D01*
X0032657Y0136862D01*
X0032657Y0154382D02*
X0032657Y0157138D01*
X0036004Y0157138D01*
X0036004Y0154382D01*
X0032657Y0154382D01*
X0025079Y0162256D02*
X0019961Y0162256D01*
X0019961Y0164618D01*
X0025079Y0164618D01*
X0025079Y0162256D01*
X0037614Y0170528D02*
X0037614Y0173677D01*
X0049425Y0173677D01*
X0049425Y0170528D01*
X0037614Y0170528D01*
X0033283Y0185094D02*
X0030134Y0185094D01*
X0030134Y0196906D01*
X0033283Y0196906D01*
X0033283Y0185094D01*
X0053362Y0184110D02*
X0053362Y0197890D01*
X0057299Y0197890D01*
X0057299Y0184110D01*
X0053362Y0184110D01*
X0269205Y0217961D02*
X0269532Y0217993D01*
X0269860Y0218018D01*
X0270188Y0218034D01*
X0270516Y0218043D01*
X0270845Y0218043D01*
X0271174Y0218036D01*
X0271502Y0218021D01*
X0271830Y0217997D01*
X0272157Y0217966D01*
X0272483Y0217927D01*
X0272808Y0217880D01*
X0273132Y0217826D01*
X0273455Y0217763D01*
X0273776Y0217693D01*
X0274095Y0217615D01*
X0274413Y0217529D01*
X0274728Y0217435D01*
X0275040Y0217334D01*
X0275350Y0217226D01*
X0275658Y0217110D01*
X0275963Y0216987D01*
X0276264Y0216856D01*
X0276562Y0216718D01*
X0276857Y0216573D01*
X0277148Y0216421D01*
X0277436Y0216261D01*
X0277720Y0216095D01*
X0277999Y0215922D01*
X0278274Y0215743D01*
X0278545Y0215557D01*
X0278811Y0215364D01*
X0279073Y0215165D01*
X0279329Y0214960D01*
X0279581Y0214748D01*
X0279827Y0214531D01*
X0280068Y0214307D01*
X0280304Y0214078D01*
X0280534Y0213843D01*
X0280758Y0213603D01*
X0280976Y0213357D01*
X0281189Y0213107D01*
X0281395Y0212851D01*
X0281595Y0212590D01*
X0281789Y0212325D01*
X0281976Y0212054D01*
X0282156Y0211780D01*
X0282330Y0211501D01*
X0282497Y0211218D01*
X0282658Y0210931D01*
X0282811Y0210640D01*
X0282957Y0210346D01*
X0283096Y0210048D01*
X0283228Y0209747D01*
X0283352Y0209443D01*
X0283469Y0209136D01*
X0283579Y0208826D01*
X0283681Y0208514D01*
X0283776Y0208199D01*
X0283862Y0207882D01*
X0283942Y0207563D01*
X0284013Y0207243D01*
X0284077Y0206920D01*
X0284133Y0206596D01*
X0284181Y0206271D01*
X0284221Y0205945D01*
D11*
X0031620Y0192350D03*
D12*
X0031720Y0186450D03*
D13*
X0033220Y0192300D03*
D14*
X0055370Y0190950D03*
D15*
X0055370Y0197850D03*
D16*
X0053520Y0195450D03*
D17*
X0053370Y0194150D03*
D18*
X0053370Y0187250D03*
D19*
X0043520Y0172100D03*
D20*
X0043520Y0176500D02*
X0044520Y0178500D01*
X0042520Y0178500D02*
X0043520Y0176500D01*
X0043520Y0180500D01*
X0043520Y0183500D02*
X0043520Y0191000D01*
X0051020Y0191000D01*
X0049020Y0190000D01*
X0049020Y0192000D02*
X0051020Y0191000D01*
X0043520Y0191000D02*
X0036520Y0191000D01*
X0038520Y0190000D01*
X0038520Y0192000D02*
X0036520Y0191000D01*
X0029020Y0164500D02*
X0027020Y0163500D01*
X0034020Y0163500D01*
X0034020Y0158500D01*
X0035020Y0160000D01*
X0034020Y0158500D02*
X0033020Y0160000D01*
X0029020Y0162500D02*
X0027020Y0163500D01*
D21*
X0026766Y0166100D02*
X0026466Y0166400D01*
X0026466Y0167001D01*
X0026766Y0167301D01*
X0027367Y0167301D01*
X0027667Y0167001D01*
X0027667Y0166701D01*
X0026466Y0166701D01*
X0026766Y0166100D02*
X0027367Y0166100D01*
X0028308Y0166100D02*
X0028308Y0167301D01*
X0028308Y0166701D02*
X0028908Y0167301D01*
X0029208Y0167301D01*
X0029215Y0169100D02*
X0028615Y0169100D01*
X0028915Y0169100D02*
X0028915Y0170902D01*
X0028615Y0170902D01*
X0027687Y0170902D02*
X0027687Y0169100D01*
X0027387Y0169100D02*
X0027987Y0169100D01*
X0026760Y0169100D02*
X0026159Y0169100D01*
X0026459Y0169100D02*
X0026459Y0170301D01*
X0026159Y0170301D01*
X0025525Y0170301D02*
X0025225Y0170301D01*
X0024625Y0169701D01*
X0024625Y0170301D02*
X0024625Y0169100D01*
X0023984Y0169400D02*
X0023984Y0170601D01*
X0023684Y0170902D01*
X0022783Y0170902D01*
X0022783Y0169100D01*
X0023684Y0169100D01*
X0023984Y0169400D01*
X0023684Y0167301D02*
X0022783Y0167301D01*
X0022783Y0165499D01*
X0022783Y0166100D02*
X0023684Y0166100D01*
X0023984Y0166400D01*
X0023984Y0167001D01*
X0023684Y0167301D01*
X0024625Y0167301D02*
X0025525Y0167301D01*
X0025826Y0167001D01*
X0025826Y0166400D01*
X0025525Y0166100D01*
X0024625Y0166100D01*
X0024625Y0165499D02*
X0024625Y0167301D01*
X0022142Y0167001D02*
X0021842Y0167301D01*
X0021242Y0167301D01*
X0020941Y0167001D01*
X0020941Y0166400D01*
X0021242Y0166100D01*
X0021842Y0166100D01*
X0022142Y0166400D01*
X0022142Y0167001D01*
X0020301Y0167301D02*
X0019400Y0167301D01*
X0019100Y0167001D01*
X0019100Y0166400D01*
X0019400Y0166100D01*
X0020301Y0166100D01*
X0020314Y0169100D02*
X0020014Y0169400D01*
X0020014Y0170601D01*
X0019714Y0170301D02*
X0020314Y0170301D01*
X0019073Y0170001D02*
X0019073Y0169400D01*
X0018773Y0169100D01*
X0018172Y0169100D01*
X0017872Y0169400D01*
X0017872Y0170001D01*
X0018172Y0170301D01*
X0018773Y0170301D01*
X0019073Y0170001D01*
X0017245Y0169100D02*
X0016644Y0169100D01*
X0016945Y0169100D02*
X0016945Y0170902D01*
X0016644Y0170902D01*
X0016004Y0170601D02*
X0015704Y0170902D01*
X0015103Y0170902D01*
X0014803Y0170601D01*
X0014803Y0170301D01*
X0015103Y0170001D01*
X0015704Y0170001D01*
X0016004Y0169701D01*
X0016004Y0169400D01*
X0015704Y0169100D01*
X0015103Y0169100D01*
X0014803Y0169400D01*
X0015417Y0167902D02*
X0015417Y0166100D01*
X0014789Y0166100D02*
X0014489Y0166400D01*
X0014489Y0167601D01*
X0014189Y0167301D02*
X0014789Y0167301D01*
X0015417Y0167001D02*
X0015717Y0167301D01*
X0016317Y0167301D01*
X0016618Y0167001D01*
X0016618Y0166100D01*
X0013562Y0166100D02*
X0012961Y0166100D01*
X0013262Y0166100D02*
X0013262Y0167301D01*
X0012961Y0167301D01*
X0012321Y0167301D02*
X0012321Y0166400D01*
X0012020Y0166100D01*
X0011720Y0166400D01*
X0011420Y0166100D01*
X0011120Y0166400D01*
X0011120Y0167301D01*
X0012020Y0169100D02*
X0012020Y0170902D01*
X0011120Y0170001D01*
X0012321Y0170001D01*
X0013262Y0168202D02*
X0013262Y0167902D01*
X0026459Y0170902D02*
X0026459Y0171202D01*
X0027387Y0170902D02*
X0027687Y0170902D01*
X0029842Y0170001D02*
X0030143Y0170301D01*
X0031043Y0170301D01*
X0030743Y0169701D02*
X0030143Y0169701D01*
X0029842Y0170001D01*
X0029842Y0169100D02*
X0030743Y0169100D01*
X0031043Y0169400D01*
X0030743Y0169701D01*
X0030324Y0181100D02*
X0030690Y0181467D01*
X0030690Y0182201D01*
X0030324Y0182568D01*
X0029590Y0182568D01*
X0029223Y0182201D01*
X0029223Y0181467D01*
X0029590Y0181100D01*
X0030324Y0181100D01*
X0031799Y0181467D02*
X0031799Y0182935D01*
X0031432Y0182568D02*
X0032166Y0182568D01*
X0031799Y0181467D02*
X0032166Y0181100D01*
X0035116Y0181100D02*
X0035116Y0183302D01*
X0036217Y0183302D01*
X0036584Y0182935D01*
X0036584Y0181467D01*
X0036217Y0181100D01*
X0035116Y0181100D01*
X0037325Y0181100D02*
X0037325Y0182568D01*
X0037325Y0181834D02*
X0038059Y0182568D01*
X0038426Y0182568D01*
X0039167Y0182568D02*
X0039534Y0182568D01*
X0039534Y0181100D01*
X0039167Y0181100D02*
X0039901Y0181100D01*
X0040640Y0181100D02*
X0041374Y0181100D01*
X0041007Y0181100D02*
X0041007Y0183302D01*
X0040640Y0183302D01*
X0039534Y0183302D02*
X0039534Y0183669D01*
X0042114Y0183302D02*
X0042481Y0183302D01*
X0042481Y0181100D01*
X0042114Y0181100D02*
X0042848Y0181100D01*
X0043587Y0181100D02*
X0044688Y0181100D01*
X0045055Y0181467D01*
X0044688Y0181834D01*
X0043954Y0181834D01*
X0043587Y0182201D01*
X0043954Y0182568D01*
X0045055Y0182568D01*
X0048007Y0182568D02*
X0048007Y0181467D01*
X0048374Y0181100D01*
X0048741Y0181467D01*
X0049107Y0181100D01*
X0049474Y0181467D01*
X0049474Y0182568D01*
X0050216Y0182568D02*
X0050583Y0182568D01*
X0050583Y0181100D01*
X0050216Y0181100D02*
X0050950Y0181100D01*
X0052057Y0181467D02*
X0052057Y0182935D01*
X0051690Y0182568D02*
X0052424Y0182568D01*
X0053163Y0182201D02*
X0053530Y0182568D01*
X0054264Y0182568D01*
X0054631Y0182201D01*
X0054631Y0181100D01*
X0053163Y0181100D02*
X0053163Y0183302D01*
X0052057Y0181467D02*
X0052424Y0181100D01*
X0050583Y0183302D02*
X0050583Y0183669D01*
X0057583Y0182201D02*
X0057583Y0181467D01*
X0057950Y0181100D01*
X0059051Y0181100D01*
X0059793Y0181467D02*
X0060160Y0181100D01*
X0060894Y0181100D01*
X0061260Y0181467D01*
X0061260Y0182201D01*
X0060894Y0182568D01*
X0060160Y0182568D01*
X0059793Y0182201D01*
X0059793Y0181467D01*
X0059051Y0182568D02*
X0057950Y0182568D01*
X0057583Y0182201D01*
X0062002Y0182568D02*
X0062002Y0180366D01*
X0062002Y0181100D02*
X0063103Y0181100D01*
X0063470Y0181467D01*
X0063470Y0182201D01*
X0063103Y0182568D01*
X0062002Y0182568D01*
X0064212Y0182568D02*
X0064212Y0180366D01*
X0064212Y0181100D02*
X0065313Y0181100D01*
X0065680Y0181467D01*
X0065680Y0182201D01*
X0065313Y0182568D01*
X0064212Y0182568D01*
X0066422Y0182201D02*
X0066789Y0182568D01*
X0067523Y0182568D01*
X0067890Y0182201D01*
X0067890Y0181834D01*
X0066422Y0181834D01*
X0066422Y0181467D02*
X0066422Y0182201D01*
X0066422Y0181467D02*
X0066789Y0181100D01*
X0067523Y0181100D01*
X0068632Y0181100D02*
X0068632Y0182568D01*
X0068632Y0181834D02*
X0069366Y0182568D01*
X0069733Y0182568D01*
X0028483Y0181100D02*
X0027749Y0181100D01*
X0028116Y0181100D02*
X0028116Y0183302D01*
X0027749Y0183302D01*
X0027007Y0182935D02*
X0026640Y0183302D01*
X0025906Y0183302D01*
X0025539Y0182935D01*
X0025539Y0182568D01*
X0025906Y0182201D01*
X0026640Y0182201D01*
X0027007Y0181834D01*
X0027007Y0181467D01*
X0026640Y0181100D01*
X0025906Y0181100D01*
X0025539Y0181467D01*
X0022588Y0181467D02*
X0022221Y0181100D01*
X0021487Y0181100D01*
X0021120Y0181467D01*
X0021854Y0182201D02*
X0022221Y0182201D01*
X0022588Y0181834D01*
X0022588Y0181467D01*
X0022221Y0182201D02*
X0022588Y0182568D01*
X0022588Y0182935D01*
X0022221Y0183302D01*
X0021487Y0183302D01*
X0021120Y0182935D01*
D22*
X0022517Y0163438D03*
D23*
X0034330Y0155760D03*
D24*
X0034330Y0138242D03*
D25*
X0022520Y0130562D03*
M02*
