G75*
%MOIN*%
%OFA0B0*%
%FSLAX25Y25*%
%IPPOS*%
%LPD*%
%AMOC8*
5,1,8,0,0,1.08239X$1,22.5*
%
%ADD10C,0.00000*%
%ADD11C,0.06000*%
%ADD12OC8,0.05200*%
%ADD13C,0.06500*%
%ADD14R,0.06500X0.06500*%
%ADD15C,0.06600*%
%ADD16C,0.05200*%
%ADD17C,0.07400*%
%ADD18C,0.08600*%
%ADD19R,0.05906X0.05906*%
%ADD20C,0.05600*%
%ADD21OC8,0.06800*%
%ADD22C,0.10000*%
%ADD23C,0.04400*%
%ADD24C,0.01200*%
%ADD25C,0.01600*%
%ADD26C,0.03600*%
%ADD27C,0.01000*%
D10*
X0013520Y0011000D02*
X0013520Y0208961D01*
X0013535Y0209190D01*
X0013555Y0209419D01*
X0013581Y0209648D01*
X0013613Y0209876D01*
X0013650Y0210102D01*
X0013692Y0210328D01*
X0013740Y0210553D01*
X0013793Y0210777D01*
X0013852Y0210999D01*
X0013916Y0211220D01*
X0013985Y0211439D01*
X0014060Y0211657D01*
X0014140Y0211872D01*
X0014225Y0212086D01*
X0014315Y0212297D01*
X0014410Y0212506D01*
X0014510Y0212713D01*
X0014616Y0212918D01*
X0014726Y0213119D01*
X0014841Y0213319D01*
X0014960Y0213515D01*
X0015085Y0213708D01*
X0015214Y0213898D01*
X0015348Y0214085D01*
X0015486Y0214269D01*
X0015628Y0214449D01*
X0015775Y0214626D01*
X0015926Y0214799D01*
X0016082Y0214969D01*
X0016241Y0215135D01*
X0016404Y0215297D01*
X0016571Y0215455D01*
X0016742Y0215608D01*
X0016917Y0215758D01*
X0017095Y0215903D01*
X0017276Y0216044D01*
X0017461Y0216181D01*
X0017649Y0216313D01*
X0017841Y0216440D01*
X0018035Y0216563D01*
X0018232Y0216681D01*
X0018432Y0216795D01*
X0018635Y0216903D01*
X0018840Y0217007D01*
X0019048Y0217105D01*
X0019258Y0217199D01*
X0019470Y0217287D01*
X0019684Y0217370D01*
X0019901Y0217448D01*
X0020119Y0217521D01*
X0020339Y0217588D01*
X0020560Y0217650D01*
X0020783Y0217707D01*
X0021007Y0217759D01*
X0021232Y0217804D01*
X0021458Y0217845D01*
X0021686Y0217880D01*
X0021913Y0217909D01*
X0022142Y0217933D01*
X0022371Y0217952D01*
X0022601Y0217965D01*
X0022831Y0217972D01*
X0023060Y0217974D01*
X0023290Y0217970D01*
X0023520Y0217961D01*
X0282205Y0217961D01*
X0282423Y0217982D01*
X0282642Y0217998D01*
X0282861Y0218009D01*
X0283080Y0218015D01*
X0283299Y0218016D01*
X0283518Y0218011D01*
X0283737Y0218000D01*
X0283956Y0217985D01*
X0284174Y0217964D01*
X0284392Y0217938D01*
X0284609Y0217907D01*
X0284825Y0217870D01*
X0285040Y0217828D01*
X0285254Y0217782D01*
X0285467Y0217729D01*
X0285679Y0217672D01*
X0285889Y0217610D01*
X0286097Y0217543D01*
X0286304Y0217470D01*
X0286509Y0217393D01*
X0286713Y0217310D01*
X0286914Y0217223D01*
X0287113Y0217131D01*
X0287309Y0217034D01*
X0287504Y0216933D01*
X0287695Y0216827D01*
X0287884Y0216716D01*
X0288071Y0216601D01*
X0288254Y0216481D01*
X0288435Y0216356D01*
X0288613Y0216228D01*
X0288787Y0216095D01*
X0288958Y0215958D01*
X0289126Y0215817D01*
X0289290Y0215672D01*
X0289451Y0215523D01*
X0289608Y0215370D01*
X0289762Y0215214D01*
X0289911Y0215053D01*
X0290057Y0214890D01*
X0290198Y0214722D01*
X0290336Y0214552D01*
X0290469Y0214378D01*
X0290598Y0214200D01*
X0290723Y0214020D01*
X0290844Y0213837D01*
X0290960Y0213651D01*
X0291071Y0213462D01*
X0291178Y0213271D01*
X0291280Y0213077D01*
X0291378Y0212881D01*
X0291470Y0212682D01*
X0291558Y0212481D01*
X0291641Y0212278D01*
X0291719Y0212074D01*
X0291793Y0211867D01*
X0291861Y0211659D01*
X0291924Y0211449D01*
X0291982Y0211237D01*
X0292034Y0211024D01*
X0292082Y0210810D01*
X0292125Y0210595D01*
X0292162Y0210379D01*
X0292194Y0210163D01*
X0292221Y0209945D01*
X0292220Y0209945D02*
X0292220Y0011000D01*
X0292217Y0010758D01*
X0292208Y0010517D01*
X0292194Y0010276D01*
X0292173Y0010035D01*
X0292147Y0009795D01*
X0292115Y0009555D01*
X0292077Y0009316D01*
X0292034Y0009079D01*
X0291984Y0008842D01*
X0291929Y0008607D01*
X0291869Y0008373D01*
X0291802Y0008141D01*
X0291731Y0007910D01*
X0291653Y0007681D01*
X0291570Y0007454D01*
X0291482Y0007229D01*
X0291388Y0007006D01*
X0291289Y0006786D01*
X0291184Y0006568D01*
X0291075Y0006353D01*
X0290960Y0006140D01*
X0290840Y0005930D01*
X0290715Y0005724D01*
X0290585Y0005520D01*
X0290450Y0005319D01*
X0290310Y0005122D01*
X0290166Y0004928D01*
X0290017Y0004738D01*
X0289863Y0004552D01*
X0289705Y0004369D01*
X0289543Y0004190D01*
X0289376Y0004015D01*
X0289205Y0003844D01*
X0289030Y0003677D01*
X0288851Y0003515D01*
X0288668Y0003357D01*
X0288482Y0003203D01*
X0288292Y0003054D01*
X0288098Y0002910D01*
X0287901Y0002770D01*
X0287700Y0002635D01*
X0287496Y0002505D01*
X0287290Y0002380D01*
X0287080Y0002260D01*
X0286867Y0002145D01*
X0286652Y0002036D01*
X0286434Y0001931D01*
X0286214Y0001832D01*
X0285991Y0001738D01*
X0285766Y0001650D01*
X0285539Y0001567D01*
X0285310Y0001489D01*
X0285079Y0001418D01*
X0284847Y0001351D01*
X0284613Y0001291D01*
X0284378Y0001236D01*
X0284141Y0001186D01*
X0283904Y0001143D01*
X0283665Y0001105D01*
X0283425Y0001073D01*
X0283185Y0001047D01*
X0282944Y0001026D01*
X0282703Y0001012D01*
X0282462Y0001003D01*
X0282220Y0001000D01*
X0023520Y0001000D01*
X0023278Y0001003D01*
X0023037Y0001012D01*
X0022796Y0001026D01*
X0022555Y0001047D01*
X0022315Y0001073D01*
X0022075Y0001105D01*
X0021836Y0001143D01*
X0021599Y0001186D01*
X0021362Y0001236D01*
X0021127Y0001291D01*
X0020893Y0001351D01*
X0020661Y0001418D01*
X0020430Y0001489D01*
X0020201Y0001567D01*
X0019974Y0001650D01*
X0019749Y0001738D01*
X0019526Y0001832D01*
X0019306Y0001931D01*
X0019088Y0002036D01*
X0018873Y0002145D01*
X0018660Y0002260D01*
X0018450Y0002380D01*
X0018244Y0002505D01*
X0018040Y0002635D01*
X0017839Y0002770D01*
X0017642Y0002910D01*
X0017448Y0003054D01*
X0017258Y0003203D01*
X0017072Y0003357D01*
X0016889Y0003515D01*
X0016710Y0003677D01*
X0016535Y0003844D01*
X0016364Y0004015D01*
X0016197Y0004190D01*
X0016035Y0004369D01*
X0015877Y0004552D01*
X0015723Y0004738D01*
X0015574Y0004928D01*
X0015430Y0005122D01*
X0015290Y0005319D01*
X0015155Y0005520D01*
X0015025Y0005724D01*
X0014900Y0005930D01*
X0014780Y0006140D01*
X0014665Y0006353D01*
X0014556Y0006568D01*
X0014451Y0006786D01*
X0014352Y0007006D01*
X0014258Y0007229D01*
X0014170Y0007454D01*
X0014087Y0007681D01*
X0014009Y0007910D01*
X0013938Y0008141D01*
X0013871Y0008373D01*
X0013811Y0008607D01*
X0013756Y0008842D01*
X0013706Y0009079D01*
X0013663Y0009316D01*
X0013625Y0009555D01*
X0013593Y0009795D01*
X0013567Y0010035D01*
X0013546Y0010276D01*
X0013532Y0010517D01*
X0013523Y0010758D01*
X0013520Y0011000D01*
X0028020Y0145000D02*
X0028022Y0145161D01*
X0028028Y0145321D01*
X0028038Y0145482D01*
X0028052Y0145642D01*
X0028070Y0145802D01*
X0028091Y0145961D01*
X0028117Y0146120D01*
X0028147Y0146278D01*
X0028180Y0146435D01*
X0028218Y0146592D01*
X0028259Y0146747D01*
X0028304Y0146901D01*
X0028353Y0147054D01*
X0028406Y0147206D01*
X0028462Y0147357D01*
X0028523Y0147506D01*
X0028586Y0147654D01*
X0028654Y0147800D01*
X0028725Y0147944D01*
X0028799Y0148086D01*
X0028877Y0148227D01*
X0028959Y0148365D01*
X0029044Y0148502D01*
X0029132Y0148636D01*
X0029224Y0148768D01*
X0029319Y0148898D01*
X0029417Y0149026D01*
X0029518Y0149151D01*
X0029622Y0149273D01*
X0029729Y0149393D01*
X0029839Y0149510D01*
X0029952Y0149625D01*
X0030068Y0149736D01*
X0030187Y0149845D01*
X0030308Y0149950D01*
X0030432Y0150053D01*
X0030558Y0150153D01*
X0030686Y0150249D01*
X0030817Y0150342D01*
X0030951Y0150432D01*
X0031086Y0150519D01*
X0031224Y0150602D01*
X0031363Y0150682D01*
X0031505Y0150758D01*
X0031648Y0150831D01*
X0031793Y0150900D01*
X0031940Y0150966D01*
X0032088Y0151028D01*
X0032238Y0151086D01*
X0032389Y0151141D01*
X0032542Y0151192D01*
X0032696Y0151239D01*
X0032851Y0151282D01*
X0033007Y0151321D01*
X0033163Y0151357D01*
X0033321Y0151388D01*
X0033479Y0151416D01*
X0033638Y0151440D01*
X0033798Y0151460D01*
X0033958Y0151476D01*
X0034118Y0151488D01*
X0034279Y0151496D01*
X0034440Y0151500D01*
X0034600Y0151500D01*
X0034761Y0151496D01*
X0034922Y0151488D01*
X0035082Y0151476D01*
X0035242Y0151460D01*
X0035402Y0151440D01*
X0035561Y0151416D01*
X0035719Y0151388D01*
X0035877Y0151357D01*
X0036033Y0151321D01*
X0036189Y0151282D01*
X0036344Y0151239D01*
X0036498Y0151192D01*
X0036651Y0151141D01*
X0036802Y0151086D01*
X0036952Y0151028D01*
X0037100Y0150966D01*
X0037247Y0150900D01*
X0037392Y0150831D01*
X0037535Y0150758D01*
X0037677Y0150682D01*
X0037816Y0150602D01*
X0037954Y0150519D01*
X0038089Y0150432D01*
X0038223Y0150342D01*
X0038354Y0150249D01*
X0038482Y0150153D01*
X0038608Y0150053D01*
X0038732Y0149950D01*
X0038853Y0149845D01*
X0038972Y0149736D01*
X0039088Y0149625D01*
X0039201Y0149510D01*
X0039311Y0149393D01*
X0039418Y0149273D01*
X0039522Y0149151D01*
X0039623Y0149026D01*
X0039721Y0148898D01*
X0039816Y0148768D01*
X0039908Y0148636D01*
X0039996Y0148502D01*
X0040081Y0148365D01*
X0040163Y0148227D01*
X0040241Y0148086D01*
X0040315Y0147944D01*
X0040386Y0147800D01*
X0040454Y0147654D01*
X0040517Y0147506D01*
X0040578Y0147357D01*
X0040634Y0147206D01*
X0040687Y0147054D01*
X0040736Y0146901D01*
X0040781Y0146747D01*
X0040822Y0146592D01*
X0040860Y0146435D01*
X0040893Y0146278D01*
X0040923Y0146120D01*
X0040949Y0145961D01*
X0040970Y0145802D01*
X0040988Y0145642D01*
X0041002Y0145482D01*
X0041012Y0145321D01*
X0041018Y0145161D01*
X0041020Y0145000D01*
X0041018Y0144839D01*
X0041012Y0144679D01*
X0041002Y0144518D01*
X0040988Y0144358D01*
X0040970Y0144198D01*
X0040949Y0144039D01*
X0040923Y0143880D01*
X0040893Y0143722D01*
X0040860Y0143565D01*
X0040822Y0143408D01*
X0040781Y0143253D01*
X0040736Y0143099D01*
X0040687Y0142946D01*
X0040634Y0142794D01*
X0040578Y0142643D01*
X0040517Y0142494D01*
X0040454Y0142346D01*
X0040386Y0142200D01*
X0040315Y0142056D01*
X0040241Y0141914D01*
X0040163Y0141773D01*
X0040081Y0141635D01*
X0039996Y0141498D01*
X0039908Y0141364D01*
X0039816Y0141232D01*
X0039721Y0141102D01*
X0039623Y0140974D01*
X0039522Y0140849D01*
X0039418Y0140727D01*
X0039311Y0140607D01*
X0039201Y0140490D01*
X0039088Y0140375D01*
X0038972Y0140264D01*
X0038853Y0140155D01*
X0038732Y0140050D01*
X0038608Y0139947D01*
X0038482Y0139847D01*
X0038354Y0139751D01*
X0038223Y0139658D01*
X0038089Y0139568D01*
X0037954Y0139481D01*
X0037816Y0139398D01*
X0037677Y0139318D01*
X0037535Y0139242D01*
X0037392Y0139169D01*
X0037247Y0139100D01*
X0037100Y0139034D01*
X0036952Y0138972D01*
X0036802Y0138914D01*
X0036651Y0138859D01*
X0036498Y0138808D01*
X0036344Y0138761D01*
X0036189Y0138718D01*
X0036033Y0138679D01*
X0035877Y0138643D01*
X0035719Y0138612D01*
X0035561Y0138584D01*
X0035402Y0138560D01*
X0035242Y0138540D01*
X0035082Y0138524D01*
X0034922Y0138512D01*
X0034761Y0138504D01*
X0034600Y0138500D01*
X0034440Y0138500D01*
X0034279Y0138504D01*
X0034118Y0138512D01*
X0033958Y0138524D01*
X0033798Y0138540D01*
X0033638Y0138560D01*
X0033479Y0138584D01*
X0033321Y0138612D01*
X0033163Y0138643D01*
X0033007Y0138679D01*
X0032851Y0138718D01*
X0032696Y0138761D01*
X0032542Y0138808D01*
X0032389Y0138859D01*
X0032238Y0138914D01*
X0032088Y0138972D01*
X0031940Y0139034D01*
X0031793Y0139100D01*
X0031648Y0139169D01*
X0031505Y0139242D01*
X0031363Y0139318D01*
X0031224Y0139398D01*
X0031086Y0139481D01*
X0030951Y0139568D01*
X0030817Y0139658D01*
X0030686Y0139751D01*
X0030558Y0139847D01*
X0030432Y0139947D01*
X0030308Y0140050D01*
X0030187Y0140155D01*
X0030068Y0140264D01*
X0029952Y0140375D01*
X0029839Y0140490D01*
X0029729Y0140607D01*
X0029622Y0140727D01*
X0029518Y0140849D01*
X0029417Y0140974D01*
X0029319Y0141102D01*
X0029224Y0141232D01*
X0029132Y0141364D01*
X0029044Y0141498D01*
X0028959Y0141635D01*
X0028877Y0141773D01*
X0028799Y0141914D01*
X0028725Y0142056D01*
X0028654Y0142200D01*
X0028586Y0142346D01*
X0028523Y0142494D01*
X0028462Y0142643D01*
X0028406Y0142794D01*
X0028353Y0142946D01*
X0028304Y0143099D01*
X0028259Y0143253D01*
X0028218Y0143408D01*
X0028180Y0143565D01*
X0028147Y0143722D01*
X0028117Y0143880D01*
X0028091Y0144039D01*
X0028070Y0144198D01*
X0028052Y0144358D01*
X0028038Y0144518D01*
X0028028Y0144679D01*
X0028022Y0144839D01*
X0028020Y0145000D01*
D11*
X0090520Y0145000D02*
X0096520Y0145000D01*
X0096520Y0155000D02*
X0090520Y0155000D01*
X0090520Y0135000D02*
X0096520Y0135000D01*
X0100520Y0020000D02*
X0100520Y0014000D01*
X0110520Y0014000D02*
X0110520Y0020000D01*
X0126520Y0020000D02*
X0126520Y0014000D01*
X0136520Y0014000D02*
X0136520Y0020000D01*
X0146520Y0020000D02*
X0146520Y0014000D01*
X0156520Y0014000D02*
X0156520Y0020000D01*
X0166520Y0020000D02*
X0166520Y0014000D01*
X0176520Y0014000D02*
X0176520Y0020000D01*
X0186520Y0020000D02*
X0186520Y0014000D01*
X0196520Y0014000D02*
X0196520Y0020000D01*
X0212520Y0020000D02*
X0212520Y0014000D01*
X0222520Y0014000D02*
X0222520Y0020000D01*
X0232520Y0020000D02*
X0232520Y0014000D01*
X0242520Y0014000D02*
X0242520Y0020000D01*
X0252520Y0020000D02*
X0252520Y0014000D01*
X0262520Y0014000D02*
X0262520Y0020000D01*
X0276520Y0016000D02*
X0282520Y0016000D01*
X0282520Y0026000D02*
X0276520Y0026000D01*
X0276520Y0036000D02*
X0282520Y0036000D01*
X0282520Y0046000D02*
X0276520Y0046000D01*
X0276520Y0056000D02*
X0282520Y0056000D01*
X0282520Y0066000D02*
X0276520Y0066000D01*
X0276520Y0076000D02*
X0282520Y0076000D01*
X0282520Y0086000D02*
X0276520Y0086000D01*
X0276520Y0096000D02*
X0282520Y0096000D01*
X0282520Y0106000D02*
X0276520Y0106000D01*
D12*
X0274520Y0119000D03*
X0284520Y0119000D03*
X0284520Y0181000D03*
X0274520Y0181000D03*
X0263520Y0181000D03*
X0213520Y0181000D03*
X0187520Y0121000D03*
X0167520Y0121000D03*
X0187520Y0106000D03*
X0170520Y0098000D03*
X0187520Y0086000D03*
X0170520Y0082000D03*
X0170520Y0066000D03*
X0170520Y0051000D03*
X0170520Y0036000D03*
X0215520Y0038000D03*
X0215520Y0058000D03*
X0120520Y0051000D03*
X0111520Y0051000D03*
X0111520Y0036000D03*
X0120520Y0036000D03*
X0120520Y0066000D03*
X0120520Y0082000D03*
X0120520Y0098000D03*
X0082520Y0115000D03*
X0062520Y0115000D03*
X0092520Y0172000D03*
X0083520Y0181000D03*
X0063520Y0181000D03*
X0112520Y0172000D03*
X0061520Y0051000D03*
X0061520Y0036000D03*
D13*
X0106520Y0115000D03*
D14*
X0096520Y0115000D03*
D15*
X0092520Y0188000D03*
X0092520Y0204000D03*
X0132520Y0204000D03*
X0146520Y0204000D03*
X0132520Y0188000D03*
X0186520Y0204000D03*
D16*
X0189120Y0187000D02*
X0183920Y0187000D01*
X0149120Y0187000D02*
X0143920Y0187000D01*
X0201520Y0114600D02*
X0201520Y0109400D01*
X0211520Y0109400D02*
X0211520Y0114600D01*
X0221520Y0114600D02*
X0221520Y0109400D01*
X0231520Y0109400D02*
X0231520Y0114600D01*
X0241520Y0114600D02*
X0241520Y0109400D01*
X0251520Y0109400D02*
X0251520Y0114600D01*
X0261520Y0114600D02*
X0261520Y0109400D01*
X0261520Y0084600D02*
X0261520Y0079400D01*
X0251520Y0079400D02*
X0251520Y0084600D01*
X0241520Y0084600D02*
X0241520Y0079400D01*
X0231520Y0079400D02*
X0231520Y0084600D01*
X0221520Y0084600D02*
X0221520Y0079400D01*
X0211520Y0079400D02*
X0211520Y0084600D01*
X0201520Y0084600D02*
X0201520Y0079400D01*
D17*
X0048520Y0025000D03*
X0038520Y0025000D03*
X0028520Y0025000D03*
X0028520Y0015000D03*
X0038520Y0015000D03*
X0048520Y0015000D03*
X0043520Y0061000D03*
X0033520Y0061000D03*
X0033520Y0071000D03*
X0043520Y0071000D03*
X0043520Y0081000D03*
X0033520Y0081000D03*
X0033520Y0091000D03*
X0043520Y0091000D03*
X0043520Y0101000D03*
X0033520Y0101000D03*
D18*
X0039220Y0172102D02*
X0047820Y0172102D01*
X0055331Y0186700D02*
X0055331Y0195300D01*
X0031709Y0195300D02*
X0031709Y0186700D01*
D19*
X0063630Y0205000D03*
X0077409Y0205000D03*
X0079409Y0098000D03*
X0065630Y0098000D03*
X0065630Y0083000D03*
X0079409Y0083000D03*
X0079409Y0069000D03*
X0065630Y0069000D03*
D20*
X0126520Y0133200D02*
X0126520Y0138800D01*
X0136520Y0138800D02*
X0136520Y0133200D01*
X0146520Y0133200D02*
X0146520Y0138800D01*
X0156520Y0138800D02*
X0156520Y0133200D01*
X0166520Y0133200D02*
X0166520Y0138800D01*
X0176520Y0138800D02*
X0176520Y0133200D01*
X0186520Y0133200D02*
X0186520Y0138800D01*
X0196520Y0138800D02*
X0196520Y0133200D01*
X0206520Y0133200D02*
X0206520Y0138800D01*
X0216520Y0138800D02*
X0216520Y0133200D01*
X0226520Y0133200D02*
X0226520Y0138800D01*
X0236520Y0138800D02*
X0236520Y0133200D01*
X0246520Y0133200D02*
X0246520Y0138800D01*
X0256520Y0138800D02*
X0256520Y0133200D01*
X0256520Y0163200D02*
X0256520Y0168800D01*
X0246520Y0168800D02*
X0246520Y0163200D01*
X0236520Y0163200D02*
X0236520Y0168800D01*
X0226520Y0168800D02*
X0226520Y0163200D01*
X0216520Y0163200D02*
X0216520Y0168800D01*
X0206520Y0168800D02*
X0206520Y0163200D01*
X0196520Y0163200D02*
X0196520Y0168800D01*
X0186520Y0168800D02*
X0186520Y0163200D01*
X0176520Y0163200D02*
X0176520Y0168800D01*
X0166520Y0168800D02*
X0166520Y0163200D01*
X0156520Y0163200D02*
X0156520Y0168800D01*
X0146520Y0168800D02*
X0146520Y0163200D01*
X0136520Y0163200D02*
X0136520Y0168800D01*
X0126520Y0168800D02*
X0126520Y0163200D01*
X0207520Y0201200D02*
X0207520Y0206800D01*
X0217520Y0206800D02*
X0217520Y0201200D01*
X0227520Y0201200D02*
X0227520Y0206800D01*
X0237520Y0206800D02*
X0237520Y0201200D01*
X0247520Y0201200D02*
X0247520Y0206800D01*
X0257520Y0206800D02*
X0257520Y0201200D01*
X0267520Y0201200D02*
X0267520Y0206800D01*
X0277520Y0206800D02*
X0277520Y0201200D01*
D21*
X0261520Y0063000D03*
X0251520Y0063000D03*
X0241520Y0063000D03*
X0231520Y0063000D03*
X0231520Y0033000D03*
X0241520Y0033000D03*
X0251520Y0033000D03*
X0261520Y0033000D03*
D22*
X0087315Y0017000D03*
X0061724Y0017000D03*
D23*
X0277320Y0140000D02*
X0281720Y0140000D01*
X0281720Y0160000D02*
X0277320Y0160000D01*
D24*
X0274520Y0181000D02*
X0273520Y0181000D01*
X0273520Y0198500D01*
X0268520Y0203500D01*
X0267520Y0204000D01*
X0267270Y0204750D01*
X0258520Y0204750D01*
X0257520Y0204000D01*
X0273520Y0181000D02*
X0273520Y0122250D01*
X0287270Y0108500D01*
X0287270Y0083500D01*
X0287270Y0013500D01*
X0286020Y0012250D01*
X0286020Y0008500D01*
X0261020Y0008500D01*
X0257270Y0012250D01*
X0257270Y0028500D01*
X0261020Y0032250D01*
X0261520Y0033000D01*
X0279520Y0076000D02*
X0279770Y0076000D01*
X0287270Y0083500D01*
X0274520Y0119000D02*
X0273520Y0119750D01*
X0273520Y0122250D01*
X0201520Y0112000D02*
X0201020Y0112250D01*
X0198520Y0114750D01*
X0198520Y0134750D01*
X0197270Y0136000D01*
X0196520Y0136000D01*
X0196020Y0136000D01*
X0186020Y0146000D01*
X0186020Y0166000D01*
X0186520Y0166000D01*
X0104770Y0159750D02*
X0104770Y0117250D01*
X0106020Y0116000D01*
X0106520Y0115000D01*
X0065630Y0098000D02*
X0064770Y0097250D01*
X0057270Y0089750D01*
X0057270Y0039750D01*
X0061020Y0036000D01*
X0061520Y0036000D01*
X0048520Y0025000D02*
X0048520Y0056000D01*
X0043520Y0061000D01*
X0043520Y0071000D01*
X0064770Y0098500D02*
X0065630Y0098000D01*
X0064770Y0098500D02*
X0063520Y0099750D01*
X0063520Y0114750D01*
X0062520Y0115000D01*
X0063520Y0116000D01*
X0063520Y0181000D01*
X0063520Y0204750D01*
X0063630Y0205000D01*
X0092520Y0172000D02*
X0104770Y0159750D01*
D25*
X0112270Y0153500D02*
X0112270Y0113500D01*
X0091020Y0092250D01*
X0091020Y0132250D01*
X0093520Y0134750D01*
X0093520Y0135000D01*
X0102270Y0147250D02*
X0102270Y0121000D01*
X0097270Y0116000D01*
X0096520Y0115000D01*
X0091020Y0092250D02*
X0091020Y0071000D01*
X0111020Y0051000D01*
X0111520Y0051000D01*
X0112270Y0051000D01*
X0112270Y0036000D01*
X0111520Y0036000D01*
X0267270Y0134750D02*
X0268520Y0133500D01*
X0268520Y0096000D01*
X0278520Y0086000D01*
X0279520Y0086000D01*
X0207270Y0154750D02*
X0197270Y0164750D01*
X0197270Y0166000D01*
X0196520Y0166000D01*
X0138520Y0186000D02*
X0126020Y0173500D01*
X0117270Y0173500D01*
X0117270Y0158500D01*
X0112270Y0153500D01*
X0102270Y0147250D02*
X0093520Y0156000D01*
X0093520Y0155000D01*
X0093520Y0156000D02*
X0087270Y0162250D01*
X0087270Y0177250D01*
X0086020Y0178500D01*
X0086020Y0193500D01*
X0132270Y0193500D01*
X0132270Y0188500D01*
X0132520Y0188000D01*
X0138520Y0186000D02*
X0138520Y0196000D01*
X0146520Y0204000D01*
X0132520Y0204000D02*
X0132270Y0203500D01*
X0132270Y0193500D01*
X0086020Y0178500D02*
X0083520Y0181000D01*
D26*
X0117270Y0152250D03*
X0086020Y0149750D03*
X0084770Y0103500D03*
X0077270Y0089750D03*
X0069770Y0077250D03*
X0077270Y0076000D03*
X0116020Y0062250D03*
X0132270Y0083500D03*
X0136020Y0091000D03*
X0141020Y0094750D03*
X0131020Y0101000D03*
X0152270Y0118500D03*
X0162270Y0128500D03*
X0181020Y0124750D03*
X0211020Y0124750D03*
X0227270Y0118500D03*
X0231020Y0126000D03*
X0246020Y0118500D03*
X0267270Y0134750D03*
X0234770Y0101000D03*
X0249770Y0091000D03*
X0269770Y0086000D03*
X0266020Y0072250D03*
X0234770Y0069750D03*
X0217270Y0049750D03*
X0191020Y0059750D03*
X0194770Y0074750D03*
X0173520Y0076000D03*
X0194770Y0094750D03*
X0207270Y0144750D03*
X0207270Y0154750D03*
X0189770Y0154750D03*
X0178520Y0154750D03*
X0171020Y0154750D03*
X0197270Y0196000D03*
X0231020Y0181000D03*
X0241020Y0184750D03*
X0076020Y0039750D03*
X0091020Y0026000D03*
X0104770Y0036000D03*
X0156020Y0026000D03*
X0162270Y0027250D03*
X0201020Y0008500D03*
X0266020Y0038500D03*
X0027270Y0077250D03*
D27*
X0023520Y0081000D01*
X0023520Y0169750D01*
X0048520Y0194750D01*
X0048520Y0198500D01*
X0062270Y0212250D01*
X0242270Y0212250D01*
X0242270Y0188500D01*
X0239770Y0188500D01*
X0237270Y0186000D01*
X0237270Y0166000D01*
X0236520Y0166000D01*
X0241020Y0162250D02*
X0241020Y0184750D01*
X0242270Y0188500D02*
X0258520Y0188500D01*
X0258520Y0173500D01*
X0263520Y0168500D01*
X0263520Y0118500D01*
X0266020Y0116000D01*
X0266020Y0086000D01*
X0262270Y0082250D01*
X0261520Y0082000D01*
X0262270Y0081000D01*
X0262270Y0063500D01*
X0261520Y0063000D01*
X0256020Y0067250D02*
X0252270Y0063500D01*
X0251520Y0063000D01*
X0256020Y0067250D02*
X0256020Y0086000D01*
X0258520Y0088500D01*
X0258520Y0108500D01*
X0261020Y0111000D01*
X0261520Y0112000D01*
X0251520Y0112000D02*
X0251020Y0111000D01*
X0246020Y0106000D01*
X0246020Y0101000D01*
X0234770Y0101000D01*
X0234770Y0104750D02*
X0227270Y0104750D01*
X0227270Y0069750D01*
X0223520Y0066000D01*
X0223520Y0033500D01*
X0229770Y0027250D01*
X0241020Y0027250D01*
X0241020Y0018500D01*
X0242520Y0017000D01*
X0244770Y0008500D02*
X0252270Y0016000D01*
X0252520Y0017000D01*
X0262520Y0017000D02*
X0263520Y0017250D01*
X0269770Y0023500D01*
X0269770Y0086000D01*
X0256020Y0097250D02*
X0256020Y0136000D01*
X0256520Y0136000D01*
X0246520Y0136000D02*
X0246020Y0136000D01*
X0244770Y0137250D01*
X0244770Y0158500D01*
X0241020Y0162250D01*
X0251020Y0161000D02*
X0256020Y0166000D01*
X0256520Y0166000D01*
X0251020Y0161000D02*
X0251020Y0123500D01*
X0246020Y0118500D01*
X0241520Y0112000D02*
X0241020Y0111000D01*
X0234770Y0104750D01*
X0227270Y0108500D02*
X0224770Y0106000D01*
X0224770Y0084750D01*
X0222270Y0082250D01*
X0221520Y0082000D01*
X0229770Y0079750D02*
X0229770Y0069750D01*
X0234770Y0069750D01*
X0229770Y0069750D02*
X0229770Y0068500D01*
X0226020Y0064750D01*
X0226020Y0038500D01*
X0231520Y0033000D01*
X0241020Y0032250D02*
X0241020Y0027250D01*
X0241020Y0032250D02*
X0241520Y0033000D01*
X0222520Y0017000D02*
X0221020Y0018500D01*
X0221020Y0058500D01*
X0217270Y0062250D01*
X0217270Y0107250D01*
X0221020Y0111000D01*
X0221520Y0112000D01*
X0227270Y0108500D02*
X0227270Y0118500D01*
X0231020Y0112250D02*
X0231520Y0112000D01*
X0231020Y0112250D02*
X0231020Y0126000D01*
X0217270Y0136000D02*
X0216520Y0136000D01*
X0217270Y0136000D02*
X0231020Y0149750D01*
X0231020Y0181000D01*
X0237270Y0193500D02*
X0219770Y0193500D01*
X0208520Y0182250D01*
X0208520Y0167250D01*
X0207270Y0166000D01*
X0206520Y0166000D01*
X0213520Y0163500D02*
X0213520Y0142250D01*
X0211020Y0139750D01*
X0211020Y0124750D01*
X0201020Y0122250D02*
X0211020Y0112250D01*
X0211520Y0112000D01*
X0211020Y0111000D01*
X0207270Y0107250D01*
X0207270Y0022250D01*
X0212520Y0017000D01*
X0204770Y0008500D02*
X0204770Y0069750D01*
X0194770Y0079750D01*
X0194770Y0094750D01*
X0187520Y0086000D02*
X0187270Y0086000D01*
X0182270Y0091000D01*
X0182270Y0116000D01*
X0187270Y0121000D01*
X0187520Y0121000D01*
X0187270Y0121000D02*
X0187270Y0136000D01*
X0186520Y0136000D01*
X0186020Y0136000D01*
X0183520Y0138500D01*
X0183520Y0154750D01*
X0181020Y0157250D01*
X0181020Y0181000D01*
X0186020Y0186000D01*
X0186520Y0187000D01*
X0187270Y0187250D01*
X0187270Y0203500D01*
X0186520Y0204000D01*
X0188520Y0209750D02*
X0071020Y0209750D01*
X0071020Y0094750D01*
X0064770Y0088500D01*
X0061020Y0088500D01*
X0061020Y0058500D01*
X0072270Y0047250D01*
X0072270Y0018500D01*
X0084770Y0006000D01*
X0176020Y0006000D01*
X0176020Y0016000D01*
X0176520Y0017000D01*
X0166520Y0017000D02*
X0166020Y0017250D01*
X0166020Y0053500D01*
X0177270Y0064750D01*
X0177270Y0136000D01*
X0176520Y0136000D01*
X0181020Y0141000D02*
X0181020Y0124750D01*
X0174770Y0119750D02*
X0174770Y0077250D01*
X0173520Y0076000D01*
X0194770Y0074750D02*
X0201020Y0068500D01*
X0201020Y0008500D01*
X0204770Y0008500D02*
X0244770Y0008500D01*
X0266020Y0038500D02*
X0267270Y0039750D01*
X0267270Y0071000D01*
X0266020Y0072250D01*
X0246020Y0067250D02*
X0242270Y0063500D01*
X0241520Y0063000D01*
X0246020Y0067250D02*
X0246020Y0101000D01*
X0256020Y0097250D02*
X0249770Y0091000D01*
X0231520Y0082000D02*
X0231020Y0081000D01*
X0229770Y0079750D01*
X0211520Y0082000D02*
X0211020Y0081000D01*
X0211020Y0056000D01*
X0217270Y0049750D01*
X0196020Y0054750D02*
X0196020Y0017250D01*
X0196520Y0017000D01*
X0171020Y0008500D02*
X0171020Y0029750D01*
X0174770Y0033500D01*
X0174770Y0047250D01*
X0171020Y0051000D01*
X0170520Y0051000D01*
X0191020Y0059750D02*
X0196020Y0054750D01*
X0162270Y0027250D02*
X0162270Y0128500D01*
X0161020Y0129750D01*
X0161020Y0162250D01*
X0157270Y0166000D01*
X0156520Y0166000D01*
X0166520Y0166000D02*
X0167270Y0166000D01*
X0174770Y0158500D01*
X0174770Y0147250D01*
X0181020Y0141000D01*
X0178520Y0154750D02*
X0178520Y0164750D01*
X0177270Y0166000D01*
X0176520Y0166000D01*
X0171020Y0154750D02*
X0171020Y0123500D01*
X0174770Y0119750D01*
X0152270Y0118500D02*
X0152270Y0021000D01*
X0156020Y0017250D01*
X0156520Y0017000D01*
X0156020Y0026000D02*
X0156020Y0136000D01*
X0156520Y0136000D01*
X0146520Y0136000D02*
X0146020Y0136000D01*
X0144770Y0134750D01*
X0144770Y0024750D01*
X0137270Y0017250D01*
X0136520Y0017000D01*
X0136020Y0026000D02*
X0127270Y0017250D01*
X0126520Y0017000D01*
X0126020Y0017250D01*
X0111020Y0017250D01*
X0110520Y0017000D01*
X0091020Y0026000D02*
X0091020Y0057250D01*
X0079770Y0068500D01*
X0079409Y0069000D01*
X0078520Y0069750D01*
X0077270Y0071000D01*
X0077270Y0076000D01*
X0079409Y0083000D02*
X0078520Y0083500D01*
X0077270Y0084750D01*
X0077270Y0089750D01*
X0079409Y0098000D02*
X0079770Y0098500D01*
X0084770Y0103500D01*
X0082520Y0115000D02*
X0082270Y0116000D01*
X0078520Y0119750D01*
X0078520Y0189750D01*
X0092270Y0203500D01*
X0092520Y0204000D01*
X0077409Y0205000D02*
X0077270Y0204750D01*
X0073520Y0201000D01*
X0073520Y0064750D01*
X0079770Y0058500D01*
X0079770Y0014750D01*
X0086020Y0008500D01*
X0171020Y0008500D01*
X0136020Y0026000D02*
X0136020Y0091000D01*
X0136020Y0136000D01*
X0136520Y0136000D01*
X0127270Y0136000D02*
X0126520Y0136000D01*
X0127270Y0136000D02*
X0127270Y0088500D01*
X0127270Y0031000D01*
X0102270Y0031000D01*
X0088520Y0017250D01*
X0087315Y0017000D01*
X0068520Y0009750D02*
X0068520Y0044750D01*
X0062270Y0051000D01*
X0061520Y0051000D01*
X0067270Y0056000D02*
X0076020Y0047250D01*
X0076020Y0039750D01*
X0067270Y0056000D02*
X0067270Y0067250D01*
X0066020Y0068500D01*
X0065630Y0069000D01*
X0069770Y0077250D02*
X0069770Y0078500D01*
X0066020Y0082250D01*
X0065630Y0083000D01*
X0088520Y0063500D02*
X0104770Y0047250D01*
X0104770Y0036000D01*
X0120520Y0036000D02*
X0121020Y0036000D01*
X0121020Y0051000D01*
X0120520Y0051000D01*
X0121020Y0051000D02*
X0121020Y0066000D01*
X0120520Y0066000D01*
X0121020Y0066000D02*
X0121020Y0081000D01*
X0120520Y0082000D01*
X0127270Y0088500D02*
X0132270Y0083500D01*
X0141020Y0094750D02*
X0141020Y0162250D01*
X0137270Y0166000D01*
X0136520Y0166000D01*
X0131020Y0162250D02*
X0131020Y0101000D01*
X0088520Y0116000D02*
X0088520Y0063500D01*
X0116020Y0062250D02*
X0116020Y0151000D01*
X0117270Y0152250D01*
X0131020Y0162250D02*
X0127270Y0166000D01*
X0126520Y0166000D01*
X0086020Y0149750D02*
X0086020Y0118500D01*
X0088520Y0116000D01*
X0054770Y0107250D02*
X0054770Y0022250D01*
X0048520Y0016000D01*
X0048520Y0015000D01*
X0038520Y0025000D02*
X0038520Y0026000D01*
X0032270Y0032250D01*
X0032270Y0054750D01*
X0027270Y0059750D01*
X0027270Y0077250D01*
X0033520Y0081000D02*
X0027270Y0087250D01*
X0027270Y0102250D01*
X0032270Y0107250D01*
X0054770Y0107250D01*
X0028520Y0025000D02*
X0028520Y0024750D01*
X0022270Y0018500D01*
X0022270Y0013500D01*
X0026020Y0009750D01*
X0068520Y0009750D01*
X0201020Y0122250D02*
X0201020Y0143500D01*
X0189770Y0154750D01*
X0191020Y0161000D02*
X0191020Y0182250D01*
X0193520Y0184750D01*
X0193520Y0204750D01*
X0188520Y0209750D01*
X0197270Y0196000D02*
X0219770Y0196000D01*
X0227270Y0203500D01*
X0227520Y0204000D01*
X0237270Y0203500D02*
X0237520Y0204000D01*
X0237270Y0203500D02*
X0237270Y0193500D01*
X0213520Y0181000D02*
X0211020Y0178500D01*
X0211020Y0143500D01*
X0207270Y0139750D01*
X0207270Y0136000D01*
X0206520Y0136000D01*
X0207270Y0144750D02*
X0191020Y0161000D01*
X0213520Y0163500D02*
X0216020Y0166000D01*
X0216520Y0166000D01*
X0279520Y0160000D02*
X0279770Y0161000D01*
X0283520Y0164750D01*
X0283520Y0181000D01*
X0284520Y0181000D01*
X0279520Y0140000D02*
X0283520Y0136000D01*
X0283520Y0119750D01*
X0284520Y0119000D01*
M02*
