%
M48
M72
T01C0.02400
T02C0.02756
T03C0.03150
T04C0.03200
T05C0.03346
T06C0.03937
T07C0.04000
T08C0.04400
T09C0.05118
T10C0.13000
%
T01
X86020Y149750
X117270Y152250
X162270Y128500
X152270Y118500
X131020Y101000
X141020Y94750
X136020Y91000
X132270Y83500
X116020Y62250
X104770Y36000
X91020Y26000
X76020Y39750
X77270Y76000
X69770Y77250
X77270Y89750
X84770Y103500
X27270Y77250
X171020Y154750
X178520Y154750
X189770Y154750
X207270Y154750
X207270Y144750
X231020Y126000
X227270Y118500
X211020Y124750
X181020Y124750
X194770Y94750
X194770Y74750
X191020Y59750
X173520Y76000
X217270Y49750
X234770Y69750
X249770Y91000
X234770Y101000
X246020Y118500
X267270Y134750
X279520Y140000
X279520Y160000
X241020Y184750
X231020Y181000
X197270Y196000
X269770Y86000
X266020Y72250
X266020Y38500
X201020Y8500
X162270Y27250
X156020Y26000
T02
X96520Y115000
X106520Y115000
T03
X31709Y191000
X43520Y172102
T04
X63520Y181000
X83520Y181000
X92520Y172000
X112520Y172000
X146520Y187000
X186520Y187000
X213520Y181000
X263520Y181000
X274520Y181000
X284520Y181000
X284520Y119000
X274520Y119000
X261520Y112000
X251520Y112000
X241520Y112000
X231520Y112000
X221520Y112000
X211520Y112000
X201520Y112000
X187520Y106000
X170520Y98000
X187520Y86000
X201520Y82000
X211520Y82000
X221520Y82000
X231520Y82000
X241520Y82000
X251520Y82000
X261520Y82000
X261520Y63000
X251520Y63000
X241520Y63000
X231520Y63000
X215520Y58000
X215520Y38000
X231520Y33000
X241520Y33000
X251520Y33000
X261520Y33000
X170520Y36000
X170520Y51000
X170520Y66000
X170520Y82000
X120520Y82000
X120520Y66000
X120520Y51000
X111520Y51000
X111520Y36000
X120520Y36000
X61520Y36000
X61520Y51000
X120520Y98000
X82520Y115000
X62520Y115000
X167520Y121000
X187520Y121000
T05
X126520Y136000
X136520Y136000
X146520Y136000
X156520Y136000
X166520Y136000
X176520Y136000
X186520Y136000
X196520Y136000
X206520Y136000
X216520Y136000
X226520Y136000
X236520Y136000
X246520Y136000
X256520Y136000
X256520Y166000
X246520Y166000
X236520Y166000
X226520Y166000
X216520Y166000
X206520Y166000
X196520Y166000
X186520Y166000
X176520Y166000
X166520Y166000
X156520Y166000
X146520Y166000
X136520Y166000
X126520Y166000
X207520Y204000
X217520Y204000
X227520Y204000
X237520Y204000
X247520Y204000
X257520Y204000
X267520Y204000
X277520Y204000
T06
X55331Y191000
T07
X93520Y155000
X93520Y145000
X93520Y135000
X43520Y101000
X33520Y101000
X33520Y91000
X43520Y91000
X43520Y81000
X43520Y71000
X33520Y71000
X33520Y81000
X33520Y61000
X43520Y61000
X48520Y25000
X38520Y25000
X28520Y25000
X28520Y15000
X38520Y15000
X48520Y15000
X100520Y17000
X110520Y17000
X126520Y17000
X136520Y17000
X146520Y17000
X156520Y17000
X166520Y17000
X176520Y17000
X186520Y17000
X196520Y17000
X212520Y17000
X222520Y17000
X232520Y17000
X242520Y17000
X252520Y17000
X262520Y17000
X279520Y16000
X279520Y26000
X279520Y36000
X279520Y46000
X279520Y56000
X279520Y66000
X279520Y76000
X279520Y86000
X279520Y96000
X279520Y106000
T08
X92520Y204000
X92520Y188000
X132520Y188000
X132520Y204000
X146520Y204000
X186520Y204000
T09
X61724Y17000
X87315Y17000
T10
X34520Y145000
M30
