G75*
%MOIN*%
%OFA0B0*%
%FSLAX25Y25*%
%IPPOS*%
%LPD*%
%AMOC8*
5,1,8,0,0,1.08239X$1,22.5*
%
%ADD10C,0.00000*%
%ADD11C,0.06000*%
%ADD12OC8,0.05200*%
%ADD13C,0.06600*%
%ADD14C,0.07400*%
%ADD15C,0.08600*%
%ADD16C,0.05200*%
%ADD17R,0.05906X0.05906*%
%ADD18OC8,0.06800*%
%ADD19C,0.05600*%
%ADD20C,0.10000*%
%ADD21C,0.04400*%
%ADD22OC8,0.06600*%
%ADD23C,0.04362*%
%ADD24C,0.04756*%
%ADD25R,0.05315X0.01575*%
%ADD26R,0.07480X0.07087*%
%ADD27R,0.07480X0.06201*%
%ADD28C,0.01600*%
%ADD29C,0.03200*%
%ADD30C,0.01000*%
%ADD31C,0.02400*%
%ADD32C,0.02400*%
D10*
X0014520Y0012000D02*
X0014520Y0207961D01*
X0014523Y0208203D01*
X0014532Y0208444D01*
X0014546Y0208685D01*
X0014567Y0208926D01*
X0014593Y0209166D01*
X0014625Y0209406D01*
X0014663Y0209645D01*
X0014706Y0209882D01*
X0014756Y0210119D01*
X0014811Y0210354D01*
X0014871Y0210588D01*
X0014938Y0210820D01*
X0015009Y0211051D01*
X0015087Y0211280D01*
X0015170Y0211507D01*
X0015258Y0211732D01*
X0015352Y0211955D01*
X0015451Y0212175D01*
X0015556Y0212393D01*
X0015665Y0212608D01*
X0015780Y0212821D01*
X0015900Y0213031D01*
X0016025Y0213237D01*
X0016155Y0213441D01*
X0016290Y0213642D01*
X0016430Y0213839D01*
X0016574Y0214033D01*
X0016723Y0214223D01*
X0016877Y0214409D01*
X0017035Y0214592D01*
X0017197Y0214771D01*
X0017364Y0214946D01*
X0017535Y0215117D01*
X0017710Y0215284D01*
X0017889Y0215446D01*
X0018072Y0215604D01*
X0018258Y0215758D01*
X0018448Y0215907D01*
X0018642Y0216051D01*
X0018839Y0216191D01*
X0019040Y0216326D01*
X0019244Y0216456D01*
X0019450Y0216581D01*
X0019660Y0216701D01*
X0019873Y0216816D01*
X0020088Y0216925D01*
X0020306Y0217030D01*
X0020526Y0217129D01*
X0020749Y0217223D01*
X0020974Y0217311D01*
X0021201Y0217394D01*
X0021430Y0217472D01*
X0021661Y0217543D01*
X0021893Y0217610D01*
X0022127Y0217670D01*
X0022362Y0217725D01*
X0022599Y0217775D01*
X0022836Y0217818D01*
X0023075Y0217856D01*
X0023315Y0217888D01*
X0023555Y0217914D01*
X0023796Y0217935D01*
X0024037Y0217949D01*
X0024278Y0217958D01*
X0024520Y0217961D01*
X0269205Y0217961D01*
X0284220Y0205945D02*
X0284220Y0013000D01*
X0284216Y0012710D01*
X0284206Y0012420D01*
X0284188Y0012131D01*
X0284164Y0011842D01*
X0284133Y0011554D01*
X0284094Y0011266D01*
X0284049Y0010980D01*
X0283996Y0010694D01*
X0283937Y0010411D01*
X0283871Y0010128D01*
X0283799Y0009848D01*
X0283719Y0009569D01*
X0283633Y0009292D01*
X0283540Y0009017D01*
X0283440Y0008745D01*
X0283334Y0008475D01*
X0283222Y0008208D01*
X0283102Y0007943D01*
X0282977Y0007682D01*
X0282845Y0007423D01*
X0282708Y0007168D01*
X0282564Y0006916D01*
X0282414Y0006668D01*
X0282258Y0006424D01*
X0282096Y0006183D01*
X0281928Y0005947D01*
X0281755Y0005714D01*
X0281576Y0005486D01*
X0281392Y0005262D01*
X0281202Y0005043D01*
X0281007Y0004828D01*
X0280807Y0004618D01*
X0280602Y0004413D01*
X0280392Y0004213D01*
X0280177Y0004018D01*
X0279958Y0003828D01*
X0279734Y0003644D01*
X0279506Y0003465D01*
X0279273Y0003292D01*
X0279037Y0003124D01*
X0278796Y0002962D01*
X0278552Y0002806D01*
X0278304Y0002656D01*
X0278052Y0002512D01*
X0277797Y0002375D01*
X0277538Y0002243D01*
X0277277Y0002118D01*
X0277012Y0001998D01*
X0276745Y0001886D01*
X0276475Y0001780D01*
X0276203Y0001680D01*
X0275928Y0001587D01*
X0275651Y0001501D01*
X0275372Y0001421D01*
X0275092Y0001349D01*
X0274809Y0001283D01*
X0274526Y0001224D01*
X0274240Y0001171D01*
X0273954Y0001126D01*
X0273666Y0001087D01*
X0273378Y0001056D01*
X0273089Y0001032D01*
X0272800Y0001014D01*
X0272510Y0001004D01*
X0272220Y0001000D01*
X0025520Y0001000D01*
X0025250Y0001003D01*
X0024980Y0001013D01*
X0024711Y0001030D01*
X0024442Y0001053D01*
X0024173Y0001083D01*
X0023906Y0001119D01*
X0023639Y0001162D01*
X0023374Y0001211D01*
X0023110Y0001267D01*
X0022847Y0001330D01*
X0022586Y0001398D01*
X0022327Y0001474D01*
X0022070Y0001555D01*
X0021814Y0001643D01*
X0021561Y0001737D01*
X0021310Y0001837D01*
X0021062Y0001944D01*
X0020817Y0002056D01*
X0020574Y0002175D01*
X0020335Y0002299D01*
X0020098Y0002429D01*
X0019865Y0002565D01*
X0019635Y0002707D01*
X0019409Y0002854D01*
X0019186Y0003007D01*
X0018967Y0003165D01*
X0018752Y0003328D01*
X0018542Y0003497D01*
X0018335Y0003671D01*
X0018133Y0003850D01*
X0017935Y0004033D01*
X0017742Y0004222D01*
X0017553Y0004415D01*
X0017370Y0004613D01*
X0017191Y0004815D01*
X0017017Y0005022D01*
X0016848Y0005232D01*
X0016685Y0005447D01*
X0016527Y0005666D01*
X0016374Y0005889D01*
X0016227Y0006115D01*
X0016085Y0006345D01*
X0015949Y0006578D01*
X0015819Y0006815D01*
X0015695Y0007054D01*
X0015576Y0007297D01*
X0015464Y0007542D01*
X0015357Y0007790D01*
X0015257Y0008041D01*
X0015163Y0008294D01*
X0015075Y0008550D01*
X0014994Y0008807D01*
X0014918Y0009066D01*
X0014850Y0009327D01*
X0014787Y0009590D01*
X0014731Y0009854D01*
X0014682Y0010119D01*
X0014639Y0010386D01*
X0014603Y0010653D01*
X0014573Y0010922D01*
X0014550Y0011191D01*
X0014533Y0011460D01*
X0014523Y0011730D01*
X0014520Y0012000D01*
X0269205Y0217961D02*
X0269532Y0217993D01*
X0269860Y0218018D01*
X0270188Y0218034D01*
X0270516Y0218043D01*
X0270845Y0218043D01*
X0271174Y0218036D01*
X0271502Y0218021D01*
X0271830Y0217997D01*
X0272157Y0217966D01*
X0272483Y0217927D01*
X0272808Y0217880D01*
X0273132Y0217826D01*
X0273455Y0217763D01*
X0273776Y0217693D01*
X0274095Y0217615D01*
X0274413Y0217529D01*
X0274728Y0217435D01*
X0275040Y0217334D01*
X0275350Y0217226D01*
X0275658Y0217110D01*
X0275963Y0216987D01*
X0276264Y0216856D01*
X0276562Y0216718D01*
X0276857Y0216573D01*
X0277148Y0216421D01*
X0277436Y0216261D01*
X0277720Y0216095D01*
X0277999Y0215922D01*
X0278274Y0215743D01*
X0278545Y0215557D01*
X0278811Y0215364D01*
X0279073Y0215165D01*
X0279329Y0214960D01*
X0279581Y0214748D01*
X0279827Y0214531D01*
X0280068Y0214307D01*
X0280304Y0214078D01*
X0280534Y0213843D01*
X0280758Y0213603D01*
X0280976Y0213357D01*
X0281189Y0213107D01*
X0281395Y0212851D01*
X0281595Y0212590D01*
X0281789Y0212325D01*
X0281976Y0212054D01*
X0282156Y0211780D01*
X0282330Y0211501D01*
X0282497Y0211218D01*
X0282658Y0210931D01*
X0282811Y0210640D01*
X0282957Y0210346D01*
X0283096Y0210048D01*
X0283228Y0209747D01*
X0283352Y0209443D01*
X0283469Y0209136D01*
X0283579Y0208826D01*
X0283681Y0208514D01*
X0283776Y0208199D01*
X0283862Y0207882D01*
X0283942Y0207563D01*
X0284013Y0207243D01*
X0284077Y0206920D01*
X0284133Y0206596D01*
X0284181Y0206271D01*
X0284221Y0205945D01*
D11*
X0268520Y0205000D02*
X0262520Y0205000D01*
X0262520Y0195000D02*
X0268520Y0195000D01*
X0268520Y0185000D02*
X0262520Y0185000D01*
X0262520Y0175000D02*
X0268520Y0175000D01*
X0268520Y0165000D02*
X0262520Y0165000D01*
X0262520Y0103000D02*
X0268520Y0103000D01*
X0268520Y0093000D02*
X0262520Y0093000D01*
X0262520Y0083000D02*
X0268520Y0083000D01*
X0268520Y0073000D02*
X0262520Y0073000D01*
X0262520Y0063000D02*
X0268520Y0063000D01*
X0268520Y0053000D02*
X0262520Y0053000D01*
X0262520Y0043000D02*
X0268520Y0043000D01*
X0268520Y0033000D02*
X0262520Y0033000D01*
X0254520Y0020000D02*
X0254520Y0014000D01*
X0244520Y0014000D02*
X0244520Y0020000D01*
X0234520Y0020000D02*
X0234520Y0014000D01*
X0224520Y0014000D02*
X0224520Y0020000D01*
X0214520Y0020000D02*
X0214520Y0014000D01*
X0204520Y0014000D02*
X0204520Y0020000D01*
X0194520Y0020000D02*
X0194520Y0014000D01*
X0184520Y0014000D02*
X0184520Y0020000D01*
X0167520Y0020000D02*
X0167520Y0014000D01*
X0157520Y0014000D02*
X0157520Y0020000D01*
X0147520Y0020000D02*
X0147520Y0014000D01*
X0137520Y0014000D02*
X0137520Y0020000D01*
X0127520Y0020000D02*
X0127520Y0014000D01*
X0117520Y0014000D02*
X0117520Y0020000D01*
X0107520Y0020000D02*
X0107520Y0014000D01*
X0097520Y0014000D02*
X0097520Y0020000D01*
X0083520Y0136000D02*
X0077520Y0136000D01*
X0077520Y0146000D02*
X0083520Y0146000D01*
X0083520Y0156000D02*
X0077520Y0156000D01*
D12*
X0098520Y0161000D03*
X0086520Y0180000D03*
X0066520Y0180000D03*
X0098520Y0131000D03*
X0095520Y0110000D03*
X0084520Y0110000D03*
X0064520Y0110000D03*
X0106520Y0093000D03*
X0106520Y0078000D03*
X0106520Y0064000D03*
X0106520Y0050000D03*
X0106520Y0033000D03*
X0146520Y0050000D03*
X0146520Y0064000D03*
X0146520Y0078000D03*
X0146520Y0093000D03*
X0146520Y0110000D03*
X0157520Y0110000D03*
X0177520Y0110000D03*
X0126520Y0110000D03*
X0115520Y0110000D03*
X0185520Y0064000D03*
X0205520Y0064000D03*
X0156520Y0033000D03*
X0199520Y0172000D03*
X0198520Y0206000D03*
X0218520Y0206000D03*
X0228520Y0206000D03*
X0248520Y0206000D03*
X0249520Y0172000D03*
D13*
X0174520Y0172000D03*
X0174520Y0189000D03*
X0174520Y0206000D03*
X0134520Y0206000D03*
X0134520Y0189000D03*
X0134520Y0172000D03*
D14*
X0054520Y0156000D03*
X0054520Y0136000D03*
X0044520Y0100000D03*
X0034520Y0100000D03*
X0034520Y0090000D03*
X0044520Y0090000D03*
X0044520Y0080000D03*
X0034520Y0080000D03*
X0034520Y0070000D03*
X0044520Y0070000D03*
X0044520Y0060000D03*
X0034520Y0060000D03*
X0030520Y0026000D03*
X0040520Y0026000D03*
X0050520Y0026000D03*
X0050520Y0016000D03*
X0040520Y0016000D03*
X0030520Y0016000D03*
D15*
X0039220Y0172102D02*
X0047820Y0172102D01*
X0055331Y0186700D02*
X0055331Y0195300D01*
X0031709Y0195300D02*
X0031709Y0186700D01*
D16*
X0188520Y0111600D02*
X0188520Y0106400D01*
X0198520Y0106400D02*
X0198520Y0111600D01*
X0208520Y0111600D02*
X0208520Y0106400D01*
X0218520Y0106400D02*
X0218520Y0111600D01*
X0228520Y0111600D02*
X0228520Y0106400D01*
X0238520Y0106400D02*
X0238520Y0111600D01*
X0248520Y0111600D02*
X0248520Y0106400D01*
X0248520Y0081600D02*
X0248520Y0076400D01*
X0238520Y0076400D02*
X0238520Y0081600D01*
X0228520Y0081600D02*
X0228520Y0076400D01*
X0218520Y0076400D02*
X0218520Y0081600D01*
X0208520Y0081600D02*
X0208520Y0076400D01*
X0198520Y0076400D02*
X0198520Y0081600D01*
X0188520Y0081600D02*
X0188520Y0076400D01*
D17*
X0086409Y0062000D03*
X0072630Y0062000D03*
X0072630Y0047000D03*
X0086409Y0047000D03*
X0086409Y0033000D03*
X0072630Y0033000D03*
X0066630Y0205000D03*
X0080409Y0205000D03*
D18*
X0218520Y0064000D03*
X0228520Y0064000D03*
X0238520Y0064000D03*
X0248520Y0064000D03*
X0248520Y0034000D03*
X0238520Y0034000D03*
X0228520Y0034000D03*
X0218520Y0034000D03*
D19*
X0218520Y0124200D02*
X0218520Y0129800D01*
X0228520Y0129800D02*
X0228520Y0124200D01*
X0238520Y0124200D02*
X0238520Y0129800D01*
X0248520Y0129800D02*
X0248520Y0124200D01*
X0248520Y0154200D02*
X0248520Y0159800D01*
X0238520Y0159800D02*
X0238520Y0154200D01*
X0228520Y0154200D02*
X0228520Y0159800D01*
X0218520Y0159800D02*
X0218520Y0154200D01*
X0208520Y0154200D02*
X0208520Y0159800D01*
X0198520Y0159800D02*
X0198520Y0154200D01*
X0188520Y0154200D02*
X0188520Y0159800D01*
X0178520Y0159800D02*
X0178520Y0154200D01*
X0168520Y0154200D02*
X0168520Y0159800D01*
X0158520Y0159800D02*
X0158520Y0154200D01*
X0148520Y0154200D02*
X0148520Y0159800D01*
X0138520Y0159800D02*
X0138520Y0154200D01*
X0128520Y0154200D02*
X0128520Y0159800D01*
X0118520Y0159800D02*
X0118520Y0154200D01*
X0118520Y0129800D02*
X0118520Y0124200D01*
X0128520Y0124200D02*
X0128520Y0129800D01*
X0138520Y0129800D02*
X0138520Y0124200D01*
X0148520Y0124200D02*
X0148520Y0129800D01*
X0158520Y0129800D02*
X0158520Y0124200D01*
X0168520Y0124200D02*
X0168520Y0129800D01*
X0178520Y0129800D02*
X0178520Y0124200D01*
X0188520Y0124200D02*
X0188520Y0129800D01*
X0198520Y0129800D02*
X0198520Y0124200D01*
X0208520Y0124200D02*
X0208520Y0129800D01*
X0079520Y0019800D02*
X0079520Y0014200D01*
X0069520Y0014200D02*
X0069520Y0019800D01*
D20*
X0092724Y0202000D03*
X0118315Y0202000D03*
D21*
X0214520Y0192200D02*
X0214520Y0187800D01*
X0234520Y0187800D02*
X0234520Y0192200D01*
D22*
X0090520Y0085000D03*
X0080520Y0075000D03*
X0070520Y0085000D03*
D23*
X0024701Y0130563D02*
X0020339Y0130563D01*
X0020339Y0163437D02*
X0024701Y0163437D01*
D24*
X0031953Y0155760D02*
X0036709Y0155760D01*
X0036709Y0138240D02*
X0031953Y0138240D01*
D25*
X0033543Y0141882D03*
X0033543Y0144441D03*
X0033543Y0147000D03*
X0033543Y0149559D03*
X0033543Y0152118D03*
D26*
X0022520Y0151528D03*
X0022520Y0142472D03*
D27*
X0022520Y0133663D03*
X0022520Y0160337D03*
D28*
X0017520Y0169000D02*
X0017520Y0209000D01*
X0017596Y0209868D01*
X0017821Y0210710D01*
X0018190Y0211500D01*
X0018689Y0212214D01*
X0019306Y0212830D01*
X0020020Y0213330D01*
X0020810Y0213698D01*
X0021651Y0213924D01*
X0022520Y0214000D01*
X0271520Y0214000D01*
X0272615Y0213914D01*
X0273683Y0213657D01*
X0274698Y0213237D01*
X0275634Y0212663D01*
X0276469Y0211950D01*
X0277183Y0211114D01*
X0277757Y0210178D01*
X0278177Y0209163D01*
X0278434Y0208095D01*
X0278520Y0207000D01*
X0278520Y0059800D01*
X0272108Y0059800D01*
X0272589Y0060281D01*
X0273320Y0062045D01*
X0273320Y0063955D01*
X0272589Y0065719D01*
X0271239Y0067069D01*
X0269474Y0067800D01*
X0261565Y0067800D01*
X0259801Y0067069D01*
X0258781Y0066050D01*
X0253720Y0066050D01*
X0253720Y0066154D01*
X0250674Y0069200D01*
X0246597Y0069200D01*
X0246972Y0069575D01*
X0259156Y0069575D01*
X0259801Y0068931D01*
X0261565Y0068200D01*
X0269474Y0068200D01*
X0271239Y0068931D01*
X0272589Y0070281D01*
X0273320Y0072045D01*
X0273320Y0073955D01*
X0272589Y0075719D01*
X0271239Y0077069D01*
X0269474Y0077800D01*
X0261565Y0077800D01*
X0259801Y0077069D01*
X0258450Y0075719D01*
X0257811Y0074175D01*
X0252361Y0074175D01*
X0252920Y0075525D01*
X0252920Y0082475D01*
X0252309Y0083950D01*
X0257720Y0083950D01*
X0257720Y0082045D01*
X0258450Y0080281D01*
X0259801Y0078931D01*
X0261565Y0078200D01*
X0269474Y0078200D01*
X0271239Y0078931D01*
X0272589Y0080281D01*
X0273320Y0082045D01*
X0273320Y0083955D01*
X0272589Y0085719D01*
X0271239Y0087069D01*
X0269474Y0087800D01*
X0263972Y0087800D01*
X0263572Y0088200D01*
X0265320Y0088200D01*
X0265320Y0092800D01*
X0265720Y0092800D01*
X0265720Y0093200D01*
X0273320Y0093200D01*
X0273320Y0093378D01*
X0273201Y0094124D01*
X0272968Y0094843D01*
X0272625Y0095516D01*
X0272181Y0096127D01*
X0271647Y0096661D01*
X0271035Y0097105D01*
X0270362Y0097448D01*
X0269644Y0097682D01*
X0268897Y0097800D01*
X0265720Y0097800D01*
X0265720Y0093200D01*
X0265320Y0093200D01*
X0265320Y0097800D01*
X0262142Y0097800D01*
X0261396Y0097682D01*
X0260677Y0097448D01*
X0260004Y0097105D01*
X0259393Y0096661D01*
X0258858Y0096127D01*
X0258414Y0095516D01*
X0258071Y0094843D01*
X0257838Y0094124D01*
X0257720Y0093378D01*
X0257720Y0093200D01*
X0265320Y0093200D01*
X0265320Y0092800D01*
X0257720Y0092800D01*
X0257720Y0092622D01*
X0257769Y0092311D01*
X0256820Y0091918D01*
X0256577Y0091675D01*
X0227567Y0091675D01*
X0226220Y0090328D01*
X0221117Y0085225D01*
X0221012Y0085330D01*
X0219395Y0086000D01*
X0217644Y0086000D01*
X0216027Y0085330D01*
X0214790Y0084092D01*
X0214120Y0082475D01*
X0214120Y0076403D01*
X0212920Y0077603D01*
X0212920Y0082475D01*
X0212250Y0084092D01*
X0211012Y0085330D01*
X0209395Y0086000D01*
X0207644Y0086000D01*
X0206027Y0085330D01*
X0204790Y0084092D01*
X0204120Y0082475D01*
X0204120Y0075525D01*
X0204790Y0073908D01*
X0206027Y0072670D01*
X0207644Y0072000D01*
X0209395Y0072000D01*
X0211012Y0072670D01*
X0211180Y0072837D01*
X0215591Y0068426D01*
X0213320Y0066154D01*
X0213320Y0062227D01*
X0213068Y0061975D01*
X0209717Y0061975D01*
X0209920Y0062177D01*
X0209920Y0064000D01*
X0209920Y0065823D01*
X0207342Y0068400D01*
X0205520Y0068400D01*
X0205520Y0064000D01*
X0209920Y0064000D01*
X0205520Y0064000D01*
X0205520Y0064000D01*
X0205520Y0064000D01*
X0205395Y0064375D01*
X0205395Y0073125D01*
X0203520Y0075000D01*
X0203520Y0091250D01*
X0189770Y0091250D01*
X0185722Y0092075D02*
X0231972Y0092075D01*
X0233147Y0093250D01*
X0233491Y0093250D01*
X0234594Y0093707D01*
X0235438Y0094551D01*
X0235895Y0095653D01*
X0235895Y0096847D01*
X0235800Y0097075D01*
X0238847Y0097075D01*
X0240707Y0098935D01*
X0244270Y0095372D01*
X0244270Y0095028D01*
X0244726Y0093926D01*
X0245570Y0093082D01*
X0246673Y0092625D01*
X0247866Y0092625D01*
X0248969Y0093082D01*
X0249813Y0093926D01*
X0250270Y0095028D01*
X0250270Y0096222D01*
X0249813Y0097324D01*
X0248969Y0098168D01*
X0247866Y0098625D01*
X0247522Y0098625D01*
X0243960Y0102187D01*
X0245097Y0103325D01*
X0245235Y0103462D01*
X0246027Y0102670D01*
X0247644Y0102000D01*
X0249395Y0102000D01*
X0251012Y0102670D01*
X0252250Y0103908D01*
X0252920Y0105525D01*
X0252920Y0107075D01*
X0259815Y0107075D01*
X0259801Y0107069D01*
X0258450Y0105719D01*
X0257720Y0103955D01*
X0257720Y0102045D01*
X0258450Y0100281D01*
X0259801Y0098931D01*
X0261565Y0098200D01*
X0269474Y0098200D01*
X0271239Y0098931D01*
X0272589Y0100281D01*
X0273320Y0102045D01*
X0273320Y0103955D01*
X0272589Y0105719D01*
X0271239Y0107069D01*
X0271225Y0107075D01*
X0276347Y0107075D01*
X0277695Y0108422D01*
X0277695Y0140328D01*
X0276347Y0141675D01*
X0251347Y0166675D01*
X0224442Y0166675D01*
X0223095Y0165328D01*
X0221296Y0163529D01*
X0221125Y0163700D01*
X0219435Y0164400D01*
X0217605Y0164400D01*
X0215914Y0163700D01*
X0214620Y0162406D01*
X0213920Y0160715D01*
X0213920Y0153285D01*
X0214462Y0151975D01*
X0212577Y0151975D01*
X0213120Y0153285D01*
X0213120Y0160715D01*
X0212419Y0162406D01*
X0211125Y0163700D01*
X0209435Y0164400D01*
X0209097Y0164400D01*
X0216472Y0171775D01*
X0245120Y0171775D01*
X0245120Y0170177D01*
X0247697Y0167600D01*
X0251342Y0167600D01*
X0253920Y0170177D01*
X0253920Y0173823D01*
X0251342Y0176400D01*
X0250472Y0176400D01*
X0257865Y0183793D01*
X0258071Y0183157D01*
X0258414Y0182484D01*
X0258858Y0181873D01*
X0259393Y0181339D01*
X0260004Y0180895D01*
X0260677Y0180552D01*
X0261396Y0180318D01*
X0262142Y0180200D01*
X0265320Y0180200D01*
X0265320Y0184800D01*
X0265720Y0184800D01*
X0265720Y0180200D01*
X0268897Y0180200D01*
X0269644Y0180318D01*
X0270362Y0180552D01*
X0271035Y0180895D01*
X0271220Y0181029D01*
X0271220Y0178971D01*
X0271035Y0179105D01*
X0270362Y0179448D01*
X0269644Y0179682D01*
X0268897Y0179800D01*
X0265720Y0179800D01*
X0265720Y0175200D01*
X0265320Y0175200D01*
X0265320Y0179800D01*
X0262142Y0179800D01*
X0261396Y0179682D01*
X0260677Y0179448D01*
X0260004Y0179105D01*
X0259393Y0178661D01*
X0258858Y0178127D01*
X0258414Y0177516D01*
X0258071Y0176843D01*
X0257838Y0176124D01*
X0257720Y0175378D01*
X0257720Y0175200D01*
X0265320Y0175200D01*
X0265320Y0174800D01*
X0265720Y0174800D01*
X0265720Y0170200D01*
X0267967Y0170200D01*
X0267567Y0169800D01*
X0261565Y0169800D01*
X0259801Y0169069D01*
X0258450Y0167719D01*
X0257720Y0165955D01*
X0257720Y0164045D01*
X0258450Y0162281D01*
X0259801Y0160931D01*
X0261565Y0160200D01*
X0269474Y0160200D01*
X0271239Y0160931D01*
X0272589Y0162281D01*
X0273320Y0164045D01*
X0273320Y0165955D01*
X0272589Y0167719D01*
X0272290Y0168018D01*
X0274472Y0170200D01*
X0275820Y0171547D01*
X0275820Y0200953D01*
X0274472Y0202300D01*
X0272597Y0202300D01*
X0273320Y0204045D01*
X0273320Y0205955D01*
X0272589Y0207719D01*
X0271239Y0209069D01*
X0269474Y0209800D01*
X0261565Y0209800D01*
X0259801Y0209069D01*
X0258450Y0207719D01*
X0257790Y0206125D01*
X0252920Y0206125D01*
X0252920Y0207823D01*
X0250342Y0210400D01*
X0248520Y0210400D01*
X0248520Y0206000D01*
X0248520Y0206000D01*
X0248520Y0206250D01*
X0244145Y0210625D01*
X0202895Y0210625D01*
X0198520Y0206250D01*
X0198520Y0206000D01*
X0202920Y0206000D01*
X0202920Y0207823D01*
X0200342Y0210400D01*
X0198520Y0210400D01*
X0198520Y0206000D01*
X0198520Y0206000D01*
X0202920Y0206000D01*
X0202920Y0204177D01*
X0200342Y0201600D01*
X0198520Y0201600D01*
X0198520Y0206000D01*
X0198520Y0206000D01*
X0198520Y0206000D01*
X0198520Y0201600D01*
X0196697Y0201600D01*
X0194120Y0204177D01*
X0194120Y0206000D01*
X0198520Y0206000D01*
X0198520Y0210400D01*
X0196697Y0210400D01*
X0194120Y0207823D01*
X0194120Y0206000D01*
X0198520Y0206000D01*
X0198520Y0206000D01*
X0198520Y0206208D02*
X0198520Y0206208D01*
X0198520Y0207806D02*
X0198520Y0207806D01*
X0198520Y0209405D02*
X0198520Y0209405D01*
X0201337Y0209405D02*
X0215702Y0209405D01*
X0216697Y0210400D02*
X0214120Y0207823D01*
X0214120Y0204177D01*
X0216697Y0201600D01*
X0220342Y0201600D01*
X0222920Y0204177D01*
X0222920Y0207823D01*
X0220342Y0210400D01*
X0216697Y0210400D01*
X0214120Y0207806D02*
X0202920Y0207806D01*
X0202920Y0206208D02*
X0214120Y0206208D01*
X0214120Y0204609D02*
X0202920Y0204609D01*
X0201753Y0203011D02*
X0215286Y0203011D01*
X0221753Y0203011D02*
X0225286Y0203011D01*
X0224120Y0204177D02*
X0226697Y0201600D01*
X0230342Y0201600D01*
X0232920Y0204177D01*
X0232920Y0207823D01*
X0230342Y0210400D01*
X0226697Y0210400D01*
X0224120Y0207823D01*
X0224120Y0204177D01*
X0224120Y0204609D02*
X0222920Y0204609D01*
X0222920Y0206208D02*
X0224120Y0206208D01*
X0224120Y0207806D02*
X0222920Y0207806D01*
X0221337Y0209405D02*
X0225702Y0209405D01*
X0231337Y0209405D02*
X0245702Y0209405D01*
X0246697Y0210400D02*
X0244120Y0207823D01*
X0244120Y0206000D01*
X0244120Y0204177D01*
X0246697Y0201600D01*
X0247127Y0201600D01*
X0245402Y0199875D01*
X0181673Y0199875D01*
X0180570Y0199418D01*
X0175252Y0194100D01*
X0173505Y0194100D01*
X0171631Y0193324D01*
X0170196Y0191889D01*
X0169420Y0190014D01*
X0169420Y0187986D01*
X0170196Y0186111D01*
X0170257Y0186050D01*
X0147597Y0186050D01*
X0132211Y0201436D01*
X0133505Y0200900D01*
X0135534Y0200900D01*
X0137409Y0201676D01*
X0138843Y0203111D01*
X0139620Y0204986D01*
X0139620Y0207014D01*
X0138843Y0208889D01*
X0137409Y0210324D01*
X0135534Y0211100D01*
X0133505Y0211100D01*
X0131631Y0210324D01*
X0130196Y0208889D01*
X0129420Y0207014D01*
X0129420Y0204986D01*
X0129956Y0203692D01*
X0129472Y0204175D01*
X0124774Y0204175D01*
X0124080Y0205852D01*
X0122167Y0207765D01*
X0119668Y0208800D01*
X0116962Y0208800D01*
X0114463Y0207765D01*
X0112550Y0205852D01*
X0111515Y0203353D01*
X0111515Y0200647D01*
X0112550Y0198148D01*
X0114463Y0196235D01*
X0116962Y0195200D01*
X0119668Y0195200D01*
X0122167Y0196235D01*
X0124080Y0198148D01*
X0124671Y0199575D01*
X0127567Y0199575D01*
X0133178Y0193964D01*
X0132358Y0193625D01*
X0112706Y0193625D01*
X0112770Y0193778D01*
X0112770Y0194972D01*
X0112313Y0196074D01*
X0111469Y0196918D01*
X0110366Y0197375D01*
X0110022Y0197375D01*
X0096347Y0211050D01*
X0083817Y0211050D01*
X0082520Y0209753D01*
X0076711Y0209753D01*
X0075657Y0208698D01*
X0075657Y0201302D01*
X0076711Y0200247D01*
X0084108Y0200247D01*
X0085162Y0201302D01*
X0085162Y0205890D01*
X0085722Y0206450D01*
X0087568Y0206450D01*
X0087058Y0205786D01*
X0086613Y0205014D01*
X0086271Y0204190D01*
X0086041Y0203329D01*
X0085929Y0202480D01*
X0092245Y0202480D01*
X0092245Y0201520D01*
X0093204Y0201520D01*
X0093204Y0195204D01*
X0094054Y0195316D01*
X0094915Y0195547D01*
X0095738Y0195888D01*
X0096510Y0196334D01*
X0097218Y0196877D01*
X0097848Y0197507D01*
X0098391Y0198214D01*
X0098836Y0198986D01*
X0099177Y0199810D01*
X0099408Y0200671D01*
X0099503Y0201389D01*
X0106770Y0194122D01*
X0106770Y0193778D01*
X0106833Y0193625D01*
X0061431Y0193625D01*
X0061431Y0196513D01*
X0060502Y0198755D01*
X0058786Y0200471D01*
X0056544Y0201400D01*
X0054117Y0201400D01*
X0051875Y0200471D01*
X0050159Y0198755D01*
X0049231Y0196513D01*
X0049231Y0185487D01*
X0050159Y0183245D01*
X0051875Y0181529D01*
X0054117Y0180600D01*
X0056544Y0180600D01*
X0058786Y0181529D01*
X0060502Y0183245D01*
X0061431Y0185487D01*
X0061431Y0187625D01*
X0129569Y0187625D01*
X0130196Y0186111D01*
X0131631Y0184676D01*
X0133505Y0183900D01*
X0135534Y0183900D01*
X0137409Y0184676D01*
X0138843Y0186111D01*
X0139484Y0187658D01*
X0145692Y0181450D01*
X0238847Y0181450D01*
X0240195Y0182797D01*
X0255097Y0197700D01*
X0258443Y0197700D01*
X0257720Y0195955D01*
X0257720Y0194045D01*
X0258450Y0192281D01*
X0258725Y0192007D01*
X0243693Y0176975D01*
X0228395Y0176975D01*
X0228395Y0178097D01*
X0227938Y0179199D01*
X0227094Y0180043D01*
X0225991Y0180500D01*
X0224798Y0180500D01*
X0223695Y0180043D01*
X0223452Y0179800D01*
X0213817Y0179800D01*
X0212470Y0178453D01*
X0203192Y0169175D01*
X0202917Y0169175D01*
X0203920Y0170177D01*
X0203920Y0173823D01*
X0201342Y0176400D01*
X0197697Y0176400D01*
X0195120Y0173823D01*
X0195120Y0170177D01*
X0196122Y0169175D01*
X0178870Y0169175D01*
X0179620Y0170986D01*
X0179620Y0173014D01*
X0178843Y0174889D01*
X0177409Y0176324D01*
X0175534Y0177100D01*
X0173787Y0177100D01*
X0170844Y0180043D01*
X0169741Y0180500D01*
X0090920Y0180500D01*
X0090920Y0181823D01*
X0088342Y0184400D01*
X0084697Y0184400D01*
X0082120Y0181823D01*
X0082120Y0178177D01*
X0084697Y0175600D01*
X0086802Y0175600D01*
X0087445Y0174957D01*
X0088548Y0174500D01*
X0130035Y0174500D01*
X0129420Y0173014D01*
X0129420Y0170986D01*
X0129466Y0170873D01*
X0126193Y0167600D01*
X0102377Y0167600D01*
X0101422Y0167204D01*
X0099618Y0165400D01*
X0096697Y0165400D01*
X0094120Y0162823D01*
X0094120Y0159902D01*
X0087653Y0153435D01*
X0088320Y0155045D01*
X0088320Y0156955D01*
X0087589Y0158719D01*
X0086239Y0160069D01*
X0084474Y0160800D01*
X0076565Y0160800D01*
X0074801Y0160069D01*
X0073450Y0158719D01*
X0073383Y0158557D01*
X0072445Y0158168D01*
X0071601Y0157324D01*
X0055729Y0141452D01*
X0055614Y0141500D01*
X0053426Y0141500D01*
X0051404Y0140663D01*
X0049857Y0139115D01*
X0049020Y0137094D01*
X0049020Y0134906D01*
X0049857Y0132884D01*
X0051404Y0131337D01*
X0053426Y0130500D01*
X0055614Y0130500D01*
X0057635Y0131337D01*
X0059182Y0132884D01*
X0060020Y0134906D01*
X0060020Y0137094D01*
X0059972Y0137210D01*
X0074747Y0151985D01*
X0074801Y0151931D01*
X0076565Y0151200D01*
X0084474Y0151200D01*
X0086085Y0151867D01*
X0084859Y0150641D01*
X0084474Y0150800D01*
X0076565Y0150800D01*
X0074801Y0150069D01*
X0073450Y0148719D01*
X0072720Y0146955D01*
X0072720Y0145045D01*
X0073450Y0143281D01*
X0074801Y0141931D01*
X0076565Y0141200D01*
X0084474Y0141200D01*
X0086239Y0141931D01*
X0087589Y0143281D01*
X0088320Y0145045D01*
X0088320Y0146748D01*
X0098172Y0156600D01*
X0100342Y0156600D01*
X0102920Y0159177D01*
X0102920Y0161348D01*
X0103972Y0162400D01*
X0114618Y0162400D01*
X0113920Y0160715D01*
X0113920Y0153285D01*
X0114620Y0151594D01*
X0115914Y0150300D01*
X0117605Y0149600D01*
X0119435Y0149600D01*
X0121125Y0150300D01*
X0122419Y0151594D01*
X0123120Y0153285D01*
X0123120Y0160715D01*
X0122422Y0162400D01*
X0124618Y0162400D01*
X0123920Y0160715D01*
X0123920Y0153285D01*
X0124620Y0151594D01*
X0125914Y0150300D01*
X0127605Y0149600D01*
X0129435Y0149600D01*
X0131081Y0150282D01*
X0130920Y0149892D01*
X0130920Y0133785D01*
X0129435Y0134400D01*
X0127605Y0134400D01*
X0125914Y0133700D01*
X0124620Y0132406D01*
X0123920Y0130715D01*
X0123920Y0123285D01*
X0124523Y0121828D01*
X0123922Y0121579D01*
X0123191Y0120848D01*
X0116743Y0114400D01*
X0113697Y0114400D01*
X0111120Y0111823D01*
X0111120Y0108177D01*
X0113697Y0105600D01*
X0117342Y0105600D01*
X0119920Y0108177D01*
X0119920Y0110223D01*
X0122924Y0113228D01*
X0123225Y0112927D01*
X0122120Y0111823D01*
X0122120Y0110000D01*
X0122120Y0108177D01*
X0124697Y0105600D01*
X0126520Y0105600D01*
X0128342Y0105600D01*
X0130920Y0108177D01*
X0130920Y0110000D01*
X0130920Y0111823D01*
X0130042Y0112700D01*
X0137597Y0112700D01*
X0138945Y0114047D01*
X0145556Y0120658D01*
X0145914Y0120300D01*
X0147605Y0119600D01*
X0149435Y0119600D01*
X0151125Y0120300D01*
X0151845Y0121020D01*
X0151845Y0119528D01*
X0151770Y0119347D01*
X0151770Y0118153D01*
X0151845Y0117972D01*
X0151845Y0117797D01*
X0151968Y0117674D01*
X0151999Y0117600D01*
X0151127Y0117600D01*
X0150172Y0117204D01*
X0149441Y0116473D01*
X0147368Y0114400D01*
X0144697Y0114400D01*
X0142120Y0111823D01*
X0142120Y0108177D01*
X0144697Y0105600D01*
X0148342Y0105600D01*
X0150920Y0108177D01*
X0150920Y0110598D01*
X0152722Y0112400D01*
X0153697Y0112400D01*
X0153120Y0111823D01*
X0153120Y0110000D01*
X0153120Y0108177D01*
X0155697Y0105600D01*
X0157520Y0105600D01*
X0159342Y0105600D01*
X0161920Y0108177D01*
X0161920Y0110000D01*
X0161920Y0111823D01*
X0161342Y0112400D01*
X0171193Y0112400D01*
X0173120Y0110473D01*
X0173120Y0108177D01*
X0175697Y0105600D01*
X0179342Y0105600D01*
X0181920Y0108177D01*
X0181920Y0111823D01*
X0179792Y0113950D01*
X0184788Y0113950D01*
X0184756Y0113906D01*
X0184442Y0113289D01*
X0184228Y0112630D01*
X0184120Y0111946D01*
X0184120Y0109000D01*
X0184120Y0106054D01*
X0184228Y0105370D01*
X0184442Y0104711D01*
X0184715Y0104175D01*
X0114442Y0104175D01*
X0113095Y0102828D01*
X0113095Y0102828D01*
X0107667Y0097400D01*
X0104697Y0097400D01*
X0102120Y0094823D01*
X0102120Y0091177D01*
X0104697Y0088600D01*
X0108342Y0088600D01*
X0110920Y0091177D01*
X0110920Y0094147D01*
X0116347Y0099575D01*
X0166220Y0099575D01*
X0166220Y0089047D01*
X0167567Y0087700D01*
X0185692Y0069575D01*
X0192597Y0069575D01*
X0193945Y0070922D01*
X0193945Y0070922D01*
X0195860Y0072837D01*
X0196027Y0072670D01*
X0197644Y0072000D01*
X0199395Y0072000D01*
X0201012Y0072670D01*
X0202250Y0073908D01*
X0202920Y0075525D01*
X0202920Y0082475D01*
X0202250Y0084092D01*
X0201012Y0085330D01*
X0199395Y0086000D01*
X0197644Y0086000D01*
X0196027Y0085330D01*
X0194790Y0084092D01*
X0194120Y0082475D01*
X0194120Y0077603D01*
X0192920Y0076403D01*
X0192920Y0082475D01*
X0192250Y0084092D01*
X0191012Y0085330D01*
X0189395Y0086000D01*
X0187644Y0086000D01*
X0186027Y0085330D01*
X0184790Y0084092D01*
X0184120Y0082475D01*
X0184120Y0077653D01*
X0178147Y0083625D01*
X0178344Y0083707D01*
X0179188Y0084551D01*
X0179645Y0085653D01*
X0179645Y0085997D01*
X0185722Y0092075D01*
X0184763Y0091115D02*
X0227007Y0091115D01*
X0225409Y0089517D02*
X0183164Y0089517D01*
X0181565Y0087918D02*
X0223810Y0087918D01*
X0222212Y0086320D02*
X0179967Y0086320D01*
X0179259Y0084721D02*
X0185418Y0084721D01*
X0184388Y0083123D02*
X0178650Y0083123D01*
X0180248Y0081524D02*
X0184120Y0081524D01*
X0184120Y0079926D02*
X0181847Y0079926D01*
X0183445Y0078327D02*
X0184120Y0078327D01*
X0180137Y0075130D02*
X0149872Y0075130D01*
X0150920Y0076177D02*
X0148342Y0073600D01*
X0144697Y0073600D01*
X0142120Y0076177D01*
X0142120Y0079823D01*
X0144697Y0082400D01*
X0148342Y0082400D01*
X0150920Y0079823D01*
X0150920Y0076177D01*
X0150920Y0076729D02*
X0178538Y0076729D01*
X0176940Y0078327D02*
X0150920Y0078327D01*
X0150817Y0079926D02*
X0175341Y0079926D01*
X0173743Y0081524D02*
X0149218Y0081524D01*
X0143821Y0081524D02*
X0120171Y0081524D01*
X0118573Y0079926D02*
X0142223Y0079926D01*
X0142120Y0078327D02*
X0116974Y0078327D01*
X0115376Y0076729D02*
X0142120Y0076729D01*
X0143167Y0075130D02*
X0113777Y0075130D01*
X0112719Y0073793D02*
X0112522Y0073875D01*
X0128847Y0090200D01*
X0143097Y0090200D01*
X0144697Y0088600D01*
X0148342Y0088600D01*
X0150920Y0091177D01*
X0150920Y0094823D01*
X0148342Y0097400D01*
X0144697Y0097400D01*
X0142120Y0094823D01*
X0142120Y0094800D01*
X0126942Y0094800D01*
X0125595Y0093453D01*
X0110920Y0078778D01*
X0110920Y0079823D01*
X0108342Y0082400D01*
X0105422Y0082400D01*
X0082822Y0105000D01*
X0083422Y0105600D01*
X0086342Y0105600D01*
X0088920Y0108177D01*
X0088920Y0111823D01*
X0086342Y0114400D01*
X0082697Y0114400D01*
X0080120Y0111823D01*
X0080120Y0109652D01*
X0077359Y0106892D01*
X0076628Y0106160D01*
X0073068Y0102600D01*
X0049396Y0102600D01*
X0049182Y0103115D01*
X0047635Y0104663D01*
X0045614Y0105500D01*
X0043426Y0105500D01*
X0041404Y0104663D01*
X0039857Y0103115D01*
X0039520Y0102301D01*
X0039182Y0103115D01*
X0037635Y0104663D01*
X0035614Y0105500D01*
X0033426Y0105500D01*
X0031445Y0104679D01*
X0031445Y0124575D01*
X0113920Y0124575D01*
X0113920Y0123285D01*
X0114620Y0121594D01*
X0115914Y0120300D01*
X0117605Y0119600D01*
X0119435Y0119600D01*
X0121125Y0120300D01*
X0122419Y0121594D01*
X0123120Y0123285D01*
X0123120Y0130715D01*
X0122419Y0132406D01*
X0121125Y0133700D01*
X0119435Y0134400D01*
X0117605Y0134400D01*
X0115914Y0133700D01*
X0114620Y0132406D01*
X0113920Y0130715D01*
X0113920Y0129175D01*
X0102917Y0129175D01*
X0102920Y0129177D01*
X0102920Y0132823D01*
X0100342Y0135400D01*
X0098047Y0135400D01*
X0096349Y0137098D01*
X0095617Y0137829D01*
X0094662Y0138225D01*
X0087794Y0138225D01*
X0087589Y0138719D01*
X0086239Y0140069D01*
X0084474Y0140800D01*
X0076565Y0140800D01*
X0074801Y0140069D01*
X0073450Y0138719D01*
X0072720Y0136955D01*
X0072720Y0135045D01*
X0073450Y0133281D01*
X0074801Y0131931D01*
X0076565Y0131200D01*
X0084474Y0131200D01*
X0086239Y0131931D01*
X0087333Y0133025D01*
X0093068Y0133025D01*
X0094120Y0131973D01*
X0094120Y0129177D01*
X0094122Y0129175D01*
X0046520Y0129175D01*
X0046520Y0149575D01*
X0051347Y0149575D01*
X0052610Y0150838D01*
X0053426Y0150500D01*
X0055614Y0150500D01*
X0057635Y0151337D01*
X0059182Y0152884D01*
X0060020Y0154906D01*
X0060020Y0157094D01*
X0059182Y0159115D01*
X0057635Y0160663D01*
X0055614Y0161500D01*
X0053426Y0161500D01*
X0051404Y0160663D01*
X0049857Y0159115D01*
X0049020Y0157094D01*
X0049020Y0154906D01*
X0049322Y0154175D01*
X0046520Y0154175D01*
X0046520Y0166002D01*
X0049033Y0166002D01*
X0051275Y0166931D01*
X0052991Y0168647D01*
X0053920Y0170889D01*
X0053920Y0173316D01*
X0052991Y0175558D01*
X0051275Y0177274D01*
X0049033Y0178202D01*
X0038006Y0178202D01*
X0035764Y0177274D01*
X0034048Y0175558D01*
X0033120Y0173316D01*
X0033120Y0170889D01*
X0033902Y0169000D01*
X0017520Y0169000D01*
X0017520Y0169442D02*
X0033719Y0169442D01*
X0033120Y0171041D02*
X0017520Y0171041D01*
X0017520Y0172639D02*
X0033120Y0172639D01*
X0033502Y0174238D02*
X0017520Y0174238D01*
X0017520Y0175836D02*
X0034327Y0175836D01*
X0036153Y0177435D02*
X0017520Y0177435D01*
X0017520Y0179033D02*
X0062120Y0179033D01*
X0062120Y0178177D02*
X0062120Y0180000D01*
X0066520Y0180000D01*
X0070920Y0180000D01*
X0070920Y0181823D01*
X0068342Y0184400D01*
X0066520Y0184400D01*
X0066520Y0180000D01*
X0066520Y0180000D01*
X0070920Y0180000D01*
X0070920Y0178177D01*
X0068342Y0175600D01*
X0066520Y0175600D01*
X0066520Y0180000D01*
X0066520Y0180000D01*
X0066520Y0180000D01*
X0042895Y0180000D01*
X0032270Y0190625D01*
X0031709Y0191000D01*
X0037809Y0191000D01*
X0037809Y0195780D01*
X0037658Y0196728D01*
X0037362Y0197642D01*
X0036926Y0198497D01*
X0036361Y0199274D01*
X0035683Y0199953D01*
X0034906Y0200517D01*
X0034050Y0200953D01*
X0033137Y0201250D01*
X0032189Y0201400D01*
X0031709Y0201400D01*
X0031709Y0191000D01*
X0031709Y0191000D01*
X0037809Y0191000D01*
X0037809Y0186220D01*
X0037658Y0185272D01*
X0037362Y0184358D01*
X0036926Y0183503D01*
X0036361Y0182726D01*
X0035683Y0182047D01*
X0034906Y0181483D01*
X0034050Y0181047D01*
X0033137Y0180750D01*
X0032189Y0180600D01*
X0031709Y0180600D01*
X0031709Y0191000D01*
X0031709Y0191000D01*
X0031709Y0191000D01*
X0031709Y0180600D01*
X0031229Y0180600D01*
X0030280Y0180750D01*
X0029367Y0181047D01*
X0028512Y0181483D01*
X0027735Y0182047D01*
X0027056Y0182726D01*
X0026491Y0183503D01*
X0026056Y0184358D01*
X0025759Y0185272D01*
X0025609Y0186220D01*
X0025609Y0191000D01*
X0031709Y0191000D01*
X0031709Y0201400D01*
X0031229Y0201400D01*
X0030280Y0201250D01*
X0029367Y0200953D01*
X0028512Y0200517D01*
X0027735Y0199953D01*
X0027056Y0199274D01*
X0026491Y0198497D01*
X0026056Y0197642D01*
X0025759Y0196728D01*
X0025609Y0195780D01*
X0025609Y0191000D01*
X0031709Y0191000D01*
X0031709Y0191000D01*
X0031709Y0190223D02*
X0031709Y0190223D01*
X0031709Y0191821D02*
X0031709Y0191821D01*
X0031709Y0193420D02*
X0031709Y0193420D01*
X0031709Y0195018D02*
X0031709Y0195018D01*
X0031709Y0196617D02*
X0031709Y0196617D01*
X0031709Y0198215D02*
X0031709Y0198215D01*
X0031709Y0199814D02*
X0031709Y0199814D01*
X0035821Y0199814D02*
X0051218Y0199814D01*
X0049936Y0198215D02*
X0037069Y0198215D01*
X0037676Y0196617D02*
X0049274Y0196617D01*
X0049231Y0195018D02*
X0037809Y0195018D01*
X0037809Y0193420D02*
X0049231Y0193420D01*
X0049231Y0191821D02*
X0037809Y0191821D01*
X0037809Y0190223D02*
X0049231Y0190223D01*
X0049231Y0188624D02*
X0037809Y0188624D01*
X0037809Y0187026D02*
X0049231Y0187026D01*
X0049255Y0185427D02*
X0037683Y0185427D01*
X0037092Y0183829D02*
X0049917Y0183829D01*
X0051174Y0182230D02*
X0035866Y0182230D01*
X0032389Y0180632D02*
X0054041Y0180632D01*
X0056621Y0180632D02*
X0062120Y0180632D01*
X0062120Y0180000D02*
X0066520Y0180000D01*
X0066520Y0175600D01*
X0064697Y0175600D01*
X0062120Y0178177D01*
X0062862Y0177435D02*
X0050886Y0177435D01*
X0052712Y0175836D02*
X0064461Y0175836D01*
X0066520Y0175836D02*
X0066520Y0175836D01*
X0066520Y0177435D02*
X0066520Y0177435D01*
X0066520Y0179033D02*
X0066520Y0179033D01*
X0066520Y0180000D02*
X0066520Y0180000D01*
X0066520Y0184400D01*
X0064697Y0184400D01*
X0062120Y0181823D01*
X0062120Y0180000D01*
X0062527Y0182230D02*
X0059488Y0182230D01*
X0060744Y0183829D02*
X0064126Y0183829D01*
X0066520Y0183829D02*
X0066520Y0183829D01*
X0066520Y0182230D02*
X0066520Y0182230D01*
X0066520Y0180632D02*
X0066520Y0180632D01*
X0070512Y0182230D02*
X0082527Y0182230D01*
X0082120Y0180632D02*
X0070920Y0180632D01*
X0070920Y0179033D02*
X0082120Y0179033D01*
X0082862Y0177435D02*
X0070177Y0177435D01*
X0068578Y0175836D02*
X0084461Y0175836D01*
X0090920Y0180632D02*
X0247350Y0180632D01*
X0248948Y0182230D02*
X0239628Y0182230D01*
X0241226Y0183829D02*
X0250547Y0183829D01*
X0252145Y0185427D02*
X0242825Y0185427D01*
X0244423Y0187026D02*
X0253744Y0187026D01*
X0255342Y0188624D02*
X0246022Y0188624D01*
X0247620Y0190223D02*
X0256941Y0190223D01*
X0258539Y0191821D02*
X0249219Y0191821D01*
X0250817Y0193420D02*
X0257979Y0193420D01*
X0257720Y0195018D02*
X0252416Y0195018D01*
X0254014Y0196617D02*
X0257994Y0196617D01*
X0265395Y0195000D02*
X0265520Y0195000D01*
X0265395Y0195000D02*
X0244770Y0174375D01*
X0215395Y0174375D01*
X0198520Y0157500D01*
X0198520Y0157000D01*
X0193920Y0156654D02*
X0193120Y0156654D01*
X0193120Y0155056D02*
X0193920Y0155056D01*
X0193920Y0153457D02*
X0193120Y0153457D01*
X0193120Y0153285D02*
X0193120Y0160715D01*
X0192419Y0162406D01*
X0191125Y0163700D01*
X0189435Y0164400D01*
X0187605Y0164400D01*
X0185914Y0163700D01*
X0184620Y0162406D01*
X0183920Y0160715D01*
X0183920Y0155952D01*
X0183120Y0155152D01*
X0183120Y0156963D01*
X0178556Y0156963D01*
X0178556Y0157037D01*
X0178483Y0157037D01*
X0178483Y0164400D01*
X0178158Y0164400D01*
X0177443Y0164287D01*
X0176754Y0164063D01*
X0176109Y0163734D01*
X0175523Y0163309D01*
X0175011Y0162797D01*
X0174585Y0162211D01*
X0174257Y0161566D01*
X0174033Y0160877D01*
X0173920Y0160162D01*
X0173920Y0157037D01*
X0178483Y0157037D01*
X0178483Y0156963D01*
X0173920Y0156963D01*
X0173920Y0153838D01*
X0174033Y0153123D01*
X0174257Y0152434D01*
X0174491Y0151975D01*
X0172577Y0151975D01*
X0173120Y0153285D01*
X0173120Y0160715D01*
X0172419Y0162406D01*
X0171125Y0163700D01*
X0169435Y0164400D01*
X0167605Y0164400D01*
X0165914Y0163700D01*
X0164620Y0162406D01*
X0163920Y0160715D01*
X0163920Y0153285D01*
X0164462Y0151975D01*
X0162577Y0151975D01*
X0163120Y0153285D01*
X0163120Y0160715D01*
X0162419Y0162406D01*
X0161125Y0163700D01*
X0159435Y0164400D01*
X0157605Y0164400D01*
X0155914Y0163700D01*
X0154620Y0162406D01*
X0153920Y0160715D01*
X0153920Y0153285D01*
X0154462Y0151975D01*
X0152577Y0151975D01*
X0153120Y0153285D01*
X0153120Y0160715D01*
X0152419Y0162406D01*
X0151125Y0163700D01*
X0149435Y0164400D01*
X0148672Y0164400D01*
X0148847Y0164575D01*
X0201918Y0164575D01*
X0201067Y0163724D01*
X0199435Y0164400D01*
X0197605Y0164400D01*
X0195914Y0163700D01*
X0194620Y0162406D01*
X0193920Y0160715D01*
X0193920Y0153285D01*
X0194462Y0151975D01*
X0192577Y0151975D01*
X0193120Y0153285D01*
X0193120Y0158253D02*
X0193920Y0158253D01*
X0193920Y0159851D02*
X0193120Y0159851D01*
X0192815Y0161450D02*
X0194224Y0161450D01*
X0195262Y0163048D02*
X0191777Y0163048D01*
X0185262Y0163048D02*
X0181777Y0163048D01*
X0182028Y0162797D02*
X0181516Y0163309D01*
X0180931Y0163734D01*
X0180285Y0164063D01*
X0179597Y0164287D01*
X0178882Y0164400D01*
X0178556Y0164400D01*
X0178556Y0157037D01*
X0183120Y0157037D01*
X0183120Y0160162D01*
X0183006Y0160877D01*
X0182783Y0161566D01*
X0182454Y0162211D01*
X0182028Y0162797D01*
X0182820Y0161450D02*
X0184224Y0161450D01*
X0183920Y0159851D02*
X0183120Y0159851D01*
X0183120Y0158253D02*
X0183920Y0158253D01*
X0183920Y0156654D02*
X0183120Y0156654D01*
X0178556Y0158253D02*
X0178483Y0158253D01*
X0178483Y0159851D02*
X0178556Y0159851D01*
X0178556Y0161450D02*
X0178483Y0161450D01*
X0178483Y0163048D02*
X0178556Y0163048D01*
X0175262Y0163048D02*
X0171777Y0163048D01*
X0172815Y0161450D02*
X0174219Y0161450D01*
X0173920Y0159851D02*
X0173120Y0159851D01*
X0173120Y0158253D02*
X0173920Y0158253D01*
X0173920Y0156654D02*
X0173120Y0156654D01*
X0173120Y0155056D02*
X0173920Y0155056D01*
X0173980Y0153457D02*
X0173120Y0153457D01*
X0181020Y0149375D02*
X0240395Y0149375D01*
X0261020Y0128750D01*
X0277695Y0129479D02*
X0278520Y0129479D01*
X0278520Y0127881D02*
X0277695Y0127881D01*
X0277695Y0126282D02*
X0278520Y0126282D01*
X0278520Y0124684D02*
X0277695Y0124684D01*
X0277695Y0123085D02*
X0278520Y0123085D01*
X0278520Y0121487D02*
X0277695Y0121487D01*
X0277695Y0119888D02*
X0278520Y0119888D01*
X0278520Y0118290D02*
X0277695Y0118290D01*
X0277695Y0116691D02*
X0278520Y0116691D01*
X0278520Y0115093D02*
X0277695Y0115093D01*
X0277695Y0113494D02*
X0278520Y0113494D01*
X0278520Y0111896D02*
X0277695Y0111896D01*
X0277695Y0110297D02*
X0278520Y0110297D01*
X0278520Y0108699D02*
X0277695Y0108699D01*
X0278520Y0107100D02*
X0276373Y0107100D01*
X0278520Y0105502D02*
X0272679Y0105502D01*
X0273320Y0103903D02*
X0278520Y0103903D01*
X0278520Y0102305D02*
X0273320Y0102305D01*
X0272765Y0100706D02*
X0278520Y0100706D01*
X0278520Y0099108D02*
X0271416Y0099108D01*
X0270175Y0097509D02*
X0278520Y0097509D01*
X0278520Y0095911D02*
X0272338Y0095911D01*
X0273140Y0094312D02*
X0278520Y0094312D01*
X0278520Y0092714D02*
X0273320Y0092714D01*
X0273320Y0092800D02*
X0265720Y0092800D01*
X0265720Y0088200D01*
X0268897Y0088200D01*
X0269644Y0088318D01*
X0270362Y0088552D01*
X0271035Y0088895D01*
X0271647Y0089339D01*
X0272181Y0089873D01*
X0272625Y0090484D01*
X0272968Y0091157D01*
X0273201Y0091876D01*
X0273320Y0092622D01*
X0273320Y0092800D01*
X0272946Y0091115D02*
X0278520Y0091115D01*
X0278520Y0089517D02*
X0271825Y0089517D01*
X0271988Y0086320D02*
X0278520Y0086320D01*
X0278520Y0087918D02*
X0263854Y0087918D01*
X0265320Y0089517D02*
X0265720Y0089517D01*
X0265720Y0091115D02*
X0265320Y0091115D01*
X0265395Y0092500D02*
X0265520Y0093000D01*
X0265320Y0092714D02*
X0265720Y0092714D01*
X0265395Y0092500D02*
X0257270Y0092500D01*
X0256645Y0091875D01*
X0203520Y0091875D01*
X0203520Y0091250D01*
X0201621Y0084721D02*
X0205418Y0084721D01*
X0204388Y0083123D02*
X0202652Y0083123D01*
X0202920Y0081524D02*
X0204120Y0081524D01*
X0204120Y0079926D02*
X0202920Y0079926D01*
X0202920Y0078327D02*
X0204120Y0078327D01*
X0204120Y0076729D02*
X0202920Y0076729D01*
X0202756Y0075130D02*
X0204283Y0075130D01*
X0205166Y0073532D02*
X0201874Y0073532D01*
X0203697Y0068400D02*
X0201120Y0065823D01*
X0201120Y0064000D01*
X0201120Y0062177D01*
X0201322Y0061975D01*
X0191472Y0061975D01*
X0189920Y0063527D01*
X0189920Y0065823D01*
X0187342Y0068400D01*
X0183697Y0068400D01*
X0181120Y0065823D01*
X0181120Y0062177D01*
X0181322Y0061975D01*
X0150717Y0061975D01*
X0150920Y0062177D01*
X0150920Y0065823D01*
X0148342Y0068400D01*
X0144697Y0068400D01*
X0142347Y0066050D01*
X0119472Y0066050D01*
X0114020Y0071503D01*
X0114020Y0071847D01*
X0113563Y0072949D01*
X0112719Y0073793D01*
X0112981Y0073532D02*
X0181735Y0073532D01*
X0183334Y0071933D02*
X0113984Y0071933D01*
X0115188Y0070334D02*
X0184932Y0070334D01*
X0182435Y0067137D02*
X0149605Y0067137D01*
X0150920Y0065539D02*
X0181120Y0065539D01*
X0181120Y0063940D02*
X0150920Y0063940D01*
X0150920Y0062342D02*
X0181120Y0062342D01*
X0185520Y0064000D02*
X0186020Y0063750D01*
X0190395Y0059375D01*
X0111020Y0059375D01*
X0106645Y0063750D01*
X0106520Y0064000D01*
X0109605Y0067137D02*
X0111880Y0067137D01*
X0110767Y0068250D02*
X0116220Y0062797D01*
X0117042Y0061975D01*
X0112097Y0061975D01*
X0110920Y0063152D01*
X0110920Y0065823D01*
X0108342Y0068400D01*
X0104697Y0068400D01*
X0102120Y0065823D01*
X0102120Y0062177D01*
X0104697Y0059600D01*
X0107118Y0059600D01*
X0108816Y0057902D01*
X0109547Y0057171D01*
X0110502Y0056775D01*
X0133292Y0056775D01*
X0133192Y0056675D01*
X0048902Y0056675D01*
X0049224Y0057117D01*
X0049617Y0057889D01*
X0049884Y0058712D01*
X0050020Y0059567D01*
X0050020Y0059800D01*
X0044720Y0059800D01*
X0044720Y0060200D01*
X0050020Y0060200D01*
X0050020Y0060433D01*
X0049884Y0061288D01*
X0049617Y0062111D01*
X0049224Y0062883D01*
X0048715Y0063583D01*
X0048103Y0064195D01*
X0047402Y0064704D01*
X0046821Y0065000D01*
X0047402Y0065296D01*
X0048103Y0065805D01*
X0048715Y0066417D01*
X0049224Y0067117D01*
X0049617Y0067889D01*
X0049884Y0068712D01*
X0050020Y0069567D01*
X0050020Y0069800D01*
X0044720Y0069800D01*
X0044720Y0070200D01*
X0050020Y0070200D01*
X0050020Y0070433D01*
X0049884Y0071288D01*
X0049617Y0072111D01*
X0049224Y0072883D01*
X0048715Y0073583D01*
X0048103Y0074195D01*
X0047402Y0074704D01*
X0046821Y0075000D01*
X0047635Y0075337D01*
X0049182Y0076884D01*
X0050020Y0078906D01*
X0050020Y0081094D01*
X0049182Y0083115D01*
X0047635Y0084663D01*
X0046821Y0085000D01*
X0047635Y0085337D01*
X0049182Y0086884D01*
X0050020Y0088906D01*
X0050020Y0091094D01*
X0049182Y0093115D01*
X0047635Y0094663D01*
X0046821Y0095000D01*
X0047635Y0095337D01*
X0049182Y0096884D01*
X0049396Y0097400D01*
X0074662Y0097400D01*
X0075617Y0097796D01*
X0076349Y0098527D01*
X0076349Y0098527D01*
X0079145Y0101323D01*
X0090368Y0090100D01*
X0088407Y0090100D01*
X0085420Y0087112D01*
X0085420Y0082888D01*
X0088407Y0079900D01*
X0092632Y0079900D01*
X0095620Y0082888D01*
X0095620Y0084848D01*
X0102120Y0078348D01*
X0102120Y0076177D01*
X0102247Y0076050D01*
X0096942Y0076050D01*
X0095595Y0074703D01*
X0087645Y0066753D01*
X0082711Y0066753D01*
X0081657Y0065698D01*
X0081657Y0058302D01*
X0082711Y0057247D01*
X0090108Y0057247D01*
X0091162Y0058302D01*
X0091162Y0063765D01*
X0098847Y0071450D01*
X0108020Y0071450D01*
X0108020Y0070653D01*
X0108476Y0069551D01*
X0109320Y0068707D01*
X0110423Y0068250D01*
X0110767Y0068250D01*
X0109291Y0068736D02*
X0096133Y0068736D01*
X0094535Y0067137D02*
X0103435Y0067137D01*
X0102120Y0065539D02*
X0092936Y0065539D01*
X0091338Y0063940D02*
X0102120Y0063940D01*
X0102120Y0062342D02*
X0091162Y0062342D01*
X0091162Y0060743D02*
X0103554Y0060743D01*
X0107573Y0059145D02*
X0091162Y0059145D01*
X0090407Y0057546D02*
X0109171Y0057546D01*
X0111730Y0062342D02*
X0116675Y0062342D01*
X0115077Y0063940D02*
X0110920Y0063940D01*
X0110920Y0065539D02*
X0113478Y0065539D01*
X0116786Y0068736D02*
X0215281Y0068736D01*
X0214303Y0067137D02*
X0208605Y0067137D01*
X0209920Y0065539D02*
X0213320Y0065539D01*
X0213320Y0063940D02*
X0209920Y0063940D01*
X0209920Y0062342D02*
X0213320Y0062342D01*
X0214145Y0059375D02*
X0190395Y0059375D01*
X0191105Y0062342D02*
X0201120Y0062342D01*
X0201120Y0063940D02*
X0189920Y0063940D01*
X0189920Y0065539D02*
X0201120Y0065539D01*
X0201120Y0064000D02*
X0205520Y0064000D01*
X0205520Y0068400D01*
X0203697Y0068400D01*
X0202435Y0067137D02*
X0188605Y0067137D01*
X0193357Y0070334D02*
X0213682Y0070334D01*
X0212084Y0071933D02*
X0194955Y0071933D01*
X0193246Y0076729D02*
X0192920Y0076729D01*
X0192920Y0078327D02*
X0194120Y0078327D01*
X0194120Y0079926D02*
X0192920Y0079926D01*
X0192920Y0081524D02*
X0194120Y0081524D01*
X0194388Y0083123D02*
X0192652Y0083123D01*
X0191621Y0084721D02*
X0195418Y0084721D01*
X0211621Y0084721D02*
X0215418Y0084721D01*
X0214388Y0083123D02*
X0212652Y0083123D01*
X0212920Y0081524D02*
X0214120Y0081524D01*
X0214120Y0079926D02*
X0212920Y0079926D01*
X0212920Y0078327D02*
X0214120Y0078327D01*
X0214120Y0076729D02*
X0213794Y0076729D01*
X0205520Y0067137D02*
X0205520Y0067137D01*
X0205520Y0065539D02*
X0205520Y0065539D01*
X0205520Y0064000D02*
X0205520Y0064000D01*
X0201120Y0064000D01*
X0214145Y0059375D02*
X0218520Y0063750D01*
X0218520Y0064000D01*
X0225952Y0053325D02*
X0226195Y0053082D01*
X0227298Y0052625D01*
X0228491Y0052625D01*
X0229594Y0053082D01*
X0230438Y0053926D01*
X0230520Y0054123D01*
X0230520Y0053778D01*
X0230976Y0052676D01*
X0231820Y0051832D01*
X0232923Y0051375D01*
X0234116Y0051375D01*
X0234297Y0051450D01*
X0257966Y0051450D01*
X0258450Y0050281D01*
X0259801Y0048931D01*
X0261565Y0048200D01*
X0269474Y0048200D01*
X0271239Y0048931D01*
X0272589Y0050281D01*
X0272814Y0050825D01*
X0277202Y0050825D01*
X0277445Y0050582D01*
X0278520Y0050137D01*
X0278520Y0045425D01*
X0272711Y0045425D01*
X0272589Y0045719D01*
X0271239Y0047069D01*
X0269474Y0047800D01*
X0261565Y0047800D01*
X0260656Y0047423D01*
X0260438Y0047949D01*
X0259594Y0048793D01*
X0258491Y0049250D01*
X0257298Y0049250D01*
X0256195Y0048793D01*
X0255351Y0047949D01*
X0254895Y0046847D01*
X0254895Y0045653D01*
X0255351Y0044551D01*
X0255595Y0044307D01*
X0255595Y0024750D01*
X0255474Y0024800D01*
X0253565Y0024800D01*
X0251801Y0024069D01*
X0251445Y0023713D01*
X0251445Y0024078D01*
X0250097Y0025425D01*
X0246722Y0028800D01*
X0248520Y0028800D01*
X0250674Y0028800D01*
X0253720Y0031846D01*
X0253720Y0034000D01*
X0253720Y0036154D01*
X0250674Y0039200D01*
X0248520Y0039200D01*
X0248520Y0034000D01*
X0253720Y0034000D01*
X0248520Y0034000D01*
X0248520Y0034000D01*
X0248520Y0034000D01*
X0248520Y0028800D01*
X0248520Y0034000D01*
X0248520Y0034000D01*
X0248520Y0034375D01*
X0230395Y0052500D01*
X0210395Y0052500D01*
X0225952Y0053325D02*
X0174072Y0053325D01*
X0188147Y0039250D01*
X0188491Y0039250D01*
X0189594Y0038793D01*
X0190438Y0037949D01*
X0190895Y0036847D01*
X0190895Y0035653D01*
X0190800Y0035425D01*
X0213320Y0035425D01*
X0213320Y0036154D01*
X0216366Y0039200D01*
X0220674Y0039200D01*
X0223520Y0036354D01*
X0226366Y0039200D01*
X0230674Y0039200D01*
X0233520Y0036354D01*
X0236366Y0039200D01*
X0240674Y0039200D01*
X0243520Y0036354D01*
X0246366Y0039200D01*
X0248520Y0039200D01*
X0248520Y0034000D01*
X0248520Y0033569D02*
X0248520Y0033569D01*
X0248520Y0035167D02*
X0248520Y0035167D01*
X0248520Y0036766D02*
X0248520Y0036766D01*
X0248520Y0038364D02*
X0248520Y0038364D01*
X0251509Y0038364D02*
X0255595Y0038364D01*
X0255595Y0036766D02*
X0253108Y0036766D01*
X0253720Y0035167D02*
X0255595Y0035167D01*
X0255595Y0033569D02*
X0253720Y0033569D01*
X0253720Y0031970D02*
X0255595Y0031970D01*
X0255595Y0030372D02*
X0252245Y0030372D01*
X0255595Y0028773D02*
X0246749Y0028773D01*
X0248348Y0027175D02*
X0255595Y0027175D01*
X0255595Y0025576D02*
X0249946Y0025576D01*
X0251445Y0023978D02*
X0251709Y0023978D01*
X0248520Y0030372D02*
X0248520Y0030372D01*
X0248520Y0031970D02*
X0248520Y0031970D01*
X0243932Y0036766D02*
X0243108Y0036766D01*
X0241509Y0038364D02*
X0245530Y0038364D01*
X0235530Y0038364D02*
X0231509Y0038364D01*
X0233108Y0036766D02*
X0233932Y0036766D01*
X0225530Y0038364D02*
X0221509Y0038364D01*
X0223108Y0036766D02*
X0223932Y0036766D01*
X0215530Y0038364D02*
X0190023Y0038364D01*
X0190895Y0036766D02*
X0213932Y0036766D01*
X0226994Y0052751D02*
X0174646Y0052751D01*
X0176245Y0051152D02*
X0258090Y0051152D01*
X0259178Y0049554D02*
X0177844Y0049554D01*
X0179442Y0047955D02*
X0255357Y0047955D01*
X0254895Y0046357D02*
X0181041Y0046357D01*
X0182639Y0044758D02*
X0255265Y0044758D01*
X0255595Y0043160D02*
X0184238Y0043160D01*
X0185836Y0041561D02*
X0255595Y0041561D01*
X0255595Y0039963D02*
X0187435Y0039963D01*
X0228795Y0052751D02*
X0230945Y0052751D01*
X0251138Y0068736D02*
X0260271Y0068736D01*
X0259965Y0067137D02*
X0252736Y0067137D01*
X0252756Y0075130D02*
X0258207Y0075130D01*
X0259460Y0076729D02*
X0252920Y0076729D01*
X0252920Y0078327D02*
X0261258Y0078327D01*
X0258806Y0079926D02*
X0252920Y0079926D01*
X0252920Y0081524D02*
X0257936Y0081524D01*
X0257720Y0083123D02*
X0252652Y0083123D01*
X0248080Y0092714D02*
X0257720Y0092714D01*
X0257899Y0094312D02*
X0249973Y0094312D01*
X0250270Y0095911D02*
X0258701Y0095911D01*
X0260864Y0097509D02*
X0249628Y0097509D01*
X0247040Y0099108D02*
X0259624Y0099108D01*
X0258274Y0100706D02*
X0245441Y0100706D01*
X0244077Y0102305D02*
X0246909Y0102305D01*
X0250131Y0102305D02*
X0257720Y0102305D01*
X0257720Y0103903D02*
X0252245Y0103903D01*
X0252910Y0105502D02*
X0258360Y0105502D01*
X0265320Y0097509D02*
X0265720Y0097509D01*
X0265720Y0095911D02*
X0265320Y0095911D01*
X0265320Y0094312D02*
X0265720Y0094312D01*
X0273002Y0084721D02*
X0278520Y0084721D01*
X0278520Y0083123D02*
X0273320Y0083123D01*
X0273104Y0081524D02*
X0278520Y0081524D01*
X0278520Y0079926D02*
X0272233Y0079926D01*
X0269781Y0078327D02*
X0278520Y0078327D01*
X0278520Y0076729D02*
X0271579Y0076729D01*
X0272833Y0075130D02*
X0278520Y0075130D01*
X0278520Y0073532D02*
X0273320Y0073532D01*
X0273273Y0071933D02*
X0278520Y0071933D01*
X0278520Y0070334D02*
X0272611Y0070334D01*
X0270768Y0068736D02*
X0278520Y0068736D01*
X0278520Y0067137D02*
X0271074Y0067137D01*
X0272663Y0065539D02*
X0278520Y0065539D01*
X0278520Y0063940D02*
X0273320Y0063940D01*
X0273320Y0062342D02*
X0278520Y0062342D01*
X0278520Y0060743D02*
X0272780Y0060743D01*
X0271862Y0049554D02*
X0278520Y0049554D01*
X0278520Y0047955D02*
X0260432Y0047955D01*
X0271951Y0046357D02*
X0278520Y0046357D01*
X0246459Y0092714D02*
X0232611Y0092714D01*
X0235199Y0094312D02*
X0244566Y0094312D01*
X0243731Y0095911D02*
X0235895Y0095911D01*
X0239282Y0097509D02*
X0242133Y0097509D01*
X0277695Y0131078D02*
X0278520Y0131078D01*
X0278520Y0132676D02*
X0277695Y0132676D01*
X0277695Y0134275D02*
X0278520Y0134275D01*
X0278520Y0135873D02*
X0277695Y0135873D01*
X0277695Y0137472D02*
X0278520Y0137472D01*
X0278520Y0139070D02*
X0277695Y0139070D01*
X0277353Y0140669D02*
X0278520Y0140669D01*
X0278520Y0142268D02*
X0275755Y0142268D01*
X0274156Y0143866D02*
X0278520Y0143866D01*
X0278520Y0145465D02*
X0272558Y0145465D01*
X0270959Y0147063D02*
X0278520Y0147063D01*
X0278520Y0148662D02*
X0269361Y0148662D01*
X0267762Y0150260D02*
X0278520Y0150260D01*
X0278520Y0151859D02*
X0266164Y0151859D01*
X0264565Y0153457D02*
X0278520Y0153457D01*
X0278520Y0155056D02*
X0262967Y0155056D01*
X0261368Y0156654D02*
X0278520Y0156654D01*
X0278520Y0158253D02*
X0259770Y0158253D01*
X0258171Y0159851D02*
X0278520Y0159851D01*
X0278520Y0161450D02*
X0271758Y0161450D01*
X0272907Y0163048D02*
X0278520Y0163048D01*
X0278520Y0164647D02*
X0273320Y0164647D01*
X0273199Y0166245D02*
X0278520Y0166245D01*
X0278520Y0167844D02*
X0272464Y0167844D01*
X0273715Y0169442D02*
X0278520Y0169442D01*
X0278520Y0171041D02*
X0275313Y0171041D01*
X0275820Y0172639D02*
X0278520Y0172639D01*
X0278520Y0174238D02*
X0275820Y0174238D01*
X0275820Y0175836D02*
X0278520Y0175836D01*
X0278520Y0177435D02*
X0275820Y0177435D01*
X0275820Y0179033D02*
X0278520Y0179033D01*
X0278520Y0180632D02*
X0275820Y0180632D01*
X0275820Y0182230D02*
X0278520Y0182230D01*
X0278520Y0183829D02*
X0275820Y0183829D01*
X0275820Y0185427D02*
X0278520Y0185427D01*
X0278520Y0187026D02*
X0275820Y0187026D01*
X0275820Y0188624D02*
X0278520Y0188624D01*
X0278520Y0190223D02*
X0275820Y0190223D01*
X0275820Y0191821D02*
X0278520Y0191821D01*
X0278520Y0193420D02*
X0275820Y0193420D01*
X0275820Y0195018D02*
X0278520Y0195018D01*
X0278520Y0196617D02*
X0275820Y0196617D01*
X0275820Y0198215D02*
X0278520Y0198215D01*
X0278520Y0199814D02*
X0275820Y0199814D01*
X0275360Y0201412D02*
X0278520Y0201412D01*
X0278520Y0203011D02*
X0272891Y0203011D01*
X0273320Y0204609D02*
X0278520Y0204609D01*
X0278520Y0206208D02*
X0273215Y0206208D01*
X0272501Y0207806D02*
X0278456Y0207806D01*
X0278077Y0209405D02*
X0270428Y0209405D01*
X0275706Y0212602D02*
X0019078Y0212602D01*
X0017958Y0211003D02*
X0083771Y0211003D01*
X0085480Y0206208D02*
X0087382Y0206208D01*
X0086445Y0204609D02*
X0085162Y0204609D01*
X0085162Y0203011D02*
X0085999Y0203011D01*
X0085929Y0201520D02*
X0086041Y0200671D01*
X0086271Y0199810D01*
X0086613Y0198986D01*
X0087058Y0198214D01*
X0087601Y0197507D01*
X0088231Y0196877D01*
X0088938Y0196334D01*
X0089710Y0195888D01*
X0090534Y0195547D01*
X0091395Y0195316D01*
X0092245Y0195204D01*
X0092245Y0201520D01*
X0085929Y0201520D01*
X0085943Y0201412D02*
X0085162Y0201412D01*
X0086270Y0199814D02*
X0059443Y0199814D01*
X0060726Y0198215D02*
X0087057Y0198215D01*
X0088570Y0196617D02*
X0061388Y0196617D01*
X0061431Y0195018D02*
X0105874Y0195018D01*
X0104275Y0196617D02*
X0096879Y0196617D01*
X0098391Y0198215D02*
X0102677Y0198215D01*
X0101078Y0199814D02*
X0099179Y0199814D01*
X0093204Y0199814D02*
X0092245Y0199814D01*
X0092245Y0201412D02*
X0093204Y0201412D01*
X0092724Y0202000D02*
X0092270Y0201875D01*
X0090395Y0200000D01*
X0071645Y0200000D01*
X0066645Y0205000D01*
X0066630Y0205000D01*
X0067306Y0204609D02*
X0075657Y0204609D01*
X0075657Y0203011D02*
X0071383Y0203011D01*
X0071383Y0201810D02*
X0071383Y0204324D01*
X0067306Y0204324D01*
X0067306Y0205676D01*
X0071383Y0205676D01*
X0071383Y0208190D01*
X0071260Y0208648D01*
X0071023Y0209058D01*
X0070688Y0209393D01*
X0070277Y0209630D01*
X0069820Y0209753D01*
X0067306Y0209753D01*
X0067306Y0205676D01*
X0065954Y0205676D01*
X0065954Y0209753D01*
X0063440Y0209753D01*
X0062982Y0209630D01*
X0062572Y0209393D01*
X0062237Y0209058D01*
X0062000Y0208648D01*
X0061877Y0208190D01*
X0061877Y0205676D01*
X0065953Y0205676D01*
X0065953Y0204324D01*
X0061877Y0204324D01*
X0061877Y0201810D01*
X0062000Y0201352D01*
X0062237Y0200942D01*
X0062572Y0200607D01*
X0062982Y0200370D01*
X0063440Y0200247D01*
X0065954Y0200247D01*
X0065954Y0204324D01*
X0067306Y0204324D01*
X0067306Y0200247D01*
X0069820Y0200247D01*
X0070277Y0200370D01*
X0070688Y0200607D01*
X0071023Y0200942D01*
X0071260Y0201352D01*
X0071383Y0201810D01*
X0071276Y0201412D02*
X0075657Y0201412D01*
X0075657Y0206208D02*
X0071383Y0206208D01*
X0071383Y0207806D02*
X0075657Y0207806D01*
X0076363Y0209405D02*
X0070667Y0209405D01*
X0067306Y0209405D02*
X0065954Y0209405D01*
X0065954Y0207806D02*
X0067306Y0207806D01*
X0067306Y0206208D02*
X0065954Y0206208D01*
X0065953Y0204609D02*
X0017520Y0204609D01*
X0017520Y0203011D02*
X0061877Y0203011D01*
X0061984Y0201412D02*
X0017520Y0201412D01*
X0017520Y0199814D02*
X0027596Y0199814D01*
X0026348Y0198215D02*
X0017520Y0198215D01*
X0017520Y0196617D02*
X0025741Y0196617D01*
X0025609Y0195018D02*
X0017520Y0195018D01*
X0017520Y0193420D02*
X0025609Y0193420D01*
X0025609Y0191821D02*
X0017520Y0191821D01*
X0017520Y0190223D02*
X0025609Y0190223D01*
X0025609Y0188624D02*
X0017520Y0188624D01*
X0017520Y0187026D02*
X0025609Y0187026D01*
X0025734Y0185427D02*
X0017520Y0185427D01*
X0017520Y0183829D02*
X0026325Y0183829D01*
X0027552Y0182230D02*
X0017520Y0182230D01*
X0017520Y0180632D02*
X0031028Y0180632D01*
X0031709Y0180632D02*
X0031709Y0180632D01*
X0031709Y0182230D02*
X0031709Y0182230D01*
X0031709Y0183829D02*
X0031709Y0183829D01*
X0031709Y0185427D02*
X0031709Y0185427D01*
X0031709Y0187026D02*
X0031709Y0187026D01*
X0031709Y0188624D02*
X0031709Y0188624D01*
X0053538Y0174238D02*
X0129926Y0174238D01*
X0129420Y0172639D02*
X0053920Y0172639D01*
X0053920Y0171041D02*
X0129420Y0171041D01*
X0128035Y0169442D02*
X0053320Y0169442D01*
X0052188Y0167844D02*
X0126436Y0167844D01*
X0127270Y0165000D02*
X0102895Y0165000D01*
X0099145Y0161250D01*
X0098520Y0161000D01*
X0098520Y0160625D01*
X0084145Y0146250D01*
X0081020Y0146250D01*
X0080520Y0146000D01*
X0075261Y0150260D02*
X0073022Y0150260D01*
X0073427Y0148662D02*
X0071424Y0148662D01*
X0072765Y0147063D02*
X0069825Y0147063D01*
X0068227Y0145465D02*
X0072720Y0145465D01*
X0073208Y0143866D02*
X0066628Y0143866D01*
X0065030Y0142268D02*
X0074464Y0142268D01*
X0076249Y0140669D02*
X0063431Y0140669D01*
X0061833Y0139070D02*
X0073802Y0139070D01*
X0072934Y0137472D02*
X0060234Y0137472D01*
X0060020Y0135873D02*
X0072720Y0135873D01*
X0073039Y0134275D02*
X0059758Y0134275D01*
X0058974Y0132676D02*
X0074055Y0132676D01*
X0080520Y0136000D02*
X0081020Y0135625D01*
X0094145Y0135625D01*
X0098520Y0131250D01*
X0098520Y0131000D01*
X0102920Y0131078D02*
X0114070Y0131078D01*
X0113920Y0129479D02*
X0102920Y0129479D01*
X0102920Y0132676D02*
X0114891Y0132676D01*
X0117303Y0134275D02*
X0101467Y0134275D01*
X0097573Y0135873D02*
X0130920Y0135873D01*
X0130920Y0134275D02*
X0129737Y0134275D01*
X0127303Y0134275D02*
X0119737Y0134275D01*
X0122149Y0132676D02*
X0124891Y0132676D01*
X0124070Y0131078D02*
X0122969Y0131078D01*
X0123120Y0129479D02*
X0123920Y0129479D01*
X0123920Y0127881D02*
X0123120Y0127881D01*
X0123120Y0126282D02*
X0123920Y0126282D01*
X0123920Y0124684D02*
X0123120Y0124684D01*
X0123037Y0123085D02*
X0124002Y0123085D01*
X0123830Y0121487D02*
X0122312Y0121487D01*
X0122231Y0119888D02*
X0120131Y0119888D01*
X0120633Y0118290D02*
X0031445Y0118290D01*
X0031445Y0119888D02*
X0116909Y0119888D01*
X0114727Y0121487D02*
X0031445Y0121487D01*
X0031445Y0123085D02*
X0114002Y0123085D01*
X0119034Y0116691D02*
X0031445Y0116691D01*
X0031445Y0115093D02*
X0117436Y0115093D01*
X0112791Y0113494D02*
X0098248Y0113494D01*
X0097342Y0114400D02*
X0099920Y0111823D01*
X0099920Y0110000D01*
X0095520Y0110000D01*
X0095520Y0110000D01*
X0099920Y0110000D01*
X0099920Y0108177D01*
X0097342Y0105600D01*
X0095520Y0105600D01*
X0095520Y0110000D01*
X0095520Y0110000D01*
X0095520Y0110000D01*
X0095520Y0114400D01*
X0097342Y0114400D01*
X0095520Y0114400D02*
X0093697Y0114400D01*
X0091120Y0111823D01*
X0091120Y0110000D01*
X0091120Y0108177D01*
X0093697Y0105600D01*
X0095520Y0105600D01*
X0095520Y0110000D01*
X0094770Y0110000D01*
X0089770Y0115000D01*
X0069770Y0115000D01*
X0064770Y0110000D01*
X0064520Y0110000D01*
X0068920Y0110000D01*
X0068920Y0111823D01*
X0066342Y0114400D01*
X0064520Y0114400D01*
X0064520Y0110000D01*
X0064520Y0110000D01*
X0068920Y0110000D01*
X0068920Y0108177D01*
X0066342Y0105600D01*
X0064520Y0105600D01*
X0064520Y0110000D01*
X0064520Y0110000D01*
X0064520Y0110000D01*
X0064520Y0105600D01*
X0062697Y0105600D01*
X0060120Y0108177D01*
X0060120Y0110000D01*
X0064520Y0110000D01*
X0064520Y0114400D01*
X0062697Y0114400D01*
X0060120Y0111823D01*
X0060120Y0110000D01*
X0064520Y0110000D01*
X0064520Y0110000D01*
X0064520Y0110297D02*
X0064520Y0110297D01*
X0064520Y0108699D02*
X0064520Y0108699D01*
X0064520Y0107100D02*
X0064520Y0107100D01*
X0067842Y0107100D02*
X0077568Y0107100D01*
X0077359Y0106892D02*
X0077359Y0106892D01*
X0076628Y0106160D02*
X0076628Y0106160D01*
X0075970Y0105502D02*
X0031445Y0105502D01*
X0031445Y0107100D02*
X0061197Y0107100D01*
X0060120Y0108699D02*
X0031445Y0108699D01*
X0031445Y0110297D02*
X0060120Y0110297D01*
X0060193Y0111896D02*
X0031445Y0111896D01*
X0031445Y0113494D02*
X0061791Y0113494D01*
X0064520Y0113494D02*
X0064520Y0113494D01*
X0064520Y0111896D02*
X0064520Y0111896D01*
X0067248Y0113494D02*
X0081791Y0113494D01*
X0080193Y0111896D02*
X0068846Y0111896D01*
X0068920Y0110297D02*
X0080120Y0110297D01*
X0079167Y0108699D02*
X0068920Y0108699D01*
X0074371Y0103903D02*
X0048395Y0103903D01*
X0044520Y0100000D02*
X0074145Y0100000D01*
X0078832Y0104687D01*
X0079145Y0104375D01*
X0079770Y0104375D01*
X0106020Y0078125D01*
X0106520Y0078000D01*
X0109218Y0081524D02*
X0113666Y0081524D01*
X0112068Y0079926D02*
X0110817Y0079926D01*
X0115265Y0083123D02*
X0104699Y0083123D01*
X0103101Y0084721D02*
X0116863Y0084721D01*
X0118462Y0086320D02*
X0101502Y0086320D01*
X0099903Y0087918D02*
X0120060Y0087918D01*
X0121659Y0089517D02*
X0109259Y0089517D01*
X0110857Y0091115D02*
X0123257Y0091115D01*
X0124856Y0092714D02*
X0110920Y0092714D01*
X0111085Y0094312D02*
X0126454Y0094312D01*
X0128164Y0089517D02*
X0143781Y0089517D01*
X0149259Y0089517D02*
X0166220Y0089517D01*
X0166220Y0091115D02*
X0150857Y0091115D01*
X0150920Y0092714D02*
X0166220Y0092714D01*
X0166220Y0094312D02*
X0150920Y0094312D01*
X0149832Y0095911D02*
X0166220Y0095911D01*
X0166220Y0097509D02*
X0114282Y0097509D01*
X0115880Y0099108D02*
X0166220Y0099108D01*
X0157520Y0105600D02*
X0157520Y0110000D01*
X0161920Y0110000D01*
X0157520Y0110000D01*
X0157520Y0110000D01*
X0157520Y0110000D01*
X0157270Y0110000D01*
X0152582Y0105312D01*
X0152895Y0105000D01*
X0184770Y0105000D01*
X0188520Y0108750D01*
X0188520Y0109000D01*
X0192920Y0109000D01*
X0192920Y0111722D01*
X0194120Y0110522D01*
X0194120Y0105525D01*
X0194679Y0104175D01*
X0192324Y0104175D01*
X0192597Y0104711D01*
X0192811Y0105370D01*
X0192920Y0106054D01*
X0192920Y0109000D01*
X0188520Y0109000D01*
X0188520Y0109000D01*
X0188520Y0104175D01*
X0188520Y0104175D01*
X0188520Y0109000D01*
X0188520Y0109000D01*
X0184120Y0109000D01*
X0188520Y0109000D01*
X0188520Y0109000D01*
X0188520Y0108699D02*
X0188520Y0108699D01*
X0188520Y0107100D02*
X0188520Y0107100D01*
X0188520Y0105502D02*
X0188520Y0105502D01*
X0184207Y0105502D02*
X0083323Y0105502D01*
X0083918Y0103903D02*
X0114170Y0103903D01*
X0112572Y0102305D02*
X0085517Y0102305D01*
X0087115Y0100706D02*
X0110973Y0100706D01*
X0109375Y0099108D02*
X0088714Y0099108D01*
X0090312Y0097509D02*
X0107776Y0097509D01*
X0103208Y0095911D02*
X0091911Y0095911D01*
X0093509Y0094312D02*
X0102120Y0094312D01*
X0102120Y0092714D02*
X0095108Y0092714D01*
X0096706Y0091115D02*
X0102182Y0091115D01*
X0103781Y0089517D02*
X0098305Y0089517D01*
X0095747Y0084721D02*
X0095620Y0084721D01*
X0095620Y0083123D02*
X0097345Y0083123D01*
X0098944Y0081524D02*
X0094256Y0081524D01*
X0092658Y0079926D02*
X0100542Y0079926D01*
X0102120Y0078327D02*
X0084405Y0078327D01*
X0085620Y0077112D02*
X0082632Y0080100D01*
X0078407Y0080100D01*
X0075420Y0077112D01*
X0075420Y0072888D01*
X0078407Y0069900D01*
X0082632Y0069900D01*
X0085620Y0072888D01*
X0085620Y0077112D01*
X0085620Y0076729D02*
X0102120Y0076729D01*
X0096022Y0075130D02*
X0085620Y0075130D01*
X0085620Y0073532D02*
X0094424Y0073532D01*
X0092825Y0071933D02*
X0084665Y0071933D01*
X0083067Y0070334D02*
X0091227Y0070334D01*
X0089628Y0068736D02*
X0049888Y0068736D01*
X0050020Y0070334D02*
X0077973Y0070334D01*
X0076374Y0071933D02*
X0049675Y0071933D01*
X0048752Y0073532D02*
X0075420Y0073532D01*
X0075420Y0075130D02*
X0047135Y0075130D01*
X0049026Y0076729D02*
X0075420Y0076729D01*
X0076634Y0078327D02*
X0049780Y0078327D01*
X0050020Y0079926D02*
X0068382Y0079926D01*
X0068407Y0079900D02*
X0070520Y0079900D01*
X0072632Y0079900D01*
X0075620Y0082888D01*
X0075620Y0085000D01*
X0075620Y0087112D01*
X0072632Y0090100D01*
X0070520Y0090100D01*
X0070520Y0085000D01*
X0075620Y0085000D01*
X0070520Y0085000D01*
X0070520Y0085000D01*
X0070520Y0079900D01*
X0070520Y0085000D01*
X0070520Y0085000D01*
X0070520Y0085000D01*
X0072270Y0085000D01*
X0072270Y0070000D01*
X0044520Y0070000D01*
X0044770Y0070000D01*
X0044770Y0060000D01*
X0044520Y0060000D01*
X0044720Y0060200D02*
X0044320Y0060200D01*
X0044320Y0065500D01*
X0044320Y0069800D01*
X0044720Y0069800D01*
X0044720Y0060200D01*
X0044720Y0060743D02*
X0044320Y0060743D01*
X0044320Y0062342D02*
X0044720Y0062342D01*
X0044720Y0063940D02*
X0044320Y0063940D01*
X0044320Y0065539D02*
X0044720Y0065539D01*
X0044720Y0067137D02*
X0044320Y0067137D01*
X0044320Y0068736D02*
X0044720Y0068736D01*
X0047737Y0065539D02*
X0067971Y0065539D01*
X0068000Y0065648D02*
X0067877Y0065190D01*
X0067877Y0062676D01*
X0071953Y0062676D01*
X0071953Y0061324D01*
X0067877Y0061324D01*
X0067877Y0058810D01*
X0068000Y0058352D01*
X0068237Y0057942D01*
X0068572Y0057607D01*
X0068982Y0057370D01*
X0069440Y0057247D01*
X0071954Y0057247D01*
X0071954Y0061324D01*
X0073306Y0061324D01*
X0073306Y0062676D01*
X0077383Y0062676D01*
X0077383Y0065190D01*
X0077260Y0065648D01*
X0077023Y0066058D01*
X0076688Y0066393D01*
X0076277Y0066630D01*
X0075820Y0066753D01*
X0073306Y0066753D01*
X0073306Y0062676D01*
X0071954Y0062676D01*
X0071954Y0066753D01*
X0069440Y0066753D01*
X0068982Y0066630D01*
X0068572Y0066393D01*
X0068237Y0066058D01*
X0068000Y0065648D01*
X0067877Y0063940D02*
X0048357Y0063940D01*
X0049499Y0062342D02*
X0071953Y0062342D01*
X0072270Y0062500D02*
X0072630Y0062000D01*
X0072270Y0062500D02*
X0072270Y0070000D01*
X0071954Y0065539D02*
X0073306Y0065539D01*
X0073306Y0063940D02*
X0071954Y0063940D01*
X0073306Y0062342D02*
X0081657Y0062342D01*
X0081657Y0063940D02*
X0077383Y0063940D01*
X0077289Y0065539D02*
X0081657Y0065539D01*
X0081657Y0060743D02*
X0077383Y0060743D01*
X0077383Y0061324D02*
X0073306Y0061324D01*
X0073306Y0057247D01*
X0075820Y0057247D01*
X0076277Y0057370D01*
X0076688Y0057607D01*
X0077023Y0057942D01*
X0077260Y0058352D01*
X0077383Y0058810D01*
X0077383Y0061324D01*
X0077383Y0059145D02*
X0081657Y0059145D01*
X0082412Y0057546D02*
X0076583Y0057546D01*
X0073306Y0057546D02*
X0071954Y0057546D01*
X0071954Y0059145D02*
X0073306Y0059145D01*
X0073306Y0060743D02*
X0071954Y0060743D01*
X0067877Y0060743D02*
X0049970Y0060743D01*
X0049953Y0059145D02*
X0067877Y0059145D01*
X0068677Y0057546D02*
X0049442Y0057546D01*
X0049234Y0067137D02*
X0088029Y0067137D01*
X0097732Y0070334D02*
X0108152Y0070334D01*
X0118385Y0067137D02*
X0143435Y0067137D01*
X0123368Y0084721D02*
X0170546Y0084721D01*
X0172144Y0083123D02*
X0121770Y0083123D01*
X0124967Y0086320D02*
X0168947Y0086320D01*
X0167349Y0087918D02*
X0126565Y0087918D01*
X0112683Y0095911D02*
X0143208Y0095911D01*
X0152270Y0105000D02*
X0121020Y0105000D01*
X0126020Y0110000D01*
X0126520Y0110000D01*
X0130920Y0110000D01*
X0126520Y0110000D01*
X0126520Y0110000D01*
X0126520Y0105600D01*
X0126520Y0110000D01*
X0126520Y0110000D01*
X0122120Y0110000D01*
X0126520Y0110000D01*
X0126520Y0110000D01*
X0126520Y0108699D02*
X0126520Y0108699D01*
X0126520Y0107100D02*
X0126520Y0107100D01*
X0129842Y0107100D02*
X0143197Y0107100D01*
X0142120Y0108699D02*
X0130920Y0108699D01*
X0130920Y0110297D02*
X0142120Y0110297D01*
X0142193Y0111896D02*
X0130846Y0111896D01*
X0123197Y0107100D02*
X0118842Y0107100D01*
X0119920Y0108699D02*
X0122120Y0108699D01*
X0122120Y0110297D02*
X0119994Y0110297D01*
X0121592Y0111896D02*
X0122193Y0111896D01*
X0116020Y0110000D02*
X0115520Y0110000D01*
X0116020Y0110000D02*
X0125395Y0119375D01*
X0130395Y0119375D01*
X0133520Y0122500D01*
X0133520Y0149375D01*
X0181020Y0149375D01*
X0188520Y0156875D01*
X0188520Y0157000D01*
X0195855Y0169442D02*
X0178980Y0169442D01*
X0179620Y0171041D02*
X0195120Y0171041D01*
X0195120Y0172639D02*
X0179620Y0172639D01*
X0179113Y0174238D02*
X0195535Y0174238D01*
X0197133Y0175836D02*
X0177896Y0175836D01*
X0173453Y0177435D02*
X0211452Y0177435D01*
X0213050Y0179033D02*
X0171854Y0179033D01*
X0169817Y0187026D02*
X0146622Y0187026D01*
X0145023Y0188624D02*
X0169420Y0188624D01*
X0169506Y0190223D02*
X0143425Y0190223D01*
X0141826Y0191821D02*
X0170168Y0191821D01*
X0171863Y0193420D02*
X0140227Y0193420D01*
X0138629Y0195018D02*
X0176170Y0195018D01*
X0177769Y0196617D02*
X0137030Y0196617D01*
X0135432Y0198215D02*
X0179367Y0198215D01*
X0181525Y0199814D02*
X0133833Y0199814D01*
X0132268Y0201412D02*
X0132235Y0201412D01*
X0129575Y0204609D02*
X0124594Y0204609D01*
X0123724Y0206208D02*
X0129420Y0206208D01*
X0129748Y0207806D02*
X0122066Y0207806D01*
X0114564Y0207806D02*
X0099591Y0207806D01*
X0101189Y0206208D02*
X0112906Y0206208D01*
X0112036Y0204609D02*
X0102788Y0204609D01*
X0104386Y0203011D02*
X0111515Y0203011D01*
X0111515Y0201412D02*
X0105985Y0201412D01*
X0107583Y0199814D02*
X0111860Y0199814D01*
X0112522Y0198215D02*
X0109182Y0198215D01*
X0111770Y0196617D02*
X0114081Y0196617D01*
X0112750Y0195018D02*
X0132124Y0195018D01*
X0130525Y0196617D02*
X0122548Y0196617D01*
X0124108Y0198215D02*
X0128927Y0198215D01*
X0136771Y0201412D02*
X0172268Y0201412D01*
X0171631Y0201676D02*
X0173505Y0200900D01*
X0175534Y0200900D01*
X0177409Y0201676D01*
X0178843Y0203111D01*
X0179620Y0204986D01*
X0179620Y0207014D01*
X0178843Y0208889D01*
X0177409Y0210324D01*
X0175534Y0211100D01*
X0173505Y0211100D01*
X0171631Y0210324D01*
X0170196Y0208889D01*
X0169420Y0207014D01*
X0169420Y0204986D01*
X0170196Y0203111D01*
X0171631Y0201676D01*
X0170296Y0203011D02*
X0138743Y0203011D01*
X0139464Y0204609D02*
X0169575Y0204609D01*
X0169420Y0206208D02*
X0139620Y0206208D01*
X0139292Y0207806D02*
X0169748Y0207806D01*
X0170712Y0209405D02*
X0138327Y0209405D01*
X0135767Y0211003D02*
X0173272Y0211003D01*
X0175767Y0211003D02*
X0277251Y0211003D01*
X0260611Y0209405D02*
X0251337Y0209405D01*
X0252920Y0207806D02*
X0258538Y0207806D01*
X0257825Y0206208D02*
X0252920Y0206208D01*
X0248520Y0206208D02*
X0248520Y0206208D01*
X0248520Y0206000D02*
X0248520Y0210400D01*
X0246697Y0210400D01*
X0248520Y0209405D02*
X0248520Y0209405D01*
X0248520Y0207806D02*
X0248520Y0207806D01*
X0248520Y0206000D02*
X0244120Y0206000D01*
X0248520Y0206000D01*
X0248520Y0206000D01*
X0245286Y0203011D02*
X0231753Y0203011D01*
X0232920Y0204609D02*
X0244120Y0204609D01*
X0244120Y0206208D02*
X0232920Y0206208D01*
X0232920Y0207806D02*
X0244120Y0207806D01*
X0246939Y0201412D02*
X0176771Y0201412D01*
X0178743Y0203011D02*
X0195286Y0203011D01*
X0194120Y0204609D02*
X0179464Y0204609D01*
X0179620Y0206208D02*
X0194120Y0206208D01*
X0194120Y0207806D02*
X0179292Y0207806D01*
X0178327Y0209405D02*
X0195702Y0209405D01*
X0198520Y0204609D02*
X0198520Y0204609D01*
X0198520Y0203011D02*
X0198520Y0203011D01*
X0228007Y0179033D02*
X0245751Y0179033D01*
X0244152Y0177435D02*
X0228395Y0177435D01*
X0215737Y0171041D02*
X0245120Y0171041D01*
X0245855Y0169442D02*
X0214139Y0169442D01*
X0212540Y0167844D02*
X0247453Y0167844D01*
X0251586Y0167844D02*
X0258575Y0167844D01*
X0257840Y0166245D02*
X0251777Y0166245D01*
X0253376Y0164647D02*
X0257720Y0164647D01*
X0258133Y0163048D02*
X0254974Y0163048D01*
X0256573Y0161450D02*
X0259282Y0161450D01*
X0260701Y0169442D02*
X0253184Y0169442D01*
X0253920Y0171041D02*
X0259803Y0171041D01*
X0260004Y0170895D02*
X0260677Y0170552D01*
X0261396Y0170318D01*
X0262142Y0170200D01*
X0265320Y0170200D01*
X0265320Y0174800D01*
X0257720Y0174800D01*
X0257720Y0174622D01*
X0257838Y0173876D01*
X0258071Y0173157D01*
X0258414Y0172484D01*
X0258858Y0171873D01*
X0259393Y0171339D01*
X0260004Y0170895D01*
X0258335Y0172639D02*
X0253920Y0172639D01*
X0253504Y0174238D02*
X0257781Y0174238D01*
X0257792Y0175836D02*
X0251906Y0175836D01*
X0251506Y0177435D02*
X0258373Y0177435D01*
X0259905Y0179033D02*
X0253105Y0179033D01*
X0254703Y0180632D02*
X0260520Y0180632D01*
X0258599Y0182230D02*
X0256302Y0182230D01*
X0265320Y0182230D02*
X0265720Y0182230D01*
X0265720Y0180632D02*
X0265320Y0180632D01*
X0265320Y0179033D02*
X0265720Y0179033D01*
X0265720Y0177435D02*
X0265320Y0177435D01*
X0265320Y0175836D02*
X0265720Y0175836D01*
X0265520Y0175000D02*
X0265395Y0175000D01*
X0265395Y0185000D01*
X0265520Y0185000D01*
X0265720Y0185200D02*
X0265320Y0185200D01*
X0265320Y0189800D01*
X0263872Y0189800D01*
X0264272Y0190200D01*
X0269474Y0190200D01*
X0271220Y0190923D01*
X0271220Y0188971D01*
X0271035Y0189105D01*
X0270362Y0189448D01*
X0269644Y0189682D01*
X0268897Y0189800D01*
X0265720Y0189800D01*
X0265720Y0185200D01*
X0265720Y0185427D02*
X0265320Y0185427D01*
X0265320Y0183829D02*
X0265720Y0183829D01*
X0265720Y0187026D02*
X0265320Y0187026D01*
X0265320Y0188624D02*
X0265720Y0188624D01*
X0269530Y0190223D02*
X0271220Y0190223D01*
X0271220Y0180632D02*
X0270519Y0180632D01*
X0271135Y0179033D02*
X0271220Y0179033D01*
X0265720Y0174238D02*
X0265320Y0174238D01*
X0265320Y0172639D02*
X0265720Y0172639D01*
X0265720Y0171041D02*
X0265320Y0171041D01*
X0224012Y0166245D02*
X0210942Y0166245D01*
X0209343Y0164647D02*
X0222414Y0164647D01*
X0215262Y0163048D02*
X0211777Y0163048D01*
X0212815Y0161450D02*
X0214224Y0161450D01*
X0213920Y0159851D02*
X0213120Y0159851D01*
X0213120Y0158253D02*
X0213920Y0158253D01*
X0213920Y0156654D02*
X0213120Y0156654D01*
X0213120Y0155056D02*
X0213920Y0155056D01*
X0213920Y0153457D02*
X0213120Y0153457D01*
X0203459Y0169442D02*
X0203184Y0169442D01*
X0203920Y0171041D02*
X0205058Y0171041D01*
X0203920Y0172639D02*
X0206656Y0172639D01*
X0208255Y0174238D02*
X0203504Y0174238D01*
X0201906Y0175836D02*
X0209853Y0175836D01*
X0190067Y0141450D02*
X0171425Y0141450D01*
X0171520Y0141222D01*
X0171520Y0140028D01*
X0171063Y0138926D01*
X0170820Y0138682D01*
X0170820Y0137812D01*
X0171469Y0137543D01*
X0171712Y0137300D01*
X0173847Y0137300D01*
X0175195Y0135953D01*
X0175195Y0132980D01*
X0175914Y0133700D01*
X0177605Y0134400D01*
X0179435Y0134400D01*
X0181067Y0133724D01*
X0183870Y0136527D01*
X0183870Y0136926D01*
X0184387Y0138176D01*
X0185344Y0139132D01*
X0186593Y0139650D01*
X0187946Y0139650D01*
X0189196Y0139132D01*
X0190152Y0138176D01*
X0190670Y0136926D01*
X0190670Y0135574D01*
X0190152Y0134324D01*
X0189988Y0134160D01*
X0190285Y0134063D01*
X0190931Y0133734D01*
X0191516Y0133309D01*
X0192028Y0132797D01*
X0192454Y0132211D01*
X0192783Y0131566D01*
X0193006Y0130877D01*
X0193120Y0130162D01*
X0193120Y0127037D01*
X0188556Y0127037D01*
X0188556Y0126963D01*
X0193120Y0126963D01*
X0193120Y0123838D01*
X0193006Y0123123D01*
X0192783Y0122434D01*
X0192454Y0121789D01*
X0192371Y0121675D01*
X0194587Y0121675D01*
X0193920Y0123285D01*
X0193920Y0130715D01*
X0194620Y0132406D01*
X0195914Y0133700D01*
X0197260Y0134257D01*
X0190067Y0141450D01*
X0190848Y0140669D02*
X0171520Y0140669D01*
X0171123Y0139070D02*
X0185282Y0139070D01*
X0184096Y0137472D02*
X0171540Y0137472D01*
X0175195Y0135873D02*
X0183216Y0135873D01*
X0181618Y0134275D02*
X0179737Y0134275D01*
X0177303Y0134275D02*
X0175195Y0134275D01*
X0183120Y0128423D02*
X0183920Y0129223D01*
X0183920Y0127037D01*
X0188483Y0127037D01*
X0188483Y0126963D01*
X0183920Y0126963D01*
X0183920Y0123838D01*
X0184033Y0123123D01*
X0184257Y0122434D01*
X0184585Y0121789D01*
X0184668Y0121675D01*
X0182453Y0121675D01*
X0183120Y0123285D01*
X0183120Y0128423D01*
X0183120Y0127881D02*
X0183920Y0127881D01*
X0183920Y0126282D02*
X0183120Y0126282D01*
X0183120Y0124684D02*
X0183920Y0124684D01*
X0184045Y0123085D02*
X0183037Y0123085D01*
X0178520Y0127000D02*
X0178520Y0127500D01*
X0187270Y0136250D01*
X0190444Y0137472D02*
X0194045Y0137472D01*
X0192447Y0139070D02*
X0189258Y0139070D01*
X0190670Y0135873D02*
X0195644Y0135873D01*
X0197242Y0134275D02*
X0190103Y0134275D01*
X0192116Y0132676D02*
X0194891Y0132676D01*
X0194070Y0131078D02*
X0192941Y0131078D01*
X0193120Y0129479D02*
X0193920Y0129479D01*
X0193920Y0127881D02*
X0193120Y0127881D01*
X0193120Y0126282D02*
X0193920Y0126282D01*
X0193920Y0124684D02*
X0193120Y0124684D01*
X0192994Y0123085D02*
X0194002Y0123085D01*
X0184547Y0113494D02*
X0180248Y0113494D01*
X0181846Y0111896D02*
X0184120Y0111896D01*
X0184120Y0110297D02*
X0181920Y0110297D01*
X0181920Y0108699D02*
X0184120Y0108699D01*
X0184120Y0107100D02*
X0180842Y0107100D01*
X0177520Y0110000D02*
X0177270Y0110000D01*
X0172270Y0115000D01*
X0151645Y0115000D01*
X0146645Y0110000D01*
X0146520Y0110000D01*
X0150920Y0110297D02*
X0153120Y0110297D01*
X0153120Y0110000D02*
X0157520Y0110000D01*
X0157520Y0105600D01*
X0157520Y0107100D02*
X0157520Y0107100D01*
X0157520Y0108699D02*
X0157520Y0108699D01*
X0157520Y0110000D02*
X0153120Y0110000D01*
X0153120Y0108699D02*
X0150920Y0108699D01*
X0149842Y0107100D02*
X0154197Y0107100D01*
X0152582Y0105312D02*
X0152270Y0105000D01*
X0157520Y0110000D02*
X0157520Y0110000D01*
X0161920Y0110297D02*
X0173120Y0110297D01*
X0173120Y0108699D02*
X0161920Y0108699D01*
X0160842Y0107100D02*
X0174197Y0107100D01*
X0171697Y0111896D02*
X0161846Y0111896D01*
X0153193Y0111896D02*
X0152217Y0111896D01*
X0148061Y0115093D02*
X0139990Y0115093D01*
X0141589Y0116691D02*
X0149659Y0116691D01*
X0151770Y0118290D02*
X0143187Y0118290D01*
X0144786Y0119888D02*
X0146909Y0119888D01*
X0150131Y0119888D02*
X0151845Y0119888D01*
X0143791Y0113494D02*
X0138392Y0113494D01*
X0121020Y0105000D02*
X0101020Y0105000D01*
X0096020Y0110000D01*
X0095520Y0110000D01*
X0095520Y0114400D01*
X0095520Y0113494D02*
X0095520Y0113494D01*
X0095520Y0111896D02*
X0095520Y0111896D01*
X0095520Y0110297D02*
X0095520Y0110297D01*
X0095520Y0110000D02*
X0095520Y0110000D01*
X0091120Y0110000D01*
X0095520Y0110000D01*
X0095520Y0108699D02*
X0095520Y0108699D01*
X0095520Y0107100D02*
X0095520Y0107100D01*
X0098842Y0107100D02*
X0112197Y0107100D01*
X0111120Y0108699D02*
X0099920Y0108699D01*
X0099920Y0110297D02*
X0111120Y0110297D01*
X0111193Y0111896D02*
X0099846Y0111896D01*
X0092791Y0113494D02*
X0087248Y0113494D01*
X0088846Y0111896D02*
X0091193Y0111896D01*
X0091120Y0110297D02*
X0088920Y0110297D01*
X0088920Y0108699D02*
X0091120Y0108699D01*
X0092197Y0107100D02*
X0087842Y0107100D01*
X0084520Y0110000D02*
X0084145Y0110000D01*
X0078832Y0104687D01*
X0078528Y0100706D02*
X0079762Y0100706D01*
X0081360Y0099108D02*
X0076929Y0099108D01*
X0074925Y0097509D02*
X0082959Y0097509D01*
X0084557Y0095911D02*
X0048209Y0095911D01*
X0047986Y0094312D02*
X0086156Y0094312D01*
X0087754Y0092714D02*
X0049349Y0092714D01*
X0050011Y0091115D02*
X0089353Y0091115D01*
X0087824Y0089517D02*
X0073216Y0089517D01*
X0074814Y0087918D02*
X0086225Y0087918D01*
X0085420Y0086320D02*
X0075620Y0086320D01*
X0075620Y0084721D02*
X0085420Y0084721D01*
X0085420Y0083123D02*
X0075620Y0083123D01*
X0074256Y0081524D02*
X0086783Y0081524D01*
X0088382Y0079926D02*
X0082807Y0079926D01*
X0078233Y0079926D02*
X0072658Y0079926D01*
X0070520Y0079926D02*
X0070520Y0079926D01*
X0070520Y0081524D02*
X0070520Y0081524D01*
X0070520Y0083123D02*
X0070520Y0083123D01*
X0070520Y0084721D02*
X0070520Y0084721D01*
X0070520Y0085000D02*
X0065420Y0085000D01*
X0065420Y0082888D01*
X0068407Y0079900D01*
X0066783Y0081524D02*
X0049842Y0081524D01*
X0049175Y0083123D02*
X0065420Y0083123D01*
X0065420Y0084721D02*
X0047494Y0084721D01*
X0048617Y0086320D02*
X0065420Y0086320D01*
X0065420Y0087112D02*
X0065420Y0085000D01*
X0070520Y0085000D01*
X0070520Y0090100D01*
X0068407Y0090100D01*
X0065420Y0087112D01*
X0066225Y0087918D02*
X0049610Y0087918D01*
X0050020Y0089517D02*
X0067824Y0089517D01*
X0070520Y0089517D02*
X0070520Y0089517D01*
X0070520Y0087918D02*
X0070520Y0087918D01*
X0070520Y0086320D02*
X0070520Y0086320D01*
X0070520Y0085000D02*
X0070520Y0085000D01*
X0040645Y0103903D02*
X0038395Y0103903D01*
X0039518Y0102305D02*
X0039521Y0102305D01*
X0046520Y0129479D02*
X0094120Y0129479D01*
X0094120Y0131078D02*
X0057009Y0131078D01*
X0052030Y0131078D02*
X0046520Y0131078D01*
X0046520Y0132676D02*
X0050065Y0132676D01*
X0049281Y0134275D02*
X0046520Y0134275D01*
X0046520Y0135873D02*
X0049020Y0135873D01*
X0049176Y0137472D02*
X0046520Y0137472D01*
X0046520Y0139070D02*
X0049838Y0139070D01*
X0051419Y0140669D02*
X0046520Y0140669D01*
X0046520Y0142268D02*
X0056545Y0142268D01*
X0058143Y0143866D02*
X0046520Y0143866D01*
X0046520Y0145465D02*
X0059742Y0145465D01*
X0061340Y0147063D02*
X0046520Y0147063D01*
X0046520Y0148662D02*
X0062939Y0148662D01*
X0064537Y0150260D02*
X0052032Y0150260D01*
X0049020Y0155056D02*
X0046520Y0155056D01*
X0046520Y0156654D02*
X0049020Y0156654D01*
X0049500Y0158253D02*
X0046520Y0158253D01*
X0046520Y0159851D02*
X0050593Y0159851D01*
X0053304Y0161450D02*
X0046520Y0161450D01*
X0046520Y0163048D02*
X0094345Y0163048D01*
X0094120Y0161450D02*
X0055735Y0161450D01*
X0058447Y0159851D02*
X0074583Y0159851D01*
X0072649Y0158253D02*
X0059540Y0158253D01*
X0060020Y0156654D02*
X0070931Y0156654D01*
X0069333Y0155056D02*
X0060020Y0155056D01*
X0059420Y0153457D02*
X0067734Y0153457D01*
X0066136Y0151859D02*
X0058156Y0151859D01*
X0074621Y0151859D02*
X0074975Y0151859D01*
X0086064Y0151859D02*
X0086076Y0151859D01*
X0087662Y0153457D02*
X0087675Y0153457D01*
X0088320Y0155056D02*
X0089273Y0155056D01*
X0088320Y0156654D02*
X0090872Y0156654D01*
X0092470Y0158253D02*
X0087782Y0158253D01*
X0086457Y0159851D02*
X0094069Y0159851D01*
X0095944Y0164647D02*
X0046520Y0164647D01*
X0049619Y0166245D02*
X0100463Y0166245D01*
X0103021Y0161450D02*
X0114224Y0161450D01*
X0113920Y0159851D02*
X0102920Y0159851D01*
X0101995Y0158253D02*
X0113920Y0158253D01*
X0113920Y0156654D02*
X0100396Y0156654D01*
X0096627Y0155056D02*
X0113920Y0155056D01*
X0113920Y0153457D02*
X0095029Y0153457D01*
X0093430Y0151859D02*
X0114511Y0151859D01*
X0116011Y0150260D02*
X0091832Y0150260D01*
X0090233Y0148662D02*
X0130920Y0148662D01*
X0130920Y0147063D02*
X0088635Y0147063D01*
X0088320Y0145465D02*
X0130920Y0145465D01*
X0130920Y0143866D02*
X0087831Y0143866D01*
X0086575Y0142268D02*
X0130920Y0142268D01*
X0130920Y0140669D02*
X0084791Y0140669D01*
X0087237Y0139070D02*
X0130920Y0139070D01*
X0130920Y0137472D02*
X0095975Y0137472D01*
X0093416Y0132676D02*
X0086984Y0132676D01*
X0121028Y0150260D02*
X0126011Y0150260D01*
X0124511Y0151859D02*
X0122529Y0151859D01*
X0123120Y0153457D02*
X0123920Y0153457D01*
X0123920Y0155056D02*
X0123120Y0155056D01*
X0123120Y0156654D02*
X0123920Y0156654D01*
X0123920Y0158253D02*
X0123120Y0158253D01*
X0123120Y0159851D02*
X0123920Y0159851D01*
X0124224Y0161450D02*
X0122815Y0161450D01*
X0127270Y0165000D02*
X0134145Y0171875D01*
X0134520Y0172000D01*
X0144912Y0182230D02*
X0090512Y0182230D01*
X0088913Y0183829D02*
X0143313Y0183829D01*
X0141715Y0185427D02*
X0138159Y0185427D01*
X0139222Y0187026D02*
X0140116Y0187026D01*
X0130880Y0185427D02*
X0061406Y0185427D01*
X0061431Y0187026D02*
X0129817Y0187026D01*
X0130712Y0209405D02*
X0097992Y0209405D01*
X0096394Y0211003D02*
X0133272Y0211003D01*
X0093204Y0198215D02*
X0092245Y0198215D01*
X0092245Y0196617D02*
X0093204Y0196617D01*
X0084126Y0183829D02*
X0068913Y0183829D01*
X0067306Y0201412D02*
X0065954Y0201412D01*
X0065954Y0203011D02*
X0067306Y0203011D01*
X0061877Y0206208D02*
X0017520Y0206208D01*
X0017520Y0207806D02*
X0061877Y0207806D01*
X0062593Y0209405D02*
X0017555Y0209405D01*
X0041520Y0145000D02*
X0038402Y0141882D01*
X0033543Y0141882D01*
X0131028Y0150260D02*
X0131072Y0150260D01*
X0151777Y0163048D02*
X0155262Y0163048D01*
X0154224Y0161450D02*
X0152815Y0161450D01*
X0153120Y0159851D02*
X0153920Y0159851D01*
X0153920Y0158253D02*
X0153120Y0158253D01*
X0153120Y0156654D02*
X0153920Y0156654D01*
X0153920Y0155056D02*
X0153120Y0155056D01*
X0153120Y0153457D02*
X0153920Y0153457D01*
X0163120Y0153457D02*
X0163920Y0153457D01*
X0163920Y0155056D02*
X0163120Y0155056D01*
X0163120Y0156654D02*
X0163920Y0156654D01*
X0163920Y0158253D02*
X0163120Y0158253D01*
X0163120Y0159851D02*
X0163920Y0159851D01*
X0164224Y0161450D02*
X0162815Y0161450D01*
X0161777Y0163048D02*
X0165262Y0163048D01*
X0192920Y0110297D02*
X0194120Y0110297D01*
X0194120Y0108699D02*
X0192920Y0108699D01*
X0192920Y0107100D02*
X0194120Y0107100D01*
X0194129Y0105502D02*
X0192832Y0105502D01*
X0069520Y0017000D02*
X0069145Y0017500D01*
X0054770Y0031875D01*
X0036645Y0031875D01*
X0031020Y0026250D01*
X0030520Y0026000D01*
X0050720Y0026200D02*
X0056020Y0026200D01*
X0056020Y0026433D01*
X0055923Y0027045D01*
X0064920Y0018048D01*
X0064920Y0013285D01*
X0065587Y0011675D01*
X0053973Y0011675D01*
X0055182Y0012884D01*
X0056020Y0014906D01*
X0056020Y0017094D01*
X0055182Y0019115D01*
X0053635Y0020663D01*
X0052821Y0021000D01*
X0053402Y0021296D01*
X0054103Y0021805D01*
X0054715Y0022417D01*
X0055224Y0023117D01*
X0055617Y0023889D01*
X0055884Y0024712D01*
X0056020Y0025567D01*
X0056020Y0025800D01*
X0050720Y0025800D01*
X0050720Y0026200D01*
X0056020Y0025576D02*
X0057392Y0025576D01*
X0058990Y0023978D02*
X0055646Y0023978D01*
X0054677Y0022379D02*
X0060589Y0022379D01*
X0062187Y0020781D02*
X0053350Y0020781D01*
X0055116Y0019182D02*
X0063786Y0019182D01*
X0064920Y0017584D02*
X0055817Y0017584D01*
X0056020Y0015985D02*
X0064920Y0015985D01*
X0064920Y0014387D02*
X0055805Y0014387D01*
X0055086Y0012788D02*
X0065126Y0012788D01*
D29*
X0189770Y0091250D03*
X0210395Y0052500D03*
X0261020Y0128750D03*
X0187270Y0136250D03*
X0041520Y0145000D03*
D30*
X0034145Y0151875D02*
X0033543Y0152118D01*
X0034145Y0151875D02*
X0050395Y0151875D01*
X0054520Y0156000D01*
X0029145Y0126875D02*
X0118520Y0126875D01*
X0118520Y0127000D01*
X0125395Y0115000D02*
X0136645Y0115000D01*
X0148520Y0126875D01*
X0148520Y0127000D01*
X0154145Y0118750D02*
X0154770Y0118750D01*
X0154145Y0118750D02*
X0154145Y0143750D01*
X0157270Y0146875D01*
X0199145Y0146875D01*
X0218520Y0127500D01*
X0218520Y0127000D01*
X0228520Y0127000D02*
X0228520Y0127500D01*
X0235395Y0134375D01*
X0250395Y0134375D01*
X0272270Y0112500D01*
X0275395Y0109375D02*
X0248520Y0109375D01*
X0248520Y0109000D01*
X0244145Y0105625D02*
X0244145Y0126875D01*
X0248520Y0126875D01*
X0248520Y0127000D01*
X0238520Y0109000D02*
X0238520Y0108750D01*
X0231645Y0101875D01*
X0204145Y0101875D01*
X0204145Y0102500D01*
X0204145Y0101875D02*
X0115395Y0101875D01*
X0106520Y0093000D01*
X0109145Y0073750D02*
X0127895Y0092500D01*
X0146020Y0092500D01*
X0146520Y0093000D01*
X0168520Y0090000D02*
X0168520Y0099375D01*
X0237895Y0099375D01*
X0240707Y0102187D01*
X0247270Y0095625D01*
X0240707Y0102187D02*
X0244145Y0105625D01*
X0232895Y0096250D02*
X0231020Y0094375D01*
X0184770Y0094375D01*
X0176645Y0086250D01*
X0168520Y0090000D02*
X0186645Y0071875D01*
X0191645Y0071875D01*
X0198520Y0078750D01*
X0198520Y0079000D01*
X0208520Y0079000D02*
X0208520Y0078750D01*
X0217895Y0069375D01*
X0230395Y0069375D01*
X0233520Y0066250D01*
X0233520Y0057500D01*
X0279145Y0057500D01*
X0282270Y0054375D01*
X0282270Y0043125D01*
X0266020Y0043125D01*
X0265520Y0043000D01*
X0257895Y0046250D02*
X0257895Y0023125D01*
X0259145Y0021875D01*
X0259145Y0006875D01*
X0167895Y0006875D01*
X0157895Y0016875D01*
X0157520Y0017000D01*
X0155395Y0028125D02*
X0236645Y0028125D01*
X0236645Y0025000D02*
X0100395Y0025000D01*
X0100082Y0024687D01*
X0097895Y0026875D01*
X0078520Y0026875D01*
X0072895Y0032500D01*
X0072630Y0033000D01*
X0072270Y0033125D01*
X0070395Y0033125D01*
X0061645Y0041875D01*
X0058520Y0043125D02*
X0060395Y0045000D01*
X0070395Y0045000D01*
X0072270Y0046875D01*
X0072630Y0047000D01*
X0086409Y0047000D02*
X0086645Y0046875D01*
X0087895Y0045625D01*
X0129770Y0045625D01*
X0136645Y0052500D01*
X0134145Y0054375D02*
X0135395Y0055625D01*
X0227895Y0055625D01*
X0233520Y0054375D02*
X0234145Y0053750D01*
X0264770Y0053750D01*
X0265520Y0053000D01*
X0266020Y0053125D01*
X0279145Y0053125D01*
X0265520Y0063000D02*
X0264770Y0063750D01*
X0248520Y0063750D01*
X0248520Y0064000D01*
X0246020Y0071875D02*
X0264770Y0071875D01*
X0265395Y0072500D01*
X0265520Y0073000D01*
X0265520Y0083000D02*
X0262270Y0086250D01*
X0241020Y0086250D01*
X0228520Y0089375D02*
X0258520Y0089375D01*
X0246020Y0071875D02*
X0238520Y0064375D01*
X0238520Y0064000D01*
X0235395Y0071875D02*
X0228520Y0078750D01*
X0228520Y0079000D01*
X0218520Y0079000D02*
X0218520Y0079375D01*
X0228520Y0089375D01*
X0218520Y0109000D02*
X0218520Y0109375D01*
X0211020Y0116875D01*
X0204145Y0116875D01*
X0204145Y0130625D01*
X0191020Y0143750D01*
X0158520Y0143750D01*
X0168520Y0140625D02*
X0168520Y0138125D01*
X0164145Y0133750D01*
X0164145Y0117500D01*
X0175395Y0117500D01*
X0176645Y0116250D01*
X0191645Y0116250D01*
X0198520Y0109375D01*
X0198520Y0109000D01*
X0208520Y0109000D02*
X0208520Y0109375D01*
X0198520Y0119375D01*
X0176645Y0119375D01*
X0172895Y0123125D01*
X0172895Y0135000D01*
X0169770Y0135000D01*
X0138520Y0157000D02*
X0138520Y0157500D01*
X0147895Y0166875D01*
X0204145Y0166875D01*
X0214770Y0177500D01*
X0225395Y0177500D01*
X0237895Y0183750D02*
X0146645Y0183750D01*
X0128520Y0201875D01*
X0118520Y0201875D01*
X0118315Y0202000D01*
X0109770Y0194375D02*
X0095395Y0208750D01*
X0084770Y0208750D01*
X0081020Y0205000D01*
X0080409Y0205000D01*
X0029145Y0126875D02*
X0029145Y0085000D01*
X0034145Y0080000D01*
X0034520Y0080000D01*
X0033520Y0080000D01*
X0024770Y0071250D01*
X0022270Y0068125D02*
X0032270Y0068125D01*
X0034145Y0070000D01*
X0034520Y0070000D01*
X0034520Y0060000D02*
X0024770Y0060000D01*
X0024770Y0021875D01*
X0030395Y0016250D01*
X0030520Y0016000D01*
X0028520Y0010625D02*
X0022270Y0016875D01*
X0022270Y0068125D01*
X0034520Y0060000D02*
X0034770Y0060000D01*
X0040395Y0054375D01*
X0134145Y0054375D01*
X0139145Y0043125D02*
X0146020Y0050000D01*
X0146520Y0050000D01*
X0139145Y0043125D02*
X0096645Y0043125D01*
X0086645Y0033125D01*
X0086409Y0033000D01*
X0090395Y0024375D02*
X0097270Y0017500D01*
X0097520Y0017000D01*
X0100082Y0024687D02*
X0107270Y0017500D01*
X0107520Y0017000D01*
X0089145Y0017500D02*
X0081020Y0009375D01*
X0047270Y0009375D01*
X0041020Y0015625D01*
X0040520Y0016000D01*
X0040395Y0015625D01*
X0035395Y0010625D01*
X0028520Y0010625D01*
X0058520Y0031875D02*
X0065395Y0031875D01*
X0072895Y0024375D01*
X0090395Y0024375D01*
X0058520Y0031875D02*
X0058520Y0043125D01*
X0086409Y0062000D02*
X0086645Y0062500D01*
X0097895Y0073750D01*
X0109145Y0073750D01*
X0111020Y0071250D02*
X0118520Y0063750D01*
X0146020Y0063750D01*
X0146520Y0064000D01*
X0165395Y0052500D02*
X0171645Y0052500D01*
X0187895Y0036250D01*
X0204520Y0017000D02*
X0204770Y0016875D01*
X0212270Y0009375D01*
X0249145Y0009375D01*
X0249145Y0023125D01*
X0238520Y0033750D01*
X0238520Y0034000D01*
X0236645Y0025000D02*
X0244145Y0017500D01*
X0244520Y0017000D01*
X0218520Y0033750D02*
X0218520Y0034000D01*
X0218520Y0033750D02*
X0217895Y0033125D01*
X0156645Y0033125D01*
X0156520Y0033000D01*
X0155395Y0028125D02*
X0144770Y0038750D01*
X0275395Y0109375D02*
X0275395Y0139375D01*
X0250395Y0164375D01*
X0225395Y0164375D01*
X0218520Y0157500D01*
X0218520Y0157000D01*
X0237895Y0183750D02*
X0254145Y0200000D01*
X0273520Y0200000D01*
X0273520Y0172500D01*
X0266020Y0165000D01*
X0265520Y0165000D01*
D31*
X0225395Y0177500D03*
X0169770Y0135000D03*
X0168520Y0140625D03*
X0158520Y0143750D03*
X0154770Y0118750D03*
X0125395Y0115000D03*
X0176645Y0086250D03*
X0204145Y0102500D03*
X0232895Y0096250D03*
X0241020Y0086250D03*
X0247270Y0095625D03*
X0258520Y0089375D03*
X0235395Y0071875D03*
X0227895Y0055625D03*
X0233520Y0054375D03*
X0257895Y0046250D03*
X0279145Y0053125D03*
X0236645Y0028125D03*
X0187895Y0036250D03*
X0165395Y0052500D03*
X0144770Y0038750D03*
X0136645Y0052500D03*
X0111020Y0071250D03*
X0061645Y0041875D03*
X0089145Y0017500D03*
X0024770Y0071250D03*
X0109770Y0194375D03*
X0272270Y0112500D03*
D32*
X0182270Y0196875D02*
X0174770Y0189375D01*
X0174520Y0189000D01*
X0182270Y0196875D02*
X0246645Y0196875D01*
X0252895Y0203125D01*
X0263520Y0203125D01*
X0265395Y0205000D01*
X0265520Y0205000D01*
X0174520Y0172000D02*
X0174145Y0172500D01*
X0169145Y0177500D01*
X0089145Y0177500D01*
X0086645Y0180000D01*
X0086520Y0180000D01*
X0080520Y0156000D02*
X0080395Y0155625D01*
X0074145Y0155625D01*
X0054520Y0136000D01*
X0055395Y0190625D02*
X0055331Y0191000D01*
X0055395Y0190625D02*
X0132895Y0190625D01*
X0134520Y0189000D01*
M02*
