G75*
%MOIN*%
%OFA0B0*%
%FSLAX25Y25*%
%IPPOS*%
%LPD*%
%AMOC8*
5,1,8,0,0,1.08239X$1,22.5*
%
%ADD10C,0.00000*%
%ADD11C,0.00400*%
%ADD12C,0.00600*%
%ADD13C,0.00200*%
%ADD14C,0.00500*%
%ADD15C,0.01200*%
%ADD16R,0.02000X0.10000*%
%ADD17R,0.07500X0.03000*%
%ADD18C,0.00800*%
%ADD19C,0.00394*%
%ADD20C,0.02000*%
%ADD21R,0.05000X0.07500*%
%ADD22R,0.03000X0.07000*%
%ADD23R,0.05000X0.03000*%
%ADD24R,0.01673X0.01280*%
%ADD25R,0.01378X0.01378*%
%ADD26R,0.02400X0.03400*%
%ADD27R,0.02000X0.01500*%
%ADD28C,0.01000*%
%ADD29C,0.00700*%
%ADD30R,0.03400X0.02400*%
%ADD31C,0.00197*%
D10*
X0014520Y0010050D02*
X0014520Y0206010D01*
X0014523Y0206252D01*
X0014532Y0206493D01*
X0014546Y0206734D01*
X0014567Y0206975D01*
X0014593Y0207215D01*
X0014625Y0207455D01*
X0014663Y0207694D01*
X0014706Y0207931D01*
X0014756Y0208168D01*
X0014811Y0208403D01*
X0014871Y0208637D01*
X0014938Y0208869D01*
X0015009Y0209100D01*
X0015087Y0209329D01*
X0015170Y0209556D01*
X0015258Y0209781D01*
X0015352Y0210004D01*
X0015451Y0210224D01*
X0015556Y0210442D01*
X0015665Y0210657D01*
X0015780Y0210870D01*
X0015900Y0211080D01*
X0016025Y0211286D01*
X0016155Y0211490D01*
X0016290Y0211691D01*
X0016430Y0211888D01*
X0016574Y0212082D01*
X0016723Y0212272D01*
X0016877Y0212458D01*
X0017035Y0212641D01*
X0017197Y0212820D01*
X0017364Y0212995D01*
X0017535Y0213166D01*
X0017710Y0213333D01*
X0017889Y0213495D01*
X0018072Y0213653D01*
X0018258Y0213807D01*
X0018448Y0213956D01*
X0018642Y0214100D01*
X0018839Y0214240D01*
X0019040Y0214375D01*
X0019244Y0214505D01*
X0019450Y0214630D01*
X0019660Y0214750D01*
X0019873Y0214865D01*
X0020088Y0214974D01*
X0020306Y0215079D01*
X0020526Y0215178D01*
X0020749Y0215272D01*
X0020974Y0215360D01*
X0021201Y0215443D01*
X0021430Y0215521D01*
X0021661Y0215592D01*
X0021893Y0215659D01*
X0022127Y0215719D01*
X0022362Y0215774D01*
X0022599Y0215824D01*
X0022836Y0215867D01*
X0023075Y0215905D01*
X0023315Y0215937D01*
X0023555Y0215963D01*
X0023796Y0215984D01*
X0024037Y0215998D01*
X0024278Y0216007D01*
X0024520Y0216010D01*
X0269205Y0216010D01*
X0269205Y0216011D02*
X0269495Y0216007D01*
X0269786Y0215997D01*
X0270075Y0215979D01*
X0270365Y0215955D01*
X0270653Y0215923D01*
X0270941Y0215885D01*
X0271228Y0215839D01*
X0271514Y0215787D01*
X0271798Y0215728D01*
X0272081Y0215662D01*
X0272362Y0215589D01*
X0272641Y0215509D01*
X0272918Y0215423D01*
X0273193Y0215330D01*
X0273466Y0215230D01*
X0273736Y0215124D01*
X0274004Y0215011D01*
X0274269Y0214892D01*
X0274530Y0214766D01*
X0274789Y0214635D01*
X0275045Y0214497D01*
X0275297Y0214352D01*
X0275545Y0214202D01*
X0275790Y0214046D01*
X0276031Y0213884D01*
X0276268Y0213716D01*
X0276501Y0213543D01*
X0276729Y0213364D01*
X0276953Y0213179D01*
X0277173Y0212989D01*
X0277388Y0212794D01*
X0277598Y0212594D01*
X0277804Y0212388D01*
X0278004Y0212178D01*
X0278199Y0211963D01*
X0278389Y0211743D01*
X0278574Y0211519D01*
X0278753Y0211291D01*
X0278926Y0211058D01*
X0279094Y0210821D01*
X0279256Y0210580D01*
X0279412Y0210335D01*
X0279562Y0210087D01*
X0279707Y0209835D01*
X0279845Y0209579D01*
X0279976Y0209320D01*
X0280102Y0209059D01*
X0280221Y0208794D01*
X0280334Y0208526D01*
X0280440Y0208256D01*
X0280540Y0207983D01*
X0280633Y0207708D01*
X0280719Y0207431D01*
X0280799Y0207152D01*
X0280872Y0206871D01*
X0280938Y0206588D01*
X0280997Y0206304D01*
X0281049Y0206018D01*
X0281095Y0205731D01*
X0281133Y0205443D01*
X0281165Y0205155D01*
X0281189Y0204865D01*
X0281207Y0204576D01*
X0281217Y0204285D01*
X0281221Y0203995D01*
X0281220Y0203995D02*
X0281220Y0011050D01*
X0281229Y0010820D01*
X0281233Y0010590D01*
X0281231Y0010361D01*
X0281224Y0010131D01*
X0281211Y0009901D01*
X0281192Y0009672D01*
X0281168Y0009443D01*
X0281139Y0009216D01*
X0281104Y0008988D01*
X0281063Y0008762D01*
X0281018Y0008537D01*
X0280966Y0008313D01*
X0280909Y0008090D01*
X0280847Y0007869D01*
X0280780Y0007649D01*
X0280707Y0007431D01*
X0280629Y0007214D01*
X0280546Y0007000D01*
X0280458Y0006788D01*
X0280364Y0006578D01*
X0280266Y0006370D01*
X0280162Y0006165D01*
X0280054Y0005962D01*
X0279940Y0005762D01*
X0279822Y0005565D01*
X0279699Y0005371D01*
X0279572Y0005179D01*
X0279440Y0004991D01*
X0279303Y0004806D01*
X0279162Y0004625D01*
X0279017Y0004447D01*
X0278867Y0004272D01*
X0278714Y0004101D01*
X0278556Y0003934D01*
X0278394Y0003771D01*
X0278228Y0003612D01*
X0278058Y0003456D01*
X0277885Y0003305D01*
X0277708Y0003158D01*
X0277528Y0003016D01*
X0277344Y0002878D01*
X0277157Y0002744D01*
X0276967Y0002615D01*
X0276774Y0002490D01*
X0276578Y0002371D01*
X0276378Y0002256D01*
X0276177Y0002146D01*
X0275972Y0002040D01*
X0275765Y0001940D01*
X0275556Y0001845D01*
X0275345Y0001755D01*
X0275131Y0001670D01*
X0274916Y0001590D01*
X0274698Y0001515D01*
X0274479Y0001446D01*
X0274258Y0001382D01*
X0274036Y0001323D01*
X0273812Y0001270D01*
X0273587Y0001222D01*
X0273361Y0001180D01*
X0273135Y0001143D01*
X0272907Y0001111D01*
X0272678Y0001085D01*
X0272449Y0001065D01*
X0272220Y0001050D01*
X0025520Y0001050D01*
X0025278Y0001029D01*
X0025036Y0001013D01*
X0024793Y0001004D01*
X0024550Y0001000D01*
X0024307Y0001002D01*
X0024065Y0001010D01*
X0023822Y0001024D01*
X0023580Y0001044D01*
X0023339Y0001070D01*
X0023098Y0001101D01*
X0022858Y0001138D01*
X0022619Y0001181D01*
X0022381Y0001230D01*
X0022144Y0001285D01*
X0021909Y0001345D01*
X0021675Y0001411D01*
X0021443Y0001483D01*
X0021213Y0001560D01*
X0020984Y0001642D01*
X0020758Y0001731D01*
X0020534Y0001824D01*
X0020312Y0001923D01*
X0020093Y0002028D01*
X0019876Y0002137D01*
X0019662Y0002252D01*
X0019451Y0002372D01*
X0019243Y0002497D01*
X0019038Y0002627D01*
X0018836Y0002762D01*
X0018637Y0002902D01*
X0018442Y0003046D01*
X0018250Y0003195D01*
X0018062Y0003349D01*
X0017878Y0003507D01*
X0017698Y0003670D01*
X0017522Y0003837D01*
X0017349Y0004008D01*
X0017181Y0004184D01*
X0017018Y0004363D01*
X0016858Y0004546D01*
X0016703Y0004733D01*
X0016553Y0004924D01*
X0016407Y0005118D01*
X0016266Y0005316D01*
X0016130Y0005517D01*
X0015999Y0005722D01*
X0015873Y0005929D01*
X0015751Y0006140D01*
X0015635Y0006353D01*
X0015524Y0006569D01*
X0015419Y0006788D01*
X0015318Y0007009D01*
X0015223Y0007232D01*
X0015134Y0007458D01*
X0015050Y0007686D01*
X0014971Y0007916D01*
X0014898Y0008147D01*
X0014831Y0008381D01*
X0014769Y0008616D01*
X0014713Y0008852D01*
X0014663Y0009090D01*
X0014619Y0009328D01*
X0014580Y0009568D01*
X0014547Y0009809D01*
X0014520Y0010050D01*
D11*
X0070908Y0051017D02*
X0071675Y0050250D01*
X0073210Y0050250D01*
X0073977Y0051017D01*
X0073977Y0051784D01*
X0073210Y0052552D01*
X0071675Y0052552D01*
X0070908Y0053319D01*
X0070908Y0054086D01*
X0071675Y0054854D01*
X0073210Y0054854D01*
X0073977Y0054086D01*
X0075512Y0054086D02*
X0075512Y0051017D01*
X0076279Y0050250D01*
X0077814Y0050250D01*
X0078581Y0051017D01*
X0080116Y0050250D02*
X0080116Y0054854D01*
X0078581Y0054086D02*
X0077814Y0054854D01*
X0076279Y0054854D01*
X0075512Y0054086D01*
X0080116Y0051784D02*
X0083185Y0054854D01*
X0080883Y0052552D02*
X0083185Y0050250D01*
X0083185Y0039854D02*
X0080116Y0035250D01*
X0078581Y0035250D02*
X0077046Y0036784D01*
X0077814Y0036784D02*
X0075512Y0036784D01*
X0075512Y0035250D02*
X0075512Y0039854D01*
X0077814Y0039854D01*
X0078581Y0039086D01*
X0078581Y0037552D01*
X0077814Y0036784D01*
X0080116Y0039854D02*
X0083185Y0035250D01*
X0083185Y0025854D02*
X0080116Y0021250D01*
X0083185Y0021250D02*
X0080116Y0025854D01*
X0078581Y0025854D02*
X0075512Y0025854D01*
X0077046Y0025854D02*
X0077046Y0021250D01*
X0103817Y0147068D02*
X0103817Y0148819D01*
X0104401Y0149403D01*
X0105568Y0149403D01*
X0106152Y0148819D01*
X0106152Y0147068D01*
X0106152Y0148235D02*
X0107320Y0149403D01*
X0107320Y0150659D02*
X0107320Y0152994D01*
X0107320Y0151826D02*
X0103817Y0151826D01*
X0104984Y0150659D01*
X0103817Y0147068D02*
X0107320Y0147068D01*
X0077185Y0193250D02*
X0077185Y0197854D01*
X0074116Y0197854D02*
X0077185Y0193250D01*
X0074116Y0193250D02*
X0074116Y0197854D01*
X0072581Y0197086D02*
X0071814Y0197854D01*
X0070279Y0197854D01*
X0069512Y0197086D01*
X0069512Y0194017D01*
X0070279Y0193250D01*
X0071814Y0193250D01*
X0072581Y0194017D01*
X0072581Y0197086D01*
X0029809Y0209250D02*
X0028274Y0210784D01*
X0029041Y0210784D02*
X0026739Y0210784D01*
X0026739Y0209250D02*
X0026739Y0213854D01*
X0029041Y0213854D01*
X0029809Y0213086D01*
X0029809Y0211552D01*
X0029041Y0210784D01*
X0025205Y0209250D02*
X0022135Y0209250D01*
X0022135Y0213854D01*
X0025205Y0213854D01*
X0023670Y0211552D02*
X0022135Y0211552D01*
X0020601Y0209250D02*
X0020601Y0213854D01*
X0017531Y0213854D02*
X0017531Y0209250D01*
X0019066Y0210784D01*
X0020601Y0209250D01*
X0015997Y0210017D02*
X0015997Y0213086D01*
X0015229Y0213854D01*
X0013695Y0213854D01*
X0012928Y0213086D01*
X0012928Y0210017D01*
X0013695Y0209250D01*
X0015229Y0209250D01*
X0015997Y0210017D01*
X0011393Y0211552D02*
X0010626Y0210784D01*
X0008324Y0210784D01*
X0008324Y0209250D02*
X0008324Y0213854D01*
X0010626Y0213854D01*
X0011393Y0213086D01*
X0011393Y0211552D01*
X0006789Y0213854D02*
X0005254Y0213854D01*
X0006022Y0213854D02*
X0006022Y0210017D01*
X0005254Y0209250D01*
X0004487Y0209250D01*
X0003720Y0210017D01*
X0263216Y0153987D02*
X0267820Y0153987D01*
X0267820Y0151685D01*
X0267052Y0150918D01*
X0265518Y0150918D01*
X0264750Y0151685D01*
X0264750Y0153987D01*
X0264750Y0149383D02*
X0264750Y0148616D01*
X0266285Y0147081D01*
X0266285Y0145547D02*
X0266285Y0143245D01*
X0267052Y0142477D01*
X0267820Y0143245D01*
X0267820Y0145547D01*
X0265518Y0145547D01*
X0264750Y0144779D01*
X0264750Y0143245D01*
X0265518Y0140943D02*
X0264750Y0140175D01*
X0264750Y0138641D01*
X0265518Y0137873D01*
X0267052Y0137873D01*
X0267820Y0138641D01*
X0267820Y0140175D01*
X0267052Y0140943D01*
X0265518Y0140943D01*
X0266285Y0136339D02*
X0265518Y0135571D01*
X0265518Y0133269D01*
X0264750Y0131735D02*
X0267820Y0130200D01*
X0264750Y0128666D01*
X0265518Y0127131D02*
X0266285Y0127131D01*
X0266285Y0124062D01*
X0267052Y0124062D02*
X0265518Y0124062D01*
X0264750Y0124829D01*
X0264750Y0126364D01*
X0265518Y0127131D01*
X0267820Y0126364D02*
X0267820Y0124829D01*
X0267052Y0124062D01*
X0267052Y0122527D02*
X0263983Y0122527D01*
X0263216Y0121760D01*
X0263216Y0119458D01*
X0267820Y0119458D01*
X0267820Y0121760D01*
X0267052Y0122527D01*
X0270716Y0122527D02*
X0270716Y0124062D01*
X0271483Y0124829D01*
X0274552Y0121760D01*
X0275320Y0122527D01*
X0275320Y0124062D01*
X0274552Y0124829D01*
X0271483Y0124829D01*
X0270716Y0122527D02*
X0271483Y0121760D01*
X0274552Y0121760D01*
X0274552Y0120225D02*
X0275320Y0120225D01*
X0275320Y0119458D01*
X0274552Y0119458D01*
X0274552Y0120225D01*
X0275320Y0117923D02*
X0275320Y0114854D01*
X0275320Y0116388D02*
X0270716Y0116388D01*
X0272250Y0114854D01*
X0272250Y0113319D02*
X0275320Y0111784D01*
X0272250Y0110250D01*
X0267820Y0110250D02*
X0264750Y0110250D01*
X0263216Y0111784D01*
X0264750Y0113319D01*
X0267820Y0113319D01*
X0265518Y0113319D02*
X0265518Y0110250D01*
X0263216Y0114854D02*
X0263216Y0117923D01*
X0263216Y0116388D02*
X0267820Y0116388D01*
X0267820Y0133269D02*
X0263216Y0133269D01*
X0263216Y0135571D01*
X0263983Y0136339D01*
X0264750Y0136339D01*
X0265518Y0135571D01*
X0266285Y0136339D02*
X0267052Y0136339D01*
X0267820Y0135571D01*
X0267820Y0133269D01*
X0267820Y0147081D02*
X0264750Y0147081D01*
D12*
X0256520Y0151050D02*
X0256520Y0129050D01*
X0110520Y0129050D01*
X0110520Y0137550D01*
X0110618Y0137552D01*
X0110716Y0137558D01*
X0110814Y0137567D01*
X0110911Y0137581D01*
X0111008Y0137598D01*
X0111104Y0137619D01*
X0111199Y0137644D01*
X0111293Y0137672D01*
X0111385Y0137705D01*
X0111477Y0137740D01*
X0111567Y0137780D01*
X0111655Y0137822D01*
X0111742Y0137869D01*
X0111826Y0137918D01*
X0111909Y0137971D01*
X0111989Y0138027D01*
X0112068Y0138087D01*
X0112144Y0138149D01*
X0112217Y0138214D01*
X0112288Y0138282D01*
X0112356Y0138353D01*
X0112421Y0138426D01*
X0112483Y0138502D01*
X0112543Y0138581D01*
X0112599Y0138661D01*
X0112652Y0138744D01*
X0112701Y0138828D01*
X0112748Y0138915D01*
X0112790Y0139003D01*
X0112830Y0139093D01*
X0112865Y0139185D01*
X0112898Y0139277D01*
X0112926Y0139371D01*
X0112951Y0139466D01*
X0112972Y0139562D01*
X0112989Y0139659D01*
X0113003Y0139756D01*
X0113012Y0139854D01*
X0113018Y0139952D01*
X0113020Y0140050D01*
X0113018Y0140148D01*
X0113012Y0140246D01*
X0113003Y0140344D01*
X0112989Y0140441D01*
X0112972Y0140538D01*
X0112951Y0140634D01*
X0112926Y0140729D01*
X0112898Y0140823D01*
X0112865Y0140915D01*
X0112830Y0141007D01*
X0112790Y0141097D01*
X0112748Y0141185D01*
X0112701Y0141272D01*
X0112652Y0141356D01*
X0112599Y0141439D01*
X0112543Y0141519D01*
X0112483Y0141598D01*
X0112421Y0141674D01*
X0112356Y0141747D01*
X0112288Y0141818D01*
X0112217Y0141886D01*
X0112144Y0141951D01*
X0112068Y0142013D01*
X0111989Y0142073D01*
X0111909Y0142129D01*
X0111826Y0142182D01*
X0111742Y0142231D01*
X0111655Y0142278D01*
X0111567Y0142320D01*
X0111477Y0142360D01*
X0111385Y0142395D01*
X0111293Y0142428D01*
X0111199Y0142456D01*
X0111104Y0142481D01*
X0111008Y0142502D01*
X0110911Y0142519D01*
X0110814Y0142533D01*
X0110716Y0142542D01*
X0110618Y0142548D01*
X0110520Y0142550D01*
X0110520Y0151050D01*
X0256520Y0151050D01*
X0263020Y0158050D02*
X0260520Y0160550D01*
X0260520Y0165550D01*
X0263020Y0168050D01*
X0260520Y0170550D01*
X0260520Y0175550D01*
X0263020Y0178050D01*
X0268020Y0178050D01*
X0270520Y0175550D01*
X0270520Y0170550D01*
X0268020Y0168050D01*
X0270520Y0165550D01*
X0270520Y0160550D01*
X0268020Y0158050D01*
X0263020Y0158050D01*
X0263020Y0168050D02*
X0268020Y0168050D01*
X0268020Y0178050D02*
X0270520Y0180550D01*
X0270520Y0185550D01*
X0268020Y0188050D01*
X0270520Y0190550D01*
X0270520Y0195550D01*
X0268020Y0198050D01*
X0270520Y0200550D01*
X0270520Y0205550D01*
X0268020Y0208050D01*
X0263020Y0208050D01*
X0260520Y0205550D01*
X0260520Y0200550D01*
X0263020Y0198050D01*
X0268020Y0198050D01*
X0263020Y0198050D02*
X0260520Y0195550D01*
X0260520Y0190550D01*
X0263020Y0188050D01*
X0268020Y0188050D01*
X0263020Y0188050D02*
X0260520Y0185550D01*
X0260520Y0180550D01*
X0263020Y0178050D01*
X0245020Y0196550D02*
X0232020Y0196550D01*
X0231933Y0196552D01*
X0231846Y0196558D01*
X0231759Y0196567D01*
X0231673Y0196580D01*
X0231587Y0196597D01*
X0231502Y0196618D01*
X0231419Y0196643D01*
X0231336Y0196671D01*
X0231255Y0196702D01*
X0231175Y0196737D01*
X0231097Y0196776D01*
X0231020Y0196818D01*
X0230945Y0196863D01*
X0230873Y0196912D01*
X0230802Y0196963D01*
X0230734Y0197018D01*
X0230669Y0197075D01*
X0230606Y0197136D01*
X0230545Y0197199D01*
X0230488Y0197264D01*
X0230433Y0197332D01*
X0230382Y0197403D01*
X0230333Y0197475D01*
X0230288Y0197550D01*
X0230246Y0197627D01*
X0230207Y0197705D01*
X0230172Y0197785D01*
X0230141Y0197866D01*
X0230113Y0197949D01*
X0230088Y0198032D01*
X0230067Y0198117D01*
X0230050Y0198203D01*
X0230037Y0198289D01*
X0230028Y0198376D01*
X0230022Y0198463D01*
X0230020Y0198550D01*
X0233520Y0201050D02*
X0237320Y0201050D01*
X0239820Y0201050D02*
X0243520Y0201050D01*
X0247020Y0203550D02*
X0247018Y0203637D01*
X0247012Y0203724D01*
X0247003Y0203811D01*
X0246990Y0203897D01*
X0246973Y0203983D01*
X0246952Y0204068D01*
X0246927Y0204151D01*
X0246899Y0204234D01*
X0246868Y0204315D01*
X0246833Y0204395D01*
X0246794Y0204473D01*
X0246752Y0204550D01*
X0246707Y0204625D01*
X0246658Y0204697D01*
X0246607Y0204768D01*
X0246552Y0204836D01*
X0246495Y0204901D01*
X0246434Y0204964D01*
X0246371Y0205025D01*
X0246306Y0205082D01*
X0246238Y0205137D01*
X0246167Y0205188D01*
X0246095Y0205237D01*
X0246020Y0205282D01*
X0245943Y0205324D01*
X0245865Y0205363D01*
X0245785Y0205398D01*
X0245704Y0205429D01*
X0245621Y0205457D01*
X0245538Y0205482D01*
X0245453Y0205503D01*
X0245367Y0205520D01*
X0245281Y0205533D01*
X0245194Y0205542D01*
X0245107Y0205548D01*
X0245020Y0205550D01*
X0232020Y0205550D01*
X0231933Y0205548D01*
X0231846Y0205542D01*
X0231759Y0205533D01*
X0231673Y0205520D01*
X0231587Y0205503D01*
X0231502Y0205482D01*
X0231419Y0205457D01*
X0231336Y0205429D01*
X0231255Y0205398D01*
X0231175Y0205363D01*
X0231097Y0205324D01*
X0231020Y0205282D01*
X0230945Y0205237D01*
X0230873Y0205188D01*
X0230802Y0205137D01*
X0230734Y0205082D01*
X0230669Y0205025D01*
X0230606Y0204964D01*
X0230545Y0204901D01*
X0230488Y0204836D01*
X0230433Y0204768D01*
X0230382Y0204697D01*
X0230333Y0204625D01*
X0230288Y0204550D01*
X0230246Y0204473D01*
X0230207Y0204395D01*
X0230172Y0204315D01*
X0230141Y0204234D01*
X0230113Y0204151D01*
X0230088Y0204068D01*
X0230067Y0203983D01*
X0230050Y0203897D01*
X0230037Y0203811D01*
X0230028Y0203724D01*
X0230022Y0203637D01*
X0230020Y0203550D01*
X0245020Y0196550D02*
X0245107Y0196552D01*
X0245194Y0196558D01*
X0245281Y0196567D01*
X0245367Y0196580D01*
X0245453Y0196597D01*
X0245538Y0196618D01*
X0245621Y0196643D01*
X0245704Y0196671D01*
X0245785Y0196702D01*
X0245865Y0196737D01*
X0245943Y0196776D01*
X0246020Y0196818D01*
X0246095Y0196863D01*
X0246167Y0196912D01*
X0246238Y0196963D01*
X0246306Y0197018D01*
X0246371Y0197075D01*
X0246434Y0197136D01*
X0246495Y0197199D01*
X0246552Y0197264D01*
X0246607Y0197332D01*
X0246658Y0197403D01*
X0246707Y0197475D01*
X0246752Y0197550D01*
X0246794Y0197627D01*
X0246833Y0197705D01*
X0246868Y0197785D01*
X0246899Y0197866D01*
X0246927Y0197949D01*
X0246952Y0198032D01*
X0246973Y0198117D01*
X0246990Y0198203D01*
X0247003Y0198289D01*
X0247012Y0198376D01*
X0247018Y0198463D01*
X0247020Y0198550D01*
X0235020Y0187050D02*
X0208020Y0187050D01*
X0207801Y0187047D01*
X0207582Y0187039D01*
X0207363Y0187026D01*
X0207145Y0187007D01*
X0206927Y0186983D01*
X0206710Y0186954D01*
X0206493Y0186920D01*
X0206278Y0186880D01*
X0206063Y0186835D01*
X0205850Y0186784D01*
X0205638Y0186729D01*
X0205427Y0186668D01*
X0205218Y0186603D01*
X0205011Y0186532D01*
X0204805Y0186456D01*
X0204601Y0186375D01*
X0204399Y0186290D01*
X0204200Y0186199D01*
X0204003Y0186104D01*
X0203808Y0186003D01*
X0203615Y0185898D01*
X0203425Y0185789D01*
X0203238Y0185675D01*
X0203054Y0185556D01*
X0202873Y0185433D01*
X0202695Y0185305D01*
X0202519Y0185173D01*
X0202348Y0185037D01*
X0202179Y0184897D01*
X0202014Y0184753D01*
X0201853Y0184605D01*
X0201695Y0184453D01*
X0201541Y0184297D01*
X0201391Y0184137D01*
X0201244Y0183974D01*
X0201102Y0183807D01*
X0200964Y0183637D01*
X0200830Y0183463D01*
X0200700Y0183287D01*
X0200575Y0183107D01*
X0200454Y0182924D01*
X0200338Y0182738D01*
X0200226Y0182550D01*
X0200119Y0182359D01*
X0200016Y0182165D01*
X0199918Y0181969D01*
X0199825Y0181771D01*
X0199737Y0181570D01*
X0199654Y0181367D01*
X0199575Y0181162D01*
X0199502Y0180956D01*
X0199434Y0180748D01*
X0199371Y0180538D01*
X0199313Y0180326D01*
X0199260Y0180114D01*
X0199212Y0179900D01*
X0199170Y0179685D01*
X0199133Y0179469D01*
X0199101Y0179252D01*
X0199074Y0179034D01*
X0199053Y0178816D01*
X0199037Y0178598D01*
X0199026Y0178379D01*
X0199021Y0178160D01*
X0199021Y0177940D01*
X0199026Y0177721D01*
X0199037Y0177502D01*
X0199053Y0177284D01*
X0199074Y0177066D01*
X0199101Y0176848D01*
X0199133Y0176631D01*
X0199170Y0176415D01*
X0199212Y0176200D01*
X0199260Y0175986D01*
X0199313Y0175774D01*
X0199371Y0175562D01*
X0199434Y0175352D01*
X0199502Y0175144D01*
X0199575Y0174938D01*
X0199654Y0174733D01*
X0199737Y0174530D01*
X0199825Y0174329D01*
X0199918Y0174131D01*
X0200016Y0173935D01*
X0200119Y0173741D01*
X0200226Y0173550D01*
X0200338Y0173362D01*
X0200454Y0173176D01*
X0200575Y0172993D01*
X0200700Y0172813D01*
X0200830Y0172637D01*
X0200964Y0172463D01*
X0201102Y0172293D01*
X0201244Y0172126D01*
X0201391Y0171963D01*
X0201541Y0171803D01*
X0201695Y0171647D01*
X0201853Y0171495D01*
X0202014Y0171347D01*
X0202179Y0171203D01*
X0202348Y0171063D01*
X0202519Y0170927D01*
X0202695Y0170795D01*
X0202873Y0170667D01*
X0203054Y0170544D01*
X0203238Y0170425D01*
X0203425Y0170311D01*
X0203615Y0170202D01*
X0203808Y0170097D01*
X0204003Y0169996D01*
X0204200Y0169901D01*
X0204399Y0169810D01*
X0204601Y0169725D01*
X0204805Y0169644D01*
X0205011Y0169568D01*
X0205218Y0169497D01*
X0205427Y0169432D01*
X0205638Y0169371D01*
X0205850Y0169316D01*
X0206063Y0169265D01*
X0206278Y0169220D01*
X0206493Y0169180D01*
X0206710Y0169146D01*
X0206927Y0169117D01*
X0207145Y0169093D01*
X0207363Y0169074D01*
X0207582Y0169061D01*
X0207801Y0169053D01*
X0208020Y0169050D01*
X0235020Y0169050D01*
X0235239Y0169053D01*
X0235458Y0169061D01*
X0235677Y0169074D01*
X0235895Y0169093D01*
X0236113Y0169117D01*
X0236330Y0169146D01*
X0236547Y0169180D01*
X0236762Y0169220D01*
X0236977Y0169265D01*
X0237190Y0169316D01*
X0237402Y0169371D01*
X0237613Y0169432D01*
X0237822Y0169497D01*
X0238029Y0169568D01*
X0238235Y0169644D01*
X0238439Y0169725D01*
X0238641Y0169810D01*
X0238840Y0169901D01*
X0239037Y0169996D01*
X0239232Y0170097D01*
X0239425Y0170202D01*
X0239615Y0170311D01*
X0239802Y0170425D01*
X0239986Y0170544D01*
X0240167Y0170667D01*
X0240345Y0170795D01*
X0240521Y0170927D01*
X0240692Y0171063D01*
X0240861Y0171203D01*
X0241026Y0171347D01*
X0241187Y0171495D01*
X0241345Y0171647D01*
X0241499Y0171803D01*
X0241649Y0171963D01*
X0241796Y0172126D01*
X0241938Y0172293D01*
X0242076Y0172463D01*
X0242210Y0172637D01*
X0242340Y0172813D01*
X0242465Y0172993D01*
X0242586Y0173176D01*
X0242702Y0173362D01*
X0242814Y0173550D01*
X0242921Y0173741D01*
X0243024Y0173935D01*
X0243122Y0174131D01*
X0243215Y0174329D01*
X0243303Y0174530D01*
X0243386Y0174733D01*
X0243465Y0174938D01*
X0243538Y0175144D01*
X0243606Y0175352D01*
X0243669Y0175562D01*
X0243727Y0175774D01*
X0243780Y0175986D01*
X0243828Y0176200D01*
X0243870Y0176415D01*
X0243907Y0176631D01*
X0243939Y0176848D01*
X0243966Y0177066D01*
X0243987Y0177284D01*
X0244003Y0177502D01*
X0244014Y0177721D01*
X0244019Y0177940D01*
X0244019Y0178160D01*
X0244014Y0178379D01*
X0244003Y0178598D01*
X0243987Y0178816D01*
X0243966Y0179034D01*
X0243939Y0179252D01*
X0243907Y0179469D01*
X0243870Y0179685D01*
X0243828Y0179900D01*
X0243780Y0180114D01*
X0243727Y0180326D01*
X0243669Y0180538D01*
X0243606Y0180748D01*
X0243538Y0180956D01*
X0243465Y0181162D01*
X0243386Y0181367D01*
X0243303Y0181570D01*
X0243215Y0181771D01*
X0243122Y0181969D01*
X0243024Y0182165D01*
X0242921Y0182359D01*
X0242814Y0182550D01*
X0242702Y0182738D01*
X0242586Y0182924D01*
X0242465Y0183107D01*
X0242340Y0183287D01*
X0242210Y0183463D01*
X0242076Y0183637D01*
X0241938Y0183807D01*
X0241796Y0183974D01*
X0241649Y0184137D01*
X0241499Y0184297D01*
X0241345Y0184453D01*
X0241187Y0184605D01*
X0241026Y0184753D01*
X0240861Y0184897D01*
X0240692Y0185037D01*
X0240521Y0185173D01*
X0240345Y0185305D01*
X0240167Y0185433D01*
X0239986Y0185556D01*
X0239802Y0185675D01*
X0239615Y0185789D01*
X0239425Y0185898D01*
X0239232Y0186003D01*
X0239037Y0186104D01*
X0238840Y0186199D01*
X0238641Y0186290D01*
X0238439Y0186375D01*
X0238235Y0186456D01*
X0238029Y0186532D01*
X0237822Y0186603D01*
X0237613Y0186668D01*
X0237402Y0186729D01*
X0237190Y0186784D01*
X0236977Y0186835D01*
X0236762Y0186880D01*
X0236547Y0186920D01*
X0236330Y0186954D01*
X0236113Y0186983D01*
X0235895Y0187007D01*
X0235677Y0187026D01*
X0235458Y0187039D01*
X0235239Y0187047D01*
X0235020Y0187050D01*
X0214020Y0196550D02*
X0201020Y0196550D01*
X0200933Y0196552D01*
X0200846Y0196558D01*
X0200759Y0196567D01*
X0200673Y0196580D01*
X0200587Y0196597D01*
X0200502Y0196618D01*
X0200419Y0196643D01*
X0200336Y0196671D01*
X0200255Y0196702D01*
X0200175Y0196737D01*
X0200097Y0196776D01*
X0200020Y0196818D01*
X0199945Y0196863D01*
X0199873Y0196912D01*
X0199802Y0196963D01*
X0199734Y0197018D01*
X0199669Y0197075D01*
X0199606Y0197136D01*
X0199545Y0197199D01*
X0199488Y0197264D01*
X0199433Y0197332D01*
X0199382Y0197403D01*
X0199333Y0197475D01*
X0199288Y0197550D01*
X0199246Y0197627D01*
X0199207Y0197705D01*
X0199172Y0197785D01*
X0199141Y0197866D01*
X0199113Y0197949D01*
X0199088Y0198032D01*
X0199067Y0198117D01*
X0199050Y0198203D01*
X0199037Y0198289D01*
X0199028Y0198376D01*
X0199022Y0198463D01*
X0199020Y0198550D01*
X0202520Y0201050D02*
X0206320Y0201050D01*
X0208820Y0201050D02*
X0212520Y0201050D01*
X0216020Y0203550D02*
X0216018Y0203637D01*
X0216012Y0203724D01*
X0216003Y0203811D01*
X0215990Y0203897D01*
X0215973Y0203983D01*
X0215952Y0204068D01*
X0215927Y0204151D01*
X0215899Y0204234D01*
X0215868Y0204315D01*
X0215833Y0204395D01*
X0215794Y0204473D01*
X0215752Y0204550D01*
X0215707Y0204625D01*
X0215658Y0204697D01*
X0215607Y0204768D01*
X0215552Y0204836D01*
X0215495Y0204901D01*
X0215434Y0204964D01*
X0215371Y0205025D01*
X0215306Y0205082D01*
X0215238Y0205137D01*
X0215167Y0205188D01*
X0215095Y0205237D01*
X0215020Y0205282D01*
X0214943Y0205324D01*
X0214865Y0205363D01*
X0214785Y0205398D01*
X0214704Y0205429D01*
X0214621Y0205457D01*
X0214538Y0205482D01*
X0214453Y0205503D01*
X0214367Y0205520D01*
X0214281Y0205533D01*
X0214194Y0205542D01*
X0214107Y0205548D01*
X0214020Y0205550D01*
X0201020Y0205550D01*
X0200933Y0205548D01*
X0200846Y0205542D01*
X0200759Y0205533D01*
X0200673Y0205520D01*
X0200587Y0205503D01*
X0200502Y0205482D01*
X0200419Y0205457D01*
X0200336Y0205429D01*
X0200255Y0205398D01*
X0200175Y0205363D01*
X0200097Y0205324D01*
X0200020Y0205282D01*
X0199945Y0205237D01*
X0199873Y0205188D01*
X0199802Y0205137D01*
X0199734Y0205082D01*
X0199669Y0205025D01*
X0199606Y0204964D01*
X0199545Y0204901D01*
X0199488Y0204836D01*
X0199433Y0204768D01*
X0199382Y0204697D01*
X0199333Y0204625D01*
X0199288Y0204550D01*
X0199246Y0204473D01*
X0199207Y0204395D01*
X0199172Y0204315D01*
X0199141Y0204234D01*
X0199113Y0204151D01*
X0199088Y0204068D01*
X0199067Y0203983D01*
X0199050Y0203897D01*
X0199037Y0203811D01*
X0199028Y0203724D01*
X0199022Y0203637D01*
X0199020Y0203550D01*
X0187020Y0198550D02*
X0187020Y0197050D01*
X0186520Y0196550D01*
X0186520Y0177550D01*
X0187020Y0177050D01*
X0187020Y0175550D01*
X0187018Y0175490D01*
X0187013Y0175429D01*
X0187004Y0175370D01*
X0186991Y0175311D01*
X0186975Y0175252D01*
X0186955Y0175195D01*
X0186932Y0175140D01*
X0186905Y0175085D01*
X0186876Y0175033D01*
X0186843Y0174982D01*
X0186807Y0174933D01*
X0186769Y0174887D01*
X0186727Y0174843D01*
X0186683Y0174801D01*
X0186637Y0174763D01*
X0186588Y0174727D01*
X0186537Y0174694D01*
X0186485Y0174665D01*
X0186430Y0174638D01*
X0186375Y0174615D01*
X0186318Y0174595D01*
X0186259Y0174579D01*
X0186200Y0174566D01*
X0186141Y0174557D01*
X0186080Y0174552D01*
X0186020Y0174550D01*
X0179020Y0174550D01*
X0178960Y0174552D01*
X0178899Y0174557D01*
X0178840Y0174566D01*
X0178781Y0174579D01*
X0178722Y0174595D01*
X0178665Y0174615D01*
X0178610Y0174638D01*
X0178555Y0174665D01*
X0178503Y0174694D01*
X0178452Y0174727D01*
X0178403Y0174763D01*
X0178357Y0174801D01*
X0178313Y0174843D01*
X0178271Y0174887D01*
X0178233Y0174933D01*
X0178197Y0174982D01*
X0178164Y0175033D01*
X0178135Y0175085D01*
X0178108Y0175140D01*
X0178085Y0175195D01*
X0178065Y0175252D01*
X0178049Y0175311D01*
X0178036Y0175370D01*
X0178027Y0175429D01*
X0178022Y0175490D01*
X0178020Y0175550D01*
X0178020Y0177050D01*
X0178520Y0177550D01*
X0178520Y0196550D01*
X0178020Y0197050D01*
X0178020Y0198550D01*
X0178022Y0198610D01*
X0178027Y0198671D01*
X0178036Y0198730D01*
X0178049Y0198789D01*
X0178065Y0198848D01*
X0178085Y0198905D01*
X0178108Y0198960D01*
X0178135Y0199015D01*
X0178164Y0199067D01*
X0178197Y0199118D01*
X0178233Y0199167D01*
X0178271Y0199213D01*
X0178313Y0199257D01*
X0178357Y0199299D01*
X0178403Y0199337D01*
X0178452Y0199373D01*
X0178503Y0199406D01*
X0178555Y0199435D01*
X0178610Y0199462D01*
X0178665Y0199485D01*
X0178722Y0199505D01*
X0178781Y0199521D01*
X0178840Y0199534D01*
X0178899Y0199543D01*
X0178960Y0199548D01*
X0179020Y0199550D01*
X0186020Y0199550D01*
X0186080Y0199548D01*
X0186141Y0199543D01*
X0186200Y0199534D01*
X0186259Y0199521D01*
X0186318Y0199505D01*
X0186375Y0199485D01*
X0186430Y0199462D01*
X0186485Y0199435D01*
X0186537Y0199406D01*
X0186588Y0199373D01*
X0186637Y0199337D01*
X0186683Y0199299D01*
X0186727Y0199257D01*
X0186769Y0199213D01*
X0186807Y0199167D01*
X0186843Y0199118D01*
X0186876Y0199067D01*
X0186905Y0199015D01*
X0186932Y0198960D01*
X0186955Y0198905D01*
X0186975Y0198848D01*
X0186991Y0198789D01*
X0187004Y0198730D01*
X0187013Y0198671D01*
X0187018Y0198610D01*
X0187020Y0198550D01*
X0214020Y0196550D02*
X0214107Y0196552D01*
X0214194Y0196558D01*
X0214281Y0196567D01*
X0214367Y0196580D01*
X0214453Y0196597D01*
X0214538Y0196618D01*
X0214621Y0196643D01*
X0214704Y0196671D01*
X0214785Y0196702D01*
X0214865Y0196737D01*
X0214943Y0196776D01*
X0215020Y0196818D01*
X0215095Y0196863D01*
X0215167Y0196912D01*
X0215238Y0196963D01*
X0215306Y0197018D01*
X0215371Y0197075D01*
X0215434Y0197136D01*
X0215495Y0197199D01*
X0215552Y0197264D01*
X0215607Y0197332D01*
X0215658Y0197403D01*
X0215707Y0197475D01*
X0215752Y0197550D01*
X0215794Y0197627D01*
X0215833Y0197705D01*
X0215868Y0197785D01*
X0215899Y0197866D01*
X0215927Y0197949D01*
X0215952Y0198032D01*
X0215973Y0198117D01*
X0215990Y0198203D01*
X0216003Y0198289D01*
X0216012Y0198376D01*
X0216018Y0198463D01*
X0216020Y0198550D01*
X0157520Y0198050D02*
X0157520Y0208050D01*
X0141520Y0208050D01*
X0141520Y0198050D01*
X0157520Y0198050D01*
X0152020Y0203050D02*
X0149520Y0203050D01*
X0149520Y0205550D01*
X0149520Y0203050D02*
X0149520Y0200550D01*
X0149520Y0203050D02*
X0145520Y0200550D01*
X0145520Y0205550D01*
X0149520Y0203050D01*
X0143520Y0203050D01*
X0141520Y0193050D02*
X0141520Y0183050D01*
X0157520Y0183050D01*
X0157520Y0193050D01*
X0141520Y0193050D01*
X0145520Y0190550D02*
X0149520Y0188050D01*
X0149520Y0190550D01*
X0149520Y0188050D02*
X0149520Y0185550D01*
X0149520Y0188050D02*
X0145520Y0185550D01*
X0145520Y0190550D01*
X0143520Y0188050D02*
X0149520Y0188050D01*
X0152020Y0188050D01*
X0157520Y0178050D02*
X0141520Y0178050D01*
X0141520Y0168050D01*
X0157520Y0168050D01*
X0157520Y0178050D01*
X0152020Y0173050D02*
X0149520Y0173050D01*
X0149520Y0175550D01*
X0149520Y0173050D02*
X0149520Y0170550D01*
X0149520Y0173050D02*
X0145520Y0170550D01*
X0145520Y0175550D01*
X0149520Y0173050D01*
X0143520Y0173050D01*
X0116588Y0188607D02*
X0114853Y0188607D01*
X0115721Y0188607D02*
X0115721Y0191209D01*
X0114853Y0190341D01*
X0113642Y0191209D02*
X0113642Y0188607D01*
X0112774Y0189474D01*
X0111907Y0188607D01*
X0111907Y0191209D01*
X0110695Y0190775D02*
X0110262Y0191209D01*
X0109394Y0191209D01*
X0108960Y0190775D01*
X0108960Y0190341D01*
X0109394Y0189908D01*
X0110262Y0189908D01*
X0110695Y0189474D01*
X0110695Y0189040D01*
X0110262Y0188607D01*
X0109394Y0188607D01*
X0108960Y0189040D01*
X0083020Y0182550D02*
X0070020Y0182550D01*
X0069933Y0182548D01*
X0069846Y0182542D01*
X0069759Y0182533D01*
X0069673Y0182520D01*
X0069587Y0182503D01*
X0069502Y0182482D01*
X0069419Y0182457D01*
X0069336Y0182429D01*
X0069255Y0182398D01*
X0069175Y0182363D01*
X0069097Y0182324D01*
X0069020Y0182282D01*
X0068945Y0182237D01*
X0068873Y0182188D01*
X0068802Y0182137D01*
X0068734Y0182082D01*
X0068669Y0182025D01*
X0068606Y0181964D01*
X0068545Y0181901D01*
X0068488Y0181836D01*
X0068433Y0181768D01*
X0068382Y0181697D01*
X0068333Y0181625D01*
X0068288Y0181550D01*
X0068246Y0181473D01*
X0068207Y0181395D01*
X0068172Y0181315D01*
X0068141Y0181234D01*
X0068113Y0181151D01*
X0068088Y0181068D01*
X0068067Y0180983D01*
X0068050Y0180897D01*
X0068037Y0180811D01*
X0068028Y0180724D01*
X0068022Y0180637D01*
X0068020Y0180550D01*
X0071520Y0178050D02*
X0075320Y0178050D01*
X0077820Y0178050D02*
X0081520Y0178050D01*
X0085020Y0180550D02*
X0085018Y0180637D01*
X0085012Y0180724D01*
X0085003Y0180811D01*
X0084990Y0180897D01*
X0084973Y0180983D01*
X0084952Y0181068D01*
X0084927Y0181151D01*
X0084899Y0181234D01*
X0084868Y0181315D01*
X0084833Y0181395D01*
X0084794Y0181473D01*
X0084752Y0181550D01*
X0084707Y0181625D01*
X0084658Y0181697D01*
X0084607Y0181768D01*
X0084552Y0181836D01*
X0084495Y0181901D01*
X0084434Y0181964D01*
X0084371Y0182025D01*
X0084306Y0182082D01*
X0084238Y0182137D01*
X0084167Y0182188D01*
X0084095Y0182237D01*
X0084020Y0182282D01*
X0083943Y0182324D01*
X0083865Y0182363D01*
X0083785Y0182398D01*
X0083704Y0182429D01*
X0083621Y0182457D01*
X0083538Y0182482D01*
X0083453Y0182503D01*
X0083367Y0182520D01*
X0083281Y0182533D01*
X0083194Y0182542D01*
X0083107Y0182548D01*
X0083020Y0182550D01*
X0085020Y0175550D02*
X0085018Y0175463D01*
X0085012Y0175376D01*
X0085003Y0175289D01*
X0084990Y0175203D01*
X0084973Y0175117D01*
X0084952Y0175032D01*
X0084927Y0174949D01*
X0084899Y0174866D01*
X0084868Y0174785D01*
X0084833Y0174705D01*
X0084794Y0174627D01*
X0084752Y0174550D01*
X0084707Y0174475D01*
X0084658Y0174403D01*
X0084607Y0174332D01*
X0084552Y0174264D01*
X0084495Y0174199D01*
X0084434Y0174136D01*
X0084371Y0174075D01*
X0084306Y0174018D01*
X0084238Y0173963D01*
X0084167Y0173912D01*
X0084095Y0173863D01*
X0084020Y0173818D01*
X0083943Y0173776D01*
X0083865Y0173737D01*
X0083785Y0173702D01*
X0083704Y0173671D01*
X0083621Y0173643D01*
X0083538Y0173618D01*
X0083453Y0173597D01*
X0083367Y0173580D01*
X0083281Y0173567D01*
X0083194Y0173558D01*
X0083107Y0173552D01*
X0083020Y0173550D01*
X0070020Y0173550D01*
X0069933Y0173552D01*
X0069846Y0173558D01*
X0069759Y0173567D01*
X0069673Y0173580D01*
X0069587Y0173597D01*
X0069502Y0173618D01*
X0069419Y0173643D01*
X0069336Y0173671D01*
X0069255Y0173702D01*
X0069175Y0173737D01*
X0069097Y0173776D01*
X0069020Y0173818D01*
X0068945Y0173863D01*
X0068873Y0173912D01*
X0068802Y0173963D01*
X0068734Y0174018D01*
X0068669Y0174075D01*
X0068606Y0174136D01*
X0068545Y0174199D01*
X0068488Y0174264D01*
X0068433Y0174332D01*
X0068382Y0174403D01*
X0068333Y0174475D01*
X0068288Y0174550D01*
X0068246Y0174627D01*
X0068207Y0174705D01*
X0068172Y0174785D01*
X0068141Y0174866D01*
X0068113Y0174949D01*
X0068088Y0175032D01*
X0068067Y0175117D01*
X0068050Y0175203D01*
X0068037Y0175289D01*
X0068028Y0175376D01*
X0068022Y0175463D01*
X0068020Y0175550D01*
X0075020Y0164050D02*
X0086520Y0164050D01*
X0087520Y0163050D01*
X0087520Y0125050D01*
X0086520Y0124050D01*
X0075020Y0124050D01*
X0081020Y0112550D02*
X0068020Y0112550D01*
X0067933Y0112548D01*
X0067846Y0112542D01*
X0067759Y0112533D01*
X0067673Y0112520D01*
X0067587Y0112503D01*
X0067502Y0112482D01*
X0067419Y0112457D01*
X0067336Y0112429D01*
X0067255Y0112398D01*
X0067175Y0112363D01*
X0067097Y0112324D01*
X0067020Y0112282D01*
X0066945Y0112237D01*
X0066873Y0112188D01*
X0066802Y0112137D01*
X0066734Y0112082D01*
X0066669Y0112025D01*
X0066606Y0111964D01*
X0066545Y0111901D01*
X0066488Y0111836D01*
X0066433Y0111768D01*
X0066382Y0111697D01*
X0066333Y0111625D01*
X0066288Y0111550D01*
X0066246Y0111473D01*
X0066207Y0111395D01*
X0066172Y0111315D01*
X0066141Y0111234D01*
X0066113Y0111151D01*
X0066088Y0111068D01*
X0066067Y0110983D01*
X0066050Y0110897D01*
X0066037Y0110811D01*
X0066028Y0110724D01*
X0066022Y0110637D01*
X0066020Y0110550D01*
X0069520Y0108050D02*
X0073320Y0108050D01*
X0075820Y0108050D02*
X0079520Y0108050D01*
X0083020Y0110550D02*
X0083018Y0110637D01*
X0083012Y0110724D01*
X0083003Y0110811D01*
X0082990Y0110897D01*
X0082973Y0110983D01*
X0082952Y0111068D01*
X0082927Y0111151D01*
X0082899Y0111234D01*
X0082868Y0111315D01*
X0082833Y0111395D01*
X0082794Y0111473D01*
X0082752Y0111550D01*
X0082707Y0111625D01*
X0082658Y0111697D01*
X0082607Y0111768D01*
X0082552Y0111836D01*
X0082495Y0111901D01*
X0082434Y0111964D01*
X0082371Y0112025D01*
X0082306Y0112082D01*
X0082238Y0112137D01*
X0082167Y0112188D01*
X0082095Y0112237D01*
X0082020Y0112282D01*
X0081943Y0112324D01*
X0081865Y0112363D01*
X0081785Y0112398D01*
X0081704Y0112429D01*
X0081621Y0112457D01*
X0081538Y0112482D01*
X0081453Y0112503D01*
X0081367Y0112520D01*
X0081281Y0112533D01*
X0081194Y0112542D01*
X0081107Y0112548D01*
X0081020Y0112550D01*
X0083020Y0105550D02*
X0083018Y0105463D01*
X0083012Y0105376D01*
X0083003Y0105289D01*
X0082990Y0105203D01*
X0082973Y0105117D01*
X0082952Y0105032D01*
X0082927Y0104949D01*
X0082899Y0104866D01*
X0082868Y0104785D01*
X0082833Y0104705D01*
X0082794Y0104627D01*
X0082752Y0104550D01*
X0082707Y0104475D01*
X0082658Y0104403D01*
X0082607Y0104332D01*
X0082552Y0104264D01*
X0082495Y0104199D01*
X0082434Y0104136D01*
X0082371Y0104075D01*
X0082306Y0104018D01*
X0082238Y0103963D01*
X0082167Y0103912D01*
X0082095Y0103863D01*
X0082020Y0103818D01*
X0081943Y0103776D01*
X0081865Y0103737D01*
X0081785Y0103702D01*
X0081704Y0103671D01*
X0081621Y0103643D01*
X0081538Y0103618D01*
X0081453Y0103597D01*
X0081367Y0103580D01*
X0081281Y0103567D01*
X0081194Y0103558D01*
X0081107Y0103552D01*
X0081020Y0103550D01*
X0068020Y0103550D01*
X0067933Y0103552D01*
X0067846Y0103558D01*
X0067759Y0103567D01*
X0067673Y0103580D01*
X0067587Y0103597D01*
X0067502Y0103618D01*
X0067419Y0103643D01*
X0067336Y0103671D01*
X0067255Y0103702D01*
X0067175Y0103737D01*
X0067097Y0103776D01*
X0067020Y0103818D01*
X0066945Y0103863D01*
X0066873Y0103912D01*
X0066802Y0103963D01*
X0066734Y0104018D01*
X0066669Y0104075D01*
X0066606Y0104136D01*
X0066545Y0104199D01*
X0066488Y0104264D01*
X0066433Y0104332D01*
X0066382Y0104403D01*
X0066333Y0104475D01*
X0066288Y0104550D01*
X0066246Y0104627D01*
X0066207Y0104705D01*
X0066172Y0104785D01*
X0066141Y0104866D01*
X0066113Y0104949D01*
X0066088Y0105032D01*
X0066067Y0105117D01*
X0066050Y0105203D01*
X0066037Y0105289D01*
X0066028Y0105376D01*
X0066022Y0105463D01*
X0066020Y0105550D01*
X0041251Y0119784D02*
X0040818Y0119350D01*
X0039950Y0119350D01*
X0039517Y0119784D01*
X0041251Y0121518D01*
X0041251Y0119784D01*
X0041251Y0121518D02*
X0040818Y0121952D01*
X0039950Y0121952D01*
X0039517Y0121518D01*
X0039517Y0119784D01*
X0038305Y0119350D02*
X0036570Y0119350D01*
X0037438Y0119350D02*
X0037438Y0121952D01*
X0036570Y0121085D01*
X0035358Y0118916D02*
X0033624Y0118916D01*
X0031978Y0120217D02*
X0030677Y0120217D01*
X0030677Y0119350D02*
X0030677Y0121952D01*
X0031978Y0121952D01*
X0032412Y0121518D01*
X0032412Y0120651D01*
X0031978Y0120217D01*
X0029465Y0120217D02*
X0029465Y0119784D01*
X0029032Y0119350D01*
X0028164Y0119350D01*
X0027731Y0119784D01*
X0028164Y0120651D02*
X0029032Y0120651D01*
X0029465Y0120217D01*
X0029465Y0121518D02*
X0029032Y0121952D01*
X0028164Y0121952D01*
X0027731Y0121518D01*
X0027731Y0121085D01*
X0028164Y0120651D01*
X0026519Y0121518D02*
X0026085Y0121952D01*
X0025218Y0121952D01*
X0024784Y0121518D01*
X0024784Y0119784D01*
X0025218Y0119350D01*
X0026085Y0119350D01*
X0026519Y0119784D01*
X0023687Y0119350D02*
X0022820Y0119350D01*
X0023253Y0119350D02*
X0023253Y0121952D01*
X0022820Y0121952D02*
X0023687Y0121952D01*
X0094520Y0135050D02*
X0094520Y0136550D01*
X0095020Y0137050D01*
X0095020Y0151050D01*
X0094520Y0151550D01*
X0094520Y0153050D01*
X0094522Y0153110D01*
X0094527Y0153171D01*
X0094536Y0153230D01*
X0094549Y0153289D01*
X0094565Y0153348D01*
X0094585Y0153405D01*
X0094608Y0153460D01*
X0094635Y0153515D01*
X0094664Y0153567D01*
X0094697Y0153618D01*
X0094733Y0153667D01*
X0094771Y0153713D01*
X0094813Y0153757D01*
X0094857Y0153799D01*
X0094903Y0153837D01*
X0094952Y0153873D01*
X0095003Y0153906D01*
X0095055Y0153935D01*
X0095110Y0153962D01*
X0095165Y0153985D01*
X0095222Y0154005D01*
X0095281Y0154021D01*
X0095340Y0154034D01*
X0095399Y0154043D01*
X0095460Y0154048D01*
X0095520Y0154050D01*
X0101520Y0154050D01*
X0101580Y0154048D01*
X0101641Y0154043D01*
X0101700Y0154034D01*
X0101759Y0154021D01*
X0101818Y0154005D01*
X0101875Y0153985D01*
X0101930Y0153962D01*
X0101985Y0153935D01*
X0102037Y0153906D01*
X0102088Y0153873D01*
X0102137Y0153837D01*
X0102183Y0153799D01*
X0102227Y0153757D01*
X0102269Y0153713D01*
X0102307Y0153667D01*
X0102343Y0153618D01*
X0102376Y0153567D01*
X0102405Y0153515D01*
X0102432Y0153460D01*
X0102455Y0153405D01*
X0102475Y0153348D01*
X0102491Y0153289D01*
X0102504Y0153230D01*
X0102513Y0153171D01*
X0102518Y0153110D01*
X0102520Y0153050D01*
X0102520Y0151550D01*
X0102020Y0151050D01*
X0102020Y0137050D01*
X0102520Y0136550D01*
X0102520Y0135050D01*
X0102518Y0134990D01*
X0102513Y0134929D01*
X0102504Y0134870D01*
X0102491Y0134811D01*
X0102475Y0134752D01*
X0102455Y0134695D01*
X0102432Y0134640D01*
X0102405Y0134585D01*
X0102376Y0134533D01*
X0102343Y0134482D01*
X0102307Y0134433D01*
X0102269Y0134387D01*
X0102227Y0134343D01*
X0102183Y0134301D01*
X0102137Y0134263D01*
X0102088Y0134227D01*
X0102037Y0134194D01*
X0101985Y0134165D01*
X0101930Y0134138D01*
X0101875Y0134115D01*
X0101818Y0134095D01*
X0101759Y0134079D01*
X0101700Y0134066D01*
X0101641Y0134057D01*
X0101580Y0134052D01*
X0101520Y0134050D01*
X0095520Y0134050D01*
X0095460Y0134052D01*
X0095399Y0134057D01*
X0095340Y0134066D01*
X0095281Y0134079D01*
X0095222Y0134095D01*
X0095165Y0134115D01*
X0095110Y0134138D01*
X0095055Y0134165D01*
X0095003Y0134194D01*
X0094952Y0134227D01*
X0094903Y0134263D01*
X0094857Y0134301D01*
X0094813Y0134343D01*
X0094771Y0134387D01*
X0094733Y0134433D01*
X0094697Y0134482D01*
X0094664Y0134533D01*
X0094635Y0134585D01*
X0094608Y0134640D01*
X0094585Y0134695D01*
X0094565Y0134752D01*
X0094549Y0134811D01*
X0094536Y0134870D01*
X0094527Y0134929D01*
X0094522Y0134990D01*
X0094520Y0135050D01*
X0099020Y0112550D02*
X0112020Y0112550D01*
X0112107Y0112548D01*
X0112194Y0112542D01*
X0112281Y0112533D01*
X0112367Y0112520D01*
X0112453Y0112503D01*
X0112538Y0112482D01*
X0112621Y0112457D01*
X0112704Y0112429D01*
X0112785Y0112398D01*
X0112865Y0112363D01*
X0112943Y0112324D01*
X0113020Y0112282D01*
X0113095Y0112237D01*
X0113167Y0112188D01*
X0113238Y0112137D01*
X0113306Y0112082D01*
X0113371Y0112025D01*
X0113434Y0111964D01*
X0113495Y0111901D01*
X0113552Y0111836D01*
X0113607Y0111768D01*
X0113658Y0111697D01*
X0113707Y0111625D01*
X0113752Y0111550D01*
X0113794Y0111473D01*
X0113833Y0111395D01*
X0113868Y0111315D01*
X0113899Y0111234D01*
X0113927Y0111151D01*
X0113952Y0111068D01*
X0113973Y0110983D01*
X0113990Y0110897D01*
X0114003Y0110811D01*
X0114012Y0110724D01*
X0114018Y0110637D01*
X0114020Y0110550D01*
X0110520Y0108050D02*
X0106820Y0108050D01*
X0104320Y0108050D02*
X0100520Y0108050D01*
X0097020Y0110550D02*
X0097022Y0110637D01*
X0097028Y0110724D01*
X0097037Y0110811D01*
X0097050Y0110897D01*
X0097067Y0110983D01*
X0097088Y0111068D01*
X0097113Y0111151D01*
X0097141Y0111234D01*
X0097172Y0111315D01*
X0097207Y0111395D01*
X0097246Y0111473D01*
X0097288Y0111550D01*
X0097333Y0111625D01*
X0097382Y0111697D01*
X0097433Y0111768D01*
X0097488Y0111836D01*
X0097545Y0111901D01*
X0097606Y0111964D01*
X0097669Y0112025D01*
X0097734Y0112082D01*
X0097802Y0112137D01*
X0097873Y0112188D01*
X0097945Y0112237D01*
X0098020Y0112282D01*
X0098097Y0112324D01*
X0098175Y0112363D01*
X0098255Y0112398D01*
X0098336Y0112429D01*
X0098419Y0112457D01*
X0098502Y0112482D01*
X0098587Y0112503D01*
X0098673Y0112520D01*
X0098759Y0112533D01*
X0098846Y0112542D01*
X0098933Y0112548D01*
X0099020Y0112550D01*
X0097020Y0105550D02*
X0097022Y0105463D01*
X0097028Y0105376D01*
X0097037Y0105289D01*
X0097050Y0105203D01*
X0097067Y0105117D01*
X0097088Y0105032D01*
X0097113Y0104949D01*
X0097141Y0104866D01*
X0097172Y0104785D01*
X0097207Y0104705D01*
X0097246Y0104627D01*
X0097288Y0104550D01*
X0097333Y0104475D01*
X0097382Y0104403D01*
X0097433Y0104332D01*
X0097488Y0104264D01*
X0097545Y0104199D01*
X0097606Y0104136D01*
X0097669Y0104075D01*
X0097734Y0104018D01*
X0097802Y0103963D01*
X0097873Y0103912D01*
X0097945Y0103863D01*
X0098020Y0103818D01*
X0098097Y0103776D01*
X0098175Y0103737D01*
X0098255Y0103702D01*
X0098336Y0103671D01*
X0098419Y0103643D01*
X0098502Y0103618D01*
X0098587Y0103597D01*
X0098673Y0103580D01*
X0098759Y0103567D01*
X0098846Y0103558D01*
X0098933Y0103552D01*
X0099020Y0103550D01*
X0112020Y0103550D01*
X0112107Y0103552D01*
X0112194Y0103558D01*
X0112281Y0103567D01*
X0112367Y0103580D01*
X0112453Y0103597D01*
X0112538Y0103618D01*
X0112621Y0103643D01*
X0112704Y0103671D01*
X0112785Y0103702D01*
X0112865Y0103737D01*
X0112943Y0103776D01*
X0113020Y0103818D01*
X0113095Y0103863D01*
X0113167Y0103912D01*
X0113238Y0103963D01*
X0113306Y0104018D01*
X0113371Y0104075D01*
X0113434Y0104136D01*
X0113495Y0104199D01*
X0113552Y0104264D01*
X0113607Y0104332D01*
X0113658Y0104403D01*
X0113707Y0104475D01*
X0113752Y0104550D01*
X0113794Y0104627D01*
X0113833Y0104705D01*
X0113868Y0104785D01*
X0113899Y0104866D01*
X0113927Y0104949D01*
X0113952Y0105032D01*
X0113973Y0105117D01*
X0113990Y0105203D01*
X0114003Y0105289D01*
X0114012Y0105376D01*
X0114018Y0105463D01*
X0114020Y0105550D01*
X0115020Y0095550D02*
X0116520Y0095550D01*
X0117020Y0095050D01*
X0136020Y0095050D01*
X0136520Y0095550D01*
X0138020Y0095550D01*
X0138080Y0095548D01*
X0138141Y0095543D01*
X0138200Y0095534D01*
X0138259Y0095521D01*
X0138318Y0095505D01*
X0138375Y0095485D01*
X0138430Y0095462D01*
X0138485Y0095435D01*
X0138537Y0095406D01*
X0138588Y0095373D01*
X0138637Y0095337D01*
X0138683Y0095299D01*
X0138727Y0095257D01*
X0138769Y0095213D01*
X0138807Y0095167D01*
X0138843Y0095118D01*
X0138876Y0095067D01*
X0138905Y0095015D01*
X0138932Y0094960D01*
X0138955Y0094905D01*
X0138975Y0094848D01*
X0138991Y0094789D01*
X0139004Y0094730D01*
X0139013Y0094671D01*
X0139018Y0094610D01*
X0139020Y0094550D01*
X0139020Y0087550D01*
X0139018Y0087490D01*
X0139013Y0087429D01*
X0139004Y0087370D01*
X0138991Y0087311D01*
X0138975Y0087252D01*
X0138955Y0087195D01*
X0138932Y0087140D01*
X0138905Y0087085D01*
X0138876Y0087033D01*
X0138843Y0086982D01*
X0138807Y0086933D01*
X0138769Y0086887D01*
X0138727Y0086843D01*
X0138683Y0086801D01*
X0138637Y0086763D01*
X0138588Y0086727D01*
X0138537Y0086694D01*
X0138485Y0086665D01*
X0138430Y0086638D01*
X0138375Y0086615D01*
X0138318Y0086595D01*
X0138259Y0086579D01*
X0138200Y0086566D01*
X0138141Y0086557D01*
X0138080Y0086552D01*
X0138020Y0086550D01*
X0136520Y0086550D01*
X0136020Y0087050D01*
X0117020Y0087050D01*
X0116520Y0086550D01*
X0115020Y0086550D01*
X0114960Y0086552D01*
X0114899Y0086557D01*
X0114840Y0086566D01*
X0114781Y0086579D01*
X0114722Y0086595D01*
X0114665Y0086615D01*
X0114610Y0086638D01*
X0114555Y0086665D01*
X0114503Y0086694D01*
X0114452Y0086727D01*
X0114403Y0086763D01*
X0114357Y0086801D01*
X0114313Y0086843D01*
X0114271Y0086887D01*
X0114233Y0086933D01*
X0114197Y0086982D01*
X0114164Y0087033D01*
X0114135Y0087085D01*
X0114108Y0087140D01*
X0114085Y0087195D01*
X0114065Y0087252D01*
X0114049Y0087311D01*
X0114036Y0087370D01*
X0114027Y0087429D01*
X0114022Y0087490D01*
X0114020Y0087550D01*
X0114020Y0094550D01*
X0114022Y0094610D01*
X0114027Y0094671D01*
X0114036Y0094730D01*
X0114049Y0094789D01*
X0114065Y0094848D01*
X0114085Y0094905D01*
X0114108Y0094960D01*
X0114135Y0095015D01*
X0114164Y0095067D01*
X0114197Y0095118D01*
X0114233Y0095167D01*
X0114271Y0095213D01*
X0114313Y0095257D01*
X0114357Y0095299D01*
X0114403Y0095337D01*
X0114452Y0095373D01*
X0114503Y0095406D01*
X0114555Y0095435D01*
X0114610Y0095462D01*
X0114665Y0095485D01*
X0114722Y0095505D01*
X0114781Y0095521D01*
X0114840Y0095534D01*
X0114899Y0095543D01*
X0114960Y0095548D01*
X0115020Y0095550D01*
X0130020Y0103550D02*
X0143020Y0103550D01*
X0143107Y0103552D01*
X0143194Y0103558D01*
X0143281Y0103567D01*
X0143367Y0103580D01*
X0143453Y0103597D01*
X0143538Y0103618D01*
X0143621Y0103643D01*
X0143704Y0103671D01*
X0143785Y0103702D01*
X0143865Y0103737D01*
X0143943Y0103776D01*
X0144020Y0103818D01*
X0144095Y0103863D01*
X0144167Y0103912D01*
X0144238Y0103963D01*
X0144306Y0104018D01*
X0144371Y0104075D01*
X0144434Y0104136D01*
X0144495Y0104199D01*
X0144552Y0104264D01*
X0144607Y0104332D01*
X0144658Y0104403D01*
X0144707Y0104475D01*
X0144752Y0104550D01*
X0144794Y0104627D01*
X0144833Y0104705D01*
X0144868Y0104785D01*
X0144899Y0104866D01*
X0144927Y0104949D01*
X0144952Y0105032D01*
X0144973Y0105117D01*
X0144990Y0105203D01*
X0145003Y0105289D01*
X0145012Y0105376D01*
X0145018Y0105463D01*
X0145020Y0105550D01*
X0141520Y0108050D02*
X0137820Y0108050D01*
X0135320Y0108050D02*
X0131520Y0108050D01*
X0128020Y0110550D02*
X0128022Y0110637D01*
X0128028Y0110724D01*
X0128037Y0110811D01*
X0128050Y0110897D01*
X0128067Y0110983D01*
X0128088Y0111068D01*
X0128113Y0111151D01*
X0128141Y0111234D01*
X0128172Y0111315D01*
X0128207Y0111395D01*
X0128246Y0111473D01*
X0128288Y0111550D01*
X0128333Y0111625D01*
X0128382Y0111697D01*
X0128433Y0111768D01*
X0128488Y0111836D01*
X0128545Y0111901D01*
X0128606Y0111964D01*
X0128669Y0112025D01*
X0128734Y0112082D01*
X0128802Y0112137D01*
X0128873Y0112188D01*
X0128945Y0112237D01*
X0129020Y0112282D01*
X0129097Y0112324D01*
X0129175Y0112363D01*
X0129255Y0112398D01*
X0129336Y0112429D01*
X0129419Y0112457D01*
X0129502Y0112482D01*
X0129587Y0112503D01*
X0129673Y0112520D01*
X0129759Y0112533D01*
X0129846Y0112542D01*
X0129933Y0112548D01*
X0130020Y0112550D01*
X0143020Y0112550D01*
X0143107Y0112548D01*
X0143194Y0112542D01*
X0143281Y0112533D01*
X0143367Y0112520D01*
X0143453Y0112503D01*
X0143538Y0112482D01*
X0143621Y0112457D01*
X0143704Y0112429D01*
X0143785Y0112398D01*
X0143865Y0112363D01*
X0143943Y0112324D01*
X0144020Y0112282D01*
X0144095Y0112237D01*
X0144167Y0112188D01*
X0144238Y0112137D01*
X0144306Y0112082D01*
X0144371Y0112025D01*
X0144434Y0111964D01*
X0144495Y0111901D01*
X0144552Y0111836D01*
X0144607Y0111768D01*
X0144658Y0111697D01*
X0144707Y0111625D01*
X0144752Y0111550D01*
X0144794Y0111473D01*
X0144833Y0111395D01*
X0144868Y0111315D01*
X0144899Y0111234D01*
X0144927Y0111151D01*
X0144952Y0111068D01*
X0144973Y0110983D01*
X0144990Y0110897D01*
X0145003Y0110811D01*
X0145012Y0110724D01*
X0145018Y0110637D01*
X0145020Y0110550D01*
X0159020Y0110550D02*
X0159022Y0110637D01*
X0159028Y0110724D01*
X0159037Y0110811D01*
X0159050Y0110897D01*
X0159067Y0110983D01*
X0159088Y0111068D01*
X0159113Y0111151D01*
X0159141Y0111234D01*
X0159172Y0111315D01*
X0159207Y0111395D01*
X0159246Y0111473D01*
X0159288Y0111550D01*
X0159333Y0111625D01*
X0159382Y0111697D01*
X0159433Y0111768D01*
X0159488Y0111836D01*
X0159545Y0111901D01*
X0159606Y0111964D01*
X0159669Y0112025D01*
X0159734Y0112082D01*
X0159802Y0112137D01*
X0159873Y0112188D01*
X0159945Y0112237D01*
X0160020Y0112282D01*
X0160097Y0112324D01*
X0160175Y0112363D01*
X0160255Y0112398D01*
X0160336Y0112429D01*
X0160419Y0112457D01*
X0160502Y0112482D01*
X0160587Y0112503D01*
X0160673Y0112520D01*
X0160759Y0112533D01*
X0160846Y0112542D01*
X0160933Y0112548D01*
X0161020Y0112550D01*
X0174020Y0112550D01*
X0174107Y0112548D01*
X0174194Y0112542D01*
X0174281Y0112533D01*
X0174367Y0112520D01*
X0174453Y0112503D01*
X0174538Y0112482D01*
X0174621Y0112457D01*
X0174704Y0112429D01*
X0174785Y0112398D01*
X0174865Y0112363D01*
X0174943Y0112324D01*
X0175020Y0112282D01*
X0175095Y0112237D01*
X0175167Y0112188D01*
X0175238Y0112137D01*
X0175306Y0112082D01*
X0175371Y0112025D01*
X0175434Y0111964D01*
X0175495Y0111901D01*
X0175552Y0111836D01*
X0175607Y0111768D01*
X0175658Y0111697D01*
X0175707Y0111625D01*
X0175752Y0111550D01*
X0175794Y0111473D01*
X0175833Y0111395D01*
X0175868Y0111315D01*
X0175899Y0111234D01*
X0175927Y0111151D01*
X0175952Y0111068D01*
X0175973Y0110983D01*
X0175990Y0110897D01*
X0176003Y0110811D01*
X0176012Y0110724D01*
X0176018Y0110637D01*
X0176020Y0110550D01*
X0172520Y0108050D02*
X0168820Y0108050D01*
X0166320Y0108050D02*
X0162520Y0108050D01*
X0159020Y0105550D02*
X0159022Y0105463D01*
X0159028Y0105376D01*
X0159037Y0105289D01*
X0159050Y0105203D01*
X0159067Y0105117D01*
X0159088Y0105032D01*
X0159113Y0104949D01*
X0159141Y0104866D01*
X0159172Y0104785D01*
X0159207Y0104705D01*
X0159246Y0104627D01*
X0159288Y0104550D01*
X0159333Y0104475D01*
X0159382Y0104403D01*
X0159433Y0104332D01*
X0159488Y0104264D01*
X0159545Y0104199D01*
X0159606Y0104136D01*
X0159669Y0104075D01*
X0159734Y0104018D01*
X0159802Y0103963D01*
X0159873Y0103912D01*
X0159945Y0103863D01*
X0160020Y0103818D01*
X0160097Y0103776D01*
X0160175Y0103737D01*
X0160255Y0103702D01*
X0160336Y0103671D01*
X0160419Y0103643D01*
X0160502Y0103618D01*
X0160587Y0103597D01*
X0160673Y0103580D01*
X0160759Y0103567D01*
X0160846Y0103558D01*
X0160933Y0103552D01*
X0161020Y0103550D01*
X0174020Y0103550D01*
X0174107Y0103552D01*
X0174194Y0103558D01*
X0174281Y0103567D01*
X0174367Y0103580D01*
X0174453Y0103597D01*
X0174538Y0103618D01*
X0174621Y0103643D01*
X0174704Y0103671D01*
X0174785Y0103702D01*
X0174865Y0103737D01*
X0174943Y0103776D01*
X0175020Y0103818D01*
X0175095Y0103863D01*
X0175167Y0103912D01*
X0175238Y0103963D01*
X0175306Y0104018D01*
X0175371Y0104075D01*
X0175434Y0104136D01*
X0175495Y0104199D01*
X0175552Y0104264D01*
X0175607Y0104332D01*
X0175658Y0104403D01*
X0175707Y0104475D01*
X0175752Y0104550D01*
X0175794Y0104627D01*
X0175833Y0104705D01*
X0175868Y0104785D01*
X0175899Y0104866D01*
X0175927Y0104949D01*
X0175952Y0105032D01*
X0175973Y0105117D01*
X0175990Y0105203D01*
X0176003Y0105289D01*
X0176012Y0105376D01*
X0176018Y0105463D01*
X0176020Y0105550D01*
X0170468Y0095755D02*
X0167265Y0095755D01*
X0167265Y0089350D01*
X0170468Y0089350D01*
X0171535Y0090417D01*
X0171535Y0091485D01*
X0170468Y0092553D01*
X0167265Y0092553D01*
X0165090Y0092553D02*
X0165090Y0090417D01*
X0164022Y0089350D01*
X0161887Y0089350D01*
X0160820Y0090417D01*
X0160820Y0094688D01*
X0161887Y0095755D01*
X0164022Y0095755D01*
X0165090Y0094688D01*
X0165090Y0092553D02*
X0162955Y0092553D01*
X0170468Y0092553D02*
X0171535Y0093620D01*
X0171535Y0094688D01*
X0170468Y0095755D01*
X0139020Y0079550D02*
X0139020Y0072550D01*
X0139018Y0072490D01*
X0139013Y0072429D01*
X0139004Y0072370D01*
X0138991Y0072311D01*
X0138975Y0072252D01*
X0138955Y0072195D01*
X0138932Y0072140D01*
X0138905Y0072085D01*
X0138876Y0072033D01*
X0138843Y0071982D01*
X0138807Y0071933D01*
X0138769Y0071887D01*
X0138727Y0071843D01*
X0138683Y0071801D01*
X0138637Y0071763D01*
X0138588Y0071727D01*
X0138537Y0071694D01*
X0138485Y0071665D01*
X0138430Y0071638D01*
X0138375Y0071615D01*
X0138318Y0071595D01*
X0138259Y0071579D01*
X0138200Y0071566D01*
X0138141Y0071557D01*
X0138080Y0071552D01*
X0138020Y0071550D01*
X0136520Y0071550D01*
X0136020Y0072050D01*
X0117020Y0072050D01*
X0116520Y0071550D01*
X0115020Y0071550D01*
X0114960Y0071552D01*
X0114899Y0071557D01*
X0114840Y0071566D01*
X0114781Y0071579D01*
X0114722Y0071595D01*
X0114665Y0071615D01*
X0114610Y0071638D01*
X0114555Y0071665D01*
X0114503Y0071694D01*
X0114452Y0071727D01*
X0114403Y0071763D01*
X0114357Y0071801D01*
X0114313Y0071843D01*
X0114271Y0071887D01*
X0114233Y0071933D01*
X0114197Y0071982D01*
X0114164Y0072033D01*
X0114135Y0072085D01*
X0114108Y0072140D01*
X0114085Y0072195D01*
X0114065Y0072252D01*
X0114049Y0072311D01*
X0114036Y0072370D01*
X0114027Y0072429D01*
X0114022Y0072490D01*
X0114020Y0072550D01*
X0114020Y0079550D01*
X0114022Y0079610D01*
X0114027Y0079671D01*
X0114036Y0079730D01*
X0114049Y0079789D01*
X0114065Y0079848D01*
X0114085Y0079905D01*
X0114108Y0079960D01*
X0114135Y0080015D01*
X0114164Y0080067D01*
X0114197Y0080118D01*
X0114233Y0080167D01*
X0114271Y0080213D01*
X0114313Y0080257D01*
X0114357Y0080299D01*
X0114403Y0080337D01*
X0114452Y0080373D01*
X0114503Y0080406D01*
X0114555Y0080435D01*
X0114610Y0080462D01*
X0114665Y0080485D01*
X0114722Y0080505D01*
X0114781Y0080521D01*
X0114840Y0080534D01*
X0114899Y0080543D01*
X0114960Y0080548D01*
X0115020Y0080550D01*
X0116520Y0080550D01*
X0117020Y0080050D01*
X0136020Y0080050D01*
X0136520Y0080550D01*
X0138020Y0080550D01*
X0138080Y0080548D01*
X0138141Y0080543D01*
X0138200Y0080534D01*
X0138259Y0080521D01*
X0138318Y0080505D01*
X0138375Y0080485D01*
X0138430Y0080462D01*
X0138485Y0080435D01*
X0138537Y0080406D01*
X0138588Y0080373D01*
X0138637Y0080337D01*
X0138683Y0080299D01*
X0138727Y0080257D01*
X0138769Y0080213D01*
X0138807Y0080167D01*
X0138843Y0080118D01*
X0138876Y0080067D01*
X0138905Y0080015D01*
X0138932Y0079960D01*
X0138955Y0079905D01*
X0138975Y0079848D01*
X0138991Y0079789D01*
X0139004Y0079730D01*
X0139013Y0079671D01*
X0139018Y0079610D01*
X0139020Y0079550D01*
X0138020Y0066550D02*
X0136520Y0066550D01*
X0136020Y0066050D01*
X0117020Y0066050D01*
X0116520Y0066550D01*
X0115020Y0066550D01*
X0114960Y0066548D01*
X0114899Y0066543D01*
X0114840Y0066534D01*
X0114781Y0066521D01*
X0114722Y0066505D01*
X0114665Y0066485D01*
X0114610Y0066462D01*
X0114555Y0066435D01*
X0114503Y0066406D01*
X0114452Y0066373D01*
X0114403Y0066337D01*
X0114357Y0066299D01*
X0114313Y0066257D01*
X0114271Y0066213D01*
X0114233Y0066167D01*
X0114197Y0066118D01*
X0114164Y0066067D01*
X0114135Y0066015D01*
X0114108Y0065960D01*
X0114085Y0065905D01*
X0114065Y0065848D01*
X0114049Y0065789D01*
X0114036Y0065730D01*
X0114027Y0065671D01*
X0114022Y0065610D01*
X0114020Y0065550D01*
X0114020Y0058550D01*
X0114022Y0058490D01*
X0114027Y0058429D01*
X0114036Y0058370D01*
X0114049Y0058311D01*
X0114065Y0058252D01*
X0114085Y0058195D01*
X0114108Y0058140D01*
X0114135Y0058085D01*
X0114164Y0058033D01*
X0114197Y0057982D01*
X0114233Y0057933D01*
X0114271Y0057887D01*
X0114313Y0057843D01*
X0114357Y0057801D01*
X0114403Y0057763D01*
X0114452Y0057727D01*
X0114503Y0057694D01*
X0114555Y0057665D01*
X0114610Y0057638D01*
X0114665Y0057615D01*
X0114722Y0057595D01*
X0114781Y0057579D01*
X0114840Y0057566D01*
X0114899Y0057557D01*
X0114960Y0057552D01*
X0115020Y0057550D01*
X0116520Y0057550D01*
X0117020Y0058050D01*
X0136020Y0058050D01*
X0136520Y0057550D01*
X0138020Y0057550D01*
X0138080Y0057552D01*
X0138141Y0057557D01*
X0138200Y0057566D01*
X0138259Y0057579D01*
X0138318Y0057595D01*
X0138375Y0057615D01*
X0138430Y0057638D01*
X0138485Y0057665D01*
X0138537Y0057694D01*
X0138588Y0057727D01*
X0138637Y0057763D01*
X0138683Y0057801D01*
X0138727Y0057843D01*
X0138769Y0057887D01*
X0138807Y0057933D01*
X0138843Y0057982D01*
X0138876Y0058033D01*
X0138905Y0058085D01*
X0138932Y0058140D01*
X0138955Y0058195D01*
X0138975Y0058252D01*
X0138991Y0058311D01*
X0139004Y0058370D01*
X0139013Y0058429D01*
X0139018Y0058490D01*
X0139020Y0058550D01*
X0139020Y0065550D01*
X0139018Y0065610D01*
X0139013Y0065671D01*
X0139004Y0065730D01*
X0138991Y0065789D01*
X0138975Y0065848D01*
X0138955Y0065905D01*
X0138932Y0065960D01*
X0138905Y0066015D01*
X0138876Y0066067D01*
X0138843Y0066118D01*
X0138807Y0066167D01*
X0138769Y0066213D01*
X0138727Y0066257D01*
X0138683Y0066299D01*
X0138637Y0066337D01*
X0138588Y0066373D01*
X0138537Y0066406D01*
X0138485Y0066435D01*
X0138430Y0066462D01*
X0138375Y0066485D01*
X0138318Y0066505D01*
X0138259Y0066521D01*
X0138200Y0066534D01*
X0138141Y0066543D01*
X0138080Y0066548D01*
X0138020Y0066550D01*
X0138020Y0052550D02*
X0136520Y0052550D01*
X0136020Y0052050D01*
X0117020Y0052050D01*
X0116520Y0052550D01*
X0115020Y0052550D01*
X0114960Y0052548D01*
X0114899Y0052543D01*
X0114840Y0052534D01*
X0114781Y0052521D01*
X0114722Y0052505D01*
X0114665Y0052485D01*
X0114610Y0052462D01*
X0114555Y0052435D01*
X0114503Y0052406D01*
X0114452Y0052373D01*
X0114403Y0052337D01*
X0114357Y0052299D01*
X0114313Y0052257D01*
X0114271Y0052213D01*
X0114233Y0052167D01*
X0114197Y0052118D01*
X0114164Y0052067D01*
X0114135Y0052015D01*
X0114108Y0051960D01*
X0114085Y0051905D01*
X0114065Y0051848D01*
X0114049Y0051789D01*
X0114036Y0051730D01*
X0114027Y0051671D01*
X0114022Y0051610D01*
X0114020Y0051550D01*
X0114020Y0044550D01*
X0114022Y0044490D01*
X0114027Y0044429D01*
X0114036Y0044370D01*
X0114049Y0044311D01*
X0114065Y0044252D01*
X0114085Y0044195D01*
X0114108Y0044140D01*
X0114135Y0044085D01*
X0114164Y0044033D01*
X0114197Y0043982D01*
X0114233Y0043933D01*
X0114271Y0043887D01*
X0114313Y0043843D01*
X0114357Y0043801D01*
X0114403Y0043763D01*
X0114452Y0043727D01*
X0114503Y0043694D01*
X0114555Y0043665D01*
X0114610Y0043638D01*
X0114665Y0043615D01*
X0114722Y0043595D01*
X0114781Y0043579D01*
X0114840Y0043566D01*
X0114899Y0043557D01*
X0114960Y0043552D01*
X0115020Y0043550D01*
X0116520Y0043550D01*
X0117020Y0044050D01*
X0136020Y0044050D01*
X0136520Y0043550D01*
X0138020Y0043550D01*
X0138080Y0043552D01*
X0138141Y0043557D01*
X0138200Y0043566D01*
X0138259Y0043579D01*
X0138318Y0043595D01*
X0138375Y0043615D01*
X0138430Y0043638D01*
X0138485Y0043665D01*
X0138537Y0043694D01*
X0138588Y0043727D01*
X0138637Y0043763D01*
X0138683Y0043801D01*
X0138727Y0043843D01*
X0138769Y0043887D01*
X0138807Y0043933D01*
X0138843Y0043982D01*
X0138876Y0044033D01*
X0138905Y0044085D01*
X0138932Y0044140D01*
X0138955Y0044195D01*
X0138975Y0044252D01*
X0138991Y0044311D01*
X0139004Y0044370D01*
X0139013Y0044429D01*
X0139018Y0044490D01*
X0139020Y0044550D01*
X0139020Y0051550D01*
X0139018Y0051610D01*
X0139013Y0051671D01*
X0139004Y0051730D01*
X0138991Y0051789D01*
X0138975Y0051848D01*
X0138955Y0051905D01*
X0138932Y0051960D01*
X0138905Y0052015D01*
X0138876Y0052067D01*
X0138843Y0052118D01*
X0138807Y0052167D01*
X0138769Y0052213D01*
X0138727Y0052257D01*
X0138683Y0052299D01*
X0138637Y0052337D01*
X0138588Y0052373D01*
X0138537Y0052406D01*
X0138485Y0052435D01*
X0138430Y0052462D01*
X0138375Y0052485D01*
X0138318Y0052505D01*
X0138259Y0052521D01*
X0138200Y0052534D01*
X0138141Y0052543D01*
X0138080Y0052548D01*
X0138020Y0052550D01*
X0145020Y0037050D02*
X0147520Y0037050D01*
X0147580Y0037048D01*
X0147641Y0037043D01*
X0147700Y0037034D01*
X0147759Y0037021D01*
X0147818Y0037005D01*
X0147875Y0036985D01*
X0147930Y0036962D01*
X0147985Y0036935D01*
X0148037Y0036906D01*
X0148088Y0036873D01*
X0148137Y0036837D01*
X0148183Y0036799D01*
X0148227Y0036757D01*
X0148269Y0036713D01*
X0148307Y0036667D01*
X0148343Y0036618D01*
X0148376Y0036567D01*
X0148405Y0036515D01*
X0148432Y0036460D01*
X0148455Y0036405D01*
X0148475Y0036348D01*
X0148491Y0036289D01*
X0148504Y0036230D01*
X0148513Y0036171D01*
X0148518Y0036110D01*
X0148520Y0036050D01*
X0148520Y0026050D01*
X0148518Y0025990D01*
X0148513Y0025929D01*
X0148504Y0025870D01*
X0148491Y0025811D01*
X0148475Y0025752D01*
X0148455Y0025695D01*
X0148432Y0025640D01*
X0148405Y0025585D01*
X0148376Y0025533D01*
X0148343Y0025482D01*
X0148307Y0025433D01*
X0148269Y0025387D01*
X0148227Y0025343D01*
X0148183Y0025301D01*
X0148137Y0025263D01*
X0148088Y0025227D01*
X0148037Y0025194D01*
X0147985Y0025165D01*
X0147930Y0025138D01*
X0147875Y0025115D01*
X0147818Y0025095D01*
X0147759Y0025079D01*
X0147700Y0025066D01*
X0147641Y0025057D01*
X0147580Y0025052D01*
X0147520Y0025050D01*
X0145020Y0025050D01*
X0144520Y0025550D01*
X0118520Y0025550D01*
X0118020Y0025050D01*
X0115520Y0025050D01*
X0115460Y0025052D01*
X0115399Y0025057D01*
X0115340Y0025066D01*
X0115281Y0025079D01*
X0115222Y0025095D01*
X0115165Y0025115D01*
X0115110Y0025138D01*
X0115055Y0025165D01*
X0115003Y0025194D01*
X0114952Y0025227D01*
X0114903Y0025263D01*
X0114857Y0025301D01*
X0114813Y0025343D01*
X0114771Y0025387D01*
X0114733Y0025433D01*
X0114697Y0025482D01*
X0114664Y0025533D01*
X0114635Y0025585D01*
X0114608Y0025640D01*
X0114585Y0025695D01*
X0114565Y0025752D01*
X0114549Y0025811D01*
X0114536Y0025870D01*
X0114527Y0025929D01*
X0114522Y0025990D01*
X0114520Y0026050D01*
X0114520Y0036050D01*
X0114522Y0036110D01*
X0114527Y0036171D01*
X0114536Y0036230D01*
X0114549Y0036289D01*
X0114565Y0036348D01*
X0114585Y0036405D01*
X0114608Y0036460D01*
X0114635Y0036515D01*
X0114664Y0036567D01*
X0114697Y0036618D01*
X0114733Y0036667D01*
X0114771Y0036713D01*
X0114813Y0036757D01*
X0114857Y0036799D01*
X0114903Y0036837D01*
X0114952Y0036873D01*
X0115003Y0036906D01*
X0115055Y0036935D01*
X0115110Y0036962D01*
X0115165Y0036985D01*
X0115222Y0037005D01*
X0115281Y0037021D01*
X0115340Y0037034D01*
X0115399Y0037043D01*
X0115460Y0037048D01*
X0115520Y0037050D01*
X0118020Y0037050D01*
X0118520Y0036550D01*
X0144520Y0036550D01*
X0145020Y0037050D01*
X0145020Y0020050D02*
X0140020Y0020050D01*
X0137520Y0017550D01*
X0137520Y0012550D01*
X0135020Y0010050D01*
X0130020Y0010050D01*
X0127520Y0012550D01*
X0125020Y0010050D01*
X0120020Y0010050D01*
X0117520Y0012550D01*
X0115020Y0010050D01*
X0110020Y0010050D01*
X0107520Y0012550D01*
X0105020Y0010050D01*
X0100020Y0010050D01*
X0097520Y0012550D01*
X0095020Y0010050D01*
X0090020Y0010050D01*
X0087520Y0012550D01*
X0087520Y0017550D01*
X0090020Y0020050D01*
X0095020Y0020050D01*
X0097520Y0017550D01*
X0100020Y0020050D01*
X0105020Y0020050D01*
X0107520Y0017550D01*
X0107520Y0012550D01*
X0107520Y0017550D02*
X0110020Y0020050D01*
X0115020Y0020050D01*
X0117520Y0017550D01*
X0120020Y0020050D01*
X0125020Y0020050D01*
X0127520Y0017550D01*
X0130020Y0020050D01*
X0135020Y0020050D01*
X0137520Y0017550D01*
X0137520Y0012550D02*
X0140020Y0010050D01*
X0145020Y0010050D01*
X0147520Y0012550D01*
X0150020Y0010050D01*
X0155020Y0010050D01*
X0157520Y0012550D01*
X0160020Y0010050D01*
X0165020Y0010050D01*
X0167520Y0012550D01*
X0167520Y0017550D01*
X0165020Y0020050D01*
X0160020Y0020050D01*
X0157520Y0017550D01*
X0157520Y0012550D01*
X0157520Y0017550D02*
X0155020Y0020050D01*
X0150020Y0020050D01*
X0147520Y0017550D01*
X0147520Y0012550D01*
X0147520Y0017550D02*
X0145020Y0020050D01*
X0127520Y0017550D02*
X0127520Y0012550D01*
X0117520Y0012550D02*
X0117520Y0017550D01*
X0097520Y0017550D02*
X0097520Y0012550D01*
X0081520Y0011050D02*
X0080520Y0010050D01*
X0072520Y0010050D01*
X0071520Y0011050D01*
X0070520Y0010050D01*
X0062520Y0010050D01*
X0061520Y0011050D01*
X0061520Y0019050D01*
X0062520Y0020050D01*
X0070520Y0020050D01*
X0071520Y0019050D01*
X0072520Y0020050D01*
X0080520Y0020050D01*
X0081520Y0019050D01*
X0081520Y0011050D01*
X0023220Y0011350D02*
X0023220Y0012217D01*
X0023220Y0011784D02*
X0020617Y0011784D01*
X0020617Y0012217D02*
X0020617Y0011350D01*
X0021051Y0013314D02*
X0022786Y0013314D01*
X0023220Y0013748D01*
X0023220Y0014615D01*
X0022786Y0015049D01*
X0022786Y0016261D02*
X0023220Y0016694D01*
X0023220Y0017562D01*
X0022786Y0017996D01*
X0022352Y0017996D01*
X0021919Y0017562D01*
X0021919Y0016694D01*
X0021485Y0016261D01*
X0021051Y0016261D01*
X0020617Y0016694D01*
X0020617Y0017562D01*
X0021051Y0017996D01*
X0020617Y0019207D02*
X0020617Y0020508D01*
X0021051Y0020942D01*
X0021919Y0020942D01*
X0022352Y0020508D01*
X0022352Y0019207D01*
X0023220Y0019207D02*
X0020617Y0019207D01*
X0021051Y0015049D02*
X0020617Y0014615D01*
X0020617Y0013748D01*
X0021051Y0013314D01*
X0023653Y0022154D02*
X0023653Y0023889D01*
X0022786Y0025100D02*
X0023220Y0025534D01*
X0023220Y0026401D01*
X0022786Y0026835D01*
X0022352Y0026835D01*
X0021919Y0026401D01*
X0021919Y0025100D01*
X0022786Y0025100D01*
X0021919Y0025100D02*
X0021051Y0025968D01*
X0020617Y0026835D01*
X0128020Y0105550D02*
X0128022Y0105463D01*
X0128028Y0105376D01*
X0128037Y0105289D01*
X0128050Y0105203D01*
X0128067Y0105117D01*
X0128088Y0105032D01*
X0128113Y0104949D01*
X0128141Y0104866D01*
X0128172Y0104785D01*
X0128207Y0104705D01*
X0128246Y0104627D01*
X0128288Y0104550D01*
X0128333Y0104475D01*
X0128382Y0104403D01*
X0128433Y0104332D01*
X0128488Y0104264D01*
X0128545Y0104199D01*
X0128606Y0104136D01*
X0128669Y0104075D01*
X0128734Y0104018D01*
X0128802Y0103963D01*
X0128873Y0103912D01*
X0128945Y0103863D01*
X0129020Y0103818D01*
X0129097Y0103776D01*
X0129175Y0103737D01*
X0129255Y0103702D01*
X0129336Y0103671D01*
X0129419Y0103643D01*
X0129502Y0103618D01*
X0129587Y0103597D01*
X0129673Y0103580D01*
X0129759Y0103567D01*
X0129846Y0103558D01*
X0129933Y0103552D01*
X0130020Y0103550D01*
X0189020Y0066550D02*
X0202020Y0066550D01*
X0202107Y0066548D01*
X0202194Y0066542D01*
X0202281Y0066533D01*
X0202367Y0066520D01*
X0202453Y0066503D01*
X0202538Y0066482D01*
X0202621Y0066457D01*
X0202704Y0066429D01*
X0202785Y0066398D01*
X0202865Y0066363D01*
X0202943Y0066324D01*
X0203020Y0066282D01*
X0203095Y0066237D01*
X0203167Y0066188D01*
X0203238Y0066137D01*
X0203306Y0066082D01*
X0203371Y0066025D01*
X0203434Y0065964D01*
X0203495Y0065901D01*
X0203552Y0065836D01*
X0203607Y0065768D01*
X0203658Y0065697D01*
X0203707Y0065625D01*
X0203752Y0065550D01*
X0203794Y0065473D01*
X0203833Y0065395D01*
X0203868Y0065315D01*
X0203899Y0065234D01*
X0203927Y0065151D01*
X0203952Y0065068D01*
X0203973Y0064983D01*
X0203990Y0064897D01*
X0204003Y0064811D01*
X0204012Y0064724D01*
X0204018Y0064637D01*
X0204020Y0064550D01*
X0200520Y0062050D02*
X0196720Y0062050D01*
X0194220Y0062050D02*
X0190520Y0062050D01*
X0187020Y0064550D02*
X0187022Y0064637D01*
X0187028Y0064724D01*
X0187037Y0064811D01*
X0187050Y0064897D01*
X0187067Y0064983D01*
X0187088Y0065068D01*
X0187113Y0065151D01*
X0187141Y0065234D01*
X0187172Y0065315D01*
X0187207Y0065395D01*
X0187246Y0065473D01*
X0187288Y0065550D01*
X0187333Y0065625D01*
X0187382Y0065697D01*
X0187433Y0065768D01*
X0187488Y0065836D01*
X0187545Y0065901D01*
X0187606Y0065964D01*
X0187669Y0066025D01*
X0187734Y0066082D01*
X0187802Y0066137D01*
X0187873Y0066188D01*
X0187945Y0066237D01*
X0188020Y0066282D01*
X0188097Y0066324D01*
X0188175Y0066363D01*
X0188255Y0066398D01*
X0188336Y0066429D01*
X0188419Y0066457D01*
X0188502Y0066482D01*
X0188587Y0066503D01*
X0188673Y0066520D01*
X0188759Y0066533D01*
X0188846Y0066542D01*
X0188933Y0066548D01*
X0189020Y0066550D01*
X0187020Y0059550D02*
X0187022Y0059463D01*
X0187028Y0059376D01*
X0187037Y0059289D01*
X0187050Y0059203D01*
X0187067Y0059117D01*
X0187088Y0059032D01*
X0187113Y0058949D01*
X0187141Y0058866D01*
X0187172Y0058785D01*
X0187207Y0058705D01*
X0187246Y0058627D01*
X0187288Y0058550D01*
X0187333Y0058475D01*
X0187382Y0058403D01*
X0187433Y0058332D01*
X0187488Y0058264D01*
X0187545Y0058199D01*
X0187606Y0058136D01*
X0187669Y0058075D01*
X0187734Y0058018D01*
X0187802Y0057963D01*
X0187873Y0057912D01*
X0187945Y0057863D01*
X0188020Y0057818D01*
X0188097Y0057776D01*
X0188175Y0057737D01*
X0188255Y0057702D01*
X0188336Y0057671D01*
X0188419Y0057643D01*
X0188502Y0057618D01*
X0188587Y0057597D01*
X0188673Y0057580D01*
X0188759Y0057567D01*
X0188846Y0057558D01*
X0188933Y0057552D01*
X0189020Y0057550D01*
X0202020Y0057550D01*
X0202107Y0057552D01*
X0202194Y0057558D01*
X0202281Y0057567D01*
X0202367Y0057580D01*
X0202453Y0057597D01*
X0202538Y0057618D01*
X0202621Y0057643D01*
X0202704Y0057671D01*
X0202785Y0057702D01*
X0202865Y0057737D01*
X0202943Y0057776D01*
X0203020Y0057818D01*
X0203095Y0057863D01*
X0203167Y0057912D01*
X0203238Y0057963D01*
X0203306Y0058018D01*
X0203371Y0058075D01*
X0203434Y0058136D01*
X0203495Y0058199D01*
X0203552Y0058264D01*
X0203607Y0058332D01*
X0203658Y0058403D01*
X0203707Y0058475D01*
X0203752Y0058550D01*
X0203794Y0058627D01*
X0203833Y0058705D01*
X0203868Y0058785D01*
X0203899Y0058866D01*
X0203927Y0058949D01*
X0203952Y0059032D01*
X0203973Y0059117D01*
X0203990Y0059203D01*
X0204003Y0059289D01*
X0204012Y0059376D01*
X0204018Y0059463D01*
X0204020Y0059550D01*
X0202020Y0020050D02*
X0197020Y0020050D01*
X0194520Y0017550D01*
X0194520Y0012550D01*
X0192020Y0010050D01*
X0187020Y0010050D01*
X0184520Y0012550D01*
X0182020Y0010050D01*
X0177020Y0010050D01*
X0174520Y0012550D01*
X0174520Y0017550D01*
X0177020Y0020050D01*
X0182020Y0020050D01*
X0184520Y0017550D01*
X0187020Y0020050D01*
X0192020Y0020050D01*
X0194520Y0017550D01*
X0194520Y0012550D02*
X0197020Y0010050D01*
X0202020Y0010050D01*
X0204520Y0012550D01*
X0207020Y0010050D01*
X0212020Y0010050D01*
X0214520Y0012550D01*
X0217020Y0010050D01*
X0222020Y0010050D01*
X0224520Y0012550D01*
X0224520Y0017550D01*
X0222020Y0020050D01*
X0217020Y0020050D01*
X0214520Y0017550D01*
X0214520Y0012550D01*
X0214520Y0017550D02*
X0212020Y0020050D01*
X0207020Y0020050D01*
X0204520Y0017550D01*
X0204520Y0012550D01*
X0204520Y0017550D02*
X0202020Y0020050D01*
X0184520Y0017550D02*
X0184520Y0012550D01*
X0224520Y0012550D02*
X0227020Y0010050D01*
X0232020Y0010050D01*
X0234520Y0012550D01*
X0237020Y0010050D01*
X0242020Y0010050D01*
X0244520Y0012550D01*
X0247020Y0010050D01*
X0252020Y0010050D01*
X0254520Y0012550D01*
X0254520Y0017550D01*
X0252020Y0020050D01*
X0247020Y0020050D01*
X0244520Y0017550D01*
X0244520Y0012550D01*
X0244520Y0017550D02*
X0242020Y0020050D01*
X0237020Y0020050D01*
X0234520Y0017550D01*
X0234520Y0012550D01*
X0234520Y0017550D02*
X0232020Y0020050D01*
X0227020Y0020050D01*
X0224520Y0017550D01*
X0260520Y0022550D02*
X0263020Y0020050D01*
X0268020Y0020050D01*
X0270520Y0022550D01*
X0270520Y0027550D01*
X0268020Y0030050D01*
X0270520Y0032550D01*
X0270520Y0037550D01*
X0268020Y0040050D01*
X0263020Y0040050D01*
X0260520Y0037550D01*
X0260520Y0032550D01*
X0263020Y0030050D01*
X0268020Y0030050D01*
X0263020Y0030050D02*
X0260520Y0027550D01*
X0260520Y0022550D01*
X0263020Y0040050D02*
X0260520Y0042550D01*
X0260520Y0047550D01*
X0263020Y0050050D01*
X0260520Y0052550D01*
X0260520Y0057550D01*
X0263020Y0060050D01*
X0260520Y0062550D01*
X0260520Y0067550D01*
X0263020Y0070050D01*
X0268020Y0070050D01*
X0270520Y0067550D01*
X0270520Y0062550D01*
X0268020Y0060050D01*
X0270520Y0057550D01*
X0270520Y0052550D01*
X0268020Y0050050D01*
X0270520Y0047550D01*
X0270520Y0042550D01*
X0268020Y0040050D01*
X0268020Y0050050D02*
X0263020Y0050050D01*
X0263020Y0060050D02*
X0268020Y0060050D01*
X0268020Y0070050D02*
X0270520Y0072550D01*
X0270520Y0077550D01*
X0268020Y0080050D01*
X0270520Y0082550D01*
X0270520Y0087550D01*
X0268020Y0090050D01*
X0270520Y0092550D01*
X0270520Y0097550D01*
X0268020Y0100050D01*
X0263020Y0100050D01*
X0260520Y0097550D01*
X0260520Y0092550D01*
X0263020Y0090050D01*
X0268020Y0090050D01*
X0263020Y0090050D02*
X0260520Y0087550D01*
X0260520Y0082550D01*
X0263020Y0080050D01*
X0268020Y0080050D01*
X0263020Y0080050D02*
X0260520Y0077550D01*
X0260520Y0072550D01*
X0263020Y0070050D01*
D13*
X0272620Y0072517D02*
X0272987Y0072150D01*
X0273721Y0072150D01*
X0274088Y0072517D01*
X0274088Y0072884D01*
X0273721Y0073251D01*
X0272987Y0073251D01*
X0272620Y0073618D01*
X0272620Y0073985D01*
X0272987Y0074352D01*
X0273721Y0074352D01*
X0274088Y0073985D01*
X0274830Y0073985D02*
X0274830Y0072517D01*
X0275197Y0072150D01*
X0275930Y0072150D01*
X0276297Y0072517D01*
X0277039Y0072884D02*
X0278507Y0074352D01*
X0278880Y0075150D02*
X0278513Y0075517D01*
X0278880Y0075150D02*
X0279614Y0075150D01*
X0279981Y0075517D01*
X0279981Y0075884D01*
X0279614Y0076251D01*
X0279247Y0076251D01*
X0279614Y0076251D02*
X0279981Y0076618D01*
X0279981Y0076985D01*
X0279614Y0077352D01*
X0278880Y0077352D01*
X0278513Y0076985D01*
X0277037Y0077352D02*
X0277037Y0075150D01*
X0276303Y0075150D02*
X0277771Y0075150D01*
X0277039Y0074352D02*
X0277039Y0072150D01*
X0277406Y0073251D02*
X0278507Y0072150D01*
X0276297Y0073985D02*
X0275930Y0074352D01*
X0275197Y0074352D01*
X0274830Y0073985D01*
X0275194Y0075150D02*
X0275561Y0075517D01*
X0275561Y0076985D01*
X0275194Y0077352D01*
X0274460Y0077352D01*
X0274093Y0076985D01*
X0274093Y0075517D01*
X0274460Y0075150D01*
X0275194Y0075150D01*
X0276303Y0076618D02*
X0277037Y0077352D01*
X0273354Y0077352D02*
X0272620Y0077352D01*
X0272987Y0077352D02*
X0272987Y0075150D01*
X0272620Y0075150D02*
X0273354Y0075150D01*
X0273354Y0067352D02*
X0272620Y0067352D01*
X0272987Y0067352D02*
X0272987Y0065150D01*
X0272620Y0065150D02*
X0273354Y0065150D01*
X0274093Y0065517D02*
X0274460Y0065150D01*
X0275194Y0065150D01*
X0275561Y0065517D01*
X0275561Y0066985D01*
X0275194Y0067352D01*
X0274460Y0067352D01*
X0274093Y0066985D01*
X0274093Y0065517D01*
X0274088Y0064352D02*
X0274088Y0062150D01*
X0274830Y0062150D02*
X0275564Y0062150D01*
X0275197Y0062150D02*
X0275197Y0064352D01*
X0274830Y0064352D02*
X0275564Y0064352D01*
X0276303Y0063985D02*
X0276303Y0063618D01*
X0276670Y0063251D01*
X0277404Y0063251D01*
X0277771Y0062884D01*
X0277771Y0062517D01*
X0277404Y0062150D01*
X0276670Y0062150D01*
X0276303Y0062517D01*
X0276303Y0063985D02*
X0276670Y0064352D01*
X0277404Y0064352D01*
X0277771Y0063985D01*
X0278513Y0063985D02*
X0278513Y0062517D01*
X0278880Y0062150D01*
X0279614Y0062150D01*
X0279981Y0062517D01*
X0279981Y0063985D01*
X0279614Y0064352D01*
X0278880Y0064352D01*
X0278513Y0063985D01*
X0278513Y0065150D02*
X0279981Y0066618D01*
X0279981Y0066985D01*
X0279614Y0067352D01*
X0278880Y0067352D01*
X0278513Y0066985D01*
X0277037Y0067352D02*
X0277037Y0065150D01*
X0276303Y0065150D02*
X0277771Y0065150D01*
X0278513Y0065150D02*
X0279981Y0065150D01*
X0277037Y0067352D02*
X0276303Y0066618D01*
X0274088Y0064352D02*
X0273354Y0063618D01*
X0272620Y0064352D01*
X0272620Y0062150D01*
X0272620Y0057352D02*
X0273354Y0057352D01*
X0272987Y0057352D02*
X0272987Y0055150D01*
X0272620Y0055150D02*
X0273354Y0055150D01*
X0274093Y0055517D02*
X0274460Y0055150D01*
X0275194Y0055150D01*
X0275561Y0055517D01*
X0275561Y0056985D01*
X0275194Y0057352D01*
X0274460Y0057352D01*
X0274093Y0056985D01*
X0274093Y0055517D01*
X0274088Y0054352D02*
X0274088Y0052150D01*
X0274830Y0052517D02*
X0275197Y0052150D01*
X0275930Y0052150D01*
X0276297Y0052517D01*
X0276297Y0053985D01*
X0275930Y0054352D01*
X0275197Y0054352D01*
X0274830Y0053985D01*
X0274830Y0052517D01*
X0273354Y0053618D02*
X0274088Y0054352D01*
X0273354Y0053618D02*
X0272620Y0054352D01*
X0272620Y0052150D01*
X0277039Y0052517D02*
X0277406Y0052150D01*
X0278140Y0052150D01*
X0278507Y0052517D01*
X0278507Y0052884D01*
X0278140Y0053251D01*
X0277406Y0053251D01*
X0277039Y0053618D01*
X0277039Y0053985D01*
X0277406Y0054352D01*
X0278140Y0054352D01*
X0278507Y0053985D01*
X0279249Y0054352D02*
X0279983Y0054352D01*
X0279616Y0054352D02*
X0279616Y0052150D01*
X0279249Y0052150D02*
X0279983Y0052150D01*
X0279981Y0055150D02*
X0278513Y0055150D01*
X0279247Y0055150D02*
X0279247Y0057352D01*
X0278513Y0056618D01*
X0277771Y0055150D02*
X0276303Y0055150D01*
X0277037Y0055150D02*
X0277037Y0057352D01*
X0276303Y0056618D01*
X0277037Y0047352D02*
X0277037Y0045150D01*
X0276303Y0045150D02*
X0277771Y0045150D01*
X0278513Y0045517D02*
X0279981Y0046985D01*
X0279981Y0045517D01*
X0279614Y0045150D01*
X0278880Y0045150D01*
X0278513Y0045517D01*
X0278513Y0046985D01*
X0278880Y0047352D01*
X0279614Y0047352D01*
X0279981Y0046985D01*
X0277037Y0047352D02*
X0276303Y0046618D01*
X0275561Y0046985D02*
X0275194Y0047352D01*
X0274460Y0047352D01*
X0274093Y0046985D01*
X0274093Y0045517D01*
X0274460Y0045150D01*
X0275194Y0045150D01*
X0275561Y0045517D01*
X0275561Y0046985D01*
X0273354Y0047352D02*
X0272620Y0047352D01*
X0272987Y0047352D02*
X0272987Y0045150D01*
X0272620Y0045150D02*
X0273354Y0045150D01*
X0273721Y0044352D02*
X0272987Y0044352D01*
X0272620Y0043985D01*
X0272620Y0043618D01*
X0272987Y0043251D01*
X0273721Y0043251D01*
X0274088Y0042884D01*
X0274088Y0042517D01*
X0273721Y0042150D01*
X0272987Y0042150D01*
X0272620Y0042517D01*
X0274088Y0043985D02*
X0273721Y0044352D01*
X0274830Y0043985D02*
X0274830Y0043618D01*
X0275197Y0043251D01*
X0275930Y0043251D01*
X0276297Y0042884D01*
X0276297Y0042517D01*
X0275930Y0042150D01*
X0275197Y0042150D01*
X0274830Y0042517D01*
X0274830Y0043985D02*
X0275197Y0044352D01*
X0275930Y0044352D01*
X0276297Y0043985D01*
X0276670Y0036352D02*
X0276303Y0035985D01*
X0276303Y0035618D01*
X0276670Y0035251D01*
X0277771Y0035251D01*
X0277771Y0035985D02*
X0277404Y0036352D01*
X0276670Y0036352D01*
X0277771Y0035985D02*
X0277771Y0034517D01*
X0277404Y0034150D01*
X0276670Y0034150D01*
X0276303Y0034517D01*
X0275561Y0034517D02*
X0275561Y0035985D01*
X0275194Y0036352D01*
X0274460Y0036352D01*
X0274093Y0035985D01*
X0274093Y0034517D01*
X0274460Y0034150D01*
X0275194Y0034150D01*
X0275561Y0034517D01*
X0273354Y0034150D02*
X0272620Y0034150D01*
X0272987Y0034150D02*
X0272987Y0036352D01*
X0272620Y0036352D02*
X0273354Y0036352D01*
X0273354Y0026352D02*
X0272620Y0026352D01*
X0272987Y0026352D02*
X0272987Y0024150D01*
X0272620Y0024150D02*
X0273354Y0024150D01*
X0274093Y0024517D02*
X0274460Y0024150D01*
X0275194Y0024150D01*
X0275561Y0024517D01*
X0275561Y0025985D01*
X0275194Y0026352D01*
X0274460Y0026352D01*
X0274093Y0025985D01*
X0274093Y0024517D01*
X0276303Y0024517D02*
X0276303Y0024884D01*
X0276670Y0025251D01*
X0277404Y0025251D01*
X0277771Y0024884D01*
X0277771Y0024517D01*
X0277404Y0024150D01*
X0276670Y0024150D01*
X0276303Y0024517D01*
X0276670Y0025251D02*
X0276303Y0025618D01*
X0276303Y0025985D01*
X0276670Y0026352D01*
X0277404Y0026352D01*
X0277771Y0025985D01*
X0277771Y0025618D01*
X0277404Y0025251D01*
X0250420Y0007570D02*
X0250053Y0007570D01*
X0248585Y0009038D01*
X0248218Y0009038D01*
X0248218Y0007570D01*
X0248585Y0006828D02*
X0248218Y0006461D01*
X0248218Y0005360D01*
X0250420Y0005360D01*
X0250420Y0006461D01*
X0250053Y0006828D01*
X0248585Y0006828D01*
X0248952Y0004618D02*
X0250420Y0004618D01*
X0249319Y0004618D02*
X0249319Y0003150D01*
X0248952Y0003150D02*
X0250420Y0003150D01*
X0248952Y0003150D02*
X0248218Y0003884D01*
X0248952Y0004618D01*
X0240420Y0004618D02*
X0238952Y0004618D01*
X0238218Y0003884D01*
X0238952Y0003150D01*
X0240420Y0003150D01*
X0239319Y0003150D02*
X0239319Y0004618D01*
X0240420Y0005360D02*
X0240420Y0006461D01*
X0240053Y0006828D01*
X0238585Y0006828D01*
X0238218Y0006461D01*
X0238218Y0005360D01*
X0240420Y0005360D01*
X0240053Y0007570D02*
X0240420Y0007937D01*
X0240420Y0008671D01*
X0240053Y0009038D01*
X0239686Y0009038D01*
X0239319Y0008671D01*
X0239319Y0007570D01*
X0240053Y0007570D01*
X0239319Y0007570D02*
X0238585Y0008304D01*
X0238218Y0009038D01*
X0230420Y0008671D02*
X0230420Y0007937D01*
X0230053Y0007570D01*
X0229319Y0007570D02*
X0228952Y0008304D01*
X0228952Y0008671D01*
X0229319Y0009038D01*
X0230053Y0009038D01*
X0230420Y0008671D01*
X0229319Y0007570D02*
X0228218Y0007570D01*
X0228218Y0009038D01*
X0228585Y0006828D02*
X0228218Y0006461D01*
X0228218Y0005360D01*
X0230420Y0005360D01*
X0230420Y0006461D01*
X0230053Y0006828D01*
X0228585Y0006828D01*
X0228952Y0004618D02*
X0230420Y0004618D01*
X0229319Y0004618D02*
X0229319Y0003150D01*
X0228952Y0003150D02*
X0228218Y0003884D01*
X0228952Y0004618D01*
X0228952Y0003150D02*
X0230420Y0003150D01*
X0220420Y0003150D02*
X0218952Y0003150D01*
X0218218Y0003884D01*
X0218952Y0004618D01*
X0220420Y0004618D01*
X0220420Y0005360D02*
X0220420Y0006461D01*
X0220053Y0006828D01*
X0218585Y0006828D01*
X0218218Y0006461D01*
X0218218Y0005360D01*
X0220420Y0005360D01*
X0219319Y0004618D02*
X0219319Y0003150D01*
X0219319Y0007570D02*
X0219319Y0009038D01*
X0220420Y0008671D02*
X0218218Y0008671D01*
X0219319Y0007570D01*
X0210420Y0007937D02*
X0210053Y0007570D01*
X0210420Y0007937D02*
X0210420Y0008671D01*
X0210053Y0009038D01*
X0209686Y0009038D01*
X0209319Y0008671D01*
X0209319Y0008304D01*
X0209319Y0008671D02*
X0208952Y0009038D01*
X0208585Y0009038D01*
X0208218Y0008671D01*
X0208218Y0007937D01*
X0208585Y0007570D01*
X0208585Y0006828D02*
X0208218Y0006461D01*
X0208218Y0005360D01*
X0210420Y0005360D01*
X0210420Y0006461D01*
X0210053Y0006828D01*
X0208585Y0006828D01*
X0208952Y0004618D02*
X0210420Y0004618D01*
X0209319Y0004618D02*
X0209319Y0003150D01*
X0208952Y0003150D02*
X0208218Y0003884D01*
X0208952Y0004618D01*
X0208952Y0003150D02*
X0210420Y0003150D01*
X0200420Y0003150D02*
X0198952Y0003150D01*
X0198218Y0003884D01*
X0198952Y0004618D01*
X0200420Y0004618D01*
X0200420Y0005360D02*
X0200420Y0006461D01*
X0200053Y0006828D01*
X0198585Y0006828D01*
X0198218Y0006461D01*
X0198218Y0005360D01*
X0200420Y0005360D01*
X0199319Y0004618D02*
X0199319Y0003150D01*
X0198585Y0007570D02*
X0198218Y0007937D01*
X0198218Y0008671D01*
X0198585Y0009038D01*
X0198952Y0009038D01*
X0200420Y0007570D01*
X0200420Y0009038D01*
X0190420Y0009038D02*
X0190420Y0007570D01*
X0190420Y0008304D02*
X0188218Y0008304D01*
X0188952Y0007570D01*
X0188585Y0006828D02*
X0188218Y0006461D01*
X0188218Y0005360D01*
X0190420Y0005360D01*
X0190420Y0006461D01*
X0190053Y0006828D01*
X0188585Y0006828D01*
X0188952Y0004618D02*
X0190420Y0004618D01*
X0189319Y0004618D02*
X0189319Y0003150D01*
X0188952Y0003150D02*
X0188218Y0003884D01*
X0188952Y0004618D01*
X0188952Y0003150D02*
X0190420Y0003150D01*
X0180420Y0003150D02*
X0178952Y0003150D01*
X0178218Y0003884D01*
X0178952Y0004618D01*
X0180420Y0004618D01*
X0180420Y0005360D02*
X0180420Y0006461D01*
X0180053Y0006828D01*
X0178585Y0006828D01*
X0178218Y0006461D01*
X0178218Y0005360D01*
X0180420Y0005360D01*
X0179319Y0004618D02*
X0179319Y0003150D01*
X0180053Y0007570D02*
X0178585Y0009038D01*
X0180053Y0009038D01*
X0180420Y0008671D01*
X0180420Y0007937D01*
X0180053Y0007570D01*
X0178585Y0007570D01*
X0178218Y0007937D01*
X0178218Y0008671D01*
X0178585Y0009038D01*
X0163420Y0006833D02*
X0163053Y0006833D01*
X0161585Y0008301D01*
X0161218Y0008301D01*
X0161218Y0006833D01*
X0161585Y0006091D02*
X0161218Y0005724D01*
X0161218Y0004990D01*
X0161585Y0004623D01*
X0163053Y0004623D01*
X0163420Y0004990D01*
X0163420Y0005724D01*
X0163053Y0006091D01*
X0161585Y0006091D01*
X0161218Y0003884D02*
X0161218Y0003150D01*
X0161218Y0003517D02*
X0163420Y0003517D01*
X0163420Y0003150D02*
X0163420Y0003884D01*
X0153420Y0003884D02*
X0153420Y0003150D01*
X0153420Y0003517D02*
X0151218Y0003517D01*
X0151218Y0003150D02*
X0151218Y0003884D01*
X0151585Y0004623D02*
X0153053Y0004623D01*
X0153420Y0004990D01*
X0153420Y0005724D01*
X0153053Y0006091D01*
X0151585Y0006091D01*
X0151218Y0005724D01*
X0151218Y0004990D01*
X0151585Y0004623D01*
X0152319Y0006833D02*
X0152319Y0007934D01*
X0152686Y0008301D01*
X0153053Y0008301D01*
X0153420Y0007934D01*
X0153420Y0007200D01*
X0153053Y0006833D01*
X0152319Y0006833D01*
X0151585Y0007567D01*
X0151218Y0008301D01*
X0143420Y0007934D02*
X0143420Y0007200D01*
X0143053Y0006833D01*
X0142319Y0006833D02*
X0141952Y0007567D01*
X0141952Y0007934D01*
X0142319Y0008301D01*
X0143053Y0008301D01*
X0143420Y0007934D01*
X0142319Y0006833D02*
X0141218Y0006833D01*
X0141218Y0008301D01*
X0141585Y0006091D02*
X0141218Y0005724D01*
X0141218Y0004990D01*
X0141585Y0004623D01*
X0143053Y0004623D01*
X0143420Y0004990D01*
X0143420Y0005724D01*
X0143053Y0006091D01*
X0141585Y0006091D01*
X0141218Y0003884D02*
X0141218Y0003150D01*
X0141218Y0003517D02*
X0143420Y0003517D01*
X0143420Y0003150D02*
X0143420Y0003884D01*
X0133420Y0003884D02*
X0133420Y0003150D01*
X0133420Y0003517D02*
X0131218Y0003517D01*
X0131218Y0003150D02*
X0131218Y0003884D01*
X0131585Y0004623D02*
X0133053Y0004623D01*
X0133420Y0004990D01*
X0133420Y0005724D01*
X0133053Y0006091D01*
X0131585Y0006091D01*
X0131218Y0005724D01*
X0131218Y0004990D01*
X0131585Y0004623D01*
X0132319Y0006833D02*
X0132319Y0008301D01*
X0133420Y0007934D02*
X0131218Y0007934D01*
X0132319Y0006833D01*
X0123420Y0007200D02*
X0123053Y0006833D01*
X0123420Y0007200D02*
X0123420Y0007934D01*
X0123053Y0008301D01*
X0122686Y0008301D01*
X0122319Y0007934D01*
X0122319Y0007567D01*
X0122319Y0007934D02*
X0121952Y0008301D01*
X0121585Y0008301D01*
X0121218Y0007934D01*
X0121218Y0007200D01*
X0121585Y0006833D01*
X0121585Y0006091D02*
X0121218Y0005724D01*
X0121218Y0004990D01*
X0121585Y0004623D01*
X0123053Y0004623D01*
X0123420Y0004990D01*
X0123420Y0005724D01*
X0123053Y0006091D01*
X0121585Y0006091D01*
X0121218Y0003884D02*
X0121218Y0003150D01*
X0121218Y0003517D02*
X0123420Y0003517D01*
X0123420Y0003150D02*
X0123420Y0003884D01*
X0113420Y0003884D02*
X0113420Y0003150D01*
X0113420Y0003517D02*
X0111218Y0003517D01*
X0111218Y0003150D02*
X0111218Y0003884D01*
X0111585Y0004623D02*
X0113053Y0004623D01*
X0113420Y0004990D01*
X0113420Y0005724D01*
X0113053Y0006091D01*
X0111585Y0006091D01*
X0111218Y0005724D01*
X0111218Y0004990D01*
X0111585Y0004623D01*
X0111585Y0006833D02*
X0111218Y0007200D01*
X0111218Y0007934D01*
X0111585Y0008301D01*
X0111952Y0008301D01*
X0113420Y0006833D01*
X0113420Y0008301D01*
X0103420Y0008301D02*
X0103420Y0006833D01*
X0103420Y0007567D02*
X0101218Y0007567D01*
X0101952Y0006833D01*
X0101585Y0006091D02*
X0101218Y0005724D01*
X0101218Y0004990D01*
X0101585Y0004623D01*
X0103053Y0004623D01*
X0103420Y0004990D01*
X0103420Y0005724D01*
X0103053Y0006091D01*
X0101585Y0006091D01*
X0101218Y0003884D02*
X0101218Y0003150D01*
X0101218Y0003517D02*
X0103420Y0003517D01*
X0103420Y0003150D02*
X0103420Y0003884D01*
X0093420Y0003884D02*
X0093420Y0003150D01*
X0093420Y0003517D02*
X0091218Y0003517D01*
X0091218Y0003150D02*
X0091218Y0003884D01*
X0091585Y0004623D02*
X0093053Y0004623D01*
X0093420Y0004990D01*
X0093420Y0005724D01*
X0093053Y0006091D01*
X0091585Y0006091D01*
X0091218Y0005724D01*
X0091218Y0004990D01*
X0091585Y0004623D01*
X0091585Y0006833D02*
X0091218Y0007200D01*
X0091218Y0007934D01*
X0091585Y0008301D01*
X0093053Y0006833D01*
X0093420Y0007200D01*
X0093420Y0007934D01*
X0093053Y0008301D01*
X0091585Y0008301D01*
X0091585Y0006833D02*
X0093053Y0006833D01*
X0055927Y0006352D02*
X0054459Y0006352D01*
X0055193Y0006352D02*
X0055193Y0004150D01*
X0053717Y0004150D02*
X0052249Y0004150D01*
X0052249Y0006352D01*
X0053717Y0006352D01*
X0052983Y0005251D02*
X0052249Y0005251D01*
X0051507Y0004884D02*
X0051507Y0004517D01*
X0051140Y0004150D01*
X0050406Y0004150D01*
X0050039Y0004517D01*
X0050406Y0005251D02*
X0051140Y0005251D01*
X0051507Y0004884D01*
X0051507Y0005985D02*
X0051140Y0006352D01*
X0050406Y0006352D01*
X0050039Y0005985D01*
X0050039Y0005618D01*
X0050406Y0005251D01*
X0049297Y0006352D02*
X0047830Y0006352D01*
X0047830Y0004150D01*
X0049297Y0004150D01*
X0048564Y0005251D02*
X0047830Y0005251D01*
X0047088Y0005251D02*
X0046721Y0004884D01*
X0045620Y0004884D01*
X0046354Y0004884D02*
X0047088Y0004150D01*
X0047088Y0005251D02*
X0047088Y0005985D01*
X0046721Y0006352D01*
X0045620Y0006352D01*
X0045620Y0004150D01*
X0043507Y0004150D02*
X0042406Y0005251D01*
X0042039Y0004884D02*
X0043507Y0006352D01*
X0042039Y0006352D02*
X0042039Y0004150D01*
X0041297Y0004517D02*
X0040930Y0004150D01*
X0040197Y0004150D01*
X0039830Y0004517D01*
X0039830Y0005985D01*
X0040197Y0006352D01*
X0040930Y0006352D01*
X0041297Y0005985D01*
X0039088Y0005985D02*
X0038721Y0006352D01*
X0037987Y0006352D01*
X0037620Y0005985D01*
X0037620Y0005618D01*
X0037987Y0005251D01*
X0038721Y0005251D01*
X0039088Y0004884D01*
X0039088Y0004517D01*
X0038721Y0004150D01*
X0037987Y0004150D01*
X0037620Y0004517D01*
X0033981Y0004517D02*
X0033981Y0005985D01*
X0033614Y0006352D01*
X0032880Y0006352D01*
X0032513Y0005985D01*
X0032513Y0004517D01*
X0032880Y0004150D01*
X0033614Y0004150D01*
X0033981Y0004517D01*
X0031771Y0004517D02*
X0031404Y0004150D01*
X0030670Y0004150D01*
X0030303Y0004517D01*
X0030670Y0005251D02*
X0031404Y0005251D01*
X0031771Y0004884D01*
X0031771Y0004517D01*
X0030670Y0005251D02*
X0030303Y0005618D01*
X0030303Y0005985D01*
X0030670Y0006352D01*
X0031404Y0006352D01*
X0031771Y0005985D01*
X0029564Y0006352D02*
X0028830Y0006352D01*
X0029197Y0006352D02*
X0029197Y0004150D01*
X0028830Y0004150D02*
X0029564Y0004150D01*
X0028088Y0004150D02*
X0028088Y0006352D01*
X0027354Y0005618D01*
X0026620Y0006352D01*
X0026620Y0004150D01*
X0028354Y0030150D02*
X0029088Y0030884D01*
X0029088Y0032352D01*
X0029830Y0031985D02*
X0029830Y0030517D01*
X0030197Y0030150D01*
X0030930Y0030150D01*
X0031297Y0030517D01*
X0032039Y0030517D02*
X0032406Y0030150D01*
X0033140Y0030150D01*
X0033507Y0030517D01*
X0032039Y0030517D02*
X0032039Y0031985D01*
X0032406Y0032352D01*
X0033140Y0032352D01*
X0033507Y0031985D01*
X0031297Y0031985D02*
X0030930Y0032352D01*
X0030197Y0032352D01*
X0029830Y0031985D01*
X0027620Y0032352D02*
X0027620Y0030884D01*
X0028354Y0030150D01*
X0037620Y0030150D02*
X0037620Y0032352D01*
X0038354Y0031618D01*
X0039088Y0032352D01*
X0039088Y0030150D01*
X0039830Y0030517D02*
X0040197Y0030150D01*
X0040930Y0030150D01*
X0041297Y0030517D01*
X0041297Y0031985D01*
X0040930Y0032352D01*
X0040197Y0032352D01*
X0039830Y0031985D01*
X0039830Y0030517D01*
X0042039Y0030517D02*
X0042406Y0030150D01*
X0043140Y0030150D01*
X0043507Y0030517D01*
X0043507Y0030884D01*
X0043140Y0031251D01*
X0042406Y0031251D01*
X0042039Y0031618D01*
X0042039Y0031985D01*
X0042406Y0032352D01*
X0043140Y0032352D01*
X0043507Y0031985D01*
X0044249Y0032352D02*
X0044983Y0032352D01*
X0044616Y0032352D02*
X0044616Y0030150D01*
X0044249Y0030150D02*
X0044983Y0030150D01*
X0047620Y0030517D02*
X0047987Y0030150D01*
X0048721Y0030150D01*
X0049088Y0030517D01*
X0049088Y0031251D01*
X0048354Y0031251D01*
X0049088Y0031985D02*
X0048721Y0032352D01*
X0047987Y0032352D01*
X0047620Y0031985D01*
X0047620Y0030517D01*
X0049830Y0030150D02*
X0049830Y0032352D01*
X0051297Y0030150D01*
X0051297Y0032352D01*
X0052039Y0032352D02*
X0053140Y0032352D01*
X0053507Y0031985D01*
X0053507Y0030517D01*
X0053140Y0030150D01*
X0052039Y0030150D01*
X0052039Y0032352D01*
X0059585Y0055150D02*
X0059218Y0055517D01*
X0059218Y0056251D01*
X0059585Y0056618D01*
X0060319Y0056618D02*
X0060319Y0055884D01*
X0060319Y0056618D02*
X0061053Y0056618D01*
X0061420Y0056251D01*
X0061420Y0055517D01*
X0061053Y0055150D01*
X0059585Y0055150D01*
X0059218Y0057360D02*
X0061420Y0058828D01*
X0059218Y0058828D01*
X0059218Y0059570D02*
X0059218Y0060671D01*
X0059585Y0061038D01*
X0061053Y0061038D01*
X0061420Y0060671D01*
X0061420Y0059570D01*
X0059218Y0059570D01*
X0059218Y0057360D02*
X0061420Y0057360D01*
X0061053Y0065150D02*
X0061420Y0065517D01*
X0061420Y0066251D01*
X0061053Y0066618D01*
X0060319Y0066618D01*
X0060319Y0065884D01*
X0059585Y0065150D02*
X0061053Y0065150D01*
X0059585Y0065150D02*
X0059218Y0065517D01*
X0059218Y0066251D01*
X0059585Y0066618D01*
X0059218Y0067360D02*
X0061420Y0068828D01*
X0059218Y0068828D01*
X0059218Y0069570D02*
X0059218Y0070671D01*
X0059585Y0071038D01*
X0061053Y0071038D01*
X0061420Y0070671D01*
X0061420Y0069570D01*
X0059218Y0069570D01*
X0059218Y0067360D02*
X0061420Y0067360D01*
X0061420Y0075150D02*
X0061420Y0075884D01*
X0061420Y0075517D02*
X0059218Y0075517D01*
X0059218Y0075150D02*
X0059218Y0075884D01*
X0059585Y0076623D02*
X0059218Y0076990D01*
X0059218Y0077724D01*
X0059585Y0078091D01*
X0061053Y0078091D01*
X0061420Y0077724D01*
X0061420Y0076990D01*
X0061053Y0076623D01*
X0059585Y0076623D01*
X0059952Y0078833D02*
X0059218Y0079567D01*
X0061420Y0079567D01*
X0061420Y0078833D02*
X0061420Y0080301D01*
X0063218Y0078828D02*
X0065420Y0077360D01*
X0065420Y0078828D02*
X0063218Y0077360D01*
X0063218Y0076618D02*
X0063218Y0075150D01*
X0063218Y0075884D02*
X0065420Y0075884D01*
X0065420Y0086150D02*
X0063218Y0086150D01*
X0063218Y0087251D01*
X0063585Y0087618D01*
X0064319Y0087618D01*
X0064686Y0087251D01*
X0064686Y0086150D01*
X0064686Y0086884D02*
X0065420Y0087618D01*
X0065420Y0088360D02*
X0063218Y0089828D01*
X0063218Y0088360D02*
X0065420Y0089828D01*
X0061420Y0090200D02*
X0061053Y0089833D01*
X0059585Y0091301D01*
X0061053Y0091301D01*
X0061420Y0090934D01*
X0061420Y0090200D01*
X0061053Y0089833D02*
X0059585Y0089833D01*
X0059218Y0090200D01*
X0059218Y0090934D01*
X0059585Y0091301D01*
X0059585Y0089091D02*
X0059218Y0088724D01*
X0059218Y0087990D01*
X0059585Y0087623D01*
X0061053Y0087623D01*
X0061420Y0087990D01*
X0061420Y0088724D01*
X0061053Y0089091D01*
X0059585Y0089091D01*
X0059218Y0086884D02*
X0059218Y0086150D01*
X0059218Y0086517D02*
X0061420Y0086517D01*
X0061420Y0086150D02*
X0061420Y0086884D01*
X0060686Y0095150D02*
X0059218Y0095150D01*
X0060686Y0095150D02*
X0061420Y0095884D01*
X0060686Y0096618D01*
X0059218Y0096618D01*
X0059585Y0097360D02*
X0059218Y0097727D01*
X0059218Y0098461D01*
X0059585Y0098828D01*
X0059585Y0099570D02*
X0061053Y0099570D01*
X0061420Y0099937D01*
X0061420Y0100671D01*
X0061053Y0101038D01*
X0059585Y0101038D02*
X0059218Y0100671D01*
X0059218Y0099937D01*
X0059585Y0099570D01*
X0061053Y0098828D02*
X0061420Y0098461D01*
X0061420Y0097727D01*
X0061053Y0097360D01*
X0059585Y0097360D01*
X0019420Y0097461D02*
X0019053Y0097828D01*
X0017585Y0097828D01*
X0017218Y0097461D01*
X0017218Y0096727D01*
X0017585Y0096360D01*
X0019053Y0096360D01*
X0019420Y0096727D01*
X0019420Y0097461D01*
X0019053Y0098570D02*
X0019420Y0098937D01*
X0019420Y0099671D01*
X0019053Y0100038D01*
X0018686Y0100038D01*
X0018319Y0099671D01*
X0018319Y0098937D01*
X0017952Y0098570D01*
X0017585Y0098570D01*
X0017218Y0098937D01*
X0017218Y0099671D01*
X0017585Y0100038D01*
X0017218Y0100780D02*
X0017218Y0101513D01*
X0017218Y0101146D02*
X0019420Y0101146D01*
X0019420Y0100780D02*
X0019420Y0101513D01*
X0019420Y0095618D02*
X0017218Y0095618D01*
X0017952Y0094884D01*
X0017218Y0094150D01*
X0019420Y0094150D01*
X0017218Y0083457D02*
X0017218Y0081989D01*
X0017218Y0082723D02*
X0019420Y0082723D01*
X0019420Y0081247D02*
X0019420Y0079780D01*
X0017218Y0079780D01*
X0017218Y0081247D01*
X0018319Y0080513D02*
X0018319Y0079780D01*
X0018686Y0079038D02*
X0019053Y0079038D01*
X0019420Y0078671D01*
X0019420Y0077937D01*
X0019053Y0077570D01*
X0018319Y0077937D02*
X0018319Y0078671D01*
X0018686Y0079038D01*
X0017585Y0079038D02*
X0017218Y0078671D01*
X0017218Y0077937D01*
X0017585Y0077570D01*
X0017952Y0077570D01*
X0018319Y0077937D01*
X0019420Y0076828D02*
X0019420Y0075360D01*
X0017218Y0075360D01*
X0017218Y0076828D01*
X0018319Y0076094D02*
X0018319Y0075360D01*
X0018319Y0074618D02*
X0018686Y0074251D01*
X0018686Y0073150D01*
X0019420Y0073150D02*
X0017218Y0073150D01*
X0017218Y0074251D01*
X0017585Y0074618D01*
X0018319Y0074618D01*
X0018686Y0073884D02*
X0019420Y0074618D01*
X0019420Y0071038D02*
X0018319Y0069937D01*
X0018686Y0069570D02*
X0017218Y0071038D01*
X0017218Y0069570D02*
X0019420Y0069570D01*
X0019053Y0068828D02*
X0019420Y0068461D01*
X0019420Y0067727D01*
X0019053Y0067360D01*
X0017585Y0067360D01*
X0017218Y0067727D01*
X0017218Y0068461D01*
X0017585Y0068828D01*
X0017585Y0066618D02*
X0017218Y0066251D01*
X0017218Y0065517D01*
X0017585Y0065150D01*
X0017952Y0065150D01*
X0018319Y0065517D01*
X0018319Y0066251D01*
X0018686Y0066618D01*
X0019053Y0066618D01*
X0019420Y0066251D01*
X0019420Y0065517D01*
X0019053Y0065150D01*
X0019053Y0061511D02*
X0017585Y0061511D01*
X0017218Y0061144D01*
X0017218Y0060410D01*
X0017585Y0060043D01*
X0019053Y0060043D01*
X0019420Y0060410D01*
X0019420Y0061144D01*
X0019053Y0061511D01*
X0019053Y0059301D02*
X0019420Y0058934D01*
X0019420Y0058200D01*
X0019053Y0057833D01*
X0018319Y0058200D02*
X0018319Y0058934D01*
X0018686Y0059301D01*
X0019053Y0059301D01*
X0018319Y0058200D02*
X0017952Y0057833D01*
X0017585Y0057833D01*
X0017218Y0058200D01*
X0017218Y0058934D01*
X0017585Y0059301D01*
X0017218Y0057094D02*
X0017218Y0056360D01*
X0017218Y0056727D02*
X0019420Y0056727D01*
X0019420Y0056360D02*
X0019420Y0057094D01*
X0019420Y0055618D02*
X0017218Y0055618D01*
X0017952Y0054884D01*
X0017218Y0054150D01*
X0019420Y0054150D01*
X0208020Y0171050D02*
X0235020Y0171050D01*
X0235190Y0171052D01*
X0235361Y0171058D01*
X0235531Y0171069D01*
X0235701Y0171083D01*
X0235870Y0171102D01*
X0236039Y0171125D01*
X0236208Y0171151D01*
X0236375Y0171182D01*
X0236542Y0171217D01*
X0236708Y0171257D01*
X0236873Y0171300D01*
X0237037Y0171347D01*
X0237199Y0171398D01*
X0237361Y0171453D01*
X0237521Y0171512D01*
X0237679Y0171575D01*
X0237836Y0171641D01*
X0237991Y0171712D01*
X0238145Y0171786D01*
X0238296Y0171864D01*
X0238446Y0171946D01*
X0238594Y0172031D01*
X0238739Y0172120D01*
X0238882Y0172212D01*
X0239023Y0172308D01*
X0239162Y0172407D01*
X0239298Y0172510D01*
X0239432Y0172615D01*
X0239563Y0172724D01*
X0239691Y0172837D01*
X0239817Y0172952D01*
X0239940Y0173070D01*
X0240059Y0173191D01*
X0240176Y0173316D01*
X0240290Y0173443D01*
X0240401Y0173572D01*
X0240508Y0173705D01*
X0240612Y0173840D01*
X0240713Y0173977D01*
X0240811Y0174117D01*
X0240905Y0174259D01*
X0240995Y0174403D01*
X0241082Y0174550D01*
X0241166Y0174699D01*
X0241245Y0174849D01*
X0241321Y0175002D01*
X0241394Y0175156D01*
X0241462Y0175312D01*
X0241527Y0175470D01*
X0241588Y0175629D01*
X0241645Y0175790D01*
X0241698Y0175952D01*
X0241747Y0176115D01*
X0241792Y0176279D01*
X0241833Y0176445D01*
X0241871Y0176611D01*
X0241904Y0176779D01*
X0241932Y0176947D01*
X0241957Y0177115D01*
X0241978Y0177284D01*
X0241995Y0177454D01*
X0242007Y0177624D01*
X0242015Y0177794D01*
X0242019Y0177965D01*
X0242019Y0178135D01*
X0242015Y0178306D01*
X0242007Y0178476D01*
X0241995Y0178646D01*
X0241978Y0178816D01*
X0241957Y0178985D01*
X0241932Y0179153D01*
X0241904Y0179321D01*
X0241871Y0179489D01*
X0241833Y0179655D01*
X0241792Y0179821D01*
X0241747Y0179985D01*
X0241698Y0180148D01*
X0241645Y0180310D01*
X0241588Y0180471D01*
X0241527Y0180630D01*
X0241462Y0180788D01*
X0241394Y0180944D01*
X0241321Y0181098D01*
X0241245Y0181251D01*
X0241166Y0181401D01*
X0241082Y0181550D01*
X0240995Y0181697D01*
X0240905Y0181841D01*
X0240811Y0181983D01*
X0240713Y0182123D01*
X0240612Y0182260D01*
X0240508Y0182395D01*
X0240401Y0182528D01*
X0240290Y0182657D01*
X0240176Y0182784D01*
X0240059Y0182909D01*
X0239940Y0183030D01*
X0239817Y0183148D01*
X0239691Y0183263D01*
X0239563Y0183376D01*
X0239432Y0183485D01*
X0239298Y0183590D01*
X0239162Y0183693D01*
X0239023Y0183792D01*
X0238882Y0183888D01*
X0238739Y0183980D01*
X0238594Y0184069D01*
X0238446Y0184154D01*
X0238296Y0184236D01*
X0238145Y0184314D01*
X0237991Y0184388D01*
X0237836Y0184459D01*
X0237679Y0184525D01*
X0237521Y0184588D01*
X0237361Y0184647D01*
X0237199Y0184702D01*
X0237037Y0184753D01*
X0236873Y0184800D01*
X0236708Y0184843D01*
X0236542Y0184883D01*
X0236375Y0184918D01*
X0236208Y0184949D01*
X0236039Y0184975D01*
X0235870Y0184998D01*
X0235701Y0185017D01*
X0235531Y0185031D01*
X0235361Y0185042D01*
X0235190Y0185048D01*
X0235020Y0185050D01*
X0208020Y0185050D01*
X0207850Y0185048D01*
X0207679Y0185042D01*
X0207509Y0185031D01*
X0207339Y0185017D01*
X0207170Y0184998D01*
X0207001Y0184975D01*
X0206832Y0184949D01*
X0206665Y0184918D01*
X0206498Y0184883D01*
X0206332Y0184843D01*
X0206167Y0184800D01*
X0206003Y0184753D01*
X0205841Y0184702D01*
X0205679Y0184647D01*
X0205519Y0184588D01*
X0205361Y0184525D01*
X0205204Y0184459D01*
X0205049Y0184388D01*
X0204895Y0184314D01*
X0204744Y0184236D01*
X0204594Y0184154D01*
X0204446Y0184069D01*
X0204301Y0183980D01*
X0204158Y0183888D01*
X0204017Y0183792D01*
X0203878Y0183693D01*
X0203742Y0183590D01*
X0203608Y0183485D01*
X0203477Y0183376D01*
X0203349Y0183263D01*
X0203223Y0183148D01*
X0203100Y0183030D01*
X0202981Y0182909D01*
X0202864Y0182784D01*
X0202750Y0182657D01*
X0202639Y0182528D01*
X0202532Y0182395D01*
X0202428Y0182260D01*
X0202327Y0182123D01*
X0202229Y0181983D01*
X0202135Y0181841D01*
X0202045Y0181697D01*
X0201958Y0181550D01*
X0201874Y0181401D01*
X0201795Y0181251D01*
X0201719Y0181098D01*
X0201646Y0180944D01*
X0201578Y0180788D01*
X0201513Y0180630D01*
X0201452Y0180471D01*
X0201395Y0180310D01*
X0201342Y0180148D01*
X0201293Y0179985D01*
X0201248Y0179821D01*
X0201207Y0179655D01*
X0201169Y0179489D01*
X0201136Y0179321D01*
X0201108Y0179153D01*
X0201083Y0178985D01*
X0201062Y0178816D01*
X0201045Y0178646D01*
X0201033Y0178476D01*
X0201025Y0178306D01*
X0201021Y0178135D01*
X0201021Y0177965D01*
X0201025Y0177794D01*
X0201033Y0177624D01*
X0201045Y0177454D01*
X0201062Y0177284D01*
X0201083Y0177115D01*
X0201108Y0176947D01*
X0201136Y0176779D01*
X0201169Y0176611D01*
X0201207Y0176445D01*
X0201248Y0176279D01*
X0201293Y0176115D01*
X0201342Y0175952D01*
X0201395Y0175790D01*
X0201452Y0175629D01*
X0201513Y0175470D01*
X0201578Y0175312D01*
X0201646Y0175156D01*
X0201719Y0175002D01*
X0201795Y0174849D01*
X0201874Y0174699D01*
X0201958Y0174550D01*
X0202045Y0174403D01*
X0202135Y0174259D01*
X0202229Y0174117D01*
X0202327Y0173977D01*
X0202428Y0173840D01*
X0202532Y0173705D01*
X0202639Y0173572D01*
X0202750Y0173443D01*
X0202864Y0173316D01*
X0202981Y0173191D01*
X0203100Y0173070D01*
X0203223Y0172952D01*
X0203349Y0172837D01*
X0203477Y0172724D01*
X0203608Y0172615D01*
X0203742Y0172510D01*
X0203878Y0172407D01*
X0204017Y0172308D01*
X0204158Y0172212D01*
X0204301Y0172120D01*
X0204446Y0172031D01*
X0204594Y0171946D01*
X0204744Y0171864D01*
X0204895Y0171786D01*
X0205049Y0171712D01*
X0205204Y0171641D01*
X0205361Y0171575D01*
X0205519Y0171512D01*
X0205679Y0171453D01*
X0205841Y0171398D01*
X0206003Y0171347D01*
X0206167Y0171300D01*
X0206332Y0171257D01*
X0206498Y0171217D01*
X0206665Y0171182D01*
X0206832Y0171151D01*
X0207001Y0171125D01*
X0207170Y0171102D01*
X0207339Y0171083D01*
X0207509Y0171069D01*
X0207679Y0171058D01*
X0207850Y0171052D01*
X0208020Y0171050D01*
X0271990Y0172117D02*
X0272357Y0171750D01*
X0273091Y0171750D01*
X0273458Y0172117D01*
X0273458Y0172851D01*
X0272724Y0172851D01*
X0273458Y0173585D02*
X0273091Y0173952D01*
X0272357Y0173952D01*
X0271990Y0173585D01*
X0271990Y0172117D01*
X0274200Y0171750D02*
X0274200Y0173952D01*
X0275668Y0171750D01*
X0275668Y0173952D01*
X0276410Y0173952D02*
X0277511Y0173952D01*
X0277878Y0173585D01*
X0277878Y0172117D01*
X0277511Y0171750D01*
X0276410Y0171750D01*
X0276410Y0173952D01*
X0276410Y0181750D02*
X0277511Y0181750D01*
X0277878Y0182117D01*
X0277878Y0183585D01*
X0277511Y0183952D01*
X0276410Y0183952D01*
X0276410Y0181750D01*
X0275668Y0181750D02*
X0275668Y0183952D01*
X0274200Y0183952D02*
X0274200Y0181750D01*
X0273458Y0182117D02*
X0273458Y0182851D01*
X0272724Y0182851D01*
X0273458Y0183585D02*
X0273091Y0183952D01*
X0272357Y0183952D01*
X0271990Y0183585D01*
X0271990Y0182117D01*
X0272357Y0181750D01*
X0273091Y0181750D01*
X0273458Y0182117D01*
X0274200Y0183952D02*
X0275668Y0181750D01*
X0275301Y0191750D02*
X0274567Y0191750D01*
X0274200Y0192117D01*
X0274200Y0193585D01*
X0274567Y0193952D01*
X0275301Y0193952D01*
X0275668Y0193585D01*
X0276410Y0193585D02*
X0276410Y0192117D01*
X0276777Y0191750D01*
X0277511Y0191750D01*
X0277878Y0192117D01*
X0277878Y0193585D02*
X0277511Y0193952D01*
X0276777Y0193952D01*
X0276410Y0193585D01*
X0275668Y0192117D02*
X0275301Y0191750D01*
X0273458Y0192484D02*
X0273458Y0193952D01*
X0271990Y0193952D02*
X0271990Y0192484D01*
X0272724Y0191750D01*
X0273458Y0192484D01*
X0273461Y0201750D02*
X0274195Y0202484D01*
X0274195Y0203952D01*
X0274937Y0203952D02*
X0275670Y0203952D01*
X0275304Y0203952D02*
X0275304Y0201750D01*
X0275670Y0201750D02*
X0274937Y0201750D01*
X0276410Y0201750D02*
X0276410Y0203952D01*
X0277878Y0201750D01*
X0277878Y0203952D01*
X0273461Y0201750D02*
X0272727Y0202484D01*
X0272727Y0203952D01*
X0273091Y0163952D02*
X0273458Y0163585D01*
X0273458Y0162851D01*
X0273091Y0162484D01*
X0271990Y0162484D01*
X0272724Y0162484D02*
X0273458Y0161750D01*
X0274200Y0161750D02*
X0275668Y0161750D01*
X0276410Y0162117D02*
X0276777Y0161750D01*
X0277511Y0161750D01*
X0277878Y0162117D01*
X0277878Y0162484D01*
X0277511Y0162851D01*
X0276777Y0162851D01*
X0276410Y0163218D01*
X0276410Y0163585D01*
X0276777Y0163952D01*
X0277511Y0163952D01*
X0277878Y0163585D01*
X0275668Y0163952D02*
X0274200Y0163952D01*
X0274200Y0161750D01*
X0274200Y0162851D02*
X0274934Y0162851D01*
X0273091Y0163952D02*
X0271990Y0163952D01*
X0271990Y0161750D01*
X0273354Y0096352D02*
X0274088Y0095618D01*
X0274088Y0094150D01*
X0274830Y0094150D02*
X0274830Y0096352D01*
X0275930Y0096352D01*
X0276297Y0095985D01*
X0276297Y0095251D01*
X0275930Y0094884D01*
X0274830Y0094884D01*
X0275564Y0094884D02*
X0276297Y0094150D01*
X0277039Y0094150D02*
X0278507Y0094150D01*
X0279249Y0094150D02*
X0279249Y0096352D01*
X0280717Y0096352D01*
X0279983Y0095251D02*
X0279249Y0095251D01*
X0278507Y0096352D02*
X0277039Y0096352D01*
X0277039Y0094150D01*
X0277039Y0095251D02*
X0277773Y0095251D01*
X0274088Y0095251D02*
X0272620Y0095251D01*
X0272620Y0095618D02*
X0272620Y0094150D01*
X0272620Y0095618D02*
X0273354Y0096352D01*
X0273721Y0086352D02*
X0272987Y0086352D01*
X0272620Y0085985D01*
X0272620Y0084517D01*
X0272987Y0084150D01*
X0273721Y0084150D01*
X0274088Y0084517D01*
X0274088Y0085251D01*
X0273354Y0085251D01*
X0274088Y0085985D02*
X0273721Y0086352D01*
X0274830Y0086352D02*
X0276297Y0084150D01*
X0276297Y0086352D01*
X0277039Y0086352D02*
X0278140Y0086352D01*
X0278507Y0085985D01*
X0278507Y0084517D01*
X0278140Y0084150D01*
X0277039Y0084150D01*
X0277039Y0086352D01*
X0274830Y0086352D02*
X0274830Y0084150D01*
D14*
X0271145Y0102500D02*
X0271145Y0107004D01*
X0271145Y0104752D02*
X0268143Y0104752D01*
X0266542Y0106253D02*
X0265791Y0107004D01*
X0264290Y0107004D01*
X0263539Y0106253D01*
X0263539Y0103251D01*
X0264290Y0102500D01*
X0265791Y0102500D01*
X0266542Y0103251D01*
X0266542Y0106253D01*
X0268143Y0107004D02*
X0268143Y0102500D01*
X0261971Y0102500D02*
X0260470Y0102500D01*
X0261220Y0102500D02*
X0261220Y0107004D01*
X0260470Y0107004D02*
X0261971Y0107004D01*
X0215584Y0094800D02*
X0212581Y0094800D01*
X0214083Y0094800D02*
X0214083Y0099304D01*
X0212581Y0097802D01*
X0210980Y0099304D02*
X0210980Y0095551D01*
X0210229Y0094800D01*
X0208728Y0094800D01*
X0207978Y0095551D01*
X0207978Y0099304D01*
X0206376Y0098553D02*
X0205626Y0099304D01*
X0204124Y0099304D01*
X0203374Y0098553D01*
X0203374Y0095551D01*
X0204124Y0094800D01*
X0205626Y0094800D01*
X0206376Y0095551D01*
X0201772Y0094800D02*
X0201772Y0099304D01*
X0200271Y0097802D01*
X0198770Y0099304D01*
X0198770Y0094800D01*
X0166876Y0113800D02*
X0163874Y0113800D01*
X0166876Y0116802D01*
X0166876Y0117553D01*
X0166126Y0118304D01*
X0164624Y0118304D01*
X0163874Y0117553D01*
X0162272Y0117553D02*
X0161522Y0118304D01*
X0160020Y0118304D01*
X0159270Y0117553D01*
X0159270Y0114551D01*
X0160020Y0113800D01*
X0161522Y0113800D01*
X0162272Y0114551D01*
X0135876Y0114551D02*
X0135876Y0115301D01*
X0135126Y0116052D01*
X0132874Y0116052D01*
X0132874Y0114551D01*
X0133624Y0113800D01*
X0135126Y0113800D01*
X0135876Y0114551D01*
X0134375Y0117553D02*
X0132874Y0116052D01*
X0134375Y0117553D02*
X0135876Y0118304D01*
X0131272Y0117553D02*
X0130522Y0118304D01*
X0129020Y0118304D01*
X0128270Y0117553D01*
X0128270Y0114551D01*
X0129020Y0113800D01*
X0130522Y0113800D01*
X0131272Y0114551D01*
X0104876Y0116052D02*
X0101874Y0116052D01*
X0104126Y0118304D01*
X0104126Y0113800D01*
X0100272Y0114551D02*
X0099522Y0113800D01*
X0098020Y0113800D01*
X0097270Y0114551D01*
X0097270Y0117553D01*
X0098020Y0118304D01*
X0099522Y0118304D01*
X0100272Y0117553D01*
X0094070Y0124300D02*
X0094070Y0127302D01*
X0094070Y0128904D02*
X0089566Y0128904D01*
X0091067Y0130405D01*
X0089566Y0131906D01*
X0094070Y0131906D01*
X0093319Y0133508D02*
X0094070Y0134258D01*
X0094070Y0135760D01*
X0093319Y0136510D01*
X0092568Y0136510D01*
X0091818Y0135760D01*
X0091818Y0135009D01*
X0091818Y0135760D02*
X0091067Y0136510D01*
X0090316Y0136510D01*
X0089566Y0135760D01*
X0089566Y0134258D01*
X0090316Y0133508D01*
X0091067Y0138112D02*
X0089566Y0139613D01*
X0094070Y0139613D01*
X0094070Y0138112D02*
X0094070Y0141114D01*
X0094070Y0142716D02*
X0093319Y0142716D01*
X0090316Y0145718D01*
X0089566Y0145718D01*
X0089566Y0142716D01*
X0089566Y0147319D02*
X0089566Y0150322D01*
X0089566Y0148821D02*
X0094070Y0148821D01*
X0094070Y0124300D02*
X0089566Y0124300D01*
X0073876Y0117553D02*
X0073876Y0114551D01*
X0073126Y0113800D01*
X0071624Y0113800D01*
X0070874Y0114551D01*
X0069272Y0114551D02*
X0068522Y0113800D01*
X0067020Y0113800D01*
X0066270Y0114551D01*
X0066270Y0117553D01*
X0067020Y0118304D01*
X0068522Y0118304D01*
X0069272Y0117553D01*
X0070874Y0117553D02*
X0070874Y0116802D01*
X0071624Y0116052D01*
X0073876Y0116052D01*
X0073876Y0117553D02*
X0073126Y0118304D01*
X0071624Y0118304D01*
X0070874Y0117553D01*
X0070022Y0103304D02*
X0067770Y0103304D01*
X0067770Y0098800D01*
X0067770Y0100301D02*
X0070022Y0100301D01*
X0070772Y0101052D01*
X0070772Y0102553D01*
X0070022Y0103304D01*
X0072374Y0102553D02*
X0072374Y0101802D01*
X0073124Y0101052D01*
X0074626Y0101052D01*
X0075376Y0100301D01*
X0075376Y0099551D01*
X0074626Y0098800D01*
X0073124Y0098800D01*
X0072374Y0099551D01*
X0072374Y0100301D01*
X0073124Y0101052D01*
X0074626Y0101052D02*
X0075376Y0101802D01*
X0075376Y0102553D01*
X0074626Y0103304D01*
X0073124Y0103304D01*
X0072374Y0102553D01*
X0069271Y0100301D02*
X0070772Y0098800D01*
X0070404Y0074203D02*
X0070404Y0070800D01*
X0069270Y0070800D02*
X0071538Y0070800D01*
X0069270Y0073068D02*
X0070404Y0074203D01*
X0090020Y0073636D02*
X0090587Y0074203D01*
X0091721Y0074203D01*
X0092288Y0073636D01*
X0092288Y0073068D01*
X0091721Y0072501D01*
X0092288Y0071934D01*
X0092288Y0071367D01*
X0091721Y0070800D01*
X0090587Y0070800D01*
X0090020Y0071367D01*
X0091154Y0072501D02*
X0091721Y0072501D01*
X0114770Y0082300D02*
X0114770Y0086804D01*
X0117022Y0086804D01*
X0117772Y0086053D01*
X0117772Y0084552D01*
X0117022Y0083801D01*
X0114770Y0083801D01*
X0116271Y0083801D02*
X0117772Y0082300D01*
X0119374Y0083051D02*
X0120124Y0082300D01*
X0121626Y0082300D01*
X0122376Y0083051D01*
X0122376Y0083801D01*
X0121626Y0084552D01*
X0119374Y0084552D01*
X0119374Y0083051D01*
X0119374Y0084552D02*
X0120875Y0086053D01*
X0122376Y0086804D01*
X0129562Y0084804D02*
X0131814Y0084804D01*
X0132564Y0084053D01*
X0132564Y0082552D01*
X0131814Y0081801D01*
X0129562Y0081801D01*
X0131063Y0081801D02*
X0132564Y0080300D01*
X0134166Y0081051D02*
X0134916Y0080300D01*
X0136418Y0080300D01*
X0137168Y0081051D01*
X0137168Y0081801D01*
X0136418Y0082552D01*
X0135667Y0082552D01*
X0136418Y0082552D02*
X0137168Y0083302D01*
X0137168Y0084053D01*
X0136418Y0084804D01*
X0134916Y0084804D01*
X0134166Y0084053D01*
X0129562Y0084804D02*
X0129562Y0080300D01*
X0122376Y0058804D02*
X0119374Y0058804D01*
X0119374Y0056552D01*
X0120875Y0057302D01*
X0121626Y0057302D01*
X0122376Y0056552D01*
X0122376Y0055051D01*
X0121626Y0054300D01*
X0120124Y0054300D01*
X0119374Y0055051D01*
X0117772Y0054300D02*
X0116271Y0055801D01*
X0117022Y0055801D02*
X0114770Y0055801D01*
X0114770Y0054300D02*
X0114770Y0058804D01*
X0117022Y0058804D01*
X0117772Y0058053D01*
X0117772Y0056552D01*
X0117022Y0055801D01*
X0129562Y0055804D02*
X0129562Y0051300D01*
X0129562Y0052801D02*
X0131814Y0052801D01*
X0132564Y0053552D01*
X0132564Y0055053D01*
X0131814Y0055804D01*
X0129562Y0055804D01*
X0131063Y0052801D02*
X0132564Y0051300D01*
X0134166Y0053552D02*
X0137168Y0053552D01*
X0136418Y0051300D02*
X0136418Y0055804D01*
X0134166Y0053552D01*
X0122876Y0042553D02*
X0122126Y0043304D01*
X0120624Y0043304D01*
X0119874Y0042553D01*
X0118272Y0042553D02*
X0118272Y0041052D01*
X0117522Y0040301D01*
X0115270Y0040301D01*
X0116771Y0040301D02*
X0118272Y0038800D01*
X0119874Y0038800D02*
X0122876Y0041802D01*
X0122876Y0042553D01*
X0122876Y0038800D02*
X0119874Y0038800D01*
X0118272Y0042553D02*
X0117522Y0043304D01*
X0115270Y0043304D01*
X0115270Y0038800D01*
X0078667Y0008304D02*
X0078667Y0003800D01*
X0077166Y0003800D02*
X0080168Y0003800D01*
X0077166Y0006802D02*
X0078667Y0008304D01*
X0075564Y0007553D02*
X0075564Y0006052D01*
X0074814Y0005301D01*
X0072562Y0005301D01*
X0072562Y0003800D02*
X0072562Y0008304D01*
X0074814Y0008304D01*
X0075564Y0007553D01*
X0070960Y0008304D02*
X0069459Y0008304D01*
X0070210Y0008304D02*
X0070210Y0004551D01*
X0069459Y0003800D01*
X0068709Y0003800D01*
X0067958Y0004551D01*
X0158470Y0022500D02*
X0159971Y0022500D01*
X0159220Y0022500D02*
X0159220Y0027004D01*
X0158470Y0027004D02*
X0159971Y0027004D01*
X0161539Y0026253D02*
X0161539Y0023251D01*
X0162290Y0022500D01*
X0163791Y0022500D01*
X0164542Y0023251D01*
X0164542Y0026253D01*
X0163791Y0027004D01*
X0162290Y0027004D01*
X0161539Y0026253D01*
X0166143Y0027004D02*
X0166143Y0022500D01*
X0169145Y0022500D01*
X0176470Y0022500D02*
X0176470Y0025502D01*
X0177971Y0027004D01*
X0179472Y0025502D01*
X0179472Y0022500D01*
X0181074Y0022500D02*
X0183326Y0022500D01*
X0184076Y0023251D01*
X0184076Y0026253D01*
X0183326Y0027004D01*
X0181074Y0027004D01*
X0181074Y0022500D01*
X0179472Y0024752D02*
X0176470Y0024752D01*
X0206266Y0032300D02*
X0210019Y0032300D01*
X0210770Y0033051D01*
X0210770Y0034552D01*
X0210019Y0035302D01*
X0206266Y0035302D01*
X0207767Y0036904D02*
X0206266Y0038405D01*
X0210770Y0038405D01*
X0210770Y0036904D02*
X0210770Y0039906D01*
X0202668Y0051800D02*
X0199666Y0051800D01*
X0201167Y0051800D02*
X0201167Y0056304D01*
X0199666Y0054802D01*
X0198064Y0055553D02*
X0197314Y0056304D01*
X0195812Y0056304D01*
X0195062Y0055553D01*
X0195062Y0052551D01*
X0195812Y0051800D01*
X0197314Y0051800D01*
X0198064Y0052551D01*
X0063670Y0142090D02*
X0061768Y0142090D01*
X0061768Y0143358D01*
X0062402Y0144300D02*
X0061768Y0144934D01*
X0063670Y0144934D01*
X0063670Y0144300D02*
X0063670Y0145568D01*
X0062719Y0142724D02*
X0062719Y0142090D01*
X0069020Y0183800D02*
X0070522Y0183800D01*
X0071272Y0184551D01*
X0072874Y0184551D02*
X0072874Y0185301D01*
X0073624Y0186052D01*
X0075126Y0186052D01*
X0075876Y0185301D01*
X0075876Y0184551D01*
X0075126Y0183800D01*
X0073624Y0183800D01*
X0072874Y0184551D01*
X0073624Y0186052D02*
X0072874Y0186802D01*
X0072874Y0187553D01*
X0073624Y0188304D01*
X0075126Y0188304D01*
X0075876Y0187553D01*
X0075876Y0186802D01*
X0075126Y0186052D01*
X0071272Y0187553D02*
X0070522Y0188304D01*
X0069020Y0188304D01*
X0068270Y0187553D01*
X0068270Y0184551D01*
X0069020Y0183800D01*
X0093315Y0192570D02*
X0093315Y0194144D01*
X0093315Y0192570D02*
X0117724Y0192570D01*
X0117724Y0194144D01*
X0117724Y0205955D02*
X0117724Y0207530D01*
X0093315Y0207530D01*
X0093315Y0205955D01*
X0148562Y0196304D02*
X0148562Y0191800D01*
X0150814Y0191800D01*
X0151564Y0192551D01*
X0151564Y0195553D01*
X0150814Y0196304D01*
X0148562Y0196304D01*
X0153166Y0195553D02*
X0153916Y0196304D01*
X0155418Y0196304D01*
X0156168Y0195553D01*
X0156168Y0194802D01*
X0153166Y0191800D01*
X0156168Y0191800D01*
X0154667Y0181304D02*
X0154667Y0176800D01*
X0153166Y0176800D02*
X0156168Y0176800D01*
X0153166Y0179802D02*
X0154667Y0181304D01*
X0151564Y0180553D02*
X0150814Y0181304D01*
X0148562Y0181304D01*
X0148562Y0176800D01*
X0150814Y0176800D01*
X0151564Y0177551D01*
X0151564Y0180553D01*
X0150814Y0166304D02*
X0148562Y0166304D01*
X0148562Y0161800D01*
X0150814Y0161800D01*
X0151564Y0162551D01*
X0151564Y0165553D01*
X0150814Y0166304D01*
X0153166Y0165553D02*
X0153916Y0166304D01*
X0155418Y0166304D01*
X0156168Y0165553D01*
X0156168Y0164802D01*
X0155418Y0164052D01*
X0156168Y0163301D01*
X0156168Y0162551D01*
X0155418Y0161800D01*
X0153916Y0161800D01*
X0153166Y0162551D01*
X0154667Y0164052D02*
X0155418Y0164052D01*
X0188766Y0190092D02*
X0188766Y0192344D01*
X0189516Y0193095D01*
X0191018Y0193095D01*
X0191768Y0192344D01*
X0191768Y0190092D01*
X0191768Y0191593D02*
X0193270Y0193095D01*
X0193270Y0194696D02*
X0192519Y0194696D01*
X0189516Y0197698D01*
X0188766Y0197698D01*
X0188766Y0194696D01*
X0188766Y0190092D02*
X0193270Y0190092D01*
X0201770Y0189551D02*
X0202520Y0188800D01*
X0204022Y0188800D01*
X0204772Y0189551D01*
X0204772Y0192553D01*
X0204022Y0193304D01*
X0202520Y0193304D01*
X0201770Y0192553D01*
X0201770Y0189551D01*
X0206374Y0189551D02*
X0207124Y0188800D01*
X0208626Y0188800D01*
X0209376Y0189551D01*
X0209376Y0190301D01*
X0208626Y0191052D01*
X0207124Y0191052D01*
X0206374Y0191802D01*
X0206374Y0192553D01*
X0207124Y0193304D01*
X0208626Y0193304D01*
X0209376Y0192553D01*
X0210978Y0192553D02*
X0210978Y0189551D01*
X0211728Y0188800D01*
X0213229Y0188800D01*
X0213980Y0189551D01*
X0215581Y0188800D02*
X0218584Y0188800D01*
X0217083Y0188800D02*
X0217083Y0193304D01*
X0215581Y0191802D01*
X0213980Y0192553D02*
X0213229Y0193304D01*
X0211728Y0193304D01*
X0210978Y0192553D01*
X0203874Y0206800D02*
X0203874Y0207551D01*
X0206876Y0210553D01*
X0206876Y0211304D01*
X0203874Y0211304D01*
X0202272Y0210553D02*
X0201522Y0211304D01*
X0200020Y0211304D01*
X0199270Y0210553D01*
X0199270Y0207551D01*
X0200020Y0206800D01*
X0201522Y0206800D01*
X0202272Y0207551D01*
X0230270Y0207551D02*
X0231020Y0206800D01*
X0232522Y0206800D01*
X0233272Y0207551D01*
X0234874Y0207551D02*
X0235624Y0206800D01*
X0237126Y0206800D01*
X0237876Y0207551D01*
X0237876Y0208301D01*
X0237126Y0209052D01*
X0236375Y0209052D01*
X0237126Y0209052D02*
X0237876Y0209802D01*
X0237876Y0210553D01*
X0237126Y0211304D01*
X0235624Y0211304D01*
X0234874Y0210553D01*
X0233272Y0210553D02*
X0232522Y0211304D01*
X0231020Y0211304D01*
X0230270Y0210553D01*
X0230270Y0207551D01*
X0250050Y0209100D02*
X0250050Y0213604D01*
X0252302Y0213604D01*
X0253053Y0212853D01*
X0253053Y0211352D01*
X0252302Y0210601D01*
X0250050Y0210601D01*
X0254654Y0209851D02*
X0255405Y0209100D01*
X0256906Y0209100D01*
X0257656Y0209851D01*
X0257656Y0212853D01*
X0256906Y0213604D01*
X0255405Y0213604D01*
X0254654Y0212853D01*
X0254654Y0209851D01*
X0259258Y0209100D02*
X0259258Y0213604D01*
X0262260Y0213604D02*
X0262260Y0209100D01*
X0260759Y0210601D01*
X0259258Y0209100D01*
X0263862Y0209100D02*
X0263862Y0213604D01*
X0266864Y0213604D01*
X0268466Y0213604D02*
X0270718Y0213604D01*
X0271468Y0212853D01*
X0271468Y0211352D01*
X0270718Y0210601D01*
X0268466Y0210601D01*
X0269967Y0210601D02*
X0271468Y0209100D01*
X0268466Y0209100D02*
X0268466Y0213604D01*
X0265363Y0211352D02*
X0263862Y0211352D01*
X0263862Y0209100D02*
X0266864Y0209100D01*
D15*
X0239820Y0204050D02*
X0239820Y0201050D01*
X0239820Y0198050D01*
X0237320Y0198050D02*
X0237320Y0201050D01*
X0237320Y0204050D01*
X0208820Y0204050D02*
X0208820Y0201050D01*
X0208820Y0198050D01*
X0206320Y0198050D02*
X0206320Y0201050D01*
X0206320Y0204050D01*
X0168820Y0111050D02*
X0168820Y0108050D01*
X0168820Y0105050D01*
X0166320Y0105050D02*
X0166320Y0108050D01*
X0166320Y0111050D01*
X0137820Y0111050D02*
X0137820Y0108050D01*
X0137820Y0105050D01*
X0135320Y0105050D02*
X0135320Y0108050D01*
X0135320Y0111050D01*
X0106820Y0111050D02*
X0106820Y0108050D01*
X0106820Y0105050D01*
X0104320Y0105050D02*
X0104320Y0108050D01*
X0104320Y0111050D01*
X0075820Y0111050D02*
X0075820Y0108050D01*
X0075820Y0105050D01*
X0073320Y0105050D02*
X0073320Y0108050D01*
X0073320Y0111050D01*
X0075320Y0175050D02*
X0075320Y0178050D01*
X0075320Y0181050D01*
X0077820Y0181050D02*
X0077820Y0178050D01*
X0077820Y0175050D01*
X0194220Y0065050D02*
X0194220Y0062050D01*
X0194220Y0059050D01*
X0196720Y0059050D02*
X0196720Y0062050D01*
X0196720Y0065050D01*
D16*
X0155020Y0173050D03*
X0155020Y0188050D03*
X0155020Y0203050D03*
D17*
X0161270Y0203050D03*
X0161270Y0188050D03*
X0161270Y0173050D03*
X0137770Y0173050D03*
X0137770Y0188050D03*
X0137770Y0203050D03*
D18*
X0060520Y0159050D02*
X0048520Y0159050D01*
X0048520Y0129050D01*
X0060520Y0129050D01*
X0060520Y0159050D01*
X0057236Y0117814D02*
X0057236Y0038286D01*
X0021803Y0038286D01*
X0021803Y0069388D01*
X0027709Y0069388D01*
X0027709Y0086711D01*
X0021803Y0086711D01*
X0021803Y0117814D01*
X0056843Y0117814D01*
X0028594Y0100550D02*
X0028594Y0095550D01*
X0021803Y0086711D02*
X0021803Y0069388D01*
X0028020Y0029050D02*
X0033020Y0029050D01*
X0035520Y0026550D01*
X0035520Y0011550D01*
X0038020Y0009050D01*
X0043020Y0009050D01*
X0045520Y0011550D01*
X0045520Y0026550D01*
X0048020Y0029050D01*
X0053020Y0029050D01*
X0055520Y0026550D01*
X0055520Y0011550D01*
X0053020Y0009050D01*
X0048020Y0009050D01*
X0045520Y0011550D01*
X0035520Y0011550D02*
X0033020Y0009050D01*
X0028020Y0009050D01*
X0025520Y0011550D01*
X0025520Y0026550D01*
X0028020Y0029050D01*
X0035520Y0026550D02*
X0038020Y0029050D01*
X0043020Y0029050D01*
X0045520Y0026550D01*
X0033020Y0007731D02*
X0028020Y0007731D01*
X0183520Y0080550D02*
X0184520Y0080550D01*
X0183520Y0080550D02*
X0183520Y0088050D01*
X0183646Y0088052D01*
X0183771Y0088058D01*
X0183896Y0088068D01*
X0184021Y0088082D01*
X0184146Y0088099D01*
X0184270Y0088121D01*
X0184393Y0088146D01*
X0184515Y0088176D01*
X0184636Y0088209D01*
X0184756Y0088246D01*
X0184875Y0088286D01*
X0184992Y0088331D01*
X0185109Y0088379D01*
X0185223Y0088431D01*
X0185336Y0088486D01*
X0185447Y0088545D01*
X0185556Y0088607D01*
X0185663Y0088673D01*
X0185768Y0088742D01*
X0185871Y0088814D01*
X0185972Y0088889D01*
X0186070Y0088968D01*
X0186165Y0089050D01*
X0186258Y0089134D01*
X0186348Y0089222D01*
X0186436Y0089312D01*
X0186520Y0089405D01*
X0186602Y0089500D01*
X0186681Y0089598D01*
X0186756Y0089699D01*
X0186828Y0089802D01*
X0186897Y0089907D01*
X0186963Y0090014D01*
X0187025Y0090123D01*
X0187084Y0090234D01*
X0187139Y0090347D01*
X0187191Y0090461D01*
X0187239Y0090578D01*
X0187284Y0090695D01*
X0187324Y0090814D01*
X0187361Y0090934D01*
X0187394Y0091055D01*
X0187424Y0091177D01*
X0187449Y0091300D01*
X0187471Y0091424D01*
X0187488Y0091549D01*
X0187502Y0091674D01*
X0187512Y0091799D01*
X0187518Y0091924D01*
X0187520Y0092050D01*
X0187518Y0092176D01*
X0187512Y0092301D01*
X0187502Y0092426D01*
X0187488Y0092551D01*
X0187471Y0092676D01*
X0187449Y0092800D01*
X0187424Y0092923D01*
X0187394Y0093045D01*
X0187361Y0093166D01*
X0187324Y0093286D01*
X0187284Y0093405D01*
X0187239Y0093522D01*
X0187191Y0093639D01*
X0187139Y0093753D01*
X0187084Y0093866D01*
X0187025Y0093977D01*
X0186963Y0094086D01*
X0186897Y0094193D01*
X0186828Y0094298D01*
X0186756Y0094401D01*
X0186681Y0094502D01*
X0186602Y0094600D01*
X0186520Y0094695D01*
X0186436Y0094788D01*
X0186348Y0094878D01*
X0186258Y0094966D01*
X0186165Y0095050D01*
X0186070Y0095132D01*
X0185972Y0095211D01*
X0185871Y0095286D01*
X0185768Y0095358D01*
X0185663Y0095427D01*
X0185556Y0095493D01*
X0185447Y0095555D01*
X0185336Y0095614D01*
X0185223Y0095669D01*
X0185109Y0095721D01*
X0184992Y0095769D01*
X0184875Y0095814D01*
X0184756Y0095854D01*
X0184636Y0095891D01*
X0184515Y0095924D01*
X0184393Y0095954D01*
X0184270Y0095979D01*
X0184146Y0096001D01*
X0184021Y0096018D01*
X0183896Y0096032D01*
X0183771Y0096042D01*
X0183646Y0096048D01*
X0183520Y0096050D01*
X0183520Y0103550D01*
X0184520Y0103550D01*
X0192220Y0103550D02*
X0194820Y0103550D01*
X0202220Y0103550D02*
X0204820Y0103550D01*
X0212220Y0103550D02*
X0214820Y0103550D01*
X0222220Y0103550D02*
X0224820Y0103550D01*
X0232220Y0103550D02*
X0234820Y0103550D01*
X0242220Y0103550D02*
X0244820Y0103550D01*
X0252520Y0103550D02*
X0253520Y0103550D01*
X0253520Y0080550D01*
X0252520Y0080550D01*
X0244820Y0080550D02*
X0242220Y0080550D01*
X0234820Y0080550D02*
X0232220Y0080550D01*
X0224820Y0080550D02*
X0222220Y0080550D01*
X0214820Y0080550D02*
X0212220Y0080550D01*
X0204820Y0080550D02*
X0202220Y0080550D01*
X0194820Y0080550D02*
X0192220Y0080550D01*
X0213520Y0057050D02*
X0213520Y0041050D01*
X0213520Y0043050D01*
X0213520Y0041050D02*
X0213520Y0037050D01*
X0253520Y0037050D01*
X0253520Y0057050D01*
X0213520Y0057050D01*
D19*
X0056315Y0173302D02*
X0056315Y0179798D01*
X0054346Y0179798D02*
X0054346Y0173302D01*
X0056315Y0173302D01*
X0048441Y0178302D02*
X0048441Y0204798D01*
X0054346Y0204798D01*
X0054346Y0198302D01*
X0056315Y0198302D02*
X0056315Y0204798D01*
X0054346Y0204798D01*
X0048441Y0204798D02*
X0048441Y0206766D01*
X0001197Y0206766D01*
X0001197Y0201648D01*
X0005134Y0201648D01*
X0001197Y0201648D02*
X0001197Y0176451D01*
X0005134Y0176451D01*
X0001197Y0176451D02*
X0001197Y0171333D01*
X0033441Y0171333D01*
X0032693Y0176451D02*
X0036630Y0176451D01*
X0036630Y0178814D01*
X0036630Y0182751D02*
X0036630Y0185113D01*
X0036630Y0192987D01*
X0036630Y0195349D01*
X0036630Y0199286D02*
X0036630Y0201648D01*
X0032693Y0201648D01*
X0028756Y0201648D02*
X0024819Y0201648D01*
X0020882Y0201648D02*
X0016945Y0201648D01*
X0013008Y0201648D02*
X0009071Y0201648D01*
X0014976Y0204798D02*
X0048441Y0204798D01*
X0014976Y0204798D02*
X0014976Y0206766D01*
X0014976Y0204798D02*
X0014976Y0171333D01*
X0013008Y0176451D02*
X0009071Y0176451D01*
X0016945Y0176451D02*
X0020882Y0176451D01*
X0024819Y0176451D02*
X0028756Y0176451D01*
X0009071Y0185113D02*
X0008947Y0185115D01*
X0008824Y0185121D01*
X0008700Y0185130D01*
X0008578Y0185144D01*
X0008455Y0185161D01*
X0008333Y0185183D01*
X0008212Y0185208D01*
X0008092Y0185237D01*
X0007973Y0185269D01*
X0007854Y0185306D01*
X0007737Y0185346D01*
X0007622Y0185389D01*
X0007507Y0185437D01*
X0007395Y0185488D01*
X0007284Y0185542D01*
X0007174Y0185600D01*
X0007067Y0185661D01*
X0006961Y0185726D01*
X0006858Y0185794D01*
X0006757Y0185865D01*
X0006658Y0185939D01*
X0006561Y0186016D01*
X0006467Y0186097D01*
X0006376Y0186180D01*
X0006287Y0186266D01*
X0006201Y0186355D01*
X0006118Y0186446D01*
X0006037Y0186540D01*
X0005960Y0186637D01*
X0005886Y0186736D01*
X0005815Y0186837D01*
X0005747Y0186940D01*
X0005682Y0187046D01*
X0005621Y0187153D01*
X0005563Y0187263D01*
X0005509Y0187374D01*
X0005458Y0187486D01*
X0005410Y0187601D01*
X0005367Y0187716D01*
X0005327Y0187833D01*
X0005290Y0187952D01*
X0005258Y0188071D01*
X0005229Y0188191D01*
X0005204Y0188312D01*
X0005182Y0188434D01*
X0005165Y0188557D01*
X0005151Y0188679D01*
X0005142Y0188803D01*
X0005136Y0188926D01*
X0005134Y0189050D01*
X0005136Y0189174D01*
X0005142Y0189297D01*
X0005151Y0189421D01*
X0005165Y0189543D01*
X0005182Y0189666D01*
X0005204Y0189788D01*
X0005229Y0189909D01*
X0005258Y0190029D01*
X0005290Y0190148D01*
X0005327Y0190267D01*
X0005367Y0190384D01*
X0005410Y0190499D01*
X0005458Y0190614D01*
X0005509Y0190726D01*
X0005563Y0190837D01*
X0005621Y0190947D01*
X0005682Y0191054D01*
X0005747Y0191160D01*
X0005815Y0191263D01*
X0005886Y0191364D01*
X0005960Y0191463D01*
X0006037Y0191560D01*
X0006118Y0191654D01*
X0006201Y0191745D01*
X0006287Y0191834D01*
X0006376Y0191920D01*
X0006467Y0192003D01*
X0006561Y0192084D01*
X0006658Y0192161D01*
X0006757Y0192235D01*
X0006858Y0192306D01*
X0006961Y0192374D01*
X0007067Y0192439D01*
X0007174Y0192500D01*
X0007284Y0192558D01*
X0007395Y0192612D01*
X0007507Y0192663D01*
X0007622Y0192711D01*
X0007737Y0192754D01*
X0007854Y0192794D01*
X0007973Y0192831D01*
X0008092Y0192863D01*
X0008212Y0192892D01*
X0008333Y0192917D01*
X0008455Y0192939D01*
X0008578Y0192956D01*
X0008700Y0192970D01*
X0008824Y0192979D01*
X0008947Y0192985D01*
X0009071Y0192987D01*
D20*
X0085120Y0125850D03*
D21*
X0073020Y0126800D03*
X0073020Y0161300D03*
D22*
X0072020Y0154050D03*
X0072020Y0144050D03*
X0072020Y0134050D03*
D23*
X0073020Y0139050D03*
X0073020Y0149050D03*
D24*
X0071305Y0200343D03*
X0071305Y0205757D03*
X0077305Y0062757D03*
X0077305Y0057343D03*
X0077305Y0047757D03*
X0077305Y0042343D03*
X0077305Y0033757D03*
X0077305Y0028343D03*
D25*
X0078831Y0031050D03*
X0078831Y0045050D03*
X0078831Y0060050D03*
X0072831Y0203050D03*
D26*
X0182520Y0201250D03*
X0182520Y0172850D03*
D27*
X0098520Y0154800D03*
X0098520Y0133300D03*
D28*
X0215692Y0042050D02*
X0215694Y0042156D01*
X0215700Y0042261D01*
X0215710Y0042367D01*
X0215724Y0042471D01*
X0215741Y0042576D01*
X0215763Y0042679D01*
X0215788Y0042782D01*
X0215818Y0042884D01*
X0215851Y0042984D01*
X0215887Y0043083D01*
X0215928Y0043181D01*
X0215972Y0043277D01*
X0216020Y0043371D01*
X0216071Y0043464D01*
X0216125Y0043555D01*
X0216183Y0043643D01*
X0216245Y0043729D01*
X0216309Y0043813D01*
X0216376Y0043895D01*
X0216447Y0043974D01*
X0216520Y0044050D01*
X0216596Y0044123D01*
X0216675Y0044194D01*
X0216757Y0044261D01*
X0216841Y0044325D01*
X0216927Y0044387D01*
X0217015Y0044445D01*
X0217106Y0044499D01*
X0217199Y0044550D01*
X0217293Y0044598D01*
X0217389Y0044642D01*
X0217487Y0044683D01*
X0217586Y0044719D01*
X0217686Y0044752D01*
X0217788Y0044782D01*
X0217891Y0044807D01*
X0217994Y0044829D01*
X0218099Y0044846D01*
X0218203Y0044860D01*
X0218309Y0044870D01*
X0218414Y0044876D01*
X0218520Y0044878D01*
X0218626Y0044876D01*
X0218731Y0044870D01*
X0218837Y0044860D01*
X0218941Y0044846D01*
X0219046Y0044829D01*
X0219149Y0044807D01*
X0219252Y0044782D01*
X0219354Y0044752D01*
X0219454Y0044719D01*
X0219553Y0044683D01*
X0219651Y0044642D01*
X0219747Y0044598D01*
X0219841Y0044550D01*
X0219934Y0044499D01*
X0220025Y0044445D01*
X0220113Y0044387D01*
X0220199Y0044325D01*
X0220283Y0044261D01*
X0220365Y0044194D01*
X0220444Y0044123D01*
X0220520Y0044050D01*
X0220593Y0043974D01*
X0220664Y0043895D01*
X0220731Y0043813D01*
X0220795Y0043729D01*
X0220857Y0043643D01*
X0220915Y0043555D01*
X0220969Y0043464D01*
X0221020Y0043371D01*
X0221068Y0043277D01*
X0221112Y0043181D01*
X0221153Y0043083D01*
X0221189Y0042984D01*
X0221222Y0042884D01*
X0221252Y0042782D01*
X0221277Y0042679D01*
X0221299Y0042576D01*
X0221316Y0042471D01*
X0221330Y0042367D01*
X0221340Y0042261D01*
X0221346Y0042156D01*
X0221348Y0042050D01*
X0221346Y0041944D01*
X0221340Y0041839D01*
X0221330Y0041733D01*
X0221316Y0041629D01*
X0221299Y0041524D01*
X0221277Y0041421D01*
X0221252Y0041318D01*
X0221222Y0041216D01*
X0221189Y0041116D01*
X0221153Y0041017D01*
X0221112Y0040919D01*
X0221068Y0040823D01*
X0221020Y0040729D01*
X0220969Y0040636D01*
X0220915Y0040545D01*
X0220857Y0040457D01*
X0220795Y0040371D01*
X0220731Y0040287D01*
X0220664Y0040205D01*
X0220593Y0040126D01*
X0220520Y0040050D01*
X0220444Y0039977D01*
X0220365Y0039906D01*
X0220283Y0039839D01*
X0220199Y0039775D01*
X0220113Y0039713D01*
X0220025Y0039655D01*
X0219934Y0039601D01*
X0219841Y0039550D01*
X0219747Y0039502D01*
X0219651Y0039458D01*
X0219553Y0039417D01*
X0219454Y0039381D01*
X0219354Y0039348D01*
X0219252Y0039318D01*
X0219149Y0039293D01*
X0219046Y0039271D01*
X0218941Y0039254D01*
X0218837Y0039240D01*
X0218731Y0039230D01*
X0218626Y0039224D01*
X0218520Y0039222D01*
X0218414Y0039224D01*
X0218309Y0039230D01*
X0218203Y0039240D01*
X0218099Y0039254D01*
X0217994Y0039271D01*
X0217891Y0039293D01*
X0217788Y0039318D01*
X0217686Y0039348D01*
X0217586Y0039381D01*
X0217487Y0039417D01*
X0217389Y0039458D01*
X0217293Y0039502D01*
X0217199Y0039550D01*
X0217106Y0039601D01*
X0217015Y0039655D01*
X0216927Y0039713D01*
X0216841Y0039775D01*
X0216757Y0039839D01*
X0216675Y0039906D01*
X0216596Y0039977D01*
X0216520Y0040050D01*
X0216447Y0040126D01*
X0216376Y0040205D01*
X0216309Y0040287D01*
X0216245Y0040371D01*
X0216183Y0040457D01*
X0216125Y0040545D01*
X0216071Y0040636D01*
X0216020Y0040729D01*
X0215972Y0040823D01*
X0215928Y0040919D01*
X0215887Y0041017D01*
X0215851Y0041116D01*
X0215818Y0041216D01*
X0215788Y0041318D01*
X0215763Y0041421D01*
X0215741Y0041524D01*
X0215724Y0041629D01*
X0215710Y0041733D01*
X0215700Y0041839D01*
X0215694Y0041944D01*
X0215692Y0042050D01*
D29*
X0107570Y0130400D02*
X0107570Y0134603D01*
X0106519Y0136845D02*
X0107570Y0137896D01*
X0107570Y0139998D01*
X0106519Y0141049D01*
X0101264Y0141049D01*
X0101264Y0136845D02*
X0106519Y0136845D01*
X0102315Y0134603D02*
X0106519Y0130400D01*
X0107570Y0130400D01*
X0101264Y0130400D02*
X0101264Y0134603D01*
X0102315Y0134603D01*
X0104417Y0143291D02*
X0104417Y0147494D01*
X0107570Y0146444D02*
X0101264Y0146444D01*
X0104417Y0143291D01*
X0094270Y0096800D02*
X0066770Y0096800D01*
X0066770Y0069300D01*
X0094270Y0069300D01*
X0094270Y0096800D01*
D30*
X0112320Y0091050D03*
X0112320Y0076050D03*
X0112320Y0062050D03*
X0112320Y0048050D03*
X0112820Y0031050D03*
X0140720Y0048050D03*
X0140720Y0062050D03*
X0140720Y0076050D03*
X0140720Y0091050D03*
X0150220Y0031050D03*
D31*
X0033740Y0130286D02*
X0014055Y0130286D01*
X0014055Y0159814D01*
X0033740Y0159814D01*
X0033740Y0130286D01*
M02*
