%
M48
M72
T01C0.01200
T02C0.02000
T03C0.02362
T04C0.02400
T05C0.02756
T06C0.03150
T07C0.03200
T08C0.03346
T09C0.03600
T10C0.03937
T11C0.04000
T12C0.04400
T13C0.05118
%
T01
X144520Y184500
X148520Y170000
X173520Y132000
X145520Y105000
X195520Y102000
X216020Y119500
X223020Y118500
X246020Y134500
X235520Y140000
X228520Y137000
X258020Y147500
X213520Y172000
X218020Y186000
X229020Y70000
X223520Y56000
X243520Y53000
X203520Y10500
X174020Y31500
X156520Y10500
X78520Y65500
X47520Y37500
X59520Y10500
X27020Y86000
T02
X44520Y41000
X59520Y60500
X72520Y76500
X82020Y18000
X172020Y92500
X208020Y71000
X148020Y174500
X178520Y188500
X192020Y204000
X230020Y189500
X42520Y145000
T03
X22520Y163437
X22520Y130563
T04
X211520Y180000
X231520Y180000
T05
X34331Y155760
X34331Y138240
T06
X31709Y191000
X43520Y172102
X54520Y156000
X54520Y136000
T07
X66520Y180000
X86520Y180000
X98520Y161000
X98520Y131000
X95520Y110000
X84520Y110000
X64520Y110000
X70520Y85000
X80520Y75000
X90520Y85000
X106520Y78000
X106520Y64000
X106520Y50000
X106520Y33000
X146520Y50000
X146520Y64000
X146520Y78000
X146520Y93000
X146520Y110000
X157520Y110000
X177520Y110000
X188520Y109000
X198520Y109000
X208520Y109000
X218520Y109000
X228520Y109000
X238520Y109000
X248520Y109000
X248520Y79000
X238520Y79000
X228520Y79000
X218520Y79000
X208520Y79000
X198520Y79000
X188520Y79000
X185520Y64000
X205520Y64000
X218520Y64000
X228520Y64000
X238520Y64000
X248520Y64000
X248520Y34000
X238520Y34000
X228520Y34000
X218520Y34000
X156520Y33000
X106520Y93000
X115520Y110000
X126520Y110000
X182520Y169000
X197520Y203000
X182520Y209000
X217520Y203000
X228520Y203000
X248520Y203000
T08
X118520Y157000
X128520Y157000
X138520Y157000
X148520Y157000
X158520Y157000
X168520Y157000
X178520Y157000
X188520Y157000
X198520Y157000
X208520Y157000
X218520Y157000
X228520Y157000
X238520Y157000
X248520Y157000
X248520Y127000
X238520Y127000
X228520Y127000
X218520Y127000
X208520Y127000
X198520Y127000
X188520Y127000
X178520Y127000
X168520Y127000
X158520Y127000
X148520Y127000
X138520Y127000
X128520Y127000
X118520Y127000
T09
X66520Y17000
X76520Y17000
T10
X55331Y191000
T11
X80520Y156000
X80520Y146000
X80520Y136000
X44520Y100000
X34520Y100000
X34520Y90000
X44520Y90000
X44520Y80000
X34520Y80000
X34520Y70000
X44520Y70000
X44520Y60000
X34520Y60000
X30520Y26000
X40520Y26000
X50520Y26000
X50520Y16000
X40520Y16000
X30520Y16000
X92520Y17000
X102520Y17000
X112520Y17000
X122520Y17000
X132520Y17000
X142520Y17000
X152520Y17000
X162520Y17000
X179520Y17000
X189520Y17000
X199520Y17000
X209520Y17000
X219520Y17000
X229520Y17000
X239520Y17000
X249520Y17000
X265520Y27000
X265520Y37000
X265520Y47000
X265520Y57000
X265520Y67000
X265520Y77000
X265520Y87000
X265520Y97000
X265520Y165000
X265520Y175000
X265520Y185000
X265520Y195000
X265520Y205000
T12
X129520Y205000
X129520Y190000
X129520Y175000
X169520Y175000
X169520Y190000
X169520Y205000
T13
X92724Y202000
X118315Y202000
M30
