G75*
%MOIN*%
%OFA0B0*%
%FSLAX25Y25*%
%IPPOS*%
%LPD*%
%AMOC8*
5,1,8,0,0,1.08239X$1,22.5*
%
%ADD10C,0.00000*%
%ADD11C,0.06400*%
%ADD12OC8,0.05600*%
%ADD13C,0.07000*%
%ADD14C,0.07800*%
%ADD15C,0.09000*%
%ADD16C,0.05600*%
%ADD17OC8,0.07200*%
%ADD18C,0.06000*%
%ADD19C,0.10400*%
%ADD20C,0.04800*%
%ADD21OC8,0.07000*%
%ADD22C,0.04762*%
%ADD23C,0.05156*%
D10*
X0014520Y0012000D02*
X0014520Y0207961D01*
X0014523Y0208203D01*
X0014532Y0208444D01*
X0014546Y0208685D01*
X0014567Y0208926D01*
X0014593Y0209166D01*
X0014625Y0209406D01*
X0014663Y0209645D01*
X0014706Y0209882D01*
X0014756Y0210119D01*
X0014811Y0210354D01*
X0014871Y0210588D01*
X0014938Y0210820D01*
X0015009Y0211051D01*
X0015087Y0211280D01*
X0015170Y0211507D01*
X0015258Y0211732D01*
X0015352Y0211955D01*
X0015451Y0212175D01*
X0015556Y0212393D01*
X0015665Y0212608D01*
X0015780Y0212821D01*
X0015900Y0213031D01*
X0016025Y0213237D01*
X0016155Y0213441D01*
X0016290Y0213642D01*
X0016430Y0213839D01*
X0016574Y0214033D01*
X0016723Y0214223D01*
X0016877Y0214409D01*
X0017035Y0214592D01*
X0017197Y0214771D01*
X0017364Y0214946D01*
X0017535Y0215117D01*
X0017710Y0215284D01*
X0017889Y0215446D01*
X0018072Y0215604D01*
X0018258Y0215758D01*
X0018448Y0215907D01*
X0018642Y0216051D01*
X0018839Y0216191D01*
X0019040Y0216326D01*
X0019244Y0216456D01*
X0019450Y0216581D01*
X0019660Y0216701D01*
X0019873Y0216816D01*
X0020088Y0216925D01*
X0020306Y0217030D01*
X0020526Y0217129D01*
X0020749Y0217223D01*
X0020974Y0217311D01*
X0021201Y0217394D01*
X0021430Y0217472D01*
X0021661Y0217543D01*
X0021893Y0217610D01*
X0022127Y0217670D01*
X0022362Y0217725D01*
X0022599Y0217775D01*
X0022836Y0217818D01*
X0023075Y0217856D01*
X0023315Y0217888D01*
X0023555Y0217914D01*
X0023796Y0217935D01*
X0024037Y0217949D01*
X0024278Y0217958D01*
X0024520Y0217961D01*
X0269205Y0217961D01*
X0284220Y0205945D02*
X0284220Y0013000D01*
X0284216Y0012710D01*
X0284206Y0012420D01*
X0284188Y0012131D01*
X0284164Y0011842D01*
X0284133Y0011554D01*
X0284094Y0011266D01*
X0284049Y0010980D01*
X0283996Y0010694D01*
X0283937Y0010411D01*
X0283871Y0010128D01*
X0283799Y0009848D01*
X0283719Y0009569D01*
X0283633Y0009292D01*
X0283540Y0009017D01*
X0283440Y0008745D01*
X0283334Y0008475D01*
X0283222Y0008208D01*
X0283102Y0007943D01*
X0282977Y0007682D01*
X0282845Y0007423D01*
X0282708Y0007168D01*
X0282564Y0006916D01*
X0282414Y0006668D01*
X0282258Y0006424D01*
X0282096Y0006183D01*
X0281928Y0005947D01*
X0281755Y0005714D01*
X0281576Y0005486D01*
X0281392Y0005262D01*
X0281202Y0005043D01*
X0281007Y0004828D01*
X0280807Y0004618D01*
X0280602Y0004413D01*
X0280392Y0004213D01*
X0280177Y0004018D01*
X0279958Y0003828D01*
X0279734Y0003644D01*
X0279506Y0003465D01*
X0279273Y0003292D01*
X0279037Y0003124D01*
X0278796Y0002962D01*
X0278552Y0002806D01*
X0278304Y0002656D01*
X0278052Y0002512D01*
X0277797Y0002375D01*
X0277538Y0002243D01*
X0277277Y0002118D01*
X0277012Y0001998D01*
X0276745Y0001886D01*
X0276475Y0001780D01*
X0276203Y0001680D01*
X0275928Y0001587D01*
X0275651Y0001501D01*
X0275372Y0001421D01*
X0275092Y0001349D01*
X0274809Y0001283D01*
X0274526Y0001224D01*
X0274240Y0001171D01*
X0273954Y0001126D01*
X0273666Y0001087D01*
X0273378Y0001056D01*
X0273089Y0001032D01*
X0272800Y0001014D01*
X0272510Y0001004D01*
X0272220Y0001000D01*
X0025520Y0001000D01*
X0025250Y0001003D01*
X0024980Y0001013D01*
X0024711Y0001030D01*
X0024442Y0001053D01*
X0024173Y0001083D01*
X0023906Y0001119D01*
X0023639Y0001162D01*
X0023374Y0001211D01*
X0023110Y0001267D01*
X0022847Y0001330D01*
X0022586Y0001398D01*
X0022327Y0001474D01*
X0022070Y0001555D01*
X0021814Y0001643D01*
X0021561Y0001737D01*
X0021310Y0001837D01*
X0021062Y0001944D01*
X0020817Y0002056D01*
X0020574Y0002175D01*
X0020335Y0002299D01*
X0020098Y0002429D01*
X0019865Y0002565D01*
X0019635Y0002707D01*
X0019409Y0002854D01*
X0019186Y0003007D01*
X0018967Y0003165D01*
X0018752Y0003328D01*
X0018542Y0003497D01*
X0018335Y0003671D01*
X0018133Y0003850D01*
X0017935Y0004033D01*
X0017742Y0004222D01*
X0017553Y0004415D01*
X0017370Y0004613D01*
X0017191Y0004815D01*
X0017017Y0005022D01*
X0016848Y0005232D01*
X0016685Y0005447D01*
X0016527Y0005666D01*
X0016374Y0005889D01*
X0016227Y0006115D01*
X0016085Y0006345D01*
X0015949Y0006578D01*
X0015819Y0006815D01*
X0015695Y0007054D01*
X0015576Y0007297D01*
X0015464Y0007542D01*
X0015357Y0007790D01*
X0015257Y0008041D01*
X0015163Y0008294D01*
X0015075Y0008550D01*
X0014994Y0008807D01*
X0014918Y0009066D01*
X0014850Y0009327D01*
X0014787Y0009590D01*
X0014731Y0009854D01*
X0014682Y0010119D01*
X0014639Y0010386D01*
X0014603Y0010653D01*
X0014573Y0010922D01*
X0014550Y0011191D01*
X0014533Y0011460D01*
X0014523Y0011730D01*
X0014520Y0012000D01*
X0269205Y0217961D02*
X0269532Y0217993D01*
X0269860Y0218018D01*
X0270188Y0218034D01*
X0270516Y0218043D01*
X0270845Y0218043D01*
X0271174Y0218036D01*
X0271502Y0218021D01*
X0271830Y0217997D01*
X0272157Y0217966D01*
X0272483Y0217927D01*
X0272808Y0217880D01*
X0273132Y0217826D01*
X0273455Y0217763D01*
X0273776Y0217693D01*
X0274095Y0217615D01*
X0274413Y0217529D01*
X0274728Y0217435D01*
X0275040Y0217334D01*
X0275350Y0217226D01*
X0275658Y0217110D01*
X0275963Y0216987D01*
X0276264Y0216856D01*
X0276562Y0216718D01*
X0276857Y0216573D01*
X0277148Y0216421D01*
X0277436Y0216261D01*
X0277720Y0216095D01*
X0277999Y0215922D01*
X0278274Y0215743D01*
X0278545Y0215557D01*
X0278811Y0215364D01*
X0279073Y0215165D01*
X0279329Y0214960D01*
X0279581Y0214748D01*
X0279827Y0214531D01*
X0280068Y0214307D01*
X0280304Y0214078D01*
X0280534Y0213843D01*
X0280758Y0213603D01*
X0280976Y0213357D01*
X0281189Y0213107D01*
X0281395Y0212851D01*
X0281595Y0212590D01*
X0281789Y0212325D01*
X0281976Y0212054D01*
X0282156Y0211780D01*
X0282330Y0211501D01*
X0282497Y0211218D01*
X0282658Y0210931D01*
X0282811Y0210640D01*
X0282957Y0210346D01*
X0283096Y0210048D01*
X0283228Y0209747D01*
X0283352Y0209443D01*
X0283469Y0209136D01*
X0283579Y0208826D01*
X0283681Y0208514D01*
X0283776Y0208199D01*
X0283862Y0207882D01*
X0283942Y0207563D01*
X0284013Y0207243D01*
X0284077Y0206920D01*
X0284133Y0206596D01*
X0284181Y0206271D01*
X0284221Y0205945D01*
D11*
X0268520Y0205000D02*
X0262520Y0205000D01*
X0262520Y0195000D02*
X0268520Y0195000D01*
X0268520Y0185000D02*
X0262520Y0185000D01*
X0262520Y0175000D02*
X0268520Y0175000D01*
X0268520Y0165000D02*
X0262520Y0165000D01*
X0262520Y0097000D02*
X0268520Y0097000D01*
X0268520Y0087000D02*
X0262520Y0087000D01*
X0262520Y0077000D02*
X0268520Y0077000D01*
X0268520Y0067000D02*
X0262520Y0067000D01*
X0262520Y0057000D02*
X0268520Y0057000D01*
X0268520Y0047000D02*
X0262520Y0047000D01*
X0262520Y0037000D02*
X0268520Y0037000D01*
X0268520Y0027000D02*
X0262520Y0027000D01*
X0249520Y0020000D02*
X0249520Y0014000D01*
X0239520Y0014000D02*
X0239520Y0020000D01*
X0229520Y0020000D02*
X0229520Y0014000D01*
X0219520Y0014000D02*
X0219520Y0020000D01*
X0209520Y0020000D02*
X0209520Y0014000D01*
X0199520Y0014000D02*
X0199520Y0020000D01*
X0189520Y0020000D02*
X0189520Y0014000D01*
X0179520Y0014000D02*
X0179520Y0020000D01*
X0162520Y0020000D02*
X0162520Y0014000D01*
X0152520Y0014000D02*
X0152520Y0020000D01*
X0142520Y0020000D02*
X0142520Y0014000D01*
X0132520Y0014000D02*
X0132520Y0020000D01*
X0122520Y0020000D02*
X0122520Y0014000D01*
X0112520Y0014000D02*
X0112520Y0020000D01*
X0102520Y0020000D02*
X0102520Y0014000D01*
X0092520Y0014000D02*
X0092520Y0020000D01*
X0083520Y0136000D02*
X0077520Y0136000D01*
X0077520Y0146000D02*
X0083520Y0146000D01*
X0083520Y0156000D02*
X0077520Y0156000D01*
D12*
X0098520Y0161000D03*
X0086520Y0180000D03*
X0066520Y0180000D03*
X0098520Y0131000D03*
X0095520Y0110000D03*
X0084520Y0110000D03*
X0064520Y0110000D03*
X0106520Y0093000D03*
X0106520Y0078000D03*
X0106520Y0064000D03*
X0106520Y0050000D03*
X0106520Y0033000D03*
X0146520Y0050000D03*
X0146520Y0064000D03*
X0146520Y0078000D03*
X0146520Y0093000D03*
X0146520Y0110000D03*
X0157520Y0110000D03*
X0177520Y0110000D03*
X0126520Y0110000D03*
X0115520Y0110000D03*
X0185520Y0064000D03*
X0205520Y0064000D03*
X0156520Y0033000D03*
X0182520Y0169000D03*
X0197520Y0203000D03*
X0182520Y0209000D03*
X0217520Y0203000D03*
X0228520Y0203000D03*
X0248520Y0203000D03*
D13*
X0169520Y0205000D03*
X0169520Y0190000D03*
X0169520Y0175000D03*
X0129520Y0175000D03*
X0129520Y0190000D03*
X0129520Y0205000D03*
D14*
X0054520Y0156000D03*
X0054520Y0136000D03*
X0044520Y0100000D03*
X0034520Y0100000D03*
X0034520Y0090000D03*
X0044520Y0090000D03*
X0044520Y0080000D03*
X0034520Y0080000D03*
X0034520Y0070000D03*
X0044520Y0070000D03*
X0044520Y0060000D03*
X0034520Y0060000D03*
X0030520Y0026000D03*
X0040520Y0026000D03*
X0050520Y0026000D03*
X0050520Y0016000D03*
X0040520Y0016000D03*
X0030520Y0016000D03*
D15*
X0039220Y0172102D02*
X0047820Y0172102D01*
X0055331Y0186700D02*
X0055331Y0195300D01*
X0031709Y0195300D02*
X0031709Y0186700D01*
D16*
X0188520Y0111600D02*
X0188520Y0106400D01*
X0198520Y0106400D02*
X0198520Y0111600D01*
X0208520Y0111600D02*
X0208520Y0106400D01*
X0218520Y0106400D02*
X0218520Y0111600D01*
X0228520Y0111600D02*
X0228520Y0106400D01*
X0238520Y0106400D02*
X0238520Y0111600D01*
X0248520Y0111600D02*
X0248520Y0106400D01*
X0248520Y0081600D02*
X0248520Y0076400D01*
X0238520Y0076400D02*
X0238520Y0081600D01*
X0228520Y0081600D02*
X0228520Y0076400D01*
X0218520Y0076400D02*
X0218520Y0081600D01*
X0208520Y0081600D02*
X0208520Y0076400D01*
X0198520Y0076400D02*
X0198520Y0081600D01*
X0188520Y0081600D02*
X0188520Y0076400D01*
D17*
X0218520Y0064000D03*
X0228520Y0064000D03*
X0238520Y0064000D03*
X0248520Y0064000D03*
X0248520Y0034000D03*
X0238520Y0034000D03*
X0228520Y0034000D03*
X0218520Y0034000D03*
D18*
X0218520Y0124200D02*
X0218520Y0129800D01*
X0228520Y0129800D02*
X0228520Y0124200D01*
X0238520Y0124200D02*
X0238520Y0129800D01*
X0248520Y0129800D02*
X0248520Y0124200D01*
X0248520Y0154200D02*
X0248520Y0159800D01*
X0238520Y0159800D02*
X0238520Y0154200D01*
X0228520Y0154200D02*
X0228520Y0159800D01*
X0218520Y0159800D02*
X0218520Y0154200D01*
X0208520Y0154200D02*
X0208520Y0159800D01*
X0198520Y0159800D02*
X0198520Y0154200D01*
X0188520Y0154200D02*
X0188520Y0159800D01*
X0178520Y0159800D02*
X0178520Y0154200D01*
X0168520Y0154200D02*
X0168520Y0159800D01*
X0158520Y0159800D02*
X0158520Y0154200D01*
X0148520Y0154200D02*
X0148520Y0159800D01*
X0138520Y0159800D02*
X0138520Y0154200D01*
X0128520Y0154200D02*
X0128520Y0159800D01*
X0118520Y0159800D02*
X0118520Y0154200D01*
X0118520Y0129800D02*
X0118520Y0124200D01*
X0128520Y0124200D02*
X0128520Y0129800D01*
X0138520Y0129800D02*
X0138520Y0124200D01*
X0148520Y0124200D02*
X0148520Y0129800D01*
X0158520Y0129800D02*
X0158520Y0124200D01*
X0168520Y0124200D02*
X0168520Y0129800D01*
X0178520Y0129800D02*
X0178520Y0124200D01*
X0188520Y0124200D02*
X0188520Y0129800D01*
X0198520Y0129800D02*
X0198520Y0124200D01*
X0208520Y0124200D02*
X0208520Y0129800D01*
X0076520Y0019800D02*
X0076520Y0014200D01*
X0066520Y0014200D02*
X0066520Y0019800D01*
D19*
X0092724Y0202000D03*
X0118315Y0202000D03*
D20*
X0211520Y0182200D02*
X0211520Y0177800D01*
X0231520Y0177800D02*
X0231520Y0182200D01*
D21*
X0090520Y0085000D03*
X0080520Y0075000D03*
X0070520Y0085000D03*
D22*
X0024701Y0130563D02*
X0020339Y0130563D01*
X0020339Y0163437D02*
X0024701Y0163437D01*
D23*
X0031953Y0155760D02*
X0036709Y0155760D01*
X0036709Y0138240D02*
X0031953Y0138240D01*
M02*
