G75*
%MOIN*%
%OFA0B0*%
%FSLAX25Y25*%
%IPPOS*%
%LPD*%
%AMOC8*
5,1,8,0,0,1.08239X$1,22.5*
%
%ADD10C,0.00000*%
%ADD11C,0.06000*%
%ADD12OC8,0.05200*%
%ADD13C,0.06600*%
%ADD14C,0.07400*%
%ADD15C,0.08600*%
%ADD16C,0.05200*%
%ADD17OC8,0.06800*%
%ADD18C,0.05600*%
%ADD19C,0.10000*%
%ADD20C,0.04400*%
%ADD21OC8,0.06600*%
%ADD22C,0.04362*%
%ADD23C,0.04756*%
%ADD24C,0.01600*%
%ADD25C,0.03200*%
%ADD26C,0.01000*%
%ADD27C,0.02400*%
%ADD28C,0.02400*%
D10*
X0014520Y0012000D02*
X0014520Y0207961D01*
X0014523Y0208203D01*
X0014532Y0208444D01*
X0014546Y0208685D01*
X0014567Y0208926D01*
X0014593Y0209166D01*
X0014625Y0209406D01*
X0014663Y0209645D01*
X0014706Y0209882D01*
X0014756Y0210119D01*
X0014811Y0210354D01*
X0014871Y0210588D01*
X0014938Y0210820D01*
X0015009Y0211051D01*
X0015087Y0211280D01*
X0015170Y0211507D01*
X0015258Y0211732D01*
X0015352Y0211955D01*
X0015451Y0212175D01*
X0015556Y0212393D01*
X0015665Y0212608D01*
X0015780Y0212821D01*
X0015900Y0213031D01*
X0016025Y0213237D01*
X0016155Y0213441D01*
X0016290Y0213642D01*
X0016430Y0213839D01*
X0016574Y0214033D01*
X0016723Y0214223D01*
X0016877Y0214409D01*
X0017035Y0214592D01*
X0017197Y0214771D01*
X0017364Y0214946D01*
X0017535Y0215117D01*
X0017710Y0215284D01*
X0017889Y0215446D01*
X0018072Y0215604D01*
X0018258Y0215758D01*
X0018448Y0215907D01*
X0018642Y0216051D01*
X0018839Y0216191D01*
X0019040Y0216326D01*
X0019244Y0216456D01*
X0019450Y0216581D01*
X0019660Y0216701D01*
X0019873Y0216816D01*
X0020088Y0216925D01*
X0020306Y0217030D01*
X0020526Y0217129D01*
X0020749Y0217223D01*
X0020974Y0217311D01*
X0021201Y0217394D01*
X0021430Y0217472D01*
X0021661Y0217543D01*
X0021893Y0217610D01*
X0022127Y0217670D01*
X0022362Y0217725D01*
X0022599Y0217775D01*
X0022836Y0217818D01*
X0023075Y0217856D01*
X0023315Y0217888D01*
X0023555Y0217914D01*
X0023796Y0217935D01*
X0024037Y0217949D01*
X0024278Y0217958D01*
X0024520Y0217961D01*
X0269205Y0217961D01*
X0284220Y0205945D02*
X0284220Y0013000D01*
X0284216Y0012710D01*
X0284206Y0012420D01*
X0284188Y0012131D01*
X0284164Y0011842D01*
X0284133Y0011554D01*
X0284094Y0011266D01*
X0284049Y0010980D01*
X0283996Y0010694D01*
X0283937Y0010411D01*
X0283871Y0010128D01*
X0283799Y0009848D01*
X0283719Y0009569D01*
X0283633Y0009292D01*
X0283540Y0009017D01*
X0283440Y0008745D01*
X0283334Y0008475D01*
X0283222Y0008208D01*
X0283102Y0007943D01*
X0282977Y0007682D01*
X0282845Y0007423D01*
X0282708Y0007168D01*
X0282564Y0006916D01*
X0282414Y0006668D01*
X0282258Y0006424D01*
X0282096Y0006183D01*
X0281928Y0005947D01*
X0281755Y0005714D01*
X0281576Y0005486D01*
X0281392Y0005262D01*
X0281202Y0005043D01*
X0281007Y0004828D01*
X0280807Y0004618D01*
X0280602Y0004413D01*
X0280392Y0004213D01*
X0280177Y0004018D01*
X0279958Y0003828D01*
X0279734Y0003644D01*
X0279506Y0003465D01*
X0279273Y0003292D01*
X0279037Y0003124D01*
X0278796Y0002962D01*
X0278552Y0002806D01*
X0278304Y0002656D01*
X0278052Y0002512D01*
X0277797Y0002375D01*
X0277538Y0002243D01*
X0277277Y0002118D01*
X0277012Y0001998D01*
X0276745Y0001886D01*
X0276475Y0001780D01*
X0276203Y0001680D01*
X0275928Y0001587D01*
X0275651Y0001501D01*
X0275372Y0001421D01*
X0275092Y0001349D01*
X0274809Y0001283D01*
X0274526Y0001224D01*
X0274240Y0001171D01*
X0273954Y0001126D01*
X0273666Y0001087D01*
X0273378Y0001056D01*
X0273089Y0001032D01*
X0272800Y0001014D01*
X0272510Y0001004D01*
X0272220Y0001000D01*
X0025520Y0001000D01*
X0025250Y0001003D01*
X0024980Y0001013D01*
X0024711Y0001030D01*
X0024442Y0001053D01*
X0024173Y0001083D01*
X0023906Y0001119D01*
X0023639Y0001162D01*
X0023374Y0001211D01*
X0023110Y0001267D01*
X0022847Y0001330D01*
X0022586Y0001398D01*
X0022327Y0001474D01*
X0022070Y0001555D01*
X0021814Y0001643D01*
X0021561Y0001737D01*
X0021310Y0001837D01*
X0021062Y0001944D01*
X0020817Y0002056D01*
X0020574Y0002175D01*
X0020335Y0002299D01*
X0020098Y0002429D01*
X0019865Y0002565D01*
X0019635Y0002707D01*
X0019409Y0002854D01*
X0019186Y0003007D01*
X0018967Y0003165D01*
X0018752Y0003328D01*
X0018542Y0003497D01*
X0018335Y0003671D01*
X0018133Y0003850D01*
X0017935Y0004033D01*
X0017742Y0004222D01*
X0017553Y0004415D01*
X0017370Y0004613D01*
X0017191Y0004815D01*
X0017017Y0005022D01*
X0016848Y0005232D01*
X0016685Y0005447D01*
X0016527Y0005666D01*
X0016374Y0005889D01*
X0016227Y0006115D01*
X0016085Y0006345D01*
X0015949Y0006578D01*
X0015819Y0006815D01*
X0015695Y0007054D01*
X0015576Y0007297D01*
X0015464Y0007542D01*
X0015357Y0007790D01*
X0015257Y0008041D01*
X0015163Y0008294D01*
X0015075Y0008550D01*
X0014994Y0008807D01*
X0014918Y0009066D01*
X0014850Y0009327D01*
X0014787Y0009590D01*
X0014731Y0009854D01*
X0014682Y0010119D01*
X0014639Y0010386D01*
X0014603Y0010653D01*
X0014573Y0010922D01*
X0014550Y0011191D01*
X0014533Y0011460D01*
X0014523Y0011730D01*
X0014520Y0012000D01*
X0269205Y0217961D02*
X0269532Y0217993D01*
X0269860Y0218018D01*
X0270188Y0218034D01*
X0270516Y0218043D01*
X0270845Y0218043D01*
X0271174Y0218036D01*
X0271502Y0218021D01*
X0271830Y0217997D01*
X0272157Y0217966D01*
X0272483Y0217927D01*
X0272808Y0217880D01*
X0273132Y0217826D01*
X0273455Y0217763D01*
X0273776Y0217693D01*
X0274095Y0217615D01*
X0274413Y0217529D01*
X0274728Y0217435D01*
X0275040Y0217334D01*
X0275350Y0217226D01*
X0275658Y0217110D01*
X0275963Y0216987D01*
X0276264Y0216856D01*
X0276562Y0216718D01*
X0276857Y0216573D01*
X0277148Y0216421D01*
X0277436Y0216261D01*
X0277720Y0216095D01*
X0277999Y0215922D01*
X0278274Y0215743D01*
X0278545Y0215557D01*
X0278811Y0215364D01*
X0279073Y0215165D01*
X0279329Y0214960D01*
X0279581Y0214748D01*
X0279827Y0214531D01*
X0280068Y0214307D01*
X0280304Y0214078D01*
X0280534Y0213843D01*
X0280758Y0213603D01*
X0280976Y0213357D01*
X0281189Y0213107D01*
X0281395Y0212851D01*
X0281595Y0212590D01*
X0281789Y0212325D01*
X0281976Y0212054D01*
X0282156Y0211780D01*
X0282330Y0211501D01*
X0282497Y0211218D01*
X0282658Y0210931D01*
X0282811Y0210640D01*
X0282957Y0210346D01*
X0283096Y0210048D01*
X0283228Y0209747D01*
X0283352Y0209443D01*
X0283469Y0209136D01*
X0283579Y0208826D01*
X0283681Y0208514D01*
X0283776Y0208199D01*
X0283862Y0207882D01*
X0283942Y0207563D01*
X0284013Y0207243D01*
X0284077Y0206920D01*
X0284133Y0206596D01*
X0284181Y0206271D01*
X0284221Y0205945D01*
D11*
X0268520Y0205000D02*
X0262520Y0205000D01*
X0262520Y0195000D02*
X0268520Y0195000D01*
X0268520Y0185000D02*
X0262520Y0185000D01*
X0262520Y0175000D02*
X0268520Y0175000D01*
X0268520Y0165000D02*
X0262520Y0165000D01*
X0262520Y0103000D02*
X0268520Y0103000D01*
X0268520Y0093000D02*
X0262520Y0093000D01*
X0262520Y0083000D02*
X0268520Y0083000D01*
X0268520Y0073000D02*
X0262520Y0073000D01*
X0262520Y0063000D02*
X0268520Y0063000D01*
X0268520Y0053000D02*
X0262520Y0053000D01*
X0262520Y0043000D02*
X0268520Y0043000D01*
X0268520Y0033000D02*
X0262520Y0033000D01*
X0254520Y0020000D02*
X0254520Y0014000D01*
X0244520Y0014000D02*
X0244520Y0020000D01*
X0234520Y0020000D02*
X0234520Y0014000D01*
X0224520Y0014000D02*
X0224520Y0020000D01*
X0214520Y0020000D02*
X0214520Y0014000D01*
X0204520Y0014000D02*
X0204520Y0020000D01*
X0194520Y0020000D02*
X0194520Y0014000D01*
X0184520Y0014000D02*
X0184520Y0020000D01*
X0167520Y0020000D02*
X0167520Y0014000D01*
X0157520Y0014000D02*
X0157520Y0020000D01*
X0147520Y0020000D02*
X0147520Y0014000D01*
X0137520Y0014000D02*
X0137520Y0020000D01*
X0127520Y0020000D02*
X0127520Y0014000D01*
X0117520Y0014000D02*
X0117520Y0020000D01*
X0107520Y0020000D02*
X0107520Y0014000D01*
X0097520Y0014000D02*
X0097520Y0020000D01*
X0083520Y0136000D02*
X0077520Y0136000D01*
X0077520Y0146000D02*
X0083520Y0146000D01*
X0083520Y0156000D02*
X0077520Y0156000D01*
D12*
X0098520Y0161000D03*
X0086520Y0180000D03*
X0066520Y0180000D03*
X0098520Y0131000D03*
X0095520Y0110000D03*
X0084520Y0110000D03*
X0064520Y0110000D03*
X0106520Y0093000D03*
X0106520Y0078000D03*
X0106520Y0064000D03*
X0106520Y0050000D03*
X0106520Y0033000D03*
X0146520Y0050000D03*
X0146520Y0064000D03*
X0146520Y0078000D03*
X0146520Y0093000D03*
X0146520Y0110000D03*
X0157520Y0110000D03*
X0177520Y0110000D03*
X0126520Y0110000D03*
X0115520Y0110000D03*
X0185520Y0064000D03*
X0205520Y0064000D03*
X0156520Y0033000D03*
X0199520Y0172000D03*
X0198520Y0206000D03*
X0218520Y0206000D03*
X0228520Y0206000D03*
X0248520Y0206000D03*
X0249520Y0172000D03*
D13*
X0174520Y0172000D03*
X0174520Y0189000D03*
X0174520Y0206000D03*
X0134520Y0206000D03*
X0134520Y0189000D03*
X0134520Y0172000D03*
D14*
X0054520Y0156000D03*
X0054520Y0136000D03*
X0044520Y0100000D03*
X0034520Y0100000D03*
X0034520Y0090000D03*
X0044520Y0090000D03*
X0044520Y0080000D03*
X0034520Y0080000D03*
X0034520Y0070000D03*
X0044520Y0070000D03*
X0044520Y0060000D03*
X0034520Y0060000D03*
X0030520Y0026000D03*
X0040520Y0026000D03*
X0050520Y0026000D03*
X0050520Y0016000D03*
X0040520Y0016000D03*
X0030520Y0016000D03*
D15*
X0039220Y0172102D02*
X0047820Y0172102D01*
X0055331Y0186700D02*
X0055331Y0195300D01*
X0031709Y0195300D02*
X0031709Y0186700D01*
D16*
X0188520Y0111600D02*
X0188520Y0106400D01*
X0198520Y0106400D02*
X0198520Y0111600D01*
X0208520Y0111600D02*
X0208520Y0106400D01*
X0218520Y0106400D02*
X0218520Y0111600D01*
X0228520Y0111600D02*
X0228520Y0106400D01*
X0238520Y0106400D02*
X0238520Y0111600D01*
X0248520Y0111600D02*
X0248520Y0106400D01*
X0248520Y0081600D02*
X0248520Y0076400D01*
X0238520Y0076400D02*
X0238520Y0081600D01*
X0228520Y0081600D02*
X0228520Y0076400D01*
X0218520Y0076400D02*
X0218520Y0081600D01*
X0208520Y0081600D02*
X0208520Y0076400D01*
X0198520Y0076400D02*
X0198520Y0081600D01*
X0188520Y0081600D02*
X0188520Y0076400D01*
D17*
X0218520Y0064000D03*
X0228520Y0064000D03*
X0238520Y0064000D03*
X0248520Y0064000D03*
X0248520Y0034000D03*
X0238520Y0034000D03*
X0228520Y0034000D03*
X0218520Y0034000D03*
D18*
X0218520Y0124200D02*
X0218520Y0129800D01*
X0228520Y0129800D02*
X0228520Y0124200D01*
X0238520Y0124200D02*
X0238520Y0129800D01*
X0248520Y0129800D02*
X0248520Y0124200D01*
X0248520Y0154200D02*
X0248520Y0159800D01*
X0238520Y0159800D02*
X0238520Y0154200D01*
X0228520Y0154200D02*
X0228520Y0159800D01*
X0218520Y0159800D02*
X0218520Y0154200D01*
X0208520Y0154200D02*
X0208520Y0159800D01*
X0198520Y0159800D02*
X0198520Y0154200D01*
X0188520Y0154200D02*
X0188520Y0159800D01*
X0178520Y0159800D02*
X0178520Y0154200D01*
X0168520Y0154200D02*
X0168520Y0159800D01*
X0158520Y0159800D02*
X0158520Y0154200D01*
X0148520Y0154200D02*
X0148520Y0159800D01*
X0138520Y0159800D02*
X0138520Y0154200D01*
X0128520Y0154200D02*
X0128520Y0159800D01*
X0118520Y0159800D02*
X0118520Y0154200D01*
X0118520Y0129800D02*
X0118520Y0124200D01*
X0128520Y0124200D02*
X0128520Y0129800D01*
X0138520Y0129800D02*
X0138520Y0124200D01*
X0148520Y0124200D02*
X0148520Y0129800D01*
X0158520Y0129800D02*
X0158520Y0124200D01*
X0168520Y0124200D02*
X0168520Y0129800D01*
X0178520Y0129800D02*
X0178520Y0124200D01*
X0188520Y0124200D02*
X0188520Y0129800D01*
X0198520Y0129800D02*
X0198520Y0124200D01*
X0208520Y0124200D02*
X0208520Y0129800D01*
X0079520Y0019800D02*
X0079520Y0014200D01*
X0069520Y0014200D02*
X0069520Y0019800D01*
D19*
X0092724Y0202000D03*
X0118315Y0202000D03*
D20*
X0214520Y0192200D02*
X0214520Y0187800D01*
X0234520Y0187800D02*
X0234520Y0192200D01*
D21*
X0090520Y0085000D03*
X0080520Y0075000D03*
X0070520Y0085000D03*
D22*
X0024701Y0130563D02*
X0020339Y0130563D01*
X0020339Y0163437D02*
X0024701Y0163437D01*
D23*
X0031953Y0155760D02*
X0036709Y0155760D01*
X0036709Y0138240D02*
X0031953Y0138240D01*
D24*
X0041520Y0145000D02*
X0055770Y0145000D01*
X0064770Y0154000D01*
X0064770Y0178125D01*
X0066020Y0179375D01*
X0066520Y0180000D01*
X0070920Y0180000D01*
X0070920Y0181823D01*
X0068342Y0184400D01*
X0066520Y0184400D01*
X0066520Y0180000D01*
X0066520Y0180000D01*
X0070920Y0180000D01*
X0070920Y0178177D01*
X0068342Y0175600D01*
X0066520Y0175600D01*
X0066520Y0180000D01*
X0066520Y0180000D01*
X0066520Y0180000D01*
X0066645Y0180000D01*
X0088520Y0201875D01*
X0092270Y0201875D01*
X0092724Y0202000D01*
X0092245Y0202480D02*
X0092245Y0201520D01*
X0093204Y0201520D01*
X0093204Y0195204D01*
X0094054Y0195316D01*
X0094915Y0195547D01*
X0095738Y0195888D01*
X0096510Y0196334D01*
X0097218Y0196877D01*
X0097848Y0197507D01*
X0098391Y0198214D01*
X0098836Y0198986D01*
X0099177Y0199810D01*
X0099408Y0200671D01*
X0099520Y0201520D01*
X0093204Y0201520D01*
X0093204Y0202480D01*
X0092245Y0202480D01*
X0092245Y0208796D01*
X0091395Y0208684D01*
X0090534Y0208453D01*
X0089710Y0208112D01*
X0088938Y0207666D01*
X0088231Y0207123D01*
X0087601Y0206493D01*
X0087058Y0205786D01*
X0086613Y0205014D01*
X0086271Y0204190D01*
X0086041Y0203329D01*
X0085929Y0202480D01*
X0092245Y0202480D01*
X0092245Y0203011D02*
X0093204Y0203011D01*
X0093204Y0202480D02*
X0093204Y0208796D01*
X0094054Y0208684D01*
X0094915Y0208453D01*
X0095738Y0208112D01*
X0096510Y0207666D01*
X0097218Y0207123D01*
X0097848Y0206493D01*
X0098391Y0205786D01*
X0098836Y0205014D01*
X0099177Y0204190D01*
X0099408Y0203329D01*
X0099520Y0202480D01*
X0093204Y0202480D01*
X0093204Y0201412D02*
X0092245Y0201412D01*
X0092245Y0201520D02*
X0092245Y0195204D01*
X0091395Y0195316D01*
X0090534Y0195547D01*
X0089710Y0195888D01*
X0088938Y0196334D01*
X0088231Y0196877D01*
X0087601Y0197507D01*
X0087058Y0198214D01*
X0086613Y0198986D01*
X0086271Y0199810D01*
X0086041Y0200671D01*
X0085929Y0201520D01*
X0092245Y0201520D01*
X0092245Y0199814D02*
X0093204Y0199814D01*
X0093204Y0198215D02*
X0092245Y0198215D01*
X0092245Y0196617D02*
X0093204Y0196617D01*
X0096879Y0196617D02*
X0100920Y0196617D01*
X0100920Y0198215D02*
X0098391Y0198215D01*
X0099179Y0199814D02*
X0100920Y0199814D01*
X0100920Y0201412D02*
X0099506Y0201412D01*
X0099450Y0203011D02*
X0100920Y0203011D01*
X0100920Y0204609D02*
X0099004Y0204609D01*
X0098067Y0206208D02*
X0100920Y0206208D01*
X0100920Y0207806D02*
X0096267Y0207806D01*
X0093204Y0207806D02*
X0092245Y0207806D01*
X0092245Y0206208D02*
X0093204Y0206208D01*
X0093204Y0204609D02*
X0092245Y0204609D01*
X0089182Y0207806D02*
X0017520Y0207806D01*
X0017520Y0208000D02*
X0017611Y0209042D01*
X0017882Y0210052D01*
X0018324Y0211000D01*
X0018923Y0211857D01*
X0019663Y0212596D01*
X0020520Y0213196D01*
X0021468Y0213638D01*
X0022478Y0213909D01*
X0023520Y0214000D01*
X0272520Y0214000D01*
X0273562Y0213909D01*
X0274572Y0213638D01*
X0275520Y0213196D01*
X0276376Y0212596D01*
X0277116Y0211857D01*
X0277716Y0211000D01*
X0278158Y0210052D01*
X0278429Y0209042D01*
X0278520Y0208000D01*
X0278520Y0182300D01*
X0272491Y0182300D01*
X0272625Y0182484D01*
X0272968Y0183157D01*
X0273201Y0183876D01*
X0273320Y0184622D01*
X0273320Y0184800D01*
X0265720Y0184800D01*
X0265720Y0185200D01*
X0273320Y0185200D01*
X0273320Y0185378D01*
X0273201Y0186124D01*
X0272968Y0186843D01*
X0272625Y0187516D01*
X0272181Y0188127D01*
X0271647Y0188661D01*
X0271035Y0189105D01*
X0270362Y0189448D01*
X0269644Y0189682D01*
X0268897Y0189800D01*
X0265720Y0189800D01*
X0265720Y0185200D01*
X0265320Y0185200D01*
X0265320Y0189800D01*
X0262142Y0189800D01*
X0261396Y0189682D01*
X0260677Y0189448D01*
X0260004Y0189105D01*
X0259393Y0188661D01*
X0258858Y0188127D01*
X0258414Y0187516D01*
X0258071Y0186843D01*
X0257838Y0186124D01*
X0257720Y0185378D01*
X0257720Y0185200D01*
X0265320Y0185200D01*
X0265320Y0184800D01*
X0257720Y0184800D01*
X0257720Y0184622D01*
X0257838Y0183876D01*
X0258071Y0183157D01*
X0258414Y0182484D01*
X0258858Y0181873D01*
X0259249Y0181482D01*
X0258720Y0180953D01*
X0253095Y0175328D01*
X0253095Y0174648D01*
X0251342Y0176400D01*
X0248497Y0176400D01*
X0238336Y0186561D01*
X0238520Y0187004D01*
X0238520Y0192996D01*
X0237911Y0194466D01*
X0236785Y0195591D01*
X0235315Y0196200D01*
X0233724Y0196200D01*
X0232254Y0195591D01*
X0232030Y0195367D01*
X0230820Y0196578D01*
X0230820Y0202077D01*
X0232920Y0204177D01*
X0232920Y0207823D01*
X0230342Y0210400D01*
X0226697Y0210400D01*
X0224120Y0207823D01*
X0224120Y0204177D01*
X0226220Y0202077D01*
X0226220Y0194672D01*
X0227567Y0193325D01*
X0230520Y0190372D01*
X0230520Y0190253D01*
X0211845Y0171578D01*
X0211845Y0162980D01*
X0211125Y0163700D01*
X0209435Y0164400D01*
X0207605Y0164400D01*
X0205914Y0163700D01*
X0205195Y0162980D01*
X0205195Y0174672D01*
X0214322Y0183800D01*
X0215315Y0183800D01*
X0216785Y0184409D01*
X0217911Y0185534D01*
X0218520Y0187004D01*
X0218520Y0190497D01*
X0219472Y0191450D01*
X0220820Y0192797D01*
X0220820Y0202077D01*
X0222920Y0204177D01*
X0222920Y0207823D01*
X0220342Y0210400D01*
X0216697Y0210400D01*
X0214120Y0207823D01*
X0214120Y0204177D01*
X0216220Y0202077D01*
X0216220Y0195825D01*
X0215315Y0196200D01*
X0213724Y0196200D01*
X0212254Y0195591D01*
X0211129Y0194466D01*
X0210520Y0192996D01*
X0210520Y0187004D01*
X0210667Y0186650D01*
X0201630Y0177612D01*
X0201629Y0177612D01*
X0200417Y0176400D01*
X0197697Y0176400D01*
X0195120Y0173823D01*
X0195120Y0170177D01*
X0197697Y0167600D01*
X0200595Y0167600D01*
X0200595Y0163919D01*
X0199435Y0164400D01*
X0197605Y0164400D01*
X0195914Y0163700D01*
X0194620Y0162406D01*
X0193920Y0160715D01*
X0193920Y0155952D01*
X0193120Y0155152D01*
X0193120Y0160715D01*
X0192419Y0162406D01*
X0191125Y0163700D01*
X0189435Y0164400D01*
X0187605Y0164400D01*
X0185914Y0163700D01*
X0184620Y0162406D01*
X0183920Y0160715D01*
X0183920Y0153285D01*
X0184620Y0151594D01*
X0185914Y0150300D01*
X0187579Y0149611D01*
X0185797Y0147829D01*
X0185066Y0147098D01*
X0184670Y0146142D01*
X0184670Y0138458D01*
X0184387Y0138176D01*
X0183870Y0136926D01*
X0183870Y0135574D01*
X0184387Y0134324D01*
X0185344Y0133368D01*
X0185512Y0133298D01*
X0185011Y0132797D01*
X0184585Y0132211D01*
X0184257Y0131566D01*
X0184033Y0130877D01*
X0183920Y0130162D01*
X0183920Y0127037D01*
X0188483Y0127037D01*
X0188483Y0126963D01*
X0188556Y0126963D01*
X0188556Y0119600D01*
X0188882Y0119600D01*
X0189597Y0119713D01*
X0190285Y0119937D01*
X0190931Y0120266D01*
X0191516Y0120691D01*
X0192028Y0121203D01*
X0192454Y0121789D01*
X0192783Y0122434D01*
X0193006Y0123123D01*
X0193120Y0123838D01*
X0193120Y0126963D01*
X0188556Y0126963D01*
X0188556Y0127037D01*
X0193120Y0127037D01*
X0193120Y0130162D01*
X0193006Y0130877D01*
X0192783Y0131566D01*
X0192454Y0132211D01*
X0192028Y0132797D01*
X0191516Y0133309D01*
X0190931Y0133734D01*
X0190285Y0134063D01*
X0189988Y0134160D01*
X0190152Y0134324D01*
X0190670Y0135574D01*
X0190670Y0136926D01*
X0190152Y0138176D01*
X0189870Y0138458D01*
X0189870Y0144548D01*
X0195768Y0150446D01*
X0195914Y0150300D01*
X0197605Y0149600D01*
X0199345Y0149600D01*
X0199345Y0134400D01*
X0197605Y0134400D01*
X0195914Y0133700D01*
X0194620Y0132406D01*
X0193920Y0130715D01*
X0193920Y0123285D01*
X0194620Y0121594D01*
X0195914Y0120300D01*
X0197605Y0119600D01*
X0199435Y0119600D01*
X0201125Y0120300D01*
X0201845Y0121020D01*
X0201845Y0114498D01*
X0201012Y0115330D01*
X0199395Y0116000D01*
X0197644Y0116000D01*
X0196027Y0115330D01*
X0194790Y0114092D01*
X0194120Y0112475D01*
X0194120Y0107603D01*
X0192920Y0106403D01*
X0192920Y0109000D01*
X0192920Y0111946D01*
X0192811Y0112630D01*
X0192597Y0113289D01*
X0192283Y0113906D01*
X0191876Y0114466D01*
X0191386Y0114956D01*
X0190826Y0115363D01*
X0190209Y0115678D01*
X0189550Y0115892D01*
X0188866Y0116000D01*
X0188520Y0116000D01*
X0188520Y0109000D01*
X0192920Y0109000D01*
X0188520Y0109000D01*
X0188520Y0109000D01*
X0188520Y0109000D01*
X0189145Y0108750D01*
X0189145Y0091875D01*
X0189770Y0091250D01*
X0190595Y0091115D02*
X0188620Y0091115D01*
X0188620Y0089517D02*
X0190595Y0089517D01*
X0190595Y0087918D02*
X0188620Y0087918D01*
X0188620Y0086320D02*
X0190595Y0086320D01*
X0190595Y0085503D02*
X0189395Y0086000D01*
X0188620Y0086000D01*
X0188620Y0101767D01*
X0188523Y0102000D01*
X0188866Y0102000D01*
X0189550Y0102108D01*
X0190209Y0102322D01*
X0190595Y0102519D01*
X0190595Y0085503D01*
X0186020Y0081250D02*
X0187895Y0079375D01*
X0188520Y0079000D01*
X0188520Y0066875D01*
X0186020Y0064375D01*
X0185520Y0064000D01*
X0203320Y0059977D02*
X0203697Y0059600D01*
X0205520Y0059600D01*
X0207342Y0059600D01*
X0209920Y0062177D01*
X0209920Y0064000D01*
X0209920Y0065823D01*
X0207342Y0068400D01*
X0205520Y0068400D01*
X0205520Y0064000D01*
X0209920Y0064000D01*
X0205520Y0064000D01*
X0205520Y0064000D01*
X0205520Y0064000D01*
X0205520Y0059600D01*
X0205520Y0064000D01*
X0205520Y0064000D01*
X0206020Y0063750D01*
X0206020Y0056875D01*
X0210395Y0052500D01*
X0211220Y0052751D02*
X0203320Y0052751D01*
X0203320Y0054349D02*
X0211220Y0054349D01*
X0211220Y0055948D02*
X0203320Y0055948D01*
X0203320Y0057546D02*
X0211220Y0057546D01*
X0211220Y0059145D02*
X0203320Y0059145D01*
X0203320Y0059977D02*
X0203320Y0024698D01*
X0203565Y0024800D01*
X0205474Y0024800D01*
X0207239Y0024069D01*
X0208589Y0022719D01*
X0209320Y0020955D01*
X0209320Y0013045D01*
X0208752Y0011675D01*
X0210287Y0011675D01*
X0209720Y0013045D01*
X0209720Y0020955D01*
X0210450Y0022719D01*
X0211801Y0024069D01*
X0213565Y0024800D01*
X0215474Y0024800D01*
X0217239Y0024069D01*
X0217662Y0023645D01*
X0224591Y0030574D01*
X0223520Y0031646D01*
X0220674Y0028800D01*
X0216366Y0028800D01*
X0213320Y0031846D01*
X0213320Y0036154D01*
X0213404Y0036238D01*
X0211220Y0038422D01*
X0211220Y0072877D01*
X0211012Y0072670D01*
X0209395Y0072000D01*
X0207644Y0072000D01*
X0206027Y0072670D01*
X0205195Y0073502D01*
X0205195Y0068400D01*
X0205520Y0068400D01*
X0205520Y0064000D01*
X0205520Y0063940D02*
X0205520Y0063940D01*
X0205520Y0062342D02*
X0205520Y0062342D01*
X0205520Y0060743D02*
X0205520Y0060743D01*
X0208486Y0060743D02*
X0211220Y0060743D01*
X0211220Y0062342D02*
X0209920Y0062342D01*
X0209920Y0063940D02*
X0211220Y0063940D01*
X0211220Y0065539D02*
X0209920Y0065539D01*
X0211220Y0067137D02*
X0208605Y0067137D01*
X0211220Y0068736D02*
X0205195Y0068736D01*
X0205195Y0070334D02*
X0211220Y0070334D01*
X0211220Y0071933D02*
X0205195Y0071933D01*
X0205520Y0067137D02*
X0205520Y0067137D01*
X0205520Y0065539D02*
X0205520Y0065539D01*
X0203320Y0051152D02*
X0211220Y0051152D01*
X0211220Y0049554D02*
X0203320Y0049554D01*
X0203320Y0047955D02*
X0211220Y0047955D01*
X0211220Y0046357D02*
X0203320Y0046357D01*
X0203320Y0044758D02*
X0211220Y0044758D01*
X0211220Y0043160D02*
X0203320Y0043160D01*
X0203320Y0041561D02*
X0211220Y0041561D01*
X0211220Y0039963D02*
X0203320Y0039963D01*
X0203320Y0038364D02*
X0211278Y0038364D01*
X0212876Y0036766D02*
X0203320Y0036766D01*
X0203320Y0035167D02*
X0213320Y0035167D01*
X0213320Y0033569D02*
X0203320Y0033569D01*
X0203320Y0031970D02*
X0213320Y0031970D01*
X0214794Y0030372D02*
X0203320Y0030372D01*
X0203320Y0028773D02*
X0222790Y0028773D01*
X0222245Y0030372D02*
X0224389Y0030372D01*
X0221192Y0027175D02*
X0203320Y0027175D01*
X0203320Y0025576D02*
X0219593Y0025576D01*
X0217995Y0023978D02*
X0217330Y0023978D01*
X0211709Y0023978D02*
X0207330Y0023978D01*
X0208730Y0022379D02*
X0210310Y0022379D01*
X0209720Y0020781D02*
X0209320Y0020781D01*
X0209320Y0019182D02*
X0209720Y0019182D01*
X0209720Y0017584D02*
X0209320Y0017584D01*
X0209320Y0015985D02*
X0209720Y0015985D01*
X0209720Y0014387D02*
X0209320Y0014387D01*
X0209213Y0012788D02*
X0209826Y0012788D01*
X0226445Y0009602D02*
X0227239Y0009931D01*
X0228589Y0011281D01*
X0229320Y0013045D01*
X0229320Y0019422D01*
X0229720Y0019822D01*
X0229720Y0013045D01*
X0230450Y0011281D01*
X0231801Y0009931D01*
X0233565Y0009200D01*
X0235474Y0009200D01*
X0237239Y0009931D01*
X0238589Y0011281D01*
X0239320Y0013045D01*
X0239320Y0020955D01*
X0238589Y0022719D01*
X0238320Y0022988D01*
X0238320Y0025572D01*
X0238344Y0025582D01*
X0239188Y0026426D01*
X0239645Y0027528D01*
X0239645Y0028722D01*
X0239612Y0028800D01*
X0240674Y0028800D01*
X0243520Y0031646D01*
X0246366Y0028800D01*
X0248520Y0028800D01*
X0250674Y0028800D01*
X0253720Y0031846D01*
X0253720Y0032172D01*
X0256845Y0029047D01*
X0256845Y0024232D01*
X0255474Y0024800D01*
X0253565Y0024800D01*
X0251801Y0024069D01*
X0250450Y0022719D01*
X0249720Y0020955D01*
X0249720Y0015703D01*
X0249320Y0015303D01*
X0249320Y0020955D01*
X0248589Y0022719D01*
X0247239Y0024069D01*
X0245474Y0024800D01*
X0243565Y0024800D01*
X0241801Y0024069D01*
X0240450Y0022719D01*
X0239720Y0020955D01*
X0239720Y0013045D01*
X0240450Y0011281D01*
X0241801Y0009931D01*
X0243319Y0009302D01*
X0243192Y0009175D01*
X0226445Y0009175D01*
X0226445Y0009602D01*
X0226445Y0009591D02*
X0232621Y0009591D01*
X0230542Y0011190D02*
X0228497Y0011190D01*
X0229213Y0012788D02*
X0229826Y0012788D01*
X0229720Y0014387D02*
X0229320Y0014387D01*
X0229320Y0015985D02*
X0229720Y0015985D01*
X0229720Y0017584D02*
X0229320Y0017584D01*
X0229320Y0019182D02*
X0229720Y0019182D01*
X0238730Y0022379D02*
X0240310Y0022379D01*
X0239720Y0020781D02*
X0239320Y0020781D01*
X0239320Y0019182D02*
X0239720Y0019182D01*
X0239720Y0017584D02*
X0239320Y0017584D01*
X0239320Y0015985D02*
X0239720Y0015985D01*
X0239720Y0014387D02*
X0239320Y0014387D01*
X0239213Y0012788D02*
X0239826Y0012788D01*
X0240542Y0011190D02*
X0238497Y0011190D01*
X0236419Y0009591D02*
X0242621Y0009591D01*
X0249320Y0015985D02*
X0249720Y0015985D01*
X0249720Y0017584D02*
X0249320Y0017584D01*
X0249320Y0019182D02*
X0249720Y0019182D01*
X0249720Y0020781D02*
X0249320Y0020781D01*
X0248730Y0022379D02*
X0250310Y0022379D01*
X0251709Y0023978D02*
X0247330Y0023978D01*
X0241709Y0023978D02*
X0238320Y0023978D01*
X0238331Y0025576D02*
X0256845Y0025576D01*
X0256845Y0027175D02*
X0239498Y0027175D01*
X0239623Y0028773D02*
X0256845Y0028773D01*
X0255520Y0030372D02*
X0252245Y0030372D01*
X0253720Y0031970D02*
X0253922Y0031970D01*
X0248520Y0031970D02*
X0248520Y0031970D01*
X0248520Y0030372D02*
X0248520Y0030372D01*
X0248520Y0028800D02*
X0248520Y0034000D01*
X0248520Y0034000D01*
X0248520Y0039200D01*
X0250674Y0039200D01*
X0251220Y0038654D01*
X0251220Y0040922D01*
X0247567Y0044575D01*
X0246220Y0045922D01*
X0246220Y0058946D01*
X0245820Y0059346D01*
X0245820Y0045297D01*
X0239722Y0039200D01*
X0240674Y0039200D01*
X0243520Y0036354D01*
X0246366Y0039200D01*
X0248520Y0039200D01*
X0248520Y0034000D01*
X0248520Y0034000D01*
X0248520Y0028800D01*
X0244794Y0030372D02*
X0242245Y0030372D01*
X0248520Y0033569D02*
X0248520Y0033569D01*
X0248520Y0035167D02*
X0248520Y0035167D01*
X0248520Y0036766D02*
X0248520Y0036766D01*
X0248520Y0038364D02*
X0248520Y0038364D01*
X0245530Y0038364D02*
X0241509Y0038364D01*
X0240485Y0039963D02*
X0251220Y0039963D01*
X0250581Y0041561D02*
X0242084Y0041561D01*
X0243682Y0043160D02*
X0248982Y0043160D01*
X0247384Y0044758D02*
X0245281Y0044758D01*
X0245820Y0046357D02*
X0246220Y0046357D01*
X0246220Y0047955D02*
X0245820Y0047955D01*
X0245820Y0049554D02*
X0246220Y0049554D01*
X0246220Y0051152D02*
X0245820Y0051152D01*
X0245820Y0052751D02*
X0246220Y0052751D01*
X0246220Y0054349D02*
X0245820Y0054349D01*
X0245820Y0055948D02*
X0246220Y0055948D01*
X0246220Y0057546D02*
X0245820Y0057546D01*
X0245820Y0059145D02*
X0246021Y0059145D01*
X0243932Y0036766D02*
X0243108Y0036766D01*
X0186020Y0081250D02*
X0186020Y0101250D01*
X0177895Y0109375D01*
X0177520Y0110000D01*
X0177895Y0110000D01*
X0177895Y0126250D01*
X0178520Y0126875D01*
X0178520Y0127000D01*
X0183120Y0126282D02*
X0183920Y0126282D01*
X0183920Y0126963D02*
X0183920Y0123838D01*
X0184033Y0123123D01*
X0184257Y0122434D01*
X0184585Y0121789D01*
X0185011Y0121203D01*
X0185523Y0120691D01*
X0186109Y0120266D01*
X0186754Y0119937D01*
X0187443Y0119713D01*
X0188158Y0119600D01*
X0188483Y0119600D01*
X0188483Y0126963D01*
X0183920Y0126963D01*
X0183920Y0127881D02*
X0183120Y0127881D01*
X0183120Y0129479D02*
X0183920Y0129479D01*
X0183120Y0130715D02*
X0182419Y0132406D01*
X0181125Y0133700D01*
X0179435Y0134400D01*
X0177605Y0134400D01*
X0175914Y0133700D01*
X0175195Y0132980D01*
X0175195Y0151020D01*
X0175523Y0150691D01*
X0176109Y0150266D01*
X0176754Y0149937D01*
X0177443Y0149713D01*
X0178158Y0149600D01*
X0178483Y0149600D01*
X0178483Y0156963D01*
X0178556Y0156963D01*
X0178556Y0149600D01*
X0178882Y0149600D01*
X0179597Y0149713D01*
X0180285Y0149937D01*
X0180931Y0150266D01*
X0181516Y0150691D01*
X0182028Y0151203D01*
X0182454Y0151789D01*
X0182783Y0152434D01*
X0183006Y0153123D01*
X0183120Y0153838D01*
X0183120Y0156963D01*
X0178556Y0156963D01*
X0178556Y0157037D01*
X0178483Y0157037D01*
X0178483Y0164400D01*
X0178158Y0164400D01*
X0177443Y0164287D01*
X0176754Y0164063D01*
X0176109Y0163734D01*
X0175523Y0163309D01*
X0175195Y0162980D01*
X0175195Y0165328D01*
X0173847Y0166675D01*
X0134442Y0166675D01*
X0133095Y0165328D01*
X0131296Y0163529D01*
X0131125Y0163700D01*
X0129435Y0164400D01*
X0127605Y0164400D01*
X0125914Y0163700D01*
X0124620Y0162406D01*
X0123920Y0160715D01*
X0123920Y0154728D01*
X0123120Y0155528D01*
X0123120Y0160715D01*
X0122419Y0162406D01*
X0121125Y0163700D01*
X0119435Y0164400D01*
X0117605Y0164400D01*
X0116445Y0163919D01*
X0116445Y0195414D01*
X0116962Y0195200D01*
X0119668Y0195200D01*
X0122167Y0196235D01*
X0124080Y0198148D01*
X0125115Y0200647D01*
X0125115Y0203353D01*
X0124992Y0203650D01*
X0129973Y0203650D01*
X0130196Y0203111D01*
X0131631Y0201676D01*
X0133505Y0200900D01*
X0135534Y0200900D01*
X0137409Y0201676D01*
X0138843Y0203111D01*
X0139620Y0204986D01*
X0139620Y0207014D01*
X0138843Y0208889D01*
X0137409Y0210324D01*
X0135534Y0211100D01*
X0133505Y0211100D01*
X0131631Y0210324D01*
X0130196Y0208889D01*
X0130180Y0208850D01*
X0125222Y0208850D01*
X0123224Y0210848D01*
X0122492Y0211579D01*
X0121537Y0211975D01*
X0103002Y0211975D01*
X0102047Y0211579D01*
X0101316Y0210848D01*
X0100920Y0209892D01*
X0100920Y0164823D01*
X0100342Y0165400D01*
X0096697Y0165400D01*
X0094120Y0162823D01*
X0094120Y0159177D01*
X0096697Y0156600D01*
X0100342Y0156600D01*
X0100920Y0157177D01*
X0100920Y0137327D01*
X0098993Y0135400D01*
X0096697Y0135400D01*
X0094120Y0132823D01*
X0094120Y0129177D01*
X0096697Y0126600D01*
X0100342Y0126600D01*
X0102920Y0129177D01*
X0102920Y0131973D01*
X0104992Y0134046D01*
X0104992Y0134046D01*
X0105724Y0134777D01*
X0106120Y0135733D01*
X0106120Y0206775D01*
X0113473Y0206775D01*
X0112550Y0205852D01*
X0111515Y0203353D01*
X0111515Y0200647D01*
X0112071Y0199304D01*
X0111845Y0199078D01*
X0111845Y0196543D01*
X0111469Y0196918D01*
X0110366Y0197375D01*
X0109173Y0197375D01*
X0108070Y0196918D01*
X0107226Y0196074D01*
X0106770Y0194972D01*
X0106770Y0193778D01*
X0107226Y0192676D01*
X0108070Y0191832D01*
X0108720Y0191563D01*
X0108720Y0097023D01*
X0108342Y0097400D01*
X0104697Y0097400D01*
X0102120Y0094823D01*
X0102120Y0091853D01*
X0095620Y0085353D01*
X0095620Y0087112D01*
X0092632Y0090100D01*
X0088407Y0090100D01*
X0085420Y0087112D01*
X0085420Y0082888D01*
X0088407Y0079900D01*
X0090167Y0079900D01*
X0087470Y0077203D01*
X0087470Y0020053D01*
X0087445Y0020043D01*
X0086601Y0019199D01*
X0086145Y0018097D01*
X0086145Y0016903D01*
X0086601Y0015801D01*
X0087445Y0014957D01*
X0088548Y0014500D01*
X0089670Y0014500D01*
X0089670Y0011975D01*
X0083577Y0011975D01*
X0084120Y0013285D01*
X0084120Y0020715D01*
X0083419Y0022406D01*
X0082125Y0023700D01*
X0080435Y0024400D01*
X0078605Y0024400D01*
X0077995Y0024147D01*
X0077995Y0070313D01*
X0078407Y0069900D01*
X0082632Y0069900D01*
X0085620Y0072888D01*
X0085620Y0077112D01*
X0082632Y0080100D01*
X0082370Y0080100D01*
X0082370Y0105927D01*
X0082697Y0105600D01*
X0086342Y0105600D01*
X0088920Y0108177D01*
X0088920Y0111823D01*
X0086342Y0114400D01*
X0082697Y0114400D01*
X0082370Y0114073D01*
X0082370Y0131200D01*
X0084474Y0131200D01*
X0086239Y0131931D01*
X0087589Y0133281D01*
X0088320Y0135045D01*
X0088320Y0136955D01*
X0087589Y0138719D01*
X0086239Y0140069D01*
X0084474Y0140800D01*
X0078622Y0140800D01*
X0079022Y0141200D01*
X0084474Y0141200D01*
X0086239Y0141931D01*
X0087589Y0143281D01*
X0088320Y0145045D01*
X0088320Y0146955D01*
X0087589Y0148719D01*
X0086239Y0150069D01*
X0084474Y0150800D01*
X0076565Y0150800D01*
X0074801Y0150069D01*
X0073450Y0148719D01*
X0072720Y0146955D01*
X0072720Y0145045D01*
X0073450Y0143281D01*
X0073600Y0143132D01*
X0070066Y0139598D01*
X0069670Y0138642D01*
X0069670Y0133858D01*
X0070066Y0132902D01*
X0070797Y0132171D01*
X0073420Y0129548D01*
X0073420Y0089312D01*
X0072632Y0090100D01*
X0070520Y0090100D01*
X0070520Y0085000D01*
X0070520Y0079900D01*
X0072632Y0079900D01*
X0072795Y0080063D01*
X0072795Y0023030D01*
X0072125Y0023700D01*
X0070435Y0024400D01*
X0068605Y0024400D01*
X0067070Y0023764D01*
X0067070Y0070953D01*
X0065722Y0072300D01*
X0049755Y0088267D01*
X0050020Y0088906D01*
X0050020Y0091094D01*
X0049182Y0093115D01*
X0047635Y0094663D01*
X0046821Y0095000D01*
X0047635Y0095337D01*
X0049182Y0096884D01*
X0050020Y0098906D01*
X0050020Y0101094D01*
X0049182Y0103115D01*
X0047635Y0104663D01*
X0045614Y0105500D01*
X0043426Y0105500D01*
X0041404Y0104663D01*
X0039857Y0103115D01*
X0039520Y0102301D01*
X0039182Y0103115D01*
X0037635Y0104663D01*
X0035614Y0105500D01*
X0033426Y0105500D01*
X0031404Y0104663D01*
X0029857Y0103115D01*
X0029020Y0101094D01*
X0029020Y0098906D01*
X0029248Y0098356D01*
X0026845Y0095953D01*
X0026845Y0076675D01*
X0020692Y0076675D01*
X0019345Y0075328D01*
X0019345Y0009672D01*
X0021724Y0007293D01*
X0021468Y0007362D01*
X0020520Y0007804D01*
X0019663Y0008404D01*
X0018923Y0009143D01*
X0018324Y0010000D01*
X0017882Y0010948D01*
X0017611Y0011958D01*
X0017520Y0013000D01*
X0017520Y0122000D01*
X0017570Y0122445D01*
X0017718Y0122868D01*
X0017956Y0123247D01*
X0018273Y0123564D01*
X0018652Y0123802D01*
X0019075Y0123950D01*
X0019520Y0124000D01*
X0040520Y0124000D01*
X0041562Y0124091D01*
X0042572Y0124362D01*
X0043520Y0124804D01*
X0044376Y0125404D01*
X0045116Y0126143D01*
X0045716Y0127000D01*
X0046158Y0127948D01*
X0046429Y0128958D01*
X0046520Y0130000D01*
X0046520Y0166002D01*
X0049033Y0166002D01*
X0051275Y0166931D01*
X0052991Y0168647D01*
X0053920Y0170889D01*
X0053920Y0173316D01*
X0052991Y0175558D01*
X0051275Y0177274D01*
X0049033Y0178202D01*
X0038006Y0178202D01*
X0035764Y0177274D01*
X0034048Y0175558D01*
X0033120Y0173316D01*
X0033120Y0170889D01*
X0033488Y0170000D01*
X0017520Y0170000D01*
X0017520Y0208000D01*
X0017708Y0209405D02*
X0100920Y0209405D01*
X0101471Y0211003D02*
X0018326Y0211003D01*
X0019671Y0212602D02*
X0276368Y0212602D01*
X0277713Y0211003D02*
X0175767Y0211003D01*
X0175534Y0211100D02*
X0173505Y0211100D01*
X0171631Y0210324D01*
X0170196Y0208889D01*
X0169420Y0207014D01*
X0169420Y0204986D01*
X0169539Y0204697D01*
X0139943Y0175100D01*
X0138632Y0175100D01*
X0137409Y0176324D01*
X0135534Y0177100D01*
X0133505Y0177100D01*
X0131631Y0176324D01*
X0130196Y0174889D01*
X0129420Y0173014D01*
X0129420Y0170986D01*
X0130196Y0169111D01*
X0131631Y0167676D01*
X0133505Y0166900D01*
X0135534Y0166900D01*
X0137409Y0167676D01*
X0138843Y0169111D01*
X0139170Y0169900D01*
X0141537Y0169900D01*
X0142492Y0170296D01*
X0143224Y0171027D01*
X0173216Y0201020D01*
X0173505Y0200900D01*
X0175534Y0200900D01*
X0177409Y0201676D01*
X0178843Y0203111D01*
X0179620Y0204986D01*
X0179620Y0207014D01*
X0178843Y0208889D01*
X0177409Y0210324D01*
X0175534Y0211100D01*
X0173272Y0211003D02*
X0135767Y0211003D01*
X0133272Y0211003D02*
X0123068Y0211003D01*
X0124667Y0209405D02*
X0130712Y0209405D01*
X0134145Y0206250D02*
X0124145Y0206250D01*
X0121020Y0209375D01*
X0103520Y0209375D01*
X0103520Y0136250D01*
X0098520Y0131250D01*
X0098520Y0131000D01*
X0101623Y0127881D02*
X0108720Y0127881D01*
X0108720Y0129479D02*
X0102920Y0129479D01*
X0102920Y0131078D02*
X0108720Y0131078D01*
X0108720Y0132676D02*
X0103623Y0132676D01*
X0105222Y0134275D02*
X0108720Y0134275D01*
X0108720Y0135873D02*
X0106120Y0135873D01*
X0106120Y0137472D02*
X0108720Y0137472D01*
X0108720Y0139070D02*
X0106120Y0139070D01*
X0106120Y0140669D02*
X0108720Y0140669D01*
X0108720Y0142268D02*
X0106120Y0142268D01*
X0106120Y0143866D02*
X0108720Y0143866D01*
X0108720Y0145465D02*
X0106120Y0145465D01*
X0106120Y0147063D02*
X0108720Y0147063D01*
X0108720Y0148662D02*
X0106120Y0148662D01*
X0106120Y0150260D02*
X0108720Y0150260D01*
X0108720Y0151859D02*
X0106120Y0151859D01*
X0106120Y0153457D02*
X0108720Y0153457D01*
X0108720Y0155056D02*
X0106120Y0155056D01*
X0106120Y0156654D02*
X0108720Y0156654D01*
X0108720Y0158253D02*
X0106120Y0158253D01*
X0106120Y0159851D02*
X0108720Y0159851D01*
X0108720Y0161450D02*
X0106120Y0161450D01*
X0106120Y0163048D02*
X0108720Y0163048D01*
X0108720Y0164647D02*
X0106120Y0164647D01*
X0106120Y0166245D02*
X0108720Y0166245D01*
X0108720Y0167844D02*
X0106120Y0167844D01*
X0106120Y0169442D02*
X0108720Y0169442D01*
X0108720Y0171041D02*
X0106120Y0171041D01*
X0106120Y0172639D02*
X0108720Y0172639D01*
X0108720Y0174238D02*
X0106120Y0174238D01*
X0106120Y0175836D02*
X0108720Y0175836D01*
X0108720Y0177435D02*
X0106120Y0177435D01*
X0106120Y0179033D02*
X0108720Y0179033D01*
X0108720Y0180632D02*
X0106120Y0180632D01*
X0106120Y0182230D02*
X0108720Y0182230D01*
X0108720Y0183829D02*
X0106120Y0183829D01*
X0106120Y0185427D02*
X0108720Y0185427D01*
X0108720Y0187026D02*
X0106120Y0187026D01*
X0106120Y0188624D02*
X0108720Y0188624D01*
X0108720Y0190223D02*
X0106120Y0190223D01*
X0106120Y0191821D02*
X0108095Y0191821D01*
X0106918Y0193420D02*
X0106120Y0193420D01*
X0106120Y0195018D02*
X0106789Y0195018D01*
X0106120Y0196617D02*
X0107769Y0196617D01*
X0106120Y0198215D02*
X0111845Y0198215D01*
X0111845Y0196617D02*
X0111770Y0196617D01*
X0111860Y0199814D02*
X0106120Y0199814D01*
X0106120Y0201412D02*
X0111515Y0201412D01*
X0111515Y0203011D02*
X0106120Y0203011D01*
X0106120Y0204609D02*
X0112036Y0204609D01*
X0112906Y0206208D02*
X0106120Y0206208D01*
X0100920Y0195018D02*
X0061431Y0195018D01*
X0061431Y0196513D02*
X0060502Y0198755D01*
X0058786Y0200471D01*
X0056544Y0201400D01*
X0054117Y0201400D01*
X0051875Y0200471D01*
X0050159Y0198755D01*
X0049231Y0196513D01*
X0049231Y0185487D01*
X0050159Y0183245D01*
X0051875Y0181529D01*
X0054117Y0180600D01*
X0056544Y0180600D01*
X0058786Y0181529D01*
X0060502Y0183245D01*
X0061431Y0185487D01*
X0061431Y0196513D01*
X0061388Y0196617D02*
X0088570Y0196617D01*
X0087057Y0198215D02*
X0060726Y0198215D01*
X0059443Y0199814D02*
X0086270Y0199814D01*
X0085943Y0201412D02*
X0017520Y0201412D01*
X0017520Y0199814D02*
X0027596Y0199814D01*
X0027735Y0199953D02*
X0027056Y0199274D01*
X0026491Y0198497D01*
X0026056Y0197642D01*
X0025759Y0196728D01*
X0025609Y0195780D01*
X0025609Y0191000D01*
X0025609Y0186220D01*
X0025759Y0185272D01*
X0026056Y0184358D01*
X0026491Y0183503D01*
X0027056Y0182726D01*
X0027735Y0182047D01*
X0028512Y0181483D01*
X0029367Y0181047D01*
X0030280Y0180750D01*
X0031229Y0180600D01*
X0031709Y0180600D01*
X0032189Y0180600D01*
X0033137Y0180750D01*
X0034050Y0181047D01*
X0034906Y0181483D01*
X0035683Y0182047D01*
X0036361Y0182726D01*
X0036926Y0183503D01*
X0037362Y0184358D01*
X0037658Y0185272D01*
X0037809Y0186220D01*
X0037809Y0191000D01*
X0037809Y0195780D01*
X0037658Y0196728D01*
X0037362Y0197642D01*
X0036926Y0198497D01*
X0036361Y0199274D01*
X0035683Y0199953D01*
X0034906Y0200517D01*
X0034050Y0200953D01*
X0033137Y0201250D01*
X0032189Y0201400D01*
X0031709Y0201400D01*
X0031709Y0191000D01*
X0037809Y0191000D01*
X0031709Y0191000D01*
X0031709Y0191000D01*
X0031709Y0180600D01*
X0031709Y0191000D01*
X0031709Y0191000D01*
X0031709Y0191000D01*
X0031709Y0201400D01*
X0031229Y0201400D01*
X0030280Y0201250D01*
X0029367Y0200953D01*
X0028512Y0200517D01*
X0027735Y0199953D01*
X0026348Y0198215D02*
X0017520Y0198215D01*
X0017520Y0196617D02*
X0025741Y0196617D01*
X0025609Y0195018D02*
X0017520Y0195018D01*
X0017520Y0193420D02*
X0025609Y0193420D01*
X0025609Y0191821D02*
X0017520Y0191821D01*
X0017520Y0190223D02*
X0025609Y0190223D01*
X0025609Y0191000D02*
X0031709Y0191000D01*
X0031709Y0191000D01*
X0025609Y0191000D01*
X0025609Y0188624D02*
X0017520Y0188624D01*
X0017520Y0187026D02*
X0025609Y0187026D01*
X0025734Y0185427D02*
X0017520Y0185427D01*
X0017520Y0183829D02*
X0026325Y0183829D01*
X0027552Y0182230D02*
X0017520Y0182230D01*
X0017520Y0180632D02*
X0031028Y0180632D01*
X0031709Y0180632D02*
X0031709Y0180632D01*
X0032389Y0180632D02*
X0054041Y0180632D01*
X0056621Y0180632D02*
X0062120Y0180632D01*
X0062120Y0180000D02*
X0066520Y0180000D01*
X0066520Y0175600D01*
X0064697Y0175600D01*
X0062120Y0178177D01*
X0062120Y0180000D01*
X0066520Y0180000D01*
X0066520Y0184400D01*
X0064697Y0184400D01*
X0062120Y0181823D01*
X0062120Y0180000D01*
X0062120Y0179033D02*
X0017520Y0179033D01*
X0017520Y0177435D02*
X0036153Y0177435D01*
X0034327Y0175836D02*
X0017520Y0175836D01*
X0017520Y0174238D02*
X0033502Y0174238D01*
X0033120Y0172639D02*
X0017520Y0172639D01*
X0017520Y0171041D02*
X0033120Y0171041D01*
X0031709Y0182230D02*
X0031709Y0182230D01*
X0031709Y0183829D02*
X0031709Y0183829D01*
X0031709Y0185427D02*
X0031709Y0185427D01*
X0031709Y0187026D02*
X0031709Y0187026D01*
X0031709Y0188624D02*
X0031709Y0188624D01*
X0031709Y0190223D02*
X0031709Y0190223D01*
X0031709Y0191821D02*
X0031709Y0191821D01*
X0031709Y0193420D02*
X0031709Y0193420D01*
X0031709Y0195018D02*
X0031709Y0195018D01*
X0031709Y0196617D02*
X0031709Y0196617D01*
X0031709Y0198215D02*
X0031709Y0198215D01*
X0031709Y0199814D02*
X0031709Y0199814D01*
X0035821Y0199814D02*
X0051218Y0199814D01*
X0049936Y0198215D02*
X0037069Y0198215D01*
X0037676Y0196617D02*
X0049274Y0196617D01*
X0049231Y0195018D02*
X0037809Y0195018D01*
X0037809Y0193420D02*
X0049231Y0193420D01*
X0049231Y0191821D02*
X0037809Y0191821D01*
X0037809Y0190223D02*
X0049231Y0190223D01*
X0049231Y0188624D02*
X0037809Y0188624D01*
X0037809Y0187026D02*
X0049231Y0187026D01*
X0049255Y0185427D02*
X0037683Y0185427D01*
X0037092Y0183829D02*
X0049917Y0183829D01*
X0051174Y0182230D02*
X0035866Y0182230D01*
X0050886Y0177435D02*
X0062862Y0177435D01*
X0064461Y0175836D02*
X0052712Y0175836D01*
X0053538Y0174238D02*
X0078020Y0174238D01*
X0078020Y0175597D02*
X0078020Y0160800D01*
X0076565Y0160800D01*
X0074801Y0160069D01*
X0073450Y0158719D01*
X0072720Y0156955D01*
X0072720Y0155045D01*
X0073450Y0153281D01*
X0074801Y0151931D01*
X0076565Y0151200D01*
X0084474Y0151200D01*
X0086239Y0151931D01*
X0087589Y0153281D01*
X0088320Y0155045D01*
X0088320Y0156955D01*
X0087589Y0158719D01*
X0086239Y0160069D01*
X0084474Y0160800D01*
X0084020Y0160800D01*
X0084020Y0173757D01*
X0085862Y0175600D01*
X0088342Y0175600D01*
X0090920Y0178177D01*
X0090920Y0181823D01*
X0088342Y0184400D01*
X0084697Y0184400D01*
X0082120Y0181823D01*
X0082120Y0180343D01*
X0079320Y0177543D01*
X0078476Y0176699D01*
X0078020Y0175597D01*
X0078119Y0175836D02*
X0068578Y0175836D01*
X0066520Y0175836D02*
X0066520Y0175836D01*
X0066520Y0177435D02*
X0066520Y0177435D01*
X0066520Y0179033D02*
X0066520Y0179033D01*
X0066520Y0180000D02*
X0066520Y0180000D01*
X0066520Y0180632D02*
X0066520Y0180632D01*
X0066520Y0182230D02*
X0066520Y0182230D01*
X0066520Y0183829D02*
X0066520Y0183829D01*
X0068913Y0183829D02*
X0084126Y0183829D01*
X0082527Y0182230D02*
X0070512Y0182230D01*
X0070920Y0180632D02*
X0082120Y0180632D01*
X0080810Y0179033D02*
X0070920Y0179033D01*
X0070177Y0177435D02*
X0079212Y0177435D01*
X0078020Y0172639D02*
X0053920Y0172639D01*
X0053920Y0171041D02*
X0078020Y0171041D01*
X0078020Y0169442D02*
X0053320Y0169442D01*
X0052188Y0167844D02*
X0078020Y0167844D01*
X0078020Y0166245D02*
X0049619Y0166245D01*
X0046520Y0164647D02*
X0078020Y0164647D01*
X0078020Y0163048D02*
X0046520Y0163048D01*
X0046520Y0161450D02*
X0053304Y0161450D01*
X0053426Y0161500D02*
X0051404Y0160663D01*
X0049857Y0159115D01*
X0049020Y0157094D01*
X0049020Y0154906D01*
X0049857Y0152884D01*
X0051404Y0151337D01*
X0053426Y0150500D01*
X0055614Y0150500D01*
X0057635Y0151337D01*
X0059182Y0152884D01*
X0060020Y0154906D01*
X0060020Y0157094D01*
X0059182Y0159115D01*
X0057635Y0160663D01*
X0055614Y0161500D01*
X0053426Y0161500D01*
X0055735Y0161450D02*
X0078020Y0161450D01*
X0074583Y0159851D02*
X0058447Y0159851D01*
X0059540Y0158253D02*
X0073257Y0158253D01*
X0072720Y0156654D02*
X0060020Y0156654D01*
X0060020Y0155056D02*
X0072720Y0155056D01*
X0073378Y0153457D02*
X0059420Y0153457D01*
X0058156Y0151859D02*
X0074975Y0151859D01*
X0075261Y0150260D02*
X0046520Y0150260D01*
X0046520Y0148662D02*
X0073427Y0148662D01*
X0072765Y0147063D02*
X0046520Y0147063D01*
X0046520Y0145465D02*
X0072720Y0145465D01*
X0073208Y0143866D02*
X0046520Y0143866D01*
X0046520Y0142268D02*
X0072735Y0142268D01*
X0071137Y0140669D02*
X0057620Y0140669D01*
X0057635Y0140663D02*
X0055614Y0141500D01*
X0053426Y0141500D01*
X0051404Y0140663D01*
X0049857Y0139115D01*
X0049020Y0137094D01*
X0049020Y0134906D01*
X0049857Y0132884D01*
X0051404Y0131337D01*
X0053426Y0130500D01*
X0055614Y0130500D01*
X0057635Y0131337D01*
X0059182Y0132884D01*
X0060020Y0134906D01*
X0060020Y0137094D01*
X0059182Y0139115D01*
X0057635Y0140663D01*
X0059201Y0139070D02*
X0069847Y0139070D01*
X0069670Y0137472D02*
X0059863Y0137472D01*
X0060020Y0135873D02*
X0069670Y0135873D01*
X0069670Y0134275D02*
X0059758Y0134275D01*
X0058974Y0132676D02*
X0070291Y0132676D01*
X0071890Y0131078D02*
X0057009Y0131078D01*
X0052030Y0131078D02*
X0046520Y0131078D01*
X0046520Y0132676D02*
X0050065Y0132676D01*
X0049281Y0134275D02*
X0046520Y0134275D01*
X0046520Y0135873D02*
X0049020Y0135873D01*
X0049176Y0137472D02*
X0046520Y0137472D01*
X0046520Y0139070D02*
X0049838Y0139070D01*
X0051419Y0140669D02*
X0046520Y0140669D01*
X0046520Y0151859D02*
X0050883Y0151859D01*
X0049620Y0153457D02*
X0046520Y0153457D01*
X0046520Y0155056D02*
X0049020Y0155056D01*
X0049020Y0156654D02*
X0046520Y0156654D01*
X0046520Y0158253D02*
X0049500Y0158253D01*
X0050593Y0159851D02*
X0046520Y0159851D01*
X0064770Y0154000D02*
X0064770Y0110625D01*
X0064520Y0110000D01*
X0068920Y0110000D01*
X0068920Y0111823D01*
X0066342Y0114400D01*
X0064520Y0114400D01*
X0064520Y0110000D01*
X0064520Y0110000D01*
X0068920Y0110000D01*
X0068920Y0108177D01*
X0066342Y0105600D01*
X0064520Y0105600D01*
X0064520Y0110000D01*
X0064520Y0110000D01*
X0064520Y0110000D01*
X0064770Y0110000D01*
X0070395Y0104375D01*
X0070395Y0085000D01*
X0070520Y0085000D01*
X0070520Y0085000D01*
X0070520Y0085000D01*
X0070520Y0079900D01*
X0068407Y0079900D01*
X0065420Y0082888D01*
X0065420Y0085000D01*
X0070520Y0085000D01*
X0070520Y0090100D01*
X0068407Y0090100D01*
X0065420Y0087112D01*
X0065420Y0085000D01*
X0070520Y0085000D01*
X0070520Y0085000D01*
X0070520Y0084721D02*
X0070520Y0084721D01*
X0070520Y0083123D02*
X0070520Y0083123D01*
X0070520Y0081524D02*
X0070520Y0081524D01*
X0070520Y0079926D02*
X0070520Y0079926D01*
X0072658Y0079926D02*
X0072795Y0079926D01*
X0072795Y0078327D02*
X0059695Y0078327D01*
X0058097Y0079926D02*
X0068382Y0079926D01*
X0066783Y0081524D02*
X0056498Y0081524D01*
X0054900Y0083123D02*
X0065420Y0083123D01*
X0065420Y0084721D02*
X0053301Y0084721D01*
X0051703Y0086320D02*
X0065420Y0086320D01*
X0066225Y0087918D02*
X0050104Y0087918D01*
X0050020Y0089517D02*
X0067824Y0089517D01*
X0070520Y0089517D02*
X0070520Y0089517D01*
X0070520Y0087918D02*
X0070520Y0087918D01*
X0070520Y0086320D02*
X0070520Y0086320D01*
X0073216Y0089517D02*
X0073420Y0089517D01*
X0073420Y0091115D02*
X0050011Y0091115D01*
X0049349Y0092714D02*
X0073420Y0092714D01*
X0073420Y0094312D02*
X0047986Y0094312D01*
X0048209Y0095911D02*
X0073420Y0095911D01*
X0073420Y0097509D02*
X0049441Y0097509D01*
X0050020Y0099108D02*
X0073420Y0099108D01*
X0073420Y0100706D02*
X0050020Y0100706D01*
X0049518Y0102305D02*
X0073420Y0102305D01*
X0073420Y0103903D02*
X0048395Y0103903D01*
X0040645Y0103903D02*
X0038395Y0103903D01*
X0039518Y0102305D02*
X0039521Y0102305D01*
X0030645Y0103903D02*
X0017520Y0103903D01*
X0017520Y0102305D02*
X0029521Y0102305D01*
X0029020Y0100706D02*
X0017520Y0100706D01*
X0017520Y0099108D02*
X0029020Y0099108D01*
X0028401Y0097509D02*
X0017520Y0097509D01*
X0017520Y0095911D02*
X0026845Y0095911D01*
X0026845Y0094312D02*
X0017520Y0094312D01*
X0017520Y0092714D02*
X0026845Y0092714D01*
X0026845Y0091115D02*
X0017520Y0091115D01*
X0017520Y0089517D02*
X0026845Y0089517D01*
X0026845Y0087918D02*
X0017520Y0087918D01*
X0017520Y0086320D02*
X0026845Y0086320D01*
X0026845Y0084721D02*
X0017520Y0084721D01*
X0017520Y0083123D02*
X0026845Y0083123D01*
X0026845Y0081524D02*
X0017520Y0081524D01*
X0017520Y0079926D02*
X0026845Y0079926D01*
X0026845Y0078327D02*
X0017520Y0078327D01*
X0017520Y0076729D02*
X0026845Y0076729D01*
X0019345Y0075130D02*
X0017520Y0075130D01*
X0017520Y0073532D02*
X0019345Y0073532D01*
X0019345Y0071933D02*
X0017520Y0071933D01*
X0017520Y0070334D02*
X0019345Y0070334D01*
X0019345Y0068736D02*
X0017520Y0068736D01*
X0017520Y0067137D02*
X0019345Y0067137D01*
X0019345Y0065539D02*
X0017520Y0065539D01*
X0017520Y0063940D02*
X0019345Y0063940D01*
X0019345Y0062342D02*
X0017520Y0062342D01*
X0017520Y0060743D02*
X0019345Y0060743D01*
X0019345Y0059145D02*
X0017520Y0059145D01*
X0017520Y0057546D02*
X0019345Y0057546D01*
X0019345Y0055948D02*
X0017520Y0055948D01*
X0017520Y0054349D02*
X0019345Y0054349D01*
X0019345Y0052751D02*
X0017520Y0052751D01*
X0017520Y0051152D02*
X0019345Y0051152D01*
X0019345Y0049554D02*
X0017520Y0049554D01*
X0017520Y0047955D02*
X0019345Y0047955D01*
X0019345Y0046357D02*
X0017520Y0046357D01*
X0017520Y0044758D02*
X0019345Y0044758D01*
X0019345Y0043160D02*
X0017520Y0043160D01*
X0017520Y0041561D02*
X0019345Y0041561D01*
X0019345Y0039963D02*
X0017520Y0039963D01*
X0017520Y0038364D02*
X0019345Y0038364D01*
X0019345Y0036766D02*
X0017520Y0036766D01*
X0017520Y0035167D02*
X0019345Y0035167D01*
X0019345Y0033569D02*
X0017520Y0033569D01*
X0017520Y0031970D02*
X0019345Y0031970D01*
X0019345Y0030372D02*
X0017520Y0030372D01*
X0017520Y0028773D02*
X0019345Y0028773D01*
X0019345Y0027175D02*
X0017520Y0027175D01*
X0017520Y0025576D02*
X0019345Y0025576D01*
X0019345Y0023978D02*
X0017520Y0023978D01*
X0017520Y0022379D02*
X0019345Y0022379D01*
X0019345Y0020781D02*
X0017520Y0020781D01*
X0017520Y0019182D02*
X0019345Y0019182D01*
X0019345Y0017584D02*
X0017520Y0017584D01*
X0017520Y0015985D02*
X0019345Y0015985D01*
X0019345Y0014387D02*
X0017520Y0014387D01*
X0017538Y0012788D02*
X0019345Y0012788D01*
X0019345Y0011190D02*
X0017817Y0011190D01*
X0018610Y0009591D02*
X0019426Y0009591D01*
X0020250Y0007993D02*
X0021024Y0007993D01*
X0027197Y0008325D02*
X0046347Y0008325D01*
X0047695Y0009672D01*
X0048787Y0010765D01*
X0049426Y0010500D01*
X0051614Y0010500D01*
X0053635Y0011337D01*
X0055182Y0012884D01*
X0056020Y0014906D01*
X0056020Y0017094D01*
X0055182Y0019115D01*
X0053635Y0020663D01*
X0052821Y0021000D01*
X0053402Y0021296D01*
X0054103Y0021805D01*
X0054715Y0022417D01*
X0055224Y0023117D01*
X0055617Y0023889D01*
X0055884Y0024712D01*
X0056020Y0025567D01*
X0056020Y0025800D01*
X0050720Y0025800D01*
X0050720Y0026200D01*
X0056020Y0026200D01*
X0056020Y0026433D01*
X0055884Y0027288D01*
X0055617Y0028111D01*
X0055224Y0028883D01*
X0054715Y0029583D01*
X0054103Y0030195D01*
X0053402Y0030704D01*
X0052631Y0031097D01*
X0051808Y0031365D01*
X0050953Y0031500D01*
X0050720Y0031500D01*
X0050720Y0026200D01*
X0050320Y0026200D01*
X0050320Y0031500D01*
X0050087Y0031500D01*
X0049232Y0031365D01*
X0048408Y0031097D01*
X0047637Y0030704D01*
X0046937Y0030195D01*
X0046325Y0029583D01*
X0045816Y0028883D01*
X0045520Y0028301D01*
X0045182Y0029115D01*
X0043635Y0030663D01*
X0041614Y0031500D01*
X0039426Y0031500D01*
X0038699Y0031199D01*
X0031445Y0038453D01*
X0031445Y0055321D01*
X0033426Y0054500D01*
X0035614Y0054500D01*
X0037635Y0055337D01*
X0039182Y0056884D01*
X0039520Y0057699D01*
X0039816Y0057117D01*
X0040325Y0056417D01*
X0040937Y0055805D01*
X0041637Y0055296D01*
X0042408Y0054903D01*
X0043232Y0054635D01*
X0044087Y0054500D01*
X0044320Y0054500D01*
X0044320Y0059800D01*
X0044720Y0059800D01*
X0044720Y0060200D01*
X0050020Y0060200D01*
X0050020Y0060433D01*
X0049884Y0061288D01*
X0049617Y0062111D01*
X0049224Y0062883D01*
X0048715Y0063583D01*
X0048103Y0064195D01*
X0047402Y0064704D01*
X0046821Y0065000D01*
X0047402Y0065296D01*
X0048103Y0065805D01*
X0048715Y0066417D01*
X0049224Y0067117D01*
X0049617Y0067889D01*
X0049884Y0068712D01*
X0050020Y0069567D01*
X0050020Y0069800D01*
X0044720Y0069800D01*
X0044720Y0070200D01*
X0050020Y0070200D01*
X0050020Y0070433D01*
X0049884Y0071288D01*
X0049718Y0071799D01*
X0059345Y0062172D01*
X0059345Y0043818D01*
X0059101Y0043574D01*
X0058645Y0042472D01*
X0058645Y0041278D01*
X0059101Y0040176D01*
X0059945Y0039332D01*
X0061048Y0038875D01*
X0062241Y0038875D01*
X0062470Y0038970D01*
X0062470Y0011547D01*
X0067017Y0007000D01*
X0028522Y0007000D01*
X0027197Y0008325D01*
X0027530Y0007993D02*
X0066024Y0007993D01*
X0064426Y0009591D02*
X0047613Y0009591D01*
X0053278Y0011190D02*
X0062827Y0011190D01*
X0062470Y0012788D02*
X0055086Y0012788D01*
X0055805Y0014387D02*
X0062470Y0014387D01*
X0062470Y0015985D02*
X0056020Y0015985D01*
X0055817Y0017584D02*
X0062470Y0017584D01*
X0062470Y0019182D02*
X0055116Y0019182D01*
X0053350Y0020781D02*
X0062470Y0020781D01*
X0062470Y0022379D02*
X0054677Y0022379D01*
X0055646Y0023978D02*
X0062470Y0023978D01*
X0062470Y0025576D02*
X0056020Y0025576D01*
X0055902Y0027175D02*
X0062470Y0027175D01*
X0062470Y0028773D02*
X0055279Y0028773D01*
X0053860Y0030372D02*
X0062470Y0030372D01*
X0062470Y0031970D02*
X0037927Y0031970D01*
X0036329Y0033569D02*
X0062470Y0033569D01*
X0062470Y0035167D02*
X0034730Y0035167D01*
X0033132Y0036766D02*
X0062470Y0036766D01*
X0062470Y0038364D02*
X0031533Y0038364D01*
X0031445Y0039963D02*
X0059314Y0039963D01*
X0058645Y0041561D02*
X0031445Y0041561D01*
X0031445Y0043160D02*
X0058930Y0043160D01*
X0059345Y0044758D02*
X0031445Y0044758D01*
X0031445Y0046357D02*
X0059345Y0046357D01*
X0059345Y0047955D02*
X0031445Y0047955D01*
X0031445Y0049554D02*
X0059345Y0049554D01*
X0059345Y0051152D02*
X0031445Y0051152D01*
X0031445Y0052751D02*
X0059345Y0052751D01*
X0059345Y0054349D02*
X0031445Y0054349D01*
X0038246Y0055948D02*
X0040794Y0055948D01*
X0039597Y0057546D02*
X0039457Y0057546D01*
X0044320Y0057546D02*
X0044720Y0057546D01*
X0044720Y0055948D02*
X0044320Y0055948D01*
X0044720Y0054500D02*
X0044953Y0054500D01*
X0045808Y0054635D01*
X0046631Y0054903D01*
X0047402Y0055296D01*
X0048103Y0055805D01*
X0048715Y0056417D01*
X0049224Y0057117D01*
X0049617Y0057889D01*
X0049884Y0058712D01*
X0050020Y0059567D01*
X0050020Y0059800D01*
X0044720Y0059800D01*
X0044720Y0054500D01*
X0048246Y0055948D02*
X0059345Y0055948D01*
X0059345Y0057546D02*
X0049442Y0057546D01*
X0049953Y0059145D02*
X0059345Y0059145D01*
X0059345Y0060743D02*
X0049970Y0060743D01*
X0049499Y0062342D02*
X0059175Y0062342D01*
X0057577Y0063940D02*
X0048357Y0063940D01*
X0047737Y0065539D02*
X0055978Y0065539D01*
X0054380Y0067137D02*
X0049234Y0067137D01*
X0049888Y0068736D02*
X0052781Y0068736D01*
X0051182Y0070334D02*
X0050020Y0070334D01*
X0044720Y0069800D02*
X0044720Y0060200D01*
X0044320Y0060200D01*
X0044320Y0065500D01*
X0044320Y0069800D01*
X0044720Y0069800D01*
X0044720Y0068736D02*
X0044320Y0068736D01*
X0044320Y0067137D02*
X0044720Y0067137D01*
X0044720Y0065539D02*
X0044320Y0065539D01*
X0044320Y0063940D02*
X0044720Y0063940D01*
X0044720Y0062342D02*
X0044320Y0062342D01*
X0044320Y0060743D02*
X0044720Y0060743D01*
X0044770Y0060000D02*
X0044520Y0060000D01*
X0044770Y0060000D02*
X0044770Y0031875D01*
X0050395Y0026250D01*
X0050520Y0026000D01*
X0050320Y0027175D02*
X0050720Y0027175D01*
X0050720Y0028773D02*
X0050320Y0028773D01*
X0050320Y0030372D02*
X0050720Y0030372D01*
X0047180Y0030372D02*
X0043926Y0030372D01*
X0045324Y0028773D02*
X0045760Y0028773D01*
X0067070Y0028773D02*
X0072795Y0028773D01*
X0072795Y0027175D02*
X0067070Y0027175D01*
X0067070Y0025576D02*
X0072795Y0025576D01*
X0072795Y0023978D02*
X0071454Y0023978D01*
X0067585Y0023978D02*
X0067070Y0023978D01*
X0067070Y0030372D02*
X0072795Y0030372D01*
X0072795Y0031970D02*
X0067070Y0031970D01*
X0067070Y0033569D02*
X0072795Y0033569D01*
X0072795Y0035167D02*
X0067070Y0035167D01*
X0067070Y0036766D02*
X0072795Y0036766D01*
X0072795Y0038364D02*
X0067070Y0038364D01*
X0067070Y0039963D02*
X0072795Y0039963D01*
X0072795Y0041561D02*
X0067070Y0041561D01*
X0067070Y0043160D02*
X0072795Y0043160D01*
X0072795Y0044758D02*
X0067070Y0044758D01*
X0067070Y0046357D02*
X0072795Y0046357D01*
X0072795Y0047955D02*
X0067070Y0047955D01*
X0067070Y0049554D02*
X0072795Y0049554D01*
X0072795Y0051152D02*
X0067070Y0051152D01*
X0067070Y0052751D02*
X0072795Y0052751D01*
X0072795Y0054349D02*
X0067070Y0054349D01*
X0067070Y0055948D02*
X0072795Y0055948D01*
X0072795Y0057546D02*
X0067070Y0057546D01*
X0067070Y0059145D02*
X0072795Y0059145D01*
X0072795Y0060743D02*
X0067070Y0060743D01*
X0067070Y0062342D02*
X0072795Y0062342D01*
X0072795Y0063940D02*
X0067070Y0063940D01*
X0067070Y0065539D02*
X0072795Y0065539D01*
X0072795Y0067137D02*
X0067070Y0067137D01*
X0067070Y0068736D02*
X0072795Y0068736D01*
X0072795Y0070334D02*
X0067070Y0070334D01*
X0066089Y0071933D02*
X0072795Y0071933D01*
X0072795Y0073532D02*
X0064491Y0073532D01*
X0062892Y0075130D02*
X0072795Y0075130D01*
X0072795Y0076729D02*
X0061294Y0076729D01*
X0075395Y0082500D02*
X0076020Y0083125D01*
X0076020Y0130625D01*
X0072270Y0134375D01*
X0072270Y0138125D01*
X0080395Y0146250D01*
X0080520Y0146000D01*
X0085778Y0150260D02*
X0100920Y0150260D01*
X0100920Y0148662D02*
X0087613Y0148662D01*
X0088275Y0147063D02*
X0100920Y0147063D01*
X0100920Y0145465D02*
X0088320Y0145465D01*
X0087831Y0143866D02*
X0100920Y0143866D01*
X0100920Y0142268D02*
X0086575Y0142268D01*
X0084791Y0140669D02*
X0100920Y0140669D01*
X0100920Y0139070D02*
X0087237Y0139070D01*
X0088105Y0137472D02*
X0100920Y0137472D01*
X0099466Y0135873D02*
X0088320Y0135873D01*
X0088001Y0134275D02*
X0095572Y0134275D01*
X0094120Y0132676D02*
X0086984Y0132676D01*
X0082370Y0131078D02*
X0094120Y0131078D01*
X0094120Y0129479D02*
X0082370Y0129479D01*
X0082370Y0127881D02*
X0095416Y0127881D01*
X0082370Y0126282D02*
X0108720Y0126282D01*
X0108720Y0124684D02*
X0082370Y0124684D01*
X0082370Y0123085D02*
X0108720Y0123085D01*
X0108720Y0121487D02*
X0082370Y0121487D01*
X0082370Y0119888D02*
X0108720Y0119888D01*
X0108720Y0118290D02*
X0082370Y0118290D01*
X0082370Y0116691D02*
X0108720Y0116691D01*
X0108720Y0115093D02*
X0082370Y0115093D01*
X0087248Y0113494D02*
X0092791Y0113494D01*
X0093697Y0114400D02*
X0091120Y0111823D01*
X0091120Y0110000D01*
X0091120Y0108177D01*
X0093697Y0105600D01*
X0095520Y0105600D01*
X0097342Y0105600D01*
X0099920Y0108177D01*
X0099920Y0110000D01*
X0099920Y0111823D01*
X0097342Y0114400D01*
X0095520Y0114400D01*
X0095520Y0110000D01*
X0099920Y0110000D01*
X0095520Y0110000D01*
X0095520Y0110000D01*
X0095520Y0105600D01*
X0095520Y0110000D01*
X0095520Y0110000D01*
X0095520Y0110000D01*
X0095520Y0114400D01*
X0093697Y0114400D01*
X0095520Y0113494D02*
X0095520Y0113494D01*
X0095520Y0111896D02*
X0095520Y0111896D01*
X0095520Y0110297D02*
X0095520Y0110297D01*
X0095520Y0110000D02*
X0095520Y0110000D01*
X0091120Y0110000D01*
X0095520Y0110000D01*
X0095520Y0108699D02*
X0095520Y0108699D01*
X0095520Y0107100D02*
X0095520Y0107100D01*
X0098842Y0107100D02*
X0108720Y0107100D01*
X0108720Y0105502D02*
X0082370Y0105502D01*
X0082370Y0103903D02*
X0108720Y0103903D01*
X0108720Y0102305D02*
X0082370Y0102305D01*
X0082370Y0100706D02*
X0108720Y0100706D01*
X0108720Y0099108D02*
X0082370Y0099108D01*
X0082370Y0097509D02*
X0108720Y0097509D01*
X0103208Y0095911D02*
X0082370Y0095911D01*
X0082370Y0094312D02*
X0102120Y0094312D01*
X0102120Y0092714D02*
X0082370Y0092714D01*
X0082370Y0091115D02*
X0101382Y0091115D01*
X0099784Y0089517D02*
X0093216Y0089517D01*
X0094814Y0087918D02*
X0098185Y0087918D01*
X0096587Y0086320D02*
X0095620Y0086320D01*
X0087824Y0089517D02*
X0082370Y0089517D01*
X0082370Y0087918D02*
X0086225Y0087918D01*
X0085420Y0086320D02*
X0082370Y0086320D01*
X0082370Y0084721D02*
X0085420Y0084721D01*
X0085420Y0083123D02*
X0082370Y0083123D01*
X0082370Y0081524D02*
X0086783Y0081524D01*
X0088382Y0079926D02*
X0082807Y0079926D01*
X0084405Y0078327D02*
X0088594Y0078327D01*
X0087470Y0076729D02*
X0085620Y0076729D01*
X0085620Y0075130D02*
X0087470Y0075130D01*
X0087470Y0073532D02*
X0085620Y0073532D01*
X0084665Y0071933D02*
X0087470Y0071933D01*
X0087470Y0070334D02*
X0083067Y0070334D01*
X0087470Y0068736D02*
X0077995Y0068736D01*
X0077995Y0067137D02*
X0087470Y0067137D01*
X0087470Y0065539D02*
X0077995Y0065539D01*
X0077995Y0063940D02*
X0087470Y0063940D01*
X0087470Y0062342D02*
X0077995Y0062342D01*
X0077995Y0060743D02*
X0087470Y0060743D01*
X0087470Y0059145D02*
X0077995Y0059145D01*
X0077995Y0057546D02*
X0087470Y0057546D01*
X0087470Y0055948D02*
X0077995Y0055948D01*
X0077995Y0054349D02*
X0087470Y0054349D01*
X0087470Y0052751D02*
X0077995Y0052751D01*
X0077995Y0051152D02*
X0087470Y0051152D01*
X0087470Y0049554D02*
X0077995Y0049554D01*
X0077995Y0047955D02*
X0087470Y0047955D01*
X0087470Y0046357D02*
X0077995Y0046357D01*
X0077995Y0044758D02*
X0087470Y0044758D01*
X0087470Y0043160D02*
X0077995Y0043160D01*
X0077995Y0041561D02*
X0087470Y0041561D01*
X0087470Y0039963D02*
X0077995Y0039963D01*
X0077995Y0038364D02*
X0087470Y0038364D01*
X0087470Y0036766D02*
X0077995Y0036766D01*
X0077995Y0035167D02*
X0087470Y0035167D01*
X0087470Y0033569D02*
X0077995Y0033569D01*
X0077995Y0031970D02*
X0087470Y0031970D01*
X0087470Y0030372D02*
X0077995Y0030372D01*
X0077995Y0028773D02*
X0087470Y0028773D01*
X0087470Y0027175D02*
X0077995Y0027175D01*
X0077995Y0025576D02*
X0087470Y0025576D01*
X0087470Y0023978D02*
X0081454Y0023978D01*
X0083430Y0022379D02*
X0087470Y0022379D01*
X0087470Y0020781D02*
X0084092Y0020781D01*
X0084120Y0019182D02*
X0086594Y0019182D01*
X0086145Y0017584D02*
X0084120Y0017584D01*
X0084120Y0015985D02*
X0086525Y0015985D01*
X0084120Y0014387D02*
X0089670Y0014387D01*
X0089670Y0012788D02*
X0083914Y0012788D01*
X0079520Y0017000D02*
X0079145Y0017500D01*
X0075395Y0021250D01*
X0075395Y0082500D01*
X0079770Y0075625D02*
X0079770Y0135000D01*
X0080395Y0135625D01*
X0080520Y0136000D01*
X0073420Y0129479D02*
X0046474Y0129479D01*
X0046127Y0127881D02*
X0073420Y0127881D01*
X0073420Y0126282D02*
X0045213Y0126282D01*
X0043262Y0124684D02*
X0073420Y0124684D01*
X0073420Y0123085D02*
X0017854Y0123085D01*
X0017520Y0121487D02*
X0073420Y0121487D01*
X0073420Y0119888D02*
X0017520Y0119888D01*
X0017520Y0118290D02*
X0073420Y0118290D01*
X0073420Y0116691D02*
X0017520Y0116691D01*
X0017520Y0115093D02*
X0073420Y0115093D01*
X0073420Y0113494D02*
X0067248Y0113494D01*
X0068846Y0111896D02*
X0073420Y0111896D01*
X0073420Y0110297D02*
X0068920Y0110297D01*
X0068920Y0108699D02*
X0073420Y0108699D01*
X0073420Y0107100D02*
X0067842Y0107100D01*
X0064520Y0107100D02*
X0064520Y0107100D01*
X0064520Y0105600D02*
X0062697Y0105600D01*
X0060120Y0108177D01*
X0060120Y0110000D01*
X0064520Y0110000D01*
X0064520Y0105600D01*
X0061197Y0107100D02*
X0017520Y0107100D01*
X0017520Y0105502D02*
X0073420Y0105502D01*
X0064520Y0108699D02*
X0064520Y0108699D01*
X0064520Y0110000D02*
X0064520Y0110000D01*
X0064520Y0114400D01*
X0062697Y0114400D01*
X0060120Y0111823D01*
X0060120Y0110000D01*
X0064520Y0110000D01*
X0064520Y0110297D02*
X0064520Y0110297D01*
X0064520Y0111896D02*
X0064520Y0111896D01*
X0064520Y0113494D02*
X0064520Y0113494D01*
X0061791Y0113494D02*
X0017520Y0113494D01*
X0017520Y0111896D02*
X0060193Y0111896D01*
X0060120Y0110297D02*
X0017520Y0110297D01*
X0017520Y0108699D02*
X0060120Y0108699D01*
X0087842Y0107100D02*
X0092197Y0107100D01*
X0091120Y0108699D02*
X0088920Y0108699D01*
X0088920Y0110297D02*
X0091120Y0110297D01*
X0091193Y0111896D02*
X0088846Y0111896D01*
X0098248Y0113494D02*
X0108720Y0113494D01*
X0108720Y0111896D02*
X0099846Y0111896D01*
X0099920Y0110297D02*
X0108720Y0110297D01*
X0108720Y0108699D02*
X0099920Y0108699D01*
X0124570Y0105727D02*
X0124570Y0026803D01*
X0128720Y0030953D01*
X0128720Y0105977D01*
X0128342Y0105600D01*
X0126520Y0105600D01*
X0126520Y0110000D01*
X0126520Y0110000D01*
X0126520Y0105600D01*
X0124697Y0105600D01*
X0124570Y0105727D01*
X0124570Y0105502D02*
X0128720Y0105502D01*
X0128720Y0103903D02*
X0124570Y0103903D01*
X0124570Y0102305D02*
X0128720Y0102305D01*
X0128720Y0100706D02*
X0124570Y0100706D01*
X0124570Y0099108D02*
X0128720Y0099108D01*
X0128720Y0097509D02*
X0124570Y0097509D01*
X0124570Y0095911D02*
X0128720Y0095911D01*
X0128720Y0094312D02*
X0124570Y0094312D01*
X0124570Y0092714D02*
X0128720Y0092714D01*
X0128720Y0091115D02*
X0124570Y0091115D01*
X0124570Y0089517D02*
X0128720Y0089517D01*
X0128720Y0087918D02*
X0124570Y0087918D01*
X0124570Y0086320D02*
X0128720Y0086320D01*
X0128720Y0084721D02*
X0124570Y0084721D01*
X0124570Y0083123D02*
X0128720Y0083123D01*
X0128720Y0081524D02*
X0124570Y0081524D01*
X0124570Y0079926D02*
X0128720Y0079926D01*
X0128720Y0078327D02*
X0124570Y0078327D01*
X0124570Y0076729D02*
X0128720Y0076729D01*
X0128720Y0075130D02*
X0124570Y0075130D01*
X0124570Y0073532D02*
X0128720Y0073532D01*
X0128720Y0071933D02*
X0124570Y0071933D01*
X0124570Y0070334D02*
X0128720Y0070334D01*
X0128720Y0068736D02*
X0124570Y0068736D01*
X0124570Y0067137D02*
X0128720Y0067137D01*
X0128720Y0065539D02*
X0124570Y0065539D01*
X0124570Y0063940D02*
X0128720Y0063940D01*
X0128720Y0062342D02*
X0124570Y0062342D01*
X0124570Y0060743D02*
X0128720Y0060743D01*
X0128720Y0059145D02*
X0124570Y0059145D01*
X0124570Y0057546D02*
X0128720Y0057546D01*
X0128720Y0055948D02*
X0124570Y0055948D01*
X0124570Y0054349D02*
X0128720Y0054349D01*
X0128720Y0052751D02*
X0124570Y0052751D01*
X0124570Y0051152D02*
X0128720Y0051152D01*
X0128720Y0049554D02*
X0124570Y0049554D01*
X0124570Y0047955D02*
X0128720Y0047955D01*
X0128720Y0046357D02*
X0124570Y0046357D01*
X0124570Y0044758D02*
X0128720Y0044758D01*
X0128720Y0043160D02*
X0124570Y0043160D01*
X0124570Y0041561D02*
X0128720Y0041561D01*
X0128720Y0039963D02*
X0124570Y0039963D01*
X0124570Y0038364D02*
X0128720Y0038364D01*
X0128720Y0036766D02*
X0124570Y0036766D01*
X0124570Y0035167D02*
X0128720Y0035167D01*
X0128720Y0033569D02*
X0124570Y0033569D01*
X0124570Y0031970D02*
X0128720Y0031970D01*
X0128139Y0030372D02*
X0124570Y0030372D01*
X0124570Y0028773D02*
X0126540Y0028773D01*
X0124942Y0027175D02*
X0124570Y0027175D01*
X0138447Y0024800D02*
X0153320Y0039672D01*
X0153320Y0107977D01*
X0155697Y0105600D01*
X0157520Y0105600D01*
X0159342Y0105600D01*
X0159345Y0105602D01*
X0159345Y0036398D01*
X0158342Y0037400D01*
X0154697Y0037400D01*
X0152120Y0034823D01*
X0152120Y0031177D01*
X0154697Y0028600D01*
X0155742Y0028600D01*
X0150725Y0023583D01*
X0150239Y0024069D01*
X0148474Y0024800D01*
X0146565Y0024800D01*
X0144801Y0024069D01*
X0143450Y0022719D01*
X0142720Y0020955D01*
X0142720Y0013045D01*
X0143287Y0011675D01*
X0141752Y0011675D01*
X0142320Y0013045D01*
X0142320Y0020955D01*
X0141589Y0022719D01*
X0140239Y0024069D01*
X0138474Y0024800D01*
X0138447Y0024800D01*
X0139224Y0025576D02*
X0152718Y0025576D01*
X0151120Y0023978D02*
X0150330Y0023978D01*
X0154317Y0027175D02*
X0140822Y0027175D01*
X0142421Y0028773D02*
X0154524Y0028773D01*
X0152925Y0030372D02*
X0144019Y0030372D01*
X0145618Y0031970D02*
X0152120Y0031970D01*
X0152120Y0033569D02*
X0147216Y0033569D01*
X0148815Y0035167D02*
X0152464Y0035167D01*
X0154063Y0036766D02*
X0150413Y0036766D01*
X0152012Y0038364D02*
X0159345Y0038364D01*
X0159345Y0036766D02*
X0158976Y0036766D01*
X0159345Y0039963D02*
X0153320Y0039963D01*
X0153320Y0041561D02*
X0159345Y0041561D01*
X0159345Y0043160D02*
X0153320Y0043160D01*
X0153320Y0044758D02*
X0159345Y0044758D01*
X0159345Y0046357D02*
X0153320Y0046357D01*
X0153320Y0047955D02*
X0159345Y0047955D01*
X0159345Y0049554D02*
X0153320Y0049554D01*
X0153320Y0051152D02*
X0159345Y0051152D01*
X0159345Y0052751D02*
X0153320Y0052751D01*
X0153320Y0054349D02*
X0159345Y0054349D01*
X0159345Y0055948D02*
X0153320Y0055948D01*
X0153320Y0057546D02*
X0159345Y0057546D01*
X0159345Y0059145D02*
X0153320Y0059145D01*
X0153320Y0060743D02*
X0159345Y0060743D01*
X0159345Y0062342D02*
X0153320Y0062342D01*
X0153320Y0063940D02*
X0159345Y0063940D01*
X0159345Y0065539D02*
X0153320Y0065539D01*
X0153320Y0067137D02*
X0159345Y0067137D01*
X0159345Y0068736D02*
X0153320Y0068736D01*
X0153320Y0070334D02*
X0159345Y0070334D01*
X0159345Y0071933D02*
X0153320Y0071933D01*
X0153320Y0073532D02*
X0159345Y0073532D01*
X0159345Y0075130D02*
X0153320Y0075130D01*
X0153320Y0076729D02*
X0159345Y0076729D01*
X0159345Y0078327D02*
X0153320Y0078327D01*
X0153320Y0079926D02*
X0159345Y0079926D01*
X0159345Y0081524D02*
X0153320Y0081524D01*
X0153320Y0083123D02*
X0159345Y0083123D01*
X0159345Y0084721D02*
X0153320Y0084721D01*
X0153320Y0086320D02*
X0159345Y0086320D01*
X0159345Y0087918D02*
X0153320Y0087918D01*
X0153320Y0089517D02*
X0159345Y0089517D01*
X0159345Y0091115D02*
X0153320Y0091115D01*
X0153320Y0092714D02*
X0159345Y0092714D01*
X0159345Y0094312D02*
X0153320Y0094312D01*
X0153320Y0095911D02*
X0159345Y0095911D01*
X0159345Y0097509D02*
X0153320Y0097509D01*
X0153320Y0099108D02*
X0159345Y0099108D01*
X0159345Y0100706D02*
X0153320Y0100706D01*
X0153320Y0102305D02*
X0159345Y0102305D01*
X0159345Y0103903D02*
X0153320Y0103903D01*
X0153320Y0105502D02*
X0159345Y0105502D01*
X0157520Y0105600D02*
X0157520Y0110000D01*
X0157520Y0110000D01*
X0157520Y0105600D01*
X0157520Y0107100D02*
X0157520Y0107100D01*
X0157520Y0108699D02*
X0157520Y0108699D01*
X0154197Y0107100D02*
X0153320Y0107100D01*
X0126520Y0107100D02*
X0126520Y0107100D01*
X0126520Y0108699D02*
X0126520Y0108699D01*
X0106520Y0078000D02*
X0106645Y0077500D01*
X0106645Y0064375D01*
X0106520Y0064000D01*
X0106645Y0063750D01*
X0106645Y0050625D01*
X0106520Y0050000D01*
X0106645Y0050000D01*
X0106645Y0035625D01*
X0106020Y0035625D01*
X0092270Y0021875D01*
X0092270Y0009375D01*
X0077270Y0009375D01*
X0069770Y0016875D01*
X0069520Y0017000D01*
X0106520Y0033000D02*
X0106645Y0033125D01*
X0106645Y0035625D01*
X0140330Y0023978D02*
X0144709Y0023978D01*
X0143310Y0022379D02*
X0141730Y0022379D01*
X0142320Y0020781D02*
X0142720Y0020781D01*
X0142720Y0019182D02*
X0142320Y0019182D01*
X0142320Y0017584D02*
X0142720Y0017584D01*
X0142720Y0015985D02*
X0142320Y0015985D01*
X0142320Y0014387D02*
X0142720Y0014387D01*
X0142826Y0012788D02*
X0142213Y0012788D01*
X0080520Y0075000D02*
X0080395Y0075000D01*
X0079770Y0075625D01*
X0044720Y0059145D02*
X0044320Y0059145D01*
X0086064Y0151859D02*
X0100920Y0151859D01*
X0100920Y0153457D02*
X0087662Y0153457D01*
X0088320Y0155056D02*
X0100920Y0155056D01*
X0100920Y0156654D02*
X0100396Y0156654D01*
X0096643Y0156654D02*
X0088320Y0156654D01*
X0087782Y0158253D02*
X0095045Y0158253D01*
X0094120Y0159851D02*
X0086457Y0159851D01*
X0084020Y0161450D02*
X0094120Y0161450D01*
X0094345Y0163048D02*
X0084020Y0163048D01*
X0084020Y0164647D02*
X0095944Y0164647D01*
X0100920Y0166245D02*
X0084020Y0166245D01*
X0084020Y0167844D02*
X0100920Y0167844D01*
X0100920Y0169442D02*
X0084020Y0169442D01*
X0084020Y0171041D02*
X0100920Y0171041D01*
X0100920Y0172639D02*
X0084020Y0172639D01*
X0084500Y0174238D02*
X0100920Y0174238D01*
X0100920Y0175836D02*
X0088578Y0175836D01*
X0090177Y0177435D02*
X0100920Y0177435D01*
X0100920Y0179033D02*
X0090920Y0179033D01*
X0090920Y0180632D02*
X0100920Y0180632D01*
X0100920Y0182230D02*
X0090512Y0182230D01*
X0088913Y0183829D02*
X0100920Y0183829D01*
X0100920Y0185427D02*
X0061406Y0185427D01*
X0061431Y0187026D02*
X0100920Y0187026D01*
X0100920Y0188624D02*
X0061431Y0188624D01*
X0061431Y0190223D02*
X0100920Y0190223D01*
X0100920Y0191821D02*
X0061431Y0191821D01*
X0061431Y0193420D02*
X0100920Y0193420D01*
X0116445Y0193420D02*
X0131863Y0193420D01*
X0131631Y0193324D02*
X0133505Y0194100D01*
X0135534Y0194100D01*
X0137409Y0193324D01*
X0138843Y0191889D01*
X0139620Y0190014D01*
X0139620Y0187986D01*
X0138843Y0186111D01*
X0137409Y0184676D01*
X0135534Y0183900D01*
X0133505Y0183900D01*
X0131631Y0184676D01*
X0130196Y0186111D01*
X0129420Y0187986D01*
X0129420Y0190014D01*
X0130196Y0191889D01*
X0131631Y0193324D01*
X0130168Y0191821D02*
X0116445Y0191821D01*
X0116445Y0190223D02*
X0129506Y0190223D01*
X0129420Y0188624D02*
X0116445Y0188624D01*
X0116445Y0187026D02*
X0129817Y0187026D01*
X0130880Y0185427D02*
X0116445Y0185427D01*
X0116445Y0183829D02*
X0148672Y0183829D01*
X0150270Y0185427D02*
X0138159Y0185427D01*
X0139222Y0187026D02*
X0151869Y0187026D01*
X0153467Y0188624D02*
X0139620Y0188624D01*
X0139533Y0190223D02*
X0155066Y0190223D01*
X0156664Y0191821D02*
X0138871Y0191821D01*
X0137176Y0193420D02*
X0158263Y0193420D01*
X0159861Y0195018D02*
X0116445Y0195018D01*
X0122548Y0196617D02*
X0161460Y0196617D01*
X0163058Y0198215D02*
X0124108Y0198215D01*
X0124770Y0199814D02*
X0164657Y0199814D01*
X0166255Y0201412D02*
X0136771Y0201412D01*
X0138743Y0203011D02*
X0167854Y0203011D01*
X0169452Y0204609D02*
X0139464Y0204609D01*
X0139620Y0206208D02*
X0169420Y0206208D01*
X0169748Y0207806D02*
X0139292Y0207806D01*
X0138327Y0209405D02*
X0170712Y0209405D01*
X0174520Y0206000D02*
X0141020Y0172500D01*
X0134770Y0172500D01*
X0134520Y0172000D01*
X0129926Y0174238D02*
X0116445Y0174238D01*
X0116445Y0175836D02*
X0131143Y0175836D01*
X0129420Y0172639D02*
X0116445Y0172639D01*
X0116445Y0171041D02*
X0129420Y0171041D01*
X0130059Y0169442D02*
X0116445Y0169442D01*
X0116445Y0167844D02*
X0131463Y0167844D01*
X0134012Y0166245D02*
X0116445Y0166245D01*
X0116445Y0164647D02*
X0132414Y0164647D01*
X0137576Y0167844D02*
X0171463Y0167844D01*
X0171631Y0167676D02*
X0173505Y0166900D01*
X0175534Y0166900D01*
X0177409Y0167676D01*
X0178843Y0169111D01*
X0179620Y0170986D01*
X0179620Y0173014D01*
X0178843Y0174889D01*
X0177770Y0175962D01*
X0177770Y0185037D01*
X0178843Y0186111D01*
X0179620Y0187986D01*
X0179620Y0190014D01*
X0178843Y0191889D01*
X0177409Y0193324D01*
X0175534Y0194100D01*
X0173505Y0194100D01*
X0171631Y0193324D01*
X0170196Y0191889D01*
X0169420Y0190014D01*
X0169420Y0187986D01*
X0170196Y0186111D01*
X0171631Y0184676D01*
X0171770Y0184619D01*
X0171770Y0176381D01*
X0171631Y0176324D01*
X0170196Y0174889D01*
X0169420Y0173014D01*
X0169420Y0170986D01*
X0170196Y0169111D01*
X0171631Y0167676D01*
X0170059Y0169442D02*
X0138980Y0169442D01*
X0143237Y0171041D02*
X0169420Y0171041D01*
X0169420Y0172639D02*
X0144836Y0172639D01*
X0146434Y0174238D02*
X0169926Y0174238D01*
X0171143Y0175836D02*
X0148033Y0175836D01*
X0149631Y0177435D02*
X0171770Y0177435D01*
X0171770Y0179033D02*
X0151230Y0179033D01*
X0152828Y0180632D02*
X0171770Y0180632D01*
X0171770Y0182230D02*
X0154427Y0182230D01*
X0156025Y0183829D02*
X0171770Y0183829D01*
X0170880Y0185427D02*
X0157624Y0185427D01*
X0159222Y0187026D02*
X0169817Y0187026D01*
X0169420Y0188624D02*
X0160821Y0188624D01*
X0162419Y0190223D02*
X0169506Y0190223D01*
X0170168Y0191821D02*
X0164018Y0191821D01*
X0165616Y0193420D02*
X0171863Y0193420D01*
X0177176Y0193420D02*
X0210695Y0193420D01*
X0210520Y0191821D02*
X0178871Y0191821D01*
X0179533Y0190223D02*
X0210520Y0190223D01*
X0210520Y0188624D02*
X0179620Y0188624D01*
X0179222Y0187026D02*
X0210520Y0187026D01*
X0209444Y0185427D02*
X0178159Y0185427D01*
X0177770Y0183829D02*
X0207846Y0183829D01*
X0206247Y0182230D02*
X0177770Y0182230D01*
X0177770Y0180632D02*
X0204649Y0180632D01*
X0203050Y0179033D02*
X0177770Y0179033D01*
X0177770Y0177435D02*
X0201452Y0177435D01*
X0205195Y0174238D02*
X0214505Y0174238D01*
X0216103Y0175836D02*
X0206359Y0175836D01*
X0207957Y0177435D02*
X0217702Y0177435D01*
X0219300Y0179033D02*
X0209556Y0179033D01*
X0211154Y0180632D02*
X0220899Y0180632D01*
X0222497Y0182230D02*
X0212753Y0182230D01*
X0215385Y0183829D02*
X0224096Y0183829D01*
X0225694Y0185427D02*
X0217804Y0185427D01*
X0218520Y0187026D02*
X0227293Y0187026D01*
X0228891Y0188624D02*
X0218520Y0188624D01*
X0218520Y0190223D02*
X0230490Y0190223D01*
X0229071Y0191821D02*
X0219844Y0191821D01*
X0220820Y0193420D02*
X0227472Y0193420D01*
X0226220Y0195018D02*
X0220820Y0195018D01*
X0220820Y0196617D02*
X0226220Y0196617D01*
X0226220Y0198215D02*
X0220820Y0198215D01*
X0220820Y0199814D02*
X0226220Y0199814D01*
X0226220Y0201412D02*
X0220820Y0201412D01*
X0221753Y0203011D02*
X0225286Y0203011D01*
X0224120Y0204609D02*
X0222920Y0204609D01*
X0222920Y0206208D02*
X0224120Y0206208D01*
X0224120Y0207806D02*
X0222920Y0207806D01*
X0221337Y0209405D02*
X0225702Y0209405D01*
X0231337Y0209405D02*
X0245702Y0209405D01*
X0246697Y0210400D02*
X0244120Y0207823D01*
X0244120Y0206000D01*
X0244120Y0204177D01*
X0246697Y0201600D01*
X0248520Y0201600D01*
X0250342Y0201600D01*
X0252920Y0204177D01*
X0252920Y0206000D01*
X0252920Y0207823D01*
X0250342Y0210400D01*
X0248520Y0210400D01*
X0248520Y0206000D01*
X0252920Y0206000D01*
X0248520Y0206000D01*
X0248520Y0206000D01*
X0248520Y0201600D01*
X0248520Y0206000D01*
X0248520Y0206000D01*
X0248520Y0206000D01*
X0248520Y0201875D01*
X0265395Y0185000D01*
X0265520Y0185000D01*
X0265320Y0185427D02*
X0265720Y0185427D01*
X0265720Y0187026D02*
X0265320Y0187026D01*
X0265320Y0188624D02*
X0265720Y0188624D01*
X0269474Y0190200D02*
X0261565Y0190200D01*
X0259801Y0190931D01*
X0258450Y0192281D01*
X0257720Y0194045D01*
X0257720Y0195955D01*
X0258450Y0197719D01*
X0259801Y0199069D01*
X0261565Y0199800D01*
X0269474Y0199800D01*
X0271239Y0199069D01*
X0272589Y0197719D01*
X0273320Y0195955D01*
X0273320Y0194045D01*
X0272589Y0192281D01*
X0271239Y0190931D01*
X0269474Y0190200D01*
X0269530Y0190223D02*
X0278520Y0190223D01*
X0278520Y0191821D02*
X0272129Y0191821D01*
X0273061Y0193420D02*
X0278520Y0193420D01*
X0278520Y0195018D02*
X0273320Y0195018D01*
X0273045Y0196617D02*
X0278520Y0196617D01*
X0278520Y0198215D02*
X0272092Y0198215D01*
X0271239Y0200931D02*
X0269474Y0200200D01*
X0261565Y0200200D01*
X0259801Y0200931D01*
X0258450Y0202281D01*
X0257720Y0204045D01*
X0257720Y0205955D01*
X0258450Y0207719D01*
X0259801Y0209069D01*
X0261565Y0209800D01*
X0269474Y0209800D01*
X0271239Y0209069D01*
X0272589Y0207719D01*
X0273320Y0205955D01*
X0273320Y0204045D01*
X0272589Y0202281D01*
X0271239Y0200931D01*
X0271720Y0201412D02*
X0278520Y0201412D01*
X0278520Y0199814D02*
X0230820Y0199814D01*
X0230820Y0201412D02*
X0259319Y0201412D01*
X0258148Y0203011D02*
X0251753Y0203011D01*
X0252920Y0204609D02*
X0257720Y0204609D01*
X0257825Y0206208D02*
X0252920Y0206208D01*
X0252920Y0207806D02*
X0258538Y0207806D01*
X0260611Y0209405D02*
X0251337Y0209405D01*
X0248520Y0209405D02*
X0248520Y0209405D01*
X0248520Y0210400D02*
X0246697Y0210400D01*
X0248520Y0210400D02*
X0248520Y0206000D01*
X0244120Y0206000D01*
X0248520Y0206000D01*
X0248520Y0206000D01*
X0248520Y0206208D02*
X0248520Y0206208D01*
X0248520Y0207806D02*
X0248520Y0207806D01*
X0244120Y0207806D02*
X0232920Y0207806D01*
X0232920Y0206208D02*
X0244120Y0206208D01*
X0244120Y0204609D02*
X0232920Y0204609D01*
X0231753Y0203011D02*
X0245286Y0203011D01*
X0248520Y0203011D02*
X0248520Y0203011D01*
X0248520Y0204609D02*
X0248520Y0204609D01*
X0258947Y0198215D02*
X0230820Y0198215D01*
X0230820Y0196617D02*
X0257994Y0196617D01*
X0257720Y0195018D02*
X0237358Y0195018D01*
X0238344Y0193420D02*
X0257979Y0193420D01*
X0258910Y0191821D02*
X0238520Y0191821D01*
X0238520Y0190223D02*
X0261510Y0190223D01*
X0259356Y0188624D02*
X0238520Y0188624D01*
X0238520Y0187026D02*
X0258165Y0187026D01*
X0257728Y0185427D02*
X0239470Y0185427D01*
X0241069Y0183829D02*
X0257853Y0183829D01*
X0258599Y0182230D02*
X0242667Y0182230D01*
X0244266Y0180632D02*
X0258399Y0180632D01*
X0256800Y0179033D02*
X0245864Y0179033D01*
X0247463Y0177435D02*
X0255202Y0177435D01*
X0253603Y0175836D02*
X0251906Y0175836D01*
X0265720Y0175200D02*
X0273320Y0175200D01*
X0273320Y0175378D01*
X0273201Y0176124D01*
X0272968Y0176843D01*
X0272625Y0177516D01*
X0272491Y0177700D01*
X0276845Y0177700D01*
X0276845Y0172300D01*
X0272491Y0172300D01*
X0272625Y0172484D01*
X0272968Y0173157D01*
X0273201Y0173876D01*
X0273320Y0174622D01*
X0273320Y0174800D01*
X0265720Y0174800D01*
X0265720Y0175200D01*
X0272666Y0177435D02*
X0276845Y0177435D01*
X0276845Y0175836D02*
X0273247Y0175836D01*
X0273259Y0174238D02*
X0276845Y0174238D01*
X0276845Y0172639D02*
X0272704Y0172639D01*
X0273186Y0183829D02*
X0278520Y0183829D01*
X0278520Y0185427D02*
X0273312Y0185427D01*
X0272875Y0187026D02*
X0278520Y0187026D01*
X0278520Y0188624D02*
X0271684Y0188624D01*
X0272891Y0203011D02*
X0278520Y0203011D01*
X0278520Y0204609D02*
X0273320Y0204609D01*
X0273215Y0206208D02*
X0278520Y0206208D01*
X0278520Y0207806D02*
X0272501Y0207806D01*
X0270428Y0209405D02*
X0278331Y0209405D01*
X0216220Y0201412D02*
X0176771Y0201412D01*
X0178743Y0203011D02*
X0195286Y0203011D01*
X0194120Y0204177D02*
X0194120Y0206000D01*
X0198520Y0206000D01*
X0202920Y0206000D01*
X0202920Y0207823D01*
X0200342Y0210400D01*
X0198520Y0210400D01*
X0198520Y0206000D01*
X0198520Y0206000D01*
X0202920Y0206000D01*
X0202920Y0204177D01*
X0200342Y0201600D01*
X0198520Y0201600D01*
X0198520Y0206000D01*
X0198520Y0206000D01*
X0198520Y0206000D01*
X0198520Y0205625D01*
X0179770Y0186875D01*
X0179770Y0156250D01*
X0178520Y0157000D01*
X0178520Y0156875D01*
X0183520Y0151875D01*
X0183520Y0131875D01*
X0187895Y0127500D01*
X0188520Y0127000D01*
X0188520Y0109000D01*
X0188520Y0116000D01*
X0188173Y0116000D01*
X0187489Y0115892D01*
X0186831Y0115678D01*
X0186214Y0115363D01*
X0185653Y0114956D01*
X0185164Y0114466D01*
X0184756Y0113906D01*
X0184442Y0113289D01*
X0184228Y0112630D01*
X0184120Y0111946D01*
X0184120Y0109000D01*
X0184120Y0106827D01*
X0181920Y0109027D01*
X0181920Y0111823D01*
X0180495Y0113248D01*
X0180495Y0120039D01*
X0181125Y0120300D01*
X0182419Y0121594D01*
X0183120Y0123285D01*
X0183120Y0130715D01*
X0182969Y0131078D02*
X0184098Y0131078D01*
X0184924Y0132676D02*
X0182149Y0132676D01*
X0184436Y0134275D02*
X0179737Y0134275D01*
X0177303Y0134275D02*
X0175195Y0134275D01*
X0175195Y0135873D02*
X0183870Y0135873D01*
X0184096Y0137472D02*
X0175195Y0137472D01*
X0175195Y0139070D02*
X0184670Y0139070D01*
X0184670Y0140669D02*
X0175195Y0140669D01*
X0175195Y0142268D02*
X0184670Y0142268D01*
X0184670Y0143866D02*
X0175195Y0143866D01*
X0175195Y0145465D02*
X0184670Y0145465D01*
X0185051Y0147063D02*
X0175195Y0147063D01*
X0175195Y0148662D02*
X0186629Y0148662D01*
X0186011Y0150260D02*
X0180919Y0150260D01*
X0182489Y0151859D02*
X0184511Y0151859D01*
X0183920Y0153457D02*
X0183059Y0153457D01*
X0183120Y0155056D02*
X0183920Y0155056D01*
X0183920Y0156654D02*
X0183120Y0156654D01*
X0183120Y0157037D02*
X0183120Y0160162D01*
X0183006Y0160877D01*
X0182783Y0161566D01*
X0182454Y0162211D01*
X0182028Y0162797D01*
X0181516Y0163309D01*
X0180931Y0163734D01*
X0180285Y0164063D01*
X0179597Y0164287D01*
X0178882Y0164400D01*
X0178556Y0164400D01*
X0178556Y0157037D01*
X0183120Y0157037D01*
X0183120Y0158253D02*
X0183920Y0158253D01*
X0183920Y0159851D02*
X0183120Y0159851D01*
X0182820Y0161450D02*
X0184224Y0161450D01*
X0185262Y0163048D02*
X0181777Y0163048D01*
X0178556Y0163048D02*
X0178483Y0163048D01*
X0178483Y0161450D02*
X0178556Y0161450D01*
X0178556Y0159851D02*
X0178483Y0159851D01*
X0178483Y0158253D02*
X0178556Y0158253D01*
X0178556Y0156654D02*
X0178483Y0156654D01*
X0178483Y0155056D02*
X0178556Y0155056D01*
X0178556Y0153457D02*
X0178483Y0153457D01*
X0178483Y0151859D02*
X0178556Y0151859D01*
X0178556Y0150260D02*
X0178483Y0150260D01*
X0176120Y0150260D02*
X0175195Y0150260D01*
X0187270Y0145625D02*
X0187270Y0136250D01*
X0190444Y0137472D02*
X0199345Y0137472D01*
X0199345Y0139070D02*
X0189870Y0139070D01*
X0189870Y0140669D02*
X0199345Y0140669D01*
X0199345Y0142268D02*
X0189870Y0142268D01*
X0189870Y0143866D02*
X0199345Y0143866D01*
X0199345Y0145465D02*
X0190786Y0145465D01*
X0192385Y0147063D02*
X0199345Y0147063D01*
X0199345Y0148662D02*
X0193983Y0148662D01*
X0195582Y0150260D02*
X0196011Y0150260D01*
X0193920Y0156654D02*
X0193120Y0156654D01*
X0193120Y0158253D02*
X0193920Y0158253D01*
X0193920Y0159851D02*
X0193120Y0159851D01*
X0192815Y0161450D02*
X0194224Y0161450D01*
X0195262Y0163048D02*
X0191777Y0163048D01*
X0197453Y0167844D02*
X0177576Y0167844D01*
X0178980Y0169442D02*
X0195855Y0169442D01*
X0195120Y0171041D02*
X0179620Y0171041D01*
X0179620Y0172639D02*
X0195120Y0172639D01*
X0195535Y0174238D02*
X0179113Y0174238D01*
X0177896Y0175836D02*
X0197133Y0175836D01*
X0205195Y0172639D02*
X0212906Y0172639D01*
X0211845Y0171041D02*
X0205195Y0171041D01*
X0205195Y0169442D02*
X0211845Y0169442D01*
X0211845Y0167844D02*
X0205195Y0167844D01*
X0205195Y0166245D02*
X0211845Y0166245D01*
X0211845Y0164647D02*
X0205195Y0164647D01*
X0205195Y0163048D02*
X0205262Y0163048D01*
X0200595Y0164647D02*
X0175195Y0164647D01*
X0175195Y0163048D02*
X0175262Y0163048D01*
X0174277Y0166245D02*
X0200595Y0166245D01*
X0211777Y0163048D02*
X0211845Y0163048D01*
X0198520Y0157000D02*
X0198520Y0156875D01*
X0187270Y0145625D01*
X0190670Y0135873D02*
X0199345Y0135873D01*
X0197303Y0134275D02*
X0190103Y0134275D01*
X0192116Y0132676D02*
X0194891Y0132676D01*
X0194070Y0131078D02*
X0192941Y0131078D01*
X0193120Y0129479D02*
X0193920Y0129479D01*
X0193920Y0127881D02*
X0193120Y0127881D01*
X0193120Y0126282D02*
X0193920Y0126282D01*
X0193920Y0124684D02*
X0193120Y0124684D01*
X0192994Y0123085D02*
X0194002Y0123085D01*
X0194727Y0121487D02*
X0192234Y0121487D01*
X0190136Y0119888D02*
X0196909Y0119888D01*
X0200131Y0119888D02*
X0201845Y0119888D01*
X0201845Y0118290D02*
X0180495Y0118290D01*
X0180495Y0119888D02*
X0186904Y0119888D01*
X0188483Y0119888D02*
X0188556Y0119888D01*
X0188556Y0121487D02*
X0188483Y0121487D01*
X0188483Y0123085D02*
X0188556Y0123085D01*
X0188556Y0124684D02*
X0188483Y0124684D01*
X0188483Y0126282D02*
X0188556Y0126282D01*
X0183920Y0124684D02*
X0183120Y0124684D01*
X0183037Y0123085D02*
X0184045Y0123085D01*
X0184805Y0121487D02*
X0182312Y0121487D01*
X0180495Y0116691D02*
X0201845Y0116691D01*
X0201845Y0115093D02*
X0201249Y0115093D01*
X0195790Y0115093D02*
X0191198Y0115093D01*
X0192493Y0113494D02*
X0194542Y0113494D01*
X0194120Y0111896D02*
X0192920Y0111896D01*
X0192920Y0110297D02*
X0194120Y0110297D01*
X0194120Y0108699D02*
X0192920Y0108699D01*
X0192920Y0107100D02*
X0193617Y0107100D01*
X0188520Y0109000D02*
X0184120Y0109000D01*
X0188520Y0109000D01*
X0188520Y0109000D01*
X0188520Y0110297D02*
X0188520Y0110297D01*
X0188520Y0111896D02*
X0188520Y0111896D01*
X0188520Y0113494D02*
X0188520Y0113494D01*
X0188520Y0115093D02*
X0188520Y0115093D01*
X0185841Y0115093D02*
X0180495Y0115093D01*
X0180495Y0113494D02*
X0184547Y0113494D01*
X0184120Y0111896D02*
X0181846Y0111896D01*
X0181920Y0110297D02*
X0184120Y0110297D01*
X0184120Y0108699D02*
X0182248Y0108699D01*
X0183846Y0107100D02*
X0184120Y0107100D01*
X0190154Y0102305D02*
X0190595Y0102305D01*
X0190595Y0100706D02*
X0188620Y0100706D01*
X0188620Y0099108D02*
X0190595Y0099108D01*
X0190595Y0097509D02*
X0188620Y0097509D01*
X0188620Y0095911D02*
X0190595Y0095911D01*
X0190595Y0094312D02*
X0188620Y0094312D01*
X0188620Y0092714D02*
X0190595Y0092714D01*
X0260195Y0097202D02*
X0260195Y0098768D01*
X0261565Y0098200D01*
X0269474Y0098200D01*
X0271220Y0098923D01*
X0271220Y0096971D01*
X0271035Y0097105D01*
X0270362Y0097448D01*
X0269644Y0097682D01*
X0268897Y0097800D01*
X0265720Y0097800D01*
X0265720Y0093200D01*
X0265320Y0093200D01*
X0265320Y0097800D01*
X0262142Y0097800D01*
X0261396Y0097682D01*
X0260677Y0097448D01*
X0260195Y0097202D01*
X0260195Y0097509D02*
X0260864Y0097509D01*
X0265320Y0097509D02*
X0265720Y0097509D01*
X0265720Y0095911D02*
X0265320Y0095911D01*
X0265320Y0094312D02*
X0265720Y0094312D01*
X0265720Y0092800D02*
X0265720Y0088200D01*
X0268897Y0088200D01*
X0269644Y0088318D01*
X0270362Y0088552D01*
X0271035Y0088895D01*
X0271220Y0089029D01*
X0271220Y0087077D01*
X0269474Y0087800D01*
X0261565Y0087800D01*
X0260920Y0087533D01*
X0261063Y0087676D01*
X0261337Y0088337D01*
X0261396Y0088318D01*
X0262142Y0088200D01*
X0265320Y0088200D01*
X0265320Y0092800D01*
X0265720Y0092800D01*
X0265720Y0092714D02*
X0265320Y0092714D01*
X0265320Y0091115D02*
X0265720Y0091115D01*
X0265720Y0089517D02*
X0265320Y0089517D01*
X0261163Y0087918D02*
X0271220Y0087918D01*
X0271220Y0097509D02*
X0270175Y0097509D01*
X0265520Y0103000D02*
X0261020Y0107500D01*
X0261020Y0128750D01*
X0211681Y0195018D02*
X0167215Y0195018D01*
X0168814Y0196617D02*
X0216220Y0196617D01*
X0216220Y0198215D02*
X0170412Y0198215D01*
X0172011Y0199814D02*
X0216220Y0199814D01*
X0215286Y0203011D02*
X0201753Y0203011D01*
X0202920Y0204609D02*
X0214120Y0204609D01*
X0214120Y0206208D02*
X0202920Y0206208D01*
X0202920Y0207806D02*
X0214120Y0207806D01*
X0215702Y0209405D02*
X0201337Y0209405D01*
X0198520Y0209405D02*
X0198520Y0209405D01*
X0198520Y0210400D02*
X0196697Y0210400D01*
X0194120Y0207823D01*
X0194120Y0206000D01*
X0198520Y0206000D01*
X0198520Y0201600D01*
X0196697Y0201600D01*
X0194120Y0204177D01*
X0194120Y0204609D02*
X0179464Y0204609D01*
X0179620Y0206208D02*
X0194120Y0206208D01*
X0194120Y0207806D02*
X0179292Y0207806D01*
X0178327Y0209405D02*
X0195702Y0209405D01*
X0198520Y0210400D02*
X0198520Y0206000D01*
X0198520Y0206000D01*
X0198520Y0206208D02*
X0198520Y0206208D01*
X0198520Y0207806D02*
X0198520Y0207806D01*
X0198520Y0204609D02*
X0198520Y0204609D01*
X0198520Y0203011D02*
X0198520Y0203011D01*
X0147073Y0182230D02*
X0116445Y0182230D01*
X0116445Y0180632D02*
X0145475Y0180632D01*
X0143876Y0179033D02*
X0116445Y0179033D01*
X0116445Y0177435D02*
X0142278Y0177435D01*
X0140679Y0175836D02*
X0137896Y0175836D01*
X0125262Y0163048D02*
X0121777Y0163048D01*
X0122815Y0161450D02*
X0124224Y0161450D01*
X0123920Y0159851D02*
X0123120Y0159851D01*
X0123120Y0158253D02*
X0123920Y0158253D01*
X0123920Y0156654D02*
X0123120Y0156654D01*
X0123592Y0155056D02*
X0123920Y0155056D01*
X0125115Y0201412D02*
X0132268Y0201412D01*
X0130296Y0203011D02*
X0125115Y0203011D01*
X0134145Y0206250D02*
X0134520Y0206000D01*
X0087382Y0206208D02*
X0017520Y0206208D01*
X0017520Y0204609D02*
X0086445Y0204609D01*
X0085999Y0203011D02*
X0017520Y0203011D01*
X0059488Y0182230D02*
X0062527Y0182230D01*
X0064126Y0183829D02*
X0060744Y0183829D01*
D25*
X0041520Y0145000D03*
X0187270Y0136250D03*
X0189770Y0091250D03*
X0210395Y0052500D03*
X0261020Y0128750D03*
D26*
X0244145Y0141250D02*
X0244145Y0083750D01*
X0248520Y0079375D01*
X0248520Y0079000D01*
X0248520Y0064000D01*
X0248520Y0046875D01*
X0253520Y0041875D01*
X0253520Y0035625D01*
X0259145Y0030000D01*
X0259145Y0004375D01*
X0027895Y0004375D01*
X0021645Y0010625D01*
X0021645Y0074375D01*
X0029145Y0074375D01*
X0029145Y0037500D01*
X0040395Y0026250D01*
X0040520Y0026000D01*
X0050520Y0016000D02*
X0050395Y0015625D01*
X0045395Y0010625D01*
X0024770Y0010625D01*
X0024770Y0071250D01*
X0029145Y0074375D02*
X0029145Y0095000D01*
X0034145Y0100000D01*
X0034520Y0100000D01*
X0044520Y0090000D02*
X0044770Y0090000D01*
X0064770Y0070000D01*
X0064770Y0012500D01*
X0070395Y0006875D01*
X0097895Y0006875D01*
X0097895Y0016875D01*
X0097520Y0017000D01*
X0097895Y0017500D01*
X0119770Y0039375D01*
X0119770Y0118125D01*
X0128520Y0126875D01*
X0128520Y0127000D01*
X0131020Y0119375D02*
X0131020Y0030000D01*
X0122270Y0021250D01*
X0122270Y0011875D01*
X0119770Y0009375D01*
X0107895Y0009375D01*
X0107895Y0016875D01*
X0107520Y0017000D01*
X0117520Y0017000D02*
X0117895Y0017500D01*
X0117895Y0020000D01*
X0122270Y0024375D01*
X0122270Y0111875D01*
X0125395Y0115000D01*
X0131020Y0119375D02*
X0138520Y0126875D01*
X0138520Y0127000D01*
X0142895Y0132500D02*
X0142895Y0112500D01*
X0133520Y0103125D01*
X0133520Y0050000D01*
X0144770Y0038750D01*
X0151020Y0040625D02*
X0127895Y0017500D01*
X0127520Y0017000D01*
X0137520Y0017000D02*
X0137895Y0016875D01*
X0137895Y0009375D01*
X0159770Y0009375D01*
X0162270Y0011875D01*
X0162270Y0021250D01*
X0168520Y0027500D01*
X0168520Y0127000D01*
X0158520Y0126875D02*
X0158520Y0127000D01*
X0158520Y0126875D02*
X0151020Y0119375D01*
X0151020Y0040625D01*
X0161645Y0031250D02*
X0147895Y0017500D01*
X0147520Y0017000D01*
X0167520Y0017000D02*
X0167895Y0017500D01*
X0171020Y0020625D01*
X0171020Y0080625D01*
X0176645Y0086250D01*
X0179770Y0088750D02*
X0179770Y0011875D01*
X0182270Y0009375D01*
X0224145Y0009375D01*
X0224145Y0016875D01*
X0224520Y0017000D01*
X0224770Y0017500D01*
X0224770Y0018125D01*
X0233520Y0026875D01*
X0233520Y0036250D01*
X0243520Y0046250D01*
X0243520Y0073750D01*
X0238520Y0078750D01*
X0238520Y0079000D01*
X0234145Y0075625D02*
X0234145Y0083750D01*
X0238832Y0088437D01*
X0241020Y0086250D01*
X0238832Y0088437D02*
X0238520Y0088750D01*
X0238520Y0109000D01*
X0248520Y0109000D02*
X0248520Y0108750D01*
X0255395Y0101875D01*
X0255395Y0083750D01*
X0265395Y0073750D01*
X0265395Y0073125D01*
X0265520Y0073000D01*
X0253520Y0082500D02*
X0247270Y0088750D01*
X0247270Y0095625D01*
X0257895Y0090000D02*
X0257895Y0157500D01*
X0265395Y0165000D01*
X0265520Y0165000D01*
X0261020Y0170000D02*
X0276020Y0170000D01*
X0276020Y0053125D01*
X0266020Y0043125D01*
X0265520Y0043000D01*
X0257895Y0046250D02*
X0257895Y0057500D01*
X0269770Y0057500D01*
X0273520Y0061250D01*
X0273520Y0111250D01*
X0272270Y0112500D01*
X0257895Y0090000D02*
X0258520Y0089375D01*
X0253520Y0082500D02*
X0253520Y0045000D01*
X0265520Y0033000D01*
X0254520Y0017000D02*
X0254145Y0016875D01*
X0244145Y0006875D01*
X0097895Y0006875D01*
X0089145Y0017500D02*
X0089770Y0018125D01*
X0089770Y0076250D01*
X0106520Y0093000D01*
X0111020Y0071250D02*
X0111020Y0193125D01*
X0109770Y0194375D01*
X0114145Y0198125D02*
X0117895Y0201875D01*
X0118315Y0202000D01*
X0114145Y0198125D02*
X0114145Y0131875D01*
X0118520Y0127500D01*
X0118520Y0127000D01*
X0142895Y0132500D02*
X0118520Y0156875D01*
X0118520Y0157000D01*
X0128520Y0157000D02*
X0128520Y0157500D01*
X0135395Y0164375D01*
X0172895Y0164375D01*
X0172895Y0095625D01*
X0179770Y0088750D01*
X0192895Y0103125D02*
X0192895Y0045625D01*
X0184770Y0037500D01*
X0184770Y0017500D01*
X0184520Y0017000D01*
X0187895Y0023750D02*
X0187895Y0036250D01*
X0187895Y0023750D02*
X0194145Y0017500D01*
X0194520Y0017000D01*
X0201020Y0020625D02*
X0204145Y0017500D01*
X0204520Y0017000D01*
X0201020Y0020625D02*
X0201020Y0065625D01*
X0202895Y0067500D01*
X0202895Y0093125D01*
X0218520Y0108750D01*
X0218520Y0109000D01*
X0224145Y0105000D02*
X0224457Y0104687D01*
X0228520Y0108750D01*
X0228520Y0109000D01*
X0224457Y0104687D02*
X0223520Y0103750D01*
X0223520Y0039375D01*
X0228520Y0034375D01*
X0228520Y0034000D01*
X0228520Y0031250D01*
X0214770Y0017500D01*
X0214520Y0017000D01*
X0234520Y0017000D02*
X0234770Y0017500D01*
X0236020Y0018750D01*
X0236020Y0027500D01*
X0236645Y0028125D01*
X0218520Y0034000D02*
X0218520Y0034375D01*
X0213520Y0039375D01*
X0213520Y0073750D01*
X0218520Y0078750D01*
X0218520Y0079000D01*
X0231020Y0072500D02*
X0234145Y0075625D01*
X0235395Y0071875D02*
X0233520Y0070000D01*
X0233520Y0054375D01*
X0232270Y0051250D02*
X0238520Y0051250D01*
X0238520Y0064000D01*
X0231020Y0066875D02*
X0231020Y0072500D01*
X0231020Y0066875D02*
X0228520Y0064375D01*
X0228520Y0064000D01*
X0227895Y0055625D02*
X0232270Y0051250D01*
X0279145Y0053125D02*
X0279145Y0180000D01*
X0261020Y0180000D01*
X0255395Y0174375D01*
X0255395Y0167500D01*
X0248520Y0167500D01*
X0238520Y0157500D01*
X0238520Y0157000D01*
X0248520Y0157000D02*
X0248520Y0157500D01*
X0261020Y0170000D01*
X0249520Y0172000D02*
X0249145Y0172500D01*
X0234770Y0186875D01*
X0234770Y0190000D01*
X0234520Y0190000D01*
X0233520Y0190000D01*
X0214145Y0170625D01*
X0214145Y0133125D01*
X0208520Y0127500D01*
X0208520Y0127000D01*
X0204145Y0131875D02*
X0204145Y0102500D01*
X0198520Y0108750D02*
X0198520Y0109000D01*
X0198520Y0108750D02*
X0192895Y0103125D01*
X0198520Y0127000D02*
X0198520Y0127500D01*
X0201645Y0130625D01*
X0201645Y0150625D01*
X0202895Y0151875D01*
X0202895Y0175000D01*
X0202582Y0175312D01*
X0199770Y0172500D01*
X0199520Y0172000D01*
X0202582Y0175312D02*
X0214145Y0186875D01*
X0214145Y0190000D01*
X0214520Y0190000D01*
X0214770Y0190000D01*
X0218520Y0193750D01*
X0218520Y0206000D01*
X0228520Y0206000D02*
X0228520Y0195625D01*
X0234145Y0190000D01*
X0234520Y0190000D01*
X0225395Y0177500D02*
X0224145Y0176250D01*
X0224145Y0105000D01*
X0232895Y0096250D02*
X0232895Y0121250D01*
X0238520Y0126875D01*
X0238520Y0127000D01*
X0244145Y0141250D02*
X0228520Y0156875D01*
X0228520Y0157000D01*
X0208520Y0156875D02*
X0208520Y0157000D01*
X0208520Y0156875D02*
X0205395Y0153750D01*
X0205395Y0133125D01*
X0204145Y0131875D01*
X0169770Y0135000D02*
X0164457Y0140313D01*
X0164145Y0140000D01*
X0164145Y0053750D01*
X0165395Y0052500D01*
X0142270Y0058125D02*
X0142270Y0073750D01*
X0146520Y0078000D01*
X0142270Y0058125D02*
X0136645Y0052500D01*
X0161645Y0031250D02*
X0161645Y0111875D01*
X0154770Y0118750D01*
X0164457Y0140313D02*
X0161645Y0143125D01*
X0161645Y0153750D01*
X0158520Y0156875D01*
X0158520Y0157000D01*
X0168520Y0157000D02*
X0168520Y0140625D01*
X0158520Y0143750D02*
X0158520Y0146875D01*
X0148520Y0156875D01*
X0148520Y0157000D01*
X0061645Y0063125D02*
X0044770Y0080000D01*
X0044520Y0080000D01*
X0061645Y0063125D02*
X0061645Y0041875D01*
D27*
X0061645Y0041875D03*
X0089145Y0017500D03*
X0136645Y0052500D03*
X0144770Y0038750D03*
X0165395Y0052500D03*
X0187895Y0036250D03*
X0227895Y0055625D03*
X0233520Y0054375D03*
X0235395Y0071875D03*
X0241020Y0086250D03*
X0247270Y0095625D03*
X0258520Y0089375D03*
X0232895Y0096250D03*
X0204145Y0102500D03*
X0176645Y0086250D03*
X0154770Y0118750D03*
X0169770Y0135000D03*
X0168520Y0140625D03*
X0158520Y0143750D03*
X0125395Y0115000D03*
X0111020Y0071250D03*
X0024770Y0071250D03*
X0109770Y0194375D03*
X0225395Y0177500D03*
X0272270Y0112500D03*
X0279145Y0053125D03*
X0257895Y0046250D03*
X0236645Y0028125D03*
D28*
X0081020Y0156250D02*
X0080520Y0156000D01*
X0081020Y0156250D02*
X0081020Y0175000D01*
X0086020Y0180000D01*
X0086520Y0180000D01*
X0174520Y0172000D02*
X0174770Y0172500D01*
X0174770Y0188750D01*
X0174520Y0189000D01*
M02*
