G75*
%MOIN*%
%OFA0B0*%
%FSLAX25Y25*%
%IPPOS*%
%LPD*%
%AMOC8*
5,1,8,0,0,1.08239X$1,22.5*
%
%ADD10C,0.00000*%
%ADD11C,0.00400*%
%ADD12C,0.00600*%
%ADD13C,0.00300*%
%ADD14C,0.00500*%
%ADD15C,0.01200*%
%ADD16R,0.02000X0.10000*%
%ADD17R,0.07500X0.03000*%
%ADD18C,0.00800*%
%ADD19C,0.00394*%
%ADD20C,0.02000*%
%ADD21R,0.05000X0.07500*%
%ADD22R,0.03000X0.07000*%
%ADD23R,0.05000X0.03000*%
%ADD24R,0.01673X0.01280*%
%ADD25R,0.01378X0.01378*%
%ADD26R,0.02400X0.03400*%
%ADD27R,0.02000X0.01500*%
%ADD28C,0.01000*%
%ADD29C,0.00700*%
%ADD30C,0.00200*%
%ADD31R,0.03400X0.02400*%
%ADD32C,0.00197*%
D10*
X0014520Y0012000D02*
X0014520Y0207961D01*
X0014523Y0208203D01*
X0014532Y0208444D01*
X0014546Y0208685D01*
X0014567Y0208926D01*
X0014593Y0209166D01*
X0014625Y0209406D01*
X0014663Y0209645D01*
X0014706Y0209882D01*
X0014756Y0210119D01*
X0014811Y0210354D01*
X0014871Y0210588D01*
X0014938Y0210820D01*
X0015009Y0211051D01*
X0015087Y0211280D01*
X0015170Y0211507D01*
X0015258Y0211732D01*
X0015352Y0211955D01*
X0015451Y0212175D01*
X0015556Y0212393D01*
X0015665Y0212608D01*
X0015780Y0212821D01*
X0015900Y0213031D01*
X0016025Y0213237D01*
X0016155Y0213441D01*
X0016290Y0213642D01*
X0016430Y0213839D01*
X0016574Y0214033D01*
X0016723Y0214223D01*
X0016877Y0214409D01*
X0017035Y0214592D01*
X0017197Y0214771D01*
X0017364Y0214946D01*
X0017535Y0215117D01*
X0017710Y0215284D01*
X0017889Y0215446D01*
X0018072Y0215604D01*
X0018258Y0215758D01*
X0018448Y0215907D01*
X0018642Y0216051D01*
X0018839Y0216191D01*
X0019040Y0216326D01*
X0019244Y0216456D01*
X0019450Y0216581D01*
X0019660Y0216701D01*
X0019873Y0216816D01*
X0020088Y0216925D01*
X0020306Y0217030D01*
X0020526Y0217129D01*
X0020749Y0217223D01*
X0020974Y0217311D01*
X0021201Y0217394D01*
X0021430Y0217472D01*
X0021661Y0217543D01*
X0021893Y0217610D01*
X0022127Y0217670D01*
X0022362Y0217725D01*
X0022599Y0217775D01*
X0022836Y0217818D01*
X0023075Y0217856D01*
X0023315Y0217888D01*
X0023555Y0217914D01*
X0023796Y0217935D01*
X0024037Y0217949D01*
X0024278Y0217958D01*
X0024520Y0217961D01*
X0269205Y0217961D01*
X0284220Y0205945D02*
X0284220Y0013000D01*
X0284216Y0012710D01*
X0284206Y0012420D01*
X0284188Y0012131D01*
X0284164Y0011842D01*
X0284133Y0011554D01*
X0284094Y0011266D01*
X0284049Y0010980D01*
X0283996Y0010694D01*
X0283937Y0010411D01*
X0283871Y0010128D01*
X0283799Y0009848D01*
X0283719Y0009569D01*
X0283633Y0009292D01*
X0283540Y0009017D01*
X0283440Y0008745D01*
X0283334Y0008475D01*
X0283222Y0008208D01*
X0283102Y0007943D01*
X0282977Y0007682D01*
X0282845Y0007423D01*
X0282708Y0007168D01*
X0282564Y0006916D01*
X0282414Y0006668D01*
X0282258Y0006424D01*
X0282096Y0006183D01*
X0281928Y0005947D01*
X0281755Y0005714D01*
X0281576Y0005486D01*
X0281392Y0005262D01*
X0281202Y0005043D01*
X0281007Y0004828D01*
X0280807Y0004618D01*
X0280602Y0004413D01*
X0280392Y0004213D01*
X0280177Y0004018D01*
X0279958Y0003828D01*
X0279734Y0003644D01*
X0279506Y0003465D01*
X0279273Y0003292D01*
X0279037Y0003124D01*
X0278796Y0002962D01*
X0278552Y0002806D01*
X0278304Y0002656D01*
X0278052Y0002512D01*
X0277797Y0002375D01*
X0277538Y0002243D01*
X0277277Y0002118D01*
X0277012Y0001998D01*
X0276745Y0001886D01*
X0276475Y0001780D01*
X0276203Y0001680D01*
X0275928Y0001587D01*
X0275651Y0001501D01*
X0275372Y0001421D01*
X0275092Y0001349D01*
X0274809Y0001283D01*
X0274526Y0001224D01*
X0274240Y0001171D01*
X0273954Y0001126D01*
X0273666Y0001087D01*
X0273378Y0001056D01*
X0273089Y0001032D01*
X0272800Y0001014D01*
X0272510Y0001004D01*
X0272220Y0001000D01*
X0025520Y0001000D01*
X0025250Y0001003D01*
X0024980Y0001013D01*
X0024711Y0001030D01*
X0024442Y0001053D01*
X0024173Y0001083D01*
X0023906Y0001119D01*
X0023639Y0001162D01*
X0023374Y0001211D01*
X0023110Y0001267D01*
X0022847Y0001330D01*
X0022586Y0001398D01*
X0022327Y0001474D01*
X0022070Y0001555D01*
X0021814Y0001643D01*
X0021561Y0001737D01*
X0021310Y0001837D01*
X0021062Y0001944D01*
X0020817Y0002056D01*
X0020574Y0002175D01*
X0020335Y0002299D01*
X0020098Y0002429D01*
X0019865Y0002565D01*
X0019635Y0002707D01*
X0019409Y0002854D01*
X0019186Y0003007D01*
X0018967Y0003165D01*
X0018752Y0003328D01*
X0018542Y0003497D01*
X0018335Y0003671D01*
X0018133Y0003850D01*
X0017935Y0004033D01*
X0017742Y0004222D01*
X0017553Y0004415D01*
X0017370Y0004613D01*
X0017191Y0004815D01*
X0017017Y0005022D01*
X0016848Y0005232D01*
X0016685Y0005447D01*
X0016527Y0005666D01*
X0016374Y0005889D01*
X0016227Y0006115D01*
X0016085Y0006345D01*
X0015949Y0006578D01*
X0015819Y0006815D01*
X0015695Y0007054D01*
X0015576Y0007297D01*
X0015464Y0007542D01*
X0015357Y0007790D01*
X0015257Y0008041D01*
X0015163Y0008294D01*
X0015075Y0008550D01*
X0014994Y0008807D01*
X0014918Y0009066D01*
X0014850Y0009327D01*
X0014787Y0009590D01*
X0014731Y0009854D01*
X0014682Y0010119D01*
X0014639Y0010386D01*
X0014603Y0010653D01*
X0014573Y0010922D01*
X0014550Y0011191D01*
X0014533Y0011460D01*
X0014523Y0011730D01*
X0014520Y0012000D01*
X0269205Y0217961D02*
X0269532Y0217993D01*
X0269860Y0218018D01*
X0270188Y0218034D01*
X0270516Y0218043D01*
X0270845Y0218043D01*
X0271174Y0218036D01*
X0271502Y0218021D01*
X0271830Y0217997D01*
X0272157Y0217966D01*
X0272483Y0217927D01*
X0272808Y0217880D01*
X0273132Y0217826D01*
X0273455Y0217763D01*
X0273776Y0217693D01*
X0274095Y0217615D01*
X0274413Y0217529D01*
X0274728Y0217435D01*
X0275040Y0217334D01*
X0275350Y0217226D01*
X0275658Y0217110D01*
X0275963Y0216987D01*
X0276264Y0216856D01*
X0276562Y0216718D01*
X0276857Y0216573D01*
X0277148Y0216421D01*
X0277436Y0216261D01*
X0277720Y0216095D01*
X0277999Y0215922D01*
X0278274Y0215743D01*
X0278545Y0215557D01*
X0278811Y0215364D01*
X0279073Y0215165D01*
X0279329Y0214960D01*
X0279581Y0214748D01*
X0279827Y0214531D01*
X0280068Y0214307D01*
X0280304Y0214078D01*
X0280534Y0213843D01*
X0280758Y0213603D01*
X0280976Y0213357D01*
X0281189Y0213107D01*
X0281395Y0212851D01*
X0281595Y0212590D01*
X0281789Y0212325D01*
X0281976Y0212054D01*
X0282156Y0211780D01*
X0282330Y0211501D01*
X0282497Y0211218D01*
X0282658Y0210931D01*
X0282811Y0210640D01*
X0282957Y0210346D01*
X0283096Y0210048D01*
X0283228Y0209747D01*
X0283352Y0209443D01*
X0283469Y0209136D01*
X0283579Y0208826D01*
X0283681Y0208514D01*
X0283776Y0208199D01*
X0283862Y0207882D01*
X0283942Y0207563D01*
X0284013Y0207243D01*
X0284077Y0206920D01*
X0284133Y0206596D01*
X0284181Y0206271D01*
X0284221Y0205945D01*
D11*
X0267820Y0155937D02*
X0263216Y0155937D01*
X0264750Y0155937D02*
X0264750Y0153635D01*
X0265518Y0152868D01*
X0267052Y0152868D01*
X0267820Y0153635D01*
X0267820Y0155937D01*
X0264750Y0151333D02*
X0264750Y0150566D01*
X0266285Y0149031D01*
X0266285Y0147497D02*
X0266285Y0145195D01*
X0267052Y0144427D01*
X0267820Y0145195D01*
X0267820Y0147497D01*
X0265518Y0147497D01*
X0264750Y0146729D01*
X0264750Y0145195D01*
X0265518Y0142893D02*
X0264750Y0142126D01*
X0264750Y0140591D01*
X0265518Y0139824D01*
X0267052Y0139824D01*
X0267820Y0140591D01*
X0267820Y0142126D01*
X0267052Y0142893D01*
X0265518Y0142893D01*
X0266285Y0138289D02*
X0267052Y0138289D01*
X0267820Y0137522D01*
X0267820Y0135220D01*
X0263216Y0135220D01*
X0263216Y0137522D01*
X0263983Y0138289D01*
X0264750Y0138289D01*
X0265518Y0137522D01*
X0265518Y0135220D01*
X0264750Y0133685D02*
X0267820Y0132150D01*
X0264750Y0130616D01*
X0265518Y0129081D02*
X0266285Y0129081D01*
X0266285Y0126012D01*
X0265518Y0126012D02*
X0264750Y0126779D01*
X0264750Y0128314D01*
X0265518Y0129081D01*
X0267820Y0128314D02*
X0267820Y0126779D01*
X0267052Y0126012D01*
X0265518Y0126012D01*
X0267052Y0124477D02*
X0263983Y0124477D01*
X0263216Y0123710D01*
X0263216Y0121408D01*
X0267820Y0121408D01*
X0267820Y0123710D01*
X0267052Y0124477D01*
X0270716Y0124477D02*
X0270716Y0126012D01*
X0271483Y0126779D01*
X0274552Y0123710D01*
X0275320Y0124477D01*
X0275320Y0126012D01*
X0274552Y0126779D01*
X0271483Y0126779D01*
X0270716Y0124477D02*
X0271483Y0123710D01*
X0274552Y0123710D01*
X0274552Y0122175D02*
X0275320Y0122175D01*
X0275320Y0121408D01*
X0274552Y0121408D01*
X0274552Y0122175D01*
X0275320Y0119873D02*
X0275320Y0116804D01*
X0275320Y0118339D02*
X0270716Y0118339D01*
X0272250Y0116804D01*
X0272250Y0115269D02*
X0275320Y0113735D01*
X0272250Y0112200D01*
X0267820Y0112200D02*
X0264750Y0112200D01*
X0263216Y0113735D01*
X0264750Y0115269D01*
X0267820Y0115269D01*
X0265518Y0115269D02*
X0265518Y0112200D01*
X0263216Y0116804D02*
X0263216Y0119873D01*
X0263216Y0118339D02*
X0267820Y0118339D01*
X0265518Y0137522D02*
X0266285Y0138289D01*
X0267820Y0149031D02*
X0264750Y0149031D01*
X0103185Y0063804D02*
X0100116Y0060735D01*
X0100883Y0061502D02*
X0103185Y0059200D01*
X0100116Y0059200D02*
X0100116Y0063804D01*
X0098581Y0063037D02*
X0097814Y0063804D01*
X0096279Y0063804D01*
X0095512Y0063037D01*
X0095512Y0059967D01*
X0096279Y0059200D01*
X0097814Y0059200D01*
X0098581Y0059967D01*
X0093977Y0059967D02*
X0093210Y0059200D01*
X0091675Y0059200D01*
X0090908Y0059967D01*
X0091675Y0061502D02*
X0090908Y0062269D01*
X0090908Y0063037D01*
X0091675Y0063804D01*
X0093210Y0063804D01*
X0093977Y0063037D01*
X0093210Y0061502D02*
X0093977Y0060735D01*
X0093977Y0059967D01*
X0093210Y0061502D02*
X0091675Y0061502D01*
X0091512Y0048804D02*
X0093814Y0048804D01*
X0094581Y0048037D01*
X0094581Y0046502D01*
X0093814Y0045735D01*
X0091512Y0045735D01*
X0093046Y0045735D02*
X0094581Y0044200D01*
X0096116Y0044200D02*
X0099185Y0048804D01*
X0096116Y0048804D02*
X0099185Y0044200D01*
X0091512Y0044200D02*
X0091512Y0048804D01*
X0092046Y0034804D02*
X0092046Y0030200D01*
X0095116Y0030200D02*
X0098185Y0034804D01*
X0095116Y0034804D02*
X0098185Y0030200D01*
X0093581Y0034804D02*
X0090512Y0034804D01*
X0096817Y0137018D02*
X0096817Y0138769D01*
X0097401Y0139353D01*
X0098568Y0139353D01*
X0099152Y0138769D01*
X0099152Y0137018D01*
X0099152Y0138186D02*
X0100320Y0139353D01*
X0100320Y0140609D02*
X0100320Y0142944D01*
X0100320Y0141777D02*
X0096817Y0141777D01*
X0097984Y0140609D01*
X0096817Y0137018D02*
X0100320Y0137018D01*
X0059320Y0143517D02*
X0055717Y0143517D01*
X0055717Y0145919D01*
X0056918Y0147200D02*
X0055717Y0148401D01*
X0059320Y0148401D01*
X0059320Y0147200D02*
X0059320Y0149602D01*
X0057518Y0144718D02*
X0057518Y0143517D01*
X0067279Y0196200D02*
X0068814Y0196200D01*
X0069581Y0196967D01*
X0069581Y0200037D01*
X0068814Y0200804D01*
X0067279Y0200804D01*
X0066512Y0200037D01*
X0066512Y0196967D01*
X0067279Y0196200D01*
X0071116Y0196200D02*
X0071116Y0200804D01*
X0074185Y0196200D01*
X0074185Y0200804D01*
X0029809Y0211200D02*
X0028274Y0212735D01*
X0029041Y0212735D02*
X0026739Y0212735D01*
X0026739Y0211200D02*
X0026739Y0215804D01*
X0029041Y0215804D01*
X0029809Y0215037D01*
X0029809Y0213502D01*
X0029041Y0212735D01*
X0025205Y0211200D02*
X0022135Y0211200D01*
X0022135Y0215804D01*
X0025205Y0215804D01*
X0023670Y0213502D02*
X0022135Y0213502D01*
X0020601Y0211200D02*
X0020601Y0215804D01*
X0017531Y0215804D02*
X0017531Y0211200D01*
X0019066Y0212735D01*
X0020601Y0211200D01*
X0015997Y0211967D02*
X0015997Y0215037D01*
X0015229Y0215804D01*
X0013695Y0215804D01*
X0012928Y0215037D01*
X0012928Y0211967D01*
X0013695Y0211200D01*
X0015229Y0211200D01*
X0015997Y0211967D01*
X0011393Y0213502D02*
X0010626Y0212735D01*
X0008324Y0212735D01*
X0008324Y0211200D02*
X0008324Y0215804D01*
X0010626Y0215804D01*
X0011393Y0215037D01*
X0011393Y0213502D01*
X0006789Y0215804D02*
X0005254Y0215804D01*
X0006022Y0215804D02*
X0006022Y0211967D01*
X0005254Y0211200D01*
X0004487Y0211200D01*
X0003720Y0211967D01*
D12*
X0070020Y0184500D02*
X0083020Y0184500D01*
X0083107Y0184498D01*
X0083194Y0184492D01*
X0083281Y0184483D01*
X0083367Y0184470D01*
X0083453Y0184453D01*
X0083538Y0184432D01*
X0083621Y0184407D01*
X0083704Y0184379D01*
X0083785Y0184348D01*
X0083865Y0184313D01*
X0083943Y0184274D01*
X0084020Y0184232D01*
X0084095Y0184187D01*
X0084167Y0184138D01*
X0084238Y0184087D01*
X0084306Y0184032D01*
X0084371Y0183975D01*
X0084434Y0183914D01*
X0084495Y0183851D01*
X0084552Y0183786D01*
X0084607Y0183718D01*
X0084658Y0183647D01*
X0084707Y0183575D01*
X0084752Y0183500D01*
X0084794Y0183423D01*
X0084833Y0183345D01*
X0084868Y0183265D01*
X0084899Y0183184D01*
X0084927Y0183101D01*
X0084952Y0183018D01*
X0084973Y0182933D01*
X0084990Y0182847D01*
X0085003Y0182761D01*
X0085012Y0182674D01*
X0085018Y0182587D01*
X0085020Y0182500D01*
X0081520Y0180000D02*
X0077820Y0180000D01*
X0075320Y0180000D02*
X0071520Y0180000D01*
X0068020Y0177500D02*
X0068022Y0177413D01*
X0068028Y0177326D01*
X0068037Y0177239D01*
X0068050Y0177153D01*
X0068067Y0177067D01*
X0068088Y0176982D01*
X0068113Y0176899D01*
X0068141Y0176816D01*
X0068172Y0176735D01*
X0068207Y0176655D01*
X0068246Y0176577D01*
X0068288Y0176500D01*
X0068333Y0176425D01*
X0068382Y0176353D01*
X0068433Y0176282D01*
X0068488Y0176214D01*
X0068545Y0176149D01*
X0068606Y0176086D01*
X0068669Y0176025D01*
X0068734Y0175968D01*
X0068802Y0175913D01*
X0068873Y0175862D01*
X0068945Y0175813D01*
X0069020Y0175768D01*
X0069097Y0175726D01*
X0069175Y0175687D01*
X0069255Y0175652D01*
X0069336Y0175621D01*
X0069419Y0175593D01*
X0069502Y0175568D01*
X0069587Y0175547D01*
X0069673Y0175530D01*
X0069759Y0175517D01*
X0069846Y0175508D01*
X0069933Y0175502D01*
X0070020Y0175500D01*
X0083020Y0175500D01*
X0083107Y0175502D01*
X0083194Y0175508D01*
X0083281Y0175517D01*
X0083367Y0175530D01*
X0083453Y0175547D01*
X0083538Y0175568D01*
X0083621Y0175593D01*
X0083704Y0175621D01*
X0083785Y0175652D01*
X0083865Y0175687D01*
X0083943Y0175726D01*
X0084020Y0175768D01*
X0084095Y0175813D01*
X0084167Y0175862D01*
X0084238Y0175913D01*
X0084306Y0175968D01*
X0084371Y0176025D01*
X0084434Y0176086D01*
X0084495Y0176149D01*
X0084552Y0176214D01*
X0084607Y0176282D01*
X0084658Y0176353D01*
X0084707Y0176425D01*
X0084752Y0176500D01*
X0084794Y0176577D01*
X0084833Y0176655D01*
X0084868Y0176735D01*
X0084899Y0176816D01*
X0084927Y0176899D01*
X0084952Y0176982D01*
X0084973Y0177067D01*
X0084990Y0177153D01*
X0085003Y0177239D01*
X0085012Y0177326D01*
X0085018Y0177413D01*
X0085020Y0177500D01*
X0086520Y0166000D02*
X0075020Y0166000D01*
X0086520Y0166000D02*
X0087520Y0165000D01*
X0087520Y0127000D01*
X0086520Y0126000D01*
X0075020Y0126000D01*
X0081020Y0114500D02*
X0068020Y0114500D01*
X0067933Y0114498D01*
X0067846Y0114492D01*
X0067759Y0114483D01*
X0067673Y0114470D01*
X0067587Y0114453D01*
X0067502Y0114432D01*
X0067419Y0114407D01*
X0067336Y0114379D01*
X0067255Y0114348D01*
X0067175Y0114313D01*
X0067097Y0114274D01*
X0067020Y0114232D01*
X0066945Y0114187D01*
X0066873Y0114138D01*
X0066802Y0114087D01*
X0066734Y0114032D01*
X0066669Y0113975D01*
X0066606Y0113914D01*
X0066545Y0113851D01*
X0066488Y0113786D01*
X0066433Y0113718D01*
X0066382Y0113647D01*
X0066333Y0113575D01*
X0066288Y0113500D01*
X0066246Y0113423D01*
X0066207Y0113345D01*
X0066172Y0113265D01*
X0066141Y0113184D01*
X0066113Y0113101D01*
X0066088Y0113018D01*
X0066067Y0112933D01*
X0066050Y0112847D01*
X0066037Y0112761D01*
X0066028Y0112674D01*
X0066022Y0112587D01*
X0066020Y0112500D01*
X0069520Y0110000D02*
X0073320Y0110000D01*
X0075820Y0110000D02*
X0079520Y0110000D01*
X0083020Y0107500D02*
X0083018Y0107413D01*
X0083012Y0107326D01*
X0083003Y0107239D01*
X0082990Y0107153D01*
X0082973Y0107067D01*
X0082952Y0106982D01*
X0082927Y0106899D01*
X0082899Y0106816D01*
X0082868Y0106735D01*
X0082833Y0106655D01*
X0082794Y0106577D01*
X0082752Y0106500D01*
X0082707Y0106425D01*
X0082658Y0106353D01*
X0082607Y0106282D01*
X0082552Y0106214D01*
X0082495Y0106149D01*
X0082434Y0106086D01*
X0082371Y0106025D01*
X0082306Y0105968D01*
X0082238Y0105913D01*
X0082167Y0105862D01*
X0082095Y0105813D01*
X0082020Y0105768D01*
X0081943Y0105726D01*
X0081865Y0105687D01*
X0081785Y0105652D01*
X0081704Y0105621D01*
X0081621Y0105593D01*
X0081538Y0105568D01*
X0081453Y0105547D01*
X0081367Y0105530D01*
X0081281Y0105517D01*
X0081194Y0105508D01*
X0081107Y0105502D01*
X0081020Y0105500D01*
X0068020Y0105500D01*
X0067933Y0105502D01*
X0067846Y0105508D01*
X0067759Y0105517D01*
X0067673Y0105530D01*
X0067587Y0105547D01*
X0067502Y0105568D01*
X0067419Y0105593D01*
X0067336Y0105621D01*
X0067255Y0105652D01*
X0067175Y0105687D01*
X0067097Y0105726D01*
X0067020Y0105768D01*
X0066945Y0105813D01*
X0066873Y0105862D01*
X0066802Y0105913D01*
X0066734Y0105968D01*
X0066669Y0106025D01*
X0066606Y0106086D01*
X0066545Y0106149D01*
X0066488Y0106214D01*
X0066433Y0106282D01*
X0066382Y0106353D01*
X0066333Y0106425D01*
X0066288Y0106500D01*
X0066246Y0106577D01*
X0066207Y0106655D01*
X0066172Y0106735D01*
X0066141Y0106816D01*
X0066113Y0106899D01*
X0066088Y0106982D01*
X0066067Y0107067D01*
X0066050Y0107153D01*
X0066037Y0107239D01*
X0066028Y0107326D01*
X0066022Y0107413D01*
X0066020Y0107500D01*
X0081020Y0114500D02*
X0081107Y0114498D01*
X0081194Y0114492D01*
X0081281Y0114483D01*
X0081367Y0114470D01*
X0081453Y0114453D01*
X0081538Y0114432D01*
X0081621Y0114407D01*
X0081704Y0114379D01*
X0081785Y0114348D01*
X0081865Y0114313D01*
X0081943Y0114274D01*
X0082020Y0114232D01*
X0082095Y0114187D01*
X0082167Y0114138D01*
X0082238Y0114087D01*
X0082306Y0114032D01*
X0082371Y0113975D01*
X0082434Y0113914D01*
X0082495Y0113851D01*
X0082552Y0113786D01*
X0082607Y0113718D01*
X0082658Y0113647D01*
X0082707Y0113575D01*
X0082752Y0113500D01*
X0082794Y0113423D01*
X0082833Y0113345D01*
X0082868Y0113265D01*
X0082899Y0113184D01*
X0082927Y0113101D01*
X0082952Y0113018D01*
X0082973Y0112933D01*
X0082990Y0112847D01*
X0083003Y0112761D01*
X0083012Y0112674D01*
X0083018Y0112587D01*
X0083020Y0112500D01*
X0097020Y0112500D02*
X0097022Y0112587D01*
X0097028Y0112674D01*
X0097037Y0112761D01*
X0097050Y0112847D01*
X0097067Y0112933D01*
X0097088Y0113018D01*
X0097113Y0113101D01*
X0097141Y0113184D01*
X0097172Y0113265D01*
X0097207Y0113345D01*
X0097246Y0113423D01*
X0097288Y0113500D01*
X0097333Y0113575D01*
X0097382Y0113647D01*
X0097433Y0113718D01*
X0097488Y0113786D01*
X0097545Y0113851D01*
X0097606Y0113914D01*
X0097669Y0113975D01*
X0097734Y0114032D01*
X0097802Y0114087D01*
X0097873Y0114138D01*
X0097945Y0114187D01*
X0098020Y0114232D01*
X0098097Y0114274D01*
X0098175Y0114313D01*
X0098255Y0114348D01*
X0098336Y0114379D01*
X0098419Y0114407D01*
X0098502Y0114432D01*
X0098587Y0114453D01*
X0098673Y0114470D01*
X0098759Y0114483D01*
X0098846Y0114492D01*
X0098933Y0114498D01*
X0099020Y0114500D01*
X0112020Y0114500D01*
X0112107Y0114498D01*
X0112194Y0114492D01*
X0112281Y0114483D01*
X0112367Y0114470D01*
X0112453Y0114453D01*
X0112538Y0114432D01*
X0112621Y0114407D01*
X0112704Y0114379D01*
X0112785Y0114348D01*
X0112865Y0114313D01*
X0112943Y0114274D01*
X0113020Y0114232D01*
X0113095Y0114187D01*
X0113167Y0114138D01*
X0113238Y0114087D01*
X0113306Y0114032D01*
X0113371Y0113975D01*
X0113434Y0113914D01*
X0113495Y0113851D01*
X0113552Y0113786D01*
X0113607Y0113718D01*
X0113658Y0113647D01*
X0113707Y0113575D01*
X0113752Y0113500D01*
X0113794Y0113423D01*
X0113833Y0113345D01*
X0113868Y0113265D01*
X0113899Y0113184D01*
X0113927Y0113101D01*
X0113952Y0113018D01*
X0113973Y0112933D01*
X0113990Y0112847D01*
X0114003Y0112761D01*
X0114012Y0112674D01*
X0114018Y0112587D01*
X0114020Y0112500D01*
X0110520Y0110000D02*
X0106820Y0110000D01*
X0104320Y0110000D02*
X0100520Y0110000D01*
X0097020Y0107500D02*
X0097022Y0107413D01*
X0097028Y0107326D01*
X0097037Y0107239D01*
X0097050Y0107153D01*
X0097067Y0107067D01*
X0097088Y0106982D01*
X0097113Y0106899D01*
X0097141Y0106816D01*
X0097172Y0106735D01*
X0097207Y0106655D01*
X0097246Y0106577D01*
X0097288Y0106500D01*
X0097333Y0106425D01*
X0097382Y0106353D01*
X0097433Y0106282D01*
X0097488Y0106214D01*
X0097545Y0106149D01*
X0097606Y0106086D01*
X0097669Y0106025D01*
X0097734Y0105968D01*
X0097802Y0105913D01*
X0097873Y0105862D01*
X0097945Y0105813D01*
X0098020Y0105768D01*
X0098097Y0105726D01*
X0098175Y0105687D01*
X0098255Y0105652D01*
X0098336Y0105621D01*
X0098419Y0105593D01*
X0098502Y0105568D01*
X0098587Y0105547D01*
X0098673Y0105530D01*
X0098759Y0105517D01*
X0098846Y0105508D01*
X0098933Y0105502D01*
X0099020Y0105500D01*
X0112020Y0105500D01*
X0112107Y0105502D01*
X0112194Y0105508D01*
X0112281Y0105517D01*
X0112367Y0105530D01*
X0112453Y0105547D01*
X0112538Y0105568D01*
X0112621Y0105593D01*
X0112704Y0105621D01*
X0112785Y0105652D01*
X0112865Y0105687D01*
X0112943Y0105726D01*
X0113020Y0105768D01*
X0113095Y0105813D01*
X0113167Y0105862D01*
X0113238Y0105913D01*
X0113306Y0105968D01*
X0113371Y0106025D01*
X0113434Y0106086D01*
X0113495Y0106149D01*
X0113552Y0106214D01*
X0113607Y0106282D01*
X0113658Y0106353D01*
X0113707Y0106425D01*
X0113752Y0106500D01*
X0113794Y0106577D01*
X0113833Y0106655D01*
X0113868Y0106735D01*
X0113899Y0106816D01*
X0113927Y0106899D01*
X0113952Y0106982D01*
X0113973Y0107067D01*
X0113990Y0107153D01*
X0114003Y0107239D01*
X0114012Y0107326D01*
X0114018Y0107413D01*
X0114020Y0107500D01*
X0115020Y0097500D02*
X0116520Y0097500D01*
X0117020Y0097000D01*
X0136020Y0097000D01*
X0136520Y0097500D01*
X0138020Y0097500D01*
X0138080Y0097498D01*
X0138141Y0097493D01*
X0138200Y0097484D01*
X0138259Y0097471D01*
X0138318Y0097455D01*
X0138375Y0097435D01*
X0138430Y0097412D01*
X0138485Y0097385D01*
X0138537Y0097356D01*
X0138588Y0097323D01*
X0138637Y0097287D01*
X0138683Y0097249D01*
X0138727Y0097207D01*
X0138769Y0097163D01*
X0138807Y0097117D01*
X0138843Y0097068D01*
X0138876Y0097017D01*
X0138905Y0096965D01*
X0138932Y0096910D01*
X0138955Y0096855D01*
X0138975Y0096798D01*
X0138991Y0096739D01*
X0139004Y0096680D01*
X0139013Y0096621D01*
X0139018Y0096560D01*
X0139020Y0096500D01*
X0139020Y0089500D01*
X0139018Y0089440D01*
X0139013Y0089379D01*
X0139004Y0089320D01*
X0138991Y0089261D01*
X0138975Y0089202D01*
X0138955Y0089145D01*
X0138932Y0089090D01*
X0138905Y0089035D01*
X0138876Y0088983D01*
X0138843Y0088932D01*
X0138807Y0088883D01*
X0138769Y0088837D01*
X0138727Y0088793D01*
X0138683Y0088751D01*
X0138637Y0088713D01*
X0138588Y0088677D01*
X0138537Y0088644D01*
X0138485Y0088615D01*
X0138430Y0088588D01*
X0138375Y0088565D01*
X0138318Y0088545D01*
X0138259Y0088529D01*
X0138200Y0088516D01*
X0138141Y0088507D01*
X0138080Y0088502D01*
X0138020Y0088500D01*
X0136520Y0088500D01*
X0136020Y0089000D01*
X0117020Y0089000D01*
X0116520Y0088500D01*
X0115020Y0088500D01*
X0114960Y0088502D01*
X0114899Y0088507D01*
X0114840Y0088516D01*
X0114781Y0088529D01*
X0114722Y0088545D01*
X0114665Y0088565D01*
X0114610Y0088588D01*
X0114555Y0088615D01*
X0114503Y0088644D01*
X0114452Y0088677D01*
X0114403Y0088713D01*
X0114357Y0088751D01*
X0114313Y0088793D01*
X0114271Y0088837D01*
X0114233Y0088883D01*
X0114197Y0088932D01*
X0114164Y0088983D01*
X0114135Y0089035D01*
X0114108Y0089090D01*
X0114085Y0089145D01*
X0114065Y0089202D01*
X0114049Y0089261D01*
X0114036Y0089320D01*
X0114027Y0089379D01*
X0114022Y0089440D01*
X0114020Y0089500D01*
X0114020Y0096500D01*
X0114022Y0096560D01*
X0114027Y0096621D01*
X0114036Y0096680D01*
X0114049Y0096739D01*
X0114065Y0096798D01*
X0114085Y0096855D01*
X0114108Y0096910D01*
X0114135Y0096965D01*
X0114164Y0097017D01*
X0114197Y0097068D01*
X0114233Y0097117D01*
X0114271Y0097163D01*
X0114313Y0097207D01*
X0114357Y0097249D01*
X0114403Y0097287D01*
X0114452Y0097323D01*
X0114503Y0097356D01*
X0114555Y0097385D01*
X0114610Y0097412D01*
X0114665Y0097435D01*
X0114722Y0097455D01*
X0114781Y0097471D01*
X0114840Y0097484D01*
X0114899Y0097493D01*
X0114960Y0097498D01*
X0115020Y0097500D01*
X0130020Y0105500D02*
X0143020Y0105500D01*
X0143107Y0105502D01*
X0143194Y0105508D01*
X0143281Y0105517D01*
X0143367Y0105530D01*
X0143453Y0105547D01*
X0143538Y0105568D01*
X0143621Y0105593D01*
X0143704Y0105621D01*
X0143785Y0105652D01*
X0143865Y0105687D01*
X0143943Y0105726D01*
X0144020Y0105768D01*
X0144095Y0105813D01*
X0144167Y0105862D01*
X0144238Y0105913D01*
X0144306Y0105968D01*
X0144371Y0106025D01*
X0144434Y0106086D01*
X0144495Y0106149D01*
X0144552Y0106214D01*
X0144607Y0106282D01*
X0144658Y0106353D01*
X0144707Y0106425D01*
X0144752Y0106500D01*
X0144794Y0106577D01*
X0144833Y0106655D01*
X0144868Y0106735D01*
X0144899Y0106816D01*
X0144927Y0106899D01*
X0144952Y0106982D01*
X0144973Y0107067D01*
X0144990Y0107153D01*
X0145003Y0107239D01*
X0145012Y0107326D01*
X0145018Y0107413D01*
X0145020Y0107500D01*
X0141520Y0110000D02*
X0137820Y0110000D01*
X0135320Y0110000D02*
X0131520Y0110000D01*
X0128020Y0107500D02*
X0128022Y0107413D01*
X0128028Y0107326D01*
X0128037Y0107239D01*
X0128050Y0107153D01*
X0128067Y0107067D01*
X0128088Y0106982D01*
X0128113Y0106899D01*
X0128141Y0106816D01*
X0128172Y0106735D01*
X0128207Y0106655D01*
X0128246Y0106577D01*
X0128288Y0106500D01*
X0128333Y0106425D01*
X0128382Y0106353D01*
X0128433Y0106282D01*
X0128488Y0106214D01*
X0128545Y0106149D01*
X0128606Y0106086D01*
X0128669Y0106025D01*
X0128734Y0105968D01*
X0128802Y0105913D01*
X0128873Y0105862D01*
X0128945Y0105813D01*
X0129020Y0105768D01*
X0129097Y0105726D01*
X0129175Y0105687D01*
X0129255Y0105652D01*
X0129336Y0105621D01*
X0129419Y0105593D01*
X0129502Y0105568D01*
X0129587Y0105547D01*
X0129673Y0105530D01*
X0129759Y0105517D01*
X0129846Y0105508D01*
X0129933Y0105502D01*
X0130020Y0105500D01*
X0128020Y0112500D02*
X0128022Y0112587D01*
X0128028Y0112674D01*
X0128037Y0112761D01*
X0128050Y0112847D01*
X0128067Y0112933D01*
X0128088Y0113018D01*
X0128113Y0113101D01*
X0128141Y0113184D01*
X0128172Y0113265D01*
X0128207Y0113345D01*
X0128246Y0113423D01*
X0128288Y0113500D01*
X0128333Y0113575D01*
X0128382Y0113647D01*
X0128433Y0113718D01*
X0128488Y0113786D01*
X0128545Y0113851D01*
X0128606Y0113914D01*
X0128669Y0113975D01*
X0128734Y0114032D01*
X0128802Y0114087D01*
X0128873Y0114138D01*
X0128945Y0114187D01*
X0129020Y0114232D01*
X0129097Y0114274D01*
X0129175Y0114313D01*
X0129255Y0114348D01*
X0129336Y0114379D01*
X0129419Y0114407D01*
X0129502Y0114432D01*
X0129587Y0114453D01*
X0129673Y0114470D01*
X0129759Y0114483D01*
X0129846Y0114492D01*
X0129933Y0114498D01*
X0130020Y0114500D01*
X0143020Y0114500D01*
X0143107Y0114498D01*
X0143194Y0114492D01*
X0143281Y0114483D01*
X0143367Y0114470D01*
X0143453Y0114453D01*
X0143538Y0114432D01*
X0143621Y0114407D01*
X0143704Y0114379D01*
X0143785Y0114348D01*
X0143865Y0114313D01*
X0143943Y0114274D01*
X0144020Y0114232D01*
X0144095Y0114187D01*
X0144167Y0114138D01*
X0144238Y0114087D01*
X0144306Y0114032D01*
X0144371Y0113975D01*
X0144434Y0113914D01*
X0144495Y0113851D01*
X0144552Y0113786D01*
X0144607Y0113718D01*
X0144658Y0113647D01*
X0144707Y0113575D01*
X0144752Y0113500D01*
X0144794Y0113423D01*
X0144833Y0113345D01*
X0144868Y0113265D01*
X0144899Y0113184D01*
X0144927Y0113101D01*
X0144952Y0113018D01*
X0144973Y0112933D01*
X0144990Y0112847D01*
X0145003Y0112761D01*
X0145012Y0112674D01*
X0145018Y0112587D01*
X0145020Y0112500D01*
X0159020Y0112500D02*
X0159022Y0112587D01*
X0159028Y0112674D01*
X0159037Y0112761D01*
X0159050Y0112847D01*
X0159067Y0112933D01*
X0159088Y0113018D01*
X0159113Y0113101D01*
X0159141Y0113184D01*
X0159172Y0113265D01*
X0159207Y0113345D01*
X0159246Y0113423D01*
X0159288Y0113500D01*
X0159333Y0113575D01*
X0159382Y0113647D01*
X0159433Y0113718D01*
X0159488Y0113786D01*
X0159545Y0113851D01*
X0159606Y0113914D01*
X0159669Y0113975D01*
X0159734Y0114032D01*
X0159802Y0114087D01*
X0159873Y0114138D01*
X0159945Y0114187D01*
X0160020Y0114232D01*
X0160097Y0114274D01*
X0160175Y0114313D01*
X0160255Y0114348D01*
X0160336Y0114379D01*
X0160419Y0114407D01*
X0160502Y0114432D01*
X0160587Y0114453D01*
X0160673Y0114470D01*
X0160759Y0114483D01*
X0160846Y0114492D01*
X0160933Y0114498D01*
X0161020Y0114500D01*
X0174020Y0114500D01*
X0174107Y0114498D01*
X0174194Y0114492D01*
X0174281Y0114483D01*
X0174367Y0114470D01*
X0174453Y0114453D01*
X0174538Y0114432D01*
X0174621Y0114407D01*
X0174704Y0114379D01*
X0174785Y0114348D01*
X0174865Y0114313D01*
X0174943Y0114274D01*
X0175020Y0114232D01*
X0175095Y0114187D01*
X0175167Y0114138D01*
X0175238Y0114087D01*
X0175306Y0114032D01*
X0175371Y0113975D01*
X0175434Y0113914D01*
X0175495Y0113851D01*
X0175552Y0113786D01*
X0175607Y0113718D01*
X0175658Y0113647D01*
X0175707Y0113575D01*
X0175752Y0113500D01*
X0175794Y0113423D01*
X0175833Y0113345D01*
X0175868Y0113265D01*
X0175899Y0113184D01*
X0175927Y0113101D01*
X0175952Y0113018D01*
X0175973Y0112933D01*
X0175990Y0112847D01*
X0176003Y0112761D01*
X0176012Y0112674D01*
X0176018Y0112587D01*
X0176020Y0112500D01*
X0172520Y0110000D02*
X0168820Y0110000D01*
X0166320Y0110000D02*
X0162520Y0110000D01*
X0159020Y0107500D02*
X0159022Y0107413D01*
X0159028Y0107326D01*
X0159037Y0107239D01*
X0159050Y0107153D01*
X0159067Y0107067D01*
X0159088Y0106982D01*
X0159113Y0106899D01*
X0159141Y0106816D01*
X0159172Y0106735D01*
X0159207Y0106655D01*
X0159246Y0106577D01*
X0159288Y0106500D01*
X0159333Y0106425D01*
X0159382Y0106353D01*
X0159433Y0106282D01*
X0159488Y0106214D01*
X0159545Y0106149D01*
X0159606Y0106086D01*
X0159669Y0106025D01*
X0159734Y0105968D01*
X0159802Y0105913D01*
X0159873Y0105862D01*
X0159945Y0105813D01*
X0160020Y0105768D01*
X0160097Y0105726D01*
X0160175Y0105687D01*
X0160255Y0105652D01*
X0160336Y0105621D01*
X0160419Y0105593D01*
X0160502Y0105568D01*
X0160587Y0105547D01*
X0160673Y0105530D01*
X0160759Y0105517D01*
X0160846Y0105508D01*
X0160933Y0105502D01*
X0161020Y0105500D01*
X0174020Y0105500D01*
X0174107Y0105502D01*
X0174194Y0105508D01*
X0174281Y0105517D01*
X0174367Y0105530D01*
X0174453Y0105547D01*
X0174538Y0105568D01*
X0174621Y0105593D01*
X0174704Y0105621D01*
X0174785Y0105652D01*
X0174865Y0105687D01*
X0174943Y0105726D01*
X0175020Y0105768D01*
X0175095Y0105813D01*
X0175167Y0105862D01*
X0175238Y0105913D01*
X0175306Y0105968D01*
X0175371Y0106025D01*
X0175434Y0106086D01*
X0175495Y0106149D01*
X0175552Y0106214D01*
X0175607Y0106282D01*
X0175658Y0106353D01*
X0175707Y0106425D01*
X0175752Y0106500D01*
X0175794Y0106577D01*
X0175833Y0106655D01*
X0175868Y0106735D01*
X0175899Y0106816D01*
X0175927Y0106899D01*
X0175952Y0106982D01*
X0175973Y0107067D01*
X0175990Y0107153D01*
X0176003Y0107239D01*
X0176012Y0107326D01*
X0176018Y0107413D01*
X0176020Y0107500D01*
X0139020Y0081500D02*
X0139020Y0074500D01*
X0139018Y0074440D01*
X0139013Y0074379D01*
X0139004Y0074320D01*
X0138991Y0074261D01*
X0138975Y0074202D01*
X0138955Y0074145D01*
X0138932Y0074090D01*
X0138905Y0074035D01*
X0138876Y0073983D01*
X0138843Y0073932D01*
X0138807Y0073883D01*
X0138769Y0073837D01*
X0138727Y0073793D01*
X0138683Y0073751D01*
X0138637Y0073713D01*
X0138588Y0073677D01*
X0138537Y0073644D01*
X0138485Y0073615D01*
X0138430Y0073588D01*
X0138375Y0073565D01*
X0138318Y0073545D01*
X0138259Y0073529D01*
X0138200Y0073516D01*
X0138141Y0073507D01*
X0138080Y0073502D01*
X0138020Y0073500D01*
X0136520Y0073500D01*
X0136020Y0074000D01*
X0117020Y0074000D01*
X0116520Y0073500D01*
X0115020Y0073500D01*
X0114960Y0073502D01*
X0114899Y0073507D01*
X0114840Y0073516D01*
X0114781Y0073529D01*
X0114722Y0073545D01*
X0114665Y0073565D01*
X0114610Y0073588D01*
X0114555Y0073615D01*
X0114503Y0073644D01*
X0114452Y0073677D01*
X0114403Y0073713D01*
X0114357Y0073751D01*
X0114313Y0073793D01*
X0114271Y0073837D01*
X0114233Y0073883D01*
X0114197Y0073932D01*
X0114164Y0073983D01*
X0114135Y0074035D01*
X0114108Y0074090D01*
X0114085Y0074145D01*
X0114065Y0074202D01*
X0114049Y0074261D01*
X0114036Y0074320D01*
X0114027Y0074379D01*
X0114022Y0074440D01*
X0114020Y0074500D01*
X0114020Y0081500D01*
X0114022Y0081560D01*
X0114027Y0081621D01*
X0114036Y0081680D01*
X0114049Y0081739D01*
X0114065Y0081798D01*
X0114085Y0081855D01*
X0114108Y0081910D01*
X0114135Y0081965D01*
X0114164Y0082017D01*
X0114197Y0082068D01*
X0114233Y0082117D01*
X0114271Y0082163D01*
X0114313Y0082207D01*
X0114357Y0082249D01*
X0114403Y0082287D01*
X0114452Y0082323D01*
X0114503Y0082356D01*
X0114555Y0082385D01*
X0114610Y0082412D01*
X0114665Y0082435D01*
X0114722Y0082455D01*
X0114781Y0082471D01*
X0114840Y0082484D01*
X0114899Y0082493D01*
X0114960Y0082498D01*
X0115020Y0082500D01*
X0116520Y0082500D01*
X0117020Y0082000D01*
X0136020Y0082000D01*
X0136520Y0082500D01*
X0138020Y0082500D01*
X0138080Y0082498D01*
X0138141Y0082493D01*
X0138200Y0082484D01*
X0138259Y0082471D01*
X0138318Y0082455D01*
X0138375Y0082435D01*
X0138430Y0082412D01*
X0138485Y0082385D01*
X0138537Y0082356D01*
X0138588Y0082323D01*
X0138637Y0082287D01*
X0138683Y0082249D01*
X0138727Y0082207D01*
X0138769Y0082163D01*
X0138807Y0082117D01*
X0138843Y0082068D01*
X0138876Y0082017D01*
X0138905Y0081965D01*
X0138932Y0081910D01*
X0138955Y0081855D01*
X0138975Y0081798D01*
X0138991Y0081739D01*
X0139004Y0081680D01*
X0139013Y0081621D01*
X0139018Y0081560D01*
X0139020Y0081500D01*
X0138020Y0068500D02*
X0136520Y0068500D01*
X0136020Y0068000D01*
X0117020Y0068000D01*
X0116520Y0068500D01*
X0115020Y0068500D01*
X0114960Y0068498D01*
X0114899Y0068493D01*
X0114840Y0068484D01*
X0114781Y0068471D01*
X0114722Y0068455D01*
X0114665Y0068435D01*
X0114610Y0068412D01*
X0114555Y0068385D01*
X0114503Y0068356D01*
X0114452Y0068323D01*
X0114403Y0068287D01*
X0114357Y0068249D01*
X0114313Y0068207D01*
X0114271Y0068163D01*
X0114233Y0068117D01*
X0114197Y0068068D01*
X0114164Y0068017D01*
X0114135Y0067965D01*
X0114108Y0067910D01*
X0114085Y0067855D01*
X0114065Y0067798D01*
X0114049Y0067739D01*
X0114036Y0067680D01*
X0114027Y0067621D01*
X0114022Y0067560D01*
X0114020Y0067500D01*
X0114020Y0060500D01*
X0114022Y0060440D01*
X0114027Y0060379D01*
X0114036Y0060320D01*
X0114049Y0060261D01*
X0114065Y0060202D01*
X0114085Y0060145D01*
X0114108Y0060090D01*
X0114135Y0060035D01*
X0114164Y0059983D01*
X0114197Y0059932D01*
X0114233Y0059883D01*
X0114271Y0059837D01*
X0114313Y0059793D01*
X0114357Y0059751D01*
X0114403Y0059713D01*
X0114452Y0059677D01*
X0114503Y0059644D01*
X0114555Y0059615D01*
X0114610Y0059588D01*
X0114665Y0059565D01*
X0114722Y0059545D01*
X0114781Y0059529D01*
X0114840Y0059516D01*
X0114899Y0059507D01*
X0114960Y0059502D01*
X0115020Y0059500D01*
X0116520Y0059500D01*
X0117020Y0060000D01*
X0136020Y0060000D01*
X0136520Y0059500D01*
X0138020Y0059500D01*
X0138080Y0059502D01*
X0138141Y0059507D01*
X0138200Y0059516D01*
X0138259Y0059529D01*
X0138318Y0059545D01*
X0138375Y0059565D01*
X0138430Y0059588D01*
X0138485Y0059615D01*
X0138537Y0059644D01*
X0138588Y0059677D01*
X0138637Y0059713D01*
X0138683Y0059751D01*
X0138727Y0059793D01*
X0138769Y0059837D01*
X0138807Y0059883D01*
X0138843Y0059932D01*
X0138876Y0059983D01*
X0138905Y0060035D01*
X0138932Y0060090D01*
X0138955Y0060145D01*
X0138975Y0060202D01*
X0138991Y0060261D01*
X0139004Y0060320D01*
X0139013Y0060379D01*
X0139018Y0060440D01*
X0139020Y0060500D01*
X0139020Y0067500D01*
X0139018Y0067560D01*
X0139013Y0067621D01*
X0139004Y0067680D01*
X0138991Y0067739D01*
X0138975Y0067798D01*
X0138955Y0067855D01*
X0138932Y0067910D01*
X0138905Y0067965D01*
X0138876Y0068017D01*
X0138843Y0068068D01*
X0138807Y0068117D01*
X0138769Y0068163D01*
X0138727Y0068207D01*
X0138683Y0068249D01*
X0138637Y0068287D01*
X0138588Y0068323D01*
X0138537Y0068356D01*
X0138485Y0068385D01*
X0138430Y0068412D01*
X0138375Y0068435D01*
X0138318Y0068455D01*
X0138259Y0068471D01*
X0138200Y0068484D01*
X0138141Y0068493D01*
X0138080Y0068498D01*
X0138020Y0068500D01*
X0138020Y0054500D02*
X0136520Y0054500D01*
X0136020Y0054000D01*
X0117020Y0054000D01*
X0116520Y0054500D01*
X0115020Y0054500D01*
X0114960Y0054498D01*
X0114899Y0054493D01*
X0114840Y0054484D01*
X0114781Y0054471D01*
X0114722Y0054455D01*
X0114665Y0054435D01*
X0114610Y0054412D01*
X0114555Y0054385D01*
X0114503Y0054356D01*
X0114452Y0054323D01*
X0114403Y0054287D01*
X0114357Y0054249D01*
X0114313Y0054207D01*
X0114271Y0054163D01*
X0114233Y0054117D01*
X0114197Y0054068D01*
X0114164Y0054017D01*
X0114135Y0053965D01*
X0114108Y0053910D01*
X0114085Y0053855D01*
X0114065Y0053798D01*
X0114049Y0053739D01*
X0114036Y0053680D01*
X0114027Y0053621D01*
X0114022Y0053560D01*
X0114020Y0053500D01*
X0114020Y0046500D01*
X0114022Y0046440D01*
X0114027Y0046379D01*
X0114036Y0046320D01*
X0114049Y0046261D01*
X0114065Y0046202D01*
X0114085Y0046145D01*
X0114108Y0046090D01*
X0114135Y0046035D01*
X0114164Y0045983D01*
X0114197Y0045932D01*
X0114233Y0045883D01*
X0114271Y0045837D01*
X0114313Y0045793D01*
X0114357Y0045751D01*
X0114403Y0045713D01*
X0114452Y0045677D01*
X0114503Y0045644D01*
X0114555Y0045615D01*
X0114610Y0045588D01*
X0114665Y0045565D01*
X0114722Y0045545D01*
X0114781Y0045529D01*
X0114840Y0045516D01*
X0114899Y0045507D01*
X0114960Y0045502D01*
X0115020Y0045500D01*
X0116520Y0045500D01*
X0117020Y0046000D01*
X0136020Y0046000D01*
X0136520Y0045500D01*
X0138020Y0045500D01*
X0138080Y0045502D01*
X0138141Y0045507D01*
X0138200Y0045516D01*
X0138259Y0045529D01*
X0138318Y0045545D01*
X0138375Y0045565D01*
X0138430Y0045588D01*
X0138485Y0045615D01*
X0138537Y0045644D01*
X0138588Y0045677D01*
X0138637Y0045713D01*
X0138683Y0045751D01*
X0138727Y0045793D01*
X0138769Y0045837D01*
X0138807Y0045883D01*
X0138843Y0045932D01*
X0138876Y0045983D01*
X0138905Y0046035D01*
X0138932Y0046090D01*
X0138955Y0046145D01*
X0138975Y0046202D01*
X0138991Y0046261D01*
X0139004Y0046320D01*
X0139013Y0046379D01*
X0139018Y0046440D01*
X0139020Y0046500D01*
X0139020Y0053500D01*
X0139018Y0053560D01*
X0139013Y0053621D01*
X0139004Y0053680D01*
X0138991Y0053739D01*
X0138975Y0053798D01*
X0138955Y0053855D01*
X0138932Y0053910D01*
X0138905Y0053965D01*
X0138876Y0054017D01*
X0138843Y0054068D01*
X0138807Y0054117D01*
X0138769Y0054163D01*
X0138727Y0054207D01*
X0138683Y0054249D01*
X0138637Y0054287D01*
X0138588Y0054323D01*
X0138537Y0054356D01*
X0138485Y0054385D01*
X0138430Y0054412D01*
X0138375Y0054435D01*
X0138318Y0054455D01*
X0138259Y0054471D01*
X0138200Y0054484D01*
X0138141Y0054493D01*
X0138080Y0054498D01*
X0138020Y0054500D01*
X0145020Y0039000D02*
X0147520Y0039000D01*
X0147580Y0038998D01*
X0147641Y0038993D01*
X0147700Y0038984D01*
X0147759Y0038971D01*
X0147818Y0038955D01*
X0147875Y0038935D01*
X0147930Y0038912D01*
X0147985Y0038885D01*
X0148037Y0038856D01*
X0148088Y0038823D01*
X0148137Y0038787D01*
X0148183Y0038749D01*
X0148227Y0038707D01*
X0148269Y0038663D01*
X0148307Y0038617D01*
X0148343Y0038568D01*
X0148376Y0038517D01*
X0148405Y0038465D01*
X0148432Y0038410D01*
X0148455Y0038355D01*
X0148475Y0038298D01*
X0148491Y0038239D01*
X0148504Y0038180D01*
X0148513Y0038121D01*
X0148518Y0038060D01*
X0148520Y0038000D01*
X0148520Y0028000D01*
X0148518Y0027940D01*
X0148513Y0027879D01*
X0148504Y0027820D01*
X0148491Y0027761D01*
X0148475Y0027702D01*
X0148455Y0027645D01*
X0148432Y0027590D01*
X0148405Y0027535D01*
X0148376Y0027483D01*
X0148343Y0027432D01*
X0148307Y0027383D01*
X0148269Y0027337D01*
X0148227Y0027293D01*
X0148183Y0027251D01*
X0148137Y0027213D01*
X0148088Y0027177D01*
X0148037Y0027144D01*
X0147985Y0027115D01*
X0147930Y0027088D01*
X0147875Y0027065D01*
X0147818Y0027045D01*
X0147759Y0027029D01*
X0147700Y0027016D01*
X0147641Y0027007D01*
X0147580Y0027002D01*
X0147520Y0027000D01*
X0145020Y0027000D01*
X0144520Y0027500D01*
X0118520Y0027500D01*
X0118020Y0027000D01*
X0115520Y0027000D01*
X0115460Y0027002D01*
X0115399Y0027007D01*
X0115340Y0027016D01*
X0115281Y0027029D01*
X0115222Y0027045D01*
X0115165Y0027065D01*
X0115110Y0027088D01*
X0115055Y0027115D01*
X0115003Y0027144D01*
X0114952Y0027177D01*
X0114903Y0027213D01*
X0114857Y0027251D01*
X0114813Y0027293D01*
X0114771Y0027337D01*
X0114733Y0027383D01*
X0114697Y0027432D01*
X0114664Y0027483D01*
X0114635Y0027535D01*
X0114608Y0027590D01*
X0114585Y0027645D01*
X0114565Y0027702D01*
X0114549Y0027761D01*
X0114536Y0027820D01*
X0114527Y0027879D01*
X0114522Y0027940D01*
X0114520Y0028000D01*
X0114520Y0038000D01*
X0114522Y0038060D01*
X0114527Y0038121D01*
X0114536Y0038180D01*
X0114549Y0038239D01*
X0114565Y0038298D01*
X0114585Y0038355D01*
X0114608Y0038410D01*
X0114635Y0038465D01*
X0114664Y0038517D01*
X0114697Y0038568D01*
X0114733Y0038617D01*
X0114771Y0038663D01*
X0114813Y0038707D01*
X0114857Y0038749D01*
X0114903Y0038787D01*
X0114952Y0038823D01*
X0115003Y0038856D01*
X0115055Y0038885D01*
X0115110Y0038912D01*
X0115165Y0038935D01*
X0115222Y0038955D01*
X0115281Y0038971D01*
X0115340Y0038984D01*
X0115399Y0038993D01*
X0115460Y0038998D01*
X0115520Y0039000D01*
X0118020Y0039000D01*
X0118520Y0038500D01*
X0144520Y0038500D01*
X0145020Y0039000D01*
X0145020Y0022000D02*
X0140020Y0022000D01*
X0137520Y0019500D01*
X0137520Y0014500D01*
X0135020Y0012000D01*
X0130020Y0012000D01*
X0127520Y0014500D01*
X0125020Y0012000D01*
X0120020Y0012000D01*
X0117520Y0014500D01*
X0115020Y0012000D01*
X0110020Y0012000D01*
X0107520Y0014500D01*
X0105020Y0012000D01*
X0100020Y0012000D01*
X0097520Y0014500D01*
X0095020Y0012000D01*
X0090020Y0012000D01*
X0087520Y0014500D01*
X0087520Y0019500D01*
X0090020Y0022000D01*
X0095020Y0022000D01*
X0097520Y0019500D01*
X0100020Y0022000D01*
X0105020Y0022000D01*
X0107520Y0019500D01*
X0107520Y0014500D01*
X0107520Y0019500D02*
X0110020Y0022000D01*
X0115020Y0022000D01*
X0117520Y0019500D01*
X0120020Y0022000D01*
X0125020Y0022000D01*
X0127520Y0019500D01*
X0130020Y0022000D01*
X0135020Y0022000D01*
X0137520Y0019500D01*
X0137520Y0014500D02*
X0140020Y0012000D01*
X0145020Y0012000D01*
X0147520Y0014500D01*
X0150020Y0012000D01*
X0155020Y0012000D01*
X0157520Y0014500D01*
X0160020Y0012000D01*
X0165020Y0012000D01*
X0167520Y0014500D01*
X0167520Y0019500D01*
X0165020Y0022000D01*
X0160020Y0022000D01*
X0157520Y0019500D01*
X0157520Y0014500D01*
X0157520Y0019500D02*
X0155020Y0022000D01*
X0150020Y0022000D01*
X0147520Y0019500D01*
X0147520Y0014500D01*
X0147520Y0019500D02*
X0145020Y0022000D01*
X0127520Y0019500D02*
X0127520Y0014500D01*
X0117520Y0014500D02*
X0117520Y0019500D01*
X0097520Y0019500D02*
X0097520Y0014500D01*
X0081520Y0013000D02*
X0081520Y0021000D01*
X0080520Y0022000D01*
X0072520Y0022000D01*
X0071520Y0021000D01*
X0070520Y0022000D01*
X0062520Y0022000D01*
X0061520Y0021000D01*
X0061520Y0013000D01*
X0062520Y0012000D01*
X0070520Y0012000D01*
X0071520Y0013000D01*
X0072520Y0012000D01*
X0080520Y0012000D01*
X0081520Y0013000D01*
X0174520Y0014500D02*
X0177020Y0012000D01*
X0182020Y0012000D01*
X0184520Y0014500D01*
X0187020Y0012000D01*
X0192020Y0012000D01*
X0194520Y0014500D01*
X0194520Y0019500D01*
X0192020Y0022000D01*
X0187020Y0022000D01*
X0184520Y0019500D01*
X0184520Y0014500D01*
X0184520Y0019500D02*
X0182020Y0022000D01*
X0177020Y0022000D01*
X0174520Y0019500D01*
X0174520Y0014500D01*
X0194520Y0014500D02*
X0197020Y0012000D01*
X0202020Y0012000D01*
X0204520Y0014500D01*
X0207020Y0012000D01*
X0212020Y0012000D01*
X0214520Y0014500D01*
X0217020Y0012000D01*
X0222020Y0012000D01*
X0224520Y0014500D01*
X0224520Y0019500D01*
X0222020Y0022000D01*
X0217020Y0022000D01*
X0214520Y0019500D01*
X0214520Y0014500D01*
X0214520Y0019500D02*
X0212020Y0022000D01*
X0207020Y0022000D01*
X0204520Y0019500D01*
X0204520Y0014500D01*
X0204520Y0019500D02*
X0202020Y0022000D01*
X0197020Y0022000D01*
X0194520Y0019500D01*
X0224520Y0019500D02*
X0227020Y0022000D01*
X0232020Y0022000D01*
X0234520Y0019500D01*
X0237020Y0022000D01*
X0242020Y0022000D01*
X0244520Y0019500D01*
X0247020Y0022000D01*
X0252020Y0022000D01*
X0254520Y0019500D01*
X0254520Y0014500D01*
X0252020Y0012000D01*
X0247020Y0012000D01*
X0244520Y0014500D01*
X0242020Y0012000D01*
X0237020Y0012000D01*
X0234520Y0014500D01*
X0232020Y0012000D01*
X0227020Y0012000D01*
X0224520Y0014500D01*
X0234520Y0014500D02*
X0234520Y0019500D01*
X0244520Y0019500D02*
X0244520Y0014500D01*
X0259820Y0012368D02*
X0260887Y0011300D01*
X0263022Y0011300D01*
X0264090Y0012368D01*
X0264090Y0014503D01*
X0261955Y0014503D01*
X0264090Y0016638D02*
X0263022Y0017705D01*
X0260887Y0017705D01*
X0259820Y0016638D01*
X0259820Y0012368D01*
X0266265Y0011300D02*
X0269468Y0011300D01*
X0270535Y0012368D01*
X0270535Y0013435D01*
X0269468Y0014503D01*
X0266265Y0014503D01*
X0266265Y0017705D02*
X0266265Y0011300D01*
X0269468Y0014503D02*
X0270535Y0015570D01*
X0270535Y0016638D01*
X0269468Y0017705D01*
X0266265Y0017705D01*
X0268020Y0022000D02*
X0263020Y0022000D01*
X0260520Y0024500D01*
X0260520Y0029500D01*
X0263020Y0032000D01*
X0260520Y0034500D01*
X0260520Y0039500D01*
X0263020Y0042000D01*
X0268020Y0042000D01*
X0270520Y0039500D01*
X0270520Y0034500D01*
X0268020Y0032000D01*
X0270520Y0029500D01*
X0270520Y0024500D01*
X0268020Y0022000D01*
X0268020Y0032000D02*
X0263020Y0032000D01*
X0263020Y0042000D02*
X0260520Y0044500D01*
X0260520Y0049500D01*
X0263020Y0052000D01*
X0260520Y0054500D01*
X0260520Y0059500D01*
X0263020Y0062000D01*
X0260520Y0064500D01*
X0260520Y0069500D01*
X0263020Y0072000D01*
X0268020Y0072000D01*
X0270520Y0069500D01*
X0270520Y0064500D01*
X0268020Y0062000D01*
X0270520Y0059500D01*
X0270520Y0054500D01*
X0268020Y0052000D01*
X0270520Y0049500D01*
X0270520Y0044500D01*
X0268020Y0042000D01*
X0268020Y0052000D02*
X0263020Y0052000D01*
X0263020Y0062000D02*
X0268020Y0062000D01*
X0268020Y0072000D02*
X0270520Y0074500D01*
X0270520Y0079500D01*
X0268020Y0082000D01*
X0270520Y0084500D01*
X0270520Y0089500D01*
X0268020Y0092000D01*
X0270520Y0094500D01*
X0270520Y0099500D01*
X0268020Y0102000D01*
X0263020Y0102000D01*
X0260520Y0099500D01*
X0260520Y0094500D01*
X0263020Y0092000D01*
X0268020Y0092000D01*
X0263020Y0092000D02*
X0260520Y0089500D01*
X0260520Y0084500D01*
X0263020Y0082000D01*
X0268020Y0082000D01*
X0263020Y0082000D02*
X0260520Y0079500D01*
X0260520Y0074500D01*
X0263020Y0072000D01*
X0202020Y0068500D02*
X0189020Y0068500D01*
X0188933Y0068498D01*
X0188846Y0068492D01*
X0188759Y0068483D01*
X0188673Y0068470D01*
X0188587Y0068453D01*
X0188502Y0068432D01*
X0188419Y0068407D01*
X0188336Y0068379D01*
X0188255Y0068348D01*
X0188175Y0068313D01*
X0188097Y0068274D01*
X0188020Y0068232D01*
X0187945Y0068187D01*
X0187873Y0068138D01*
X0187802Y0068087D01*
X0187734Y0068032D01*
X0187669Y0067975D01*
X0187606Y0067914D01*
X0187545Y0067851D01*
X0187488Y0067786D01*
X0187433Y0067718D01*
X0187382Y0067647D01*
X0187333Y0067575D01*
X0187288Y0067500D01*
X0187246Y0067423D01*
X0187207Y0067345D01*
X0187172Y0067265D01*
X0187141Y0067184D01*
X0187113Y0067101D01*
X0187088Y0067018D01*
X0187067Y0066933D01*
X0187050Y0066847D01*
X0187037Y0066761D01*
X0187028Y0066674D01*
X0187022Y0066587D01*
X0187020Y0066500D01*
X0190520Y0064000D02*
X0194220Y0064000D01*
X0196720Y0064000D02*
X0200520Y0064000D01*
X0204020Y0066500D02*
X0204018Y0066587D01*
X0204012Y0066674D01*
X0204003Y0066761D01*
X0203990Y0066847D01*
X0203973Y0066933D01*
X0203952Y0067018D01*
X0203927Y0067101D01*
X0203899Y0067184D01*
X0203868Y0067265D01*
X0203833Y0067345D01*
X0203794Y0067423D01*
X0203752Y0067500D01*
X0203707Y0067575D01*
X0203658Y0067647D01*
X0203607Y0067718D01*
X0203552Y0067786D01*
X0203495Y0067851D01*
X0203434Y0067914D01*
X0203371Y0067975D01*
X0203306Y0068032D01*
X0203238Y0068087D01*
X0203167Y0068138D01*
X0203095Y0068187D01*
X0203020Y0068232D01*
X0202943Y0068274D01*
X0202865Y0068313D01*
X0202785Y0068348D01*
X0202704Y0068379D01*
X0202621Y0068407D01*
X0202538Y0068432D01*
X0202453Y0068453D01*
X0202367Y0068470D01*
X0202281Y0068483D01*
X0202194Y0068492D01*
X0202107Y0068498D01*
X0202020Y0068500D01*
X0204020Y0061500D02*
X0204018Y0061413D01*
X0204012Y0061326D01*
X0204003Y0061239D01*
X0203990Y0061153D01*
X0203973Y0061067D01*
X0203952Y0060982D01*
X0203927Y0060899D01*
X0203899Y0060816D01*
X0203868Y0060735D01*
X0203833Y0060655D01*
X0203794Y0060577D01*
X0203752Y0060500D01*
X0203707Y0060425D01*
X0203658Y0060353D01*
X0203607Y0060282D01*
X0203552Y0060214D01*
X0203495Y0060149D01*
X0203434Y0060086D01*
X0203371Y0060025D01*
X0203306Y0059968D01*
X0203238Y0059913D01*
X0203167Y0059862D01*
X0203095Y0059813D01*
X0203020Y0059768D01*
X0202943Y0059726D01*
X0202865Y0059687D01*
X0202785Y0059652D01*
X0202704Y0059621D01*
X0202621Y0059593D01*
X0202538Y0059568D01*
X0202453Y0059547D01*
X0202367Y0059530D01*
X0202281Y0059517D01*
X0202194Y0059508D01*
X0202107Y0059502D01*
X0202020Y0059500D01*
X0189020Y0059500D01*
X0188933Y0059502D01*
X0188846Y0059508D01*
X0188759Y0059517D01*
X0188673Y0059530D01*
X0188587Y0059547D01*
X0188502Y0059568D01*
X0188419Y0059593D01*
X0188336Y0059621D01*
X0188255Y0059652D01*
X0188175Y0059687D01*
X0188097Y0059726D01*
X0188020Y0059768D01*
X0187945Y0059813D01*
X0187873Y0059862D01*
X0187802Y0059913D01*
X0187734Y0059968D01*
X0187669Y0060025D01*
X0187606Y0060086D01*
X0187545Y0060149D01*
X0187488Y0060214D01*
X0187433Y0060282D01*
X0187382Y0060353D01*
X0187333Y0060425D01*
X0187288Y0060500D01*
X0187246Y0060577D01*
X0187207Y0060655D01*
X0187172Y0060735D01*
X0187141Y0060816D01*
X0187113Y0060899D01*
X0187088Y0060982D01*
X0187067Y0061067D01*
X0187050Y0061153D01*
X0187037Y0061239D01*
X0187028Y0061326D01*
X0187022Y0061413D01*
X0187020Y0061500D01*
X0256520Y0131000D02*
X0110520Y0131000D01*
X0110520Y0139500D01*
X0110618Y0139502D01*
X0110716Y0139508D01*
X0110814Y0139517D01*
X0110911Y0139531D01*
X0111008Y0139548D01*
X0111104Y0139569D01*
X0111199Y0139594D01*
X0111293Y0139622D01*
X0111385Y0139655D01*
X0111477Y0139690D01*
X0111567Y0139730D01*
X0111655Y0139772D01*
X0111742Y0139819D01*
X0111826Y0139868D01*
X0111909Y0139921D01*
X0111989Y0139977D01*
X0112068Y0140037D01*
X0112144Y0140099D01*
X0112217Y0140164D01*
X0112288Y0140232D01*
X0112356Y0140303D01*
X0112421Y0140376D01*
X0112483Y0140452D01*
X0112543Y0140531D01*
X0112599Y0140611D01*
X0112652Y0140694D01*
X0112701Y0140778D01*
X0112748Y0140865D01*
X0112790Y0140953D01*
X0112830Y0141043D01*
X0112865Y0141135D01*
X0112898Y0141227D01*
X0112926Y0141321D01*
X0112951Y0141416D01*
X0112972Y0141512D01*
X0112989Y0141609D01*
X0113003Y0141706D01*
X0113012Y0141804D01*
X0113018Y0141902D01*
X0113020Y0142000D01*
X0113018Y0142098D01*
X0113012Y0142196D01*
X0113003Y0142294D01*
X0112989Y0142391D01*
X0112972Y0142488D01*
X0112951Y0142584D01*
X0112926Y0142679D01*
X0112898Y0142773D01*
X0112865Y0142865D01*
X0112830Y0142957D01*
X0112790Y0143047D01*
X0112748Y0143135D01*
X0112701Y0143222D01*
X0112652Y0143306D01*
X0112599Y0143389D01*
X0112543Y0143469D01*
X0112483Y0143548D01*
X0112421Y0143624D01*
X0112356Y0143697D01*
X0112288Y0143768D01*
X0112217Y0143836D01*
X0112144Y0143901D01*
X0112068Y0143963D01*
X0111989Y0144023D01*
X0111909Y0144079D01*
X0111826Y0144132D01*
X0111742Y0144181D01*
X0111655Y0144228D01*
X0111567Y0144270D01*
X0111477Y0144310D01*
X0111385Y0144345D01*
X0111293Y0144378D01*
X0111199Y0144406D01*
X0111104Y0144431D01*
X0111008Y0144452D01*
X0110911Y0144469D01*
X0110814Y0144483D01*
X0110716Y0144492D01*
X0110618Y0144498D01*
X0110520Y0144500D01*
X0110520Y0153000D01*
X0256520Y0153000D01*
X0256520Y0131000D01*
X0263020Y0160000D02*
X0260520Y0162500D01*
X0260520Y0167500D01*
X0263020Y0170000D01*
X0260520Y0172500D01*
X0260520Y0177500D01*
X0263020Y0180000D01*
X0268020Y0180000D01*
X0270520Y0177500D01*
X0270520Y0172500D01*
X0268020Y0170000D01*
X0270520Y0167500D01*
X0270520Y0162500D01*
X0268020Y0160000D01*
X0263020Y0160000D01*
X0263020Y0170000D02*
X0268020Y0170000D01*
X0268020Y0180000D02*
X0270520Y0182500D01*
X0270520Y0187500D01*
X0268020Y0190000D01*
X0270520Y0192500D01*
X0270520Y0197500D01*
X0268020Y0200000D01*
X0270520Y0202500D01*
X0270520Y0207500D01*
X0268020Y0210000D01*
X0263020Y0210000D01*
X0260520Y0207500D01*
X0260520Y0202500D01*
X0263020Y0200000D01*
X0268020Y0200000D01*
X0263020Y0200000D02*
X0260520Y0197500D01*
X0260520Y0192500D01*
X0263020Y0190000D01*
X0268020Y0190000D01*
X0263020Y0190000D02*
X0260520Y0187500D01*
X0260520Y0182500D01*
X0263020Y0180000D01*
X0245020Y0198500D02*
X0232020Y0198500D01*
X0231933Y0198502D01*
X0231846Y0198508D01*
X0231759Y0198517D01*
X0231673Y0198530D01*
X0231587Y0198547D01*
X0231502Y0198568D01*
X0231419Y0198593D01*
X0231336Y0198621D01*
X0231255Y0198652D01*
X0231175Y0198687D01*
X0231097Y0198726D01*
X0231020Y0198768D01*
X0230945Y0198813D01*
X0230873Y0198862D01*
X0230802Y0198913D01*
X0230734Y0198968D01*
X0230669Y0199025D01*
X0230606Y0199086D01*
X0230545Y0199149D01*
X0230488Y0199214D01*
X0230433Y0199282D01*
X0230382Y0199353D01*
X0230333Y0199425D01*
X0230288Y0199500D01*
X0230246Y0199577D01*
X0230207Y0199655D01*
X0230172Y0199735D01*
X0230141Y0199816D01*
X0230113Y0199899D01*
X0230088Y0199982D01*
X0230067Y0200067D01*
X0230050Y0200153D01*
X0230037Y0200239D01*
X0230028Y0200326D01*
X0230022Y0200413D01*
X0230020Y0200500D01*
X0233520Y0203000D02*
X0237320Y0203000D01*
X0239820Y0203000D02*
X0243520Y0203000D01*
X0247020Y0205500D02*
X0247018Y0205587D01*
X0247012Y0205674D01*
X0247003Y0205761D01*
X0246990Y0205847D01*
X0246973Y0205933D01*
X0246952Y0206018D01*
X0246927Y0206101D01*
X0246899Y0206184D01*
X0246868Y0206265D01*
X0246833Y0206345D01*
X0246794Y0206423D01*
X0246752Y0206500D01*
X0246707Y0206575D01*
X0246658Y0206647D01*
X0246607Y0206718D01*
X0246552Y0206786D01*
X0246495Y0206851D01*
X0246434Y0206914D01*
X0246371Y0206975D01*
X0246306Y0207032D01*
X0246238Y0207087D01*
X0246167Y0207138D01*
X0246095Y0207187D01*
X0246020Y0207232D01*
X0245943Y0207274D01*
X0245865Y0207313D01*
X0245785Y0207348D01*
X0245704Y0207379D01*
X0245621Y0207407D01*
X0245538Y0207432D01*
X0245453Y0207453D01*
X0245367Y0207470D01*
X0245281Y0207483D01*
X0245194Y0207492D01*
X0245107Y0207498D01*
X0245020Y0207500D01*
X0232020Y0207500D01*
X0231933Y0207498D01*
X0231846Y0207492D01*
X0231759Y0207483D01*
X0231673Y0207470D01*
X0231587Y0207453D01*
X0231502Y0207432D01*
X0231419Y0207407D01*
X0231336Y0207379D01*
X0231255Y0207348D01*
X0231175Y0207313D01*
X0231097Y0207274D01*
X0231020Y0207232D01*
X0230945Y0207187D01*
X0230873Y0207138D01*
X0230802Y0207087D01*
X0230734Y0207032D01*
X0230669Y0206975D01*
X0230606Y0206914D01*
X0230545Y0206851D01*
X0230488Y0206786D01*
X0230433Y0206718D01*
X0230382Y0206647D01*
X0230333Y0206575D01*
X0230288Y0206500D01*
X0230246Y0206423D01*
X0230207Y0206345D01*
X0230172Y0206265D01*
X0230141Y0206184D01*
X0230113Y0206101D01*
X0230088Y0206018D01*
X0230067Y0205933D01*
X0230050Y0205847D01*
X0230037Y0205761D01*
X0230028Y0205674D01*
X0230022Y0205587D01*
X0230020Y0205500D01*
X0245020Y0198500D02*
X0245107Y0198502D01*
X0245194Y0198508D01*
X0245281Y0198517D01*
X0245367Y0198530D01*
X0245453Y0198547D01*
X0245538Y0198568D01*
X0245621Y0198593D01*
X0245704Y0198621D01*
X0245785Y0198652D01*
X0245865Y0198687D01*
X0245943Y0198726D01*
X0246020Y0198768D01*
X0246095Y0198813D01*
X0246167Y0198862D01*
X0246238Y0198913D01*
X0246306Y0198968D01*
X0246371Y0199025D01*
X0246434Y0199086D01*
X0246495Y0199149D01*
X0246552Y0199214D01*
X0246607Y0199282D01*
X0246658Y0199353D01*
X0246707Y0199425D01*
X0246752Y0199500D01*
X0246794Y0199577D01*
X0246833Y0199655D01*
X0246868Y0199735D01*
X0246899Y0199816D01*
X0246927Y0199899D01*
X0246952Y0199982D01*
X0246973Y0200067D01*
X0246990Y0200153D01*
X0247003Y0200239D01*
X0247012Y0200326D01*
X0247018Y0200413D01*
X0247020Y0200500D01*
X0235020Y0189000D02*
X0208020Y0189000D01*
X0207801Y0188997D01*
X0207582Y0188989D01*
X0207363Y0188976D01*
X0207145Y0188957D01*
X0206927Y0188933D01*
X0206710Y0188904D01*
X0206493Y0188870D01*
X0206278Y0188830D01*
X0206063Y0188785D01*
X0205850Y0188734D01*
X0205638Y0188679D01*
X0205427Y0188618D01*
X0205218Y0188553D01*
X0205011Y0188482D01*
X0204805Y0188406D01*
X0204601Y0188325D01*
X0204399Y0188240D01*
X0204200Y0188149D01*
X0204003Y0188054D01*
X0203808Y0187953D01*
X0203615Y0187848D01*
X0203425Y0187739D01*
X0203238Y0187625D01*
X0203054Y0187506D01*
X0202873Y0187383D01*
X0202695Y0187255D01*
X0202519Y0187123D01*
X0202348Y0186987D01*
X0202179Y0186847D01*
X0202014Y0186703D01*
X0201853Y0186555D01*
X0201695Y0186403D01*
X0201541Y0186247D01*
X0201391Y0186087D01*
X0201244Y0185924D01*
X0201102Y0185757D01*
X0200964Y0185587D01*
X0200830Y0185413D01*
X0200700Y0185237D01*
X0200575Y0185057D01*
X0200454Y0184874D01*
X0200338Y0184688D01*
X0200226Y0184500D01*
X0200119Y0184309D01*
X0200016Y0184115D01*
X0199918Y0183919D01*
X0199825Y0183721D01*
X0199737Y0183520D01*
X0199654Y0183317D01*
X0199575Y0183112D01*
X0199502Y0182906D01*
X0199434Y0182698D01*
X0199371Y0182488D01*
X0199313Y0182276D01*
X0199260Y0182064D01*
X0199212Y0181850D01*
X0199170Y0181635D01*
X0199133Y0181419D01*
X0199101Y0181202D01*
X0199074Y0180984D01*
X0199053Y0180766D01*
X0199037Y0180548D01*
X0199026Y0180329D01*
X0199021Y0180110D01*
X0199021Y0179890D01*
X0199026Y0179671D01*
X0199037Y0179452D01*
X0199053Y0179234D01*
X0199074Y0179016D01*
X0199101Y0178798D01*
X0199133Y0178581D01*
X0199170Y0178365D01*
X0199212Y0178150D01*
X0199260Y0177936D01*
X0199313Y0177724D01*
X0199371Y0177512D01*
X0199434Y0177302D01*
X0199502Y0177094D01*
X0199575Y0176888D01*
X0199654Y0176683D01*
X0199737Y0176480D01*
X0199825Y0176279D01*
X0199918Y0176081D01*
X0200016Y0175885D01*
X0200119Y0175691D01*
X0200226Y0175500D01*
X0200338Y0175312D01*
X0200454Y0175126D01*
X0200575Y0174943D01*
X0200700Y0174763D01*
X0200830Y0174587D01*
X0200964Y0174413D01*
X0201102Y0174243D01*
X0201244Y0174076D01*
X0201391Y0173913D01*
X0201541Y0173753D01*
X0201695Y0173597D01*
X0201853Y0173445D01*
X0202014Y0173297D01*
X0202179Y0173153D01*
X0202348Y0173013D01*
X0202519Y0172877D01*
X0202695Y0172745D01*
X0202873Y0172617D01*
X0203054Y0172494D01*
X0203238Y0172375D01*
X0203425Y0172261D01*
X0203615Y0172152D01*
X0203808Y0172047D01*
X0204003Y0171946D01*
X0204200Y0171851D01*
X0204399Y0171760D01*
X0204601Y0171675D01*
X0204805Y0171594D01*
X0205011Y0171518D01*
X0205218Y0171447D01*
X0205427Y0171382D01*
X0205638Y0171321D01*
X0205850Y0171266D01*
X0206063Y0171215D01*
X0206278Y0171170D01*
X0206493Y0171130D01*
X0206710Y0171096D01*
X0206927Y0171067D01*
X0207145Y0171043D01*
X0207363Y0171024D01*
X0207582Y0171011D01*
X0207801Y0171003D01*
X0208020Y0171000D01*
X0235020Y0171000D01*
X0235239Y0171003D01*
X0235458Y0171011D01*
X0235677Y0171024D01*
X0235895Y0171043D01*
X0236113Y0171067D01*
X0236330Y0171096D01*
X0236547Y0171130D01*
X0236762Y0171170D01*
X0236977Y0171215D01*
X0237190Y0171266D01*
X0237402Y0171321D01*
X0237613Y0171382D01*
X0237822Y0171447D01*
X0238029Y0171518D01*
X0238235Y0171594D01*
X0238439Y0171675D01*
X0238641Y0171760D01*
X0238840Y0171851D01*
X0239037Y0171946D01*
X0239232Y0172047D01*
X0239425Y0172152D01*
X0239615Y0172261D01*
X0239802Y0172375D01*
X0239986Y0172494D01*
X0240167Y0172617D01*
X0240345Y0172745D01*
X0240521Y0172877D01*
X0240692Y0173013D01*
X0240861Y0173153D01*
X0241026Y0173297D01*
X0241187Y0173445D01*
X0241345Y0173597D01*
X0241499Y0173753D01*
X0241649Y0173913D01*
X0241796Y0174076D01*
X0241938Y0174243D01*
X0242076Y0174413D01*
X0242210Y0174587D01*
X0242340Y0174763D01*
X0242465Y0174943D01*
X0242586Y0175126D01*
X0242702Y0175312D01*
X0242814Y0175500D01*
X0242921Y0175691D01*
X0243024Y0175885D01*
X0243122Y0176081D01*
X0243215Y0176279D01*
X0243303Y0176480D01*
X0243386Y0176683D01*
X0243465Y0176888D01*
X0243538Y0177094D01*
X0243606Y0177302D01*
X0243669Y0177512D01*
X0243727Y0177724D01*
X0243780Y0177936D01*
X0243828Y0178150D01*
X0243870Y0178365D01*
X0243907Y0178581D01*
X0243939Y0178798D01*
X0243966Y0179016D01*
X0243987Y0179234D01*
X0244003Y0179452D01*
X0244014Y0179671D01*
X0244019Y0179890D01*
X0244019Y0180110D01*
X0244014Y0180329D01*
X0244003Y0180548D01*
X0243987Y0180766D01*
X0243966Y0180984D01*
X0243939Y0181202D01*
X0243907Y0181419D01*
X0243870Y0181635D01*
X0243828Y0181850D01*
X0243780Y0182064D01*
X0243727Y0182276D01*
X0243669Y0182488D01*
X0243606Y0182698D01*
X0243538Y0182906D01*
X0243465Y0183112D01*
X0243386Y0183317D01*
X0243303Y0183520D01*
X0243215Y0183721D01*
X0243122Y0183919D01*
X0243024Y0184115D01*
X0242921Y0184309D01*
X0242814Y0184500D01*
X0242702Y0184688D01*
X0242586Y0184874D01*
X0242465Y0185057D01*
X0242340Y0185237D01*
X0242210Y0185413D01*
X0242076Y0185587D01*
X0241938Y0185757D01*
X0241796Y0185924D01*
X0241649Y0186087D01*
X0241499Y0186247D01*
X0241345Y0186403D01*
X0241187Y0186555D01*
X0241026Y0186703D01*
X0240861Y0186847D01*
X0240692Y0186987D01*
X0240521Y0187123D01*
X0240345Y0187255D01*
X0240167Y0187383D01*
X0239986Y0187506D01*
X0239802Y0187625D01*
X0239615Y0187739D01*
X0239425Y0187848D01*
X0239232Y0187953D01*
X0239037Y0188054D01*
X0238840Y0188149D01*
X0238641Y0188240D01*
X0238439Y0188325D01*
X0238235Y0188406D01*
X0238029Y0188482D01*
X0237822Y0188553D01*
X0237613Y0188618D01*
X0237402Y0188679D01*
X0237190Y0188734D01*
X0236977Y0188785D01*
X0236762Y0188830D01*
X0236547Y0188870D01*
X0236330Y0188904D01*
X0236113Y0188933D01*
X0235895Y0188957D01*
X0235677Y0188976D01*
X0235458Y0188989D01*
X0235239Y0188997D01*
X0235020Y0189000D01*
X0214020Y0198500D02*
X0201020Y0198500D01*
X0200933Y0198502D01*
X0200846Y0198508D01*
X0200759Y0198517D01*
X0200673Y0198530D01*
X0200587Y0198547D01*
X0200502Y0198568D01*
X0200419Y0198593D01*
X0200336Y0198621D01*
X0200255Y0198652D01*
X0200175Y0198687D01*
X0200097Y0198726D01*
X0200020Y0198768D01*
X0199945Y0198813D01*
X0199873Y0198862D01*
X0199802Y0198913D01*
X0199734Y0198968D01*
X0199669Y0199025D01*
X0199606Y0199086D01*
X0199545Y0199149D01*
X0199488Y0199214D01*
X0199433Y0199282D01*
X0199382Y0199353D01*
X0199333Y0199425D01*
X0199288Y0199500D01*
X0199246Y0199577D01*
X0199207Y0199655D01*
X0199172Y0199735D01*
X0199141Y0199816D01*
X0199113Y0199899D01*
X0199088Y0199982D01*
X0199067Y0200067D01*
X0199050Y0200153D01*
X0199037Y0200239D01*
X0199028Y0200326D01*
X0199022Y0200413D01*
X0199020Y0200500D01*
X0202520Y0203000D02*
X0206320Y0203000D01*
X0208820Y0203000D02*
X0212520Y0203000D01*
X0216020Y0205500D02*
X0216018Y0205587D01*
X0216012Y0205674D01*
X0216003Y0205761D01*
X0215990Y0205847D01*
X0215973Y0205933D01*
X0215952Y0206018D01*
X0215927Y0206101D01*
X0215899Y0206184D01*
X0215868Y0206265D01*
X0215833Y0206345D01*
X0215794Y0206423D01*
X0215752Y0206500D01*
X0215707Y0206575D01*
X0215658Y0206647D01*
X0215607Y0206718D01*
X0215552Y0206786D01*
X0215495Y0206851D01*
X0215434Y0206914D01*
X0215371Y0206975D01*
X0215306Y0207032D01*
X0215238Y0207087D01*
X0215167Y0207138D01*
X0215095Y0207187D01*
X0215020Y0207232D01*
X0214943Y0207274D01*
X0214865Y0207313D01*
X0214785Y0207348D01*
X0214704Y0207379D01*
X0214621Y0207407D01*
X0214538Y0207432D01*
X0214453Y0207453D01*
X0214367Y0207470D01*
X0214281Y0207483D01*
X0214194Y0207492D01*
X0214107Y0207498D01*
X0214020Y0207500D01*
X0201020Y0207500D01*
X0200933Y0207498D01*
X0200846Y0207492D01*
X0200759Y0207483D01*
X0200673Y0207470D01*
X0200587Y0207453D01*
X0200502Y0207432D01*
X0200419Y0207407D01*
X0200336Y0207379D01*
X0200255Y0207348D01*
X0200175Y0207313D01*
X0200097Y0207274D01*
X0200020Y0207232D01*
X0199945Y0207187D01*
X0199873Y0207138D01*
X0199802Y0207087D01*
X0199734Y0207032D01*
X0199669Y0206975D01*
X0199606Y0206914D01*
X0199545Y0206851D01*
X0199488Y0206786D01*
X0199433Y0206718D01*
X0199382Y0206647D01*
X0199333Y0206575D01*
X0199288Y0206500D01*
X0199246Y0206423D01*
X0199207Y0206345D01*
X0199172Y0206265D01*
X0199141Y0206184D01*
X0199113Y0206101D01*
X0199088Y0206018D01*
X0199067Y0205933D01*
X0199050Y0205847D01*
X0199037Y0205761D01*
X0199028Y0205674D01*
X0199022Y0205587D01*
X0199020Y0205500D01*
X0187020Y0200500D02*
X0187020Y0199000D01*
X0186520Y0198500D01*
X0186520Y0179500D01*
X0187020Y0179000D01*
X0187020Y0177500D01*
X0187018Y0177440D01*
X0187013Y0177379D01*
X0187004Y0177320D01*
X0186991Y0177261D01*
X0186975Y0177202D01*
X0186955Y0177145D01*
X0186932Y0177090D01*
X0186905Y0177035D01*
X0186876Y0176983D01*
X0186843Y0176932D01*
X0186807Y0176883D01*
X0186769Y0176837D01*
X0186727Y0176793D01*
X0186683Y0176751D01*
X0186637Y0176713D01*
X0186588Y0176677D01*
X0186537Y0176644D01*
X0186485Y0176615D01*
X0186430Y0176588D01*
X0186375Y0176565D01*
X0186318Y0176545D01*
X0186259Y0176529D01*
X0186200Y0176516D01*
X0186141Y0176507D01*
X0186080Y0176502D01*
X0186020Y0176500D01*
X0179020Y0176500D01*
X0178960Y0176502D01*
X0178899Y0176507D01*
X0178840Y0176516D01*
X0178781Y0176529D01*
X0178722Y0176545D01*
X0178665Y0176565D01*
X0178610Y0176588D01*
X0178555Y0176615D01*
X0178503Y0176644D01*
X0178452Y0176677D01*
X0178403Y0176713D01*
X0178357Y0176751D01*
X0178313Y0176793D01*
X0178271Y0176837D01*
X0178233Y0176883D01*
X0178197Y0176932D01*
X0178164Y0176983D01*
X0178135Y0177035D01*
X0178108Y0177090D01*
X0178085Y0177145D01*
X0178065Y0177202D01*
X0178049Y0177261D01*
X0178036Y0177320D01*
X0178027Y0177379D01*
X0178022Y0177440D01*
X0178020Y0177500D01*
X0178020Y0179000D01*
X0178520Y0179500D01*
X0178520Y0198500D01*
X0178020Y0199000D01*
X0178020Y0200500D01*
X0178022Y0200560D01*
X0178027Y0200621D01*
X0178036Y0200680D01*
X0178049Y0200739D01*
X0178065Y0200798D01*
X0178085Y0200855D01*
X0178108Y0200910D01*
X0178135Y0200965D01*
X0178164Y0201017D01*
X0178197Y0201068D01*
X0178233Y0201117D01*
X0178271Y0201163D01*
X0178313Y0201207D01*
X0178357Y0201249D01*
X0178403Y0201287D01*
X0178452Y0201323D01*
X0178503Y0201356D01*
X0178555Y0201385D01*
X0178610Y0201412D01*
X0178665Y0201435D01*
X0178722Y0201455D01*
X0178781Y0201471D01*
X0178840Y0201484D01*
X0178899Y0201493D01*
X0178960Y0201498D01*
X0179020Y0201500D01*
X0186020Y0201500D01*
X0186080Y0201498D01*
X0186141Y0201493D01*
X0186200Y0201484D01*
X0186259Y0201471D01*
X0186318Y0201455D01*
X0186375Y0201435D01*
X0186430Y0201412D01*
X0186485Y0201385D01*
X0186537Y0201356D01*
X0186588Y0201323D01*
X0186637Y0201287D01*
X0186683Y0201249D01*
X0186727Y0201207D01*
X0186769Y0201163D01*
X0186807Y0201117D01*
X0186843Y0201068D01*
X0186876Y0201017D01*
X0186905Y0200965D01*
X0186932Y0200910D01*
X0186955Y0200855D01*
X0186975Y0200798D01*
X0186991Y0200739D01*
X0187004Y0200680D01*
X0187013Y0200621D01*
X0187018Y0200560D01*
X0187020Y0200500D01*
X0214020Y0198500D02*
X0214107Y0198502D01*
X0214194Y0198508D01*
X0214281Y0198517D01*
X0214367Y0198530D01*
X0214453Y0198547D01*
X0214538Y0198568D01*
X0214621Y0198593D01*
X0214704Y0198621D01*
X0214785Y0198652D01*
X0214865Y0198687D01*
X0214943Y0198726D01*
X0215020Y0198768D01*
X0215095Y0198813D01*
X0215167Y0198862D01*
X0215238Y0198913D01*
X0215306Y0198968D01*
X0215371Y0199025D01*
X0215434Y0199086D01*
X0215495Y0199149D01*
X0215552Y0199214D01*
X0215607Y0199282D01*
X0215658Y0199353D01*
X0215707Y0199425D01*
X0215752Y0199500D01*
X0215794Y0199577D01*
X0215833Y0199655D01*
X0215868Y0199735D01*
X0215899Y0199816D01*
X0215927Y0199899D01*
X0215952Y0199982D01*
X0215973Y0200067D01*
X0215990Y0200153D01*
X0216003Y0200239D01*
X0216012Y0200326D01*
X0216018Y0200413D01*
X0216020Y0200500D01*
X0157520Y0200000D02*
X0157520Y0210000D01*
X0141520Y0210000D01*
X0141520Y0200000D01*
X0157520Y0200000D01*
X0157520Y0195000D02*
X0157520Y0185000D01*
X0141520Y0185000D01*
X0141520Y0195000D01*
X0157520Y0195000D01*
X0152020Y0190000D02*
X0149520Y0190000D01*
X0149520Y0192500D01*
X0149520Y0190000D02*
X0149520Y0187500D01*
X0149520Y0190000D02*
X0145520Y0187500D01*
X0145520Y0192500D01*
X0149520Y0190000D01*
X0143520Y0190000D01*
X0141520Y0180000D02*
X0141520Y0170000D01*
X0157520Y0170000D01*
X0157520Y0180000D01*
X0141520Y0180000D01*
X0145520Y0177500D02*
X0149520Y0175000D01*
X0149520Y0177500D01*
X0149520Y0175000D02*
X0149520Y0172500D01*
X0149520Y0175000D02*
X0145520Y0172500D01*
X0145520Y0177500D01*
X0143520Y0175000D02*
X0149520Y0175000D01*
X0152020Y0175000D01*
X0149520Y0202500D02*
X0149520Y0205000D01*
X0149520Y0207500D01*
X0149520Y0205000D02*
X0145520Y0202500D01*
X0145520Y0207500D01*
X0149520Y0205000D01*
X0143520Y0205000D01*
X0149520Y0205000D02*
X0152020Y0205000D01*
X0102520Y0155000D02*
X0102520Y0153500D01*
X0102020Y0153000D01*
X0102020Y0139000D01*
X0102520Y0138500D01*
X0102520Y0137000D01*
X0102518Y0136940D01*
X0102513Y0136879D01*
X0102504Y0136820D01*
X0102491Y0136761D01*
X0102475Y0136702D01*
X0102455Y0136645D01*
X0102432Y0136590D01*
X0102405Y0136535D01*
X0102376Y0136483D01*
X0102343Y0136432D01*
X0102307Y0136383D01*
X0102269Y0136337D01*
X0102227Y0136293D01*
X0102183Y0136251D01*
X0102137Y0136213D01*
X0102088Y0136177D01*
X0102037Y0136144D01*
X0101985Y0136115D01*
X0101930Y0136088D01*
X0101875Y0136065D01*
X0101818Y0136045D01*
X0101759Y0136029D01*
X0101700Y0136016D01*
X0101641Y0136007D01*
X0101580Y0136002D01*
X0101520Y0136000D01*
X0095520Y0136000D01*
X0095460Y0136002D01*
X0095399Y0136007D01*
X0095340Y0136016D01*
X0095281Y0136029D01*
X0095222Y0136045D01*
X0095165Y0136065D01*
X0095110Y0136088D01*
X0095055Y0136115D01*
X0095003Y0136144D01*
X0094952Y0136177D01*
X0094903Y0136213D01*
X0094857Y0136251D01*
X0094813Y0136293D01*
X0094771Y0136337D01*
X0094733Y0136383D01*
X0094697Y0136432D01*
X0094664Y0136483D01*
X0094635Y0136535D01*
X0094608Y0136590D01*
X0094585Y0136645D01*
X0094565Y0136702D01*
X0094549Y0136761D01*
X0094536Y0136820D01*
X0094527Y0136879D01*
X0094522Y0136940D01*
X0094520Y0137000D01*
X0094520Y0138500D01*
X0095020Y0139000D01*
X0095020Y0153000D01*
X0094520Y0153500D01*
X0094520Y0155000D01*
X0094522Y0155060D01*
X0094527Y0155121D01*
X0094536Y0155180D01*
X0094549Y0155239D01*
X0094565Y0155298D01*
X0094585Y0155355D01*
X0094608Y0155410D01*
X0094635Y0155465D01*
X0094664Y0155517D01*
X0094697Y0155568D01*
X0094733Y0155617D01*
X0094771Y0155663D01*
X0094813Y0155707D01*
X0094857Y0155749D01*
X0094903Y0155787D01*
X0094952Y0155823D01*
X0095003Y0155856D01*
X0095055Y0155885D01*
X0095110Y0155912D01*
X0095165Y0155935D01*
X0095222Y0155955D01*
X0095281Y0155971D01*
X0095340Y0155984D01*
X0095399Y0155993D01*
X0095460Y0155998D01*
X0095520Y0156000D01*
X0101520Y0156000D01*
X0101580Y0155998D01*
X0101641Y0155993D01*
X0101700Y0155984D01*
X0101759Y0155971D01*
X0101818Y0155955D01*
X0101875Y0155935D01*
X0101930Y0155912D01*
X0101985Y0155885D01*
X0102037Y0155856D01*
X0102088Y0155823D01*
X0102137Y0155787D01*
X0102183Y0155749D01*
X0102227Y0155707D01*
X0102269Y0155663D01*
X0102307Y0155617D01*
X0102343Y0155568D01*
X0102376Y0155517D01*
X0102405Y0155465D01*
X0102432Y0155410D01*
X0102455Y0155355D01*
X0102475Y0155298D01*
X0102491Y0155239D01*
X0102504Y0155180D01*
X0102513Y0155121D01*
X0102518Y0155060D01*
X0102520Y0155000D01*
X0070020Y0184500D02*
X0069933Y0184498D01*
X0069846Y0184492D01*
X0069759Y0184483D01*
X0069673Y0184470D01*
X0069587Y0184453D01*
X0069502Y0184432D01*
X0069419Y0184407D01*
X0069336Y0184379D01*
X0069255Y0184348D01*
X0069175Y0184313D01*
X0069097Y0184274D01*
X0069020Y0184232D01*
X0068945Y0184187D01*
X0068873Y0184138D01*
X0068802Y0184087D01*
X0068734Y0184032D01*
X0068669Y0183975D01*
X0068606Y0183914D01*
X0068545Y0183851D01*
X0068488Y0183786D01*
X0068433Y0183718D01*
X0068382Y0183647D01*
X0068333Y0183575D01*
X0068288Y0183500D01*
X0068246Y0183423D01*
X0068207Y0183345D01*
X0068172Y0183265D01*
X0068141Y0183184D01*
X0068113Y0183101D01*
X0068088Y0183018D01*
X0068067Y0182933D01*
X0068050Y0182847D01*
X0068037Y0182761D01*
X0068028Y0182674D01*
X0068022Y0182587D01*
X0068020Y0182500D01*
D13*
X0019370Y0105957D02*
X0019370Y0104990D01*
X0019370Y0105473D02*
X0016467Y0105473D01*
X0016467Y0104990D02*
X0016467Y0105957D01*
X0016951Y0103978D02*
X0016467Y0103494D01*
X0016467Y0102527D01*
X0016951Y0102043D01*
X0017435Y0102043D01*
X0017918Y0102527D01*
X0017918Y0103494D01*
X0018402Y0103978D01*
X0018886Y0103978D01*
X0019370Y0103494D01*
X0019370Y0102527D01*
X0018886Y0102043D01*
X0018886Y0101031D02*
X0016951Y0101031D01*
X0016467Y0100548D01*
X0016467Y0099580D01*
X0016951Y0099097D01*
X0018886Y0099097D01*
X0019370Y0099580D01*
X0019370Y0100548D01*
X0018886Y0101031D01*
X0019370Y0098085D02*
X0016467Y0098085D01*
X0017435Y0097117D01*
X0016467Y0096150D01*
X0019370Y0096150D01*
X0016467Y0089871D02*
X0016467Y0087936D01*
X0016467Y0088904D02*
X0019370Y0088904D01*
X0019370Y0086925D02*
X0019370Y0084990D01*
X0016467Y0084990D01*
X0016467Y0086925D01*
X0017918Y0085957D02*
X0017918Y0084990D01*
X0018402Y0083978D02*
X0018886Y0083978D01*
X0019370Y0083494D01*
X0019370Y0082527D01*
X0018886Y0082043D01*
X0017918Y0082527D02*
X0017918Y0083494D01*
X0018402Y0083978D01*
X0016951Y0083978D02*
X0016467Y0083494D01*
X0016467Y0082527D01*
X0016951Y0082043D01*
X0017435Y0082043D01*
X0017918Y0082527D01*
X0016467Y0081031D02*
X0016467Y0079097D01*
X0019370Y0079097D01*
X0019370Y0081031D01*
X0017918Y0080064D02*
X0017918Y0079097D01*
X0017918Y0078085D02*
X0018402Y0077601D01*
X0018402Y0076150D01*
X0018402Y0077117D02*
X0019370Y0078085D01*
X0017918Y0078085D02*
X0016951Y0078085D01*
X0016467Y0077601D01*
X0016467Y0076150D01*
X0019370Y0076150D01*
X0019370Y0073978D02*
X0017918Y0072527D01*
X0018402Y0072043D02*
X0016467Y0073978D01*
X0016467Y0072043D02*
X0019370Y0072043D01*
X0018886Y0071031D02*
X0019370Y0070548D01*
X0019370Y0069580D01*
X0018886Y0069097D01*
X0016951Y0069097D01*
X0016467Y0069580D01*
X0016467Y0070548D01*
X0016951Y0071031D01*
X0016951Y0068085D02*
X0016467Y0067601D01*
X0016467Y0066634D01*
X0016951Y0066150D01*
X0017435Y0066150D01*
X0017918Y0066634D01*
X0017918Y0067601D01*
X0018402Y0068085D01*
X0018886Y0068085D01*
X0019370Y0067601D01*
X0019370Y0066634D01*
X0018886Y0066150D01*
X0018886Y0063942D02*
X0016951Y0063942D01*
X0016467Y0063459D01*
X0016467Y0062491D01*
X0016951Y0062007D01*
X0018886Y0062007D01*
X0019370Y0062491D01*
X0019370Y0063459D01*
X0018886Y0063942D01*
X0018886Y0060996D02*
X0019370Y0060512D01*
X0019370Y0059545D01*
X0018886Y0059061D01*
X0017918Y0059545D02*
X0017435Y0059061D01*
X0016951Y0059061D01*
X0016467Y0059545D01*
X0016467Y0060512D01*
X0016951Y0060996D01*
X0017918Y0060512D02*
X0018402Y0060996D01*
X0018886Y0060996D01*
X0017918Y0060512D02*
X0017918Y0059545D01*
X0016467Y0058064D02*
X0016467Y0057097D01*
X0016467Y0057580D02*
X0019370Y0057580D01*
X0019370Y0057097D02*
X0019370Y0058064D01*
X0019370Y0056085D02*
X0016467Y0056085D01*
X0017435Y0055117D01*
X0016467Y0054150D01*
X0019370Y0054150D01*
X0025670Y0035052D02*
X0025670Y0033117D01*
X0026637Y0032150D01*
X0027605Y0033117D01*
X0027605Y0035052D01*
X0028616Y0034569D02*
X0028616Y0032634D01*
X0029100Y0032150D01*
X0030067Y0032150D01*
X0030551Y0032634D01*
X0031563Y0032634D02*
X0031563Y0034569D01*
X0032046Y0035052D01*
X0033014Y0035052D01*
X0033498Y0034569D01*
X0033498Y0032634D02*
X0033014Y0032150D01*
X0032046Y0032150D01*
X0031563Y0032634D01*
X0030551Y0034569D02*
X0030067Y0035052D01*
X0029100Y0035052D01*
X0028616Y0034569D01*
X0035670Y0035052D02*
X0035670Y0032150D01*
X0037605Y0032150D02*
X0037605Y0035052D01*
X0036637Y0034085D01*
X0035670Y0035052D01*
X0038616Y0034569D02*
X0038616Y0032634D01*
X0039100Y0032150D01*
X0040067Y0032150D01*
X0040551Y0032634D01*
X0040551Y0034569D01*
X0040067Y0035052D01*
X0039100Y0035052D01*
X0038616Y0034569D01*
X0041563Y0034569D02*
X0041563Y0034085D01*
X0042046Y0033601D01*
X0043014Y0033601D01*
X0043498Y0033117D01*
X0043498Y0032634D01*
X0043014Y0032150D01*
X0042046Y0032150D01*
X0041563Y0032634D01*
X0041563Y0034569D02*
X0042046Y0035052D01*
X0043014Y0035052D01*
X0043498Y0034569D01*
X0044509Y0035052D02*
X0045477Y0035052D01*
X0044993Y0035052D02*
X0044993Y0032150D01*
X0044509Y0032150D02*
X0045477Y0032150D01*
X0047670Y0032634D02*
X0047670Y0034569D01*
X0048153Y0035052D01*
X0049121Y0035052D01*
X0049605Y0034569D01*
X0049605Y0033601D02*
X0048637Y0033601D01*
X0049605Y0033601D02*
X0049605Y0032634D01*
X0049121Y0032150D01*
X0048153Y0032150D01*
X0047670Y0032634D01*
X0050616Y0032150D02*
X0050616Y0035052D01*
X0052551Y0032150D01*
X0052551Y0035052D01*
X0053563Y0035052D02*
X0055014Y0035052D01*
X0055498Y0034569D01*
X0055498Y0032634D01*
X0055014Y0032150D01*
X0053563Y0032150D01*
X0053563Y0035052D01*
X0058951Y0055150D02*
X0060886Y0055150D01*
X0061370Y0055634D01*
X0061370Y0056601D01*
X0060886Y0057085D01*
X0059918Y0057085D01*
X0059918Y0056117D01*
X0058951Y0055150D02*
X0058467Y0055634D01*
X0058467Y0056601D01*
X0058951Y0057085D01*
X0058467Y0058097D02*
X0061370Y0060031D01*
X0058467Y0060031D01*
X0058467Y0061043D02*
X0058467Y0062494D01*
X0058951Y0062978D01*
X0060886Y0062978D01*
X0061370Y0062494D01*
X0061370Y0061043D01*
X0058467Y0061043D01*
X0058467Y0058097D02*
X0061370Y0058097D01*
X0060886Y0066150D02*
X0058951Y0066150D01*
X0058467Y0066634D01*
X0058467Y0067601D01*
X0058951Y0068085D01*
X0059918Y0068085D02*
X0059918Y0067117D01*
X0059918Y0068085D02*
X0060886Y0068085D01*
X0061370Y0067601D01*
X0061370Y0066634D01*
X0060886Y0066150D01*
X0061370Y0069097D02*
X0058467Y0069097D01*
X0061370Y0071031D01*
X0058467Y0071031D01*
X0058467Y0072043D02*
X0058467Y0073494D01*
X0058951Y0073978D01*
X0060886Y0073978D01*
X0061370Y0073494D01*
X0061370Y0072043D01*
X0058467Y0072043D01*
X0058467Y0077150D02*
X0058467Y0078117D01*
X0058467Y0077634D02*
X0061370Y0077634D01*
X0061370Y0078117D02*
X0061370Y0077150D01*
X0062467Y0077150D02*
X0062467Y0079085D01*
X0062467Y0078117D02*
X0065370Y0078117D01*
X0065370Y0080097D02*
X0062467Y0082031D01*
X0061370Y0082061D02*
X0061370Y0083996D01*
X0061370Y0083028D02*
X0058467Y0083028D01*
X0059435Y0082061D01*
X0058951Y0081049D02*
X0058467Y0080566D01*
X0058467Y0079598D01*
X0058951Y0079114D01*
X0060886Y0079114D01*
X0061370Y0079598D01*
X0061370Y0080566D01*
X0060886Y0081049D01*
X0058951Y0081049D01*
X0062467Y0080097D02*
X0065370Y0082031D01*
X0065370Y0087150D02*
X0062467Y0087150D01*
X0062467Y0088601D01*
X0062951Y0089085D01*
X0063918Y0089085D01*
X0064402Y0088601D01*
X0064402Y0087150D01*
X0064402Y0088117D02*
X0065370Y0089085D01*
X0065370Y0090097D02*
X0062467Y0092031D01*
X0061370Y0092545D02*
X0060886Y0092061D01*
X0058951Y0093996D01*
X0060886Y0093996D01*
X0061370Y0093512D01*
X0061370Y0092545D01*
X0060886Y0092061D02*
X0058951Y0092061D01*
X0058467Y0092545D01*
X0058467Y0093512D01*
X0058951Y0093996D01*
X0058951Y0091049D02*
X0058467Y0090566D01*
X0058467Y0089598D01*
X0058951Y0089114D01*
X0060886Y0089114D01*
X0061370Y0089598D01*
X0061370Y0090566D01*
X0060886Y0091049D01*
X0058951Y0091049D01*
X0062467Y0090097D02*
X0065370Y0092031D01*
X0061370Y0088117D02*
X0061370Y0087150D01*
X0061370Y0087634D02*
X0058467Y0087634D01*
X0058467Y0088117D02*
X0058467Y0087150D01*
X0058467Y0097150D02*
X0060402Y0097150D01*
X0061370Y0098117D01*
X0060402Y0099085D01*
X0058467Y0099085D01*
X0058951Y0100097D02*
X0060886Y0100097D01*
X0061370Y0100580D01*
X0061370Y0101548D01*
X0060886Y0102031D01*
X0060886Y0103043D02*
X0061370Y0103527D01*
X0061370Y0104494D01*
X0060886Y0104978D01*
X0060886Y0103043D02*
X0058951Y0103043D01*
X0058467Y0103527D01*
X0058467Y0104494D01*
X0058951Y0104978D01*
X0058951Y0102031D02*
X0058467Y0101548D01*
X0058467Y0100580D01*
X0058951Y0100097D01*
X0059423Y0009052D02*
X0059423Y0006150D01*
X0057444Y0006150D02*
X0055509Y0006150D01*
X0055509Y0009052D01*
X0057444Y0009052D01*
X0058456Y0009052D02*
X0060391Y0009052D01*
X0056477Y0007601D02*
X0055509Y0007601D01*
X0054498Y0007117D02*
X0054498Y0006634D01*
X0054014Y0006150D01*
X0053046Y0006150D01*
X0052563Y0006634D01*
X0053046Y0007601D02*
X0054014Y0007601D01*
X0054498Y0007117D01*
X0054498Y0008569D02*
X0054014Y0009052D01*
X0053046Y0009052D01*
X0052563Y0008569D01*
X0052563Y0008085D01*
X0053046Y0007601D01*
X0051551Y0006150D02*
X0049616Y0006150D01*
X0049616Y0009052D01*
X0051551Y0009052D01*
X0050584Y0007601D02*
X0049616Y0007601D01*
X0048605Y0007601D02*
X0048121Y0007117D01*
X0046670Y0007117D01*
X0046670Y0006150D02*
X0046670Y0009052D01*
X0048121Y0009052D01*
X0048605Y0008569D01*
X0048605Y0007601D01*
X0047637Y0007117D02*
X0048605Y0006150D01*
X0044498Y0006150D02*
X0043046Y0007601D01*
X0042563Y0007117D02*
X0044498Y0009052D01*
X0042563Y0009052D02*
X0042563Y0006150D01*
X0041551Y0006634D02*
X0041067Y0006150D01*
X0040100Y0006150D01*
X0039616Y0006634D01*
X0039616Y0008569D01*
X0040100Y0009052D01*
X0041067Y0009052D01*
X0041551Y0008569D01*
X0038605Y0008569D02*
X0038121Y0009052D01*
X0037153Y0009052D01*
X0036670Y0008569D01*
X0036670Y0008085D01*
X0037153Y0007601D01*
X0038121Y0007601D01*
X0038605Y0007117D01*
X0038605Y0006634D01*
X0038121Y0006150D01*
X0037153Y0006150D01*
X0036670Y0006634D01*
X0034462Y0006634D02*
X0034462Y0008569D01*
X0033978Y0009052D01*
X0033011Y0009052D01*
X0032527Y0008569D01*
X0032527Y0006634D01*
X0033011Y0006150D01*
X0033978Y0006150D01*
X0034462Y0006634D01*
X0031516Y0006634D02*
X0031032Y0006150D01*
X0030064Y0006150D01*
X0029581Y0006634D01*
X0030064Y0007601D02*
X0031032Y0007601D01*
X0031516Y0007117D01*
X0031516Y0006634D01*
X0030064Y0007601D02*
X0029581Y0008085D01*
X0029581Y0008569D01*
X0030064Y0009052D01*
X0031032Y0009052D01*
X0031516Y0008569D01*
X0028584Y0009052D02*
X0027616Y0009052D01*
X0028100Y0009052D02*
X0028100Y0006150D01*
X0027616Y0006150D02*
X0028584Y0006150D01*
X0026605Y0006150D02*
X0026605Y0009052D01*
X0025637Y0008085D01*
X0024670Y0009052D01*
X0024670Y0006150D01*
X0091467Y0006566D02*
X0091951Y0007049D01*
X0093886Y0007049D01*
X0094370Y0006566D01*
X0094370Y0005598D01*
X0093886Y0005114D01*
X0091951Y0005114D01*
X0091467Y0005598D01*
X0091467Y0006566D01*
X0091951Y0008061D02*
X0091467Y0008545D01*
X0091467Y0009512D01*
X0091951Y0009996D01*
X0093886Y0008061D01*
X0094370Y0008545D01*
X0094370Y0009512D01*
X0093886Y0009996D01*
X0091951Y0009996D01*
X0091951Y0008061D02*
X0093886Y0008061D01*
X0094370Y0004117D02*
X0094370Y0003150D01*
X0094370Y0003634D02*
X0091467Y0003634D01*
X0091467Y0004117D02*
X0091467Y0003150D01*
X0101467Y0003150D02*
X0101467Y0004117D01*
X0101467Y0003634D02*
X0104370Y0003634D01*
X0104370Y0004117D02*
X0104370Y0003150D01*
X0103886Y0005114D02*
X0101951Y0005114D01*
X0101467Y0005598D01*
X0101467Y0006566D01*
X0101951Y0007049D01*
X0103886Y0007049D01*
X0104370Y0006566D01*
X0104370Y0005598D01*
X0103886Y0005114D01*
X0104370Y0008061D02*
X0104370Y0009996D01*
X0104370Y0009028D02*
X0101467Y0009028D01*
X0102435Y0008061D01*
X0111467Y0008545D02*
X0111951Y0008061D01*
X0111467Y0008545D02*
X0111467Y0009512D01*
X0111951Y0009996D01*
X0112435Y0009996D01*
X0114370Y0008061D01*
X0114370Y0009996D01*
X0113886Y0007049D02*
X0111951Y0007049D01*
X0111467Y0006566D01*
X0111467Y0005598D01*
X0111951Y0005114D01*
X0113886Y0005114D01*
X0114370Y0005598D01*
X0114370Y0006566D01*
X0113886Y0007049D01*
X0114370Y0004117D02*
X0114370Y0003150D01*
X0114370Y0003634D02*
X0111467Y0003634D01*
X0111467Y0004117D02*
X0111467Y0003150D01*
X0121467Y0003150D02*
X0121467Y0004117D01*
X0121467Y0003634D02*
X0124370Y0003634D01*
X0124370Y0004117D02*
X0124370Y0003150D01*
X0123886Y0005114D02*
X0121951Y0005114D01*
X0121467Y0005598D01*
X0121467Y0006566D01*
X0121951Y0007049D01*
X0123886Y0007049D01*
X0124370Y0006566D01*
X0124370Y0005598D01*
X0123886Y0005114D01*
X0123886Y0008061D02*
X0124370Y0008545D01*
X0124370Y0009512D01*
X0123886Y0009996D01*
X0123402Y0009996D01*
X0122918Y0009512D01*
X0122918Y0009028D01*
X0122918Y0009512D02*
X0122435Y0009996D01*
X0121951Y0009996D01*
X0121467Y0009512D01*
X0121467Y0008545D01*
X0121951Y0008061D01*
X0131467Y0009512D02*
X0132918Y0008061D01*
X0132918Y0009996D01*
X0131467Y0009512D02*
X0134370Y0009512D01*
X0133886Y0007049D02*
X0131951Y0007049D01*
X0131467Y0006566D01*
X0131467Y0005598D01*
X0131951Y0005114D01*
X0133886Y0005114D01*
X0134370Y0005598D01*
X0134370Y0006566D01*
X0133886Y0007049D01*
X0134370Y0004117D02*
X0134370Y0003150D01*
X0134370Y0003634D02*
X0131467Y0003634D01*
X0131467Y0004117D02*
X0131467Y0003150D01*
X0141467Y0003150D02*
X0141467Y0004117D01*
X0141467Y0003634D02*
X0144370Y0003634D01*
X0144370Y0004117D02*
X0144370Y0003150D01*
X0143886Y0005114D02*
X0141951Y0005114D01*
X0141467Y0005598D01*
X0141467Y0006566D01*
X0141951Y0007049D01*
X0143886Y0007049D01*
X0144370Y0006566D01*
X0144370Y0005598D01*
X0143886Y0005114D01*
X0143886Y0008061D02*
X0144370Y0008545D01*
X0144370Y0009512D01*
X0143886Y0009996D01*
X0142918Y0009996D01*
X0142435Y0009512D01*
X0142435Y0009028D01*
X0142918Y0008061D01*
X0141467Y0008061D01*
X0141467Y0009996D01*
X0151467Y0009996D02*
X0151951Y0009028D01*
X0152918Y0008061D01*
X0152918Y0009512D01*
X0153402Y0009996D01*
X0153886Y0009996D01*
X0154370Y0009512D01*
X0154370Y0008545D01*
X0153886Y0008061D01*
X0152918Y0008061D01*
X0151951Y0007049D02*
X0151467Y0006566D01*
X0151467Y0005598D01*
X0151951Y0005114D01*
X0153886Y0005114D01*
X0154370Y0005598D01*
X0154370Y0006566D01*
X0153886Y0007049D01*
X0151951Y0007049D01*
X0151467Y0004117D02*
X0151467Y0003150D01*
X0151467Y0003634D02*
X0154370Y0003634D01*
X0154370Y0004117D02*
X0154370Y0003150D01*
X0161467Y0003150D02*
X0161467Y0004117D01*
X0161467Y0003634D02*
X0164370Y0003634D01*
X0164370Y0004117D02*
X0164370Y0003150D01*
X0163886Y0005114D02*
X0161951Y0005114D01*
X0161467Y0005598D01*
X0161467Y0006566D01*
X0161951Y0007049D01*
X0163886Y0007049D01*
X0164370Y0006566D01*
X0164370Y0005598D01*
X0163886Y0005114D01*
X0163886Y0008061D02*
X0164370Y0008061D01*
X0163886Y0008061D02*
X0161951Y0009996D01*
X0161467Y0009996D01*
X0161467Y0008061D01*
X0177467Y0007548D02*
X0177467Y0006097D01*
X0180370Y0006097D01*
X0180370Y0007548D01*
X0179886Y0008031D01*
X0177951Y0008031D01*
X0177467Y0007548D01*
X0177951Y0009043D02*
X0177467Y0009527D01*
X0177467Y0010494D01*
X0177951Y0010978D01*
X0179886Y0009043D01*
X0180370Y0009527D01*
X0180370Y0010494D01*
X0179886Y0010978D01*
X0177951Y0010978D01*
X0177951Y0009043D02*
X0179886Y0009043D01*
X0180370Y0005085D02*
X0178435Y0005085D01*
X0177467Y0004117D01*
X0178435Y0003150D01*
X0180370Y0003150D01*
X0178918Y0003150D02*
X0178918Y0005085D01*
X0187467Y0004117D02*
X0188435Y0005085D01*
X0190370Y0005085D01*
X0190370Y0006097D02*
X0190370Y0007548D01*
X0189886Y0008031D01*
X0187951Y0008031D01*
X0187467Y0007548D01*
X0187467Y0006097D01*
X0190370Y0006097D01*
X0188918Y0005085D02*
X0188918Y0003150D01*
X0188435Y0003150D02*
X0187467Y0004117D01*
X0188435Y0003150D02*
X0190370Y0003150D01*
X0197467Y0004117D02*
X0198435Y0005085D01*
X0200370Y0005085D01*
X0200370Y0006097D02*
X0200370Y0007548D01*
X0199886Y0008031D01*
X0197951Y0008031D01*
X0197467Y0007548D01*
X0197467Y0006097D01*
X0200370Y0006097D01*
X0198918Y0005085D02*
X0198918Y0003150D01*
X0198435Y0003150D02*
X0197467Y0004117D01*
X0198435Y0003150D02*
X0200370Y0003150D01*
X0200370Y0009043D02*
X0198435Y0010978D01*
X0197951Y0010978D01*
X0197467Y0010494D01*
X0197467Y0009527D01*
X0197951Y0009043D01*
X0200370Y0009043D02*
X0200370Y0010978D01*
X0207467Y0010494D02*
X0207951Y0010978D01*
X0208435Y0010978D01*
X0208918Y0010494D01*
X0209402Y0010978D01*
X0209886Y0010978D01*
X0210370Y0010494D01*
X0210370Y0009527D01*
X0209886Y0009043D01*
X0209886Y0008031D02*
X0207951Y0008031D01*
X0207467Y0007548D01*
X0207467Y0006097D01*
X0210370Y0006097D01*
X0210370Y0007548D01*
X0209886Y0008031D01*
X0207951Y0009043D02*
X0207467Y0009527D01*
X0207467Y0010494D01*
X0208918Y0010494D02*
X0208918Y0010011D01*
X0208918Y0005085D02*
X0208918Y0003150D01*
X0208435Y0003150D02*
X0207467Y0004117D01*
X0208435Y0005085D01*
X0210370Y0005085D01*
X0210370Y0003150D02*
X0208435Y0003150D01*
X0217467Y0004117D02*
X0218435Y0005085D01*
X0220370Y0005085D01*
X0220370Y0006097D02*
X0220370Y0007548D01*
X0219886Y0008031D01*
X0217951Y0008031D01*
X0217467Y0007548D01*
X0217467Y0006097D01*
X0220370Y0006097D01*
X0218918Y0005085D02*
X0218918Y0003150D01*
X0218435Y0003150D02*
X0217467Y0004117D01*
X0218435Y0003150D02*
X0220370Y0003150D01*
X0218918Y0009043D02*
X0217467Y0010494D01*
X0220370Y0010494D01*
X0218918Y0010978D02*
X0218918Y0009043D01*
X0227467Y0009043D02*
X0228918Y0009043D01*
X0228435Y0010011D01*
X0228435Y0010494D01*
X0228918Y0010978D01*
X0229886Y0010978D01*
X0230370Y0010494D01*
X0230370Y0009527D01*
X0229886Y0009043D01*
X0229886Y0008031D02*
X0227951Y0008031D01*
X0227467Y0007548D01*
X0227467Y0006097D01*
X0230370Y0006097D01*
X0230370Y0007548D01*
X0229886Y0008031D01*
X0227467Y0009043D02*
X0227467Y0010978D01*
X0228435Y0005085D02*
X0230370Y0005085D01*
X0228918Y0005085D02*
X0228918Y0003150D01*
X0228435Y0003150D02*
X0227467Y0004117D01*
X0228435Y0005085D01*
X0228435Y0003150D02*
X0230370Y0003150D01*
X0237467Y0004117D02*
X0238435Y0005085D01*
X0240370Y0005085D01*
X0240370Y0006097D02*
X0240370Y0007548D01*
X0239886Y0008031D01*
X0237951Y0008031D01*
X0237467Y0007548D01*
X0237467Y0006097D01*
X0240370Y0006097D01*
X0238918Y0005085D02*
X0238918Y0003150D01*
X0238435Y0003150D02*
X0237467Y0004117D01*
X0238435Y0003150D02*
X0240370Y0003150D01*
X0239886Y0009043D02*
X0240370Y0009527D01*
X0240370Y0010494D01*
X0239886Y0010978D01*
X0239402Y0010978D01*
X0238918Y0010494D01*
X0238918Y0009043D01*
X0239886Y0009043D01*
X0238918Y0009043D02*
X0237951Y0010011D01*
X0237467Y0010978D01*
X0247467Y0010978D02*
X0247951Y0010978D01*
X0249886Y0009043D01*
X0250370Y0009043D01*
X0249886Y0008031D02*
X0247951Y0008031D01*
X0247467Y0007548D01*
X0247467Y0006097D01*
X0250370Y0006097D01*
X0250370Y0007548D01*
X0249886Y0008031D01*
X0247467Y0009043D02*
X0247467Y0010978D01*
X0248435Y0005085D02*
X0250370Y0005085D01*
X0248918Y0005085D02*
X0248918Y0003150D01*
X0248435Y0003150D02*
X0247467Y0004117D01*
X0248435Y0005085D01*
X0248435Y0003150D02*
X0250370Y0003150D01*
X0272670Y0026150D02*
X0273637Y0026150D01*
X0273153Y0026150D02*
X0273153Y0029052D01*
X0272670Y0029052D02*
X0273637Y0029052D01*
X0274634Y0028569D02*
X0274634Y0026634D01*
X0275118Y0026150D01*
X0276085Y0026150D01*
X0276569Y0026634D01*
X0276569Y0028569D01*
X0276085Y0029052D01*
X0275118Y0029052D01*
X0274634Y0028569D01*
X0277581Y0028569D02*
X0277581Y0028085D01*
X0278064Y0027601D01*
X0279032Y0027601D01*
X0279516Y0027117D01*
X0279516Y0026634D01*
X0279032Y0026150D01*
X0278064Y0026150D01*
X0277581Y0026634D01*
X0277581Y0027117D01*
X0278064Y0027601D01*
X0279032Y0027601D02*
X0279516Y0028085D01*
X0279516Y0028569D01*
X0279032Y0029052D01*
X0278064Y0029052D01*
X0277581Y0028569D01*
X0278064Y0036150D02*
X0277581Y0036634D01*
X0278064Y0036150D02*
X0279032Y0036150D01*
X0279516Y0036634D01*
X0279516Y0038569D01*
X0279032Y0039052D01*
X0278064Y0039052D01*
X0277581Y0038569D01*
X0277581Y0038085D01*
X0278064Y0037601D01*
X0279516Y0037601D01*
X0276569Y0036634D02*
X0276569Y0038569D01*
X0276085Y0039052D01*
X0275118Y0039052D01*
X0274634Y0038569D01*
X0274634Y0036634D01*
X0275118Y0036150D01*
X0276085Y0036150D01*
X0276569Y0036634D01*
X0273637Y0036150D02*
X0272670Y0036150D01*
X0273153Y0036150D02*
X0273153Y0039052D01*
X0272670Y0039052D02*
X0273637Y0039052D01*
X0273153Y0044150D02*
X0272670Y0044634D01*
X0273153Y0044150D02*
X0274121Y0044150D01*
X0274605Y0044634D01*
X0274605Y0045117D01*
X0274121Y0045601D01*
X0273153Y0045601D01*
X0272670Y0046085D01*
X0272670Y0046569D01*
X0273153Y0047052D01*
X0274121Y0047052D01*
X0274605Y0046569D01*
X0275616Y0046569D02*
X0275616Y0046085D01*
X0276100Y0045601D01*
X0277067Y0045601D01*
X0277551Y0045117D01*
X0277551Y0044634D01*
X0277067Y0044150D01*
X0276100Y0044150D01*
X0275616Y0044634D01*
X0275616Y0046569D02*
X0276100Y0047052D01*
X0277067Y0047052D01*
X0277551Y0046569D01*
X0277581Y0048150D02*
X0279516Y0048150D01*
X0278548Y0048150D02*
X0278548Y0051052D01*
X0277581Y0050085D01*
X0276569Y0050569D02*
X0276085Y0051052D01*
X0275118Y0051052D01*
X0274634Y0050569D01*
X0274634Y0048634D01*
X0275118Y0048150D01*
X0276085Y0048150D01*
X0276569Y0048634D01*
X0276569Y0050569D01*
X0273637Y0051052D02*
X0272670Y0051052D01*
X0273153Y0051052D02*
X0273153Y0048150D01*
X0272670Y0048150D02*
X0273637Y0048150D01*
X0280527Y0048634D02*
X0282462Y0050569D01*
X0282462Y0048634D01*
X0281978Y0048150D01*
X0281011Y0048150D01*
X0280527Y0048634D01*
X0280527Y0050569D01*
X0281011Y0051052D01*
X0281978Y0051052D01*
X0282462Y0050569D01*
X0282477Y0054150D02*
X0281509Y0054150D01*
X0281993Y0054150D02*
X0281993Y0057052D01*
X0281509Y0057052D02*
X0282477Y0057052D01*
X0282462Y0058150D02*
X0280527Y0058150D01*
X0281495Y0058150D02*
X0281495Y0061052D01*
X0280527Y0060085D01*
X0279516Y0058150D02*
X0277581Y0058150D01*
X0278548Y0058150D02*
X0278548Y0061052D01*
X0277581Y0060085D01*
X0276569Y0060569D02*
X0276085Y0061052D01*
X0275118Y0061052D01*
X0274634Y0060569D01*
X0274634Y0058634D01*
X0275118Y0058150D01*
X0276085Y0058150D01*
X0276569Y0058634D01*
X0276569Y0060569D01*
X0273637Y0061052D02*
X0272670Y0061052D01*
X0273153Y0061052D02*
X0273153Y0058150D01*
X0272670Y0058150D02*
X0273637Y0058150D01*
X0272670Y0057052D02*
X0273637Y0056085D01*
X0274605Y0057052D01*
X0274605Y0054150D01*
X0275616Y0054634D02*
X0275616Y0056569D01*
X0276100Y0057052D01*
X0277067Y0057052D01*
X0277551Y0056569D01*
X0277551Y0054634D01*
X0277067Y0054150D01*
X0276100Y0054150D01*
X0275616Y0054634D01*
X0278563Y0054634D02*
X0279046Y0054150D01*
X0280014Y0054150D01*
X0280498Y0054634D01*
X0280498Y0055117D01*
X0280014Y0055601D01*
X0279046Y0055601D01*
X0278563Y0056085D01*
X0278563Y0056569D01*
X0279046Y0057052D01*
X0280014Y0057052D01*
X0280498Y0056569D01*
X0272670Y0057052D02*
X0272670Y0054150D01*
X0272670Y0064150D02*
X0272670Y0067052D01*
X0273637Y0066085D01*
X0274605Y0067052D01*
X0274605Y0064150D01*
X0275616Y0064150D02*
X0276584Y0064150D01*
X0276100Y0064150D02*
X0276100Y0067052D01*
X0275616Y0067052D02*
X0276584Y0067052D01*
X0277581Y0066569D02*
X0277581Y0066085D01*
X0278064Y0065601D01*
X0279032Y0065601D01*
X0279516Y0065117D01*
X0279516Y0064634D01*
X0279032Y0064150D01*
X0278064Y0064150D01*
X0277581Y0064634D01*
X0277581Y0066569D02*
X0278064Y0067052D01*
X0279032Y0067052D01*
X0279516Y0066569D01*
X0280527Y0066569D02*
X0280527Y0064634D01*
X0281011Y0064150D01*
X0281978Y0064150D01*
X0282462Y0064634D01*
X0282462Y0066569D01*
X0281978Y0067052D01*
X0281011Y0067052D01*
X0280527Y0066569D01*
X0280527Y0068150D02*
X0282462Y0070085D01*
X0282462Y0070569D01*
X0281978Y0071052D01*
X0281011Y0071052D01*
X0280527Y0070569D01*
X0278548Y0071052D02*
X0278548Y0068150D01*
X0277581Y0068150D02*
X0279516Y0068150D01*
X0280527Y0068150D02*
X0282462Y0068150D01*
X0278548Y0071052D02*
X0277581Y0070085D01*
X0276569Y0070569D02*
X0276569Y0068634D01*
X0276085Y0068150D01*
X0275118Y0068150D01*
X0274634Y0068634D01*
X0274634Y0070569D01*
X0275118Y0071052D01*
X0276085Y0071052D01*
X0276569Y0070569D01*
X0273637Y0071052D02*
X0272670Y0071052D01*
X0273153Y0071052D02*
X0273153Y0068150D01*
X0272670Y0068150D02*
X0273637Y0068150D01*
X0273153Y0074150D02*
X0272670Y0074634D01*
X0273153Y0074150D02*
X0274121Y0074150D01*
X0274605Y0074634D01*
X0274605Y0075117D01*
X0274121Y0075601D01*
X0273153Y0075601D01*
X0272670Y0076085D01*
X0272670Y0076569D01*
X0273153Y0077052D01*
X0274121Y0077052D01*
X0274605Y0076569D01*
X0275616Y0076569D02*
X0275616Y0074634D01*
X0276100Y0074150D01*
X0277067Y0074150D01*
X0277551Y0074634D01*
X0278563Y0075117D02*
X0280498Y0077052D01*
X0281011Y0078150D02*
X0280527Y0078634D01*
X0281011Y0078150D02*
X0281978Y0078150D01*
X0282462Y0078634D01*
X0282462Y0079117D01*
X0281978Y0079601D01*
X0281495Y0079601D01*
X0281978Y0079601D02*
X0282462Y0080085D01*
X0282462Y0080569D01*
X0281978Y0081052D01*
X0281011Y0081052D01*
X0280527Y0080569D01*
X0278548Y0081052D02*
X0278548Y0078150D01*
X0277581Y0078150D02*
X0279516Y0078150D01*
X0278563Y0077052D02*
X0278563Y0074150D01*
X0279046Y0075601D02*
X0280498Y0074150D01*
X0277551Y0076569D02*
X0277067Y0077052D01*
X0276100Y0077052D01*
X0275616Y0076569D01*
X0276085Y0078150D02*
X0276569Y0078634D01*
X0276569Y0080569D01*
X0276085Y0081052D01*
X0275118Y0081052D01*
X0274634Y0080569D01*
X0274634Y0078634D01*
X0275118Y0078150D01*
X0276085Y0078150D01*
X0277581Y0080085D02*
X0278548Y0081052D01*
X0273637Y0081052D02*
X0272670Y0081052D01*
X0273153Y0081052D02*
X0273153Y0078150D01*
X0272670Y0078150D02*
X0273637Y0078150D01*
X0273153Y0086150D02*
X0274121Y0086150D01*
X0274605Y0086634D01*
X0274605Y0087601D01*
X0273637Y0087601D01*
X0272670Y0086634D02*
X0273153Y0086150D01*
X0272670Y0086634D02*
X0272670Y0088569D01*
X0273153Y0089052D01*
X0274121Y0089052D01*
X0274605Y0088569D01*
X0275616Y0089052D02*
X0277551Y0086150D01*
X0277551Y0089052D01*
X0278563Y0089052D02*
X0278563Y0086150D01*
X0280014Y0086150D01*
X0280498Y0086634D01*
X0280498Y0088569D01*
X0280014Y0089052D01*
X0278563Y0089052D01*
X0275616Y0089052D02*
X0275616Y0086150D01*
X0275616Y0096150D02*
X0275616Y0099052D01*
X0277067Y0099052D01*
X0277551Y0098569D01*
X0277551Y0097601D01*
X0277067Y0097117D01*
X0275616Y0097117D01*
X0276584Y0097117D02*
X0277551Y0096150D01*
X0278563Y0096150D02*
X0278563Y0099052D01*
X0280498Y0099052D01*
X0281509Y0099052D02*
X0281509Y0096150D01*
X0280498Y0096150D02*
X0278563Y0096150D01*
X0278563Y0097601D02*
X0279530Y0097601D01*
X0281509Y0097601D02*
X0282477Y0097601D01*
X0283444Y0099052D02*
X0281509Y0099052D01*
X0274605Y0098085D02*
X0274605Y0096150D01*
X0274605Y0097601D02*
X0272670Y0097601D01*
X0272670Y0098085D02*
X0273637Y0099052D01*
X0274605Y0098085D01*
X0272670Y0098085D02*
X0272670Y0096150D01*
X0271830Y0163950D02*
X0271830Y0166852D01*
X0273281Y0166852D01*
X0273765Y0166369D01*
X0273765Y0165401D01*
X0273281Y0164917D01*
X0271830Y0164917D01*
X0272798Y0164917D02*
X0273765Y0163950D01*
X0274777Y0163950D02*
X0276712Y0163950D01*
X0277723Y0164434D02*
X0278207Y0163950D01*
X0279174Y0163950D01*
X0279658Y0164434D01*
X0279658Y0164917D01*
X0279174Y0165401D01*
X0278207Y0165401D01*
X0277723Y0165885D01*
X0277723Y0166369D01*
X0278207Y0166852D01*
X0279174Y0166852D01*
X0279658Y0166369D01*
X0276712Y0166852D02*
X0274777Y0166852D01*
X0274777Y0163950D01*
X0274777Y0165401D02*
X0275744Y0165401D01*
X0274777Y0173950D02*
X0274777Y0176852D01*
X0276712Y0173950D01*
X0276712Y0176852D01*
X0277723Y0176852D02*
X0279174Y0176852D01*
X0279658Y0176369D01*
X0279658Y0174434D01*
X0279174Y0173950D01*
X0277723Y0173950D01*
X0277723Y0176852D01*
X0273765Y0176369D02*
X0273281Y0176852D01*
X0272314Y0176852D01*
X0271830Y0176369D01*
X0271830Y0174434D01*
X0272314Y0173950D01*
X0273281Y0173950D01*
X0273765Y0174434D01*
X0273765Y0175401D01*
X0272798Y0175401D01*
X0273281Y0183950D02*
X0273765Y0184434D01*
X0273765Y0185401D01*
X0272798Y0185401D01*
X0273765Y0186369D02*
X0273281Y0186852D01*
X0272314Y0186852D01*
X0271830Y0186369D01*
X0271830Y0184434D01*
X0272314Y0183950D01*
X0273281Y0183950D01*
X0274777Y0183950D02*
X0274777Y0186852D01*
X0276712Y0183950D01*
X0276712Y0186852D01*
X0277723Y0186852D02*
X0279174Y0186852D01*
X0279658Y0186369D01*
X0279658Y0184434D01*
X0279174Y0183950D01*
X0277723Y0183950D01*
X0277723Y0186852D01*
X0278207Y0193950D02*
X0277723Y0194434D01*
X0277723Y0196369D01*
X0278207Y0196852D01*
X0279174Y0196852D01*
X0279658Y0196369D01*
X0279658Y0194434D02*
X0279174Y0193950D01*
X0278207Y0193950D01*
X0276712Y0194434D02*
X0276228Y0193950D01*
X0275260Y0193950D01*
X0274777Y0194434D01*
X0274777Y0196369D01*
X0275260Y0196852D01*
X0276228Y0196852D01*
X0276712Y0196369D01*
X0273765Y0196852D02*
X0273765Y0194917D01*
X0272798Y0193950D01*
X0271830Y0194917D01*
X0271830Y0196852D01*
X0273780Y0203950D02*
X0274747Y0204917D01*
X0274747Y0206852D01*
X0275759Y0206852D02*
X0276726Y0206852D01*
X0276243Y0206852D02*
X0276243Y0203950D01*
X0276726Y0203950D02*
X0275759Y0203950D01*
X0277723Y0203950D02*
X0277723Y0206852D01*
X0279658Y0203950D01*
X0279658Y0206852D01*
X0273780Y0203950D02*
X0272812Y0204917D01*
X0272812Y0206852D01*
X0190370Y0010978D02*
X0190370Y0009043D01*
X0190370Y0010011D02*
X0187467Y0010011D01*
X0188435Y0009043D01*
D14*
X0183326Y0024450D02*
X0181074Y0024450D01*
X0181074Y0028954D01*
X0183326Y0028954D01*
X0184076Y0028203D01*
X0184076Y0025201D01*
X0183326Y0024450D01*
X0179472Y0024450D02*
X0179472Y0027453D01*
X0177971Y0028954D01*
X0176470Y0027453D01*
X0176470Y0024450D01*
X0176470Y0026702D02*
X0179472Y0026702D01*
X0169145Y0024450D02*
X0166143Y0024450D01*
X0166143Y0028954D01*
X0164542Y0028203D02*
X0163791Y0028954D01*
X0162290Y0028954D01*
X0161539Y0028203D01*
X0161539Y0025201D01*
X0162290Y0024450D01*
X0163791Y0024450D01*
X0164542Y0025201D01*
X0164542Y0028203D01*
X0159971Y0028954D02*
X0158470Y0028954D01*
X0159220Y0028954D02*
X0159220Y0024450D01*
X0158470Y0024450D02*
X0159971Y0024450D01*
X0124876Y0031750D02*
X0121874Y0031750D01*
X0124876Y0034753D01*
X0124876Y0035503D01*
X0124126Y0036254D01*
X0122624Y0036254D01*
X0121874Y0035503D01*
X0120272Y0035503D02*
X0120272Y0034002D01*
X0119522Y0033251D01*
X0117270Y0033251D01*
X0118771Y0033251D02*
X0120272Y0031750D01*
X0117270Y0031750D02*
X0117270Y0036254D01*
X0119522Y0036254D01*
X0120272Y0035503D01*
X0121124Y0048250D02*
X0120374Y0049001D01*
X0121124Y0048250D02*
X0122626Y0048250D01*
X0123376Y0049001D01*
X0123376Y0050502D01*
X0122626Y0051253D01*
X0121875Y0051253D01*
X0120374Y0050502D01*
X0120374Y0052754D01*
X0123376Y0052754D01*
X0118772Y0052003D02*
X0118772Y0050502D01*
X0118022Y0049751D01*
X0115770Y0049751D01*
X0117271Y0049751D02*
X0118772Y0048250D01*
X0115770Y0048250D02*
X0115770Y0052754D01*
X0118022Y0052754D01*
X0118772Y0052003D01*
X0118564Y0061250D02*
X0117063Y0062751D01*
X0117814Y0062751D02*
X0115562Y0062751D01*
X0115562Y0061250D02*
X0115562Y0065754D01*
X0117814Y0065754D01*
X0118564Y0065003D01*
X0118564Y0063502D01*
X0117814Y0062751D01*
X0120166Y0063502D02*
X0123168Y0063502D01*
X0122418Y0061250D02*
X0122418Y0065754D01*
X0120166Y0063502D01*
X0121124Y0076250D02*
X0122626Y0076250D01*
X0123376Y0077001D01*
X0123376Y0077751D01*
X0122626Y0078502D01*
X0120374Y0078502D01*
X0120374Y0077001D01*
X0121124Y0076250D01*
X0118772Y0076250D02*
X0117271Y0077751D01*
X0118022Y0077751D02*
X0115770Y0077751D01*
X0115770Y0076250D02*
X0115770Y0080754D01*
X0118022Y0080754D01*
X0118772Y0080003D01*
X0118772Y0078502D01*
X0118022Y0077751D01*
X0120374Y0078502D02*
X0121875Y0080003D01*
X0123376Y0080754D01*
X0122418Y0091250D02*
X0120916Y0091250D01*
X0120166Y0092001D01*
X0118564Y0091250D02*
X0117063Y0092751D01*
X0117814Y0092751D02*
X0115562Y0092751D01*
X0115562Y0091250D02*
X0115562Y0095754D01*
X0117814Y0095754D01*
X0118564Y0095003D01*
X0118564Y0093502D01*
X0117814Y0092751D01*
X0120166Y0095003D02*
X0120916Y0095754D01*
X0122418Y0095754D01*
X0123168Y0095003D01*
X0123168Y0094253D01*
X0122418Y0093502D01*
X0123168Y0092751D01*
X0123168Y0092001D01*
X0122418Y0091250D01*
X0122418Y0093502D02*
X0121667Y0093502D01*
X0129020Y0115750D02*
X0128270Y0116501D01*
X0128270Y0119503D01*
X0129020Y0120254D01*
X0130522Y0120254D01*
X0131272Y0119503D01*
X0132874Y0120254D02*
X0132874Y0118002D01*
X0134375Y0118753D01*
X0135126Y0118753D01*
X0135876Y0118002D01*
X0135876Y0116501D01*
X0135126Y0115750D01*
X0133624Y0115750D01*
X0132874Y0116501D01*
X0131272Y0116501D02*
X0130522Y0115750D01*
X0129020Y0115750D01*
X0132874Y0120254D02*
X0135876Y0120254D01*
X0159270Y0119503D02*
X0159270Y0116501D01*
X0160020Y0115750D01*
X0161522Y0115750D01*
X0162272Y0116501D01*
X0163874Y0115750D02*
X0166876Y0118753D01*
X0166876Y0119503D01*
X0166126Y0120254D01*
X0164624Y0120254D01*
X0163874Y0119503D01*
X0162272Y0119503D02*
X0161522Y0120254D01*
X0160020Y0120254D01*
X0159270Y0119503D01*
X0163874Y0115750D02*
X0166876Y0115750D01*
X0192770Y0095253D02*
X0194271Y0096754D01*
X0195772Y0095253D01*
X0195772Y0092250D01*
X0195772Y0094502D02*
X0192770Y0094502D01*
X0192770Y0095253D02*
X0192770Y0092250D01*
X0198875Y0092250D02*
X0198875Y0096754D01*
X0197374Y0096754D02*
X0200376Y0096754D01*
X0201978Y0096754D02*
X0204980Y0096754D01*
X0203479Y0096754D02*
X0203479Y0092250D01*
X0206581Y0092250D02*
X0208083Y0092250D01*
X0207332Y0092250D02*
X0207332Y0096754D01*
X0206581Y0096754D02*
X0208083Y0096754D01*
X0209651Y0096754D02*
X0212653Y0092250D01*
X0212653Y0096754D01*
X0214255Y0096754D02*
X0214255Y0096003D01*
X0215756Y0094502D01*
X0215756Y0092250D01*
X0215756Y0094502D02*
X0217257Y0096003D01*
X0217257Y0096754D01*
X0218859Y0096003D02*
X0218859Y0095253D01*
X0219609Y0094502D01*
X0221111Y0094502D01*
X0221861Y0093751D01*
X0221861Y0093001D01*
X0221111Y0092250D01*
X0219609Y0092250D01*
X0218859Y0093001D01*
X0218859Y0093751D01*
X0219609Y0094502D01*
X0221111Y0094502D02*
X0221861Y0095253D01*
X0221861Y0096003D01*
X0221111Y0096754D01*
X0219609Y0096754D01*
X0218859Y0096003D01*
X0223463Y0094502D02*
X0226465Y0094502D01*
X0228066Y0094502D02*
X0231069Y0094502D01*
X0232670Y0096003D02*
X0233421Y0096754D01*
X0234922Y0096754D01*
X0235673Y0096003D01*
X0235673Y0095253D01*
X0232670Y0092250D01*
X0235673Y0092250D01*
X0237274Y0093001D02*
X0240277Y0096003D01*
X0240277Y0093001D01*
X0239526Y0092250D01*
X0238025Y0092250D01*
X0237274Y0093001D01*
X0237274Y0096003D01*
X0238025Y0096754D01*
X0239526Y0096754D01*
X0240277Y0096003D01*
X0241878Y0096754D02*
X0244130Y0096754D01*
X0244881Y0096003D01*
X0244881Y0094502D01*
X0244130Y0093751D01*
X0241878Y0093751D01*
X0241878Y0092250D02*
X0241878Y0096754D01*
X0246482Y0096754D02*
X0246482Y0093001D01*
X0247233Y0092250D01*
X0248734Y0092250D01*
X0249485Y0093001D01*
X0249485Y0096754D01*
X0260470Y0104450D02*
X0261971Y0104450D01*
X0261220Y0104450D02*
X0261220Y0108954D01*
X0260470Y0108954D02*
X0261971Y0108954D01*
X0263539Y0108203D02*
X0263539Y0105201D01*
X0264290Y0104450D01*
X0265791Y0104450D01*
X0266542Y0105201D01*
X0266542Y0108203D01*
X0265791Y0108954D01*
X0264290Y0108954D01*
X0263539Y0108203D01*
X0268143Y0108954D02*
X0268143Y0104450D01*
X0268143Y0106702D02*
X0271145Y0106702D01*
X0271145Y0108954D02*
X0271145Y0104450D01*
X0225714Y0096754D02*
X0225714Y0092250D01*
X0223463Y0094502D02*
X0225714Y0096754D01*
X0209651Y0096754D02*
X0209651Y0092250D01*
X0193167Y0058254D02*
X0193167Y0053750D01*
X0191666Y0053750D02*
X0194668Y0053750D01*
X0191666Y0056753D02*
X0193167Y0058254D01*
X0190064Y0057503D02*
X0189314Y0058254D01*
X0187812Y0058254D01*
X0187062Y0057503D01*
X0187062Y0054501D01*
X0187812Y0053750D01*
X0189314Y0053750D01*
X0190064Y0054501D01*
X0214270Y0051254D02*
X0217272Y0051254D01*
X0215771Y0051254D02*
X0215771Y0046750D01*
X0218874Y0046750D02*
X0220375Y0046750D01*
X0219624Y0046750D02*
X0219624Y0051254D01*
X0218874Y0051254D02*
X0220375Y0051254D01*
X0221943Y0051254D02*
X0224945Y0046750D01*
X0224945Y0051254D01*
X0226547Y0051254D02*
X0226547Y0050503D01*
X0228048Y0049002D01*
X0228048Y0046750D01*
X0228048Y0049002D02*
X0229549Y0050503D01*
X0229549Y0051254D01*
X0231151Y0050503D02*
X0231901Y0051254D01*
X0233403Y0051254D01*
X0234153Y0050503D01*
X0234153Y0049753D01*
X0233403Y0049002D01*
X0231901Y0049002D01*
X0231151Y0049753D01*
X0231151Y0050503D01*
X0231901Y0049002D02*
X0231151Y0048251D01*
X0231151Y0047501D01*
X0231901Y0046750D01*
X0233403Y0046750D01*
X0234153Y0047501D01*
X0234153Y0048251D01*
X0233403Y0049002D01*
X0235755Y0049002D02*
X0235755Y0051254D01*
X0238757Y0051254D01*
X0238007Y0049753D02*
X0237256Y0049753D01*
X0235755Y0049002D01*
X0235755Y0047501D02*
X0236505Y0046750D01*
X0238007Y0046750D01*
X0238757Y0047501D01*
X0238757Y0049002D01*
X0238007Y0049753D01*
X0240359Y0049002D02*
X0243361Y0049002D01*
X0244963Y0051254D02*
X0244963Y0046750D01*
X0247214Y0046750D01*
X0247965Y0047501D01*
X0247965Y0050503D01*
X0247214Y0051254D01*
X0244963Y0051254D01*
X0249566Y0051254D02*
X0251068Y0051254D01*
X0250317Y0051254D02*
X0250317Y0046750D01*
X0249566Y0046750D02*
X0251068Y0046750D01*
X0252636Y0046750D02*
X0252636Y0051254D01*
X0254888Y0051254D01*
X0255638Y0050503D01*
X0255638Y0049002D01*
X0254888Y0048251D01*
X0252636Y0048251D01*
X0221943Y0046750D02*
X0221943Y0051254D01*
X0104126Y0115750D02*
X0104126Y0120254D01*
X0101874Y0118002D01*
X0104876Y0118002D01*
X0100272Y0119503D02*
X0099522Y0120254D01*
X0098020Y0120254D01*
X0097270Y0119503D01*
X0097270Y0116501D01*
X0098020Y0115750D01*
X0099522Y0115750D01*
X0100272Y0116501D01*
X0088152Y0104254D02*
X0088152Y0099750D01*
X0086651Y0099750D02*
X0089653Y0099750D01*
X0086651Y0102753D02*
X0088152Y0104254D01*
X0085049Y0104254D02*
X0083548Y0102753D01*
X0082047Y0104254D01*
X0082047Y0099750D01*
X0080479Y0099750D02*
X0078978Y0099750D01*
X0079728Y0099750D02*
X0079728Y0104254D01*
X0078978Y0104254D02*
X0080479Y0104254D01*
X0077376Y0103503D02*
X0077376Y0102002D01*
X0076626Y0101251D01*
X0074374Y0101251D01*
X0075875Y0101251D02*
X0077376Y0099750D01*
X0077376Y0103503D02*
X0076626Y0104254D01*
X0074374Y0104254D01*
X0074374Y0099750D01*
X0071271Y0099750D02*
X0071271Y0104254D01*
X0069770Y0104254D02*
X0072772Y0104254D01*
X0085049Y0104254D02*
X0085049Y0099750D01*
X0073126Y0115750D02*
X0071624Y0115750D01*
X0070874Y0116501D01*
X0070874Y0117251D01*
X0071624Y0118002D01*
X0073126Y0118002D01*
X0073876Y0117251D01*
X0073876Y0116501D01*
X0073126Y0115750D01*
X0073126Y0118002D02*
X0073876Y0118753D01*
X0073876Y0119503D01*
X0073126Y0120254D01*
X0071624Y0120254D01*
X0070874Y0119503D01*
X0070874Y0118753D01*
X0071624Y0118002D01*
X0069272Y0119503D02*
X0068522Y0120254D01*
X0067020Y0120254D01*
X0066270Y0119503D01*
X0066270Y0116501D01*
X0067020Y0115750D01*
X0068522Y0115750D01*
X0069272Y0116501D01*
X0053861Y0122001D02*
X0053111Y0121250D01*
X0051609Y0121250D01*
X0050859Y0122001D01*
X0053861Y0125003D01*
X0053861Y0122001D01*
X0053861Y0125003D02*
X0053111Y0125754D01*
X0051609Y0125754D01*
X0050859Y0125003D01*
X0050859Y0122001D01*
X0049257Y0121250D02*
X0046255Y0121250D01*
X0047756Y0121250D02*
X0047756Y0125754D01*
X0046255Y0124253D01*
X0044653Y0120499D02*
X0041651Y0120499D01*
X0039299Y0122751D02*
X0037047Y0122751D01*
X0037047Y0121250D02*
X0037047Y0125754D01*
X0039299Y0125754D01*
X0040049Y0125003D01*
X0040049Y0123502D01*
X0039299Y0122751D01*
X0035445Y0122751D02*
X0034695Y0123502D01*
X0033194Y0123502D01*
X0032443Y0124253D01*
X0032443Y0125003D01*
X0033194Y0125754D01*
X0034695Y0125754D01*
X0035445Y0125003D01*
X0035445Y0122751D02*
X0035445Y0122001D01*
X0034695Y0121250D01*
X0033194Y0121250D01*
X0032443Y0122001D01*
X0030842Y0122001D02*
X0030091Y0121250D01*
X0028590Y0121250D01*
X0027839Y0122001D01*
X0027839Y0125003D01*
X0028590Y0125754D01*
X0030091Y0125754D01*
X0030842Y0125003D01*
X0026271Y0125754D02*
X0024770Y0125754D01*
X0025520Y0125754D02*
X0025520Y0121250D01*
X0024770Y0121250D02*
X0026271Y0121250D01*
X0064966Y0132626D02*
X0069470Y0132626D01*
X0069470Y0135629D01*
X0069470Y0137230D02*
X0064966Y0137230D01*
X0066467Y0138732D01*
X0064966Y0140233D01*
X0069470Y0140233D01*
X0068719Y0141834D02*
X0069470Y0142585D01*
X0069470Y0144086D01*
X0068719Y0144837D01*
X0067968Y0144837D01*
X0067218Y0144086D01*
X0067218Y0143336D01*
X0067218Y0144086D02*
X0066467Y0144837D01*
X0065716Y0144837D01*
X0064966Y0144086D01*
X0064966Y0142585D01*
X0065716Y0141834D01*
X0066467Y0146438D02*
X0064966Y0147939D01*
X0069470Y0147939D01*
X0069470Y0146438D02*
X0069470Y0149441D01*
X0069470Y0151042D02*
X0068719Y0151042D01*
X0065716Y0154045D01*
X0064966Y0154045D01*
X0064966Y0151042D01*
X0064966Y0155646D02*
X0064966Y0158649D01*
X0064966Y0157147D02*
X0069470Y0157147D01*
X0069020Y0185750D02*
X0068270Y0186501D01*
X0068270Y0189503D01*
X0069020Y0190254D01*
X0070522Y0190254D01*
X0071272Y0189503D01*
X0072874Y0190254D02*
X0075876Y0190254D01*
X0075876Y0189503D01*
X0072874Y0186501D01*
X0072874Y0185750D01*
X0071272Y0186501D02*
X0070522Y0185750D01*
X0069020Y0185750D01*
X0092938Y0189457D02*
X0093689Y0188707D01*
X0095190Y0188707D01*
X0095941Y0189457D01*
X0095941Y0190208D01*
X0095190Y0190959D01*
X0093689Y0190959D01*
X0092938Y0191709D01*
X0092938Y0192460D01*
X0093689Y0193211D01*
X0095190Y0193211D01*
X0095941Y0192460D01*
X0097542Y0193211D02*
X0097542Y0188707D01*
X0099043Y0190208D01*
X0100545Y0188707D01*
X0100545Y0193211D01*
X0102146Y0191709D02*
X0103647Y0193211D01*
X0103647Y0188707D01*
X0102146Y0188707D02*
X0105149Y0188707D01*
X0093315Y0194520D02*
X0093315Y0196094D01*
X0093315Y0194520D02*
X0117724Y0194520D01*
X0117724Y0196094D01*
X0117724Y0207906D02*
X0117724Y0209480D01*
X0093315Y0209480D01*
X0093315Y0207906D01*
X0158562Y0207750D02*
X0160814Y0207750D01*
X0161564Y0208501D01*
X0161564Y0211503D01*
X0160814Y0212254D01*
X0158562Y0212254D01*
X0158562Y0207750D01*
X0163166Y0207750D02*
X0166168Y0210753D01*
X0166168Y0211503D01*
X0165418Y0212254D01*
X0163916Y0212254D01*
X0163166Y0211503D01*
X0163166Y0207750D02*
X0166168Y0207750D01*
X0164667Y0197254D02*
X0164667Y0192750D01*
X0163166Y0192750D02*
X0166168Y0192750D01*
X0163166Y0195753D02*
X0164667Y0197254D01*
X0161564Y0196503D02*
X0160814Y0197254D01*
X0158562Y0197254D01*
X0158562Y0192750D01*
X0160814Y0192750D01*
X0161564Y0193501D01*
X0161564Y0196503D01*
X0160814Y0182254D02*
X0158562Y0182254D01*
X0158562Y0177750D01*
X0160814Y0177750D01*
X0161564Y0178501D01*
X0161564Y0181503D01*
X0160814Y0182254D01*
X0163166Y0181503D02*
X0163916Y0182254D01*
X0165418Y0182254D01*
X0166168Y0181503D01*
X0166168Y0180753D01*
X0165418Y0180002D01*
X0166168Y0179251D01*
X0166168Y0178501D01*
X0165418Y0177750D01*
X0163916Y0177750D01*
X0163166Y0178501D01*
X0164667Y0180002D02*
X0165418Y0180002D01*
X0180766Y0185042D02*
X0180766Y0187294D01*
X0181516Y0188045D01*
X0183018Y0188045D01*
X0183768Y0187294D01*
X0183768Y0185042D01*
X0183768Y0186543D02*
X0185270Y0188045D01*
X0185270Y0189646D02*
X0184519Y0189646D01*
X0181516Y0192649D01*
X0180766Y0192649D01*
X0180766Y0189646D01*
X0180766Y0185042D02*
X0185270Y0185042D01*
X0201770Y0191501D02*
X0202520Y0190750D01*
X0204022Y0190750D01*
X0204772Y0191501D01*
X0204772Y0194503D01*
X0204022Y0195254D01*
X0202520Y0195254D01*
X0201770Y0194503D01*
X0201770Y0191501D01*
X0206374Y0191501D02*
X0207124Y0190750D01*
X0208626Y0190750D01*
X0209376Y0191501D01*
X0209376Y0192251D01*
X0208626Y0193002D01*
X0207124Y0193002D01*
X0206374Y0193753D01*
X0206374Y0194503D01*
X0207124Y0195254D01*
X0208626Y0195254D01*
X0209376Y0194503D01*
X0210978Y0194503D02*
X0210978Y0191501D01*
X0211728Y0190750D01*
X0213229Y0190750D01*
X0213980Y0191501D01*
X0215581Y0190750D02*
X0218584Y0190750D01*
X0217083Y0190750D02*
X0217083Y0195254D01*
X0215581Y0193753D01*
X0213980Y0194503D02*
X0213229Y0195254D01*
X0211728Y0195254D01*
X0210978Y0194503D01*
X0206126Y0208750D02*
X0206876Y0209501D01*
X0206876Y0210251D01*
X0206126Y0211002D01*
X0203874Y0211002D01*
X0203874Y0209501D01*
X0204624Y0208750D01*
X0206126Y0208750D01*
X0203874Y0211002D02*
X0205375Y0212503D01*
X0206876Y0213254D01*
X0202272Y0212503D02*
X0201522Y0213254D01*
X0200020Y0213254D01*
X0199270Y0212503D01*
X0199270Y0209501D01*
X0200020Y0208750D01*
X0201522Y0208750D01*
X0202272Y0209501D01*
X0230270Y0209501D02*
X0231020Y0208750D01*
X0232522Y0208750D01*
X0233272Y0209501D01*
X0234874Y0209501D02*
X0235624Y0208750D01*
X0237126Y0208750D01*
X0237876Y0209501D01*
X0237876Y0210251D01*
X0237126Y0211002D01*
X0236375Y0211002D01*
X0237126Y0211002D02*
X0237876Y0211753D01*
X0237876Y0212503D01*
X0237126Y0213254D01*
X0235624Y0213254D01*
X0234874Y0212503D01*
X0233272Y0212503D02*
X0232522Y0213254D01*
X0231020Y0213254D01*
X0230270Y0212503D01*
X0230270Y0209501D01*
X0250050Y0211050D02*
X0250050Y0215554D01*
X0252302Y0215554D01*
X0253053Y0214803D01*
X0253053Y0213302D01*
X0252302Y0212551D01*
X0250050Y0212551D01*
X0254654Y0211801D02*
X0254654Y0214803D01*
X0255405Y0215554D01*
X0256906Y0215554D01*
X0257656Y0214803D01*
X0257656Y0211801D01*
X0256906Y0211050D01*
X0255405Y0211050D01*
X0254654Y0211801D01*
X0259258Y0211050D02*
X0260759Y0212551D01*
X0262260Y0211050D01*
X0262260Y0215554D01*
X0263862Y0215554D02*
X0263862Y0211050D01*
X0266864Y0211050D01*
X0268466Y0211050D02*
X0268466Y0215554D01*
X0270718Y0215554D01*
X0271468Y0214803D01*
X0271468Y0213302D01*
X0270718Y0212551D01*
X0268466Y0212551D01*
X0269967Y0212551D02*
X0271468Y0211050D01*
X0266864Y0215554D02*
X0263862Y0215554D01*
X0263862Y0213302D02*
X0265363Y0213302D01*
X0259258Y0215554D02*
X0259258Y0211050D01*
X0092288Y0075586D02*
X0092288Y0075019D01*
X0091721Y0074451D01*
X0092288Y0073884D01*
X0092288Y0073317D01*
X0091721Y0072750D01*
X0090587Y0072750D01*
X0090020Y0073317D01*
X0091154Y0074451D02*
X0091721Y0074451D01*
X0092288Y0075586D02*
X0091721Y0076153D01*
X0090587Y0076153D01*
X0090020Y0075586D01*
X0071538Y0072750D02*
X0069270Y0072750D01*
X0070404Y0072750D02*
X0070404Y0076153D01*
X0069270Y0075019D01*
X0023270Y0032987D02*
X0022519Y0033738D01*
X0021768Y0033738D01*
X0021018Y0032987D01*
X0021018Y0030735D01*
X0022519Y0030735D01*
X0023270Y0031486D01*
X0023270Y0032987D01*
X0021018Y0030735D02*
X0019516Y0032236D01*
X0018766Y0033738D01*
X0024020Y0029134D02*
X0024020Y0026131D01*
X0021768Y0023779D02*
X0021768Y0021527D01*
X0023270Y0021527D02*
X0018766Y0021527D01*
X0018766Y0023779D01*
X0019516Y0024530D01*
X0021018Y0024530D01*
X0021768Y0023779D01*
X0021768Y0019926D02*
X0022519Y0019926D01*
X0023270Y0019175D01*
X0023270Y0017674D01*
X0022519Y0016923D01*
X0022519Y0015322D02*
X0023270Y0014571D01*
X0023270Y0013070D01*
X0022519Y0012319D01*
X0019516Y0012319D01*
X0018766Y0013070D01*
X0018766Y0014571D01*
X0019516Y0015322D01*
X0019516Y0016923D02*
X0020267Y0016923D01*
X0021018Y0017674D01*
X0021018Y0019175D01*
X0021768Y0019926D01*
X0019516Y0019926D02*
X0018766Y0019175D01*
X0018766Y0017674D01*
X0019516Y0016923D01*
X0018766Y0010751D02*
X0018766Y0009250D01*
X0018766Y0010001D02*
X0023270Y0010001D01*
X0023270Y0010751D02*
X0023270Y0009250D01*
X0067958Y0006501D02*
X0068709Y0005750D01*
X0069459Y0005750D01*
X0070210Y0006501D01*
X0070210Y0010254D01*
X0070960Y0010254D02*
X0069459Y0010254D01*
X0072562Y0010254D02*
X0074814Y0010254D01*
X0075564Y0009503D01*
X0075564Y0008002D01*
X0074814Y0007251D01*
X0072562Y0007251D01*
X0072562Y0005750D02*
X0072562Y0010254D01*
X0077166Y0008753D02*
X0078667Y0010254D01*
X0078667Y0005750D01*
X0077166Y0005750D02*
X0080168Y0005750D01*
D15*
X0194220Y0061000D02*
X0194220Y0064000D01*
X0194220Y0067000D01*
X0196720Y0067000D02*
X0196720Y0064000D01*
X0196720Y0061000D01*
X0168820Y0107000D02*
X0168820Y0110000D01*
X0168820Y0113000D01*
X0166320Y0113000D02*
X0166320Y0110000D01*
X0166320Y0107000D01*
X0137820Y0107000D02*
X0137820Y0110000D01*
X0137820Y0113000D01*
X0135320Y0113000D02*
X0135320Y0110000D01*
X0135320Y0107000D01*
X0106820Y0107000D02*
X0106820Y0110000D01*
X0106820Y0113000D01*
X0104320Y0113000D02*
X0104320Y0110000D01*
X0104320Y0107000D01*
X0075820Y0107000D02*
X0075820Y0110000D01*
X0075820Y0113000D01*
X0073320Y0113000D02*
X0073320Y0110000D01*
X0073320Y0107000D01*
X0075320Y0177000D02*
X0075320Y0180000D01*
X0075320Y0183000D01*
X0077820Y0183000D02*
X0077820Y0180000D01*
X0077820Y0177000D01*
X0206320Y0200000D02*
X0206320Y0203000D01*
X0206320Y0206000D01*
X0208820Y0206000D02*
X0208820Y0203000D01*
X0208820Y0200000D01*
X0237320Y0200000D02*
X0237320Y0203000D01*
X0237320Y0206000D01*
X0239820Y0206000D02*
X0239820Y0203000D01*
X0239820Y0200000D01*
D16*
X0155020Y0205000D03*
X0155020Y0190000D03*
X0155020Y0175000D03*
D17*
X0161270Y0175000D03*
X0161270Y0190000D03*
X0161270Y0205000D03*
X0137770Y0205000D03*
X0137770Y0190000D03*
X0137770Y0175000D03*
D18*
X0060520Y0161000D02*
X0060520Y0131000D01*
X0048520Y0131000D01*
X0048520Y0161000D01*
X0060520Y0161000D01*
X0057236Y0119764D02*
X0057236Y0040236D01*
X0021803Y0040236D01*
X0021803Y0071339D01*
X0027709Y0071339D01*
X0027709Y0088661D01*
X0021803Y0088661D01*
X0021803Y0119764D01*
X0056843Y0119764D01*
X0028594Y0102500D02*
X0028594Y0097500D01*
X0021803Y0088661D02*
X0021803Y0071339D01*
X0028020Y0031000D02*
X0033020Y0031000D01*
X0035520Y0028500D01*
X0035520Y0013500D01*
X0038020Y0011000D01*
X0043020Y0011000D01*
X0045520Y0013500D01*
X0045520Y0028500D01*
X0048020Y0031000D01*
X0053020Y0031000D01*
X0055520Y0028500D01*
X0055520Y0013500D01*
X0053020Y0011000D01*
X0048020Y0011000D01*
X0045520Y0013500D01*
X0035520Y0013500D02*
X0033020Y0011000D01*
X0028020Y0011000D01*
X0025520Y0013500D01*
X0025520Y0028500D01*
X0028020Y0031000D01*
X0035520Y0028500D02*
X0038020Y0031000D01*
X0043020Y0031000D01*
X0045520Y0028500D01*
X0033020Y0009681D02*
X0028020Y0009681D01*
X0183520Y0082500D02*
X0184520Y0082500D01*
X0183520Y0082500D02*
X0183520Y0090000D01*
X0183646Y0090002D01*
X0183771Y0090008D01*
X0183896Y0090018D01*
X0184021Y0090032D01*
X0184146Y0090049D01*
X0184270Y0090071D01*
X0184393Y0090096D01*
X0184515Y0090126D01*
X0184636Y0090159D01*
X0184756Y0090196D01*
X0184875Y0090236D01*
X0184992Y0090281D01*
X0185109Y0090329D01*
X0185223Y0090381D01*
X0185336Y0090436D01*
X0185447Y0090495D01*
X0185556Y0090557D01*
X0185663Y0090623D01*
X0185768Y0090692D01*
X0185871Y0090764D01*
X0185972Y0090839D01*
X0186070Y0090918D01*
X0186165Y0091000D01*
X0186258Y0091084D01*
X0186348Y0091172D01*
X0186436Y0091262D01*
X0186520Y0091355D01*
X0186602Y0091450D01*
X0186681Y0091548D01*
X0186756Y0091649D01*
X0186828Y0091752D01*
X0186897Y0091857D01*
X0186963Y0091964D01*
X0187025Y0092073D01*
X0187084Y0092184D01*
X0187139Y0092297D01*
X0187191Y0092411D01*
X0187239Y0092528D01*
X0187284Y0092645D01*
X0187324Y0092764D01*
X0187361Y0092884D01*
X0187394Y0093005D01*
X0187424Y0093127D01*
X0187449Y0093250D01*
X0187471Y0093374D01*
X0187488Y0093499D01*
X0187502Y0093624D01*
X0187512Y0093749D01*
X0187518Y0093874D01*
X0187520Y0094000D01*
X0187518Y0094126D01*
X0187512Y0094251D01*
X0187502Y0094376D01*
X0187488Y0094501D01*
X0187471Y0094626D01*
X0187449Y0094750D01*
X0187424Y0094873D01*
X0187394Y0094995D01*
X0187361Y0095116D01*
X0187324Y0095236D01*
X0187284Y0095355D01*
X0187239Y0095472D01*
X0187191Y0095589D01*
X0187139Y0095703D01*
X0187084Y0095816D01*
X0187025Y0095927D01*
X0186963Y0096036D01*
X0186897Y0096143D01*
X0186828Y0096248D01*
X0186756Y0096351D01*
X0186681Y0096452D01*
X0186602Y0096550D01*
X0186520Y0096645D01*
X0186436Y0096738D01*
X0186348Y0096828D01*
X0186258Y0096916D01*
X0186165Y0097000D01*
X0186070Y0097082D01*
X0185972Y0097161D01*
X0185871Y0097236D01*
X0185768Y0097308D01*
X0185663Y0097377D01*
X0185556Y0097443D01*
X0185447Y0097505D01*
X0185336Y0097564D01*
X0185223Y0097619D01*
X0185109Y0097671D01*
X0184992Y0097719D01*
X0184875Y0097764D01*
X0184756Y0097804D01*
X0184636Y0097841D01*
X0184515Y0097874D01*
X0184393Y0097904D01*
X0184270Y0097929D01*
X0184146Y0097951D01*
X0184021Y0097968D01*
X0183896Y0097982D01*
X0183771Y0097992D01*
X0183646Y0097998D01*
X0183520Y0098000D01*
X0183520Y0105500D01*
X0184520Y0105500D01*
X0192220Y0105500D02*
X0194820Y0105500D01*
X0202220Y0105500D02*
X0204820Y0105500D01*
X0212220Y0105500D02*
X0214820Y0105500D01*
X0222220Y0105500D02*
X0224820Y0105500D01*
X0232220Y0105500D02*
X0234820Y0105500D01*
X0242220Y0105500D02*
X0244820Y0105500D01*
X0252520Y0105500D02*
X0253520Y0105500D01*
X0253520Y0082500D01*
X0252520Y0082500D01*
X0244820Y0082500D02*
X0242220Y0082500D01*
X0234820Y0082500D02*
X0232220Y0082500D01*
X0224820Y0082500D02*
X0222220Y0082500D01*
X0214820Y0082500D02*
X0212220Y0082500D01*
X0204820Y0082500D02*
X0202220Y0082500D01*
X0194820Y0082500D02*
X0192220Y0082500D01*
X0213520Y0059000D02*
X0213520Y0043000D01*
X0213520Y0045000D01*
X0213520Y0043000D02*
X0213520Y0039000D01*
X0253520Y0039000D01*
X0253520Y0059000D01*
X0213520Y0059000D01*
D19*
X0056315Y0175252D02*
X0056315Y0181748D01*
X0054346Y0181748D02*
X0054346Y0175252D01*
X0056315Y0175252D01*
X0048441Y0180252D02*
X0048441Y0206748D01*
X0054346Y0206748D01*
X0054346Y0200252D01*
X0056315Y0200252D02*
X0056315Y0206748D01*
X0054346Y0206748D01*
X0048441Y0206748D02*
X0048441Y0208717D01*
X0001197Y0208717D01*
X0001197Y0203598D01*
X0005134Y0203598D01*
X0001197Y0203598D02*
X0001197Y0178402D01*
X0005134Y0178402D01*
X0001197Y0178402D02*
X0001197Y0173283D01*
X0033441Y0173283D01*
X0032693Y0178402D02*
X0036630Y0178402D01*
X0036630Y0184176D01*
X0036630Y0188113D02*
X0036630Y0193887D01*
X0036630Y0197824D02*
X0036630Y0203598D01*
X0032693Y0203598D01*
X0028756Y0203598D02*
X0024819Y0203598D01*
X0020882Y0203598D02*
X0016945Y0203598D01*
X0014976Y0206748D02*
X0048441Y0206748D01*
X0014976Y0206748D02*
X0014976Y0208717D01*
X0014976Y0206748D02*
X0014976Y0173283D01*
X0013008Y0178402D02*
X0009071Y0178402D01*
X0016945Y0178402D02*
X0020882Y0178402D01*
X0024819Y0178402D02*
X0028756Y0178402D01*
X0009071Y0187063D02*
X0008947Y0187065D01*
X0008824Y0187071D01*
X0008700Y0187080D01*
X0008578Y0187094D01*
X0008455Y0187111D01*
X0008333Y0187133D01*
X0008212Y0187158D01*
X0008092Y0187187D01*
X0007973Y0187219D01*
X0007854Y0187256D01*
X0007737Y0187296D01*
X0007622Y0187339D01*
X0007507Y0187387D01*
X0007395Y0187438D01*
X0007284Y0187492D01*
X0007174Y0187550D01*
X0007067Y0187611D01*
X0006961Y0187676D01*
X0006858Y0187744D01*
X0006757Y0187815D01*
X0006658Y0187889D01*
X0006561Y0187966D01*
X0006467Y0188047D01*
X0006376Y0188130D01*
X0006287Y0188216D01*
X0006201Y0188305D01*
X0006118Y0188396D01*
X0006037Y0188490D01*
X0005960Y0188587D01*
X0005886Y0188686D01*
X0005815Y0188787D01*
X0005747Y0188890D01*
X0005682Y0188996D01*
X0005621Y0189103D01*
X0005563Y0189213D01*
X0005509Y0189324D01*
X0005458Y0189436D01*
X0005410Y0189551D01*
X0005367Y0189666D01*
X0005327Y0189783D01*
X0005290Y0189902D01*
X0005258Y0190021D01*
X0005229Y0190141D01*
X0005204Y0190262D01*
X0005182Y0190384D01*
X0005165Y0190507D01*
X0005151Y0190629D01*
X0005142Y0190753D01*
X0005136Y0190876D01*
X0005134Y0191000D01*
X0005136Y0191124D01*
X0005142Y0191247D01*
X0005151Y0191371D01*
X0005165Y0191493D01*
X0005182Y0191616D01*
X0005204Y0191738D01*
X0005229Y0191859D01*
X0005258Y0191979D01*
X0005290Y0192098D01*
X0005327Y0192217D01*
X0005367Y0192334D01*
X0005410Y0192449D01*
X0005458Y0192564D01*
X0005509Y0192676D01*
X0005563Y0192787D01*
X0005621Y0192897D01*
X0005682Y0193004D01*
X0005747Y0193110D01*
X0005815Y0193213D01*
X0005886Y0193314D01*
X0005960Y0193413D01*
X0006037Y0193510D01*
X0006118Y0193604D01*
X0006201Y0193695D01*
X0006287Y0193784D01*
X0006376Y0193870D01*
X0006467Y0193953D01*
X0006561Y0194034D01*
X0006658Y0194111D01*
X0006757Y0194185D01*
X0006858Y0194256D01*
X0006961Y0194324D01*
X0007067Y0194389D01*
X0007174Y0194450D01*
X0007284Y0194508D01*
X0007395Y0194562D01*
X0007507Y0194613D01*
X0007622Y0194661D01*
X0007737Y0194704D01*
X0007854Y0194744D01*
X0007973Y0194781D01*
X0008092Y0194813D01*
X0008212Y0194842D01*
X0008333Y0194867D01*
X0008455Y0194889D01*
X0008578Y0194906D01*
X0008700Y0194920D01*
X0008824Y0194929D01*
X0008947Y0194935D01*
X0009071Y0194937D01*
X0009071Y0203598D02*
X0013008Y0203598D01*
D20*
X0085120Y0127800D03*
D21*
X0073020Y0128750D03*
X0073020Y0163250D03*
D22*
X0072020Y0156000D03*
X0072020Y0146000D03*
X0072020Y0136000D03*
D23*
X0073020Y0141000D03*
X0073020Y0151000D03*
D24*
X0071305Y0202293D03*
X0071305Y0207707D03*
X0077305Y0064707D03*
X0077305Y0059293D03*
X0077305Y0049707D03*
X0077305Y0044293D03*
X0077305Y0035707D03*
X0077305Y0030293D03*
D25*
X0078831Y0033000D03*
X0078831Y0047000D03*
X0078831Y0062000D03*
X0072831Y0205000D03*
D26*
X0182520Y0203200D03*
X0182520Y0174800D03*
D27*
X0098520Y0156750D03*
X0098520Y0135250D03*
D28*
X0215692Y0044000D02*
X0215694Y0044106D01*
X0215700Y0044211D01*
X0215710Y0044317D01*
X0215724Y0044421D01*
X0215741Y0044526D01*
X0215763Y0044629D01*
X0215788Y0044732D01*
X0215818Y0044834D01*
X0215851Y0044934D01*
X0215887Y0045033D01*
X0215928Y0045131D01*
X0215972Y0045227D01*
X0216020Y0045321D01*
X0216071Y0045414D01*
X0216125Y0045505D01*
X0216183Y0045593D01*
X0216245Y0045679D01*
X0216309Y0045763D01*
X0216376Y0045845D01*
X0216447Y0045924D01*
X0216520Y0046000D01*
X0216596Y0046073D01*
X0216675Y0046144D01*
X0216757Y0046211D01*
X0216841Y0046275D01*
X0216927Y0046337D01*
X0217015Y0046395D01*
X0217106Y0046449D01*
X0217199Y0046500D01*
X0217293Y0046548D01*
X0217389Y0046592D01*
X0217487Y0046633D01*
X0217586Y0046669D01*
X0217686Y0046702D01*
X0217788Y0046732D01*
X0217891Y0046757D01*
X0217994Y0046779D01*
X0218099Y0046796D01*
X0218203Y0046810D01*
X0218309Y0046820D01*
X0218414Y0046826D01*
X0218520Y0046828D01*
X0218626Y0046826D01*
X0218731Y0046820D01*
X0218837Y0046810D01*
X0218941Y0046796D01*
X0219046Y0046779D01*
X0219149Y0046757D01*
X0219252Y0046732D01*
X0219354Y0046702D01*
X0219454Y0046669D01*
X0219553Y0046633D01*
X0219651Y0046592D01*
X0219747Y0046548D01*
X0219841Y0046500D01*
X0219934Y0046449D01*
X0220025Y0046395D01*
X0220113Y0046337D01*
X0220199Y0046275D01*
X0220283Y0046211D01*
X0220365Y0046144D01*
X0220444Y0046073D01*
X0220520Y0046000D01*
X0220593Y0045924D01*
X0220664Y0045845D01*
X0220731Y0045763D01*
X0220795Y0045679D01*
X0220857Y0045593D01*
X0220915Y0045505D01*
X0220969Y0045414D01*
X0221020Y0045321D01*
X0221068Y0045227D01*
X0221112Y0045131D01*
X0221153Y0045033D01*
X0221189Y0044934D01*
X0221222Y0044834D01*
X0221252Y0044732D01*
X0221277Y0044629D01*
X0221299Y0044526D01*
X0221316Y0044421D01*
X0221330Y0044317D01*
X0221340Y0044211D01*
X0221346Y0044106D01*
X0221348Y0044000D01*
X0221346Y0043894D01*
X0221340Y0043789D01*
X0221330Y0043683D01*
X0221316Y0043579D01*
X0221299Y0043474D01*
X0221277Y0043371D01*
X0221252Y0043268D01*
X0221222Y0043166D01*
X0221189Y0043066D01*
X0221153Y0042967D01*
X0221112Y0042869D01*
X0221068Y0042773D01*
X0221020Y0042679D01*
X0220969Y0042586D01*
X0220915Y0042495D01*
X0220857Y0042407D01*
X0220795Y0042321D01*
X0220731Y0042237D01*
X0220664Y0042155D01*
X0220593Y0042076D01*
X0220520Y0042000D01*
X0220444Y0041927D01*
X0220365Y0041856D01*
X0220283Y0041789D01*
X0220199Y0041725D01*
X0220113Y0041663D01*
X0220025Y0041605D01*
X0219934Y0041551D01*
X0219841Y0041500D01*
X0219747Y0041452D01*
X0219651Y0041408D01*
X0219553Y0041367D01*
X0219454Y0041331D01*
X0219354Y0041298D01*
X0219252Y0041268D01*
X0219149Y0041243D01*
X0219046Y0041221D01*
X0218941Y0041204D01*
X0218837Y0041190D01*
X0218731Y0041180D01*
X0218626Y0041174D01*
X0218520Y0041172D01*
X0218414Y0041174D01*
X0218309Y0041180D01*
X0218203Y0041190D01*
X0218099Y0041204D01*
X0217994Y0041221D01*
X0217891Y0041243D01*
X0217788Y0041268D01*
X0217686Y0041298D01*
X0217586Y0041331D01*
X0217487Y0041367D01*
X0217389Y0041408D01*
X0217293Y0041452D01*
X0217199Y0041500D01*
X0217106Y0041551D01*
X0217015Y0041605D01*
X0216927Y0041663D01*
X0216841Y0041725D01*
X0216757Y0041789D01*
X0216675Y0041856D01*
X0216596Y0041927D01*
X0216520Y0042000D01*
X0216447Y0042076D01*
X0216376Y0042155D01*
X0216309Y0042237D01*
X0216245Y0042321D01*
X0216183Y0042407D01*
X0216125Y0042495D01*
X0216071Y0042586D01*
X0216020Y0042679D01*
X0215972Y0042773D01*
X0215928Y0042869D01*
X0215887Y0042967D01*
X0215851Y0043066D01*
X0215818Y0043166D01*
X0215788Y0043268D01*
X0215763Y0043371D01*
X0215741Y0043474D01*
X0215724Y0043579D01*
X0215710Y0043683D01*
X0215700Y0043789D01*
X0215694Y0043894D01*
X0215692Y0044000D01*
D29*
X0094270Y0071250D02*
X0066770Y0071250D01*
X0066770Y0098750D01*
X0094270Y0098750D01*
X0094270Y0071250D01*
X0143370Y0138850D02*
X0143370Y0143054D01*
X0145471Y0145155D01*
X0147573Y0143054D01*
X0147573Y0138850D01*
X0147573Y0142003D02*
X0143370Y0142003D01*
X0149815Y0145155D02*
X0154019Y0145155D01*
X0151917Y0145155D02*
X0151917Y0138850D01*
X0156261Y0138850D02*
X0156261Y0145155D01*
X0158362Y0143054D01*
X0160464Y0145155D01*
X0160464Y0138850D01*
X0162706Y0138850D02*
X0166910Y0138850D01*
X0169152Y0139901D02*
X0170203Y0138850D01*
X0172304Y0138850D01*
X0173355Y0139901D01*
X0173355Y0142003D01*
X0171253Y0142003D01*
X0169152Y0144104D02*
X0169152Y0139901D01*
X0169152Y0144104D02*
X0170203Y0145155D01*
X0172304Y0145155D01*
X0173355Y0144104D01*
X0175597Y0143054D02*
X0177699Y0145155D01*
X0179801Y0143054D01*
X0179801Y0138850D01*
X0182043Y0139901D02*
X0183094Y0138850D01*
X0185195Y0138850D01*
X0186246Y0139901D01*
X0186246Y0140952D01*
X0185195Y0142003D01*
X0184144Y0142003D01*
X0185195Y0142003D02*
X0186246Y0143054D01*
X0186246Y0144104D01*
X0185195Y0145155D01*
X0183094Y0145155D01*
X0182043Y0144104D01*
X0179801Y0142003D02*
X0175597Y0142003D01*
X0175597Y0143054D02*
X0175597Y0138850D01*
X0166910Y0145155D02*
X0162706Y0145155D01*
X0162706Y0138850D01*
X0162706Y0142003D02*
X0164808Y0142003D01*
X0188488Y0144104D02*
X0189539Y0145155D01*
X0191641Y0145155D01*
X0192692Y0144104D01*
X0192692Y0143054D01*
X0188488Y0138850D01*
X0192692Y0138850D01*
X0194934Y0139901D02*
X0194934Y0140952D01*
X0195985Y0142003D01*
X0198086Y0142003D01*
X0199137Y0140952D01*
X0199137Y0139901D01*
X0198086Y0138850D01*
X0195985Y0138850D01*
X0194934Y0139901D01*
X0195985Y0142003D02*
X0194934Y0143054D01*
X0194934Y0144104D01*
X0195985Y0145155D01*
X0198086Y0145155D01*
X0199137Y0144104D01*
X0199137Y0143054D01*
X0198086Y0142003D01*
X0201379Y0140952D02*
X0204532Y0140952D01*
X0205583Y0142003D01*
X0205583Y0144104D01*
X0204532Y0145155D01*
X0201379Y0145155D01*
X0201379Y0138850D01*
X0207825Y0142003D02*
X0212028Y0142003D01*
X0214270Y0140952D02*
X0217423Y0140952D01*
X0218474Y0142003D01*
X0218474Y0144104D01*
X0217423Y0145155D01*
X0214270Y0145155D01*
X0214270Y0138850D01*
X0220716Y0139901D02*
X0221767Y0138850D01*
X0223868Y0138850D01*
X0224919Y0139901D01*
X0224919Y0145155D01*
X0220716Y0145155D02*
X0220716Y0139901D01*
D30*
X0208020Y0173000D02*
X0235020Y0173000D01*
X0235190Y0173002D01*
X0235361Y0173008D01*
X0235531Y0173019D01*
X0235701Y0173033D01*
X0235870Y0173052D01*
X0236039Y0173075D01*
X0236208Y0173101D01*
X0236375Y0173132D01*
X0236542Y0173167D01*
X0236708Y0173207D01*
X0236873Y0173250D01*
X0237037Y0173297D01*
X0237199Y0173348D01*
X0237361Y0173403D01*
X0237521Y0173462D01*
X0237679Y0173525D01*
X0237836Y0173591D01*
X0237991Y0173662D01*
X0238145Y0173736D01*
X0238296Y0173814D01*
X0238446Y0173896D01*
X0238594Y0173981D01*
X0238739Y0174070D01*
X0238882Y0174162D01*
X0239023Y0174258D01*
X0239162Y0174357D01*
X0239298Y0174460D01*
X0239432Y0174565D01*
X0239563Y0174674D01*
X0239691Y0174787D01*
X0239817Y0174902D01*
X0239940Y0175020D01*
X0240059Y0175141D01*
X0240176Y0175266D01*
X0240290Y0175393D01*
X0240401Y0175522D01*
X0240508Y0175655D01*
X0240612Y0175790D01*
X0240713Y0175927D01*
X0240811Y0176067D01*
X0240905Y0176209D01*
X0240995Y0176353D01*
X0241082Y0176500D01*
X0241166Y0176649D01*
X0241245Y0176799D01*
X0241321Y0176952D01*
X0241394Y0177106D01*
X0241462Y0177262D01*
X0241527Y0177420D01*
X0241588Y0177579D01*
X0241645Y0177740D01*
X0241698Y0177902D01*
X0241747Y0178065D01*
X0241792Y0178229D01*
X0241833Y0178395D01*
X0241871Y0178561D01*
X0241904Y0178729D01*
X0241932Y0178897D01*
X0241957Y0179065D01*
X0241978Y0179234D01*
X0241995Y0179404D01*
X0242007Y0179574D01*
X0242015Y0179744D01*
X0242019Y0179915D01*
X0242019Y0180085D01*
X0242015Y0180256D01*
X0242007Y0180426D01*
X0241995Y0180596D01*
X0241978Y0180766D01*
X0241957Y0180935D01*
X0241932Y0181103D01*
X0241904Y0181271D01*
X0241871Y0181439D01*
X0241833Y0181605D01*
X0241792Y0181771D01*
X0241747Y0181935D01*
X0241698Y0182098D01*
X0241645Y0182260D01*
X0241588Y0182421D01*
X0241527Y0182580D01*
X0241462Y0182738D01*
X0241394Y0182894D01*
X0241321Y0183048D01*
X0241245Y0183201D01*
X0241166Y0183351D01*
X0241082Y0183500D01*
X0240995Y0183647D01*
X0240905Y0183791D01*
X0240811Y0183933D01*
X0240713Y0184073D01*
X0240612Y0184210D01*
X0240508Y0184345D01*
X0240401Y0184478D01*
X0240290Y0184607D01*
X0240176Y0184734D01*
X0240059Y0184859D01*
X0239940Y0184980D01*
X0239817Y0185098D01*
X0239691Y0185213D01*
X0239563Y0185326D01*
X0239432Y0185435D01*
X0239298Y0185540D01*
X0239162Y0185643D01*
X0239023Y0185742D01*
X0238882Y0185838D01*
X0238739Y0185930D01*
X0238594Y0186019D01*
X0238446Y0186104D01*
X0238296Y0186186D01*
X0238145Y0186264D01*
X0237991Y0186338D01*
X0237836Y0186409D01*
X0237679Y0186475D01*
X0237521Y0186538D01*
X0237361Y0186597D01*
X0237199Y0186652D01*
X0237037Y0186703D01*
X0236873Y0186750D01*
X0236708Y0186793D01*
X0236542Y0186833D01*
X0236375Y0186868D01*
X0236208Y0186899D01*
X0236039Y0186925D01*
X0235870Y0186948D01*
X0235701Y0186967D01*
X0235531Y0186981D01*
X0235361Y0186992D01*
X0235190Y0186998D01*
X0235020Y0187000D01*
X0208020Y0187000D01*
X0207850Y0186998D01*
X0207679Y0186992D01*
X0207509Y0186981D01*
X0207339Y0186967D01*
X0207170Y0186948D01*
X0207001Y0186925D01*
X0206832Y0186899D01*
X0206665Y0186868D01*
X0206498Y0186833D01*
X0206332Y0186793D01*
X0206167Y0186750D01*
X0206003Y0186703D01*
X0205841Y0186652D01*
X0205679Y0186597D01*
X0205519Y0186538D01*
X0205361Y0186475D01*
X0205204Y0186409D01*
X0205049Y0186338D01*
X0204895Y0186264D01*
X0204744Y0186186D01*
X0204594Y0186104D01*
X0204446Y0186019D01*
X0204301Y0185930D01*
X0204158Y0185838D01*
X0204017Y0185742D01*
X0203878Y0185643D01*
X0203742Y0185540D01*
X0203608Y0185435D01*
X0203477Y0185326D01*
X0203349Y0185213D01*
X0203223Y0185098D01*
X0203100Y0184980D01*
X0202981Y0184859D01*
X0202864Y0184734D01*
X0202750Y0184607D01*
X0202639Y0184478D01*
X0202532Y0184345D01*
X0202428Y0184210D01*
X0202327Y0184073D01*
X0202229Y0183933D01*
X0202135Y0183791D01*
X0202045Y0183647D01*
X0201958Y0183500D01*
X0201874Y0183351D01*
X0201795Y0183201D01*
X0201719Y0183048D01*
X0201646Y0182894D01*
X0201578Y0182738D01*
X0201513Y0182580D01*
X0201452Y0182421D01*
X0201395Y0182260D01*
X0201342Y0182098D01*
X0201293Y0181935D01*
X0201248Y0181771D01*
X0201207Y0181605D01*
X0201169Y0181439D01*
X0201136Y0181271D01*
X0201108Y0181103D01*
X0201083Y0180935D01*
X0201062Y0180766D01*
X0201045Y0180596D01*
X0201033Y0180426D01*
X0201025Y0180256D01*
X0201021Y0180085D01*
X0201021Y0179915D01*
X0201025Y0179744D01*
X0201033Y0179574D01*
X0201045Y0179404D01*
X0201062Y0179234D01*
X0201083Y0179065D01*
X0201108Y0178897D01*
X0201136Y0178729D01*
X0201169Y0178561D01*
X0201207Y0178395D01*
X0201248Y0178229D01*
X0201293Y0178065D01*
X0201342Y0177902D01*
X0201395Y0177740D01*
X0201452Y0177579D01*
X0201513Y0177420D01*
X0201578Y0177262D01*
X0201646Y0177106D01*
X0201719Y0176952D01*
X0201795Y0176799D01*
X0201874Y0176649D01*
X0201958Y0176500D01*
X0202045Y0176353D01*
X0202135Y0176209D01*
X0202229Y0176067D01*
X0202327Y0175927D01*
X0202428Y0175790D01*
X0202532Y0175655D01*
X0202639Y0175522D01*
X0202750Y0175393D01*
X0202864Y0175266D01*
X0202981Y0175141D01*
X0203100Y0175020D01*
X0203223Y0174902D01*
X0203349Y0174787D01*
X0203477Y0174674D01*
X0203608Y0174565D01*
X0203742Y0174460D01*
X0203878Y0174357D01*
X0204017Y0174258D01*
X0204158Y0174162D01*
X0204301Y0174070D01*
X0204446Y0173981D01*
X0204594Y0173896D01*
X0204744Y0173814D01*
X0204895Y0173736D01*
X0205049Y0173662D01*
X0205204Y0173591D01*
X0205361Y0173525D01*
X0205519Y0173462D01*
X0205679Y0173403D01*
X0205841Y0173348D01*
X0206003Y0173297D01*
X0206167Y0173250D01*
X0206332Y0173207D01*
X0206498Y0173167D01*
X0206665Y0173132D01*
X0206832Y0173101D01*
X0207001Y0173075D01*
X0207170Y0173052D01*
X0207339Y0173033D01*
X0207509Y0173019D01*
X0207679Y0173008D01*
X0207850Y0173002D01*
X0208020Y0173000D01*
D31*
X0140720Y0093000D03*
X0140720Y0078000D03*
X0140720Y0064000D03*
X0140720Y0050000D03*
X0150220Y0033000D03*
X0112820Y0033000D03*
X0112320Y0050000D03*
X0112320Y0064000D03*
X0112320Y0078000D03*
X0112320Y0093000D03*
D32*
X0033740Y0132236D02*
X0014055Y0132236D01*
X0014055Y0161764D01*
X0033740Y0161764D01*
X0033740Y0132236D01*
M02*
