%
M48
M72
T01C0.01200
T02C0.02000
T03C0.02362
T04C0.02400
T05C0.02756
T06C0.03150
T07C0.03200
T08C0.03346
T09C0.03600
T10C0.03937
T11C0.04000
T12C0.04400
T13C0.05118
%
T01
X144520Y182550
X148520Y168050
X173520Y130050
X145520Y103050
X195520Y100050
X216020Y117550
X223020Y116550
X246020Y132550
X235520Y138050
X228520Y135050
X258020Y145550
X213520Y170050
X218020Y184050
X229020Y68050
X223520Y54050
X243520Y51050
X203520Y8550
X174020Y29550
X156520Y8550
X78520Y63550
X47520Y35550
X59520Y8550
X27020Y84050
T02
X44520Y39050
X59520Y58550
X72520Y74550
X82020Y16050
X172020Y90550
X208020Y69050
X148020Y172550
X178520Y186550
X192020Y202050
X230020Y187550
X42520Y143050
T03
X22520Y161487
X22520Y128613
T04
X211520Y178050
X231520Y178050
T05
X34331Y153810
X34331Y136290
T06
X31709Y189050
X43520Y170152
X54520Y154050
X54520Y134050
T07
X66520Y178050
X86520Y178050
X98520Y159050
X98520Y129050
X95520Y108050
X84520Y108050
X64520Y108050
X70520Y83050
X80520Y73050
X90520Y83050
X106520Y76050
X106520Y91050
X115520Y108050
X126520Y108050
X146520Y108050
X157520Y108050
X177520Y108050
X188520Y107050
X198520Y107050
X208520Y107050
X218520Y107050
X228520Y107050
X238520Y107050
X248520Y107050
X248520Y77050
X238520Y77050
X228520Y77050
X218520Y77050
X208520Y77050
X198520Y77050
X188520Y77050
X185520Y62050
X205520Y62050
X218520Y62050
X228520Y62050
X238520Y62050
X248520Y62050
X248520Y32050
X238520Y32050
X228520Y32050
X218520Y32050
X156520Y31050
X146520Y48050
X146520Y62050
X146520Y76050
X146520Y91050
X106520Y62050
X106520Y48050
X106520Y31050
X182520Y167050
X197520Y201050
X182520Y207050
X217520Y201050
X228520Y201050
X248520Y201050
T08
X118520Y155050
X128520Y155050
X138520Y155050
X148520Y155050
X158520Y155050
X168520Y155050
X178520Y155050
X188520Y155050
X198520Y155050
X208520Y155050
X218520Y155050
X228520Y155050
X238520Y155050
X248520Y155050
X248520Y125050
X238520Y125050
X228520Y125050
X218520Y125050
X208520Y125050
X198520Y125050
X188520Y125050
X178520Y125050
X168520Y125050
X158520Y125050
X148520Y125050
X138520Y125050
X128520Y125050
X118520Y125050
T09
X66520Y15050
X76520Y15050
T10
X55331Y189050
T11
X80520Y154050
X80520Y144050
X80520Y134050
X44520Y98050
X34520Y98050
X34520Y88050
X44520Y88050
X44520Y78050
X34520Y78050
X34520Y68050
X44520Y68050
X44520Y58050
X34520Y58050
X30520Y24050
X40520Y24050
X50520Y24050
X50520Y14050
X40520Y14050
X30520Y14050
X92520Y15050
X102520Y15050
X112520Y15050
X122520Y15050
X132520Y15050
X142520Y15050
X152520Y15050
X162520Y15050
X179520Y15050
X189520Y15050
X199520Y15050
X209520Y15050
X219520Y15050
X229520Y15050
X239520Y15050
X249520Y15050
X265520Y25050
X265520Y35050
X265520Y45050
X265520Y55050
X265520Y65050
X265520Y75050
X265520Y85050
X265520Y95050
X265520Y163050
X265520Y173050
X265520Y183050
X265520Y193050
X265520Y203050
T12
X129520Y203050
X129520Y188050
X129520Y173050
X169520Y173050
X169520Y188050
X169520Y203050
T13
X92724Y200050
X118315Y200050
M30
